<?xml version="1.0" encoding="UTF-8"?><svg id="Layer_4" xmlns="http://www.w3.org/2000/svg" viewBox="0 0 566.93 566.93"><defs><style>.cls-1{fill:#ffd110;}</style></defs><path class="cls-1" d="m246.83,228.8c-14.96,0-27.08,12.13-27.08,27.08s12.13,27.08,27.08,27.08,27.08-12.13,27.08-27.08-12.13-27.08-27.08-27.08Zm16.85,34.37s-3.17,4.4-12.09,5.77c-.04,0-.08.04-.08.09l-.03,1.61s0,2.2,1.87,2.02h2.25c.81,0,1.51.66,1.5,1.47,0,.06,0,.12-.02.18-.02.16-.05.3-.09.42-.18.58-.73.97-1.34.97h-17.03c-.25,0-.49-.09-.68-.24-.23-.19-.48-.52-.5-1.02,0,0-.07-.94.57-1.41.17-.12.38-.18.59-.19l3-.08c.22,0,.43-.07.62-.18.36-.23.83-.73.83-1.81l.03-1.69s-.03-.09-.08-.09c-.74-.1-6.55-.99-9.62-3.6,0,0-4.61-2.83-4.94-9,0,0-.18-4.16,2.56-7.77,0,0,2.84-4.09,10.73-5.22.06,0,.11.03.11.09l.06,3.38s-.02.08-.06.09c-.51.15-3.88,1.22-4.54,3.42,0,0-1.08,1.9-.96,5.6,0,0,.06,3.07.27,3.83,0,0,.6,3.01,2.38,4.04,0,0,2.42,1.9,8.34,2.05,0,0,.88-.04,2.06-.16,1.18-.12,2.66-.32,3.87-.65.68-.18,1.31-.5,1.86-.92.92-.71,1.97-1.57,2.71-3.39.08-.2.14-.41.21-.62.05-.18.11-.38.11-.38,0,0,.73-4.36.03-7.41,0,0-.14-.5-.39-1.15-.25-.65-.62-1.44-1.09-2.01,0,0-1.21-1.8-5.16-2.48-.06,0-.11.03-.11.09v17.23s-.02.07-.06.09c-.49.15-3.87,1.1-8.15-.09-.04,0-.07-.05-.07-.09l.09-22.3s.12-1.72-1.56-1.84l-2.8-.36s-.75-.03-1.08-.66l-.13-.35c-.23-.66,0-1.4.59-1.78.28-.18.44-.2,1.28-.33,0,0,2.11-.37,4.44-.88,2.33-.52,4.88-1.18,5.77-1.77,0,0,.38-.21.89-.12.49.09.88.46.97.95.04.22.04.51-.02.88h0s-.12,7.69-.12,7.69c0,.05.03.09.08.09.87.11,8.65,1.16,11.63,5.05,0,0,3.13,3.1,3.04,7.47,0,0-.15,4.74-2.53,7.53Z"/><g><path class="cls-1" d="m431.64,484.92v-16h-33v-27h33v-10h-62v-15h25v-14h-25v-22h15v-29h-29v-23h52v-9h-43v-30h10l.31-20.97,6.19-5.53c11-6,24-5,36-9,17-7,35-13,46-29,1-1,0-3-1-4-8-7-16-13-27-14-14-1-28,0-42,5-14,6-28,11-41,18-3,1-3.19,1.53-7.19,1.53v-22h-12v-14h10v-9h-10v-11c0-6,9.19-12.53,17.19-16.53,18-7,37-9,56-8,13,1,24,9,32.54,16.64l7.29-.19v-17.95h-20.33v-11h-16v-6h-48v-26.84l-4.18.9c-19.32,3.44-37.32,7.44-56.32,13.44-13,5-25,12-37,20-17,13-25,30-36,48-3,4-8,4-11,7-5,5-11,7-14,13-2,5-4,11-7,15-7,7-17,10-26,13-5,3-8,8-13,12-16,10-32,13-48,23-10,7-16,17-25,25-6,4-12,7-19,10-1,5-4,9-3,14,3,9,9,16,15,24,1,2,2,5,3,7,3,5,7,10,13,10,7,0,13-2,20-2,30,1,59,4,89,7,18,1,36-3,54-8,13-2,22,11,26,21,7,15,11,31,13,47l-5.5,70.5,177,1v-13h-35Zm-185.4-193.96c-19.09,0-34.56-15.47-34.56-34.56s15.47-34.55,34.56-34.55,34.55,15.47,34.55,34.55-15.47,34.56-34.55,34.56Z"/><rect class="cls-1" x="377.64" y="273.92" width="36" height="16"/><rect class="cls-1" x="368.64" y="293.92" width="22" height="22"/><rect class="cls-1" x="394.95" y="305.95" width="38" height="10"/><rect class="cls-1" x="469.95" y="162.63" width="4.32" height="4.32"/><rect class="cls-1" x="465.95" y="143.63" width="4.32" height="4.32"/><rect class="cls-1" x="406.95" y="109.95" width="11.34" height="7"/><rect class="cls-1" x="420.95" y="109.95" width="7" height="7"/><rect class="cls-1" x="450.95" y="117.95" width="7" height="7"/><rect class="cls-1" x="427.14" y="118.42" width="19.98" height="7"/><rect class="cls-1" x="424.14" y="376.42" width="10" height="10"/><rect class="cls-1" x="360.95" y="331.95" width="31" height="17"/><rect class="cls-1" x="397.95" y="331.95" width="11.69" height="17"/><rect class="cls-1" x="395.95" y="351.95" width="29" height="9"/><rect class="cls-1" x="387.14" y="364.42" width="29" height="9"/><rect class="cls-1" x="393.64" y="376.25" width="4.36" height="23.67"/><rect class="cls-1" x="400.64" y="376.25" width="19.96" height="23.67"/><rect class="cls-1" x="372.64" y="383.92" width="10" height="15"/><rect class="cls-1" x="397.64" y="402.92" width="22.5" height="14"/><rect class="cls-1" x="423.64" y="402.92" width="19.02" height="14"/><rect class="cls-1" x="445.64" y="402.92" width="8" height="13"/><rect class="cls-1" x="372.64" y="419.92" width="10" height="10"/><rect class="cls-1" x="391.64" y="419.92" width="48" height="9"/><rect class="cls-1" x="449.64" y="419.92" width="9" height="9"/><rect class="cls-1" x="416.95" y="277.95" width="12" height="12"/><rect class="cls-1" x="439.64" y="431.92" width="14" height="10"/><rect class="cls-1" x="403.64" y="445.92" width="32" height="19"/><rect class="cls-1" x="434.64" y="471.92" width="12" height="10"/><rect class="cls-1" x="335.81" y="197.95" width="15.34" height="10"/><rect class="cls-1" x="334.95" y="173.98" width="6.58" height="10.97"/><rect class="cls-1" x="346.95" y="209.98" width="3.19" height="19.17"/><rect class="cls-1" x="411.95" y="120.05" width="12" height="15.9" transform="translate(-.28 .92) rotate(-.13)"/><rect class="cls-1" x="427.96" y="128.11" width="13.99" height="18.84"/><rect class="cls-1" x="450.95" y="149.95" width="17" height="17.89"/><rect class="cls-1" x="443.95" y="136.95" width="17" height="11"/><polygon class="cls-1" points="455.45 182.95 471.95 198.51 471.95 182.95 455.45 182.95"/><rect class="cls-1" x="345.92" y="192.01" width="3.94" height="3.94"/><polygon class="cls-1" points="441.15 171.02 450.95 178.95 459.1 179.02 459.1 171.02 441.15 171.02"/><rect class="cls-1" x="462.73" y="170.95" width="9.22" height="8"/><rect class="cls-1" x="365.71" y="105.95" width="39.25" height="22.83"/><rect class="cls-1" x="432.63" y="112.95" width="4.32" height="4.32"/><rect class="cls-1" x="414.05" y="343.84" width="4.32" height="4.32"/><rect class="cls-1" x="387.05" y="376.84" width="4.32" height="4.32"/><rect class="cls-1" x="424.05" y="395.84" width="4.32" height="4.32"/><rect class="cls-1" x="396.05" y="299.84" width="4.32" height="4.32"/><rect class="cls-1" x="438.05" y="356.84" width="4.32" height="4.32"/><rect class="cls-1" x="443.05" y="310.84" width="4.32" height="4.32"/><rect class="cls-1" x="464.05" y="423.84" width="4.32" height="4.32"/><rect class="cls-1" x="440.05" y="445.84" width="4.32" height="4.32"/><rect class="cls-1" x="470.05" y="493.84" width="4.32" height="4.32"/></g></svg>