<?xml version="1.0" standalone="no"?>
<!DOCTYPE svg PUBLIC "-//W3C//DTD SVG 1.1//EN" "http://www.w3.org/Graphics/SVG/1.1/DTD/svg11.dtd" >
<svg xmlns="http://www.w3.org/2000/svg" xmlns:xlink="http://www.w3.org/1999/xlink" version="1.1">
<metadata>
Created by FontForge 20201107 at Wed May  6 13:19:23 2020
 By 
Copyright 2015 The Roboto Mono Project Authors (https://github.com/googlefonts/robotomono)
</metadata>
<defs>
<font id="RobotoMono-Bold" horiz-adv-x="1229" >
  <font-face 
    font-family="Roboto Mono"
    font-weight="700"
    font-stretch="normal"
    units-per-em="2048"
    panose-1="0 0 0 9 0 0 0 0 0 0"
    ascent="1638"
    descent="-410"
    x-height="1082"
    cap-height="1456"
    bbox="-1033 -555 1593 2146"
    underline-thickness="100"
    underline-position="-200"
    unicode-range="U+000D-FFFD"
  />
<missing-glyph 
 />
    <glyph glyph-name=".notdef" 
 />
    <glyph glyph-name=".null" horiz-adv-x="0" 
 />
    <glyph glyph-name="nonmarkingreturn" unicode="&#xd;" 
 />
    <glyph glyph-name="space" unicode=" " 
 />
    <glyph glyph-name="exclam" unicode="!" 
d="M741 509l16 947h-285l16 -947h253zM452 136q0 -64 43 -107.5t119 -43.5q74 0 118 43.5t44 107.5q0 66 -44 110t-118 44q-76 0 -119 -44t-43 -110z" />
    <glyph glyph-name="quotedbl" unicode="&#x22;" 
d="M487 1428v108h-206v-113v-415h177zM898 1428v108h-205v-110v-418h177z" />
    <glyph glyph-name="numbersign" unicode="#" 
d="M649 410l-73 -410h179l73 410h253v169h-223l52 290h247v171h-217l75 416h-180l-74 -416h-201l74 416h-178l-75 -416h-265v-171h235l-52 -290h-258v-169h228l-73 -410h179l73 410h201zM478 579l51 290h201l-51 -290h-201z" />
    <glyph glyph-name="dollar" unicode="$" 
d="M863 382q0 -37 -12.5 -69t-36.5 -55q-27 -26 -69 -40.5t-99 -14.5q-45 0 -88 12t-76 41q-34 28 -55 76.5t-21 120.5h-279q0 -120 37 -205.5t99 -141.5q61 -56 141 -85.5t165 -37.5v-196h159v196q94 9 170 39.5t130 81.5t83 121.5t29 158.5q0 96 -31.5 166.5t-89.5 124.5
q-59 53 -141 93.5t-183 78.5q-67 24 -112 47.5t-72 49.5q-28 26 -39.5 56.5t-11.5 69.5t11.5 72t35.5 58q24 24 61.5 37.5t88.5 13.5q44 0 80.5 -14t62.5 -41q29 -31 45 -79t16 -112h278q0 100 -27.5 180.5t-77.5 140.5q-51 59 -123 96t-162 49v217h-160v-215
q-92 -9 -167 -41t-128 -84t-82 -122.5t-29 -155.5q0 -97 32 -167.5t91 -123.5q58 -53 141 -93t184 -76q63 -22 107.5 -44.5t72.5 -49.5q27 -27 39.5 -59.5t12.5 -74.5z" />
    <glyph glyph-name="percent" unicode="%" 
d="M35 1196v-77q0 -57 18 -107.5t54 -88.5q35 -39 88.5 -61t125.5 -22t125 22t88 61q35 38 52.5 88.5t17.5 107.5v77q0 58 -17.5 109t-52.5 89t-88.5 60.5t-126.5 22.5q-71 0 -124.5 -22.5t-88.5 -60.5q-36 -38 -53.5 -89t-17.5 -109zM223 1119v77q0 23 5 44.5t17 38.5
q11 16 29 25.5t45 9.5q28 0 46.5 -9.5t30.5 -25.5q11 -17 16 -38.5t5 -44.5v-77q0 -23 -5 -44.5t-16 -37.5q-11 -17 -29.5 -26.5t-45.5 -9.5t-46 9.5t-30 26.5q-12 16 -17 37.5t-5 44.5zM623 337v-78q0 -57 18 -108t54 -89q35 -38 89 -60t126 -22t125 22t89 60q35 38 52 89
t17 108v78q0 57 -17.5 108t-52.5 90q-35 38 -88.5 60t-126.5 22q-71 0 -124.5 -22t-88.5 -60q-36 -39 -54 -90t-18 -108zM811 259v78q0 23 5 44t16 38q11 16 30 25.5t46 9.5t45.5 -9.5t30.5 -25.5q11 -17 16 -38t5 -44v-78q0 -24 -3 -45t-13 -37q-10 -17 -29 -26.5t-50 -9.5
q-25 0 -43.5 9.5t-30.5 26.5q-13 16 -19 37.5t-6 44.5zM415 198l561 1028l-136 65l-561 -1028z" />
    <glyph glyph-name="ampersand" unicode="&#x26;" 
d="M75 371q0 -86 30 -158t87 -124q56 -52 137 -81t182 -29q63 0 117 10t103 29q31 12 61.5 28.5t60.5 36.5l65 -83h318l-188 240q78 94 114.5 212.5t36.5 255.5h-238q0 -78 -17.5 -146t-49.5 -125l-247 317l80 65q43 31 80.5 66t65.5 75q28 39 44 84t16 96q0 68 -24 129
t-67 108q-44 46 -105.5 73t-136.5 27q-89 0 -161 -26.5t-123 -75.5t-78.5 -119t-27.5 -156q0 -52 12 -101t35 -98q15 -32 34.5 -65.5t42.5 -68.5l-18 -13q-53 -38 -96 -77t-74 -82q-34 -48 -52.5 -103t-18.5 -121zM523 202q-38 0 -69.5 14t-53.5 39q-22 24 -34 58t-12 74
q0 21 3.5 44.5t14.5 49.5q10 26 31 57.5t49 54.5l6 5l263 -342q-19 -11 -38.5 -19.5t-39.5 -15.5q-29 -9 -59 -14t-61 -5zM462 1100q0 31 8.5 58.5t25.5 48.5t43 33t61 12q23 0 41.5 -11t31.5 -29t20 -41t7 -47v-24.5t-6 -34.5q-7 -20 -23 -41.5t-47 -41.5l-93 -69
q-13 21 -24.5 41.5t-19.5 40.5q-12 27 -18.5 53t-6.5 52z" />
    <glyph glyph-name="quotesingle" unicode="'" 
d="M671 1394v142h-214v-141v-402h186z" />
    <glyph glyph-name="parenleft" unicode="(" 
d="M345 592v-22q0 -142 21.5 -266t58.5 -229q37 -106 86.5 -193t104.5 -153q55 -67 113.5 -114t113.5 -72l54 150q-39 30 -79 75t-76 106q-34 56 -63.5 131t-51.5 163q-16 63 -29.5 169t-13.5 231v26q0 127 14 235t37 197q26 92 60.5 170t74.5 135q31 44 63 78t64 58
l-54 152q-55 -25 -113.5 -71.5t-113.5 -113.5t-104.5 -154t-86.5 -192q-37 -106 -58.5 -230.5t-21.5 -265.5z" />
    <glyph glyph-name="parenright" unicode=")" 
d="M881 570v22q0 137 -22 259.5t-60 228.5t-88.5 193.5t-107.5 156.5q-57 68 -117 116t-117 73l-53 -149q30 -23 60.5 -55.5t59.5 -73.5q43 -62 81.5 -147t65.5 -192q21 -86 33.5 -188t12.5 -220v-26q0 -121 -12.5 -225t-33.5 -190q-25 -94 -57.5 -170t-71.5 -136
q-33 -51 -68 -89.5t-70 -64.5l53 -150q57 25 117 73t117 117q57 68 107.5 155.5t88.5 193.5t60 228.5t22 259.5z" />
    <glyph glyph-name="asterisk" unicode="*" 
d="M546 890l-278 -327l179 -123l211 361l211 -372l178 129l-268 323l398 91l-66 209l-372 -163l39 438h-219l36 -431l-375 166l-66 -205z" />
    <glyph glyph-name="plus" unicode="+" 
d="M731 812v394h-265v-394h-367v-254h367v-412h265v412h366v254h-366z" />
    <glyph glyph-name="comma" unicode="," 
d="M710 22l1 221h-261v-234q0 -110 -26 -188.5t-64 -150.5l147 -76q90 80 146.5 197t56.5 231z" />
    <glyph glyph-name="hyphen" unicode="-" 
d="M1115 530v225h-833v-225h833z" />
    <glyph glyph-name="period" unicode="." 
d="M422 161q0 -77 52 -129t141 -52q88 0 140.5 51.5t52.5 129.5t-51.5 131t-141.5 53q-91 0 -142 -53.5t-51 -130.5z" />
    <glyph glyph-name="slash" unicode="/" 
d="M479 -125l545 1581h-259l-545 -1581h259z" />
    <glyph glyph-name="slash" unicode="&#x2215;" 
d="M479 -125l545 1581h-259l-545 -1581h259z" />
    <glyph glyph-name="zero" unicode="0" 
d="M1089 554v348q0 141 -33 248.5t-94 180.5q-62 72 -150 109t-198 37q-109 0 -196.5 -37t-148.5 -109q-62 -73 -95 -180.5t-33 -248.5v-348q0 -141 33.5 -248.5t95.5 -179.5q61 -73 149 -110t197 -37q110 0 198 37t149 110q61 72 93.5 179.5t32.5 248.5zM421 674v47v64v161
q0 81 12.5 140t38.5 96q24 35 59.5 52.5t82.5 17.5q42 0 75.5 -13.5t56.5 -41.5q30 -35 45.5 -93.5t17.5 -140.5zM809 512q0 -81 -12.5 -140.5t-37.5 -97.5q-24 -36 -60 -53.5t-83 -17.5q-51 0 -88 20t-61 61q-21 34 -32.5 85t-13.5 117l388 288v-44.5v-48.5v-169z" />
    <glyph glyph-name="one" unicode="1" 
d="M822 0v1456h-15l-634 -229v-242l368 132v-1117h281z" />
    <glyph glyph-name="two" unicode="2" 
d="M1093 0v223h-639l274 290q71 73 129 139.5t100 130.5q41 64 63.5 129.5t22.5 137.5q0 95 -30 173.5t-87 134.5q-58 56 -143.5 87t-196.5 31q-116 0 -211.5 -37.5t-162.5 -102.5q-68 -65 -105 -151.5t-37 -183.5h279q0 59 15 105t44 77q28 30 70.5 45.5t98.5 15.5
q43 0 78.5 -14t61.5 -40q25 -27 39 -65t14 -87q0 -33 -10.5 -68t-33.5 -75q-24 -41 -62 -90t-93 -109l-471 -506v-190h993z" />
    <glyph glyph-name="three" unicode="3" 
d="M421 850v-216h151q57 0 102.5 -13t78.5 -40q32 -27 49 -69t17 -101q0 -47 -14.5 -85t-42.5 -64q-29 -29 -72 -44t-97 -15q-48 0 -88 14.5t-69 40.5q-30 25 -46 60.5t-16 77.5h-278q0 -106 41.5 -184t110.5 -129q69 -52 157.5 -77.5t181.5 -25.5q108 0 201.5 28.5
t161.5 83.5q68 54 107 134t39 182q0 58 -14 110t-43 96q-29 43 -73.5 77t-105.5 56q52 25 92 59.5t67 75.5t41 86.5t14 92.5q0 102 -35.5 179.5t-99.5 130.5q-64 52 -154 78.5t-198 26.5q-100 0 -186.5 -29t-150.5 -81q-64 -53 -100.5 -126t-36.5 -162h278q0 40 16 72t44 55
q27 22 63.5 34t78.5 12q51 0 89.5 -14t63.5 -39q25 -26 37.5 -61.5t12.5 -78.5q0 -44 -12.5 -81.5t-37.5 -63.5q-27 -30 -70.5 -46.5t-103.5 -16.5h-151z" />
    <glyph glyph-name="four" unicode="4" 
d="M953 541v915h-282l-612 -966l11 -174h605v-316h278v316h169v225h-169zM332 541l316 493l27 48v-541h-343z" />
    <glyph glyph-name="five" unicode="5" 
d="M155 717l222 -55q16 16 34 30.5t41 25.5t53 18t71 7q61 0 106 -19t75 -54t44.5 -83.5t14.5 -106.5q0 -59 -11.5 -110t-35.5 -88q-25 -37 -64.5 -58t-95.5 -21q-91 0 -149.5 52t-68.5 147h-274q3 -101 45.5 -179.5t110.5 -132.5t155.5 -82t181.5 -28q124 0 215 39t151 106
t89 155t29 186q0 115 -30 206t-86 154q-57 63 -139.5 96.5t-187.5 33.5q-74 0 -131 -19t-88 -37l35 320h579v236h-808z" />
    <glyph glyph-name="six" unicode="6" 
d="M879 1468h-37q-181 0 -319 -60.5t-231 -167.5q-93 -108 -140 -255.5t-47 -320.5v-107q0 -125 35.5 -230.5t101.5 -182.5q65 -77 159 -120.5t211 -43.5q112 0 202 38.5t153 105.5t97 158t34 197q0 99 -25.5 188.5t-77.5 157.5q-52 67 -129.5 106.5t-181.5 39.5
q-51 0 -95 -12t-81 -31q-38 -20 -68 -44.5t-53 -49.5q9 91 43.5 165t94.5 127q59 53 143.5 82t194.5 29h16v231zM603 748q52 0 92.5 -20.5t68.5 -56.5q28 -37 43 -87t15 -109t-15 -108.5t-43 -85.5t-68 -56.5t-89 -20.5q-48 0 -89 20t-71 60q-30 39 -46.5 99t-16.5 140v82
q14 30 34.5 55t45.5 44q29 21 64 32.5t75 11.5z" />
    <glyph glyph-name="seven" unicode="7" 
d="M1092 1301v155h-1023v-227h731l-568 -1229h293z" />
    <glyph glyph-name="eight" unicode="8" 
d="M1055 1069q0 99 -34.5 174.5t-95.5 127.5q-62 52 -146 78.5t-183 26.5t-182.5 -26.5t-143.5 -78.5q-61 -52 -95 -127.5t-34 -174.5q0 -54 14.5 -103t41.5 -90q25 -39 61.5 -71t81.5 -55q-53 -25 -95.5 -60.5t-72.5 -79.5q-30 -45 -46.5 -98.5t-16.5 -113.5
q0 -103 37.5 -181t103.5 -130q66 -53 155.5 -80t193.5 -27q103 0 192 27t155 80q65 52 102.5 130t37.5 181q0 78 -27 144t-75 116q-26 28 -59 50.5t-70 40.5q41 21 74.5 49.5t58.5 61.5q32 44 49.5 96.5t17.5 112.5zM807 417q0 -50 -15.5 -89.5t-42.5 -67.5
q-28 -28 -66 -42.5t-84 -14.5q-47 0 -85 13.5t-65 39.5q-29 27 -45 68t-16 93q0 50 15 90t42 69q27 28 65.5 43t86.5 15t86.5 -15t66.5 -43q27 -29 42 -69t15 -90zM778 1056q0 -44 -12.5 -80.5t-35.5 -62.5t-56 -40.5t-75 -14.5t-75.5 14.5t-56.5 40.5q-24 26 -36 62.5
t-12 81.5q0 44 11.5 80.5t34.5 61.5q22 25 55 38.5t76 13.5q42 0 75.5 -14t57.5 -39q23 -26 36 -62t13 -80z" />
    <glyph glyph-name="nine" unicode="9" 
d="M332 221h-19v-233h21q193 0 332 59.5t229 166.5q90 106 133 252t43 320v96q0 130 -33.5 239t-96.5 188q-64 79 -155 123t-205 44q-112 0 -201.5 -40.5t-152.5 -110.5t-96.5 -163.5t-33.5 -199.5q0 -103 27.5 -192.5t81.5 -155.5q53 -66 132 -104t183 -38q49 0 90 8.5
t74 23.5q31 13 57 31t47 39v-6q-10 -80 -40.5 -144.5t-84.5 -108.5q-56 -46 -138 -70t-194 -24zM587 687q-54 0 -94 22.5t-66 60.5q-27 38 -40 89t-13 107t14 107.5t40 91.5q26 39 64.5 62.5t87.5 23.5q45 0 84 -20t68 -60t45.5 -100t16.5 -140v-99q-12 -31 -31.5 -57.5
t-45.5 -45.5q-27 -20 -59.5 -31t-70.5 -11z" />
    <glyph glyph-name="colon" unicode=":" 
d="M436 161q0 -77 52 -129t141 -52q88 0 140.5 51.5t52.5 129.5t-51.5 131t-141.5 53q-91 0 -142 -53.5t-51 -130.5zM436 987q0 -77 52 -129t141 -52q88 0 140.5 51.5t52.5 129.5t-51.5 131t-141.5 53q-91 0 -142 -53.5t-51 -130.5z" />
    <glyph glyph-name="semicolon" unicode=";" 
d="M475 987q0 -77 52 -129t141 -52q88 0 140.5 51.5t52.5 129.5t-51.5 131t-141.5 53q-91 0 -142 -53.5t-51 -130.5zM786 22l1 221h-261v-234q0 -110 -26 -188.5t-64 -150.5l147 -76q90 80 146.5 197t56.5 231z" />
    <glyph glyph-name="less" unicode="&#x3c;" 
d="M1041 144v271l-548 183l-68 24l68 25l548 186v270l-885 -367v-225z" />
    <glyph glyph-name="equal" unicode="=" 
d="M1104 717v228h-946v-228h946zM1104 286v227h-946v-227h946z" />
    <glyph glyph-name="greater" unicode="&#x3e;" 
d="M161 143l900 367v227l-900 366v-269l574 -189l60 -20l-61 -20l-573 -192v-270z" />
    <glyph glyph-name="question" unicode="?" 
d="M499 442h250q0 40 2 68.5t10 52.5q7 24 24 47t47 53q49 43 97.5 88.5t86.5 96.5q38 50 62 108.5t24 129.5q0 96 -32 169t-92 123q-61 49 -149 74t-199 25q-99 0 -184 -24.5t-148 -74.5t-100 -125.5t-38 -177.5h279q1 46 17.5 79t43.5 54q26 21 60 30.5t70 9.5
q46 0 81.5 -10t60.5 -30q24 -22 37 -55.5t13 -79.5q0 -38 -17 -76t-44 -74q-28 -37 -62 -71.5t-68 -65.5q-47 -37 -73 -69.5t-39 -70.5q-13 -39 -16.5 -87t-3.5 -117zM458 139q0 -64 43 -107.5t119 -43.5q74 0 118.5 43.5t44.5 107.5q0 66 -44.5 110.5t-118.5 44.5
q-76 0 -119 -44.5t-43 -110.5z" />
    <glyph glyph-name="at" unicode="@" 
d="M1170 823q4 139 -29 253t-98 196q-66 81 -161 125.5t-213 44.5q-136 0 -249 -59.5t-195 -162.5q-83 -104 -130.5 -243t-52.5 -297q-5 -159 26.5 -286.5t100.5 -216.5t175 -137t252 -48q34 0 71 4.5t74 14.5q37 9 70.5 23t59.5 33l-32 135q-23 -12 -51.5 -22t-59.5 -17
q-32 -8 -65 -12t-64 -4q-98 0 -173.5 33t-124.5 100q-50 66 -73.5 166t-18.5 234q4 133 37 244.5t91 192.5q57 81 138.5 126.5t183.5 45.5q90 0 159 -28t115 -86t67.5 -147.5t17.5 -211.5q0 -79 -8.5 -145.5t-24.5 -114.5t-37.5 -75t-47.5 -27q-10 0 -20 2t-17 10
q-8 8 -11.5 24t-1.5 45l43 527q-31 31 -81 53.5t-127 22.5q-76 0 -137 -31.5t-106 -89.5q-45 -59 -73.5 -141t-39.5 -184q-8 -87 2.5 -158t38.5 -121q28 -51 73 -78t105 -27q30 0 57 9.5t51 26.5q16 12 31 27.5t28 33.5q11 -21 25 -38t31 -29q21 -16 47 -24t55 -8
q77 0 132 45.5t91 119.5q35 73 53 165.5t21 186.5zM502 692q7 71 22.5 125.5t39.5 91.5q24 38 57.5 57t77.5 19q12 0 19 -1t12 -2l-38 -447l-1 -13q-9 -14 -18 -24t-18 -17q-15 -11 -30.5 -15.5t-30.5 -4.5q-25 0 -44 15t-31 46q-11 28 -15.5 71t-1.5 99z" />
    <glyph glyph-name="A" unicode="A" 
d="M847 304l85 -304h296l-468 1456h-255l-477 -1456h296l86 304h437zM479 543l153 536l149 -536h-302z" />
    <glyph glyph-name="B" unicode="B" 
d="M129 0h531q120 0 216 27t163 81t103 134t36 185q0 55 -14.5 106.5t-44.5 95.5q-29 41 -71.5 72t-114.5 51v1q37 14 67.5 34t54.5 44q44 44 66.5 102.5t23.5 124.5q0 102 -37.5 177t-106.5 124t-166.5 73t-216.5 24h-489v-1456zM411 642h262q59 -1 102 -16t70 -43
q27 -27 39.5 -66t12.5 -88q0 -47 -16.5 -85t-48.5 -65q-29 -24 -72.5 -38t-98.5 -14h-250v415zM411 845v382h208q68 -1 118.5 -15t80.5 -45q23 -22 34.5 -55t11.5 -77q0 -42 -13.5 -75t-38.5 -56q-30 -29 -79 -43.5t-113 -15.5h-209z" />
    <glyph glyph-name="C" unicode="C" 
d="M1142 456h-281q-4 -66 -22 -113t-49 -77t-75 -44t-99 -14q-41 0 -74.5 9.5t-60.5 29.5q-25 18 -44.5 45t-33.5 62q-20 51 -29.5 119.5t-9.5 155.5v198q0 64 6 119.5t19 101.5q17 59 45.5 103.5t69.5 68.5q24 14 52.5 21t61.5 7q62 0 106.5 -16.5t74.5 -48.5
q29 -33 44.5 -82t19.5 -114h280q-10 114 -48 205t-104 154t-159.5 97t-213.5 34q-81 0 -151.5 -20.5t-129.5 -58.5q-66 -45 -118 -110t-84 -148q-28 -68 -42 -147.5t-14 -167.5v-196q0 -94 15.5 -178t44.5 -154q30 -70 73.5 -128t99.5 -99q61 -44 137.5 -67.5t166.5 -23.5
q114 0 208 33.5t162 95.5t108.5 150t47.5 198z" />
    <glyph glyph-name="D" unicode="D" 
d="M125 0h391q97 0 182.5 24t156.5 69q61 38 112 94.5t89 123.5q40 75 62 165t22 191v120q0 105 -23.5 198t-66.5 170q-37 63 -86.5 116.5t-112.5 90.5q-72 45 -160 69.5t-189 24.5h-377v-1456zM408 1228h94q51 0 94.5 -11.5t79.5 -32.5q47 -28 82.5 -72t57.5 -100
q18 -47 27.5 -103.5t9.5 -119.5v-122q0 -67 -9.5 -124.5t-27.5 -104.5q-22 -54 -52.5 -94.5t-68.5 -66.5q-37 -25 -82 -38t-97 -13h-108v1002z" />
    <glyph glyph-name="E" unicode="E" 
d="M1027 638v222h-598v367h696v229h-978v-1456h981v227h-699v411h598z" />
    <glyph glyph-name="F" unicode="F" 
d="M1055 603v228h-624v396h702v229h-984v-1456h282v603h624z" />
    <glyph glyph-name="G" unicode="G" 
d="M1132 170l-1 574h-521v-210h241l-1 -264q-11 -13 -32.5 -24.5t-49.5 -20.5t-60 -14t-65 -5q-54 1 -96.5 17.5t-74.5 48.5q-19 19 -34.5 43.5t-27.5 53.5q-19 50 -29.5 115t-10.5 144v200q0 63 7.5 117t21.5 98q18 57 45.5 99t61.5 68q26 19 56 29t62 10q59 0 101.5 -15.5
t70.5 -46.5q25 -28 39.5 -69t21.5 -94h274q-11 105 -46.5 189t-98.5 143q-63 58 -154.5 89t-214.5 31q-80 0 -152 -22t-133 -65q-52 -38 -95.5 -90t-76.5 -117q-35 -73 -54 -162.5t-19 -193.5v-198q0 -109 19.5 -202t57.5 -167q33 -67 80.5 -119t105.5 -88
q59 -35 129.5 -53.5t150.5 -18.5q92 0 172 17t145 45q64 27 111 61t74 67z" />
    <glyph glyph-name="H" unicode="H" 
d="M1092 0v1456h-278v-597h-412v597h-279v-1456h279v631h412v-631h278z" />
    <glyph glyph-name="I" unicode="I" 
d="M193 1456v-227h277v-1003h-277v-226h842v226h-284v1003h284v227h-842z" />
    <glyph glyph-name="J" unicode="J" 
d="M818 1456v-1009q0 -51 -15.5 -95.5t-43.5 -76.5t-68 -50.5t-88 -18.5q-60 0 -102 16t-68 49q-20 27 -30 66t-10 91h-282q1 -113 37 -197t101 -139q64 -56 154 -84t200 -28q104 0 194.5 34t157.5 96t105.5 147.5t39.5 189.5l-1 1009h-281z" />
    <glyph glyph-name="K" unicode="K" 
d="M565 598l360 -598h334l-508 812l490 644h-344l-354 -489l-132 -178v667h-282v-1456h282v429z" />
    <glyph glyph-name="L" unicode="L" 
d="M432 227v1229h-282v-1456h964v227h-682z" />
    <glyph glyph-name="M" unicode="M" 
d="M476 1456h-349v-1456h258v431l-12 654l171 -605h139l191 632l-12 -681v-431h258v1456h-349l-157 -547z" />
    <glyph glyph-name="N" unicode="N" 
d="M1091 0v1456h-282l-1 -935l-402 935h-283v-1456h283v939l405 -939h280z" />
    <glyph glyph-name="O" unicode="O" 
d="M1147 621v212q0 99 -18.5 187t-53.5 162q-32 65 -76.5 119t-103.5 92q-59 40 -132.5 61.5t-157.5 21.5q-83 0 -154 -21t-128 -60q-58 -40 -102.5 -96t-75.5 -125q-32 -73 -48.5 -159t-16.5 -182v-212q0 -90 14.5 -171t42.5 -150q31 -75 77 -134.5t104 -101.5
q59 -40 131 -62t157 -22q80 0 149.5 19.5t127.5 54.5q64 40 114 100t84 132q32 72 49 156.5t17 178.5zM862 835v-214q0 -54 -5.5 -104t-16.5 -92q-14 -54 -37.5 -96.5t-57.5 -70.5q-27 -23 -62 -35t-77 -12q-44 0 -78.5 13t-61.5 37q-29 27 -50.5 70.5t-32.5 96.5
q-10 42 -14 91t-4 102v214q0 56 4.5 107t14.5 94q13 56 36.5 98t57.5 70q25 19 56.5 29t70.5 10q41 0 74.5 -11t60.5 -31q34 -27 59 -69.5t40 -96.5q12 -43 17.5 -93.5t5.5 -106.5z" />
    <glyph glyph-name="P" unicode="P" 
d="M430 534h217q119 0 215 34t164 95q67 60 103.5 143t36.5 181q0 105 -36.5 191t-103.5 148q-68 61 -164 95.5t-215 34.5h-498v-1456h281v534zM430 762v466h217q60 0 104 -19t74 -52q29 -33 43.5 -77t14.5 -95q0 -44 -14.5 -84.5t-43.5 -71.5q-30 -31 -74 -49t-104 -18
h-217z" />
    <glyph glyph-name="Q" unicode="Q" 
d="M1156 577v252q0 77 -11 147.5t-33 132.5q-30 88 -82 159t-121 120q-61 42 -136 65t-161 23t-159 -23t-132 -65q-65 -46 -112 -111.5t-75 -146.5q-24 -65 -36.5 -141.5t-12.5 -159.5v-252q0 -72 13 -140.5t38 -129.5q28 -70 73.5 -131t106.5 -105q60 -43 134 -67t162 -24
q39 0 75.5 5t71.5 14l277 -256l181 161l-241 218q39 37 69.5 81.5t52.5 93.5q28 63 42.5 134t15.5 146zM871 831v-254q0 -40 -5 -79.5t-15 -76.5q-14 -49 -38.5 -92t-59.5 -72q-28 -21 -63 -33.5t-78 -12.5q-42 0 -75.5 12t-58.5 34q-35 29 -58 73t-35 98q-8 35 -11.5 73
t-3.5 76v254q0 45 3 86.5t9 78.5q10 64 32.5 115.5t60.5 84.5q26 23 60 35t77 12q45 0 81.5 -13t64.5 -36q29 -27 52 -65.5t35 -85.5q14 -45 20 -99t6 -113z" />
    <glyph glyph-name="R" unicode="R" 
d="M625 544l274 -544h301v13l-313 601q60 27 108.5 64t83.5 87q34 49 52.5 111.5t18.5 140.5q0 108 -37.5 190t-106.5 137q-70 55 -168 83.5t-219 28.5h-488v-1456h281v544h213zM412 772v456h207q58 0 103 -14t76 -40q35 -29 52.5 -73.5t17.5 -102.5q0 -48 -13.5 -87
t-39.5 -67q-31 -35 -80.5 -53.5t-114.5 -18.5h-208z" />
    <glyph glyph-name="S" unicode="S" 
d="M887 380q0 -39 -16 -71.5t-46 -55.5t-73.5 -36t-99.5 -13q-63 0 -115.5 14t-89.5 44q-38 30 -59 77t-23 113h-276q0 -113 43.5 -197t118.5 -146q79 -63 185.5 -95.5t215.5 -32.5q111 0 205 26.5t162 78.5q68 51 106.5 125.5t38.5 170.5q0 111 -51 196t-137 149
q-57 39 -125 69t-143 51q-70 19 -125.5 41t-94.5 49q-39 26 -59.5 59t-20.5 74q0 39 15.5 72.5t45.5 58.5q30 24 73.5 37.5t99.5 13.5q61 0 106.5 -16.5t76.5 -45.5q30 -30 45.5 -71t17.5 -90h274q0 98 -38 180t-106 142q-68 59 -162.5 92t-208.5 33q-110 0 -204 -28.5
t-163 -81.5t-108 -128t-39 -167q0 -80 29.5 -148t87.5 -124t149.5 -103t212.5 -80q78 -21 130.5 -45.5t85.5 -53.5q32 -30 45.5 -64t13.5 -73z" />
    <glyph glyph-name="T" unicode="T" 
d="M1201 1227v229h-1174v-229h443v-1227h282v1227h449z" />
    <glyph glyph-name="U" unicode="U" 
d="M1101 1456h-279l-1 -965q-1 -71 -15 -125t-42 -90q-26 -35 -65.5 -52.5t-90.5 -17.5q-47 0 -83 16.5t-61 49.5q-27 36 -40.5 91t-14.5 128l-1 965h-281l-1 -965q0 -122 34.5 -217.5t97.5 -160.5t151.5 -99t198.5 -34q117 0 208.5 34t155.5 100q63 65 96.5 160t33.5 217z
" />
    <glyph glyph-name="V" unicode="V" 
d="M471 0h286l441 1456h-310l-248 -950l-27 -99l-25 98l-247 951h-310z" />
    <glyph glyph-name="W" unicode="W" 
d="M226 0h254l122 786l11 74l11 -74l127 -786h254l202 1456h-258l-99 -816l-7 -61l-9 60l-122 817h-201l-115 -811l-9 -60l-7 57l-97 814h-257z" />
    <glyph glyph-name="X" unicode="X" 
d="M624 934l-255 522h-328l409 -722l-420 -734h332l266 530l267 -530h328l-420 734l410 722h-330z" />
    <glyph glyph-name="Y" unicode="Y" 
d="M628 785l-287 671h-308l451 -940l1 -516h280l1 504l458 952h-309z" />
    <glyph glyph-name="Z" unicode="Z" 
d="M431 227l705 1062l-1 167h-1044v-229h704l-706 -1055v-172h1064v227h-722z" />
    <glyph glyph-name="bracketleft" unicode="[" 
d="M847 1475v215h-447v-2025h447v215h-170v1595h170z" />
    <glyph glyph-name="backslash" unicode="\" 
d="M240 1456l545 -1581h260l-545 1581h-260z" />
    <glyph glyph-name="bracketright" unicode="]" 
d="M400 1690v-215h171v-1595h-171v-215h448v2025h-448z" />
    <glyph glyph-name="asciicircum" unicode="^" 
d="M213 687h224l173 454l21 84l21 -84l176 -454h223l-318 769h-201z" />
    <glyph glyph-name="underscore" unicode="_" 
d="M1060 -217v217h-912v-217h912z" />
    <glyph glyph-name="grave" unicode="`" 
d="M894 1199l-177 279h-306l264 -279h219z" />
    <glyph glyph-name="a" unicode="a" 
d="M817 0h282v17q-21 41 -32 98t-11 144v464q0 94 -35 165.5t-97 118.5t-146.5 71t-182.5 24q-109 0 -193.5 -27.5t-142.5 -74.5q-59 -47 -89.5 -109t-30.5 -131h278q0 29 8.5 53t26.5 41q20 19 52 29.5t76 10.5q50 0 87.5 -12.5t62.5 -35.5q24 -22 36 -52.5t12 -68.5v-64
h-155q-120 0 -212.5 -21.5t-155.5 -62.5q-70 -45 -105 -114.5t-35 -159.5q0 -70 28 -129.5t78 -102.5t119.5 -67t152.5 -24q51 0 95 9.5t81 26.5q36 16 66 38t53 47q5 -29 12 -55t17 -46zM552 195q-39 0 -68.5 9.5t-49.5 25.5q-20 17 -30.5 41.5t-10.5 53.5q0 37 14 68.5
t43 54.5q29 22 75 34.5t111 12.5h142v-186q-12 -21 -33 -41.5t-50 -36.5t-65 -26t-78 -10z" />
    <glyph glyph-name="b" unicode="b" 
d="M1116 530v21q0 98 -17.5 184t-53.5 155q-23 43 -53 79.5t-67 62.5q-46 34 -104.5 52t-128.5 18q-51 0 -94.5 -10.5t-80.5 -31.5q-26 -14 -49 -33.5t-43 -42.5v552h-278v-1536h250l13 115q17 -22 36 -40.5t41 -33.5q41 -30 92.5 -45.5t114.5 -15.5q69 0 126.5 17.5
t103.5 50.5q51 35 88.5 88t60.5 118q21 59 32 128.5t11 147.5zM838 551v-21q0 -42 -3.5 -81t-11.5 -72q-10 -45 -29.5 -80.5t-50.5 -57.5q-22 -16 -52 -25t-67 -9q-43 0 -76.5 10t-58.5 29q-21 15 -36.5 35.5t-27.5 45.5v431q9 19 20 35.5t24 29.5q27 27 65 41t88 14
q37 0 66 -8.5t52 -25.5q35 -27 52.5 -59.5t28.5 -73.5q9 -35 13 -75t4 -83z" />
    <glyph glyph-name="c" unicode="c" 
d="M620 202q-67 0 -110.5 27t-68.5 72q-26 44 -36 102.5t-10 121.5v30q0 62 10.5 120t36.5 103q25 45 68 72t109 27q45 0 83 -15.5t65 -41.5t41 -62t12 -76h262q2 96 -32 173.5t-95 132.5q-62 54 -147 84t-185 30q-125 0 -219.5 -43t-158.5 -117t-96 -173.5t-32 -213.5v-30
q0 -114 32.5 -213.5t96.5 -173.5q63 -74 158 -116.5t221 -42.5q93 0 176.5 29.5t146.5 81.5t99.5 124t34.5 156h-262q2 -38 -13.5 -69t-43.5 -53t-65 -34t-78 -12z" />
    <glyph glyph-name="d" unicode="d" 
d="M112 549v-21q0 -118 29 -218.5t84 -173.5q54 -73 132.5 -114.5t177.5 -41.5q91 0 160 35t120 98l14 -113h251v1536h-279v-551q-50 56 -114.5 86.5t-149.5 30.5q-101 0 -179.5 -40t-133.5 -113t-83.5 -175t-28.5 -225zM390 528v21q0 68 12 127.5t38 104.5q26 44 67.5 69.5
t100.5 25.5q71 0 118 -30.5t75 -85.5v-438q-28 -54 -75.5 -85t-119.5 -31q-59 0 -100 25t-67 69q-26 43 -37.5 101.5t-11.5 126.5z" />
    <glyph glyph-name="e" unicode="e" 
d="M666 -20q157 0 272 61t168 136l-139 150q-48 -62 -125 -93t-159 -31q-58 0 -107 18t-87 51q-37 32 -59 71.5t-36 104.5v3h734v118q0 119 -33 217.5t-96 168.5q-64 70 -155.5 108.5t-208.5 38.5q-113 0 -209 -41t-166 -115t-109 -176.5t-39 -226.5v-40q0 -109 39.5 -204.5
t112.5 -165.5q73 -71 175 -112t227 -41zM633 877q53 0 93.5 -16.5t68.5 -44.5q28 -29 44 -68t16 -83v-22h-456q10 53 30 96t50 74q29 31 68 47.5t86 16.5z" />
    <glyph glyph-name="f" unicode="f" 
d="M410 0h279v877h390v205h-390v59q0 48 12.5 86t38.5 64q29 31 78 47t119 16q65 0 113 -6t86 -14l18 218q-34 6 -65.5 11t-62.5 9t-63.5 6.5t-67.5 2.5q-111 0 -201 -28.5t-153 -84.5t-97 -138t-34 -189v-59h-284v-205h284v-877z" />
    <glyph glyph-name="g" unicode="g" 
d="M113 549v-21q0 -118 30.5 -218.5t87.5 -173.5t137.5 -114.5t181.5 -41.5q51 0 95.5 11t81.5 31q25 14 47 32t42 40v-62q0 -55 -15.5 -99t-44.5 -74q-32 -33 -79.5 -50t-108.5 -17q-38 0 -73.5 7.5t-68.5 22.5q-34 15 -65 38.5t-58 54.5l-125 -169q35 -45 84 -77.5
t104 -53.5t111 -31t105 -10q114 0 208.5 30.5t162.5 89.5q67 59 104.5 145t37.5 196v1047h-253l-11 -103q-20 25 -44 45.5t-52 35.5q-37 21 -82.5 31.5t-100.5 10.5q-102 0 -183 -40t-138 -113t-87.5 -175t-30.5 -225zM392 528v21q0 68 14 127.5t43 104.5q28 44 71 69.5
t102 25.5q32 0 59.5 -6t50.5 -17q27 -13 48 -34t36 -49v-458q-14 -25 -33 -45t-44 -34q-24 -13 -53.5 -20t-65.5 -7q-59 0 -102 25t-71 69q-28 43 -41.5 101.5t-13.5 126.5z" />
    <glyph glyph-name="h" unicode="h" 
d="M419 933v603h-278v-1536h278v781q16 21 35.5 38t43.5 29q26 14 58 21t69 7q48 0 86 -12.5t65 -38.5t41.5 -68t14.5 -100v-657h278v655q0 119 -28.5 203.5t-79.5 138.5t-122 79.5t-156 25.5q-58 0 -110 -17t-95 -48q-28 -20 -53.5 -46.5t-46.5 -57.5z" />
    <glyph glyph-name="i" unicode="i" 
d="M215 1082v-227h308v-629h-308v-226h882v226h-293v856h-589zM503 1359q0 -32 11.5 -59.5t32.5 -46.5q21 -20 50.5 -31t65.5 -11q74 0 117.5 41.5t43.5 106.5t-43.5 106.5t-117.5 41.5q-36 0 -65.5 -11t-50.5 -30q-21 -20 -32.5 -47.5t-11.5 -59.5z" />
    <glyph glyph-name="j" unicode="j" 
d="M307 1082v-227h273v-880q0 -52 -15 -86.5t-40 -55.5q-26 -21 -61.5 -30t-75.5 -9q-10 0 -30.5 0.5t-42.5 2.5q-23 1 -44.5 3.5t-33.5 5.5l-14 -226q18 -4 36.5 -7t37.5 -5q26 -3 52.5 -4t52.5 -1q109 0 194 24t144 75q59 50 90 127.5t31 185.5v1107h-554zM561 1359
q0 -64 43.5 -106t115.5 -42q74 0 117.5 41.5t43.5 106.5t-43.5 106.5t-117.5 41.5t-116.5 -43t-42.5 -105z" />
    <glyph glyph-name="k" unicode="k" 
d="M548 447l307 -447h341l-465 631l408 451h-334l-299 -328l-84 -96v878h-278v-1536h278v330z" />
    <glyph glyph-name="l" unicode="l" 
d="M199 1536v-227h324v-1083h-324v-226h915v226h-310v1310h-605z" />
    <glyph glyph-name="m" unicode="m" 
d="M314 1082h-239v-1082h253v810q5 13 11 24t14 19q11 11 25 17t32 6q16 0 30 -4.5t25 -15.5q10 -11 16 -31t6 -51v-774h245v798v19v9q5 11 12 19.5t16 15.5q11 7 23.5 11t28.5 4q15 0 29.5 -4.5t25.5 -15.5q11 -12 17.5 -32t6.5 -51v-773h253v772q0 90 -17.5 152.5
t-48.5 102.5q-32 39 -74.5 57t-91.5 18q-39 0 -72 -10t-59 -28q-21 -14 -38.5 -33.5t-31.5 -43.5q-9 25 -21.5 44.5t-29.5 33.5q-22 19 -52 28t-68 9q-78 0 -132.5 -40.5t-85.5 -110.5z" />
    <glyph glyph-name="n" unicode="n" 
d="M141 0h279v769q14 22 31 40t38 31q26 18 59.5 27t73.5 9q48 0 86 -9.5t65 -33.5t41.5 -65.5t14.5 -105.5v-662h278v666q0 118 -27.5 200.5t-76.5 135.5q-50 52 -118 76t-150 24q-64 0 -121 -18t-105 -52q-28 -20 -53 -45t-46 -55l-17 150h-252v-1082z" />
    <glyph glyph-name="o" unicode="o" 
d="M103 551v-21q0 -119 34 -219.5t100 -174.5q65 -74 160.5 -115.5t217.5 -41.5q121 0 216 41.5t160 115.5t99 174.5t34 219.5v21q0 118 -34 218.5t-99 174.5q-66 74 -161 116t-217 42t-216.5 -42t-159.5 -116q-66 -74 -100 -174.5t-34 -218.5zM381 530v21q0 66 13 125
t41 104t72 71t106 26q63 0 107 -26t72 -71q27 -45 40 -104t13 -125v-21q0 -68 -13 -127.5t-40 -103.5q-28 -45 -72 -71t-105 -26q-63 0 -107.5 26t-72.5 71q-28 44 -41 103.5t-13 127.5z" />
    <glyph glyph-name="p" unicode="p" 
d="M145 -416h278v510q19 -21 40 -38t44 -31q39 -22 84.5 -33.5t99.5 -11.5q102 0 181 42t133 116q53 73 80.5 174t27.5 219v21q0 123 -27.5 224.5t-81.5 174.5q-54 72 -133 111.5t-182 39.5q-50 0 -93.5 -10.5t-79.5 -29.5q-30 -16 -56 -37.5t-48 -48.5l-10 106h-257v-1498z
M835 552v-21q0 -67 -12 -126.5t-38 -104.5t-67.5 -71t-100.5 -26q-37 0 -67 7.5t-53 21.5q-24 15 -42.5 36t-31.5 47v452q14 28 33.5 49t45.5 35q23 12 51 18.5t62 6.5q59 0 100.5 -25t68.5 -68q26 -44 38.5 -103.5t12.5 -127.5z" />
    <glyph glyph-name="q" unicode="q" 
d="M113 550v-21q0 -118 28.5 -218.5t82.5 -173.5q54 -74 133 -115.5t181 -41.5q48 0 89.5 9.5t76.5 26.5q27 14 52 33t46 43v-508h279v1498h-245l-17 -110q-21 26 -45 47t-51 37q-38 22 -83.5 34t-99.5 12q-103 0 -182.5 -40t-133.5 -112q-55 -73 -83 -175t-28 -225z
M391 529v21q0 69 12.5 128.5t39.5 103.5q26 44 67.5 69.5t100.5 25.5q35 0 64.5 -7t52.5 -20q24 -14 42 -33.5t32 -44.5v-460q-14 -26 -32 -46.5t-42 -34.5q-24 -13 -53.5 -20.5t-65.5 -7.5q-59 0 -100.5 26t-67.5 71q-26 44 -38 103t-12 126z" />
    <glyph glyph-name="r" unicode="r" 
d="M918 1102q-109 0 -201 -52.5t-158 -144.5l-2 24l-11 153h-259v-1082h278v650q19 46 48 80t70 56q34 19 77.5 28.5t97.5 9.5q52 0 109.5 -6.5t112.5 -19.5l41 277q-33 10 -86.5 18.5t-116.5 8.5z" />
    <glyph glyph-name="s" unicode="s" 
d="M839 297q0 -25 -12.5 -46t-37.5 -37q-26 -16 -66.5 -25.5t-94.5 -9.5q-45 0 -87.5 9t-75.5 29q-33 19 -54 50.5t-24 75.5h-265q0 -66 32.5 -131.5t95.5 -116.5q63 -52 156.5 -84t215.5 -32q111 0 201 24.5t154 68.5q63 44 97.5 104.5t34.5 132.5q0 78 -34.5 134.5
t-95.5 96.5q-61 39 -145 64t-182 41q-68 10 -112 23.5t-69 30.5q-26 16 -36 36.5t-10 44.5t11.5 45.5t33.5 37.5q24 18 62 28t89 10q60 0 102.5 -15t67.5 -40q18 -19 27 -42.5t9 -50.5h278q0 75 -33 139t-95 111q-63 46 -153 72.5t-203 26.5q-108 0 -194 -27t-146 -73
t-92 -107t-32 -128q0 -69 31.5 -122t87.5 -93q56 -41 134.5 -69.5t173.5 -47.5q75 -14 124 -28t79 -30q29 -17 40.5 -36t11.5 -44z" />
    <glyph glyph-name="t" unicode="t" 
d="M651 1347h-278v-265h-247v-205h247v-492q0 -107 28 -183.5t80 -125.5q51 -50 123.5 -73.5t161.5 -23.5q46 0 93.5 4.5t91.5 12.5t83 20.5t68 29.5l-27 191q-19 -5 -45.5 -10t-56.5 -9q-31 -5 -64.5 -8t-65.5 -3q-44 0 -79.5 10t-60.5 34q-25 23 -38.5 62.5t-13.5 98.5
v465h404v205h-404v265z" />
    <glyph glyph-name="u" unicode="u" 
d="M847 0h252v1082h-279v-759q-13 -26 -31 -47t-41 -36q-27 -17 -62.5 -26t-79.5 -9q-49 0 -83 12t-55 40q-21 27 -30.5 72t-9.5 111v642h-278v-640q0 -123 27.5 -210.5t77.5 -143.5q50 -57 120 -83t154 -26q92 0 169.5 46t132.5 127z" />
    <glyph glyph-name="v" unicode="v" 
d="M485 0h261l411 1082h-290l-237 -763l-15 -76l-15 76l-238 763h-290z" />
    <glyph glyph-name="w" unicode="w" 
d="M221 0h244l115 578l22 110l23 -110l119 -578h244l194 1082h-255l-80 -638l-14 -105l-19 103l-117 640h-186l-117 -643l-19 -103l-13 103l-81 643h-254z" />
    <glyph glyph-name="x" unicode="x" 
d="M636 744l-234 338h-299l362 -531l-376 -551h301l247 354l249 -354h300l-376 551l363 531h-299z" />
    <glyph glyph-name="y" unicode="y" 
d="M312 -437q84 0 145.5 28t104.5 69t71.5 89t46.5 89l549 1244h-307l-247 -636l-41 -108l-30 110l-248 634h-304l458 -1036l-64 -119q-12 -22 -20.5 -34t-26.5 -36t-43.5 -44.5t-58.5 -20.5q-16 0 -42.5 1.5t-43.5 1.5l-34 -212q36 -10 65.5 -15t69.5 -5z" />
    <glyph glyph-name="z" unicode="z" 
d="M498 223l612 692v167h-978v-226h592l-606 -684v-172h1017v223h-637z" />
    <glyph glyph-name="braceleft" unicode="{" 
d="M940 -360l34 158q-50 -2 -81.5 25.5t-49.5 72.5t-24.5 100.5t-6.5 109.5v163q0 119 -58 210t-182 139q123 48 181.5 140t58.5 211v163q0 54 2.5 109.5t17.5 100.5t48 72.5t94 25.5l-34 157q-97 0 -167 -37t-113 -95q-52 -67 -76 -157.5t-24 -175.5v-163q0 -135 -62 -193
t-189 -58v-200q127 0 189 -58t62 -191v-163q0 -79 21.5 -161.5t69.5 -151.5q45 -66 117.5 -109.5t171.5 -43.5z" />
    <glyph glyph-name="bar" unicode="|" 
d="M707 -410v1866h-174v-1866h174z" />
    <glyph glyph-name="braceright" unicode="}" 
d="M332 -202l34 -158q99 0 171.5 42.5t117.5 111.5q45 66 68 150t23 162v163q0 47 7.5 84.5t22.5 65.5q28 52 83 75.5t138 23.5v200q-74 0 -126.5 19t-81.5 60q-22 30 -32.5 73t-10.5 99v163q0 76 -18.5 157.5t-62.5 147.5q-46 73 -119 116.5t-180 43.5l-34 -157
q61 2 94 -25.5t48 -72.5t17.5 -100.5t2.5 -109.5v-163q0 -69 19 -130.5t59 -111.5q27 -34 64 -62t85 -48q-59 -25 -101.5 -60.5t-70.5 -80.5t-41.5 -97t-13.5 -110v-163q0 -54 -7 -109.5t-25 -100.5t-49.5 -72.5t-80.5 -25.5z" />
    <glyph glyph-name="asciitilde" unicode="~" 
d="M1144 752l-188 19q0 -31 -11 -60.5t-29 -52.5t-42 -37t-51 -14q-22 0 -44 5t-44 15q-23 11 -46.5 27t-48.5 37q-36 32 -71.5 56.5t-72.5 40.5q-38 18 -78.5 27t-85.5 9q-68 0 -124.5 -27t-96.5 -75q-41 -49 -63 -116.5t-22 -148.5l180 -22q0 31 11.5 60t31.5 52
q19 22 44 35.5t52 13.5q25 0 48.5 -6t47.5 -18q22 -10 44.5 -25.5t45.5 -34.5q38 -35 74 -60t73 -41q37 -17 75.5 -25t82.5 -8q68 0 125 28t98 78q40 49 62.5 118t22.5 150z" />
    <glyph glyph-name="nonbreakingspace" unicode="&#xa0;" 
 />
    <glyph glyph-name="exclamdown" unicode="&#xa1;" 
d="M514 565l-17 -945h286l-16 945h-253zM807 947q0 67 -45 111.5t-118 44.5q-76 0 -119 -45t-43 -111q0 -64 43 -107.5t119 -43.5q73 0 118 43t45 108z" />
    <glyph glyph-name="cent" unicode="&#xa2;" 
d="M645 202q-67 0 -110.5 27t-68.5 72q-26 44 -36 102.5t-10 121.5v30q0 62 10.5 120t36.5 103q25 45 68 72t109 27q45 0 83 -15.5t65 -41.5t41 -62t12 -76h262q2 84 -24.5 154t-74.5 124q-49 53 -117 87.5t-149 47.5v223h-200v-225q-99 -18 -174 -66.5t-125 -119.5
t-75.5 -161t-25.5 -191v-30q0 -101 25.5 -191t75.5 -161t125 -119t174 -66v-233h200v232q77 13 144.5 46.5t117.5 84.5q49 50 77 114t26 138h-262q2 -38 -13.5 -69t-43.5 -53t-65 -34t-78 -12z" />
    <glyph glyph-name="sterling" unicode="&#xa3;" 
d="M560 585h302v221h-310l-9 234q0 51 13 90.5t36 65.5q22 26 53 39.5t67 13.5t68.5 -9.5t57.5 -31.5t39.5 -57.5t14.5 -86.5h269q0 93 -29.5 169t-85.5 130q-57 54 -140 83.5t-190 29.5q-100 0 -183.5 -29.5t-143.5 -84.5q-60 -56 -93 -137.5t-33 -184.5l7 -234h-155v-221
h162l5 -167q0 -30 -2.5 -61.5t-10.5 -58.5q-9 -27 -23.5 -46.5t-38.5 -25.5h-89v-226h1055v226h-670q14 17 24.5 35t17.5 38q11 29 16 62t5 70z" />
    <glyph glyph-name="currency" unicode="&#xa4;" 
d="M904 78l103 -105l142 145l-112 113q34 60 52.5 129.5t18.5 147.5q0 81 -20.5 154t-58.5 135l120 123l-142 145l-116 -119q-60 42 -130 65t-147 23t-146.5 -22.5t-129.5 -64.5l-114 117l-141 -144l116 -119q-38 -62 -59.5 -136t-21.5 -157q0 -78 19 -149t54 -131
l-108 -110l141 -144l100 102q62 -46 135.5 -71t154.5 -25t155 25t135 73zM304 508q0 72 24 133.5t66 106.5t98.5 71t121.5 26q64 0 120.5 -26t98.5 -71t66 -106.5t24 -133.5t-24 -134t-66 -107q-42 -46 -98.5 -72.5t-120.5 -26.5q-65 0 -121.5 26.5t-98.5 72.5
q-42 45 -66 107t-24 134z" />
    <glyph glyph-name="yen" unicode="&#xa5;" 
d="M479 0h281v287h331v165h-331v124h331v166h-250l383 714h-309l-266 -562l-25 -57h-2l-25 56l-266 563h-310l384 -714h-269v-166h343v-124h-343v-165h343v-287z" />
    <glyph glyph-name="brokenbar" unicode="&#xa6;" 
d="M488 -270h253v795h-253v-795zM741 698v758h-253v-758h253z" />
    <glyph glyph-name="section" unicode="&#xa7;" 
d="M1169 475q0 91 -31.5 157t-92.5 115q-37 30 -85 54.5t-106 45.5q-36 14 -77 26t-85 24q-53 14 -94 26.5t-73 24.5q-22 9 -39.5 17.5t-31.5 18.5q-33 22 -45.5 49t-12.5 65q0 31 13.5 59t42.5 49t74 33.5t107 12.5q59 0 103.5 -16t74.5 -43q30 -28 45 -65t15 -80h279
q0 103 -36 183t-102 135q-67 54 -163 82t-216 28q-117 0 -212.5 -27t-162.5 -76q-68 -50 -104.5 -120.5t-36.5 -156.5q0 -66 15 -117.5t44 -93.5q15 -21 34 -40.5t42 -36.5q-27 -15 -50 -33.5t-42 -39.5q-34 -40 -52.5 -90t-18.5 -110q0 -91 32.5 -157t94.5 -115
q39 -32 90 -57.5t112 -47.5q58 -21 129.5 -40t124.5 -38q43 -15 75 -29t55 -28q34 -23 48 -49t14 -59q0 -26 -9.5 -48.5t-27.5 -40.5q-28 -27 -78.5 -42.5t-120.5 -15.5q-48 0 -95.5 8.5t-84.5 30.5q-38 22 -61 59.5t-23 96.5l-278 -1q0 -120 46.5 -200.5t123.5 -128.5
q76 -49 173.5 -69.5t198.5 -20.5q117 0 211.5 24.5t161.5 72.5q67 47 103.5 116.5t36.5 159.5q0 62 -13 111.5t-39 89.5q-16 24 -36.5 45.5t-45.5 40.5q24 13 44.5 28.5t37.5 33.5q39 40 59.5 92.5t20.5 117.5zM594 663q43 -13 79 -25t65 -23q29 -12 52.5 -24t41.5 -25
q35 -25 49.5 -53t14.5 -64q0 -29 -8.5 -54t-23.5 -46q-11 -14 -25.5 -26t-31.5 -21q-34 12 -70 22.5t-75 21.5q-90 27 -147.5 48.5t-90.5 45.5t-45.5 52.5t-12.5 68.5q0 27 6 51t18 44q11 16 25.5 29.5t34.5 22.5q33 -12 69 -23t75 -22z" />
    <glyph glyph-name="dieresis" unicode="&#xa8;" 
d="M265 1365q0 -53 38.5 -88.5t97.5 -35.5t97.5 35.5t38.5 88.5q0 52 -38 88.5t-98 36.5t-98 -36.5t-38 -88.5zM745 1365q0 -54 38 -90t98 -36t98 36t38 90q0 51 -37.5 87.5t-98.5 36.5t-98.5 -36.5t-37.5 -87.5z" />
    <glyph glyph-name="copyright" unicode="&#xa9;" 
d="M862 442h-117q0 -33 -7 -57.5t-20 -40.5q-17 -19 -43.5 -27.5t-63.5 -8.5q-36 0 -63 14t-45 39q-19 24 -28 58.5t-9 76.5v91q0 41 9 75.5t28 59.5q18 25 45 39t63 14q34 0 60 -8t43 -25q16 -16 24 -41.5t8 -60.5h117q0 55 -15 97.5t-43 71.5q-33 34 -82 51t-112 17
q-60 0 -108.5 -21.5t-82.5 -59.5q-34 -39 -52 -92.5t-18 -117.5v-90q0 -65 18 -118t52 -91t82.5 -59t108.5 -21q63 0 112 16.5t82 50.5q27 29 42 71t15 97zM180 542q0 99 34.5 184t94.5 148t140.5 98.5t172.5 35.5q91 0 171 -35.5t140 -98.5t94.5 -148t34.5 -184t-34.5 -185
t-94.5 -149q-60 -64 -140 -100t-171 -36q-92 0 -172.5 36t-140.5 100q-60 63 -94.5 149t-34.5 185zM89 542q0 -119 42 -221.5t115 -178.5q72 -76 169 -119t207 -43t207 43t169 119t114 178.5t42 221.5q0 118 -42 220.5t-114 178.5q-72 75 -169 118t-207 43t-207 -43
t-169 -118q-73 -76 -115 -178.5t-42 -220.5z" />
    <glyph glyph-name="ordfeminine" unicode="&#xaa;" 
d="M765 705h177q-14 44 -20 88t-6 93v314q0 69 -21 120.5t-59 86.5q-39 34 -92.5 51.5t-118.5 17.5q-71 0 -128 -17.5t-98 -48.5t-63 -73.5t-22 -93.5l173 -14q0 20 6.5 36.5t19.5 28.5q17 17 45.5 25.5t66.5 8.5q30 0 52 -8.5t36 -24.5t21 -39.5t7 -54.5v-51h-137
q-79 0 -140 -14.5t-103 -41.5q-43 -29 -65.5 -73.5t-22.5 -101.5q0 -52 16.5 -94t48.5 -72q31 -30 77.5 -46t106.5 -16q42 0 77 9t63 24q27 15 47.5 34.5t34.5 40.5q3 -25 8.5 -48.5t12.5 -45.5zM565 835q-32 0 -55 6.5t-37 19.5q-13 11 -19 26.5t-6 35.5q0 22 10 42t30 35
t49 24t68 9h136v-103q-8 -17 -26.5 -34t-42.5 -30q-25 -14 -53 -22.5t-54 -8.5z" />
    <glyph glyph-name="guillemotleft" unicode="&#xab;" 
d="M408 492l242 400h-181l-282 -390v-19l282 -390h181zM787 492l242 400h-181l-282 -390v-19l282 -390h181z" />
    <glyph glyph-name="logicalnot" unicode="&#xac;" 
d="M1020 374v431h-835v-171h635v-260h200z" />
    <glyph glyph-name="uni00AD" unicode="&#xad;" 
d="M1115 530v225h-833v-225h833z" />
    <glyph glyph-name="registered" unicode="&#xae;" 
d="M88 541q0 -119 42 -221.5t114 -178.5t169 -119t207 -43t207 43t169 119t114 178.5t42 221.5t-42 221.5t-114 178.5q-72 75 -169 118t-207 43t-207 -43t-169 -118q-72 -76 -114 -178.5t-42 -221.5zM179 541q0 99 34.5 184.5t94.5 148.5t140.5 98.5t171.5 35.5t171.5 -35.5
t140.5 -98.5t94.5 -148.5t34.5 -184.5t-34.5 -184.5t-94.5 -148.5t-140.5 -99t-171.5 -36t-171.5 36t-140.5 99t-94.5 148.5t-34.5 184.5zM512 484h119l117 -252h116l-146 287q66 23 101 62t35 95q0 97 -66.5 145t-177.5 48h-211v-637h113v252zM512 585v184h98q73 0 102 -21
t29 -76q0 -21 -9.5 -37t-25.5 -27t-37 -17t-43 -6h-114z" />
    <glyph glyph-name="macron" unicode="&#xaf;" 
d="M1003 1292v164h-730v-164h730z" />
    <glyph glyph-name="macron" unicode="&#x2c9;" 
d="M1003 1292v164h-730v-164h730z" />
    <glyph glyph-name="degree" unicode="&#xb0;" 
d="M357 1202q0 -57 21.5 -106t58.5 -86t86 -58t105 -21q54 0 102.5 21t84.5 58t57 86t21 106q0 56 -21 105.5t-57 87.5q-36 37 -84.5 59t-102.5 22q-56 0 -105 -22t-86 -59q-37 -38 -58.5 -87.5t-21.5 -105.5zM502 1202q0 27 10 50.5t28 41.5q17 17 39.5 26.5t48.5 9.5
q25 0 47.5 -9.5t38.5 -26.5q16 -18 25.5 -41.5t9.5 -50.5t-9.5 -50t-25.5 -39q-16 -17 -38.5 -26t-47.5 -9q-26 0 -48.5 9.5t-39.5 26.5q-18 16 -28 38.5t-10 49.5z" />
    <glyph glyph-name="plusminus" unicode="&#xb1;" 
d="M732 933v351h-245v-351h-340v-232h340v-370h245v370h331v232h-331zM1031 0v227h-860v-227h860z" />
    <glyph glyph-name="twosuperior" unicode="&#xb2;" 
d="M934 667v159h-355l117 93q54 43 94 79t67 71t40.5 71t13.5 80q0 52 -16 94.5t-47 72.5q-39 39 -101 59.5t-144 20.5q-71 0 -127 -21.5t-96 -58.5q-40 -38 -61 -87.5t-21 -105.5h201q0 22 6.5 42t20.5 35q14 16 35.5 25.5t50.5 9.5q24 0 42.5 -6.5t30.5 -17.5t18 -27.5
t6 -35.5q0 -14 -7.5 -34t-24.5 -44q-13 -18 -31 -38.5t-43 -42.5l-287 -259v-134h618z" />
    <glyph glyph-name="threesuperior" unicode="&#xb3;" 
d="M515 1135v-135h88q30 0 54.5 -5t40.5 -16q17 -11 25.5 -29t8.5 -45q0 -17 -6 -33t-18 -28q-14 -13 -36.5 -21t-54.5 -8q-30 0 -53.5 7.5t-39.5 20.5q-14 11 -21.5 26t-7.5 31h-202q0 -67 28 -113.5t73 -75.5q44 -30 99.5 -43t111.5 -13q70 0 130 15.5t105 45.5
q44 29 69 72t25 99q0 41 -11.5 72.5t-32.5 53.5q-19 20 -46 34t-60 23q27 10 49 23.5t39 30.5q23 22 35 51.5t12 64.5q0 55 -23 97.5t-64 71.5q-41 28 -99 42.5t-128 14.5q-60 0 -114 -14.5t-95 -42.5q-41 -29 -65.5 -71t-24.5 -97h201q0 16 8.5 28t23.5 20q14 8 32.5 12
t39.5 4q30 0 50.5 -7t33.5 -18q12 -12 18 -26t6 -29q0 -22 -8 -40t-26 -30q-14 -10 -34.5 -15t-47.5 -5h-88z" />
    <glyph glyph-name="acute" unicode="&#xb4;" 
d="M569 1478l-187 -279h216l277 279h-306z" />
    <glyph glyph-name="mu" unicode="&#xb5;" 
d="M450 1082h-278v-1498h278v443q37 -24 82 -36t98 -12q46 0 86 10t74 29q19 11 36 24.5t32 29.5l6 -72h259v1082h-279v-769q-11 -20 -25 -37t-33 -30q-27 -20 -64.5 -30.5t-86.5 -10.5q-41 0 -75 10t-58 39q-25 28 -38.5 78t-13.5 130v620z" />
    <glyph glyph-name="paragraph" unicode="&#xb6;" 
d="M791 0h216v1456h-299q-119 0 -211 -35.5t-154 -97.5q-63 -63 -95 -149t-32 -186q0 -101 32 -187t95 -148q62 -63 154 -98t211 -35h83v-520z" />
    <glyph glyph-name="periodcentered" unicode="&#xb7;" 
d="M494 701q0 -63 42.5 -106t115.5 -43q71 0 114.5 42t43.5 107t-43.5 107.5t-114.5 42.5q-73 0 -115.5 -43.5t-42.5 -106.5z" />
    <glyph glyph-name="cedilla" unicode="&#xb8;" 
d="M676 5h-207l-31 -141q39 -3 67 -7.5t45 -14.5q17 -9 25 -23t8 -34q0 -23 -9.5 -39t-25.5 -26q-16 -9 -37.5 -13.5t-46.5 -4.5l7 -160q85 0 149 17t108 48q43 30 65 73t22 96q0 43 -13 73.5t-34 51.5q-21 20 -48 31.5t-55 16.5z" />
    <glyph glyph-name="onesuperior" unicode="&#xb9;" 
d="M784 659v786h-19l-371 -120v-156l191 43v-553h199z" />
    <glyph glyph-name="ordmasculine" unicode="&#xba;" 
d="M266 1141v-117q0 -73 24.5 -134.5t69.5 -105.5t109.5 -69t144.5 -25t144 25t109 69q44 44 68 105.5t24 134.5v117q0 73 -24 134.5t-69 106.5q-45 44 -109 69t-144 25q-81 0 -145 -25t-109 -69q-45 -45 -69 -106.5t-24 -134.5zM441 1024v117q0 40 10.5 74t32.5 59
q21 25 53 39.5t75 14.5t75.5 -14.5t54.5 -39.5q21 -25 31.5 -59t10.5 -74v-117q0 -41 -10.5 -75t-31.5 -59q-21 -26 -53 -40t-75 -14q-44 0 -76.5 14t-53.5 40q-22 25 -32.5 59t-10.5 75z" />
    <glyph glyph-name="guillemotright" unicode="&#xbb;" 
d="M408 926h-181l241 -400l-241 -399h181l283 390v19zM785 926h-181l241 -400l-241 -399h181l283 390v19z" />
    <glyph glyph-name="onequarter" unicode="&#xbc;" 
d="M416 751v707h-17l-334 -108v-140l172 39v-498h179zM1088 291v419h-181l-322 -448l10 -118h311v-144h182v144h82v147h-82zM758 291l137 176l11 17v-193h-148zM425 235l511 938l-131 67l-511 -938z" />
    <glyph glyph-name="onehalf" unicode="&#xbd;" 
d="M375 752v707h-17l-334 -108v-140l172 39v-498h179zM1207 0v143h-320l106 84q48 39 84 71t60 64q25 31 37 63.5t12 72.5q0 50 -16.5 90t-48.5 68q-35 32 -89 48t-123 16q-64 0 -114.5 -19.5t-86.5 -52.5q-36 -34 -55 -78.5t-19 -95.5h181q0 18 5 35.5t16 30.5
q13 16 33 25.5t48 9.5q24 0 41.5 -6.5t28.5 -19.5q8 -10 12.5 -23.5t4.5 -28.5q0 -13 -6.5 -30.5t-21.5 -38.5q-11 -18 -28 -36t-39 -38l-258 -233v-121h556zM356 235l511 938l-131 67l-511 -938z" />
    <glyph glyph-name="threequarters" unicode="&#xbe;" 
d="M1136 291v419h-181l-322 -448l10 -118h311v-144h182v144h82v147h-82zM806 291l137 176l11 17v-193h-148zM233 1166v-121h79q34 0 59.5 -7.5t39.5 -23.5q8 -10 12.5 -23.5t4.5 -31.5q0 -15 -5 -29.5t-17 -25.5q-13 -11 -32.5 -18.5t-48.5 -7.5q-27 0 -48 7t-35 17
q-13 11 -20 24.5t-7 28.5h-182q0 -61 25.5 -102.5t65.5 -67.5q40 -27 90 -39t100 -12q63 0 117 14t95 41q39 26 61.5 65t22.5 89q0 40 -12 70t-35 51q-17 15 -39 25.5t-49 18.5q23 8 41.5 19t34.5 25q21 21 33.5 48t12.5 61q0 49 -21 87.5t-58 64.5q-37 25 -89 38t-115 13
q-54 0 -102.5 -13t-85.5 -38q-37 -26 -59 -64t-22 -87h181q0 12 6 22.5t18 17.5q13 8 31 12.5t38 4.5q27 0 45.5 -6t30.5 -16q11 -11 16.5 -23.5t5.5 -26.5q0 -19 -6.5 -34t-19.5 -26q-13 -10 -33 -15.5t-46 -5.5h-79zM509 235l511 938l-131 67l-511 -938z" />
    <glyph glyph-name="questiondown" unicode="&#xbf;" 
d="M791 639h-249q-1 -40 -1.5 -67.5t-7.5 -50.5t-22.5 -45t-46.5 -51q-47 -44 -94 -90t-84 -97q-38 -52 -61 -111t-23 -129q0 -95 30.5 -168t87.5 -122q57 -50 139.5 -75.5t187.5 -25.5q94 0 176 24t142 73t95 123.5t37 175.5h-279q-1 -45 -15.5 -77t-38.5 -52t-55.5 -29.5
t-66.5 -9.5q-38 0 -69 10.5t-51 31.5t-30.5 51.5t-10.5 70.5q0 42 16.5 81.5t42.5 77.5q26 37 58.5 72.5t64.5 68.5q48 36 73.5 68t37.5 70q12 37 14.5 85.5t2.5 116.5zM538 942q0 -52 28 -88.5t104 -36.5q75 0 105 36t30 89q0 57 -30 95.5t-105 38.5q-76 0 -104 -39
t-28 -95z" />
    <glyph glyph-name="Agrave" unicode="&#xc0;" 
d="M847 304l85 -304h296l-468 1456h-255l-477 -1456h296l86 304h437zM479 543l153 536l149 -536h-302zM746 1547l-177 279h-306l264 -279h219z" />
    <glyph glyph-name="Aacute" unicode="&#xc1;" 
d="M847 304l85 -304h296l-468 1456h-255l-477 -1456h296l86 304h437zM479 543l153 536l149 -536h-302zM703 1823l-187 -279h216l277 279h-306z" />
    <glyph glyph-name="Acircumflex" unicode="&#xc2;" 
d="M847 304l85 -304h296l-468 1456h-255l-477 -1456h296l86 304h437zM479 543l153 536l149 -536h-302zM1008 1622l-294 243h-161l-290 -241v-30h217l153 127l154 -127h221v28z" />
    <glyph glyph-name="Atilde" unicode="&#xc3;" 
d="M847 304l85 -304h296l-468 1456h-255l-477 -1456h296l86 304h437zM479 543l153 536l149 -536h-302zM997 1861l-140 31q0 -21 -6.5 -38.5t-17.5 -29.5q-12 -14 -29.5 -21.5t-36.5 -7.5q-38 0 -72 13.5t-67 30.5q-34 16 -69 29.5t-75 13.5q-49 0 -88.5 -22t-67.5 -57
t-43.5 -79t-15.5 -88l140 -30q0 23 7 41.5t20 30.5q12 13 28 19.5t34 6.5q39 0 70 -13.5t63 -29.5q31 -17 66.5 -30.5t83.5 -13.5q49 0 88.5 21t68.5 56q28 34 43.5 78t15.5 89z" />
    <glyph glyph-name="Adieresis" unicode="&#xc4;" 
d="M847 304l85 -304h296l-468 1456h-255l-477 -1456h296l86 304h437zM479 543l153 536l149 -536h-302zM252 1714q0 -53 38.5 -88.5t97.5 -35.5t97.5 35.5t38.5 88.5q0 52 -38 88.5t-98 36.5t-98 -36.5t-38 -88.5zM732 1714q0 -54 38 -90t98 -36t98 36t38 90q0 51 -37.5 87.5
t-98.5 36.5t-98.5 -36.5t-37.5 -87.5z" />
    <glyph glyph-name="Aring" unicode="&#xc5;" 
d="M847 304l85 -304h296l-468 1456h-255l-477 -1456h296l86 304h437zM479 543l153 536l149 -536h-302zM421 1732q0 -42 16.5 -77.5t45.5 -60.5q29 -26 68 -40t83 -14t82 14t66 40q28 25 44 60.5t16 77.5t-16 78t-44 62t-66 41t-82 15t-83 -15t-68 -41t-45.5 -62t-16.5 -78z
M535 1732q0 22 7.5 40t19.5 31q13 14 32 21.5t40 7.5t38.5 -7t30.5 -20q12 -13 19 -32t7 -41q0 -23 -7.5 -41.5t-21.5 -31.5q-12 -12 -29 -18.5t-37 -6.5q-21 0 -39 7t-31 19q-13 13 -21 31.5t-8 40.5z" />
    <glyph glyph-name="AE" unicode="&#xc6;" 
d="M1177 0v226h-269v409h217v227h-217v366h248v228h-629l-479 -1456h282l94 334h217v-334h536zM491 574l150 532v-532h-150z" />
    <glyph glyph-name="Ccedilla" unicode="&#xc7;" 
d="M1142 456h-281q-4 -66 -22 -113t-49 -77t-75 -44t-99 -14q-41 0 -74.5 9.5t-60.5 29.5q-25 18 -44.5 45t-33.5 62q-20 51 -29.5 119.5t-9.5 155.5v198q0 64 6 119.5t19 101.5q17 59 45.5 103.5t69.5 68.5q24 14 52.5 21t61.5 7q62 0 106.5 -16.5t74.5 -48.5
q29 -33 44.5 -82t19.5 -114h280q-10 114 -48 205t-104 154t-159.5 97t-213.5 34q-81 0 -151.5 -20.5t-129.5 -58.5q-66 -45 -118 -110t-84 -148q-28 -68 -42 -147.5t-14 -167.5v-196q0 -94 15.5 -178t44.5 -154q30 -70 73.5 -128t99.5 -99q61 -44 137.5 -67.5t166.5 -23.5
q114 0 208 33.5t162 95.5t108.5 150t47.5 198zM727 10h-207l-31 -141q39 -3 67 -7.5t45 -14.5q17 -9 25 -23t8 -34q0 -23 -9.5 -39t-25.5 -26q-16 -9 -37.5 -13.5t-46.5 -4.5l7 -160q85 0 149 17t108 48q43 30 65 73t22 96q0 43 -13 73.5t-34 51.5q-21 20 -48 31.5t-55 16.5
z" />
    <glyph glyph-name="Egrave" unicode="&#xc8;" 
d="M1027 638v222h-598v367h696v229h-978v-1456h981v227h-699v411h598zM755 1538l-177 279h-306l264 -279h219z" />
    <glyph glyph-name="Eacute" unicode="&#xc9;" 
d="M1027 638v222h-598v367h696v229h-978v-1456h981v227h-699v411h598zM712 1814l-187 -279h216l277 279h-306z" />
    <glyph glyph-name="Ecircumflex" unicode="&#xca;" 
d="M1027 638v222h-598v367h696v229h-978v-1456h981v227h-699v411h598zM1017 1613l-294 243h-161l-290 -241v-30h217l153 127l154 -127h221v28z" />
    <glyph glyph-name="Edieresis" unicode="&#xcb;" 
d="M1027 638v222h-598v367h696v229h-978v-1456h981v227h-699v411h598zM261 1705q0 -53 38.5 -88.5t97.5 -35.5t97.5 35.5t38.5 88.5q0 52 -38 88.5t-98 36.5t-98 -36.5t-38 -88.5zM741 1705q0 -54 38 -90t98 -36t98 36t38 90q0 51 -37.5 87.5t-98.5 36.5t-98.5 -36.5
t-37.5 -87.5z" />
    <glyph glyph-name="Igrave" unicode="&#xcc;" 
d="M193 1456v-227h277v-1003h-277v-226h842v226h-284v1003h284v227h-842zM713 1547l-177 279h-306l264 -279h219z" />
    <glyph glyph-name="Iacute" unicode="&#xcd;" 
d="M193 1456v-227h277v-1003h-277v-226h842v226h-284v1003h284v227h-842zM670 1823l-187 -279h216l277 279h-306z" />
    <glyph glyph-name="Icircumflex" unicode="&#xce;" 
d="M193 1456v-227h277v-1003h-277v-226h842v226h-284v1003h284v227h-842zM975 1622l-294 243h-161l-290 -241v-30h217l153 127l154 -127h221v28z" />
    <glyph glyph-name="Idieresis" unicode="&#xcf;" 
d="M193 1456v-227h277v-1003h-277v-226h842v226h-284v1003h284v227h-842zM219 1714q0 -53 38.5 -88.5t97.5 -35.5t97.5 35.5t38.5 88.5q0 52 -38 88.5t-98 36.5t-98 -36.5t-38 -88.5zM699 1714q0 -54 38 -90t98 -36t98 36t38 90q0 51 -37.5 87.5t-98.5 36.5t-98.5 -36.5
t-37.5 -87.5z" />
    <glyph glyph-name="Eth" unicode="&#xd0;" 
d="M140 0h391q139 0 254 49t197 138q82 88 127.5 210.5t45.5 269.5v120q0 147 -45.5 270t-128.5 212q-84 88 -201.5 137.5t-262.5 49.5h-377v-633h-182v-180h182v-643zM650 643v180h-227v405h94q86 0 151.5 -32t110.5 -90q44 -58 66.5 -138.5t22.5 -178.5v-122
q0 -104 -23 -185.5t-66 -138.5q-44 -57 -106.5 -87t-141.5 -30h-108v417h227z" />
    <glyph glyph-name="Ntilde" unicode="&#xd1;" 
d="M1091 0v1456h-282l-1 -935l-402 935h-283v-1456h283v939l405 -939h280zM977 1861l-140 31q0 -21 -6.5 -38.5t-17.5 -29.5q-12 -14 -29.5 -21.5t-36.5 -7.5q-38 0 -72 13.5t-67 30.5q-34 16 -69 29.5t-75 13.5q-49 0 -88.5 -22t-67.5 -57t-43.5 -79t-15.5 -88l140 -30
q0 23 7 41.5t20 30.5q12 13 28 19.5t34 6.5q39 0 70 -13.5t63 -29.5q31 -17 66.5 -30.5t83.5 -13.5q49 0 88.5 21t68.5 56q28 34 43.5 78t15.5 89z" />
    <glyph glyph-name="Ograve" unicode="&#xd2;" 
d="M1147 621v212q0 99 -18.5 187t-53.5 162q-32 65 -76.5 119t-103.5 92q-59 40 -132.5 61.5t-157.5 21.5q-83 0 -154 -21t-128 -60q-58 -40 -102.5 -96t-75.5 -125q-32 -73 -48.5 -159t-16.5 -182v-212q0 -90 14.5 -171t42.5 -150q31 -75 77 -134.5t104 -101.5
q59 -40 131 -62t157 -22q80 0 149.5 19.5t127.5 54.5q64 40 114 100t84 132q32 72 49 156.5t17 178.5zM862 835v-214q0 -54 -5.5 -104t-16.5 -92q-14 -54 -37.5 -96.5t-57.5 -70.5q-27 -23 -62 -35t-77 -12q-44 0 -78.5 13t-61.5 37q-29 27 -50.5 70.5t-32.5 96.5
q-10 42 -14 91t-4 102v214q0 56 4.5 107t14.5 94q13 56 36.5 98t57.5 70q25 19 56.5 29t70.5 10q41 0 74.5 -11t60.5 -31q34 -27 59 -69.5t40 -96.5q12 -43 17.5 -93.5t5.5 -106.5zM728 1568l-177 279h-306l264 -279h219z" />
    <glyph glyph-name="Oacute" unicode="&#xd3;" 
d="M1147 621v212q0 99 -18.5 187t-53.5 162q-32 65 -76.5 119t-103.5 92q-59 40 -132.5 61.5t-157.5 21.5q-83 0 -154 -21t-128 -60q-58 -40 -102.5 -96t-75.5 -125q-32 -73 -48.5 -159t-16.5 -182v-212q0 -90 14.5 -171t42.5 -150q31 -75 77 -134.5t104 -101.5
q59 -40 131 -62t157 -22q80 0 149.5 19.5t127.5 54.5q64 40 114 100t84 132q32 72 49 156.5t17 178.5zM862 835v-214q0 -54 -5.5 -104t-16.5 -92q-14 -54 -37.5 -96.5t-57.5 -70.5q-27 -23 -62 -35t-77 -12q-44 0 -78.5 13t-61.5 37q-29 27 -50.5 70.5t-32.5 96.5
q-10 42 -14 91t-4 102v214q0 56 4.5 107t14.5 94q13 56 36.5 98t57.5 70q25 19 56.5 29t70.5 10q41 0 74.5 -11t60.5 -31q34 -27 59 -69.5t40 -96.5q12 -43 17.5 -93.5t5.5 -106.5zM685 1844l-187 -279h216l277 279h-306z" />
    <glyph glyph-name="Ocircumflex" unicode="&#xd4;" 
d="M1147 621v212q0 99 -18.5 187t-53.5 162q-32 65 -76.5 119t-103.5 92q-59 40 -132.5 61.5t-157.5 21.5q-83 0 -154 -21t-128 -60q-58 -40 -102.5 -96t-75.5 -125q-32 -73 -48.5 -159t-16.5 -182v-212q0 -90 14.5 -171t42.5 -150q31 -75 77 -134.5t104 -101.5
q59 -40 131 -62t157 -22q80 0 149.5 19.5t127.5 54.5q64 40 114 100t84 132q32 72 49 156.5t17 178.5zM862 835v-214q0 -54 -5.5 -104t-16.5 -92q-14 -54 -37.5 -96.5t-57.5 -70.5q-27 -23 -62 -35t-77 -12q-44 0 -78.5 13t-61.5 37q-29 27 -50.5 70.5t-32.5 96.5
q-10 42 -14 91t-4 102v214q0 56 4.5 107t14.5 94q13 56 36.5 98t57.5 70q25 19 56.5 29t70.5 10q41 0 74.5 -11t60.5 -31q34 -27 59 -69.5t40 -96.5q12 -43 17.5 -93.5t5.5 -106.5zM990 1643l-294 243h-161l-290 -241v-30h217l153 127l154 -127h221v28z" />
    <glyph glyph-name="Otilde" unicode="&#xd5;" 
d="M1147 621v212q0 99 -18.5 187t-53.5 162q-32 65 -76.5 119t-103.5 92q-59 40 -132.5 61.5t-157.5 21.5q-83 0 -154 -21t-128 -60q-58 -40 -102.5 -96t-75.5 -125q-32 -73 -48.5 -159t-16.5 -182v-212q0 -90 14.5 -171t42.5 -150q31 -75 77 -134.5t104 -101.5
q59 -40 131 -62t157 -22q80 0 149.5 19.5t127.5 54.5q64 40 114 100t84 132q32 72 49 156.5t17 178.5zM862 835v-214q0 -54 -5.5 -104t-16.5 -92q-14 -54 -37.5 -96.5t-57.5 -70.5q-27 -23 -62 -35t-77 -12q-44 0 -78.5 13t-61.5 37q-29 27 -50.5 70.5t-32.5 96.5
q-10 42 -14 91t-4 102v214q0 56 4.5 107t14.5 94q13 56 36.5 98t57.5 70q25 19 56.5 29t70.5 10q41 0 74.5 -11t60.5 -31q34 -27 59 -69.5t40 -96.5q12 -43 17.5 -93.5t5.5 -106.5zM979 1882l-140 31q0 -21 -6.5 -38.5t-17.5 -29.5q-12 -14 -29.5 -21.5t-36.5 -7.5
q-38 0 -72 13.5t-67 30.5q-34 16 -69 29.5t-75 13.5q-49 0 -88.5 -22t-67.5 -57t-43.5 -79t-15.5 -88l140 -30q0 23 7 41.5t20 30.5q12 13 28 19.5t34 6.5q39 0 70 -13.5t63 -29.5q31 -17 66.5 -30.5t83.5 -13.5q49 0 88.5 21t68.5 56q28 34 43.5 78t15.5 89z" />
    <glyph glyph-name="Odieresis" unicode="&#xd6;" 
d="M1147 621v212q0 99 -18.5 187t-53.5 162q-32 65 -76.5 119t-103.5 92q-59 40 -132.5 61.5t-157.5 21.5q-83 0 -154 -21t-128 -60q-58 -40 -102.5 -96t-75.5 -125q-32 -73 -48.5 -159t-16.5 -182v-212q0 -90 14.5 -171t42.5 -150q31 -75 77 -134.5t104 -101.5
q59 -40 131 -62t157 -22q80 0 149.5 19.5t127.5 54.5q64 40 114 100t84 132q32 72 49 156.5t17 178.5zM862 835v-214q0 -54 -5.5 -104t-16.5 -92q-14 -54 -37.5 -96.5t-57.5 -70.5q-27 -23 -62 -35t-77 -12q-44 0 -78.5 13t-61.5 37q-29 27 -50.5 70.5t-32.5 96.5
q-10 42 -14 91t-4 102v214q0 56 4.5 107t14.5 94q13 56 36.5 98t57.5 70q25 19 56.5 29t70.5 10q41 0 74.5 -11t60.5 -31q34 -27 59 -69.5t40 -96.5q12 -43 17.5 -93.5t5.5 -106.5zM234 1735q0 -53 38.5 -88.5t97.5 -35.5t97.5 35.5t38.5 88.5q0 52 -38 88.5t-98 36.5
t-98 -36.5t-38 -88.5zM714 1735q0 -54 38 -90t98 -36t98 36t38 90q0 51 -37.5 87.5t-98.5 36.5t-98.5 -36.5t-37.5 -87.5z" />
    <glyph glyph-name="multiply" unicode="&#xd7;" 
d="M157 371l165 -164l307 313l307 -313l165 164l-309 315l309 315l-165 164l-307 -313l-307 313l-165 -164l309 -315z" />
    <glyph glyph-name="Oslash" unicode="&#xd8;" 
d="M1152 621v212q0 138 -35.5 253.5t-103.5 201.5l130 230h-184l-68 -120q-26 17 -55 30.5t-59 23.5q-38 12 -80 18t-87 6q-126 0 -223.5 -48t-164.5 -133q-67 -86 -102 -204t-35 -258v-212q0 -66 7.5 -127.5t22.5 -116.5q15 -54 37.5 -103t52.5 -91l-157 -278h183l91 160
q59 -42 131 -63.5t158 -21.5q126 0 226.5 47.5t170.5 132.5t107 203t37 258zM370 621v214q0 89 12 164t40 129t74 84.5t114 30.5q25 0 48 -4.5t43 -12.5q19 -8 35.5 -19.5t31.5 -26.5l-390 -691q-2 13 -3 26l-2 26q-2 19 -2.5 39t-0.5 41zM867 835v-214q0 -89 -15 -164
t-45 -129q-31 -55 -79.5 -86t-116.5 -31q-55 0 -95 20t-69 56l404 715q8 -38 12 -80t4 -87z" />
    <glyph glyph-name="Ugrave" unicode="&#xd9;" 
d="M1101 1456h-279l-1 -965q-1 -71 -15 -125t-42 -90q-26 -35 -65.5 -52.5t-90.5 -17.5q-47 0 -83 16.5t-61 49.5q-27 36 -40.5 91t-14.5 128l-1 965h-281l-1 -965q0 -122 34.5 -217.5t97.5 -160.5t151.5 -99t198.5 -34q117 0 208.5 34t155.5 100q63 65 96.5 160t33.5 217z
M736 1544l-177 279h-306l264 -279h219z" />
    <glyph glyph-name="Uacute" unicode="&#xda;" 
d="M1101 1456h-279l-1 -965q-1 -71 -15 -125t-42 -90q-26 -35 -65.5 -52.5t-90.5 -17.5q-47 0 -83 16.5t-61 49.5q-27 36 -40.5 91t-14.5 128l-1 965h-281l-1 -965q0 -122 34.5 -217.5t97.5 -160.5t151.5 -99t198.5 -34q117 0 208.5 34t155.5 100q63 65 96.5 160t33.5 217z
M693 1820l-187 -279h216l277 279h-306z" />
    <glyph glyph-name="Ucircumflex" unicode="&#xdb;" 
d="M1101 1456h-279l-1 -965q-1 -71 -15 -125t-42 -90q-26 -35 -65.5 -52.5t-90.5 -17.5q-47 0 -83 16.5t-61 49.5q-27 36 -40.5 91t-14.5 128l-1 965h-281l-1 -965q0 -122 34.5 -217.5t97.5 -160.5t151.5 -99t198.5 -34q117 0 208.5 34t155.5 100q63 65 96.5 160t33.5 217z
M998 1619l-294 243h-161l-290 -241v-30h217l153 127l154 -127h221v28z" />
    <glyph glyph-name="Udieresis" unicode="&#xdc;" 
d="M1101 1456h-279l-1 -965q-1 -71 -15 -125t-42 -90q-26 -35 -65.5 -52.5t-90.5 -17.5q-47 0 -83 16.5t-61 49.5q-27 36 -40.5 91t-14.5 128l-1 965h-281l-1 -965q0 -122 34.5 -217.5t97.5 -160.5t151.5 -99t198.5 -34q117 0 208.5 34t155.5 100q63 65 96.5 160t33.5 217z
M242 1711q0 -53 38.5 -88.5t97.5 -35.5t97.5 35.5t38.5 88.5q0 52 -38 88.5t-98 36.5t-98 -36.5t-38 -88.5zM722 1711q0 -54 38 -90t98 -36t98 36t38 90q0 51 -37.5 87.5t-98.5 36.5t-98.5 -36.5t-37.5 -87.5z" />
    <glyph glyph-name="Yacute" unicode="&#xdd;" 
d="M628 785l-287 671h-308l451 -940l1 -516h280l1 504l458 952h-309zM697 1823l-187 -279h216l277 279h-306z" />
    <glyph glyph-name="Thorn" unicode="&#xde;" 
d="M415 1456h-279v-1456h279v289h227q129 0 228 33.5t167 93.5q67 59 102 141.5t35 180.5q0 97 -35 179.5t-102 141.5q-68 59 -167 92.5t-228 33.5h-227v271zM415 961h227q68 0 116 -19t79 -50q30 -31 44 -72t14 -84t-14 -83.5t-44 -71.5q-31 -31 -79 -49.5t-116 -18.5h-227
v448z" />
    <glyph glyph-name="germandbls" unicode="&#xdf;" 
d="M439 0v1072q0 70 13.5 120.5t36.5 83.5q23 32 54.5 47.5t66.5 15.5q25 0 50 -11t45 -31q20 -21 32.5 -50.5t12.5 -66.5q0 -51 -14 -87.5t-33 -67.5q-25 -40 -46 -87.5t-21 -116.5q0 -65 20 -114t50 -88q29 -39 63.5 -71.5t64.5 -63.5q29 -32 49 -65.5t20 -74.5
q0 -34 -9.5 -61.5t-27.5 -45.5q-17 -17 -40 -26t-52 -9q-35 0 -68 5.5t-61 13.5q-29 8 -52 18t-39 19l-54 -221q21 -14 53 -24.5t70 -17.5q38 -8 79 -12t80 -4q95 0 169.5 24.5t125.5 71.5t77.5 116.5t26.5 158.5q0 63 -20 113.5t-49 92.5q-30 41 -64.5 76.5t-63.5 68.5
q-30 32 -50 64t-20 67q0 57 16.5 93.5t37.5 69.5q19 33 37.5 78t18.5 123q0 92 -32.5 160.5t-86.5 114.5q-55 46 -127 68.5t-151 22.5q-102 0 -187.5 -31.5t-146.5 -92.5q-62 -62 -96.5 -153t-34.5 -209v-1076h277z" />
    <glyph glyph-name="agrave" unicode="&#xe0;" 
d="M817 0h282v17q-21 41 -32 98t-11 144v464q0 94 -35 165.5t-97 118.5t-146.5 71t-182.5 24q-109 0 -193.5 -27.5t-142.5 -74.5q-59 -47 -89.5 -109t-30.5 -131h278q0 29 8.5 53t26.5 41q20 19 52 29.5t76 10.5q50 0 87.5 -12.5t62.5 -35.5q24 -22 36 -52.5t12 -68.5v-64
h-155q-120 0 -212.5 -21.5t-155.5 -62.5q-70 -45 -105 -114.5t-35 -159.5q0 -70 28 -129.5t78 -102.5t119.5 -67t152.5 -24q51 0 95 9.5t81 26.5q36 16 66 38t53 47q5 -29 12 -55t17 -46zM552 195q-39 0 -68.5 9.5t-49.5 25.5q-20 17 -30.5 41.5t-10.5 53.5q0 37 14 68.5
t43 54.5q29 22 75 34.5t111 12.5h142v-186q-12 -21 -33 -41.5t-50 -36.5t-65 -26t-78 -10zM709 1225l-177 279h-306l264 -279h219z" />
    <glyph glyph-name="aacute" unicode="&#xe1;" 
d="M817 0h282v17q-21 41 -32 98t-11 144v464q0 94 -35 165.5t-97 118.5t-146.5 71t-182.5 24q-109 0 -193.5 -27.5t-142.5 -74.5q-59 -47 -89.5 -109t-30.5 -131h278q0 29 8.5 53t26.5 41q20 19 52 29.5t76 10.5q50 0 87.5 -12.5t62.5 -35.5q24 -22 36 -52.5t12 -68.5v-64
h-155q-120 0 -212.5 -21.5t-155.5 -62.5q-70 -45 -105 -114.5t-35 -159.5q0 -70 28 -129.5t78 -102.5t119.5 -67t152.5 -24q51 0 95 9.5t81 26.5q36 16 66 38t53 47q5 -29 12 -55t17 -46zM552 195q-39 0 -68.5 9.5t-49.5 25.5q-20 17 -30.5 41.5t-10.5 53.5q0 37 14 68.5
t43 54.5q29 22 75 34.5t111 12.5h142v-186q-12 -21 -33 -41.5t-50 -36.5t-65 -26t-78 -10zM666 1501l-187 -279h216l277 279h-306z" />
    <glyph glyph-name="acircumflex" unicode="&#xe2;" 
d="M817 0h282v17q-21 41 -32 98t-11 144v464q0 94 -35 165.5t-97 118.5t-146.5 71t-182.5 24q-109 0 -193.5 -27.5t-142.5 -74.5q-59 -47 -89.5 -109t-30.5 -131h278q0 29 8.5 53t26.5 41q20 19 52 29.5t76 10.5q50 0 87.5 -12.5t62.5 -35.5q24 -22 36 -52.5t12 -68.5v-64
h-155q-120 0 -212.5 -21.5t-155.5 -62.5q-70 -45 -105 -114.5t-35 -159.5q0 -70 28 -129.5t78 -102.5t119.5 -67t152.5 -24q51 0 95 9.5t81 26.5q36 16 66 38t53 47q5 -29 12 -55t17 -46zM552 195q-39 0 -68.5 9.5t-49.5 25.5q-20 17 -30.5 41.5t-10.5 53.5q0 37 14 68.5
t43 54.5q29 22 75 34.5t111 12.5h142v-186q-12 -21 -33 -41.5t-50 -36.5t-65 -26t-78 -10zM971 1300l-294 243h-161l-290 -241v-30h217l153 127l154 -127h221v28z" />
    <glyph glyph-name="atilde" unicode="&#xe3;" 
d="M817 0h282v17q-21 41 -32 98t-11 144v464q0 94 -35 165.5t-97 118.5t-146.5 71t-182.5 24q-109 0 -193.5 -27.5t-142.5 -74.5q-59 -47 -89.5 -109t-30.5 -131h278q0 29 8.5 53t26.5 41q20 19 52 29.5t76 10.5q50 0 87.5 -12.5t62.5 -35.5q24 -22 36 -52.5t12 -68.5v-64
h-155q-120 0 -212.5 -21.5t-155.5 -62.5q-70 -45 -105 -114.5t-35 -159.5q0 -70 28 -129.5t78 -102.5t119.5 -67t152.5 -24q51 0 95 9.5t81 26.5q36 16 66 38t53 47q5 -29 12 -55t17 -46zM552 195q-39 0 -68.5 9.5t-49.5 25.5q-20 17 -30.5 41.5t-10.5 53.5q0 37 14 68.5
t43 54.5q29 22 75 34.5t111 12.5h142v-186q-12 -21 -33 -41.5t-50 -36.5t-65 -26t-78 -10zM960 1539l-140 31q0 -21 -6.5 -38.5t-17.5 -29.5q-12 -14 -29.5 -21.5t-36.5 -7.5q-38 0 -72 13.5t-67 30.5q-34 16 -69 29.5t-75 13.5q-49 0 -88.5 -22t-67.5 -57t-43.5 -79
t-15.5 -88l140 -30q0 23 7 41.5t20 30.5q12 13 28 19.5t34 6.5q39 0 70 -13.5t63 -29.5q31 -17 66.5 -30.5t83.5 -13.5q49 0 88.5 21t68.5 56q28 34 43.5 78t15.5 89z" />
    <glyph glyph-name="adieresis" unicode="&#xe4;" 
d="M817 0h282v17q-21 41 -32 98t-11 144v464q0 94 -35 165.5t-97 118.5t-146.5 71t-182.5 24q-109 0 -193.5 -27.5t-142.5 -74.5q-59 -47 -89.5 -109t-30.5 -131h278q0 29 8.5 53t26.5 41q20 19 52 29.5t76 10.5q50 0 87.5 -12.5t62.5 -35.5q24 -22 36 -52.5t12 -68.5v-64
h-155q-120 0 -212.5 -21.5t-155.5 -62.5q-70 -45 -105 -114.5t-35 -159.5q0 -70 28 -129.5t78 -102.5t119.5 -67t152.5 -24q51 0 95 9.5t81 26.5q36 16 66 38t53 47q5 -29 12 -55t17 -46zM552 195q-39 0 -68.5 9.5t-49.5 25.5q-20 17 -30.5 41.5t-10.5 53.5q0 37 14 68.5
t43 54.5q29 22 75 34.5t111 12.5h142v-186q-12 -21 -33 -41.5t-50 -36.5t-65 -26t-78 -10zM215 1392q0 -53 38.5 -88.5t97.5 -35.5t97.5 35.5t38.5 88.5q0 52 -38 88.5t-98 36.5t-98 -36.5t-38 -88.5zM695 1392q0 -54 38 -90t98 -36t98 36t38 90q0 51 -37.5 87.5t-98.5 36.5
t-98.5 -36.5t-37.5 -87.5z" />
    <glyph glyph-name="aring" unicode="&#xe5;" 
d="M817 0h282v17q-21 41 -32 98t-11 144v464q0 94 -35 165.5t-97 118.5t-146.5 71t-182.5 24q-109 0 -193.5 -27.5t-142.5 -74.5q-59 -47 -89.5 -109t-30.5 -131h278q0 29 8.5 53t26.5 41q20 19 52 29.5t76 10.5q50 0 87.5 -12.5t62.5 -35.5q24 -22 36 -52.5t12 -68.5v-64
h-155q-120 0 -212.5 -21.5t-155.5 -62.5q-70 -45 -105 -114.5t-35 -159.5q0 -70 28 -129.5t78 -102.5t119.5 -67t152.5 -24q51 0 95 9.5t81 26.5q36 16 66 38t53 47q5 -29 12 -55t17 -46zM552 195q-39 0 -68.5 9.5t-49.5 25.5q-20 17 -30.5 41.5t-10.5 53.5q0 37 14 68.5
t43 54.5q29 22 75 34.5t111 12.5h142v-186q-12 -21 -33 -41.5t-50 -36.5t-65 -26t-78 -10zM385 1410q0 -42 16.5 -77.5t45.5 -60.5q29 -26 68 -40t83 -14t82 14t66 40q28 25 44 60.5t16 77.5t-16 78t-44 62t-66 41t-82 15t-83 -15t-68 -41t-45.5 -62t-16.5 -78zM499 1410
q0 22 7.5 40t19.5 31q13 14 32 21.5t40 7.5t38.5 -7t30.5 -20q12 -13 19 -32t7 -41q0 -23 -7.5 -41.5t-21.5 -31.5q-12 -12 -29 -18.5t-37 -6.5q-21 0 -39 7t-31 19q-13 13 -21 31.5t-8 40.5z" />
    <glyph glyph-name="ae" unicode="&#xe6;" 
d="M868 -20q50 0 95 6.5t84 17.5q38 11 68.5 25.5t50.5 30.5l-55 192q-21 -9 -41 -18t-42 -15q-23 -7 -50 -11.5t-61 -4.5q-32 0 -57.5 5t-44.5 15q-21 11 -35 26.5t-23 34.5q-7 17 -10.5 37t-3.5 42v91h451v245q0 93 -23.5 168t-65.5 127q-43 52 -103.5 80t-134.5 28
q-42 1 -79 -6t-68 -20q-23 -9 -43 -21.5t-37 -27.5q-17 15 -35.5 26.5t-39.5 20.5q-33 14 -72.5 21t-84.5 7q-79 0 -141.5 -22.5t-106.5 -63.5t-67.5 -100t-23.5 -131l261 -9q0 24 4 41.5t13 29.5q11 16 30 23t45 7q17 0 29.5 -4.5t22.5 -14.5q13 -13 19.5 -36t6.5 -55v-119
h-3q-126 0 -218 -29.5t-148 -86.5q-42 -43 -63.5 -102.5t-21.5 -132.5q0 -72 21 -131t62 -100q40 -41 99 -63.5t136 -22.5q41 0 75.5 9.5t64.5 25.5q29 16 52.5 38t41.5 46q18 -23 40 -42t47 -33q38 -22 83.5 -33t99.5 -11zM434 185q-29 0 -50.5 8t-34.5 23
q-13 14 -19.5 33.5t-6.5 43.5q0 34 11.5 65t34.5 55q22 23 54.5 37t75.5 14h1v-60v-52v-63v-75q-4 -5 -10 -10t-13 -8q-10 -5 -21.5 -8t-21.5 -3zM938 643h-195v61q0 21 1 40.5t4 36.5q4 26 13 46.5t25 32.5q11 8 26 12.5t35 4.5q24 0 41 -8t28 -23q11 -16 16.5 -39t5.5 -52
v-112z" />
    <glyph glyph-name="ccedilla" unicode="&#xe7;" 
d="M620 202q-67 0 -110.5 27t-68.5 72q-26 44 -36 102.5t-10 121.5v30q0 62 10.5 120t36.5 103q25 45 68 72t109 27q45 0 83 -15.5t65 -41.5t41 -62t12 -76h262q2 96 -32 173.5t-95 132.5q-62 54 -147 84t-185 30q-125 0 -219.5 -43t-158.5 -117t-96 -173.5t-32 -213.5v-30
q0 -114 32.5 -213.5t96.5 -173.5q63 -74 158 -116.5t221 -42.5q93 0 176.5 29.5t146.5 81.5t99.5 124t34.5 156h-262q2 -38 -13.5 -69t-43.5 -53t-65 -34t-78 -12zM727 10h-207l-31 -141q39 -3 67 -7.5t45 -14.5q17 -9 25 -23t8 -34q0 -23 -9.5 -39t-25.5 -26
q-16 -9 -37.5 -13.5t-46.5 -4.5l7 -160q85 0 149 17t108 48q43 30 65 73t22 96q0 43 -13 73.5t-34 51.5q-21 20 -48 31.5t-55 16.5z" />
    <glyph glyph-name="egrave" unicode="&#xe8;" 
d="M666 -20q157 0 272 61t168 136l-139 150q-48 -62 -125 -93t-159 -31q-58 0 -107 18t-87 51q-37 32 -59 71.5t-36 104.5v3h734v118q0 119 -33 217.5t-96 168.5q-64 70 -155.5 108.5t-208.5 38.5q-113 0 -209 -41t-166 -115t-109 -176.5t-39 -226.5v-40q0 -109 39.5 -204.5
t112.5 -165.5q73 -71 175 -112t227 -41zM633 877q53 0 93.5 -16.5t68.5 -44.5q28 -29 44 -68t16 -83v-22h-456q10 53 30 96t50 74q29 31 68 47.5t86 16.5zM714 1226l-177 279h-306l264 -279h219z" />
    <glyph glyph-name="eacute" unicode="&#xe9;" 
d="M666 -20q157 0 272 61t168 136l-139 150q-48 -62 -125 -93t-159 -31q-58 0 -107 18t-87 51q-37 32 -59 71.5t-36 104.5v3h734v118q0 119 -33 217.5t-96 168.5q-64 70 -155.5 108.5t-208.5 38.5q-113 0 -209 -41t-166 -115t-109 -176.5t-39 -226.5v-40q0 -109 39.5 -204.5
t112.5 -165.5q73 -71 175 -112t227 -41zM633 877q53 0 93.5 -16.5t68.5 -44.5q28 -29 44 -68t16 -83v-22h-456q10 53 30 96t50 74q29 31 68 47.5t86 16.5zM671 1502l-187 -279h216l277 279h-306z" />
    <glyph glyph-name="ecircumflex" unicode="&#xea;" 
d="M666 -20q157 0 272 61t168 136l-139 150q-48 -62 -125 -93t-159 -31q-58 0 -107 18t-87 51q-37 32 -59 71.5t-36 104.5v3h734v118q0 119 -33 217.5t-96 168.5q-64 70 -155.5 108.5t-208.5 38.5q-113 0 -209 -41t-166 -115t-109 -176.5t-39 -226.5v-40q0 -109 39.5 -204.5
t112.5 -165.5q73 -71 175 -112t227 -41zM633 877q53 0 93.5 -16.5t68.5 -44.5q28 -29 44 -68t16 -83v-22h-456q10 53 30 96t50 74q29 31 68 47.5t86 16.5zM976 1301l-294 243h-161l-290 -241v-30h217l153 127l154 -127h221v28z" />
    <glyph glyph-name="edieresis" unicode="&#xeb;" 
d="M666 -20q157 0 272 61t168 136l-139 150q-48 -62 -125 -93t-159 -31q-58 0 -107 18t-87 51q-37 32 -59 71.5t-36 104.5v3h734v118q0 119 -33 217.5t-96 168.5q-64 70 -155.5 108.5t-208.5 38.5q-113 0 -209 -41t-166 -115t-109 -176.5t-39 -226.5v-40q0 -109 39.5 -204.5
t112.5 -165.5q73 -71 175 -112t227 -41zM633 877q53 0 93.5 -16.5t68.5 -44.5q28 -29 44 -68t16 -83v-22h-456q10 53 30 96t50 74q29 31 68 47.5t86 16.5zM220 1393q0 -53 38.5 -88.5t97.5 -35.5t97.5 35.5t38.5 88.5q0 52 -38 88.5t-98 36.5t-98 -36.5t-38 -88.5zM700 1393
q0 -54 38 -90t98 -36t98 36t38 90q0 51 -37.5 87.5t-98.5 36.5t-98.5 -36.5t-37.5 -87.5z" />
    <glyph glyph-name="igrave" unicode="&#xec;" 
d="M199 1082v-227h324v-629h-324v-226h915v226h-310v856h-605zM780 1199l-177 279h-306l264 -279h219z" />
    <glyph glyph-name="iacute" unicode="&#xed;" 
d="M199 1082v-227h324v-629h-324v-226h915v226h-310v856h-605zM737 1476l-187 -279h216l277 279h-306z" />
    <glyph glyph-name="icircumflex" unicode="&#xee;" 
d="M199 1082v-227h324v-629h-324v-226h915v226h-310v856h-605zM1042 1274l-294 243h-161l-290 -241v-30h217l153 127l154 -127h221v28z" />
    <glyph glyph-name="idieresis" unicode="&#xef;" 
d="M199 1082v-227h324v-629h-324v-226h915v226h-310v856h-605zM285 1366q0 -53 38.5 -88.5t97.5 -35.5t97.5 35.5t38.5 88.5q0 52 -38 88.5t-98 36.5t-98 -36.5t-38 -88.5zM765 1366q0 -54 38 -90t98 -36t98 36t38 90q0 51 -37.5 87.5t-98.5 36.5t-98.5 -36.5t-37.5 -87.5z
" />
    <glyph glyph-name="eth" unicode="&#xf0;" 
d="M899 1264l177 98l-78 113l-199 -110q-65 54 -139 91.5t-158 58.5l-88 -217q35 -13 70 -30t68 -39l-211 -117l78 -112l242 133q44 -49 78 -112t55 -142q-54 42 -121.5 65t-142.5 23q-114 0 -205 -36t-154 -101q-64 -66 -98.5 -158t-34.5 -204q0 -102 37.5 -191t106.5 -155
q68 -67 164 -105t212 -38q73 0 140.5 17.5t125.5 51.5q72 40 129 104t93 147q26 60 40.5 131t14.5 149v68q0 192 -53.5 347t-148.5 270zM562 202q-59 0 -104.5 21.5t-76.5 58.5q-32 36 -48.5 84t-16.5 102q0 56 15.5 108t45.5 92q29 39 71 63t96 24q107 0 176.5 -28
t101.5 -66v-27.5v-14.5v-65q0 -47 -6.5 -89.5t-19.5 -78.5q-15 -46 -41 -81.5t-59 -60.5q-28 -20 -62 -31t-72 -11z" />
    <glyph glyph-name="ntilde" unicode="&#xf1;" 
d="M141 0h279v769q14 22 31 40t38 31q26 18 59.5 27t73.5 9q48 0 86 -9.5t65 -33.5t41.5 -65.5t14.5 -105.5v-662h278v666q0 118 -27.5 200.5t-76.5 135.5q-50 52 -118 76t-150 24q-64 0 -121 -18t-105 -52q-28 -20 -53 -45t-46 -55l-17 150h-252v-1082zM971 1539l-140 31
q0 -21 -6.5 -38.5t-17.5 -29.5q-12 -14 -29.5 -21.5t-36.5 -7.5q-38 0 -72 13.5t-67 30.5q-34 16 -69 29.5t-75 13.5q-49 0 -88.5 -22t-67.5 -57t-43.5 -79t-15.5 -88l140 -30q0 23 7 41.5t20 30.5q12 13 28 19.5t34 6.5q39 0 70 -13.5t63 -29.5q31 -17 66.5 -30.5
t83.5 -13.5q49 0 88.5 21t68.5 56q28 34 43.5 78t15.5 89z" />
    <glyph glyph-name="ograve" unicode="&#xf2;" 
d="M103 551v-21q0 -119 34 -219.5t100 -174.5q65 -74 160.5 -115.5t217.5 -41.5q121 0 216 41.5t160 115.5t99 174.5t34 219.5v21q0 118 -34 218.5t-99 174.5q-66 74 -161 116t-217 42t-216.5 -42t-159.5 -116q-66 -74 -100 -174.5t-34 -218.5zM381 530v21q0 66 13 125
t41 104t72 71t106 26q63 0 107 -26t72 -71q27 -45 40 -104t13 -125v-21q0 -68 -13 -127.5t-40 -103.5q-28 -45 -72 -71t-105 -26q-63 0 -107.5 26t-72.5 71q-28 44 -41 103.5t-13 127.5zM733 1225l-177 279h-306l264 -279h219z" />
    <glyph glyph-name="oacute" unicode="&#xf3;" 
d="M103 551v-21q0 -119 34 -219.5t100 -174.5q65 -74 160.5 -115.5t217.5 -41.5q121 0 216 41.5t160 115.5t99 174.5t34 219.5v21q0 118 -34 218.5t-99 174.5q-66 74 -161 116t-217 42t-216.5 -42t-159.5 -116q-66 -74 -100 -174.5t-34 -218.5zM381 530v21q0 66 13 125
t41 104t72 71t106 26q63 0 107 -26t72 -71q27 -45 40 -104t13 -125v-21q0 -68 -13 -127.5t-40 -103.5q-28 -45 -72 -71t-105 -26q-63 0 -107.5 26t-72.5 71q-28 44 -41 103.5t-13 127.5zM690 1501l-187 -279h216l277 279h-306z" />
    <glyph glyph-name="ocircumflex" unicode="&#xf4;" 
d="M103 551v-21q0 -119 34 -219.5t100 -174.5q65 -74 160.5 -115.5t217.5 -41.5q121 0 216 41.5t160 115.5t99 174.5t34 219.5v21q0 118 -34 218.5t-99 174.5q-66 74 -161 116t-217 42t-216.5 -42t-159.5 -116q-66 -74 -100 -174.5t-34 -218.5zM381 530v21q0 66 13 125
t41 104t72 71t106 26q63 0 107 -26t72 -71q27 -45 40 -104t13 -125v-21q0 -68 -13 -127.5t-40 -103.5q-28 -45 -72 -71t-105 -26q-63 0 -107.5 26t-72.5 71q-28 44 -41 103.5t-13 127.5zM995 1300l-294 243h-161l-290 -241v-30h217l153 127l154 -127h221v28z" />
    <glyph glyph-name="otilde" unicode="&#xf5;" 
d="M103 551v-21q0 -119 34 -219.5t100 -174.5q65 -74 160.5 -115.5t217.5 -41.5q121 0 216 41.5t160 115.5t99 174.5t34 219.5v21q0 118 -34 218.5t-99 174.5q-66 74 -161 116t-217 42t-216.5 -42t-159.5 -116q-66 -74 -100 -174.5t-34 -218.5zM381 530v21q0 66 13 125
t41 104t72 71t106 26q63 0 107 -26t72 -71q27 -45 40 -104t13 -125v-21q0 -68 -13 -127.5t-40 -103.5q-28 -45 -72 -71t-105 -26q-63 0 -107.5 26t-72.5 71q-28 44 -41 103.5t-13 127.5zM984 1539l-140 31q0 -21 -6.5 -38.5t-17.5 -29.5q-12 -14 -29.5 -21.5t-36.5 -7.5
q-38 0 -72 13.5t-67 30.5q-34 16 -69 29.5t-75 13.5q-49 0 -88.5 -22t-67.5 -57t-43.5 -79t-15.5 -88l140 -30q0 23 7 41.5t20 30.5q12 13 28 19.5t34 6.5q39 0 70 -13.5t63 -29.5q31 -17 66.5 -30.5t83.5 -13.5q49 0 88.5 21t68.5 56q28 34 43.5 78t15.5 89z" />
    <glyph glyph-name="odieresis" unicode="&#xf6;" 
d="M103 551v-21q0 -119 34 -219.5t100 -174.5q65 -74 160.5 -115.5t217.5 -41.5q121 0 216 41.5t160 115.5t99 174.5t34 219.5v21q0 118 -34 218.5t-99 174.5q-66 74 -161 116t-217 42t-216.5 -42t-159.5 -116q-66 -74 -100 -174.5t-34 -218.5zM381 530v21q0 66 13 125
t41 104t72 71t106 26q63 0 107 -26t72 -71q27 -45 40 -104t13 -125v-21q0 -68 -13 -127.5t-40 -103.5q-28 -45 -72 -71t-105 -26q-63 0 -107.5 26t-72.5 71q-28 44 -41 103.5t-13 127.5zM239 1392q0 -53 38.5 -88.5t97.5 -35.5t97.5 35.5t38.5 88.5q0 52 -38 88.5t-98 36.5
t-98 -36.5t-38 -88.5zM719 1392q0 -54 38 -90t98 -36t98 36t38 90q0 51 -37.5 87.5t-98.5 36.5t-98.5 -36.5t-37.5 -87.5z" />
    <glyph glyph-name="divide" unicode="&#xf7;" 
d="M1132 573v227h-1024v-227h1024zM465 1089q0 -61 41 -101t111 -40q71 0 112 40t41 101t-41 101t-112 40q-70 0 -111 -40t-41 -101zM463 278q0 -61 41 -101t111 -40q71 0 112 40t41 101t-41 101.5t-112 40.5q-70 0 -111 -41t-41 -101z" />
    <glyph glyph-name="oslash" unicode="&#xf8;" 
d="M103 551v-21q0 -150 54 -270.5t157 -192.5l-102 -208h157l71 146q41 -13 84.5 -19.5t90.5 -6.5q121 0 216 41.5t160 115.5t99 174.5t34 219.5v21q0 82 -16 155.5t-48 135.5q-24 47 -57 87.5t-75 72.5l104 213h-157l-71 -145q-43 16 -91 24t-100 8q-122 0 -216.5 -42
t-159.5 -116q-66 -74 -100 -174.5t-34 -218.5zM381 530v21q0 66 13 125t41 104t72 71t106 26q25 0 47 -4t41 -13l-271 -555q-26 44 -37.5 101.5t-11.5 123.5zM845 551v-21q0 -68 -13 -127.5t-40 -103.5q-28 -45 -72 -71t-105 -26q-19 0 -37 3t-36 8l264 540q9 -19 16 -41
t12 -45q6 -27 8.5 -56t2.5 -60z" />
    <glyph glyph-name="ugrave" unicode="&#xf9;" 
d="M847 0h252v1082h-279v-759q-13 -26 -31 -47t-41 -36q-27 -17 -62.5 -26t-79.5 -9q-49 0 -83 12t-55 40q-21 27 -30.5 72t-9.5 111v642h-278v-640q0 -123 27.5 -210.5t77.5 -143.5q50 -57 120 -83t154 -26q92 0 169.5 46t132.5 127zM735 1204l-177 279h-306l264 -279h219z
" />
    <glyph glyph-name="uacute" unicode="&#xfa;" 
d="M847 0h252v1082h-279v-759q-13 -26 -31 -47t-41 -36q-27 -17 -62.5 -26t-79.5 -9q-49 0 -83 12t-55 40q-21 27 -30.5 72t-9.5 111v642h-278v-640q0 -123 27.5 -210.5t77.5 -143.5q50 -57 120 -83t154 -26q92 0 169.5 46t132.5 127zM692 1480l-187 -279h216l277 279h-306z
" />
    <glyph glyph-name="ucircumflex" unicode="&#xfb;" 
d="M847 0h252v1082h-279v-759q-13 -26 -31 -47t-41 -36q-27 -17 -62.5 -26t-79.5 -9q-49 0 -83 12t-55 40q-21 27 -30.5 72t-9.5 111v642h-278v-640q0 -123 27.5 -210.5t77.5 -143.5q50 -57 120 -83t154 -26q92 0 169.5 46t132.5 127zM997 1279l-294 243h-161l-290 -241v-30
h217l153 127l154 -127h221v28z" />
    <glyph glyph-name="udieresis" unicode="&#xfc;" 
d="M847 0h252v1082h-279v-759q-13 -26 -31 -47t-41 -36q-27 -17 -62.5 -26t-79.5 -9q-49 0 -83 12t-55 40q-21 27 -30.5 72t-9.5 111v642h-278v-640q0 -123 27.5 -210.5t77.5 -143.5q50 -57 120 -83t154 -26q92 0 169.5 46t132.5 127zM241 1371q0 -53 38.5 -88.5t97.5 -35.5
t97.5 35.5t38.5 88.5q0 52 -38 88.5t-98 36.5t-98 -36.5t-38 -88.5zM721 1371q0 -54 38 -90t98 -36t98 36t38 90q0 51 -37.5 87.5t-98.5 36.5t-98.5 -36.5t-37.5 -87.5z" />
    <glyph glyph-name="yacute" unicode="&#xfd;" 
d="M312 -437q84 0 145.5 28t104.5 69t71.5 89t46.5 89l549 1244h-307l-247 -636l-41 -108l-30 110l-248 634h-304l458 -1036l-64 -119q-12 -22 -20.5 -34t-26.5 -36t-43.5 -44.5t-58.5 -20.5q-16 0 -42.5 1.5t-43.5 1.5l-34 -212q36 -10 65.5 -15t69.5 -5zM716 1480
l-187 -279h216l277 279h-306z" />
    <glyph glyph-name="thorn" unicode="&#xfe;" 
d="M1113 531v21q0 123 -27.5 224.5t-80.5 174.5q-54 72 -133 111.5t-182 39.5q-48 0 -89 -9t-76 -27q-29 -14 -54.5 -34t-47.5 -45v556h-278v-1959h278v511q17 -19 35.5 -35t38.5 -29q40 -25 88.5 -38t106.5 -13q102 0 180.5 42t132.5 116q53 73 80.5 174t27.5 219zM835 552
v-21q0 -67 -11.5 -126.5t-37.5 -104.5t-67.5 -71t-100.5 -26q-37 0 -67.5 8t-54.5 22q-24 15 -42 36t-31 47v450q15 30 36.5 52.5t50.5 36.5q21 10 48 15.5t58 5.5q58 0 100 -25t68 -68q26 -44 38.5 -103.5t12.5 -127.5z" />
    <glyph glyph-name="ydieresis" unicode="&#xff;" 
d="M312 -437q84 0 145.5 28t104.5 69t71.5 89t46.5 89l549 1244h-307l-247 -636l-41 -108l-30 110l-248 634h-304l458 -1036l-64 -119q-12 -22 -20.5 -34t-26.5 -36t-43.5 -44.5t-58.5 -20.5q-16 0 -42.5 1.5t-43.5 1.5l-34 -212q36 -10 65.5 -15t69.5 -5zM265 1371
q0 -53 38.5 -88.5t97.5 -35.5t97.5 35.5t38.5 88.5q0 52 -38 88.5t-98 36.5t-98 -36.5t-38 -88.5zM745 1371q0 -54 38 -90t98 -36t98 36t38 90q0 51 -37.5 87.5t-98.5 36.5t-98.5 -36.5t-37.5 -87.5z" />
    <glyph glyph-name="Amacron" unicode="&#x100;" 
d="M847 304l85 -304h296l-468 1456h-255l-477 -1456h296l86 304h437zM479 543l153 536l149 -536h-302zM1001 1614v164h-730v-164h730z" />
    <glyph glyph-name="amacron" unicode="&#x101;" 
d="M817 0h282v17q-21 41 -32 98t-11 144v464q0 94 -35 165.5t-97 118.5t-146.5 71t-182.5 24q-109 0 -193.5 -27.5t-142.5 -74.5q-59 -47 -89.5 -109t-30.5 -131h278q0 29 8.5 53t26.5 41q20 19 52 29.5t76 10.5q50 0 87.5 -12.5t62.5 -35.5q24 -22 36 -52.5t12 -68.5v-64
h-155q-120 0 -212.5 -21.5t-155.5 -62.5q-70 -45 -105 -114.5t-35 -159.5q0 -70 28 -129.5t78 -102.5t119.5 -67t152.5 -24q51 0 95 9.5t81 26.5q36 16 66 38t53 47q5 -29 12 -55t17 -46zM552 195q-39 0 -68.5 9.5t-49.5 25.5q-20 17 -30.5 41.5t-10.5 53.5q0 37 14 68.5
t43 54.5q29 22 75 34.5t111 12.5h142v-186q-12 -21 -33 -41.5t-50 -36.5t-65 -26t-78 -10zM964 1292v164h-730v-164h730z" />
    <glyph glyph-name="Abreve" unicode="&#x102;" 
d="M847 304l85 -304h296l-468 1456h-255l-477 -1456h296l86 304h437zM479 543l153 536l149 -536h-302zM974 1857h-201q0 -26 -7.5 -50.5t-23.5 -42.5q-17 -19 -43.5 -30t-64.5 -11q-39 0 -65.5 11t-43.5 30q-17 18 -24.5 42.5t-7.5 50.5h-200q0 -65 23.5 -119t68.5 -92
q44 -39 107 -60.5t142 -21.5q78 0 141 21.5t108 60.5q44 38 67.5 92t23.5 119z" />
    <glyph glyph-name="abreve" unicode="&#x103;" 
d="M817 0h282v17q-21 41 -32 98t-11 144v464q0 94 -35 165.5t-97 118.5t-146.5 71t-182.5 24q-109 0 -193.5 -27.5t-142.5 -74.5q-59 -47 -89.5 -109t-30.5 -131h278q0 29 8.5 53t26.5 41q20 19 52 29.5t76 10.5q50 0 87.5 -12.5t62.5 -35.5q24 -22 36 -52.5t12 -68.5v-64
h-155q-120 0 -212.5 -21.5t-155.5 -62.5q-70 -45 -105 -114.5t-35 -159.5q0 -70 28 -129.5t78 -102.5t119.5 -67t152.5 -24q51 0 95 9.5t81 26.5q36 16 66 38t53 47q5 -29 12 -55t17 -46zM552 195q-39 0 -68.5 9.5t-49.5 25.5q-20 17 -30.5 41.5t-10.5 53.5q0 37 14 68.5
t43 54.5q29 22 75 34.5t111 12.5h142v-186q-12 -21 -33 -41.5t-50 -36.5t-65 -26t-78 -10zM938 1535h-201q0 -26 -7.5 -50.5t-23.5 -42.5q-17 -19 -43.5 -30t-64.5 -11q-39 0 -65.5 11t-43.5 30q-17 18 -24.5 42.5t-7.5 50.5h-200q0 -65 23.5 -119t68.5 -92
q44 -39 107 -60.5t142 -21.5q78 0 141 21.5t108 60.5q44 38 67.5 92t23.5 119z" />
    <glyph glyph-name="Aogonek" unicode="&#x104;" 
d="M760 1456h-255l-477 -1456h296l86 304h437l81 -290q-31 -22 -55.5 -47.5t-40.5 -52.5q-20 -31 -30 -64.5t-10 -66.5q0 -51 17.5 -89.5t47.5 -64.5t70.5 -39.5t86.5 -13.5q69 0 113.5 14.5t72.5 29.5l-47 154q-14 -6 -34 -13t-49 -7q-37 0 -52 19.5t-15 48.5
q0 27 7.5 51.5t25.5 46.5t48 42t75 38h69zM479 543l153 536l149 -536h-302z" />
    <glyph glyph-name="aogonek" unicode="&#x105;" 
d="M812 10q-29 -21 -51.5 -45t-38.5 -49q-20 -32 -30.5 -65.5t-10.5 -67.5q0 -51 17.5 -89.5t47.5 -64.5t70.5 -39.5t86.5 -13.5q69 0 113.5 14.5t72.5 29.5l-47 154q-14 -6 -34 -13t-49 -7q-37 0 -52 19.5t-15 48.5q0 27 7.5 51.5t25.5 46.5t48 42t75 38h51v17
q-21 41 -32 98t-11 144v464q0 94 -35 165.5t-97 118.5t-146.5 71t-182.5 24q-109 0 -193.5 -27.5t-142.5 -74.5q-59 -47 -89.5 -109t-30.5 -131h278q0 33 11.5 59.5t34.5 44.5q20 14 49 22t68 8q53 0 92.5 -14.5t64.5 -40.5q20 -21 30.5 -50t10.5 -64v-64h-155
q-113 0 -202 -19t-152 -56q-76 -45 -115 -117t-39 -166q0 -70 28 -129.5t78 -102.5t119.5 -67t152.5 -24q51 0 95 9.5t81 26.5q36 16 66 38t53 47q5 -26 10.5 -49t13.5 -42zM552 195q-44 0 -75.5 11.5t-51.5 31.5q-16 17 -24 39.5t-8 47.5q0 37 14 68.5t43 54.5
q29 22 75 34.5t111 12.5h142v-186q-12 -21 -33 -41.5t-50 -36.5t-65 -26t-78 -10z" />
    <glyph glyph-name="Cacute" unicode="&#x106;" 
d="M1142 456h-281q-4 -66 -22 -113t-49 -77t-75 -44t-99 -14q-41 0 -74.5 9.5t-60.5 29.5q-25 18 -44.5 45t-33.5 62q-20 51 -29.5 119.5t-9.5 155.5v198q0 64 6 119.5t19 101.5q17 59 45.5 103.5t69.5 68.5q24 14 52.5 21t61.5 7q62 0 106.5 -16.5t74.5 -48.5
q29 -33 44.5 -82t19.5 -114h280q-10 114 -48 205t-104 154t-159.5 97t-213.5 34q-81 0 -151.5 -20.5t-129.5 -58.5q-66 -45 -118 -110t-84 -148q-28 -68 -42 -147.5t-14 -167.5v-196q0 -94 15.5 -178t44.5 -154q30 -70 73.5 -128t99.5 -99q61 -44 137.5 -67.5t166.5 -23.5
q114 0 208 33.5t162 95.5t108.5 150t47.5 198zM753 1822l-187 -279h216l277 279h-306z" />
    <glyph glyph-name="cacute" unicode="&#x107;" 
d="M620 202q-67 0 -110.5 27t-68.5 72q-26 44 -36 102.5t-10 121.5v30q0 62 10.5 120t36.5 103q25 45 68 72t109 27q45 0 83 -15.5t65 -41.5t41 -62t12 -76h262q2 96 -32 173.5t-95 132.5q-62 54 -147 84t-185 30q-125 0 -219.5 -43t-158.5 -117t-96 -173.5t-32 -213.5v-30
q0 -114 32.5 -213.5t96.5 -173.5q63 -74 158 -116.5t221 -42.5q93 0 176.5 29.5t146.5 81.5t99.5 124t34.5 156h-262q2 -38 -13.5 -69t-43.5 -53t-65 -34t-78 -12zM698 1501l-187 -279h216l277 279h-306z" />
    <glyph glyph-name="Ccircumflex" unicode="&#x108;" 
d="M1142 456h-281q-4 -66 -22 -113t-49 -77t-75 -44t-99 -14q-41 0 -74.5 9.5t-60.5 29.5q-25 18 -44.5 45t-33.5 62q-20 51 -29.5 119.5t-9.5 155.5v198q0 64 6 119.5t19 101.5q17 59 45.5 103.5t69.5 68.5q24 14 52.5 21t61.5 7q62 0 106.5 -16.5t74.5 -48.5
q29 -33 44.5 -82t19.5 -114h280q-10 114 -48 205t-104 154t-159.5 97t-213.5 34q-81 0 -151.5 -20.5t-129.5 -58.5q-66 -45 -118 -110t-84 -148q-28 -68 -42 -147.5t-14 -167.5v-196q0 -94 15.5 -178t44.5 -154q30 -70 73.5 -128t99.5 -99q61 -44 137.5 -67.5t166.5 -23.5
q114 0 208 33.5t162 95.5t108.5 150t47.5 198zM1058 1621l-294 243h-161l-290 -241v-30h217l153 127l154 -127h221v28z" />
    <glyph glyph-name="ccircumflex" unicode="&#x109;" 
d="M620 202q-67 0 -110.5 27t-68.5 72q-26 44 -36 102.5t-10 121.5v30q0 62 10.5 120t36.5 103q25 45 68 72t109 27q45 0 83 -15.5t65 -41.5t41 -62t12 -76h262q2 96 -32 173.5t-95 132.5q-62 54 -147 84t-185 30q-125 0 -219.5 -43t-158.5 -117t-96 -173.5t-32 -213.5v-30
q0 -114 32.5 -213.5t96.5 -173.5q63 -74 158 -116.5t221 -42.5q93 0 176.5 29.5t146.5 81.5t99.5 124t34.5 156h-262q2 -38 -13.5 -69t-43.5 -53t-65 -34t-78 -12zM1003 1300l-294 243h-161l-290 -241v-30h217l153 127l154 -127h221v28z" />
    <glyph glyph-name="uni010A" unicode="&#x10a;" 
d="M1142 456h-281q-4 -66 -22 -113t-49 -77t-75 -44t-99 -14q-41 0 -74.5 9.5t-60.5 29.5q-25 18 -44.5 45t-33.5 62q-20 51 -29.5 119.5t-9.5 155.5v198q0 64 6 119.5t19 101.5q17 59 45.5 103.5t69.5 68.5q24 14 52.5 21t61.5 7q62 0 106.5 -16.5t74.5 -48.5
q29 -33 44.5 -82t19.5 -114h280q-10 114 -48 205t-104 154t-159.5 97t-213.5 34q-81 0 -151.5 -20.5t-129.5 -58.5q-66 -45 -118 -110t-84 -148q-28 -68 -42 -147.5t-14 -167.5v-196q0 -94 15.5 -178t44.5 -154q30 -70 73.5 -128t99.5 -99q61 -44 137.5 -67.5t166.5 -23.5
q114 0 208 33.5t162 95.5t108.5 150t47.5 198zM531 1727q0 -60 40 -99.5t110 -39.5t110 39.5t40 99.5q0 61 -40 100.5t-110 39.5t-110 -39.5t-40 -100.5z" />
    <glyph glyph-name="uni010B" unicode="&#x10b;" 
d="M620 202q-67 0 -110.5 27t-68.5 72q-26 44 -36 102.5t-10 121.5v30q0 62 10.5 120t36.5 103q25 45 68 72t109 27q45 0 83 -15.5t65 -41.5t41 -62t12 -76h262q2 96 -32 173.5t-95 132.5q-62 54 -147 84t-185 30q-125 0 -219.5 -43t-158.5 -117t-96 -173.5t-32 -213.5v-30
q0 -114 32.5 -213.5t96.5 -173.5q63 -74 158 -116.5t221 -42.5q93 0 176.5 29.5t146.5 81.5t99.5 124t34.5 156h-262q2 -38 -13.5 -69t-43.5 -53t-65 -34t-78 -12zM476 1406q0 -60 40 -99.5t110 -39.5t110 39.5t40 99.5q0 61 -40 100.5t-110 39.5t-110 -39.5t-40 -100.5z
" />
    <glyph glyph-name="Ccaron" unicode="&#x10c;" 
d="M1142 456h-281q-4 -66 -22 -113t-49 -77t-75 -44t-99 -14q-41 0 -74.5 9.5t-60.5 29.5q-25 18 -44.5 45t-33.5 62q-20 51 -29.5 119.5t-9.5 155.5v198q0 64 6 119.5t19 101.5q17 59 45.5 103.5t69.5 68.5q24 14 52.5 21t61.5 7q62 0 106.5 -16.5t74.5 -48.5
q29 -33 44.5 -82t19.5 -114h280q-10 114 -48 205t-104 154t-159.5 97t-213.5 34q-81 0 -151.5 -20.5t-129.5 -58.5q-66 -45 -118 -110t-84 -148q-28 -68 -42 -147.5t-14 -167.5v-196q0 -94 15.5 -178t44.5 -154q30 -70 73.5 -128t99.5 -99q61 -44 137.5 -67.5t166.5 -23.5
q114 0 208 33.5t162 95.5t108.5 150t47.5 198zM682 1739l-146 126h-237v-20l296 -252h175l296 253v19h-237z" />
    <glyph glyph-name="ccaron" unicode="&#x10d;" 
d="M620 202q-67 0 -110.5 27t-68.5 72q-26 44 -36 102.5t-10 121.5v30q0 62 10.5 120t36.5 103q25 45 68 72t109 27q45 0 83 -15.5t65 -41.5t41 -62t12 -76h262q2 96 -32 173.5t-95 132.5q-62 54 -147 84t-185 30q-125 0 -219.5 -43t-158.5 -117t-96 -173.5t-32 -213.5v-30
q0 -114 32.5 -213.5t96.5 -173.5q63 -74 158 -116.5t221 -42.5q93 0 176.5 29.5t146.5 81.5t99.5 124t34.5 156h-262q2 -38 -13.5 -69t-43.5 -53t-65 -34t-78 -12zM628 1418l-146 126h-237v-20l296 -252h175l296 253v19h-237z" />
    <glyph glyph-name="Dcaron" unicode="&#x10e;" 
d="M125 0h391q97 0 182.5 24t156.5 69q61 38 112 94.5t89 123.5q40 75 62 165t22 191v120q0 105 -23.5 198t-66.5 170q-37 63 -86.5 116.5t-112.5 90.5q-72 45 -160 69.5t-189 24.5h-377v-1456zM408 1228h94q51 0 94.5 -11.5t79.5 -32.5q47 -28 82.5 -72t57.5 -100
q18 -47 27.5 -103.5t9.5 -119.5v-122q0 -67 -9.5 -124.5t-27.5 -104.5q-22 -54 -52.5 -94.5t-68.5 -66.5q-37 -25 -82 -38t-97 -13h-108v1002zM538 1731l-146 126h-237v-20l296 -252h175l296 253v19h-237z" />
    <glyph glyph-name="dcaron" unicode="&#x10f;" 
d="M40 549v-21q0 -118 29 -218.5t84 -173.5q54 -73 132.5 -114.5t177.5 -41.5q91 0 160 35t120 98l14 -113h251v1536h-279v-551q-50 56 -114.5 86.5t-149.5 30.5q-101 0 -179.5 -40t-133.5 -113t-83.5 -175t-28.5 -225zM318 528v21q0 68 12 127.5t38 104.5q26 44 67.5 69.5
t100.5 25.5q71 0 118 -30.5t75 -85.5v-438q-28 -54 -75.5 -85t-119.5 -31q-59 0 -100 25t-67 69q-26 43 -37.5 101.5t-11.5 126.5zM1402 1387v173h-223v-173q0 -97 -24.5 -172t-62.5 -140l127 -79q39 35 72 81.5t58 98.5q25 51 39 105.5t14 105.5z" />
    <glyph glyph-name="Dcroat" unicode="&#x110;" 
d="M140 0h391q139 0 254 49t197 138q82 88 127.5 210.5t45.5 269.5v120q0 147 -45.5 270t-128.5 212q-84 88 -201.5 137.5t-262.5 49.5h-377v-633h-182v-180h182v-643zM650 643v180h-227v405h94q86 0 151.5 -32t110.5 -90q44 -58 66.5 -138.5t22.5 -178.5v-122
q0 -104 -23 -185.5t-66 -138.5q-44 -57 -106.5 -87t-141.5 -30h-108v417h227z" />
    <glyph glyph-name="dcroat" unicode="&#x111;" 
d="M1234 1220v180h-169v136h-279v-136h-244v-180h244v-235q-17 19 -35.5 35t-37.5 29q-40 26 -87.5 39.5t-103.5 13.5q-101 0 -179.5 -40t-133.5 -113t-83.5 -175t-28.5 -225v-21q0 -118 29 -218.5t84 -173.5q54 -73 132.5 -114.5t177.5 -41.5q55 0 101.5 13t85.5 37
q26 16 49.5 37t43.5 46l14 -113h251v1220h169zM375 528v21q0 68 12 127.5t38 104.5q26 44 67.5 69.5t100.5 25.5q33 0 61 -7t50 -19q27 -15 47 -38t35 -52v-438q-14 -26 -32 -47.5t-41 -36.5q-24 -15 -54.5 -23.5t-67.5 -8.5q-59 0 -100 25t-67 69q-26 43 -37.5 101.5
t-11.5 126.5z" />
    <glyph glyph-name="Emacron" unicode="&#x112;" 
d="M1027 638v222h-598v367h696v229h-978v-1456h981v227h-699v411h598zM1009 1605v164h-730v-164h730z" />
    <glyph glyph-name="emacron" unicode="&#x113;" 
d="M666 -20q157 0 272 61t168 136l-139 150q-48 -62 -125 -93t-159 -31q-58 0 -107 18t-87 51q-37 32 -59 71.5t-36 104.5v3h734v118q0 119 -33 217.5t-96 168.5q-64 70 -155.5 108.5t-208.5 38.5q-113 0 -209 -41t-166 -115t-109 -176.5t-39 -226.5v-40q0 -109 39.5 -204.5
t112.5 -165.5q73 -71 175 -112t227 -41zM633 877q53 0 93.5 -16.5t68.5 -44.5q28 -29 44 -68t16 -83v-22h-456q10 53 30 96t50 74q29 31 68 47.5t86 16.5zM969 1293v164h-730v-164h730z" />
    <glyph glyph-name="Ebreve" unicode="&#x114;" 
d="M1027 638v222h-598v367h696v229h-978v-1456h981v227h-699v411h598zM983 1848h-201q0 -26 -7.5 -50.5t-23.5 -42.5q-17 -19 -43.5 -30t-64.5 -11q-39 0 -65.5 11t-43.5 30q-17 18 -24.5 42.5t-7.5 50.5h-200q0 -65 23.5 -119t68.5 -92q44 -39 107 -60.5t142 -21.5
q78 0 141 21.5t108 60.5q44 38 67.5 92t23.5 119z" />
    <glyph glyph-name="ebreve" unicode="&#x115;" 
d="M666 -20q157 0 272 61t168 136l-139 150q-48 -62 -125 -93t-159 -31q-58 0 -107 18t-87 51q-37 32 -59 71.5t-36 104.5v3h734v118q0 119 -33 217.5t-96 168.5q-64 70 -155.5 108.5t-208.5 38.5q-113 0 -209 -41t-166 -115t-109 -176.5t-39 -226.5v-40q0 -109 39.5 -204.5
t112.5 -165.5q73 -71 175 -112t227 -41zM633 877q53 0 93.5 -16.5t68.5 -44.5q28 -29 44 -68t16 -83v-22h-456q10 53 30 96t50 74q29 31 68 47.5t86 16.5zM943 1536h-201q0 -26 -7.5 -50.5t-23.5 -42.5q-17 -19 -43.5 -30t-64.5 -11q-39 0 -65.5 11t-43.5 30
q-17 18 -24.5 42.5t-7.5 50.5h-200q0 -65 23.5 -119t68.5 -92q44 -39 107 -60.5t142 -21.5q78 0 141 21.5t108 60.5q44 38 67.5 92t23.5 119z" />
    <glyph glyph-name="Edotaccent" unicode="&#x116;" 
d="M1027 638v222h-598v367h696v229h-978v-1456h981v227h-699v411h598zM490 1719q0 -60 40 -99.5t110 -39.5t110 39.5t40 99.5q0 61 -40 100.5t-110 39.5t-110 -39.5t-40 -100.5z" />
    <glyph glyph-name="edotaccent" unicode="&#x117;" 
d="M666 -20q157 0 272 61t168 136l-139 150q-48 -62 -125 -93t-159 -31q-58 0 -107 18t-87 51q-37 32 -59 71.5t-36 104.5v3h734v118q0 119 -33 217.5t-96 168.5q-64 70 -155.5 108.5t-208.5 38.5q-113 0 -209 -41t-166 -115t-109 -176.5t-39 -226.5v-40q0 -109 39.5 -204.5
t112.5 -165.5q73 -71 175 -112t227 -41zM633 877q53 0 93.5 -16.5t68.5 -44.5q28 -29 44 -68t16 -83v-22h-456q10 53 30 96t50 74q29 31 68 47.5t86 16.5zM450 1407q0 -60 40 -99.5t110 -39.5t110 39.5t40 99.5q0 61 -40 100.5t-110 39.5t-110 -39.5t-40 -100.5z" />
    <glyph glyph-name="Eogonek" unicode="&#x118;" 
d="M1027 638v222h-598v367h696v229h-978v-1456h606q-24 -20 -43.5 -42t-34.5 -45q-19 -31 -29 -64t-10 -66q0 -51 17.5 -89.5t47.5 -64.5t70.5 -39.5t86.5 -13.5q69 0 113.5 14.5t72.5 29.5l-47 154q-14 -6 -34 -13t-49 -7q-37 0 -52 19.5t-15 48.5q0 27 7.5 51.5t25.5 46.5
t48 42t75 38h125v227h-699v411h598z" />
    <glyph glyph-name="eogonek" unicode="&#x119;" 
d="M112 503q0 -102 35 -192.5t100 -159.5q64 -70 155.5 -114t197.5 -54q5 -1 7 -1.5t5 -0.5q-43 -38 -62 -85t-19 -90q0 -51 17.5 -89.5t47.5 -64.5t70.5 -39.5t86.5 -13.5q69 0 113.5 14.5t72.5 29.5l-47 154q-14 -6 -34 -13t-49 -7q-37 0 -52 19.5t-15 48.5q0 27 7.5 51.5
t25.5 46.5t46.5 42.5t73.5 36.5q73 27 126.5 69t84.5 86l-139 150q-48 -62 -125 -93t-159 -31q-58 0 -107 18t-87 51t-62.5 78t-32.5 96l-1 5h735v118q0 119 -33 217.5t-96 168.5q-64 70 -155.5 108.5t-208.5 38.5q-113 0 -209 -41t-166 -115t-109 -176.5t-39 -226.5v-40z
M633 877q53 0 93.5 -16.5t68.5 -44.5q28 -29 43 -68t17 -83v-22h-456q10 53 30 96t50 74q29 31 68 47.5t86 16.5z" />
    <glyph glyph-name="Ecaron" unicode="&#x11a;" 
d="M1027 638v222h-598v367h696v229h-978v-1456h981v227h-699v411h598zM641 1731l-146 126h-237v-20l296 -252h175l296 253v19h-237z" />
    <glyph glyph-name="ecaron" unicode="&#x11b;" 
d="M666 -20q157 0 272 61t168 136l-139 150q-48 -62 -125 -93t-159 -31q-58 0 -107 18t-87 51q-37 32 -59 71.5t-36 104.5v3h734v118q0 119 -33 217.5t-96 168.5q-64 70 -155.5 108.5t-208.5 38.5q-113 0 -209 -41t-166 -115t-109 -176.5t-39 -226.5v-40q0 -109 39.5 -204.5
t112.5 -165.5q73 -71 175 -112t227 -41zM633 877q53 0 93.5 -16.5t68.5 -44.5q28 -29 44 -68t16 -83v-22h-456q10 53 30 96t50 74q29 31 68 47.5t86 16.5zM601 1419l-146 126h-237v-20l296 -252h175l296 253v19h-237z" />
    <glyph glyph-name="Gcircumflex" unicode="&#x11c;" 
d="M1132 170l-1 574h-521v-210h241l-1 -264q-11 -13 -32.5 -24.5t-49.5 -20.5t-60 -14t-65 -5q-54 1 -96.5 17.5t-74.5 48.5q-19 19 -34.5 43.5t-27.5 53.5q-19 50 -29.5 115t-10.5 144v200q0 63 7.5 117t21.5 98q18 57 45.5 99t61.5 68q26 19 56 29t62 10q59 0 101.5 -15.5
t70.5 -46.5q25 -28 39.5 -69t21.5 -94h274q-11 105 -46.5 189t-98.5 143q-63 58 -154.5 89t-214.5 31q-80 0 -152 -22t-133 -65q-52 -38 -95.5 -90t-76.5 -117q-35 -73 -54 -162.5t-19 -193.5v-198q0 -109 19.5 -202t57.5 -167q33 -67 80.5 -119t105.5 -88
q59 -35 129.5 -53.5t150.5 -18.5q92 0 172 17t145 45q64 27 111 61t74 67zM1029 1621l-294 243h-161l-290 -241v-30h217l153 127l154 -127h221v28z" />
    <glyph glyph-name="gcircumflex" unicode="&#x11d;" 
d="M113 549v-21q0 -118 30.5 -218.5t87.5 -173.5t137.5 -114.5t181.5 -41.5q51 0 95.5 11t81.5 31q25 14 47 32t42 40v-62q0 -55 -15.5 -99t-44.5 -74q-32 -33 -79.5 -50t-108.5 -17q-38 0 -73.5 7.5t-68.5 22.5q-34 15 -65 38.5t-58 54.5l-125 -169q35 -45 84 -77.5
t104 -53.5t111 -31t105 -10q114 0 208.5 30.5t162.5 89.5q67 59 104.5 145t37.5 196v1047h-253l-11 -103q-20 25 -44 45.5t-52 35.5q-37 21 -82.5 31.5t-100.5 10.5q-102 0 -183 -40t-138 -113t-87.5 -175t-30.5 -225zM392 528v21q0 68 14 127.5t43 104.5q28 44 71 69.5
t102 25.5q32 0 59.5 -6t50.5 -17q27 -13 48 -34t36 -49v-458q-14 -25 -33 -45t-44 -34q-24 -13 -53.5 -20t-65.5 -7q-59 0 -102 25t-71 69q-28 43 -41.5 101.5t-13.5 126.5zM974 1300l-294 243h-161l-290 -241v-30h217l153 127l154 -127h221v28z" />
    <glyph glyph-name="Gbreve" unicode="&#x11e;" 
d="M1132 170l-1 574h-521v-210h241l-1 -264q-11 -13 -32.5 -24.5t-49.5 -20.5t-60 -14t-65 -5q-54 1 -96.5 17.5t-74.5 48.5q-19 19 -34.5 43.5t-27.5 53.5q-19 50 -29.5 115t-10.5 144v200q0 63 7.5 117t21.5 98q18 57 45.5 99t61.5 68q26 19 56 29t62 10q59 0 101.5 -15.5
t70.5 -46.5q25 -28 39.5 -69t21.5 -94h274q-11 105 -46.5 189t-98.5 143q-63 58 -154.5 89t-214.5 31q-80 0 -152 -22t-133 -65q-52 -38 -95.5 -90t-76.5 -117q-35 -73 -54 -162.5t-19 -193.5v-198q0 -109 19.5 -202t57.5 -167q33 -67 80.5 -119t105.5 -88
q59 -35 129.5 -53.5t150.5 -18.5q92 0 172 17t145 45q64 27 111 61t74 67zM995 1856h-201q0 -26 -7.5 -50.5t-23.5 -42.5q-17 -19 -43.5 -30t-64.5 -11q-39 0 -65.5 11t-43.5 30q-17 18 -24.5 42.5t-7.5 50.5h-200q0 -65 23.5 -119t68.5 -92q44 -39 107 -60.5t142 -21.5
q78 0 141 21.5t108 60.5q44 38 67.5 92t23.5 119z" />
    <glyph glyph-name="gbreve" unicode="&#x11f;" 
d="M113 549v-21q0 -118 30.5 -218.5t87.5 -173.5t137.5 -114.5t181.5 -41.5q51 0 95.5 11t81.5 31q25 14 47 32t42 40v-62q0 -55 -15.5 -99t-44.5 -74q-32 -33 -79.5 -50t-108.5 -17q-38 0 -73.5 7.5t-68.5 22.5q-34 15 -65 38.5t-58 54.5l-125 -169q35 -45 84 -77.5
t104 -53.5t111 -31t105 -10q114 0 208.5 30.5t162.5 89.5q67 59 104.5 145t37.5 196v1047h-253l-11 -103q-20 25 -44 45.5t-52 35.5q-37 21 -82.5 31.5t-100.5 10.5q-102 0 -183 -40t-138 -113t-87.5 -175t-30.5 -225zM392 528v21q0 68 14 127.5t43 104.5q28 44 71 69.5
t102 25.5q32 0 59.5 -6t50.5 -17q27 -13 48 -34t36 -49v-458q-14 -25 -33 -45t-44 -34q-24 -13 -53.5 -20t-65.5 -7q-59 0 -102 25t-71 69q-28 43 -41.5 101.5t-13.5 126.5zM941 1535h-201q0 -26 -7.5 -50.5t-23.5 -42.5q-17 -19 -43.5 -30t-64.5 -11q-39 0 -65.5 11
t-43.5 30q-17 18 -24.5 42.5t-7.5 50.5h-200q0 -65 23.5 -119t68.5 -92q44 -39 107 -60.5t142 -21.5q78 0 141 21.5t108 60.5q44 38 67.5 92t23.5 119z" />
    <glyph glyph-name="uni0120" unicode="&#x120;" 
d="M1132 170l-1 574h-521v-210h241l-1 -264q-11 -13 -32.5 -24.5t-49.5 -20.5t-60 -14t-65 -5q-54 1 -96.5 17.5t-74.5 48.5q-19 19 -34.5 43.5t-27.5 53.5q-19 50 -29.5 115t-10.5 144v200q0 63 7.5 117t21.5 98q18 57 45.5 99t61.5 68q26 19 56 29t62 10q59 0 101.5 -15.5
t70.5 -46.5q25 -28 39.5 -69t21.5 -94h274q-11 105 -46.5 189t-98.5 143q-63 58 -154.5 89t-214.5 31q-80 0 -152 -22t-133 -65q-52 -38 -95.5 -90t-76.5 -117q-35 -73 -54 -162.5t-19 -193.5v-198q0 -109 19.5 -202t57.5 -167q33 -67 80.5 -119t105.5 -88
q59 -35 129.5 -53.5t150.5 -18.5q92 0 172 17t145 45q64 27 111 61t74 67zM502 1727q0 -60 40 -99.5t110 -39.5t110 39.5t40 99.5q0 61 -40 100.5t-110 39.5t-110 -39.5t-40 -100.5z" />
    <glyph glyph-name="uni0121" unicode="&#x121;" 
d="M113 549v-21q0 -118 30.5 -218.5t87.5 -173.5t137.5 -114.5t181.5 -41.5q51 0 95.5 11t81.5 31q25 14 47 32t42 40v-62q0 -55 -15.5 -99t-44.5 -74q-32 -33 -79.5 -50t-108.5 -17q-38 0 -73.5 7.5t-68.5 22.5q-34 15 -65 38.5t-58 54.5l-125 -169q35 -45 84 -77.5
t104 -53.5t111 -31t105 -10q114 0 208.5 30.5t162.5 89.5q67 59 104.5 145t37.5 196v1047h-253l-11 -103q-20 25 -44 45.5t-52 35.5q-37 21 -82.5 31.5t-100.5 10.5q-102 0 -183 -40t-138 -113t-87.5 -175t-30.5 -225zM392 528v21q0 68 14 127.5t43 104.5q28 44 71 69.5
t102 25.5q32 0 59.5 -6t50.5 -17q27 -13 48 -34t36 -49v-458q-14 -25 -33 -45t-44 -34q-24 -13 -53.5 -20t-65.5 -7q-59 0 -102 25t-71 69q-28 43 -41.5 101.5t-13.5 126.5zM448 1406q0 -60 40 -99.5t110 -39.5t110 39.5t40 99.5q0 61 -40 100.5t-110 39.5t-110 -39.5
t-40 -100.5z" />
    <glyph glyph-name="Gcommaaccent" unicode="&#x122;" 
d="M1132 170l-1 574h-521v-210h241l-1 -264q-11 -13 -32.5 -24.5t-49.5 -20.5t-60 -14t-65 -5q-54 1 -96.5 17.5t-74.5 48.5q-19 19 -34.5 43.5t-27.5 53.5q-19 50 -29.5 115t-10.5 144v200q0 63 7.5 117t21.5 98q18 57 45.5 99t61.5 68q26 19 56 29t62 10q59 0 101.5 -15.5
t70.5 -46.5q25 -28 39.5 -69t21.5 -94h274q-11 105 -46.5 189t-98.5 143q-63 58 -154.5 89t-214.5 31q-80 0 -152 -22t-133 -65q-52 -38 -95.5 -90t-76.5 -117q-35 -73 -54 -162.5t-19 -193.5v-198q0 -109 19.5 -202t57.5 -167q33 -67 80.5 -119t105.5 -88
q59 -35 129.5 -53.5t150.5 -18.5q92 0 172 17t145 45q64 27 111 61t74 67zM765 -141v69h-190v-72q0 -76 -18.5 -141.5t-56.5 -128.5l113 -76q78 68 115 165t37 184z" />
    <glyph glyph-name="gcommaaccent" unicode="&#x123;" 
d="M113 549v-21q0 -118 30.5 -218.5t87.5 -173.5t137.5 -114.5t181.5 -41.5q51 0 95.5 11t81.5 31q25 14 47 32t42 40v-62q0 -55 -15.5 -99t-44.5 -74q-32 -33 -79.5 -50t-108.5 -17q-38 0 -73.5 7.5t-68.5 22.5q-34 15 -65 38.5t-58 54.5l-125 -169q35 -45 84 -77.5
t104 -53.5t111 -31t105 -10q114 0 208.5 30.5t162.5 89.5q67 59 104.5 145t37.5 196v1047h-253l-11 -103q-20 25 -44 45.5t-52 35.5q-37 21 -82.5 31.5t-100.5 10.5q-102 0 -183 -40t-138 -113t-87.5 -175t-30.5 -225zM392 528v21q0 68 14 127.5t43 104.5q28 44 71 69.5
t102 25.5q32 0 59.5 -6t50.5 -17q27 -13 48 -34t36 -49v-458q-14 -25 -33 -45t-44 -34q-24 -13 -53.5 -20t-65.5 -7q-59 0 -102 25t-71 69q-28 43 -41.5 101.5t-13.5 126.5zM483 1393v-136h221l2 124q0 79 20 143t47 113l-145 78q-62 -42 -103.5 -130t-41.5 -192z" />
    <glyph glyph-name="Hcircumflex" unicode="&#x124;" 
d="M1092 0v1456h-278v-597h-412v597h-279v-1456h279v631h412v-631h278zM981 1613l-294 243h-161l-290 -241v-30h217l153 127l154 -127h221v28z" />
    <glyph glyph-name="hcircumflex" unicode="&#x125;" 
d="M419 933v603h-278v-1536h278v781q16 21 35.5 38t43.5 29q26 14 58 21t69 7q48 0 86 -12.5t65 -38.5t41.5 -68t14.5 -100v-657h278v655q0 119 -28.5 203.5t-79.5 138.5t-122 79.5t-156 25.5q-58 0 -110 -17t-95 -48q-28 -20 -53.5 -46.5t-46.5 -57.5zM652 1717l-294 243
h-161l-290 -241v-30h217l153 127l154 -127h221v28z" />
    <glyph glyph-name="Hbar" unicode="&#x126;" 
d="M1041 1218v238h-278v-238h-412v238h-279v-238h-49v-171h49v-1047h279v631h412v-631h278v1047h199v171h-199zM351 859v188h412v-188h-412z" />
    <glyph glyph-name="hbar" unicode="&#x127;" 
d="M688 1216v180h-254v140h-278v-140h-160v-180h160v-1216h278v781q19 25 43.5 44.5t54.5 31.5q23 9 50 14t58 5q48 0 86 -12.5t65 -38.5t41.5 -68t14.5 -100v-657h278v655q0 119 -28.5 203.5t-79.5 138.5t-122 79.5t-156 25.5q-56 0 -106 -16t-93 -45q-30 -20 -57 -47.5
t-49 -60.5v283h254z" />
    <glyph glyph-name="Itilde" unicode="&#x128;" 
d="M193 1456v-227h277v-1003h-277v-226h842v226h-284v1003h284v227h-842zM964 1861l-140 31q0 -21 -6.5 -38.5t-17.5 -29.5q-12 -14 -29.5 -21.5t-36.5 -7.5q-38 0 -72 13.5t-67 30.5q-34 16 -69 29.5t-75 13.5q-49 0 -88.5 -22t-67.5 -57t-43.5 -79t-15.5 -88l140 -30
q0 23 7 41.5t20 30.5q12 13 28 19.5t34 6.5q39 0 70 -13.5t63 -29.5q31 -17 66.5 -30.5t83.5 -13.5q49 0 88.5 21t68.5 56q28 34 43.5 78t15.5 89z" />
    <glyph glyph-name="itilde" unicode="&#x129;" 
d="M199 1082v-227h324v-629h-324v-226h915v226h-310v856h-605zM1031 1513l-140 31q0 -21 -6.5 -38.5t-17.5 -29.5q-12 -14 -29.5 -21.5t-36.5 -7.5q-38 0 -72 13.5t-67 30.5q-34 16 -69 29.5t-75 13.5q-49 0 -88.5 -22t-67.5 -57t-43.5 -79t-15.5 -88l140 -30q0 23 7 41.5
t20 30.5q12 13 28 19.5t34 6.5q39 0 70 -13.5t63 -29.5q31 -17 66.5 -30.5t83.5 -13.5q49 0 88.5 21t68.5 56q28 34 43.5 78t15.5 89z" />
    <glyph glyph-name="Imacron" unicode="&#x12a;" 
d="M193 1456v-227h277v-1003h-277v-226h842v226h-284v1003h284v227h-842zM968 1614v164h-730v-164h730z" />
    <glyph glyph-name="imacron" unicode="&#x12b;" 
d="M199 1082v-227h324v-629h-324v-226h915v226h-310v856h-605zM1034 1267v164h-730v-164h730z" />
    <glyph glyph-name="Ibreve" unicode="&#x12c;" 
d="M193 1456v-227h277v-1003h-277v-226h842v226h-284v1003h284v227h-842zM942 1857h-201q0 -26 -7.5 -50.5t-23.5 -42.5q-17 -19 -43.5 -30t-64.5 -11q-39 0 -65.5 11t-43.5 30q-17 18 -24.5 42.5t-7.5 50.5h-200q0 -65 23.5 -119t68.5 -92q44 -39 107 -60.5t142 -21.5
q78 0 141 21.5t108 60.5q44 38 67.5 92t23.5 119z" />
    <glyph glyph-name="ibreve" unicode="&#x12d;" 
d="M199 1082v-227h324v-629h-324v-226h915v226h-310v856h-605zM1008 1509h-201q0 -26 -7.5 -50.5t-23.5 -42.5q-17 -19 -43.5 -30t-64.5 -11q-39 0 -65.5 11t-43.5 30q-17 18 -24.5 42.5t-7.5 50.5h-200q0 -65 23.5 -119t68.5 -92q44 -39 107 -60.5t142 -21.5q78 0 141 21.5
t108 60.5q44 38 67.5 92t23.5 119z" />
    <glyph glyph-name="Iogonek" unicode="&#x12e;" 
d="M193 1456v-227h277v-1003h-277v-226h334q-24 -20 -43 -41.5t-34 -43.5q-20 -32 -30 -65.5t-10 -66.5q0 -51 17.5 -89.5t47.5 -64.5t70.5 -39.5t86.5 -13.5q69 0 113.5 14.5t72.5 29.5l-47 154q-14 -6 -34 -13t-49 -7q-37 0 -52 19.5t-15 48.5q0 27 7.5 51.5t25.5 46.5
t48 42t75 38h258v226h-284v1003h284v227h-842z" />
    <glyph glyph-name="iogonek" unicode="&#x12f;" 
d="M215 1082v-227h308v-629h-308v-226h299q-23 -19 -41.5 -39.5t-32.5 -42.5q-22 -32 -32.5 -66.5t-10.5 -68.5q0 -51 17.5 -89.5t47.5 -64.5t70.5 -39.5t86.5 -13.5q69 0 113.5 14.5t72.5 29.5l-47 154q-14 -6 -34 -13t-49 -7q-37 0 -52 19.5t-15 48.5q0 27 7.5 51.5
t25.5 46.5t48 42t75 38h333v226h-293v856h-589zM503 1359q0 -65 44.5 -106.5t115.5 -41.5q74 0 117.5 41.5t43.5 106.5t-43.5 106.5t-117.5 41.5q-73 0 -116.5 -42.5t-43.5 -105.5z" />
    <glyph glyph-name="Idotaccent" unicode="&#x130;" 
d="M193 1456v-227h277v-1003h-277v-226h842v226h-284v1003h284v227h-842zM449 1728q0 -60 40 -99.5t110 -39.5t110 39.5t40 99.5q0 61 -40 100.5t-110 39.5t-110 -39.5t-40 -100.5z" />
    <glyph glyph-name="dotlessi" unicode="&#x131;" 
d="M199 1082v-227h324v-629h-324v-226h915v226h-310v856h-605z" />
    <glyph glyph-name="IJ" unicode="&#x132;" 
d="M326 0v1456h-200v-1456h200zM902 1456v-1134q0 -42 -6.5 -75.5t-22.5 -56.5q-17 -24 -44.5 -36.5t-68.5 -12.5q-60 0 -96 43t-36 137h-200q0 -87 24.5 -151t69.5 -106q44 -42 105 -62.5t133 -20.5q87 0 151.5 23t107.5 67q42 44 62.5 107.5t20.5 143.5v1134h-200z" />
    <glyph glyph-name="ij" unicode="&#x133;" 
d="M688 1082v-170h216v-918q0 -75 -18.5 -124t-50.5 -78q-33 -30 -77 -42t-94 -12q-14 0 -38 0.5t-51 2.5q-27 1 -52.5 3.5t-42.5 5.5l-14 -167q24 -4 46.5 -7t44.5 -5q29 -3 59 -4t62 -1q101 0 180 28t134 82t83.5 134t28.5 184v1088h-416zM81 1082v-170h229v-742h-235
v-170h660v170h-225v912h-429zM297 1361q0 -47 29 -78.5t86 -31.5t86.5 31.5t29.5 77.5q0 47 -29.5 79t-86.5 32t-86 -32t-29 -78zM880 1362q0 -47 29 -78.5t86 -31.5t86.5 31.5t29.5 77.5q0 47 -29.5 79t-86.5 32t-86 -32t-29 -78z" />
    <glyph glyph-name="Jcircumflex" unicode="&#x134;" 
d="M818 1456v-1009q0 -51 -15.5 -95.5t-43.5 -76.5t-68 -50.5t-88 -18.5q-60 0 -102 16t-68 49q-20 27 -30 66t-10 91h-282q1 -113 37 -197t101 -139q64 -56 154 -84t200 -28q104 0 194.5 34t157.5 96t105.5 147.5t39.5 189.5l-1 1009h-281zM1344 1610l-294 243h-161
l-290 -241v-30h217l153 127l154 -127h221v28z" />
    <glyph glyph-name="jcircumflex" unicode="&#x135;" 
d="M310 1082v-227h274v-880q0 -52 -15 -86.5t-41 -55.5t-61 -30t-75 -9q-11 0 -31 0.5t-43 2.5q-23 1 -44.5 3.5t-33.5 5.5l-14 -226q20 -5 40 -8t41 -5q25 -2 50 -3t49 -1q109 0 194 24t144 75q58 50 89 127.5t31 185.5v1107h-554zM1109 1260l-294 243h-161l-290 -241v-30
h217l153 127l154 -127h221v28z" />
    <glyph glyph-name="Kcommaaccent" unicode="&#x136;" 
d="M565 598l360 -598h334l-508 812l490 644h-344l-354 -489l-132 -178v667h-282v-1456h282v429zM713 -151v69h-190v-72q0 -76 -18.5 -141.5t-56.5 -128.5l113 -76q78 68 115 165t37 184z" />
    <glyph glyph-name="kcommaaccent" unicode="&#x137;" 
d="M548 447l307 -447h341l-465 631l408 451h-334l-299 -328l-84 -96v878h-278v-1536h278v330zM691 -150v69h-190v-72q0 -76 -18.5 -141.5t-56.5 -128.5l113 -76q78 68 115 165t37 184z" />
    <glyph glyph-name="kgreenlandic" unicode="&#x138;" 
d="M604 427l247 -427h356l-405 634l386 448h-349l-295 -347l-107 -127v474h-278v-1082h278v286z" />
    <glyph glyph-name="Lacute" unicode="&#x139;" 
d="M432 227v1229h-282v-1456h964v227h-682zM366 1794l-187 -279h216l277 279h-306z" />
    <glyph glyph-name="lacute" unicode="&#x13a;" 
d="M199 1536v-227h324v-1083h-324v-226h915v226h-310v1310h-605zM733 1893l-187 -279h216l277 279h-306z" />
    <glyph glyph-name="Lcommaaccent" unicode="&#x13b;" 
d="M432 227v1229h-282v-1456h964v227h-682zM718 -128v69h-190v-72q0 -76 -18.5 -141.5t-56.5 -128.5l113 -76q78 68 115 165t37 184z" />
    <glyph glyph-name="lcommaaccent" unicode="&#x13c;" 
d="M199 1536v-227h324v-1083h-324v-226h915v226h-310v1310h-605zM770 -127v69h-190v-72q0 -76 -18.5 -141.5t-56.5 -128.5l113 -76q78 68 115 165t37 184z" />
    <glyph glyph-name="Lcaron" unicode="&#x13d;" 
d="M432 227v1229h-282v-1456h964v227h-682zM1030 1284v173h-223v-173q0 -97 -24.5 -172t-62.5 -140l127 -79q39 35 72 81.5t58 98.5q25 51 39 105.5t14 105.5z" />
    <glyph glyph-name="lcaron" unicode="&#x13e;" 
d="M129 1536v-227h324v-1083h-324v-226h915v226h-310v1310h-605zM1205 1368v173h-223v-173q0 -97 -24.5 -172t-62.5 -140l127 -79q39 35 72 81.5t58 98.5q25 51 39 105.5t14 105.5z" />
    <glyph glyph-name="Ldot" unicode="&#x13f;" 
d="M432 227v1229h-282v-1456h964v227h-682zM614 816q0 -60 40 -99.5t110 -39.5t110 39.5t40 99.5q0 61 -40 100.5t-110 39.5t-110 -39.5t-40 -100.5z" />
    <glyph glyph-name="ldot" unicode="&#x140;" 
d="M129 1536v-227h324v-1083h-324v-226h915v226h-310v1310h-605zM826 812q0 -60 40 -99.5t110 -39.5t110 39.5t40 99.5q0 61 -40 100.5t-110 39.5t-110 -39.5t-40 -100.5z" />
    <glyph glyph-name="Lslash" unicode="&#x141;" 
d="M461 886v570h-282v-652l-128 -37v-195l128 37v-609h964v227h-682v464l232 68v195z" />
    <glyph glyph-name="lslash" unicode="&#x142;" 
d="M818 1019v517h-605v-227h324v-414l-312 -138v-195l312 138v-474h-324v-226h915v226h-310v598l281 125v195z" />
    <glyph glyph-name="Nacute" unicode="&#x143;" 
d="M1091 0v1456h-282l-1 -935l-402 935h-283v-1456h283v939l405 -939h280zM683 1823l-187 -279h216l277 279h-306z" />
    <glyph glyph-name="nacute" unicode="&#x144;" 
d="M141 0h279v769q14 22 31 40t38 31q26 18 59.5 27t73.5 9q48 0 86 -9.5t65 -33.5t41.5 -65.5t14.5 -105.5v-662h278v666q0 118 -27.5 200.5t-76.5 135.5q-50 52 -118 76t-150 24q-64 0 -121 -18t-105 -52q-28 -20 -53 -45t-46 -55l-17 150h-252v-1082zM677 1501l-187 -279
h216l277 279h-306z" />
    <glyph glyph-name="Ncommaaccent" unicode="&#x145;" 
d="M1091 0v1456h-282l-1 -935l-402 935h-283v-1456h283v939l405 -939h280zM718 -135v69h-190v-72q0 -76 -18.5 -141.5t-56.5 -128.5l113 -76q78 68 115 165t37 184z" />
    <glyph glyph-name="ncommaaccent" unicode="&#x146;" 
d="M141 0h279v769q14 22 31 40t38 31q26 18 59.5 27t73.5 9q48 0 86 -9.5t65 -33.5t41.5 -65.5t14.5 -105.5v-662h278v666q0 118 -27.5 200.5t-76.5 135.5q-50 52 -118 76t-150 24q-64 0 -121 -18t-105 -52q-28 -20 -53 -45t-46 -55l-17 150h-252v-1082zM715 -128v69h-190
v-72q0 -76 -18.5 -141.5t-56.5 -128.5l113 -76q78 68 115 165t37 184z" />
    <glyph glyph-name="Ncaron" unicode="&#x147;" 
d="M1091 0v1456h-282l-1 -935l-402 935h-283v-1456h283v939l405 -939h280zM613 1740l-146 126h-237v-20l296 -252h175l296 253v19h-237z" />
    <glyph glyph-name="ncaron" unicode="&#x148;" 
d="M141 0h279v769q14 22 31 40t38 31q26 18 59.5 27t73.5 9q48 0 86 -9.5t65 -33.5t41.5 -65.5t14.5 -105.5v-662h278v666q0 118 -27.5 200.5t-76.5 135.5q-50 52 -118 76t-150 24q-64 0 -121 -18t-105 -52q-28 -20 -53 -45t-46 -55l-17 150h-252v-1082zM607 1418l-146 126
h-237v-20l296 -252h175l296 253v19h-237z" />
    <glyph glyph-name="napostrophe" unicode="&#x149;" 
d="M141 0h279v769q14 22 31 40t38 31q26 18 59.5 27t73.5 9q48 0 86 -9.5t65 -33.5t41.5 -65.5t14.5 -105.5v-662h278v666q0 118 -27.5 200.5t-76.5 135.5q-50 52 -118 76t-150 24q-64 0 -121 -18t-105 -52q-28 -20 -53 -45t-46 -55l-17 150h-252v-1082zM156 1384v173h-223
v-173q0 -97 -24.5 -172t-62.5 -140l127 -79q39 35 72 81.5t58 98.5q25 51 39 105.5t14 105.5z" />
    <glyph glyph-name="Eng" unicode="&#x14a;" 
d="M1095 1456h-281v-882l-384 879l-1 3h-281v-1456h281v881l385 -881v-39q0 -48 -10.5 -82.5t-31.5 -55.5q-15 -16 -35 -24t-45 -8q-26 0 -51.5 2.5t-47.5 8.5l-14 -222q38 -10 70 -13.5t70 -3.5q88 0 157.5 26t118.5 77q48 50 74 124.5t26 170.5v1495z" />
    <glyph glyph-name="eng" unicode="&#x14b;" 
d="M149 0h278v784q13 18 30 33t37 27q27 15 60.5 23.5t73.5 8.5q42 0 74 -11t54 -36q21 -25 32.5 -66t11.5 -101v-702q0 -45 -9.5 -78.5t-26.5 -54.5q-16 -17 -37 -26t-47 -9t-52 3t-48 9l-14 -224q37 -10 69.5 -13.5t69.5 -3.5q87 0 156.5 26t118.5 76q48 50 74 124.5
t26 170.5v703q0 119 -25.5 202.5t-71.5 136.5q-46 52 -110.5 76t-143.5 24q-57 0 -107.5 -15t-92.5 -44q-31 -21 -58.5 -49.5t-50.5 -63.5l-1 12l-12 140h-258v-1082z" />
    <glyph glyph-name="Omacron" unicode="&#x14c;" 
d="M1147 621v212q0 99 -18.5 187t-53.5 162q-32 65 -76.5 119t-103.5 92q-59 40 -132.5 61.5t-157.5 21.5q-83 0 -154 -21t-128 -60q-58 -40 -102.5 -96t-75.5 -125q-32 -73 -48.5 -159t-16.5 -182v-212q0 -90 14.5 -171t42.5 -150q31 -75 77 -134.5t104 -101.5
q59 -40 131 -62t157 -22q80 0 149.5 19.5t127.5 54.5q64 40 114 100t84 132q32 72 49 156.5t17 178.5zM862 835v-214q0 -54 -5.5 -104t-16.5 -92q-14 -54 -37.5 -96.5t-57.5 -70.5q-27 -23 -62 -35t-77 -12q-44 0 -78.5 13t-61.5 37q-29 27 -50.5 70.5t-32.5 96.5
q-10 42 -14 91t-4 102v214q0 56 4.5 107t14.5 94q13 56 36.5 98t57.5 70q25 19 56.5 29t70.5 10q41 0 74.5 -11t60.5 -31q34 -27 59 -69.5t40 -96.5q12 -43 17.5 -93.5t5.5 -106.5zM983 1635v164h-730v-164h730z" />
    <glyph glyph-name="omacron" unicode="&#x14d;" 
d="M103 551v-21q0 -119 34 -219.5t100 -174.5q65 -74 160.5 -115.5t217.5 -41.5q121 0 216 41.5t160 115.5t99 174.5t34 219.5v21q0 118 -34 218.5t-99 174.5q-66 74 -161 116t-217 42t-216.5 -42t-159.5 -116q-66 -74 -100 -174.5t-34 -218.5zM381 530v21q0 66 13 125
t41 104t72 71t106 26q63 0 107 -26t72 -71q27 -45 40 -104t13 -125v-21q0 -68 -13 -127.5t-40 -103.5q-28 -45 -72 -71t-105 -26q-63 0 -107.5 26t-72.5 71q-28 44 -41 103.5t-13 127.5zM988 1292v164h-730v-164h730z" />
    <glyph glyph-name="Obreve" unicode="&#x14e;" 
d="M1147 621v212q0 99 -18.5 187t-53.5 162q-32 65 -76.5 119t-103.5 92q-59 40 -132.5 61.5t-157.5 21.5q-83 0 -154 -21t-128 -60q-58 -40 -102.5 -96t-75.5 -125q-32 -73 -48.5 -159t-16.5 -182v-212q0 -90 14.5 -171t42.5 -150q31 -75 77 -134.5t104 -101.5
q59 -40 131 -62t157 -22q80 0 149.5 19.5t127.5 54.5q64 40 114 100t84 132q32 72 49 156.5t17 178.5zM862 835v-214q0 -54 -5.5 -104t-16.5 -92q-14 -54 -37.5 -96.5t-57.5 -70.5q-27 -23 -62 -35t-77 -12q-44 0 -78.5 13t-61.5 37q-29 27 -50.5 70.5t-32.5 96.5
q-10 42 -14 91t-4 102v214q0 56 4.5 107t14.5 94q13 56 36.5 98t57.5 70q25 19 56.5 29t70.5 10q41 0 74.5 -11t60.5 -31q34 -27 59 -69.5t40 -96.5q12 -43 17.5 -93.5t5.5 -106.5zM957 1878h-201q0 -26 -7.5 -50.5t-23.5 -42.5q-17 -19 -43.5 -30t-64.5 -11q-39 0 -65.5 11
t-43.5 30q-17 18 -24.5 42.5t-7.5 50.5h-200q0 -65 23.5 -119t68.5 -92q44 -39 107 -60.5t142 -21.5q78 0 141 21.5t108 60.5q44 38 67.5 92t23.5 119z" />
    <glyph glyph-name="obreve" unicode="&#x14f;" 
d="M103 551v-21q0 -119 34 -219.5t100 -174.5q65 -74 160.5 -115.5t217.5 -41.5q121 0 216 41.5t160 115.5t99 174.5t34 219.5v21q0 118 -34 218.5t-99 174.5q-66 74 -161 116t-217 42t-216.5 -42t-159.5 -116q-66 -74 -100 -174.5t-34 -218.5zM381 530v21q0 66 13 125
t41 104t72 71t106 26q63 0 107 -26t72 -71q27 -45 40 -104t13 -125v-21q0 -68 -13 -127.5t-40 -103.5q-28 -45 -72 -71t-105 -26q-63 0 -107.5 26t-72.5 71q-28 44 -41 103.5t-13 127.5zM962 1535h-201q0 -26 -7.5 -50.5t-23.5 -42.5q-17 -19 -43.5 -30t-64.5 -11
q-39 0 -65.5 11t-43.5 30q-17 18 -24.5 42.5t-7.5 50.5h-200q0 -65 23.5 -119t68.5 -92q44 -39 107 -60.5t142 -21.5q78 0 141 21.5t108 60.5q44 38 67.5 92t23.5 119z" />
    <glyph glyph-name="Ohungarumlaut" unicode="&#x150;" 
d="M1147 621v212q0 99 -18.5 187t-53.5 162q-32 65 -76.5 119t-103.5 92q-59 40 -132.5 61.5t-157.5 21.5q-83 0 -154 -21t-128 -60q-58 -40 -102.5 -96t-75.5 -125q-32 -73 -48.5 -159t-16.5 -182v-212q0 -90 14.5 -171t42.5 -150q31 -75 77 -134.5t104 -101.5
q59 -40 131 -62t157 -22q80 0 149.5 19.5t127.5 54.5q64 40 114 100t84 132q32 72 49 156.5t17 178.5zM862 835v-214q0 -54 -5.5 -104t-16.5 -92q-14 -54 -37.5 -96.5t-57.5 -70.5q-27 -23 -62 -35t-77 -12q-44 0 -78.5 13t-61.5 37q-29 27 -50.5 70.5t-32.5 96.5
q-10 42 -14 91t-4 102v214q0 56 4.5 107t14.5 94q13 56 36.5 98t57.5 70q25 19 56.5 29t70.5 10q41 0 74.5 -11t60.5 -31q34 -27 59 -69.5t40 -96.5q12 -43 17.5 -93.5t5.5 -106.5zM904 1888l-245 -265h212l306 265h-273zM537 1888l-203 -265h206l258 265h-261z" />
    <glyph glyph-name="ohungarumlaut" unicode="&#x151;" 
d="M103 551v-21q0 -119 34 -219.5t100 -174.5q65 -74 160.5 -115.5t217.5 -41.5q121 0 216 41.5t160 115.5t99 174.5t34 219.5v21q0 118 -34 218.5t-99 174.5q-66 74 -161 116t-217 42t-216.5 -42t-159.5 -116q-66 -74 -100 -174.5t-34 -218.5zM381 530v21q0 66 13 125
t41 104t72 71t106 26q63 0 107 -26t72 -71q27 -45 40 -104t13 -125v-21q0 -68 -13 -127.5t-40 -103.5q-28 -45 -72 -71t-105 -26q-63 0 -107.5 26t-72.5 71q-28 44 -41 103.5t-13 127.5zM909 1545l-245 -265h212l306 265h-273zM542 1545l-203 -265h206l258 265h-261z" />
    <glyph glyph-name="OE" unicode="&#x152;" 
d="M1190 0v232h-358v416h296v217h-296v374h347v217h-410q-63 8 -131 14.5t-139 6.5q-93 0 -171.5 -31t-135.5 -95t-89 -161.5t-32 -229.5v-464q0 -132 32 -229.5t90 -161.5q57 -64 136 -95t172 -31q71 0 138 6.5t130 14.5h421zM501 211q-44 0 -79 13t-59 45q-25 32 -38 87.5
t-13 139.5v466q0 88 13 145.5t37 91.5t58.5 47.5t78.5 13.5q23 0 46.5 -1t46.5 -3v-1042q-22 -1 -45 -2t-46 -1z" />
    <glyph glyph-name="oe" unicode="&#x153;" 
d="M38 640v-200q0 -109 24.5 -194.5t71.5 -144.5q46 -59 114 -90t156 -31q47 0 87.5 9.5t74.5 27.5q21 11 39.5 25.5t35.5 32.5q17 -16 36.5 -29.5t40.5 -24.5q40 -20 87 -30.5t101 -10.5q43 0 80.5 7.5t68.5 20.5q26 11 47.5 25.5t38.5 30.5l-60 180q-17 -9 -32.5 -16.5
t-32.5 -12.5q-17 -6 -37 -9t-46 -3q-39 0 -69 11.5t-50 33.5q-13 14 -22.5 33t-15.5 42q-6 21 -8.5 45t-2.5 52v34h420v218q0 97 -22.5 176.5t-65.5 135.5q-44 56 -107 87t-143 31q-41 1 -77.5 -7.5t-67.5 -25.5q-20 -10 -37.5 -23.5t-33.5 -30.5q-15 14 -31 26t-34 22
q-35 19 -76 29t-88 10q-87 0 -155 -32t-114 -91q-47 -60 -71 -145.5t-24 -193.5zM299 440v201q0 56 5 100t17 74t31.5 46t49.5 16q31 0 51.5 -16t32.5 -46q5 -12 8.5 -27t6.5 -32q4 -24 5.5 -53t1.5 -62v-201q0 -34 -1.5 -63t-5.5 -53q-3 -24 -8.5 -43t-12.5 -33
q-12 -22 -31 -33.5t-45 -11.5q-27 0 -45.5 11.5t-30.5 33.5q-16 29 -22.5 77.5t-6.5 114.5zM847 877q20 0 35 -8.5t25 -24.5q11 -19 16 -47.5t5 -64.5v-85h-163v26q0 31 1 57.5t4 48.5q4 29 9.5 45t14.5 28q8 12 21.5 18.5t31.5 6.5z" />
    <glyph glyph-name="Racute" unicode="&#x154;" 
d="M625 544l274 -544h301v13l-313 601q60 27 108.5 64t83.5 87q34 49 52.5 111.5t18.5 140.5q0 108 -37.5 190t-106.5 137q-70 55 -168 83.5t-219 28.5h-488v-1456h281v544h213zM412 772v456h207q58 0 103 -14t76 -40q35 -29 52.5 -73.5t17.5 -102.5q0 -48 -13.5 -87
t-39.5 -67q-31 -35 -80.5 -53.5t-114.5 -18.5h-208zM664 1811l-187 -279h216l277 279h-306z" />
    <glyph glyph-name="racute" unicode="&#x155;" 
d="M918 1102q-109 0 -201 -52.5t-158 -144.5l-2 24l-11 153h-259v-1082h278v650q19 46 48 80t70 56q34 19 77.5 28.5t97.5 9.5q52 0 109.5 -6.5t112.5 -19.5l41 277q-33 10 -86.5 18.5t-116.5 8.5zM650 1501l-187 -279h216l277 279h-306z" />
    <glyph glyph-name="Rcommaaccent" unicode="&#x156;" 
d="M625 544l274 -544h301v13l-313 601q60 27 108.5 64t83.5 87q34 49 52.5 111.5t18.5 140.5q0 108 -37.5 190t-106.5 137q-70 55 -168 83.5t-219 28.5h-488v-1456h281v544h213zM412 772v456h207q58 0 103 -14t76 -40q35 -29 52.5 -73.5t17.5 -102.5q0 -48 -13.5 -87
t-39.5 -67q-31 -35 -80.5 -53.5t-114.5 -18.5h-208zM707 -128v69h-190v-72q0 -76 -18.5 -141.5t-56.5 -128.5l113 -76q78 68 115 165t37 184z" />
    <glyph glyph-name="rcommaaccent" unicode="&#x157;" 
d="M918 1102q-109 0 -201 -52.5t-158 -144.5l-2 24l-11 153h-259v-1082h278v650q19 46 48 80t70 56q34 19 77.5 28.5t97.5 9.5q52 0 109.5 -6.5t112.5 -19.5l41 277q-33 10 -86.5 18.5t-116.5 8.5zM532 -128v69h-190v-72q0 -76 -18.5 -141.5t-56.5 -128.5l113 -76
q78 68 115 165t37 184z" />
    <glyph glyph-name="Rcaron" unicode="&#x158;" 
d="M625 544l274 -544h301v13l-313 601q60 27 108.5 64t83.5 87q34 49 52.5 111.5t18.5 140.5q0 108 -37.5 190t-106.5 137q-70 55 -168 83.5t-219 28.5h-488v-1456h281v544h213zM412 772v456h207q58 0 103 -14t76 -40q35 -29 52.5 -73.5t17.5 -102.5q0 -48 -13.5 -87
t-39.5 -67q-31 -35 -80.5 -53.5t-114.5 -18.5h-208zM594 1728l-146 126h-237v-20l296 -252h175l296 253v19h-237z" />
    <glyph glyph-name="rcaron" unicode="&#x159;" 
d="M918 1102q-109 0 -201 -52.5t-158 -144.5l-2 24l-11 153h-259v-1082h278v650q19 46 48 80t70 56q34 19 77.5 28.5t97.5 9.5q52 0 109.5 -6.5t112.5 -19.5l41 277q-33 10 -86.5 18.5t-116.5 8.5zM580 1418l-146 126h-237v-20l296 -252h175l296 253v19h-237z" />
    <glyph glyph-name="Sacute" unicode="&#x15a;" 
d="M887 380q0 -39 -16 -71.5t-46 -55.5t-73.5 -36t-99.5 -13q-63 0 -115.5 14t-89.5 44q-38 30 -59 77t-23 113h-276q0 -113 43.5 -197t118.5 -146q79 -63 185.5 -95.5t215.5 -32.5q111 0 205 26.5t162 78.5q68 51 106.5 125.5t38.5 170.5q0 111 -51 196t-137 149
q-57 39 -125 69t-143 51q-70 19 -125.5 41t-94.5 49q-39 26 -59.5 59t-20.5 74q0 39 15.5 72.5t45.5 58.5q30 24 73.5 37.5t99.5 13.5q61 0 106.5 -16.5t76.5 -45.5q30 -30 45.5 -71t17.5 -90h274q0 98 -38 180t-106 142q-68 59 -162.5 92t-208.5 33q-110 0 -204 -28.5
t-163 -81.5t-108 -128t-39 -167q0 -80 29.5 -148t87.5 -124t149.5 -103t212.5 -80q78 -21 130.5 -45.5t85.5 -53.5q32 -30 45.5 -64t13.5 -73zM716 1844l-187 -279h216l277 279h-306z" />
    <glyph glyph-name="sacute" unicode="&#x15b;" 
d="M839 297q0 -25 -12.5 -46t-37.5 -37q-26 -16 -66.5 -25.5t-94.5 -9.5q-45 0 -87.5 9t-75.5 29q-33 19 -54 50.5t-24 75.5h-265q0 -66 32.5 -131.5t95.5 -116.5q63 -52 156.5 -84t215.5 -32q111 0 201 24.5t154 68.5q63 44 97.5 104.5t34.5 132.5q0 78 -34.5 134.5
t-95.5 96.5q-61 39 -145 64t-182 41q-68 10 -112 23.5t-69 30.5q-26 16 -36 36.5t-10 44.5t11.5 45.5t33.5 37.5q24 18 62 28t89 10q60 0 102.5 -15t67.5 -40q18 -19 27 -42.5t9 -50.5h278q0 75 -33 139t-95 111q-63 46 -153 72.5t-203 26.5q-108 0 -194 -27t-146 -73
t-92 -107t-32 -128q0 -69 31.5 -122t87.5 -93q56 -41 134.5 -69.5t173.5 -47.5q75 -14 124 -28t79 -30q29 -17 40.5 -36t11.5 -44zM661 1501l-187 -279h216l277 279h-306z" />
    <glyph glyph-name="Scircumflex" unicode="&#x15c;" 
d="M887 380q0 -39 -16 -71.5t-46 -55.5t-73.5 -36t-99.5 -13q-63 0 -115.5 14t-89.5 44q-38 30 -59 77t-23 113h-276q0 -113 43.5 -197t118.5 -146q79 -63 185.5 -95.5t215.5 -32.5q111 0 205 26.5t162 78.5q68 51 106.5 125.5t38.5 170.5q0 111 -51 196t-137 149
q-57 39 -125 69t-143 51q-70 19 -125.5 41t-94.5 49q-39 26 -59.5 59t-20.5 74q0 39 15.5 72.5t45.5 58.5q30 24 73.5 37.5t99.5 13.5q61 0 106.5 -16.5t76.5 -45.5q30 -30 45.5 -71t17.5 -90h274q0 98 -38 180t-106 142q-68 59 -162.5 92t-208.5 33q-110 0 -204 -28.5
t-163 -81.5t-108 -128t-39 -167q0 -80 29.5 -148t87.5 -124t149.5 -103t212.5 -80q78 -21 130.5 -45.5t85.5 -53.5q32 -30 45.5 -64t13.5 -73zM1021 1643l-294 243h-161l-290 -241v-30h217l153 127l154 -127h221v28z" />
    <glyph glyph-name="scircumflex" unicode="&#x15d;" 
d="M839 297q0 -25 -12.5 -46t-37.5 -37q-26 -16 -66.5 -25.5t-94.5 -9.5q-45 0 -87.5 9t-75.5 29q-33 19 -54 50.5t-24 75.5h-265q0 -66 32.5 -131.5t95.5 -116.5q63 -52 156.5 -84t215.5 -32q111 0 201 24.5t154 68.5q63 44 97.5 104.5t34.5 132.5q0 78 -34.5 134.5
t-95.5 96.5q-61 39 -145 64t-182 41q-68 10 -112 23.5t-69 30.5q-26 16 -36 36.5t-10 44.5t11.5 45.5t33.5 37.5q24 18 62 28t89 10q60 0 102.5 -15t67.5 -40q18 -19 27 -42.5t9 -50.5h278q0 75 -33 139t-95 111q-63 46 -153 72.5t-203 26.5q-108 0 -194 -27t-146 -73
t-92 -107t-32 -128q0 -69 31.5 -122t87.5 -93q56 -41 134.5 -69.5t173.5 -47.5q75 -14 124 -28t79 -30q29 -17 40.5 -36t11.5 -44zM966 1300l-294 243h-161l-290 -241v-30h217l153 127l154 -127h221v28z" />
    <glyph glyph-name="Scedilla" unicode="&#x15e;" 
d="M887 380q0 -39 -16 -71.5t-46 -55.5t-73.5 -36t-99.5 -13q-63 0 -115.5 14t-89.5 44q-38 30 -59 77t-23 113h-276q0 -113 43.5 -197t118.5 -146q79 -63 185.5 -95.5t215.5 -32.5q111 0 205 26.5t162 78.5q68 51 106.5 125.5t38.5 170.5q0 111 -51 196t-137 149
q-57 39 -125 69t-143 51q-70 19 -125.5 41t-94.5 49q-39 26 -59.5 59t-20.5 74q0 39 15.5 72.5t45.5 58.5q30 24 73.5 37.5t99.5 13.5q61 0 106.5 -16.5t76.5 -45.5q30 -30 45.5 -71t17.5 -90h274q0 98 -38 180t-106 142q-68 59 -162.5 92t-208.5 33q-110 0 -204 -28.5
t-163 -81.5t-108 -128t-39 -167q0 -80 29.5 -148t87.5 -124t149.5 -103t212.5 -80q78 -21 130.5 -45.5t85.5 -53.5q32 -30 45.5 -64t13.5 -73zM762 -4h-207l-31 -141q39 -3 67 -7.5t45 -14.5q17 -9 25 -23t8 -34q0 -23 -9.5 -39t-25.5 -26q-16 -9 -37.5 -13.5t-46.5 -4.5
l7 -160q85 0 149 17t108 48q43 30 65 73t22 96q0 43 -13 73.5t-34 51.5q-21 20 -48 31.5t-55 16.5z" />
    <glyph glyph-name="scedilla" unicode="&#x15f;" 
d="M839 297q0 -25 -12.5 -46t-37.5 -37q-26 -16 -66.5 -25.5t-94.5 -9.5q-45 0 -87.5 9t-75.5 29q-33 19 -54 50.5t-24 75.5h-265q0 -66 32.5 -131.5t95.5 -116.5q63 -52 156.5 -84t215.5 -32q111 0 201 24.5t154 68.5q63 44 97.5 104.5t34.5 132.5q0 78 -34.5 134.5
t-95.5 96.5q-61 39 -145 64t-182 41q-68 10 -112 23.5t-69 30.5q-26 16 -36 36.5t-10 44.5t11.5 45.5t33.5 37.5q24 18 62 28t89 10q60 0 102.5 -15t67.5 -40q18 -19 27 -42.5t9 -50.5h278q0 75 -33 139t-95 111q-63 46 -153 72.5t-203 26.5q-108 0 -194 -27t-146 -73
t-92 -107t-32 -128q0 -69 31.5 -122t87.5 -93q56 -41 134.5 -69.5t173.5 -47.5q75 -14 124 -28t79 -30q29 -17 40.5 -36t11.5 -44zM698 -4h-207l-31 -141q39 -3 67 -7.5t45 -14.5q17 -9 25 -23t8 -34q0 -23 -9.5 -39t-25.5 -26q-16 -9 -37.5 -13.5t-46.5 -4.5l7 -160
q85 0 149 17t108 48q43 30 65 73t22 96q0 43 -13 73.5t-34 51.5q-21 20 -48 31.5t-55 16.5z" />
    <glyph glyph-name="Scaron" unicode="&#x160;" 
d="M887 380q0 -39 -16 -71.5t-46 -55.5t-73.5 -36t-99.5 -13q-63 0 -115.5 14t-89.5 44q-38 30 -59 77t-23 113h-276q0 -113 43.5 -197t118.5 -146q79 -63 185.5 -95.5t215.5 -32.5q111 0 205 26.5t162 78.5q68 51 106.5 125.5t38.5 170.5q0 111 -51 196t-137 149
q-57 39 -125 69t-143 51q-70 19 -125.5 41t-94.5 49q-39 26 -59.5 59t-20.5 74q0 39 15.5 72.5t45.5 58.5q30 24 73.5 37.5t99.5 13.5q61 0 106.5 -16.5t76.5 -45.5q30 -30 45.5 -71t17.5 -90h274q0 98 -38 180t-106 142q-68 59 -162.5 92t-208.5 33q-110 0 -204 -28.5
t-163 -81.5t-108 -128t-39 -167q0 -80 29.5 -148t87.5 -124t149.5 -103t212.5 -80q78 -21 130.5 -45.5t85.5 -53.5q32 -30 45.5 -64t13.5 -73zM645 1761l-146 126h-237v-20l296 -252h175l296 253v19h-237z" />
    <glyph glyph-name="scaron" unicode="&#x161;" 
d="M839 297q0 -25 -12.5 -46t-37.5 -37q-26 -16 -66.5 -25.5t-94.5 -9.5q-45 0 -87.5 9t-75.5 29q-33 19 -54 50.5t-24 75.5h-265q0 -66 32.5 -131.5t95.5 -116.5q63 -52 156.5 -84t215.5 -32q111 0 201 24.5t154 68.5q63 44 97.5 104.5t34.5 132.5q0 78 -34.5 134.5
t-95.5 96.5q-61 39 -145 64t-182 41q-68 10 -112 23.5t-69 30.5q-26 16 -36 36.5t-10 44.5t11.5 45.5t33.5 37.5q24 18 62 28t89 10q60 0 102.5 -15t67.5 -40q18 -19 27 -42.5t9 -50.5h278q0 75 -33 139t-95 111q-63 46 -153 72.5t-203 26.5q-108 0 -194 -27t-146 -73
t-92 -107t-32 -128q0 -69 31.5 -122t87.5 -93q56 -41 134.5 -69.5t173.5 -47.5q75 -14 124 -28t79 -30q29 -17 40.5 -36t11.5 -44zM591 1418l-146 126h-237v-20l296 -252h175l296 253v19h-237z" />
    <glyph glyph-name="uni0162" unicode="&#x162;" 
d="M1201 1227v229h-1174v-229h443v-1227h282v1227h449zM718 18h-207l-31 -141q39 -3 67 -7.5t45 -14.5q17 -9 25 -23t8 -34q0 -23 -9.5 -39t-25.5 -26q-16 -9 -37.5 -13.5t-46.5 -4.5l7 -160q85 0 149 17t108 48q43 30 65 73t22 96q0 43 -13 73.5t-34 51.5q-21 20 -48 31.5
t-55 16.5z" />
    <glyph glyph-name="uni0163" unicode="&#x163;" 
d="M651 1347h-278v-265h-247v-205h247v-492q0 -107 28 -183.5t80 -125.5q51 -50 123.5 -73.5t161.5 -23.5q46 0 93.5 4.5t91.5 12.5t83 20.5t68 29.5l-27 191q-19 -5 -45.5 -10t-56.5 -9q-31 -5 -64.5 -8t-65.5 -3q-44 0 -79.5 10t-60.5 34q-25 23 -38.5 62.5t-13.5 98.5
v465h404v205h-404v265zM784 5h-207l-31 -141q39 -3 67 -7.5t45 -14.5q17 -9 25 -23t8 -34q0 -23 -9.5 -39t-25.5 -26q-16 -9 -37.5 -13.5t-46.5 -4.5l7 -160q85 0 149 17t108 48q43 30 65 73t22 96q0 43 -13 73.5t-34 51.5q-21 20 -48 31.5t-55 16.5z" />
    <glyph glyph-name="Tcaron" unicode="&#x164;" 
d="M1201 1227v229h-1174v-229h443v-1227h282v1227h449zM614 1737l-146 126h-237v-20l296 -252h175l296 253v19h-237z" />
    <glyph glyph-name="tcaron" unicode="&#x165;" 
d="M628 1344h-278v-265h-247v-205h247v-492q0 -107 28 -183.5t80 -125.5q51 -50 123.5 -73.5t161.5 -23.5q46 0 93.5 4.5t91.5 12.5t83 20.5t68 29.5l-27 191q-19 -5 -45.5 -10t-56.5 -9q-31 -5 -64.5 -8t-65.5 -3q-44 0 -79.5 10t-60.5 34q-25 23 -38.5 62.5t-13.5 98.5
v465h404v205h-404v265zM1207 1547v173h-223v-173q0 -97 -24.5 -172t-62.5 -140l127 -79q39 35 72 81.5t58 98.5q25 51 39 105.5t14 105.5z" />
    <glyph glyph-name="Tbar" unicode="&#x166;" 
d="M982 757v180h-230v290h449v229h-1174v-229h443v-290h-229v-180h229v-757h282v757h230z" />
    <glyph glyph-name="tbar" unicode="&#x167;" 
d="M651 1347h-278v-265h-247v-205h247v-158h-195v-180h195v-154q0 -107 28 -183.5t80 -125.5q51 -50 123.5 -73.5t161.5 -23.5q46 0 93.5 4.5t91.5 12.5t83 20.5t68 29.5l-27 191q-19 -5 -45.5 -10t-56.5 -9q-31 -5 -64.5 -8t-65.5 -3q-44 0 -79.5 10t-60.5 34
q-25 23 -38.5 62.5t-13.5 98.5v127h219v180h-219v158h404v205h-404v265z" />
    <glyph glyph-name="Utilde" unicode="&#x168;" 
d="M1101 1456h-279l-1 -965q-1 -71 -15 -125t-42 -90q-26 -35 -65.5 -52.5t-90.5 -17.5q-47 0 -83 16.5t-61 49.5q-27 36 -40.5 91t-14.5 128l-1 965h-281l-1 -965q0 -122 34.5 -217.5t97.5 -160.5t151.5 -99t198.5 -34q117 0 208.5 34t155.5 100q63 65 96.5 160t33.5 217z
M987 1858l-140 31q0 -21 -6.5 -38.5t-17.5 -29.5q-12 -14 -29.5 -21.5t-36.5 -7.5q-38 0 -72 13.5t-67 30.5q-34 16 -69 29.5t-75 13.5q-49 0 -88.5 -22t-67.5 -57t-43.5 -79t-15.5 -88l140 -30q0 23 7 41.5t20 30.5q12 13 28 19.5t34 6.5q39 0 70 -13.5t63 -29.5
q31 -17 66.5 -30.5t83.5 -13.5q49 0 88.5 21t68.5 56q28 34 43.5 78t15.5 89z" />
    <glyph glyph-name="utilde" unicode="&#x169;" 
d="M847 0h252v1082h-279v-759q-13 -26 -31 -47t-41 -36q-27 -17 -62.5 -26t-79.5 -9q-49 0 -83 12t-55 40q-21 27 -30.5 72t-9.5 111v642h-278v-640q0 -123 27.5 -210.5t77.5 -143.5q50 -57 120 -83t154 -26q92 0 169.5 46t132.5 127zM986 1518l-140 31q0 -21 -6.5 -38.5
t-17.5 -29.5q-12 -14 -29.5 -21.5t-36.5 -7.5q-38 0 -72 13.5t-67 30.5q-34 16 -69 29.5t-75 13.5q-49 0 -88.5 -22t-67.5 -57t-43.5 -79t-15.5 -88l140 -30q0 23 7 41.5t20 30.5q12 13 28 19.5t34 6.5q39 0 70 -13.5t63 -29.5q31 -17 66.5 -30.5t83.5 -13.5q49 0 88.5 21
t68.5 56q28 34 43.5 78t15.5 89z" />
    <glyph glyph-name="Umacron" unicode="&#x16a;" 
d="M1101 1456h-279l-1 -965q-1 -71 -15 -125t-42 -90q-26 -35 -65.5 -52.5t-90.5 -17.5q-47 0 -83 16.5t-61 49.5q-27 36 -40.5 91t-14.5 128l-1 965h-281l-1 -965q0 -122 34.5 -217.5t97.5 -160.5t151.5 -99t198.5 -34q117 0 208.5 34t155.5 100q63 65 96.5 160t33.5 217z
M991 1611v164h-730v-164h730z" />
    <glyph glyph-name="umacron" unicode="&#x16b;" 
d="M847 0h252v1082h-279v-759q-13 -26 -31 -47t-41 -36q-27 -17 -62.5 -26t-79.5 -9q-49 0 -83 12t-55 40q-21 27 -30.5 72t-9.5 111v642h-278v-640q0 -123 27.5 -210.5t77.5 -143.5q50 -57 120 -83t154 -26q92 0 169.5 46t132.5 127zM990 1272v164h-730v-164h730z" />
    <glyph glyph-name="Ubreve" unicode="&#x16c;" 
d="M1101 1456h-279l-1 -965q-1 -71 -15 -125t-42 -90q-26 -35 -65.5 -52.5t-90.5 -17.5q-47 0 -83 16.5t-61 49.5q-27 36 -40.5 91t-14.5 128l-1 965h-281l-1 -965q0 -122 34.5 -217.5t97.5 -160.5t151.5 -99t198.5 -34q117 0 208.5 34t155.5 100q63 65 96.5 160t33.5 217z
M965 1854h-201q0 -26 -7.5 -50.5t-23.5 -42.5q-17 -19 -43.5 -30t-64.5 -11q-39 0 -65.5 11t-43.5 30q-17 18 -24.5 42.5t-7.5 50.5h-200q0 -65 23.5 -119t68.5 -92q44 -39 107 -60.5t142 -21.5q78 0 141 21.5t108 60.5q44 38 67.5 92t23.5 119z" />
    <glyph glyph-name="ubreve" unicode="&#x16d;" 
d="M847 0h252v1082h-279v-759q-13 -26 -31 -47t-41 -36q-27 -17 -62.5 -26t-79.5 -9q-49 0 -83 12t-55 40q-21 27 -30.5 72t-9.5 111v642h-278v-640q0 -123 27.5 -210.5t77.5 -143.5q50 -57 120 -83t154 -26q92 0 169.5 46t132.5 127zM964 1514h-201q0 -26 -7.5 -50.5
t-23.5 -42.5q-17 -19 -43.5 -30t-64.5 -11q-39 0 -65.5 11t-43.5 30q-17 18 -24.5 42.5t-7.5 50.5h-200q0 -65 23.5 -119t68.5 -92q44 -39 107 -60.5t142 -21.5q78 0 141 21.5t108 60.5q44 38 67.5 92t23.5 119z" />
    <glyph glyph-name="Uring" unicode="&#x16e;" 
d="M1101 1456h-279l-1 -965q-1 -71 -15 -125t-42 -90q-26 -35 -65.5 -52.5t-90.5 -17.5q-47 0 -83 16.5t-61 49.5q-27 36 -40.5 91t-14.5 128l-1 965h-281l-1 -965q0 -122 34.5 -217.5t97.5 -160.5t151.5 -99t198.5 -34q117 0 208.5 34t155.5 100q63 65 96.5 160t33.5 217z
M411 1729q0 -42 16.5 -77.5t45.5 -60.5q29 -26 68 -40t83 -14t82 14t66 40q28 25 44 60.5t16 77.5t-16 78t-44 62t-66 41t-82 15t-83 -15t-68 -41t-45.5 -62t-16.5 -78zM525 1729q0 22 7.5 40t19.5 31q13 14 32 21.5t40 7.5t38.5 -7t30.5 -20q12 -13 19 -32t7 -41
q0 -23 -7.5 -41.5t-21.5 -31.5q-12 -12 -29 -18.5t-37 -6.5q-21 0 -39 7t-31 19q-13 13 -21 31.5t-8 40.5z" />
    <glyph glyph-name="uring" unicode="&#x16f;" 
d="M847 0h252v1082h-279v-759q-13 -26 -31 -47t-41 -36q-27 -17 -62.5 -26t-79.5 -9q-49 0 -83 12t-55 40q-21 27 -30.5 72t-9.5 111v642h-278v-640q0 -123 27.5 -210.5t77.5 -143.5q50 -57 120 -83t154 -26q92 0 169.5 46t132.5 127zM410 1389q0 -42 16.5 -77.5t45.5 -60.5
q29 -26 68 -40t83 -14t82 14t66 40q28 25 44 60.5t16 77.5t-16 78t-44 62t-66 41t-82 15t-83 -15t-68 -41t-45.5 -62t-16.5 -78zM524 1389q0 22 7.5 40t19.5 31q13 14 32 21.5t40 7.5t38.5 -7t30.5 -20q12 -13 19 -32t7 -41q0 -23 -7.5 -41.5t-21.5 -31.5q-12 -12 -29 -18.5
t-37 -6.5q-21 0 -39 7t-31 19q-13 13 -21 31.5t-8 40.5z" />
    <glyph glyph-name="Uhungarumlaut" unicode="&#x170;" 
d="M1101 1456h-279l-1 -965q-1 -71 -15 -125t-42 -90q-26 -35 -65.5 -52.5t-90.5 -17.5q-47 0 -83 16.5t-61 49.5q-27 36 -40.5 91t-14.5 128l-1 965h-281l-1 -965q0 -122 34.5 -217.5t97.5 -160.5t151.5 -99t198.5 -34q117 0 208.5 34t155.5 100q63 65 96.5 160t33.5 217z
M912 1864l-245 -265h212l306 265h-273zM545 1864l-203 -265h206l258 265h-261z" />
    <glyph glyph-name="uhungarumlaut" unicode="&#x171;" 
d="M847 0h252v1082h-279v-759q-13 -26 -31 -47t-41 -36q-27 -17 -62.5 -26t-79.5 -9q-49 0 -83 12t-55 40q-21 27 -30.5 72t-9.5 111v642h-278v-640q0 -123 27.5 -210.5t77.5 -143.5q50 -57 120 -83t154 -26q92 0 169.5 46t132.5 127zM911 1524l-245 -265h212l306 265h-273z
M544 1524l-203 -265h206l258 265h-261z" />
    <glyph glyph-name="Uogonek" unicode="&#x172;" 
d="M1101 1456h-279l-1 -965q0 -70 -14 -123t-40 -89q-27 -36 -67 -54.5t-92 -18.5q-49 0 -86.5 18.5t-62.5 55.5q-24 35 -37 88.5t-13 122.5l-1 965h-281l-1 -965q0 -119 33 -212.5t93 -158.5q58 -63 140.5 -98.5t183.5 -40.5h5h6q-9 -14 -16 -29t-12 -29q-6 -19 -9.5 -37.5
t-3.5 -37.5q0 -51 17.5 -89.5t47.5 -64.5t70.5 -39.5t86.5 -13.5q69 0 113.5 14.5t72.5 29.5l-47 154q-14 -6 -34 -13t-49 -7q-37 0 -52 19.5t-15 48.5q0 20 4 38t12 35q8 15 21 29.5t31 27.5q61 24 110 62.5t83 90.5q41 61 62.5 142t21.5 179z" />
    <glyph glyph-name="uogonek" unicode="&#x173;" 
d="M1080 0h19v1082h-279v-759q-12 -24 -28 -43.5t-37 -34.5q-28 -19 -65 -29.5t-84 -10.5q-49 0 -83 12t-55 40q-21 27 -30.5 72t-9.5 111v642h-278v-640q0 -123 27.5 -210.5t77.5 -143.5q50 -57 120 -83t154 -26q92 0 169.5 46t132.5 127l15 -140q-27 -19 -48.5 -41
t-37.5 -45q-23 -34 -35 -70.5t-12 -72.5q0 -51 17.5 -89.5t47.5 -64.5t70.5 -39.5t86.5 -13.5q69 0 113.5 14.5t72.5 29.5l-47 154q-14 -6 -34 -13t-49 -7q-37 0 -52 19.5t-15 48.5q0 27 7.5 51.5t25.5 46.5t48 42t75 38z" />
    <glyph glyph-name="Wcircumflex" unicode="&#x174;" 
d="M226 0h254l122 786l11 74l11 -74l127 -786h254l202 1456h-258l-99 -816l-7 -61l-9 60l-122 817h-201l-115 -811l-9 -60l-7 57l-97 814h-257zM983 1622l-294 243h-161l-290 -241v-30h217l153 127l154 -127h221v28z" />
    <glyph glyph-name="wcircumflex" unicode="&#x175;" 
d="M221 0h244l115 578l22 110l23 -110l119 -578h244l194 1082h-255l-80 -638l-14 -105l-19 103l-117 640h-186l-117 -643l-19 -103l-13 103l-81 643h-254zM978 1279l-294 243h-161l-290 -241v-30h217l153 127l154 -127h221v28z" />
    <glyph glyph-name="Ycircumflex" unicode="&#x176;" 
d="M628 785l-287 671h-308l451 -940l1 -516h280l1 504l458 952h-309zM1002 1622l-294 243h-161l-290 -241v-30h217l153 127l154 -127h221v28z" />
    <glyph glyph-name="ycircumflex" unicode="&#x177;" 
d="M312 -437q84 0 145.5 28t104.5 69t71.5 89t46.5 89l549 1244h-307l-247 -636l-41 -108l-30 110l-248 634h-304l458 -1036l-64 -119q-12 -22 -20.5 -34t-26.5 -36t-43.5 -44.5t-58.5 -20.5q-16 0 -42.5 1.5t-43.5 1.5l-34 -212q36 -10 65.5 -15t69.5 -5zM1021 1279
l-294 243h-161l-290 -241v-30h217l153 127l154 -127h221v28z" />
    <glyph glyph-name="Ydieresis" unicode="&#x178;" 
d="M628 785l-287 671h-308l451 -940l1 -516h280l1 504l458 952h-309zM246 1714q0 -53 38.5 -88.5t97.5 -35.5t97.5 35.5t38.5 88.5q0 52 -38 88.5t-98 36.5t-98 -36.5t-38 -88.5zM726 1714q0 -54 38 -90t98 -36t98 36t38 90q0 51 -37.5 87.5t-98.5 36.5t-98.5 -36.5
t-37.5 -87.5z" />
    <glyph glyph-name="Zacute" unicode="&#x179;" 
d="M431 227l705 1062l-1 167h-1044v-229h704l-706 -1055v-172h1064v227h-722zM699 1820l-187 -279h216l277 279h-306z" />
    <glyph glyph-name="zacute" unicode="&#x17a;" 
d="M498 223l612 692v167h-978v-226h592l-606 -684v-172h1017v223h-637zM727 1480l-187 -279h216l277 279h-306z" />
    <glyph glyph-name="Zdotaccent" unicode="&#x17b;" 
d="M431 227l705 1062l-1 167h-1044v-229h704l-706 -1055v-172h1064v227h-722zM477 1725q0 -60 40 -99.5t110 -39.5t110 39.5t40 99.5q0 61 -40 100.5t-110 39.5t-110 -39.5t-40 -100.5z" />
    <glyph glyph-name="zdotaccent" unicode="&#x17c;" 
d="M498 223l612 692v167h-978v-226h592l-606 -684v-172h1017v223h-637zM505 1385q0 -60 40 -99.5t110 -39.5t110 39.5t40 99.5q0 61 -40 100.5t-110 39.5t-110 -39.5t-40 -100.5z" />
    <glyph glyph-name="Zcaron" unicode="&#x17d;" 
d="M431 227l705 1062l-1 167h-1044v-229h704l-706 -1055v-172h1064v227h-722zM629 1737l-146 126h-237v-20l296 -252h175l296 253v19h-237z" />
    <glyph glyph-name="zcaron" unicode="&#x17e;" 
d="M498 223l612 692v167h-978v-226h592l-606 -684v-172h1017v223h-637zM656 1397l-146 126h-237v-20l296 -252h175l296 253v19h-237z" />
    <glyph glyph-name="longs" unicode="&#x17f;" 
d="M412 0h277v1101q0 61 17 109t50 81q32 31 78.5 48t106.5 17q32 0 53.5 -3t42.5 -8l24 215q-40 9 -78.5 15t-79.5 6q-114 0 -205 -31.5t-154 -91.5q-64 -61 -98 -150.5t-34 -206.5v-1101z" />
    <glyph glyph-name="florin" unicode="&#x192;" 
d="M945 877v205h-206v79q0 45 12.5 80t38.5 59q28 27 72.5 40.5t104.5 13.5q44 0 77.5 -8t61.5 -22l24 216q-51 17 -98.5 29t-98.5 12q-111 0 -198.5 -27.5t-148.5 -80.5t-93.5 -131.5t-32.5 -180.5v-79h-161v-205h161v-890q0 -56 -12 -98t-38 -66q-18 -17 -44 -26t-60 -9
q-24 0 -73.5 8.5t-69.5 24.5l-15 -221q48 -21 95 -29t95 -8q94 0 168.5 27.5t126.5 81.5q51 54 78.5 133t27.5 182v890h206z" />
    <glyph glyph-name="Ohorn" unicode="&#x1a0;" 
d="M1160 621v212q0 94 -16 176.5t-49 154.5q39 22 68 55.5t48 77.5q18 42 27.5 93.5t9.5 112.5h-194q0 -35 -3 -65t-9 -55q-6 -24 -15.5 -43t-22.5 -32q-31 35 -67.5 64t-77.5 50q-52 26 -112.5 40t-128.5 14q-126 0 -223.5 -48t-164.5 -133q-67 -86 -102 -204t-35 -258
v-212q0 -140 35 -257.5t102 -202.5q67 -86 165 -133.5t224 -47.5t226.5 47.5t170.5 132.5t107 203t37 258zM875 835v-214q0 -89 -15 -164t-45 -129q-31 -55 -79.5 -86t-116.5 -31q-69 0 -115 31t-74 86t-40 130t-12 163v214q0 89 12 164t40 129t74 84.5t114 30.5
q69 0 117.5 -30.5t79.5 -84.5t45.5 -129t14.5 -164z" />
    <glyph glyph-name="ohorn" unicode="&#x1a1;" 
d="M95 551v-21q0 -119 34 -219.5t100 -174.5q65 -74 160.5 -115.5t217.5 -41.5q121 0 216 41.5t160 115.5t99 174.5t34 219.5v21q0 88 -19 166t-56 144q35 22 63 53.5t47 70.5q19 40 29 88.5t10 105.5h-193q0 -37 -4.5 -68t-13.5 -56q-8 -20 -18.5 -36.5t-23.5 -29.5
q-63 54 -146 83.5t-186 29.5q-122 0 -216.5 -42t-159.5 -116q-66 -74 -100 -174.5t-34 -218.5zM373 530v21q0 66 13 125t41 104t72 71t106 26q63 0 107 -26t72 -71q27 -45 40 -104t13 -125v-21q0 -68 -13 -127.5t-40 -103.5q-28 -45 -72 -71t-105 -26q-63 0 -107.5 26
t-72.5 71q-28 44 -41 103.5t-13 127.5z" />
    <glyph glyph-name="Uhorn" unicode="&#x1af;" 
d="M1108 1456h-279l-1 -965q-1 -73 -15.5 -128t-43.5 -90q-27 -33 -65.5 -50t-88.5 -17q-52 0 -91 21t-64 62q-21 35 -32.5 86t-11.5 116l-1 965h-281l-1 -965q0 -122 34.5 -217.5t97.5 -160.5t151.5 -99t198.5 -34q117 0 208.5 34t155.5 100q63 65 96 160t33 217v612
q96 3 163.5 30t110.5 78q42 50 61.5 124.5t19.5 173.5h-200q0 -60 -4.5 -105.5t-20.5 -75.5q-16 -31 -47 -48t-83 -20v196z" />
    <glyph glyph-name="uhorn" unicode="&#x1b0;" 
d="M1375 1178h-198q0 -58 -8.5 -102t-27.5 -76q-13 -21 -31.5 -36.5t-42.5 -26.5v145h-279v-759q-12 -24 -28.5 -44t-38.5 -35q-27 -19 -64 -29t-83 -10q-49 0 -83 12t-55 40q-21 27 -30.5 72t-9.5 111v642h-278v-640q0 -123 27.5 -210.5t77.5 -143.5q50 -57 120 -83
t154 -26q92 0 169.5 46t132.5 127l16 -152h252v768q156 26 232 126t76 284z" />
    <glyph glyph-name="uni01F0" unicode="&#x1f0;" 
d="M310 1082v-227h274v-880q0 -52 -15 -86.5t-41 -55.5t-61 -30t-75 -9q-11 0 -31 0.5t-43 2.5q-23 1 -44.5 3.5t-33.5 5.5l-14 -226q20 -5 40 -8t41 -5q25 -2 50 -3t49 -1q109 0 194 24t144 75q58 50 89 127.5t31 185.5v1107h-554zM733 1378l-146 126h-237v-20l296 -252
h175l296 253v19h-237z" />
    <glyph glyph-name="Aringacute" unicode="&#x1fa;" 
d="M847 304l85 -304h296l-468 1456h-255l-477 -1456h296l86 304h437zM479 543l153 536l149 -536h-302zM744 2134l-182 -204h182l263 204h-263zM435 1705q0 -40 15.5 -73t42.5 -57t63.5 -37.5t77.5 -13.5t76.5 13t62.5 37q26 24 41 57.5t15 73.5q0 39 -15 73t-41 59
q-27 24 -62.5 38t-76.5 14t-77.5 -14t-63.5 -38q-27 -25 -42.5 -59t-15.5 -73zM545 1705q0 40 25.5 65t63.5 25t61.5 -25t23.5 -65q0 -38 -23.5 -63t-61.5 -25t-63.5 25t-25.5 63z" />
    <glyph glyph-name="aringacute" unicode="&#x1fb;" 
d="M817 0h282v17q-21 41 -32 98t-11 144v464q0 94 -35 165.5t-97 118.5t-146.5 71t-182.5 24q-109 0 -193.5 -27.5t-142.5 -74.5q-59 -47 -89.5 -109t-30.5 -131h278q0 29 8.5 53t26.5 41q20 19 52 29.5t76 10.5q50 0 87.5 -12.5t62.5 -35.5q24 -22 36 -52.5t12 -68.5v-64
h-155q-120 0 -212.5 -21.5t-155.5 -62.5q-70 -45 -105 -114.5t-35 -159.5q0 -70 28 -129.5t78 -102.5t119.5 -67t152.5 -24q51 0 95 9.5t81 26.5q36 16 66 38t53 47q5 -29 12 -55t17 -46zM552 195q-39 0 -68.5 9.5t-49.5 25.5q-20 17 -30.5 41.5t-10.5 53.5q0 37 14 68.5
t43 54.5q29 22 75 34.5t111 12.5h142v-186q-12 -21 -33 -41.5t-50 -36.5t-65 -26t-78 -10zM707 1812l-182 -204h182l263 204h-263zM398 1383q0 -40 15.5 -73t42.5 -57t63.5 -37.5t77.5 -13.5t76.5 13t62.5 37q26 24 41 57.5t15 73.5q0 39 -15 73t-41 59q-27 24 -62.5 38
t-76.5 14t-77.5 -14t-63.5 -38q-27 -25 -42.5 -59t-15.5 -73zM508 1383q0 40 25.5 65t63.5 25t61.5 -25t23.5 -65q0 -38 -23.5 -63t-61.5 -25t-63.5 25t-25.5 63z" />
    <glyph glyph-name="AEacute" unicode="&#x1fc;" 
d="M1177 0v226h-269v409h217v227h-217v366h248v228h-629l-479 -1456h282l94 334h217v-334h536zM491 574l150 532v-532h-150zM799 1823l-187 -279h216l277 279h-306z" />
    <glyph glyph-name="aeacute" unicode="&#x1fd;" 
d="M868 -20q50 0 95 6.5t84 17.5q38 11 68.5 25.5t50.5 30.5l-55 192q-21 -9 -41 -18t-42 -15q-23 -7 -50 -11.5t-61 -4.5q-32 0 -57.5 5t-44.5 15q-21 11 -35 26.5t-23 34.5q-7 17 -10.5 37t-3.5 42v91h451v245q0 93 -23.5 168t-65.5 127q-43 52 -103.5 80t-134.5 28
q-42 1 -79 -6t-68 -20q-23 -9 -43 -21.5t-37 -27.5q-17 15 -35.5 26.5t-39.5 20.5q-33 14 -72.5 21t-84.5 7q-79 0 -141.5 -22.5t-106.5 -63.5t-67.5 -100t-23.5 -131l261 -9q0 24 4 41.5t13 29.5q11 16 30 23t45 7q17 0 29.5 -4.5t22.5 -14.5q13 -13 19.5 -36t6.5 -55v-119
h-3q-126 0 -218 -29.5t-148 -86.5q-42 -43 -63.5 -102.5t-21.5 -132.5q0 -72 21 -131t62 -100q40 -41 99 -63.5t136 -22.5q41 0 75.5 9.5t64.5 25.5q29 16 52.5 38t41.5 46q18 -23 40 -42t47 -33q38 -22 83.5 -33t99.5 -11zM434 185q-29 0 -50.5 8t-34.5 23
q-13 14 -19.5 33.5t-6.5 43.5q0 34 11.5 65t34.5 55q22 23 54.5 37t75.5 14h1v-60v-52v-63v-75q-4 -5 -10 -10t-13 -8q-10 -5 -21.5 -8t-21.5 -3zM938 643h-195v61q0 21 1 40.5t4 36.5q4 26 13 46.5t25 32.5q11 8 26 12.5t35 4.5q24 0 41 -8t28 -23q11 -16 16.5 -39t5.5 -52
v-112zM726 1502l-187 -279h216l277 279h-306z" />
    <glyph glyph-name="Oslashacute" unicode="&#x1fe;" 
d="M1152 621v212q0 138 -35.5 253.5t-103.5 201.5l130 230h-184l-68 -120q-26 17 -55 30.5t-59 23.5q-38 12 -80 18t-87 6q-126 0 -223.5 -48t-164.5 -133q-67 -86 -102 -204t-35 -258v-212q0 -66 7.5 -127.5t22.5 -116.5q15 -54 37.5 -103t52.5 -91l-157 -278h183l91 160
q59 -42 131 -63.5t158 -21.5q126 0 226.5 47.5t170.5 132.5t107 203t37 258zM370 621v214q0 89 12 164t40 129t74 84.5t114 30.5q25 0 48 -4.5t43 -12.5q19 -8 35.5 -19.5t31.5 -26.5l-390 -691q-2 13 -3 26l-2 26q-2 19 -2.5 39t-0.5 41zM867 835v-214q0 -89 -15 -164
t-45 -129q-31 -55 -79.5 -86t-116.5 -31q-55 0 -95 20t-69 56l404 715q8 -38 12 -80t4 -87zM685 1885l-187 -279h216l277 279h-306z" />
    <glyph glyph-name="oslashacute" unicode="&#x1ff;" 
d="M103 551v-21q0 -150 54 -270.5t157 -192.5l-102 -208h157l71 146q41 -13 84.5 -19.5t90.5 -6.5q121 0 216 41.5t160 115.5t99 174.5t34 219.5v21q0 82 -16 155.5t-48 135.5q-24 47 -57 87.5t-75 72.5l104 213h-157l-71 -145q-43 16 -91 24t-100 8q-122 0 -216.5 -42
t-159.5 -116q-66 -74 -100 -174.5t-34 -218.5zM381 530v21q0 66 13 125t41 104t72 71t106 26q25 0 47 -4t41 -13l-271 -555q-26 44 -37.5 101.5t-11.5 123.5zM845 551v-21q0 -68 -13 -127.5t-40 -103.5q-28 -45 -72 -71t-105 -26q-19 0 -37 3t-36 8l264 540q9 -19 16 -41
t12 -45q6 -27 8.5 -56t2.5 -60zM648 1497l-187 -279h216l277 279h-306z" />
    <glyph glyph-name="uni0218" unicode="&#x218;" 
d="M887 380q0 -39 -16 -71.5t-46 -55.5t-73.5 -36t-99.5 -13q-63 0 -115.5 14t-89.5 44q-38 30 -59 77t-23 113h-276q0 -113 43.5 -197t118.5 -146q79 -63 185.5 -95.5t215.5 -32.5q111 0 205 26.5t162 78.5q68 51 106.5 125.5t38.5 170.5q0 111 -51 196t-137 149
q-57 39 -125 69t-143 51q-70 19 -125.5 41t-94.5 49q-39 26 -59.5 59t-20.5 74q0 39 15.5 72.5t45.5 58.5q30 24 73.5 37.5t99.5 13.5q61 0 106.5 -16.5t76.5 -45.5q30 -30 45.5 -71t17.5 -90h274q0 98 -38 180t-106 142q-68 59 -162.5 92t-208.5 33q-110 0 -204 -28.5
t-163 -81.5t-108 -128t-39 -167q0 -80 29.5 -148t87.5 -124t149.5 -103t212.5 -80q78 -21 130.5 -45.5t85.5 -53.5q32 -30 45.5 -64t13.5 -73zM756 -148v69h-190v-72q0 -76 -18.5 -141.5t-56.5 -128.5l113 -76q78 68 115 165t37 184z" />
    <glyph glyph-name="uni0219" unicode="&#x219;" 
d="M839 297q0 -25 -12.5 -46t-37.5 -37q-26 -16 -66.5 -25.5t-94.5 -9.5q-45 0 -87.5 9t-75.5 29q-33 19 -54 50.5t-24 75.5h-265q0 -66 32.5 -131.5t95.5 -116.5q63 -52 156.5 -84t215.5 -32q111 0 201 24.5t154 68.5q63 44 97.5 104.5t34.5 132.5q0 78 -34.5 134.5
t-95.5 96.5q-61 39 -145 64t-182 41q-68 10 -112 23.5t-69 30.5q-26 16 -36 36.5t-10 44.5t11.5 45.5t33.5 37.5q24 18 62 28t89 10q60 0 102.5 -15t67.5 -40q18 -19 27 -42.5t9 -50.5h278q0 75 -33 139t-95 111q-63 46 -153 72.5t-203 26.5q-108 0 -194 -27t-146 -73
t-92 -107t-32 -128q0 -69 31.5 -122t87.5 -93q56 -41 134.5 -69.5t173.5 -47.5q75 -14 124 -28t79 -30q29 -17 40.5 -36t11.5 -44zM692 -148v69h-190v-72q0 -76 -18.5 -141.5t-56.5 -128.5l113 -76q78 68 115 165t37 184z" />
    <glyph glyph-name="uni021A" unicode="&#x21a;" 
d="M1201 1227v229h-1174v-229h443v-1227h282v1227h449zM712 -125v69h-190v-72q0 -76 -18.5 -141.5t-56.5 -128.5l113 -76q78 68 115 165t37 184z" />
    <glyph glyph-name="uni021B" unicode="&#x21b;" 
d="M651 1347h-278v-265h-247v-205h247v-492q0 -107 28 -183.5t80 -125.5q51 -50 123.5 -73.5t161.5 -23.5q46 0 93.5 4.5t91.5 12.5t83 20.5t68 29.5l-27 191q-19 -5 -45.5 -10t-56.5 -9q-31 -5 -64.5 -8t-65.5 -3q-44 0 -79.5 10t-60.5 34q-25 23 -38.5 62.5t-13.5 98.5
v465h404v205h-404v265zM778 -138v69h-190v-72q0 -76 -18.5 -141.5t-56.5 -128.5l113 -76q78 68 115 165t37 184z" />
    <glyph glyph-name="uni0237" unicode="&#x237;" 
d="M310 1082v-227h274v-880q0 -52 -15 -86.5t-41 -55.5t-61 -30t-75 -9q-11 0 -31 0.5t-43 2.5q-23 1 -44.5 3.5t-33.5 5.5l-14 -226q20 -5 40 -8t41 -5q25 -2 50 -3t49 -1q109 0 194 24t144 75q58 50 89 127.5t31 185.5v1107h-554z" />
    <glyph glyph-name="schwa" unicode="&#x259;" 
d="M608 1103q-75 0 -140 -11t-119 -28q-54 -18 -96 -40.5t-72 -46.5l79 -180q31 17 64 32t71 26t83.5 17.5t102.5 6.5q63 0 111.5 -19.5t83.5 -53.5q32 -33 52 -77.5t29 -95.5v-4v-2h-701v-158q0 -111 31 -201t92 -153q60 -64 149.5 -99t206.5 -35q114 -1 207 40.5
t159 115.5q66 73 102 174t36 220v40q0 113 -37 210t-105 169q-69 71 -167.5 112t-221.5 41zM635 204q-54 0 -93 15.5t-64 42.5t-37 64.5t-12 82.5v25h424q-9 -50 -26.5 -92t-44.5 -72q-27 -31 -64 -48.5t-83 -17.5z" />
    <glyph glyph-name="uni02BC" unicode="&#x2bc;" 
d="M776 1387v173h-223v-173q0 -97 -24.5 -172t-62.5 -140l127 -79q39 35 72 81.5t58 98.5q25 51 39 105.5t14 105.5z" />
    <glyph glyph-name="circumflex" unicode="&#x2c6;" 
d="M874 1273l-294 243h-161l-290 -241v-30h217l153 127l154 -127h221v28z" />
    <glyph glyph-name="caron" unicode="&#x2c7;" 
d="M632 1391l-146 126h-237v-20l296 -252h175l296 253v19h-237z" />
    <glyph glyph-name="breve" unicode="&#x2d8;" 
d="M974 1442h-201q0 -26 -7.5 -50.5t-23.5 -42.5q-17 -19 -43.5 -30t-64.5 -11q-39 0 -65.5 11t-43.5 30q-17 18 -24.5 42.5t-7.5 50.5h-200q0 -65 23.5 -119t68.5 -92q44 -39 107 -60.5t142 -21.5q78 0 141 21.5t108 60.5q44 38 67.5 92t23.5 119z" />
    <glyph glyph-name="dotaccent" unicode="&#x2d9;" 
d="M472 1363q0 -60 40 -99.5t110 -39.5t110 39.5t40 99.5q0 61 -40 100.5t-110 39.5t-110 -39.5t-40 -100.5z" />
    <glyph glyph-name="ring" unicode="&#x2da;" 
d="M403 1231q0 -42 16.5 -77.5t45.5 -60.5q29 -26 68 -40t83 -14t82 14t66 40q28 25 44 60.5t16 77.5t-16 78t-44 62t-66 41t-82 15t-83 -15t-68 -41t-45.5 -62t-16.5 -78zM517 1231q0 22 7.5 40t19.5 31q13 14 32 21.5t40 7.5t38.5 -7t30.5 -20q12 -13 19 -32t7 -41
q0 -23 -7.5 -41.5t-21.5 -31.5q-12 -12 -29 -18.5t-37 -6.5q-21 0 -39 7t-31 19q-13 13 -21 31.5t-8 40.5z" />
    <glyph glyph-name="ogonek" unicode="&#x2db;" 
d="M748 0l-153 60q-43 -20 -77.5 -45t-60.5 -53q-38 -41 -57 -87t-19 -92q0 -51 17.5 -89.5t47.5 -64.5t70.5 -39.5t86.5 -13.5q69 0 113.5 14.5t72.5 29.5l-47 154q-14 -6 -34 -13t-49 -7q-37 0 -52 19.5t-15 48.5q0 27 7.5 51.5t25.5 46.5t48 42t75 38z" />
    <glyph glyph-name="tilde" unicode="&#x2dc;" 
d="M856 1511l-140 31q0 -21 -6.5 -38.5t-17.5 -29.5q-12 -14 -29.5 -21.5t-36.5 -7.5q-38 0 -72 13.5t-67 30.5q-34 16 -69 29.5t-75 13.5q-49 0 -88.5 -22t-67.5 -57t-43.5 -79t-15.5 -88l140 -30q0 23 7 41.5t20 30.5q12 13 28 19.5t34 6.5q39 0 70 -13.5t63 -29.5
q31 -17 66.5 -30.5t83.5 -13.5q49 0 88.5 21t68.5 56q28 34 43.5 78t15.5 89z" />
    <glyph glyph-name="hungarumlaut" unicode="&#x2dd;" 
d="M780 1518l-245 -265h212l306 265h-273zM413 1518l-203 -265h206l258 265h-261z" />
    <glyph glyph-name="uni02F3" unicode="&#x2f3;" 
d="M441 -222q0 -32 13 -59.5t36 -46.5q22 -20 52.5 -31t65.5 -11q34 0 64 11t52 31q22 19 34.5 46t12.5 60t-12.5 61t-34.5 49q-22 20 -52 31.5t-64 11.5q-35 0 -65.5 -11.5t-52.5 -31.5q-23 -21 -36 -49t-13 -61zM551 -222q0 26 16 42.5t41 16.5q23 0 38 -16.5t15 -42.5
q0 -24 -15 -39.5t-38 -15.5q-25 0 -41 15.5t-16 39.5z" />
    <glyph glyph-name="gravecomb" unicode="&#x300;" 
d="M-483 1210l-164 350h-225l219 -350h170z" />
    <glyph glyph-name="acutecomb" unicode="&#x301;" 
d="M-510 1561l-146 -352h166l204 352h-224z" />
    <glyph glyph-name="tildecomb" unicode="&#x303;" 
d="M-185 1511l-140 31q0 -21 -6.5 -38.5t-17.5 -29.5q-12 -14 -29.5 -21.5t-36.5 -7.5q-38 0 -72 13.5t-67 30.5q-34 16 -69 29.5t-75 13.5q-49 0 -88.5 -22t-67.5 -57t-43.5 -79t-15.5 -88l140 -30q0 23 7 41.5t20 30.5q12 13 28 19.5t34 6.5q39 0 70 -13.5t63 -29.5
q31 -17 66.5 -30.5t83.5 -13.5q49 0 88.5 21t68.5 56q28 34 43.5 78t15.5 89z" />
    <glyph glyph-name="hook" unicode="&#x309;" 
d="M-710 1263h207v66q28 4 55 14t48 28q21 17 34 42.5t13 60.5q0 49 -28 88t-83 64q-46 21 -111 32t-148 11l-7 -133q31 0 58 -3.5t46 -11.5t30 -21.5t11 -33.5q0 -15 -6.5 -25.5t-20.5 -18.5q-17 -9 -44.5 -14t-66.5 -8z" />
    <glyph glyph-name="uni030F" unicode="&#x30f;" 
d="M-508 1252l-245 266h-280l293 -266h232zM-178 1252l-196 266h-273l245 -266h224z" />
    <glyph glyph-name="dotbelow" unicode="&#x323;" 
d="M-755 -224q0 -60 43 -100t119 -40q74 0 118 40t44 100q0 59 -43.5 100t-118.5 41q-77 0 -119.5 -41t-42.5 -100z" />
    <glyph glyph-name="tonos" unicode="&#x384;" 
d="M661 1665l-80 -399h140l217 399h-277z" />
    <glyph glyph-name="dieresistonos" unicode="&#x385;" 
d="M646 1801l-43 -324h147l168 324h-272zM259 1353q0 -53 38.5 -91t103.5 -38q61 0 101 37t40 92q0 56 -39.5 93.5t-101.5 37.5q-66 0 -104 -38.5t-38 -92.5zM808 1355q0 -56 39 -93.5t103 -37.5q60 0 100.5 36.5t40.5 94.5q0 56 -39.5 93t-101.5 37q-66 0 -104 -38t-38 -92
z" />
    <glyph glyph-name="Alphatonos" unicode="&#x386;" 
d="M847 304l85 -304h296l-468 1456h-255l-477 -1456h296l86 304h437zM479 543l153 536l149 -536h-302zM118 1665l-80 -399h140l217 399h-277z" />
    <glyph glyph-name="anoteleia" unicode="&#x387;" 
d="M557 701q0 -63 42.5 -106t115.5 -43q71 0 114.5 42t43.5 107t-43.5 107.5t-114.5 42.5q-73 0 -115.5 -43.5t-42.5 -106.5z" />
    <glyph glyph-name="Epsilontonos" unicode="&#x388;" 
d="M1107 638v222h-598v367h696v229h-978v-1456h981v227h-699v411h598zM-24 1667l-80 -399h140l217 399h-277z" />
    <glyph glyph-name="Etatonos" unicode="&#x389;" 
d="M1186 0v1456h-278v-597h-412v597h-279v-1456h279v631h412v-631h278zM-4 1663l-80 -399h140l217 399h-277z" />
    <glyph glyph-name="Iotatonos" unicode="&#x38a;" 
d="M220 1456v-227h277v-1003h-277v-226h842v226h-284v1003h284v227h-842zM-4 1667l-80 -399h140l217 399h-277z" />
    <glyph glyph-name="Omicrontonos" unicode="&#x38c;" 
d="M1157 621v212q0 99 -18.5 187t-53.5 162q-32 65 -76.5 119t-103.5 92q-59 40 -132.5 61.5t-157.5 21.5q-83 0 -154 -21t-128 -60q-58 -40 -102.5 -96t-75.5 -125q-32 -73 -48.5 -159t-16.5 -182v-212q0 -90 14.5 -171t42.5 -150q31 -75 77 -134.5t104 -101.5
q59 -40 131 -62t157 -22q80 0 149.5 19.5t127.5 54.5q64 40 114 100t84 132q32 72 49 156.5t17 178.5zM872 835v-214q0 -54 -5.5 -104t-16.5 -92q-14 -54 -37.5 -96.5t-57.5 -70.5q-27 -23 -62 -35t-77 -12q-44 0 -78.5 13t-61.5 37q-29 27 -50.5 70.5t-32.5 96.5
q-10 42 -14 91t-4 102v214q0 56 4.5 107t14.5 94q13 56 36.5 98t57.5 70q25 19 56.5 29t70.5 10q41 0 74.5 -11t60.5 -31q34 -27 59 -69.5t40 -96.5q12 -43 17.5 -93.5t5.5 -106.5zM-32 1665l-80 -399h140l217 399h-277z" />
    <glyph glyph-name="Upsilontonos" unicode="&#x38e;" 
d="M732 786l-287 671h-308l451 -940l1 -516h280l1 504l458 952h-309zM-54 1666l-80 -399h140l217 399h-277z" />
    <glyph glyph-name="Omegatonos" unicode="&#x38f;" 
d="M687 272v-272h470v228h-273q59 43 110.5 104t89.5 135q37 74 58.5 160t21.5 178v51q0 136 -39 250t-109 197q-71 82 -169.5 127.5t-217.5 45.5t-217 -45.5t-168 -127.5q-70 -83 -109 -197t-39 -250v-51q0 -92 21.5 -177.5t59.5 -159.5q38 -75 89.5 -136t111.5 -104h-268
v-228h469v272q-40 16 -72 54.5t-55 103.5t-35.5 158t-12.5 217v53q0 94 15 165.5t42 120.5q29 51 72 76.5t96 25.5q45 0 82 -17t64 -51q39 -47 59.5 -127.5t20.5 -192.5v-53q0 -123 -12 -216t-34 -158q-23 -65 -54 -104t-68 -55zM-5 1665l-80 -399h140l217 399h-277z" />
    <glyph glyph-name="iotadieresistonos" unicode="&#x390;" 
d="M179 1082v-227h283v-500q0 -103 24.5 -174.5t72.5 -116.5q47 -45 117 -65t162 -20q32 0 63 3t62 11q30 8 61 23t63 39l-45 201q-27 -17 -66.5 -32t-84.5 -15q-30 0 -57 3.5t-47 18.5t-32 45t-12 84v722h-564zM602 1728l-43 -324h147l168 324h-272zM215 1280
q0 -53 38.5 -91t103.5 -38q61 0 101 37t40 92q0 56 -39.5 93.5t-101.5 37.5q-66 0 -104 -38.5t-38 -92.5zM764 1282q0 -56 39 -93.5t103 -37.5q60 0 100.5 36.5t40.5 94.5q0 56 -39.5 93t-101.5 37q-66 0 -104 -38t-38 -92z" />
    <glyph glyph-name="Alpha" unicode="&#x391;" 
d="M847 304l85 -304h296l-468 1456h-255l-477 -1456h296l86 304h437zM479 543l153 536l149 -536h-302z" />
    <glyph glyph-name="Beta" unicode="&#x392;" 
d="M129 0h531q120 0 216 27t163 81t103 134t36 185q0 55 -14.5 106.5t-44.5 95.5q-29 41 -71.5 72t-114.5 51v1q37 14 67.5 34t54.5 44q44 44 66.5 102.5t23.5 124.5q0 102 -37.5 177t-106.5 124t-166.5 73t-216.5 24h-489v-1456zM411 642h262q59 -1 102 -16t70 -43
q27 -27 39.5 -66t12.5 -88q0 -47 -16.5 -85t-48.5 -65q-29 -24 -72.5 -38t-98.5 -14h-250v415zM411 845v382h208q68 -1 118.5 -15t80.5 -45q23 -22 34.5 -55t11.5 -77q0 -42 -13.5 -75t-38.5 -56q-30 -29 -79 -43.5t-113 -15.5h-209z" />
    <glyph glyph-name="Gamma" unicode="&#x393;" 
d="M1083 1228v228h-942v-1456h281v1228h661z" />
    <glyph glyph-name="Delta" unicode="&#x394;" 
d="M523 1456l-488 -1456h1245l-473 1456h-284zM399 226l250 812l13 41l12 -41l244 -812h-519z" />
    <glyph glyph-name="Delta" unicode="&#x2206;" 
d="M523 1456l-488 -1456h1245l-473 1456h-284zM399 226l250 812l13 41l12 -41l244 -812h-519z" />
    <glyph glyph-name="Epsilon" unicode="&#x395;" 
d="M1027 638v222h-598v367h696v229h-978v-1456h981v227h-699v411h598z" />
    <glyph glyph-name="Zeta" unicode="&#x396;" 
d="M431 227l705 1062l-1 167h-1044v-229h704l-706 -1055v-172h1064v227h-722z" />
    <glyph glyph-name="Eta" unicode="&#x397;" 
d="M1092 0v1456h-278v-597h-412v597h-279v-1456h279v631h412v-631h278z" />
    <glyph glyph-name="Theta" unicode="&#x398;" 
d="M818 614v223h-388v-223h388zM1158 621v212q0 140 -37 258t-107 204q-70 85 -170.5 133t-227.5 48q-126 0 -223.5 -48t-164.5 -133q-67 -86 -102 -204t-35 -258v-212q0 -140 35 -257.5t102 -202.5q67 -86 165 -133.5t224 -47.5t226.5 47.5t170.5 132.5t107 203t37 258z
M873 835v-214q0 -89 -15 -164t-45 -129q-31 -55 -79.5 -86t-116.5 -31q-69 0 -115 31t-74 86t-40 130t-12 163v214q0 89 12 164t40 129t74 84.5t114 30.5q69 0 117.5 -30.5t79.5 -84.5t45.5 -129t14.5 -164z" />
    <glyph glyph-name="Iota" unicode="&#x399;" 
d="M193 1456v-227h277v-1003h-277v-226h842v226h-284v1003h284v227h-842z" />
    <glyph glyph-name="Kappa" unicode="&#x39a;" 
d="M565 598l360 -598h334l-508 812l490 644h-344l-354 -489l-132 -178v667h-282v-1456h282v429z" />
    <glyph glyph-name="Lambda" unicode="&#x39b;" 
d="M612 1079l298 -1079h294l-449 1456h-284l-448 -1456h293z" />
    <glyph glyph-name="Mu" unicode="&#x39c;" 
d="M476 1456h-349v-1456h258v431l-12 654l171 -605h139l191 632l-12 -681v-431h258v1456h-349l-157 -547z" />
    <glyph glyph-name="Nu" unicode="&#x39d;" 
d="M1091 0v1456h-282l-1 -935l-402 935h-283v-1456h283v939l405 -939h280z" />
    <glyph glyph-name="Xi" unicode="&#x39e;" 
d="M121 226v-226h975v226h-975zM229 849v-219h756v219h-756zM140 1456v-228h920v228h-920z" />
    <glyph glyph-name="Omicron" unicode="&#x39f;" 
d="M1147 621v212q0 99 -18.5 187t-53.5 162q-32 65 -76.5 119t-103.5 92q-59 40 -132.5 61.5t-157.5 21.5q-83 0 -154 -21t-128 -60q-58 -40 -102.5 -96t-75.5 -125q-32 -73 -48.5 -159t-16.5 -182v-212q0 -90 14.5 -171t42.5 -150q31 -75 77 -134.5t104 -101.5
q59 -40 131 -62t157 -22q80 0 149.5 19.5t127.5 54.5q64 40 114 100t84 132q32 72 49 156.5t17 178.5zM862 835v-214q0 -54 -5.5 -104t-16.5 -92q-14 -54 -37.5 -96.5t-57.5 -70.5q-27 -23 -62 -35t-77 -12q-44 0 -78.5 13t-61.5 37q-29 27 -50.5 70.5t-32.5 96.5
q-10 42 -14 91t-4 102v214q0 56 4.5 107t14.5 94q13 56 36.5 98t57.5 70q25 19 56.5 29t70.5 10q41 0 74.5 -11t60.5 -31q34 -27 59 -69.5t40 -96.5q12 -43 17.5 -93.5t5.5 -106.5z" />
    <glyph glyph-name="Pi" unicode="&#x3a0;" 
d="M1095 0v1456h-974v-1456h281v1228h412v-1228h281z" />
    <glyph glyph-name="Rho" unicode="&#x3a1;" 
d="M430 534h217q119 0 215 34t164 95q67 60 103.5 143t36.5 181q0 105 -36.5 191t-103.5 148q-68 61 -164 95.5t-215 34.5h-498v-1456h281v534zM430 762v466h217q60 0 104 -19t74 -52q29 -33 43.5 -77t14.5 -95q0 -44 -14.5 -84.5t-43.5 -71.5q-30 -31 -74 -49t-104 -18
h-217z" />
    <glyph glyph-name="Sigma" unicode="&#x3a3;" 
d="M856 724v17l-363 487h622v228h-1004v-152l448 -571l-448 -581v-151h1033v224h-656z" />
    <glyph glyph-name="Tau" unicode="&#x3a4;" 
d="M1201 1227v229h-1174v-229h443v-1227h282v1227h449z" />
    <glyph glyph-name="Upsilon" unicode="&#x3a5;" 
d="M628 785l-287 671h-308l451 -940l1 -516h280l1 504l458 952h-309z" />
    <glyph glyph-name="Phi" unicode="&#x3a6;" 
d="M804 1260v196h-280v-196q-102 -11 -186.5 -54t-144.5 -113q-61 -71 -94.5 -166t-33.5 -209q0 -112 33.5 -204.5t94.5 -160.5q60 -69 144.5 -111t186.5 -53v-189h280v189q102 11 186 53.5t145 111.5q60 69 93.5 161.5t33.5 204.5q0 114 -33.5 208.5t-93.5 164.5
q-61 70 -145 113t-186 54zM341 718q0 68 14.5 121t41.5 91q23 33 55.5 54t71.5 31v-581q-40 10 -73 31t-57 54q-25 35 -39 85.5t-14 113.5zM984 720q0 -67 -15 -119.5t-43 -88.5q-23 -29 -54 -48.5t-68 -28.5v580q32 -8 59.5 -24t48.5 -39q34 -38 53 -96.5t19 -135.5z" />
    <glyph glyph-name="Chi" unicode="&#x3a7;" 
d="M624 934l-255 522h-328l409 -722l-420 -734h332l266 530l267 -530h328l-420 734l410 722h-330z" />
    <glyph glyph-name="Psi" unicode="&#x3a8;" 
d="M807 575v881h-280v-881q-40 10 -72 32t-54 57q-25 39 -38 95t-13 131v566h-281v-566q0 -128 32.5 -225.5t92.5 -165.5t144.5 -106.5t188.5 -48.5v-344h280v345q99 12 179.5 52t137.5 108q57 67 88 163t31 222v566h-282v-566q0 -76 -11 -132.5t-32 -94.5q-19 -34 -47 -56
t-64 -32z" />
    <glyph glyph-name="Omega" unicode="&#x3a9;" 
d="M677 272v-272h470v228h-273q59 43 110.5 104t89.5 135q37 74 58.5 160t21.5 178v51q0 136 -39 250t-109 197q-71 82 -169.5 127.5t-217.5 45.5t-217 -45.5t-168 -127.5q-70 -83 -109 -197t-39 -250v-51q0 -92 21.5 -177.5t59.5 -159.5q38 -75 89.5 -136t111.5 -104h-268
v-228h469v272q-40 16 -72 54.5t-55 103.5t-35.5 158t-12.5 217v53q0 94 15 165.5t42 120.5q29 51 72 76.5t96 25.5q45 0 82 -17t64 -51q39 -47 59.5 -127.5t20.5 -192.5v-53q0 -123 -12 -216t-34 -158q-23 -65 -54 -104t-68 -55z" />
    <glyph glyph-name="Omega" unicode="&#x2126;" 
d="M677 272v-272h470v228h-273q59 43 110.5 104t89.5 135q37 74 58.5 160t21.5 178v51q0 136 -39 250t-109 197q-71 82 -169.5 127.5t-217.5 45.5t-217 -45.5t-168 -127.5q-70 -83 -109 -197t-39 -250v-51q0 -92 21.5 -177.5t59.5 -159.5q38 -75 89.5 -136t111.5 -104h-268
v-228h469v272q-40 16 -72 54.5t-55 103.5t-35.5 158t-12.5 217v53q0 94 15 165.5t42 120.5q29 51 72 76.5t96 25.5q45 0 82 -17t64 -51q39 -47 59.5 -127.5t20.5 -192.5v-53q0 -123 -12 -216t-34 -158q-23 -65 -54 -104t-68 -55z" />
    <glyph glyph-name="Iotadieresis" unicode="&#x3aa;" 
d="M193 1456v-227h277v-1003h-277v-226h842v226h-284v1003h284v227h-842zM219 1714q0 -53 38.5 -88.5t97.5 -35.5t97.5 35.5t38.5 88.5q0 52 -38 88.5t-98 36.5t-98 -36.5t-38 -88.5zM699 1714q0 -54 38 -90t98 -36t98 36t38 90q0 51 -37.5 87.5t-98.5 36.5t-98.5 -36.5
t-37.5 -87.5z" />
    <glyph glyph-name="Upsilondieresis" unicode="&#x3ab;" 
d="M628 785l-287 671h-308l451 -940l1 -516h280l1 504l458 952h-309zM246 1714q0 -53 38.5 -88.5t97.5 -35.5t97.5 35.5t38.5 88.5q0 52 -38 88.5t-98 36.5t-98 -36.5t-38 -88.5zM726 1714q0 -54 38 -90t98 -36t98 36t38 90q0 51 -37.5 87.5t-98.5 36.5t-98.5 -36.5
t-37.5 -87.5z" />
    <glyph glyph-name="alphatonos" unicode="&#x3ac;" 
d="M1028 1082h-191l-53 -110l-3 -7q-18 24 -38.5 44.5t-43.5 36.5q-39 27 -86.5 41.5t-103.5 14.5q-98 0 -173 -42t-126 -118t-77.5 -180.5t-26.5 -229.5v-21q0 -117 26.5 -214.5t77.5 -167.5q51 -71 125.5 -110t171.5 -39q56 0 103 13.5t85 37.5q27 17 50 39.5t43 49.5
q15 -30 34.5 -53.5t44.5 -40.5q34 -24 78 -35.5t96 -11.5q35 0 64.5 5t61.5 21l-24 209q-9 -2 -19.5 -3.5t-23.5 -1.5q-15 0 -27.5 4.5t-21.5 15.5q-11 13 -17 36t-6 58v759zM384 511v21q0 71 10.5 133.5t33.5 109.5t60.5 74.5t90.5 27.5q31 0 57 -5t48 -15q20 -10 36.5 -23
t29.5 -30v-481v-23.5t1 -22.5q-12 -16 -27.5 -29t-35.5 -23q-22 -11 -50 -16.5t-61 -5.5q-54 0 -90.5 23.5t-59.5 64.5t-33 97.5t-10 122.5zM615 1676l-80 -399h140l217 399h-277z" />
    <glyph glyph-name="epsilontonos" unicode="&#x3ad;" 
d="M132 306q0 -77 39 -137.5t110 -102.5t170 -64t218 -22q94 0 185.5 20t164.5 62q72 41 116.5 105t44.5 153h-277q0 -26 -16.5 -49.5t-47.5 -41.5q-32 -18 -78.5 -28.5t-105.5 -10.5q-65 0 -111.5 11.5t-75.5 30.5q-30 18 -44 42t-14 50q0 31 10.5 54.5t32.5 39.5
q16 12 38.5 20t51.5 12q24 4 52 6t60 2h230v188h-230q-28 0 -52 1.5t-44 5.5q-25 4 -45 10.5t-34 15.5q-27 16 -38.5 37.5t-11.5 48.5q0 23 10.5 45.5t36.5 40.5q26 17 69.5 28t109.5 11q49 0 90.5 -8t72.5 -23q31 -16 48.5 -38t17.5 -50h278q0 77 -39 138.5t-106 104.5
q-68 42 -158 64.5t-191 22.5q-120 0 -215.5 -20.5t-162.5 -59.5q-68 -40 -104 -99t-36 -136q0 -42 18 -81t52 -71q24 -23 56.5 -42.5t71.5 -34.5q-45 -13 -81 -32.5t-63 -43.5q-36 -33 -54.5 -77.5t-18.5 -97.5zM648 1675l-80 -399h140l217 399h-277z" />
    <glyph glyph-name="etatonos" unicode="&#x3ae;" 
d="M129 0h278v791q17 18 37.5 33.5t45.5 25.5q28 13 63 20t75 7q49 0 86 -12.5t61 -38.5q22 -24 33.5 -60t11.5 -84v-1097h280v1097q0 114 -27 193.5t-75 130.5q-49 50 -117.5 73t-151.5 23q-67 0 -125 -19t-106 -54q-28 -21 -52.5 -47t-45.5 -57l-1 9l-12 148h-258v-1082z
M631 1676l-80 -399h140l217 399h-277z" />
    <glyph glyph-name="iotatonos" unicode="&#x3af;" 
d="M179 1082v-227h283v-500q0 -103 24.5 -174.5t72.5 -116.5q47 -45 117 -65t162 -20q32 0 63 3t62 11q30 8 61 23t63 39l-45 201q-27 -17 -66.5 -32t-84.5 -15q-30 0 -57 3.5t-47 18.5t-32 45t-12 84v722h-564zM619 1656l-80 -399h140l217 399h-277z" />
    <glyph glyph-name="upsilondieresistonos" unicode="&#x3b0;" 
d="M404 1082h-278v-623q0 -125 34 -216t98 -149q64 -59 155.5 -87t205.5 -28q135 0 228.5 46t151.5 126q57 79 83 186t26 229q0 82 -9 156t-25 139q-16 64 -36.5 119.5t-43.5 101.5h-269q45 -125 74 -253.5t31 -262.5q0 -66 -12 -131.5t-38 -116.5q-27 -52 -69 -84t-102 -32
q-45 0 -82.5 13t-64.5 43t-42.5 78.5t-15.5 120.5v625zM579 1740l-43 -324h147l168 324h-272zM192 1292q0 -53 38.5 -91t103.5 -38q61 0 101 37t40 92q0 56 -39.5 93.5t-101.5 37.5q-66 0 -104 -38.5t-38 -92.5zM741 1294q0 -56 39 -93.5t103 -37.5q60 0 100.5 36.5
t40.5 94.5q0 56 -39.5 93t-101.5 37q-66 0 -104 -38t-38 -92z" />
    <glyph glyph-name="alpha" unicode="&#x3b1;" 
d="M1028 1082h-191l-53 -110l-3 -7q-18 24 -38.5 44.5t-43.5 36.5q-39 27 -86.5 41.5t-103.5 14.5q-98 0 -173 -42t-126 -118t-77.5 -180.5t-26.5 -229.5v-21q0 -117 26.5 -214.5t77.5 -167.5q51 -71 125.5 -110t171.5 -39q56 0 103 13.5t85 37.5q27 17 50 39.5t43 49.5
q15 -30 34.5 -53.5t44.5 -40.5q34 -24 78 -35.5t96 -11.5q35 0 64.5 5t61.5 21l-24 209q-9 -2 -19.5 -3.5t-23.5 -1.5q-15 0 -27.5 4.5t-21.5 15.5q-11 13 -17 36t-6 58v759zM384 511v21q0 71 10.5 133.5t33.5 109.5t60.5 74.5t90.5 27.5q31 0 57 -5t48 -15q20 -10 36.5 -23
t29.5 -30v-481v-23.5t1 -22.5q-12 -16 -27.5 -29t-35.5 -23q-22 -11 -50 -16.5t-61 -5.5q-54 0 -90.5 23.5t-59.5 64.5t-33 97.5t-10 122.5z" />
    <glyph glyph-name="beta" unicode="&#x3b2;" 
d="M638 1477q-99 0 -186 -32t-152 -89q-66 -58 -104 -139t-38 -179v-1440h277v460q25 -16 51.5 -28.5t53.5 -22.5q43 -14 88.5 -21t89.5 -7q102 0 185 29t141 85q58 55 89.5 136.5t31.5 185.5q0 79 -24 144.5t-70 113.5q-30 33 -70 58t-89 42q30 16 56 36.5t47 43.5
q42 46 64.5 104.5t22.5 124.5q0 93 -33 166.5t-93 124.5q-61 50 -147 77t-191 27zM634 859h-67v-206h102q53 0 94 -17t69 -47q27 -31 41 -74.5t14 -96.5q0 -46 -15.5 -85.5t-44.5 -68.5t-72 -45.5t-97 -16.5q-36 0 -68.5 4.5t-61.5 13.5q-27 8 -50.5 19.5t-42.5 26.5v772
q0 49 15.5 88.5t42.5 67.5t64 43t81 15q46 0 81 -16t59 -42q23 -26 34.5 -60t11.5 -71q0 -51 -12 -91t-39 -66q-23 -23 -57.5 -35t-81.5 -12z" />
    <glyph glyph-name="gamma" unicode="&#x3b3;" 
d="M916 1082l-273 -773l-16 -65h-2l-13 65l-281 773h-291l443 -1059v-440h278v436l445 1063h-290z" />
    <glyph glyph-name="delta" unicode="&#x3b4;" 
d="M237 1251q0 -46 13 -85.5t37 -72.5t59.5 -61t79.5 -49l-2 -13q-68 -16 -128 -55t-105 -96q-45 -58 -71.5 -131.5t-26.5 -157.5v-20q0 -113 35.5 -210t103.5 -168t167 -111.5t226 -40.5q125 0 223 41.5t166 114.5q67 72 102.5 171t35.5 215v20q0 113 -35.5 207t-106.5 167
q-59 63 -145 113t-196 87q-53 19 -86 38t-51 37t-24 35t-6 32q0 24 12 43.5t34 33.5q20 13 49.5 20t66.5 7q71 0 133 -19t109 -34l44 184q-80 33 -153.5 55t-152.5 22q-96 0 -171.5 -21.5t-127.5 -62.5q-53 -42 -80.5 -101t-27.5 -134zM370 534v20q0 64 15 122.5t47 103.5
q31 44 79 70.5t114 26.5q57 -11 103.5 -43t79.5 -77q32 -45 49.5 -98t17.5 -105v-20q0 -68 -14.5 -128.5t-45.5 -105.5t-78 -71.5t-112 -26.5q-66 0 -114.5 26.5t-79.5 71.5t-46 105.5t-15 128.5z" />
    <glyph glyph-name="epsilon" unicode="&#x3b5;" 
d="M132 306q0 -77 39 -137.5t110 -102.5t170 -64t218 -22q94 0 185.5 20t164.5 62q72 41 116.5 105t44.5 153h-277q0 -26 -16.5 -49.5t-47.5 -41.5q-32 -18 -78.5 -28.5t-105.5 -10.5q-65 0 -111.5 11.5t-75.5 30.5q-30 18 -44 42t-14 50q0 31 10.5 54.5t32.5 39.5
q16 12 38.5 20t51.5 12q24 4 52 6t60 2h230v188h-230q-28 0 -52 1.5t-44 5.5q-25 4 -45 10.5t-34 15.5q-27 16 -38.5 37.5t-11.5 48.5q0 23 10.5 45.5t36.5 40.5q26 17 69.5 28t109.5 11q49 0 90.5 -8t72.5 -23q31 -16 48.5 -38t17.5 -50h278q0 77 -39 138.5t-106 104.5
q-68 42 -158 64.5t-191 22.5q-120 0 -215.5 -20.5t-162.5 -59.5q-68 -40 -104 -99t-36 -136q0 -42 18 -81t52 -71q24 -23 56.5 -42.5t71.5 -34.5q-45 -13 -81 -32.5t-63 -43.5q-36 -33 -54.5 -77.5t-18.5 -97.5z" />
    <glyph glyph-name="zeta" unicode="&#x3b6;" 
d="M1068 1456h-988v-224h612l-231 -247q-88 -80 -154.5 -152t-110.5 -143t-66.5 -143.5t-22.5 -152.5q0 -75 20 -136t64 -108q43 -47 111 -79.5t164 -50.5l177 -31q34 -6 56.5 -15.5t36.5 -22.5t19 -28t5 -33q0 -19 -6.5 -40.5t-21.5 -46.5q-11 -18 -27 -38.5t-37 -42.5
l142 -110q39 27 78.5 67t72.5 85q32 45 53 92t21 90q0 61 -20.5 103t-58.5 71t-91 47.5t-117 33.5l-187 37q-45 9 -78.5 23.5t-54.5 37.5q-22 23 -33 55.5t-11 79.5q0 68 17.5 122.5t51.5 104.5q34 49 84 98.5t115 108.5l416 428v160z" />
    <glyph glyph-name="eta" unicode="&#x3b7;" 
d="M129 0h278v791q17 18 37.5 33.5t45.5 25.5q28 13 63 20t75 7q49 0 86 -12.5t61 -38.5q22 -24 33.5 -60t11.5 -84v-1097h280v1097q0 114 -27 193.5t-75 130.5q-49 50 -117.5 73t-151.5 23q-67 0 -125 -19t-106 -54q-28 -21 -52.5 -47t-45.5 -57l-1 9l-12 148h-258v-1082z
" />
    <glyph glyph-name="theta" unicode="&#x3b8;" 
d="M637 -21q105 0 189.5 35t144.5 104q59 68 91.5 169t32.5 234v405q0 133 -32.5 236t-92.5 173t-145 106t-190 36t-189.5 -36t-144.5 -106t-92.5 -173t-32.5 -236v-405q0 -133 33 -234t93 -169q60 -69 145 -104t190 -35zM637 202q-45 0 -79.5 13t-56.5 45q-23 31 -34.5 83
t-11.5 131v159h363v-159q0 -79 -11.5 -131t-34.5 -83q-23 -32 -57 -45t-78 -13zM455 848v128q0 78 11 130.5t34 85.5q22 32 56 46t79 14t79.5 -14t57.5 -46q23 -33 34.5 -85.5t11.5 -130.5v-128h-363z" />
    <glyph glyph-name="iota" unicode="&#x3b9;" 
d="M179 1082v-227h283v-500q0 -103 24.5 -174.5t72.5 -116.5q47 -45 117 -65t162 -20q32 0 63 3t62 11q30 8 61 23t63 39l-45 201q-27 -17 -66.5 -32t-84.5 -15q-30 0 -57 3.5t-47 18.5t-32 45t-12 84v722h-564z" />
    <glyph glyph-name="kappa" unicode="&#x3ba;" 
d="M604 427l247 -427h356l-405 634l386 448h-349l-295 -347l-107 -127v474h-278v-1082h278v286z" />
    <glyph glyph-name="lambda" unicode="&#x3bb;" 
d="M333 0l181 574l29 139l49 -138l109 -303q20 -56 50.5 -108.5t73.5 -92.5q43 -41 101 -65t133 -24q20 0 42.5 2.5t42.5 8.5l6 218q-18 -2 -23 -2.5t-21 -0.5q-26 0 -48.5 15.5t-40.5 40.5q-19 25 -32 57t-25 62l-347 884q-17 40 -44.5 88.5t-68.5 89.5q-42 41 -98.5 69
t-129.5 28q-41 0 -86 -7.5t-76 -15.5l6 -208l40 4t37 2q36 0 65.5 -16.5t54.5 -43.5q24 -27 42.5 -60.5t31.5 -66.5l30 -74l-385 -1056h301z" />
    <glyph glyph-name="uni03BC" unicode="&#x3bc;" 
d="M450 1082h-278v-1498h278v443q37 -24 82 -36t98 -12q46 0 86 10t74 29q19 11 36 24.5t32 29.5l6 -72h259v1082h-279v-769q-11 -20 -25 -37t-33 -30q-27 -20 -64.5 -30.5t-86.5 -10.5q-41 0 -75 10t-58 39q-25 28 -38.5 78t-13.5 130v620z" />
    <glyph glyph-name="nu" unicode="&#x3bd;" 
d="M485 0h261l411 1082h-290l-237 -763l-15 -76l-15 76l-238 763h-290z" />
    <glyph glyph-name="xi" unicode="&#x3be;" 
d="M1050 1210l43 217q-66 24 -133.5 36.5t-161.5 12.5q-128 0 -228.5 -26t-169.5 -75t-105.5 -119.5t-36.5 -159.5q0 -59 23.5 -107t68.5 -85q29 -23 67 -42.5t84 -34.5q-71 -21 -128 -52t-97 -71q-49 -49 -74.5 -113.5t-25.5 -142.5q0 -112 33.5 -184.5t99.5 -120.5
q65 -48 161 -80t221 -63l62 -16q33 -8 57 -19.5t38 -26.5q12 -12 17.5 -24.5t5.5 -27.5q0 -20 -5 -40.5t-16 -42.5q-10 -20 -26 -41.5t-39 -45.5l135 -109q39 27 79 66.5t73 84.5q32 45 53 92.5t21 90.5q0 67 -22 109.5t-61 70.5q-39 27 -91.5 43.5t-113.5 30.5l-99 22
q-65 15 -121 31.5t-97 45.5q-41 28 -64 68t-23 94q0 42 10 77.5t30 64.5q18 26 46 46.5t65 34.5q45 17 104 26t133 9h143v230h-149q-46 0 -83.5 3.5t-67.5 9.5q-27 6 -48 14t-37 18q-35 21 -49.5 49.5t-14.5 62.5q0 31 14.5 58t48.5 47q34 19 89.5 30t136.5 11
q58 0 104.5 -9.5t120.5 -27.5z" />
    <glyph glyph-name="omicron" unicode="&#x3bf;" 
d="M103 551v-21q0 -119 34 -219.5t100 -174.5q65 -74 160.5 -115.5t217.5 -41.5q121 0 216 41.5t160 115.5t99 174.5t34 219.5v21q0 118 -34 218.5t-99 174.5q-66 74 -161 116t-217 42t-216.5 -42t-159.5 -116q-66 -74 -100 -174.5t-34 -218.5zM381 530v21q0 66 13 125
t41 104t72 71t106 26q63 0 107 -26t72 -71q27 -45 40 -104t13 -125v-21q0 -68 -13 -127.5t-40 -103.5q-28 -45 -72 -71t-105 -26q-63 0 -107.5 26t-72.5 71q-28 44 -41 103.5t-13 127.5z" />
    <glyph glyph-name="pi" unicode="&#x3c0;" 
d="M1198 868v214h-1098v-214h134v-868h278v868h254v-562q0 -91 18 -153t54 -100q36 -39 91 -55.5t129 -16.5q50 0 101.5 10t113.5 49l-45 190q-20 -10 -40 -16.5t-51 -6.5q-24 0 -41.5 3.5t-28.5 15.5q-12 11 -17.5 34t-5.5 62v546h154z" />
    <glyph glyph-name="rho" unicode="&#x3c1;" 
d="M1119 511v21q0 125 -30.5 229.5t-90.5 180.5t-149.5 118t-207.5 42q-116 0 -209.5 -38.5t-159.5 -107.5q-67 -69 -103 -166t-36 -214v-992h278v524q19 -23 40.5 -42.5t46.5 -34.5q41 -25 92 -38.5t111 -13.5q102 0 180 39.5t131 110.5q53 70 80 167.5t27 214.5zM841 532
v-21q0 -66 -11.5 -122.5t-36.5 -97.5q-26 -42 -67 -65.5t-100 -23.5q-46 0 -82.5 9.5t-64.5 26.5q-21 13 -38 31t-30 40v245q0 64 12.5 122.5t39.5 103.5q26 44 67 70.5t99 26.5t98.5 -27.5t66.5 -74.5q25 -47 36 -109.5t11 -133.5z" />
    <glyph glyph-name="sigma1" unicode="&#x3c2;" 
d="M603 1102q-126 0 -223 -43t-162 -117t-98.5 -173.5t-33.5 -213.5v-30q0 -114 32.5 -204t99.5 -155q59 -59 146.5 -98.5t203.5 -61.5q33 -7 81 -14t82 -29q18 -12 27 -28t9 -36q1 -30 -15.5 -58t-40.5 -51t-52 -40t-50 -24l122 -153q59 25 114.5 60.5t99.5 81.5
q43 45 69.5 100.5t26.5 121.5q-2 67 -27.5 113.5t-75.5 78.5q-51 31 -127 51.5t-179 36.5q-63 7 -110 26.5t-79 50.5q-41 39 -59.5 97.5t-18.5 133.5v30q0 62 12 120t40 103t73.5 72t112.5 27q56 0 97.5 -15.5t68.5 -41.5t40 -62t13 -76h262q0 99 -35 177t-99 132
t-152.5 82.5t-194.5 28.5z" />
    <glyph glyph-name="sigma" unicode="&#x3c3;" 
d="M1158 856v226h-573q-121 0 -215.5 -40.5t-158.5 -111.5q-65 -71 -98.5 -168t-33.5 -211v-21q0 -119 33.5 -219.5t98.5 -174.5t159.5 -115.5t216.5 -41.5q118 0 210 40t155 109t95.5 162t32.5 199v21q0 52 -13 101t-36 93q-24 44 -56.5 82.5t-70.5 69.5h254zM358 530v21
q0 62 12.5 117.5t39.5 97.5q27 41 70.5 65.5t105.5 24.5q60 0 101 -24.5t67 -65.5q25 -42 36.5 -97.5t11.5 -117.5v-21q0 -68 -11.5 -127.5t-37.5 -103.5q-26 -45 -67 -71t-99 -26q-63 0 -107 26t-71 71q-27 44 -39 103.5t-12 127.5z" />
    <glyph glyph-name="tau" unicode="&#x3c4;" 
d="M1034 851v231h-969v-231h350v-468q0 -111 25 -188t73 -125t117 -69.5t157 -21.5q34 0 64.5 2.5t60.5 8.5t60 16.5t62 27.5l-32 209q-35 -15 -70.5 -26.5t-86.5 -11.5q-33 0 -60.5 5t-47.5 23q-21 17 -32.5 52t-11.5 95v471h341z" />
    <glyph glyph-name="upsilon" unicode="&#x3c5;" 
d="M404 1082h-278v-623q0 -125 34 -216t98 -149q64 -59 155.5 -87t205.5 -28q135 0 228.5 46t151.5 126q57 79 83 186t26 229q0 82 -9 156t-25 139q-16 64 -36.5 119.5t-43.5 101.5h-269q45 -125 74 -253.5t31 -262.5q0 -66 -12 -131.5t-38 -116.5q-27 -52 -69 -84t-102 -32
q-45 0 -82.5 13t-64.5 43t-42.5 78.5t-15.5 120.5v625z" />
    <glyph glyph-name="phi" unicode="&#x3c6;" 
d="M510 -9v-469h279v467q122 20 206 74t136 131q52 76 75 169.5t23 192.5t-24.5 195.5t-75.5 172.5q-52 76 -131 123t-188 47q-63 0 -118 -21.5t-95 -59.5q-41 -39 -64 -92.5t-23 -118.5v-571q-44 21 -73.5 55t-47.5 78t-26 96.5t-8 110.5q1 47 10 96.5t26 97.5t42 93t60 84
l-188 152q-51 -41 -93 -96.5t-72 -122.5t-46.5 -143.5t-16.5 -160.5q0 -102 22.5 -197.5t73.5 -173.5t134 -133t203 -76zM789 227v579q0 15 3.5 27.5t11.5 21.5q6 7 15 11t21 4q26 0 46 -24t34 -66t21.5 -99.5t8.5 -124.5q0 -54 -8 -104.5t-27 -93.5q-19 -44 -50 -77.5
t-76 -53.5z" />
    <glyph glyph-name="chi" unicode="&#x3c7;" 
d="M636 744l-234 338h-299l362 -531l-376 -551h301l247 354l249 -354h300l-376 551l363 531h-299z" />
    <glyph glyph-name="psi" unicode="&#x3c8;" 
d="M784 1082h-278v-852q-35 17 -64 46t-49 73q-21 43 -32.5 102t-11.5 136v495h-280v-492q0 -138 30.5 -242t87.5 -177q56 -74 137 -118t182 -62v-469h278v467q128 19 216 75t142 138q54 81 78 181t24 208q0 158 -26.5 280t-61.5 211h-261q29 -118 49.5 -241t21.5 -250
q0 -63 -9.5 -120t-30.5 -104q-22 -48 -57 -83.5t-85 -56.5v855z" />
    <glyph glyph-name="omega" unicode="&#x3c9;" 
d="M422 1082h-269q-21 -46 -40.5 -101.5t-33.5 -119.5q-15 -65 -24 -139t-9 -156q0 -122 16.5 -229t55.5 -186q39 -80 102.5 -125.5t157.5 -45.5q48 0 89.5 17t75.5 50q23 22 42 52t35 66q16 -36 35.5 -65.5t41.5 -51.5q34 -34 76 -51t91 -17q93 0 156.5 45.5t102.5 125.5
q19 38 32 82t22 93q9 55 13.5 115.5t4.5 124.5q0 82 -8.5 156t-22.5 139q-15 64 -34.5 119.5t-41.5 101.5h-268q43 -125 69.5 -253.5t28.5 -262.5q0 -41 -1 -81t-3 -76q-2 -26 -4 -50t-5 -45q-8 -50 -20.5 -80.5t-31.5 -30.5q-10 0 -19 4t-17 13q-13 15 -22.5 43.5
t-18.5 73.5q-4 30 -6.5 68t-2.5 84v345h-292v-345q0 -79 -7 -133.5t-19 -88.5q-6 -16 -12.5 -27.5t-13.5 -19.5q-8 -9 -16.5 -13t-18.5 -4q-18 0 -30.5 30.5t-19.5 81.5q-7 50 -10 115.5t-3 135.5q2 134 27.5 262.5t69.5 253.5z" />
    <glyph glyph-name="iotadieresis" unicode="&#x3ca;" 
d="M179 1082v-227h283v-500q0 -103 24.5 -174.5t72.5 -116.5q47 -45 117 -65t162 -20q32 0 63 3t62 11q30 8 61 23t63 39l-45 201q-27 -17 -66.5 -32t-84.5 -15q-30 0 -57 3.5t-47 18.5t-32 45t-12 84v722h-564zM243 1371q0 -53 38.5 -88.5t97.5 -35.5t97.5 35.5t38.5 88.5
q0 52 -38 88.5t-98 36.5t-98 -36.5t-38 -88.5zM723 1371q0 -54 38 -90t98 -36t98 36t38 90q0 51 -37.5 87.5t-98.5 36.5t-98.5 -36.5t-37.5 -87.5z" />
    <glyph glyph-name="upsilondieresis" unicode="&#x3cb;" 
d="M404 1082h-278v-623q0 -125 34 -216t98 -149q64 -59 155.5 -87t205.5 -28q135 0 228.5 46t151.5 126q57 79 83 186t26 229q0 82 -9 156t-25 139q-16 64 -36.5 119.5t-43.5 101.5h-269q45 -125 74 -253.5t31 -262.5q0 -66 -12 -131.5t-38 -116.5q-27 -52 -69 -84t-102 -32
q-45 0 -82.5 13t-64.5 43t-42.5 78.5t-15.5 120.5v625zM220 1383q0 -53 38.5 -88.5t97.5 -35.5t97.5 35.5t38.5 88.5q0 52 -38 88.5t-98 36.5t-98 -36.5t-38 -88.5zM700 1383q0 -54 38 -90t98 -36t98 36t38 90q0 51 -37.5 87.5t-98.5 36.5t-98.5 -36.5t-37.5 -87.5z" />
    <glyph glyph-name="omicrontonos" unicode="&#x3cc;" 
d="M103 551v-21q0 -119 34 -219.5t100 -174.5q65 -74 160.5 -115.5t217.5 -41.5q121 0 216 41.5t160 115.5t99 174.5t34 219.5v21q0 118 -34 218.5t-99 174.5q-66 74 -161 116t-217 42t-216.5 -42t-159.5 -116q-66 -74 -100 -174.5t-34 -218.5zM381 530v21q0 66 13 125
t41 104t72 71t106 26q63 0 107 -26t72 -71q27 -45 40 -104t13 -125v-21q0 -68 -13 -127.5t-40 -103.5q-28 -45 -72 -71t-105 -26q-63 0 -107.5 26t-72.5 71q-28 44 -41 103.5t-13 127.5zM615 1676l-80 -399h140l217 399h-277z" />
    <glyph glyph-name="upsilontonos" unicode="&#x3cd;" 
d="M404 1082h-278v-623q0 -125 34 -216t98 -149q64 -59 155.5 -87t205.5 -28q135 0 228.5 46t151.5 126q57 79 83 186t26 229q0 82 -9 156t-25 139q-16 64 -36.5 119.5t-43.5 101.5h-269q45 -125 74 -253.5t31 -262.5q0 -66 -12 -131.5t-38 -116.5q-27 -52 -69 -84t-102 -32
q-45 0 -82.5 13t-64.5 43t-42.5 78.5t-15.5 120.5v625zM596 1667l-80 -399h140l217 399h-277z" />
    <glyph glyph-name="omegatonos" unicode="&#x3ce;" 
d="M422 1082h-269q-21 -46 -40.5 -101.5t-33.5 -119.5q-15 -65 -24 -139t-9 -156q0 -122 16.5 -229t55.5 -186q39 -80 102.5 -125.5t157.5 -45.5q48 0 89.5 17t75.5 50q23 22 42 52t35 66q16 -36 35.5 -65.5t41.5 -51.5q34 -34 76 -51t91 -17q93 0 156.5 45.5t102.5 125.5
q19 38 32 82t22 93q9 55 13.5 115.5t4.5 124.5q0 82 -8.5 156t-22.5 139q-15 64 -34.5 119.5t-41.5 101.5h-268q43 -125 69.5 -253.5t28.5 -262.5q0 -41 -1 -81t-3 -76q-2 -26 -4 -50t-5 -45q-8 -50 -20.5 -80.5t-31.5 -30.5q-10 0 -19 4t-17 13q-13 15 -22.5 43.5
t-18.5 73.5q-4 30 -6.5 68t-2.5 84v345h-292v-345q0 -79 -7 -133.5t-19 -88.5q-6 -16 -12.5 -27.5t-13.5 -19.5q-8 -9 -16.5 -13t-18.5 -4q-18 0 -30.5 30.5t-19.5 81.5q-7 50 -10 115.5t-3 135.5q2 134 27.5 262.5t69.5 253.5zM616 1670l-80 -399h140l217 399h-277z" />
    <glyph glyph-name="uni03D1" unicode="&#x3d1;" 
d="M1231 582l-9 233q-24 -6 -51 -11t-56 -10v268q0 98 -25.5 175t-72.5 130q-48 53 -115.5 81t-152.5 28q-83 0 -152.5 -27t-119.5 -78q-51 -51 -79 -124t-28 -165v-22q0 -97 33.5 -181t94.5 -150q60 -66 143.5 -111.5t183.5 -65.5v-97q0 -66 -16 -116t-47 -81
q-23 -22 -53 -34t-67 -12q-54 0 -96 18t-71 51q-30 32 -45.5 76.5t-15.5 97.5v257l-266 -1v-256q0 -103 34.5 -190t97.5 -150q63 -64 152 -99.5t197 -35.5q109 0 199 33.5t154 95.5q63 62 98 149.5t35 196.5v98q32 6 61 13.5t55 15.5zM634 1071v24q0 33 6.5 57.5t18.5 40.5
q13 18 33 27t44 9q19 0 34 -5.5t25 -17.5q15 -16 22.5 -45.5t7.5 -72.5v-282q-38 13 -69 33t-54 45q-33 37 -50.5 85t-17.5 102z" />
    <glyph glyph-name="uni03D2" unicode="&#x3d2;" 
d="M836 1198l-150 -403l-14 -63l-13 64l-152 408q-28 76 -61.5 128.5t-72.5 85.5q-40 33 -85 47.5t-96 14.5q-35 0 -67.5 -5.5t-58.5 -17.5l23 -220q3 2 18.5 3.5t27.5 1.5q17 0 33 -4.5t29 -13.5q14 -8 25.5 -21t19.5 -30l289 -674v-499h279v487l294 686q6 14 14.5 25
t18.5 19q15 12 33.5 18.5t39.5 6.5q13 0 28.5 -1.5t19.5 -3.5l23 219q-27 12 -60 18t-67 6q-56 0 -105 -19t-91 -59q-35 -34 -66 -85t-56 -119z" />
    <glyph glyph-name="uni03D6" unicode="&#x3d6;" 
d="M1279 881v201h-1280v-201h108q-29 -98 -47.5 -212.5t-18.5 -242.5q0 -43 3 -83t10 -77q8 -46 23 -87t37 -74q39 -59 103.5 -92t159.5 -33q53 0 98.5 19.5t82.5 57.5q21 22 40 51.5t34 64.5q13 -31 29.5 -57.5t35.5 -47.5q38 -44 86.5 -66t105.5 -22q94 0 158.5 33
t103.5 92q19 29 33 63.5t22 74.5q10 41 14 87t4 96q0 67 -5.5 131.5t-14.5 123.5q-9 53 -21 103.5t-26 96.5h122zM947 426q0 -24 -1 -48t-3 -45q-1 -17 -3.5 -33t-6.5 -29q-8 -31 -21.5 -49.5t-33.5 -18.5t-38 15t-31 49q-7 18 -13 40.5t-9 51.5q-4 26 -6 59t-2 71v206h-292
v-206q0 -34 -1.5 -63t-4.5 -54q-4 -33 -10 -59.5t-13 -45.5q-14 -34 -32 -49t-39 -15q-20 0 -33.5 18.5t-21.5 49.5q-4 14 -6.5 29.5t-3.5 33.5q-2 21 -3 44.5t-1 47.5q2 112 20.5 227.5t50.5 227.5h487q31 -112 49.5 -227.5t21.5 -227.5z" />
    <glyph glyph-name="uni0400" unicode="&#x400;" 
d="M1027 638v222h-598v367h696v229h-978v-1456h981v227h-699v411h598zM755 1538l-177 279h-306l264 -279h219z" />
    <glyph glyph-name="uni0401" unicode="&#x401;" 
d="M1027 638v222h-598v367h696v229h-978v-1456h981v227h-699v411h598zM261 1705q0 -53 38.5 -88.5t97.5 -35.5t97.5 35.5t38.5 88.5q0 52 -38 88.5t-98 36.5t-98 -36.5t-38 -88.5zM741 1705q0 -54 38 -90t98 -36t98 36t38 90q0 51 -37.5 87.5t-98.5 36.5t-98.5 -36.5
t-37.5 -87.5z" />
    <glyph glyph-name="uni0402" unicode="&#x402;" 
d="M1096 1228v228h-1065v-228h303v-1228h281v620q12 2 25 3t33 1q53 0 94 -14t68 -40q31 -29 46.5 -73t15.5 -102q0 -31 -4 -66t-22 -64q-18 -30 -54 -49.5t-100 -19.5l1 -212q130 0 218 36.5t142 96.5t77 136t23 156q0 113 -35.5 197t-99.5 139q-65 55 -155.5 82t-201.5 27
q-23 0 -40 -1.5t-31 -3.5v379h481z" />
    <glyph glyph-name="uni0403" unicode="&#x403;" 
d="M1083 1228v228h-942v-1456h281v1228h661zM687 1814l-187 -279h216l277 279h-306z" />
    <glyph glyph-name="uni0404" unicode="&#x404;" 
d="M1155 456h-281q-4 -66 -21.5 -113.5t-46.5 -77.5q-31 -31 -76 -46t-102 -15q-61 0 -108 21.5t-79 68.5q-33 46 -49.5 118.5t-16.5 173.5v31h472v227h-472v27q0 115 23.5 195t67.5 125q28 29 65.5 44t82.5 15q66 0 113.5 -16t79.5 -48q31 -33 47.5 -82.5t21.5 -115.5h280
q-10 115 -48.5 206t-106.5 154t-164.5 96.5t-222.5 33.5q-116 0 -212 -43t-164 -122t-105.5 -192t-37.5 -252v-283q0 -140 36.5 -252t105.5 -190q69 -79 167.5 -121.5t223.5 -42.5q116 0 210 33.5t162 95.5t108 150t47 197z" />
    <glyph glyph-name="uni0405" unicode="&#x405;" 
d="M887 380q0 -39 -16 -71.5t-46 -55.5t-73.5 -36t-99.5 -13q-63 0 -115.5 14t-89.5 44q-38 30 -59 77t-23 113h-276q0 -111 42.5 -196t113.5 -142q82 -66 189 -99.5t218 -33.5t205 26.5t162 78.5q68 51 106.5 125.5t38.5 170.5q0 90 -33.5 163.5t-93.5 131.5
q-61 57 -145 99t-184 71q-70 19 -125.5 41t-94.5 49q-19 13 -33.5 27t-24.5 30q-11 17 -16.5 36t-5.5 40q0 39 15.5 72.5t45.5 58.5q30 24 73.5 37.5t99.5 13.5q61 0 106.5 -16.5t76.5 -45.5q30 -30 45.5 -71t17.5 -90h274q0 98 -38 180t-106 142q-68 59 -162.5 92
t-208.5 33q-110 0 -204 -28.5t-163 -81.5t-108 -128t-39 -167q0 -45 9.5 -85.5t26.5 -75.5q19 -39 46.5 -72.5t62.5 -62.5q66 -55 152.5 -94t181.5 -65q78 -21 130.5 -45.5t85.5 -53.5q32 -30 45.5 -64t13.5 -73z" />
    <glyph glyph-name="uni0406" unicode="&#x406;" 
d="M193 1456v-227h277v-1003h-277v-226h842v226h-284v1003h284v227h-842z" />
    <glyph glyph-name="uni0407" unicode="&#x407;" 
d="M193 1456v-227h277v-1003h-277v-226h842v226h-284v1003h284v227h-842zM219 1714q0 -53 38.5 -88.5t97.5 -35.5t97.5 35.5t38.5 88.5q0 52 -38 88.5t-98 36.5t-98 -36.5t-38 -88.5zM699 1714q0 -54 38 -90t98 -36t98 36t38 90q0 51 -37.5 87.5t-98.5 36.5t-98.5 -36.5
t-37.5 -87.5z" />
    <glyph glyph-name="uni0408" unicode="&#x408;" 
d="M818 1456v-1009q0 -51 -15.5 -95.5t-43.5 -76.5t-68 -50.5t-88 -18.5q-60 0 -102 16t-68 49q-20 27 -30 66t-10 91h-282q1 -113 37 -197t101 -139q64 -56 154 -84t200 -28q104 0 194.5 34t157.5 96t105.5 147.5t39.5 189.5l-1 1009h-281z" />
    <glyph glyph-name="uni0409" unicode="&#x409;" 
d="M779 1456h-604v-878q0 -45 -1.5 -84.5t-5.5 -72.5q-3 -36 -9 -65.5t-14 -51.5q-9 -23 -19.5 -39t-23.5 -26q-10 -6 -21 -9.5t-23 -3.5h-20v-226h25q54 0 99.5 12t82.5 36q31 21 57 51.5t46 70.5q23 46 38 106.5t23 134.5q4 38 6 80t2 87v650h136v-1228h241q88 0 159 35.5
t121 98.5t76.5 150t26.5 191q0 102 -26.5 189t-76.5 150t-121 98.5t-159 35.5h-15v508zM779 722h15q37 0 65.5 -20.5t47.5 -54.5q19 -35 28.5 -79t9.5 -91q0 -49 -8.5 -94.5t-25.5 -79.5q-17 -35 -44.5 -56t-64.5 -21h-23v496z" />
    <glyph glyph-name="uni040A" unicode="&#x40a;" 
d="M91 0h257v614h173v-614h248q90 0 161.5 35t122.5 98q50 62 77 148.5t27 188.5t-27 187.5t-77 148.5q-51 62 -122.5 97t-161.5 35h-7v518h-241v-616h-173v616h-257v-1456zM762 712h7q39 0 68 -20t49 -53q19 -34 28.5 -77.5t9.5 -89.5q0 -48 -8.5 -92t-26.5 -78t-45.5 -54
t-66.5 -20h-15v484z" />
    <glyph glyph-name="uni040B" unicode="&#x40b;" 
d="M1065 1228v228h-1026v-228h297v-1228h281v652q6 0 12.5 -0.5t12.5 -0.5q45 -3 78.5 -15.5t55.5 -36.5q21 -23 32 -59.5t11 -87.5v-452h281v452q0 108 -35 187.5t-98 132.5q-60 48 -141.5 74.5t-179.5 30.5q-7 1 -14.5 1h-14.5v350h448z" />
    <glyph glyph-name="uni040C" unicode="&#x40c;" 
d="M565 598l360 -598h334l-508 812l490 644h-344l-354 -489l-132 -178v667h-282v-1456h282v429zM664 1811l-187 -279h216l277 279h-306z" />
    <glyph glyph-name="uni040D" unicode="&#x40d;" 
d="M805 1456l-413 -930v930h-281v-1456h281l413 929v-929h282v1456h-282zM703 1525l-177 279h-306l264 -279h219z" />
    <glyph glyph-name="uni040E" unicode="&#x40e;" 
d="M95 11q34 -9 88.5 -20.5t125.5 -11.5q88 0 153 24t114 65q48 41 82.5 95t60.5 113l518 1180h-306l-274 -692l-30 -77l-91 254l-230 515h-304l508 -1050l-28 -62q-11 -32 -28.5 -57.5t-43.5 -43.5t-62 -28t-84 -10q-38 0 -81.5 9t-69.5 17zM1006 1848h-201
q0 -26 -7.5 -50.5t-23.5 -42.5q-17 -19 -43.5 -30t-64.5 -11q-39 0 -65.5 11t-43.5 30q-17 18 -24.5 42.5t-7.5 50.5h-200q0 -65 23.5 -119t68.5 -92q44 -39 107 -60.5t142 -21.5q78 0 141 21.5t108 60.5q44 38 67.5 92t23.5 119z" />
    <glyph glyph-name="uni040F" unicode="&#x40f;" 
d="M109 1456v-1456h355v-360h283v360h336v1456h-282v-1230h-412v1230h-280z" />
    <glyph glyph-name="uni0410" unicode="&#x410;" 
d="M847 304l85 -304h296l-468 1456h-255l-477 -1456h296l86 304h437zM479 543l153 536l149 -536h-302z" />
    <glyph glyph-name="uni0411" unicode="&#x411;" 
d="M1074 1228v228h-943v-1456h446q126 0 226.5 34t170.5 95q69 61 106 146.5t37 189.5q0 102 -37 186t-106 143q-70 59 -170.5 91.5t-226.5 32.5h-164v310h661zM413 692h164q66 0 114.5 -17.5t81.5 -47.5q32 -31 47.5 -72t15.5 -88q0 -49 -15.5 -93t-47.5 -77
q-33 -33 -81.5 -52t-114.5 -19h-164v466z" />
    <glyph glyph-name="uni0412" unicode="&#x412;" 
d="M129 0h531q120 0 216 27t163 81t103 134t36 185q0 55 -14.5 106.5t-44.5 95.5q-29 41 -71.5 72t-114.5 51v1q37 14 67.5 34t54.5 44q44 44 66.5 102.5t23.5 124.5q0 102 -37.5 177t-106.5 124t-166.5 73t-216.5 24h-489v-1456zM411 642h262q59 -1 102 -16t70 -43
q27 -27 39.5 -66t12.5 -88q0 -47 -16.5 -85t-48.5 -65q-29 -24 -72.5 -38t-98.5 -14h-250v415zM411 845v382h208q68 -1 118.5 -15t80.5 -45q23 -22 34.5 -55t11.5 -77q0 -42 -13.5 -75t-38.5 -56q-30 -29 -79 -43.5t-113 -15.5h-209z" />
    <glyph glyph-name="uni0413" unicode="&#x413;" 
d="M1083 1228v228h-942v-1456h281v1228h661z" />
    <glyph glyph-name="uni0414" unicode="&#x414;" 
d="M1119 -358l40 584h-107v1230h-719l-40 -596q-2 -51 -4.5 -97t-6.5 -87q-8 -85 -19 -151t-27 -115q-23 -74 -57 -117t-80 -67h-54l44 -584h237v358h551v-358h242zM575 860l24 368h173v-1002h-315q24 49 44 110.5t35 139.5q8 43 15 92t12 103q4 43 7 90t5 99z" />
    <glyph glyph-name="uni0415" unicode="&#x415;" 
d="M1027 638v222h-598v367h696v229h-978v-1456h981v227h-699v411h598z" />
    <glyph glyph-name="uni0416" unicode="&#x416;" 
d="M785 587l136 -587h298l-242 774l219 682h-294l-127 -615h-42v615h-246v-615h-45l-134 615h-294l224 -682l-246 -774h296l143 587h56v-587h246v587h52z" />
    <glyph glyph-name="uni0417" unicode="&#x417;" 
d="M78 404q0 -112 47.5 -192t124.5 -131q76 -52 172 -76.5t194 -24.5q121 0 223.5 28.5t176.5 83.5q73 54 114.5 134t41.5 182q0 78 -24 140t-70 108q-29 30 -68 53t-86 39q53 24 95 57t71 74q29 40 44.5 86t15.5 96q0 102 -38 179.5t-107 130.5q-70 52 -169 78.5t-220 26.5
q-105 0 -198.5 -28.5t-164.5 -81.5t-112.5 -129t-41.5 -172h281q0 42 18.5 76t50.5 58q31 24 74 37t93 13q65 0 112.5 -15.5t78.5 -41.5t46 -61.5t15 -74.5q0 -33 -7 -61.5t-21 -52.5q-17 -30 -51.5 -52.5t-82.5 -31.5q-16 -3 -35 -4.5t-39 -1.5h-196v-220h196q19 0 37 -1
t34 -3q47 -7 82.5 -23.5t59.5 -43.5q22 -27 33.5 -64.5t11.5 -85.5q0 -44 -18 -81.5t-53 -65.5t-86 -43.5t-117 -15.5q-57 0 -104 15.5t-81 42.5t-52.5 63t-18.5 78h-282z" />
    <glyph glyph-name="uni0418" unicode="&#x418;" 
d="M805 1456l-413 -930v930h-281v-1456h281l413 929v-929h282v1456h-282z" />
    <glyph glyph-name="uni0419" unicode="&#x419;" 
d="M805 1456l-413 -930v930h-281v-1456h281l413 929v-929h282v1456h-282zM932 1835h-201q0 -26 -7.5 -50.5t-23.5 -42.5q-17 -19 -43.5 -30t-64.5 -11q-39 0 -65.5 11t-43.5 30q-17 18 -24.5 42.5t-7.5 50.5h-200q0 -65 23.5 -119t68.5 -92q44 -39 107 -60.5t142 -21.5
q78 0 141 21.5t108 60.5q44 38 67.5 92t23.5 119z" />
    <glyph glyph-name="uni041A" unicode="&#x41a;" 
d="M549 598l349 -598h326l-451 755l434 701h-325l-381 -641h-69v641h-281v-1456h281v598h117z" />
    <glyph glyph-name="uni041B" unicode="&#x41b;" 
d="M1103 1456h-863l-6 -762q-1 -47 -2 -88.5t-3 -77.5q-3 -64 -9 -112t-16 -82q-17 -54 -50 -81t-82 -27h-33v-226h70q100 0 175 37t125 120q24 39 42.5 89t31.5 111q8 37 14 78t10 87q3 39 5 82t3 90l5 534h301v-1228h282v1456z" />
    <glyph glyph-name="uni041C" unicode="&#x41c;" 
d="M476 1456h-349v-1456h258v431l-12 654l171 -605h139l191 632l-12 -681v-431h258v1456h-349l-157 -547z" />
    <glyph glyph-name="uni041D" unicode="&#x41d;" 
d="M1092 0v1456h-278v-597h-412v597h-279v-1456h279v631h412v-631h278z" />
    <glyph glyph-name="uni041E" unicode="&#x41e;" 
d="M1147 621v212q0 99 -18.5 187t-53.5 162q-32 65 -76.5 119t-103.5 92q-59 40 -132.5 61.5t-157.5 21.5q-83 0 -154 -21t-128 -60q-58 -40 -102.5 -96t-75.5 -125q-32 -73 -48.5 -159t-16.5 -182v-212q0 -90 14.5 -171t42.5 -150q31 -75 77 -134.5t104 -101.5
q59 -40 131 -62t157 -22q80 0 149.5 19.5t127.5 54.5q64 40 114 100t84 132q32 72 49 156.5t17 178.5zM862 835v-214q0 -54 -5.5 -104t-16.5 -92q-14 -54 -37.5 -96.5t-57.5 -70.5q-27 -23 -62 -35t-77 -12q-44 0 -78.5 13t-61.5 37q-29 27 -50.5 70.5t-32.5 96.5
q-10 42 -14 91t-4 102v214q0 56 4.5 107t14.5 94q13 56 36.5 98t57.5 70q25 19 56.5 29t70.5 10q41 0 74.5 -11t60.5 -31q34 -27 59 -69.5t40 -96.5q12 -43 17.5 -93.5t5.5 -106.5z" />
    <glyph glyph-name="uni041F" unicode="&#x41f;" 
d="M1095 0v1456h-974v-1456h281v1228h412v-1228h281z" />
    <glyph glyph-name="uni0420" unicode="&#x420;" 
d="M430 534h217q119 0 215 34t164 95q67 60 103.5 143t36.5 181q0 105 -36.5 191t-103.5 148q-68 61 -164 95.5t-215 34.5h-498v-1456h281v534zM430 762v466h217q60 0 104 -19t74 -52q29 -33 43.5 -77t14.5 -95q0 -44 -14.5 -84.5t-43.5 -71.5q-30 -31 -74 -49t-104 -18
h-217z" />
    <glyph glyph-name="uni0421" unicode="&#x421;" 
d="M1142 456h-281q-4 -66 -22 -113t-49 -77t-75 -44t-99 -14q-41 0 -74.5 9.5t-60.5 29.5q-25 18 -44.5 45t-33.5 62q-20 51 -29.5 119.5t-9.5 155.5v198q0 64 6 119.5t19 101.5q17 59 45.5 103.5t69.5 68.5q24 14 52.5 21t61.5 7q62 0 106.5 -16.5t74.5 -48.5
q29 -33 44.5 -82t19.5 -114h280q-10 114 -48 205t-104 154t-159.5 97t-213.5 34q-81 0 -151.5 -20.5t-129.5 -58.5q-66 -45 -118 -110t-84 -148q-28 -68 -42 -147.5t-14 -167.5v-196q0 -94 15.5 -178t44.5 -154q30 -70 73.5 -128t99.5 -99q61 -44 137.5 -67.5t166.5 -23.5
q114 0 208 33.5t162 95.5t108.5 150t47.5 198z" />
    <glyph glyph-name="uni0422" unicode="&#x422;" 
d="M1201 1227v229h-1174v-229h443v-1227h282v1227h449z" />
    <glyph glyph-name="uni0423" unicode="&#x423;" 
d="M95 11q34 -9 88.5 -20.5t125.5 -11.5q88 0 153 24t114 65q48 41 82.5 95t60.5 113l518 1180h-306l-274 -692l-30 -77l-91 254l-230 515h-304l508 -1050l-28 -62q-11 -32 -28.5 -57.5t-43.5 -43.5t-62 -28t-84 -10q-38 0 -81.5 9t-69.5 17z" />
    <glyph glyph-name="uni0424" unicode="&#x424;" 
d="M804 1260v196h-280v-196q-102 -11 -186.5 -54t-144.5 -113q-61 -71 -94.5 -166t-33.5 -209q0 -112 33.5 -204.5t94.5 -160.5q60 -69 144.5 -111t186.5 -53v-189h280v189q102 11 186 53.5t145 111.5q60 69 93.5 161.5t33.5 204.5q0 114 -33.5 208.5t-93.5 164.5
q-61 70 -145 113t-186 54zM341 718q0 68 14.5 121t41.5 91q23 33 55.5 54t71.5 31v-581q-40 10 -73 31t-57 54q-25 35 -39 85.5t-14 113.5zM984 720q0 -67 -15 -119.5t-43 -88.5q-23 -29 -54 -48.5t-68 -28.5v580q32 -8 59.5 -24t48.5 -39q34 -38 53 -96.5t19 -135.5z" />
    <glyph glyph-name="uni0425" unicode="&#x425;" 
d="M624 934l-255 522h-328l409 -722l-420 -734h332l266 530l267 -530h328l-420 734l410 722h-330z" />
    <glyph glyph-name="uni0426" unicode="&#x426;" 
d="M109 1456v-1456h868v-351h260l20 576h-189v1231h-282v-1230h-397v1230h-280z" />
    <glyph glyph-name="uni0427" unicode="&#x427;" 
d="M1119 1456h-282v-675q-53 -14 -110.5 -20.5t-96.5 -6.5q-49 0 -85 11.5t-60 40.5q-24 28 -35.5 76t-11.5 121v453h-281v-453q0 -125 33.5 -215.5t95.5 -148.5q61 -58 148.5 -85.5t195.5 -27.5q37 0 95.5 7.5t111.5 21.5v-555h282v1456z" />
    <glyph glyph-name="uni0428" unicode="&#x428;" 
d="M355 1456h-274v-1456h1090v1456h-273v-1230h-138v1230h-265v-1230h-140v1230z" />
    <glyph glyph-name="uni0429" unicode="&#x429;" 
d="M355 1456h-274v-1456h942v-350h257l20 573h-129v1233h-273v-1230h-138v1230h-265v-1230h-140v1230z" />
    <glyph glyph-name="uni042A" unicode="&#x42a;" 
d="M51 1456v-217h251v-1239h370q118 0 209 32t153 90t94 138.5t32 176.5q0 97 -32 177t-94 138q-62 57 -153 88.5t-209 31.5h-89v584h-532zM583 647h89q56 0 95.5 -16t64.5 -44q24 -28 35.5 -66t11.5 -82q0 -46 -11.5 -85t-35.5 -68q-25 -29 -64.5 -45.5t-95.5 -16.5h-89
v423z" />
    <glyph glyph-name="uni042B" unicode="&#x42b;" 
d="M355 864v592h-281v-1456h311q99 0 175 32t128 90t78.5 138.5t26.5 176.5q0 97 -24.5 175.5t-71.5 134.5q-48 56 -118 86.5t-161 30.5h-63zM1152 0v1456h-281v-1456h281zM355 647h46q31 0 52 -16t35 -44q13 -28 19 -66t6 -82q0 -46 -6 -86.5t-19 -70.5
q-14 -31 -35.5 -48.5t-51.5 -17.5h-46v431z" />
    <glyph glyph-name="uni042C" unicode="&#x42c;" 
d="M413 918v538h-282v-1456h446q126 0 226.5 34t170.5 95q69 61 106 146.5t37 189.5q0 102 -37 186t-106 143q-70 59 -170.5 91.5t-226.5 32.5h-164zM413 692h164q66 0 114.5 -17.5t81.5 -47.5q32 -31 47.5 -72t15.5 -88q0 -49 -15.5 -93t-47.5 -77q-33 -33 -81.5 -52
t-114.5 -19h-164v466z" />
    <glyph glyph-name="uni042D" unicode="&#x42d;" 
d="M316 484h-281q-3 -119 34 -212.5t106 -158.5q68 -65 162.5 -99t205.5 -34q125 0 225.5 41t171.5 118q70 76 108 186.5t38 250.5v303q0 139 -39 250.5t-109 188.5t-167.5 118.5t-214.5 41.5q-120 0 -216.5 -40.5t-164.5 -110.5t-104.5 -163t-36.5 -198h281q-5 67 9 120
t45 90q31 36 78.5 55t108.5 19q57 0 103.5 -22t79.5 -67q32 -46 49.5 -116t17.5 -166v-39h-383v-227h383v-39q0 -101 -18.5 -171t-52.5 -114q-34 -45 -83 -65t-109 -20q-51 0 -94.5 19t-74.5 55q-32 36 -48 88t-10 118z" />
    <glyph glyph-name="uni042E" unicode="&#x42e;" 
d="M1133 507v442q0 158 -34.5 269.5t-100.5 174.5q-44 42 -102 63t-129 21q-73 0 -131 -24.5t-101 -73.5q-55 -65 -84 -173t-29 -257v-128h-89v635h-249v-1456h249v604h89v-97q0 -131 22 -230.5t66 -164.5q43 -66 108 -99.5t149 -33.5q82 0 147 28.5t111 84.5
q53 65 80.5 169.5t27.5 245.5zM876 983v-509q0 -76 -5 -128t-17 -84q-13 -32 -34 -46t-53 -14q-27 0 -45.5 14t-29.5 46q-12 32 -17 84t-5 128v509q0 75 5 126.5t17 83.5q11 32 29.5 46t45.5 14q32 0 53 -14t34 -46q12 -32 17 -83.5t5 -126.5z" />
    <glyph glyph-name="uni042F" unicode="&#x42f;" 
d="M761 0h282v1456h-470q-123 0 -222 -27.5t-168 -81.5q-70 -54 -107 -134t-37 -185q0 -86 26.5 -155t77.5 -122q27 -27 60.5 -50.5t72.5 -42.5l-315 -658h301l274 573h225v-573zM320 1011q0 50 14 89.5t43 67.5q31 29 80 44.5t116 15.5h188v-440h-188q-66 0 -114.5 14.5
t-80.5 43.5q-29 28 -43.5 69t-14.5 96z" />
    <glyph glyph-name="uni0430" unicode="&#x430;" 
d="M817 0h282v17q-21 41 -32 98t-11 144v464q0 94 -35 165.5t-97 118.5t-146.5 71t-182.5 24q-109 0 -193.5 -27.5t-142.5 -74.5q-59 -47 -89.5 -109t-30.5 -131h278q0 29 8.5 53t26.5 41q20 19 52 29.5t76 10.5q50 0 87.5 -12.5t62.5 -35.5q24 -22 36 -52.5t12 -68.5v-64
h-155q-120 0 -212.5 -21.5t-155.5 -62.5q-70 -45 -105 -114.5t-35 -159.5q0 -70 28 -129.5t78 -102.5t119.5 -67t152.5 -24q51 0 95 9.5t81 26.5q36 16 66 38t53 47q5 -29 12 -55t17 -46zM552 195q-39 0 -68.5 9.5t-49.5 25.5q-20 17 -30.5 41.5t-10.5 53.5q0 37 14 68.5
t43 54.5q29 22 75 34.5t111 12.5h142v-186q-12 -21 -33 -41.5t-50 -36.5t-65 -26t-78 -10z" />
    <glyph glyph-name="uni0431" unicode="&#x431;" 
d="M675 1022q-52 0 -99.5 -10t-89.5 -29q-38 -17 -73 -41.5t-67 -56.5q14 74 41 128t66 92t89.5 61.5t111.5 36.5q102 20 174 47t119 68q46 40 67.5 98t21.5 141h-225q0 -30 -12 -51t-37 -36q-26 -15 -65 -26t-93 -22q-111 -24 -201 -83t-153 -159q-34 -52 -59.5 -117
t-42.5 -142q-16 -70 -24.5 -151.5t-8.5 -174.5v-61q0 -120 33.5 -221.5t98.5 -175.5t159.5 -116t216.5 -42q121 0 215.5 39t159.5 108q64 69 97.5 164t33.5 207v21q0 108 -30 200t-88 160q-58 67 -142.5 105.5t-193.5 38.5zM621 797q63 0 107 -22.5t71 -60.5
q27 -39 39.5 -89.5t12.5 -106.5v-21q0 -61 -12.5 -115t-39.5 -94t-70.5 -63t-105.5 -23q-63 0 -107 23t-71 63t-39 94t-12 115v21q0 56 12 106.5t39 89.5q27 38 70.5 60.5t105.5 22.5z" />
    <glyph glyph-name="uni0432" unicode="&#x432;" 
d="M138 0h519q105 0 186.5 19.5t137.5 58.5q56 38 85.5 96t29.5 135q0 43 -15 82t-45 71q-30 30 -73 53.5t-100 36.5l-12 2q41 14 73.5 33.5t55.5 42.5q31 31 47 69t16 81q0 76 -31.5 133t-90.5 95q-60 37 -144.5 55.5t-189.5 18.5h-449v-1082zM416 451h241q45 0 76.5 -9
t50.5 -26q18 -15 26 -35.5t8 -45.5q0 -28 -9 -49t-29 -36q-19 -14 -50 -21.5t-73 -7.5h-241v230zM416 640v219h171q49 0 84.5 -8t56.5 -24q19 -14 28 -34.5t9 -48.5q0 -25 -9.5 -44t-29.5 -32t-51 -20t-73 -8h-186z" />
    <glyph glyph-name="uni0433" unicode="&#x433;" 
d="M1074 856v226h-931v-1082h277v856h654z" />
    <glyph glyph-name="uni0434" unicode="&#x434;" 
d="M145 224h-112l21 -548h263v324h653v-324h258l20 547h-154v859h-786l-6 -366q-2 -92 -5.5 -175t-18.5 -149t-45.5 -110.5t-87.5 -57.5zM580 716l2 133h234v-626h-317q15 36 26 76t20 84q14 72 22 155.5t13 177.5z" />
    <glyph glyph-name="uni0435" unicode="&#x435;" 
d="M666 -20q157 0 272 61t168 136l-139 150q-48 -62 -125 -93t-159 -31q-58 0 -107 18t-87 51q-37 32 -59 71.5t-36 104.5v3h734v118q0 119 -33 217.5t-96 168.5q-64 70 -155.5 108.5t-208.5 38.5q-113 0 -209 -41t-166 -115t-109 -176.5t-39 -226.5v-40q0 -109 39.5 -204.5
t112.5 -165.5q73 -71 175 -112t227 -41zM633 877q53 0 93.5 -16.5t68.5 -44.5q28 -29 44 -68t16 -83v-22h-456q10 53 30 96t50 74q29 31 68 47.5t86 16.5z" />
    <glyph glyph-name="uni0436" unicode="&#x436;" 
d="M781 409l126 -409h281l-227 581l215 501h-281l-124 -409h-43v409h-241v-409h-41l-124 409h-280l217 -507l-225 -575h276l125 409h52v-409h241v409h53z" />
    <glyph glyph-name="uni0437" unicode="&#x437;" 
d="M114 320q0 -89 43 -153t113 -105q69 -42 157.5 -62t179.5 -20q111 0 204.5 22t161.5 64t106.5 102.5t38.5 137.5q0 55 -19.5 100t-56.5 79q-26 23 -59.5 41t-74.5 31q34 14 63 31.5t51 37.5q37 33 57 74t20 86q0 77 -35.5 136t-99.5 99q-65 39 -156 59.5t-201 20.5
q-98 0 -185 -22.5t-151 -64.5q-65 -43 -102.5 -104.5t-37.5 -138.5h277q0 28 16 50t45 38q28 15 66.5 23t83.5 8q54 0 92.5 -11t63.5 -28q24 -18 35 -40.5t11 -45.5t-9 -43t-28 -36q-14 -11 -34 -19.5t-46 -14.5q-18 -3 -39 -5t-45 -2h-204v-185h204q26 0 49.5 -2t43.5 -5
q33 -6 57.5 -17.5t40.5 -28.5q14 -15 21.5 -36t7.5 -47t-13.5 -50t-40.5 -43q-28 -19 -69.5 -30.5t-96.5 -11.5q-54 0 -97 11t-72 29t-44.5 41.5t-15.5 49.5h-277z" />
    <glyph glyph-name="uni0438" unicode="&#x438;" 
d="M806 1082l-407 -690v690h-278v-1082h278l407 690v-690h278v1082h-278z" />
    <glyph glyph-name="uni0439" unicode="&#x439;" 
d="M806 1082l-407 -690v690h-278v-1082h278l407 690v-690h278v1082h-278zM934 1526h-201q0 -26 -7.5 -50.5t-23.5 -42.5q-17 -19 -43.5 -30t-64.5 -11q-39 0 -65.5 11t-43.5 30q-17 18 -24.5 42.5t-7.5 50.5h-200q0 -65 23.5 -119t68.5 -92q44 -39 107 -60.5t142 -21.5
q78 0 141 21.5t108 60.5q44 38 67.5 92t23.5 119z" />
    <glyph glyph-name="uni043A" unicode="&#x43a;" 
d="M574 405l286 -405h368l-429 561l397 521h-350l-291 -414h-144v414h-278v-1082h278v405h163z" />
    <glyph glyph-name="uni043B" unicode="&#x43b;" 
d="M1083 1082h-852v-461q0 -48 -0.5 -89.5t-3.5 -76.5q-3 -43 -9 -77t-15 -60q-18 -47 -50.5 -68t-85.5 -21h-33l2 -229h49q120 0 201.5 39t131.5 117q31 50 51 115t30 144q6 46 8.5 98t2.5 108v235h294v-856h279v1082z" />
    <glyph glyph-name="uni043C" unicode="&#x43c;" 
d="M609 331l-150 751h-346v-1082h246v588l156 -588h187l161 603v-603h246v1082h-348z" />
    <glyph glyph-name="uni043D" unicode="&#x43d;" 
d="M1083 0v1082h-279v-438h-404v438h-279v-1082h279v420h404v-420h279z" />
    <glyph glyph-name="uni043E" unicode="&#x43e;" 
d="M103 551v-21q0 -119 34 -219.5t100 -174.5q65 -74 160.5 -115.5t217.5 -41.5q121 0 216 41.5t160 115.5t99 174.5t34 219.5v21q0 118 -34 218.5t-99 174.5q-66 74 -161 116t-217 42t-216.5 -42t-159.5 -116q-66 -74 -100 -174.5t-34 -218.5zM381 530v21q0 66 13 125
t41 104t72 71t106 26q63 0 107 -26t72 -71q27 -45 40 -104t13 -125v-21q0 -68 -13 -127.5t-40 -103.5q-28 -45 -72 -71t-105 -26q-63 0 -107.5 26t-72.5 71q-28 44 -41 103.5t-13 127.5z" />
    <glyph glyph-name="uni043F" unicode="&#x43f;" 
d="M1084 0v1082h-963v-1082h279v856h405v-856h279z" />
    <glyph glyph-name="uni0440" unicode="&#x440;" 
d="M145 -416h278v510q19 -21 40 -38t44 -31q39 -22 84.5 -33.5t99.5 -11.5q102 0 181 42t133 116q53 73 80.5 174t27.5 219v21q0 123 -27.5 224.5t-81.5 174.5q-54 72 -133 111.5t-182 39.5q-50 0 -93.5 -10.5t-79.5 -29.5q-30 -16 -56 -37.5t-48 -48.5l-10 106h-257v-1498z
M835 552v-21q0 -67 -12 -126.5t-38 -104.5t-67.5 -71t-100.5 -26q-37 0 -67 7.5t-53 21.5q-24 15 -42.5 36t-31.5 47v452q14 28 33.5 49t45.5 35q23 12 51 18.5t62 6.5q59 0 100.5 -25t68.5 -68q26 -44 38.5 -103.5t12.5 -127.5z" />
    <glyph glyph-name="uni0441" unicode="&#x441;" 
d="M620 202q-67 0 -110.5 27t-68.5 72q-26 44 -36 102.5t-10 121.5v30q0 62 10.5 120t36.5 103q25 45 68 72t109 27q45 0 83 -15.5t65 -41.5t41 -62t12 -76h262q2 96 -32 173.5t-95 132.5q-62 54 -147 84t-185 30q-125 0 -219.5 -43t-158.5 -117t-96 -173.5t-32 -213.5v-30
q0 -114 32.5 -213.5t96.5 -173.5q63 -74 158 -116.5t221 -42.5q93 0 176.5 29.5t146.5 81.5t99.5 124t34.5 156h-262q2 -38 -13.5 -69t-43.5 -53t-65 -34t-78 -12z" />
    <glyph glyph-name="uni0442" unicode="&#x442;" 
d="M1202 859v223h-1109v-223h413v-859h279v859h417z" />
    <glyph glyph-name="uni0443" unicode="&#x443;" 
d="M312 -437q84 0 145.5 28t104.5 69t71.5 89t46.5 89l549 1244h-307l-247 -636l-41 -108l-30 110l-248 634h-304l458 -1036l-64 -119q-12 -22 -20.5 -34t-26.5 -36t-43.5 -44.5t-58.5 -20.5q-16 0 -42.5 1.5t-43.5 1.5l-34 -212q36 -10 65.5 -15t69.5 -5z" />
    <glyph glyph-name="uni0444" unicode="&#x444;" 
d="M55 551v-21q0 -101 27.5 -189.5t81.5 -158.5q53 -70 130.5 -118.5t177.5 -69.5v-410h281v409q100 20 178.5 68.5t132.5 119.5q53 70 81 159t28 190v21q0 101 -28 190t-81 160q-54 70 -132 118.5t-179 68.5v448h-281v-448q-100 -21 -177.5 -69.5t-130.5 -118.5
q-54 -71 -81.5 -160t-27.5 -189zM320 530v21q0 48 9 92.5t28 83.5q18 38 46.5 68.5t68.5 50.5v-613q-40 20 -69 50.5t-47 69.5q-19 39 -27.5 84t-8.5 93zM908 551v-21q0 -49 -9 -94.5t-28 -84.5q-20 -39 -49.5 -70t-69.5 -50v616q40 -20 69.5 -50.5t49.5 -69.5
q19 -39 28 -83.5t9 -92.5z" />
    <glyph glyph-name="uni0445" unicode="&#x445;" 
d="M636 744l-234 338h-299l362 -531l-376 -551h301l247 354l249 -354h300l-376 551l363 531h-299z" />
    <glyph glyph-name="uni0446" unicode="&#x446;" 
d="M121 1082v-1082h814v-321h257l20 543h-158v860h-279v-859h-375v859h-279z" />
    <glyph glyph-name="uni0447" unicode="&#x447;" 
d="M1121 0v1082h-279v-508q-20 -4 -39.5 -7.5t-39.5 -6.5q-32 -4 -65 -6t-68 -2q-59 0 -102 9.5t-71 31.5t-41.5 58.5t-13.5 90.5v340h-278v-340q0 -108 35 -186t101 -128q65 -51 159 -75.5t211 -24.5q51 0 105.5 5.5t106.5 15.5v-349h279z" />
    <glyph glyph-name="uni0448" unicode="&#x448;" 
d="M353 1082h-270v-1082h1068v1082h-270v-859h-133v859h-262v-859h-133v859z" />
    <glyph glyph-name="uni0449" unicode="&#x449;" 
d="M349 1082h-270v-1082h935v-321h225l20 543h-112v860h-270v-859h-133v859h-262v-859h-133v859z" />
    <glyph glyph-name="uni044A" unicode="&#x44a;" 
d="M319 0h420q106 0 188 28t138 76q55 48 83.5 113t28.5 140q0 72 -28.5 132.5t-83.5 105.5q-56 44 -138 69t-188 25h-139v393h-544v-217h263v-865zM600 472h139q43 0 73 -11.5t49 -29.5q18 -18 26 -39.5t8 -42.5q0 -24 -8 -47.5t-26 -42.5q-19 -19 -49 -31t-73 -12h-139
v256z" />
    <glyph glyph-name="uni044B" unicode="&#x44b;" 
d="M364 697v385h-265v-1082h306q98 0 170 28t120 76q47 48 70 113t23 140q0 72 -23 134t-70 108q-48 45 -120 71.5t-170 26.5h-41zM1148 0v1082h-281v-1082h281zM364 504h41q46 0 72.5 -14.5t40.5 -36.5q13 -23 16.5 -50.5t3.5 -53.5q0 -24 -3.5 -47.5t-16.5 -42.5
q-14 -19 -40.5 -31t-72.5 -12h-41v288z" />
    <glyph glyph-name="uni044C" unicode="&#x44c;" 
d="M416 718v364h-278v-1082h551q109 0 195 27t145 75q58 47 89 112.5t31 142.5q0 80 -31 146.5t-89 114.5q-59 47 -145 73.5t-195 26.5h-273zM416 495h273q49 0 83.5 -11t56.5 -30t32 -44.5t10 -53.5q0 -27 -10 -51t-32 -42q-22 -19 -56.5 -30t-83.5 -11h-273v273z" />
    <glyph glyph-name="uni044D" unicode="&#x44d;" 
d="M587 877q63 0 106 -19.5t71 -52.5t42 -77.5t19 -95.5h-321v-174h322q-5 -52 -19 -98t-41 -81q-28 -35 -71.5 -55.5t-106.5 -20.5q-50 0 -90 15.5t-68 41.5t-43 61.5t-15 76.5h-261q0 -96 35 -173t98 -131q63 -55 150.5 -84.5t193.5 -29.5q132 0 229.5 42.5t162.5 116.5
q64 73 96 172.5t32 213.5v30q0 114 -32 213.5t-96 173.5q-65 74 -163 117t-230 43q-98 0 -185 -29.5t-151 -81.5q-65 -53 -102.5 -124.5t-37.5 -155.5h261q0 37 16.5 68t45.5 53q28 21 67.5 33t85.5 12z" />
    <glyph glyph-name="uni044E" unicode="&#x44e;" 
d="M343 629v453h-289v-1082h289v428h83q1 -95 25.5 -177t72.5 -142q47 -61 117.5 -95.5t165.5 -34.5q96 0 167 38t119 106q47 67 70.5 159t23.5 199v118q0 107 -23.5 199t-71.5 160q-48 67 -119.5 105.5t-167.5 38.5q-92 0 -161.5 -36t-116.5 -99t-72.5 -149.5t-28.5 -188.5
h-83zM690 481v118q0 55 5 106.5t18 91.5t35.5 64t56.5 24t57 -24t36 -64t18.5 -91.5t5.5 -106.5v-118q0 -56 -5 -107.5t-18 -91.5t-35.5 -63.5t-56.5 -23.5q-35 0 -57.5 23.5t-35.5 63.5t-18.5 91.5t-5.5 107.5z" />
    <glyph glyph-name="uni044F" unicode="&#x44f;" 
d="M1105 1082h-534q-107 0 -191.5 -27t-143.5 -75t-90.5 -113.5t-31.5 -143.5q0 -99 54 -177t149 -120l-240 -426h284l214 379h252v-379h278v1082zM392 715q0 26 11 51.5t33 46.5q22 20 55.5 33t79.5 13h256v-284h-264q-44 0 -76 12.5t-53 32.5t-31.5 45t-10.5 50z" />
    <glyph glyph-name="uni0450" unicode="&#x450;" 
d="M666 -20q157 0 272 61t168 136l-139 150q-48 -62 -125 -93t-159 -31q-58 0 -107 18t-87 51q-37 32 -59 71.5t-36 104.5v3h734v118q0 119 -33 217.5t-96 168.5q-64 70 -155.5 108.5t-208.5 38.5q-113 0 -209 -41t-166 -115t-109 -176.5t-39 -226.5v-40q0 -109 39.5 -204.5
t112.5 -165.5q73 -71 175 -112t227 -41zM633 877q53 0 93.5 -16.5t68.5 -44.5q28 -29 44 -68t16 -83v-22h-456q10 53 30 96t50 74q29 31 68 47.5t86 16.5zM714 1226l-177 279h-306l264 -279h219z" />
    <glyph glyph-name="uni0451" unicode="&#x451;" 
d="M666 -20q157 0 272 61t168 136l-139 150q-48 -62 -125 -93t-159 -31q-58 0 -107 18t-87 51q-37 32 -59 71.5t-36 104.5v3h734v118q0 119 -33 217.5t-96 168.5q-64 70 -155.5 108.5t-208.5 38.5q-113 0 -209 -41t-166 -115t-109 -176.5t-39 -226.5v-40q0 -109 39.5 -204.5
t112.5 -165.5q73 -71 175 -112t227 -41zM633 877q53 0 93.5 -16.5t68.5 -44.5q28 -29 44 -68t16 -83v-22h-456q10 53 30 96t50 74q29 31 68 47.5t86 16.5zM220 1393q0 -53 38.5 -88.5t97.5 -35.5t97.5 35.5t38.5 88.5q0 52 -38 88.5t-98 36.5t-98 -36.5t-38 -88.5zM700 1393
q0 -54 38 -90t98 -36t98 36t38 90q0 51 -37.5 87.5t-98.5 36.5t-98.5 -36.5t-37.5 -87.5z" />
    <glyph glyph-name="uni0452" unicode="&#x452;" 
d="M642 1190v180h-233v166h-278v-166h-181v-180h181v-1190h278v781q18 24 41.5 43t52.5 31q24 10 52 15.5t60 5.5q48 0 86 -12.5t65 -38.5t41.5 -68t14.5 -100l1 -699q-2 -48 -13 -83.5t-30 -56.5q-15 -15 -34.5 -23t-43.5 -8q-26 0 -52 3t-48 9l-14 -219q37 -10 69.5 -13.5
t70.5 -3.5q87 0 156.5 26t117.5 76t73.5 123.5t25.5 169.5l-1 697q0 119 -28.5 203.5t-79.5 138.5t-122 79.5t-156 25.5q-54 0 -102.5 -14.5t-90.5 -41.5q-32 -21 -60 -49.5t-52 -63.5v257h233z" />
    <glyph glyph-name="uni0453" unicode="&#x453;" 
d="M1074 856v226h-931v-1082h277v856h654zM686 1492l-187 -279h216l277 279h-306z" />
    <glyph glyph-name="uni0454" unicode="&#x454;" 
d="M610 202q-56 0 -95 19t-65 52q-27 32 -41 75.5t-20 93.5h317v176h-319q4 52 18 99t40 83q26 35 66.5 56t97.5 21q45 0 83 -15.5t65 -41.5t41 -62t12 -76h262q2 96 -32 173.5t-95 132.5q-62 54 -147 84t-185 30q-125 0 -219.5 -43t-158.5 -117t-96 -173.5t-32 -213.5v-30
q0 -114 32.5 -213.5t96.5 -173.5q63 -74 158 -116.5t221 -42.5q93 0 176.5 29.5t146.5 81.5t99.5 124t34.5 156h-262q2 -38 -13.5 -69t-43.5 -53t-65 -34t-78 -12z" />
    <glyph glyph-name="uni0455" unicode="&#x455;" 
d="M839 297q0 -25 -12.5 -46t-37.5 -37q-26 -16 -66.5 -25.5t-94.5 -9.5q-45 0 -87.5 9t-75.5 29q-33 19 -54 50.5t-24 75.5h-265q0 -66 32.5 -131.5t95.5 -116.5q63 -52 156.5 -84t215.5 -32q111 0 201 24.5t154 68.5q63 44 97.5 104.5t34.5 132.5q0 78 -34.5 134.5
t-95.5 96.5q-61 39 -145 64t-182 41q-68 10 -112 23.5t-69 30.5q-26 16 -36 36.5t-10 44.5t11.5 45.5t33.5 37.5q24 18 62 28t89 10q60 0 102.5 -15t67.5 -40q18 -19 27 -42.5t9 -50.5h278q0 75 -33 139t-95 111q-63 46 -153 72.5t-203 26.5q-108 0 -194 -27t-146 -73
t-92 -107t-32 -128q0 -69 31.5 -122t87.5 -93q56 -41 134.5 -69.5t173.5 -47.5q75 -14 124 -28t79 -30q29 -17 40.5 -36t11.5 -44z" />
    <glyph glyph-name="uni0456" unicode="&#x456;" 
d="M215 1082v-227h308v-629h-308v-226h882v226h-293v856h-589zM503 1359q0 -32 11.5 -59.5t32.5 -46.5q21 -20 50.5 -31t65.5 -11q74 0 117.5 41.5t43.5 106.5t-43.5 106.5t-117.5 41.5q-36 0 -65.5 -11t-50.5 -30q-21 -20 -32.5 -47.5t-11.5 -59.5z" />
    <glyph glyph-name="uni0457" unicode="&#x457;" 
d="M199 1082v-227h324v-629h-324v-226h915v226h-310v856h-605zM285 1366q0 -53 38.5 -88.5t97.5 -35.5t97.5 35.5t38.5 88.5q0 52 -38 88.5t-98 36.5t-98 -36.5t-38 -88.5zM765 1366q0 -54 38 -90t98 -36t98 36t38 90q0 51 -37.5 87.5t-98.5 36.5t-98.5 -36.5t-37.5 -87.5z
" />
    </font>
</defs>
</svg>
