<?xml version="1.0" standalone="no"?>
<!DOCTYPE svg PUBLIC "-//W3C//DTD SVG 1.1//EN" "http://www.w3.org/Graphics/SVG/1.1/DTD/svg11.dtd" >
<svg xmlns="http://www.w3.org/2000/svg" xmlns:xlink="http://www.w3.org/1999/xlink" version="1.1">
<metadata>
Created by FontForge 20201107 at Wed May  6 13:19:23 2020
 By 
Copyright 2015 The Roboto Mono Project Authors (https://github.com/googlefonts/robotomono)
</metadata>
<defs>
<font id="RobotoMono-LightItalic" horiz-adv-x="1202" >
  <font-face 
    font-family="Roboto Mono Light"
    font-weight="300"
    font-style="italic"
    font-stretch="normal"
    units-per-em="2048"
    panose-1="0 0 0 9 0 0 0 0 0 0"
    ascent="1638"
    descent="-410"
    x-height="1082"
    cap-height="1456"
    bbox="-974 -555 1596 2146"
    underline-thickness="100"
    underline-position="-200"
    slope="-10"
    unicode-range="U+000D-FFFD"
  />
<missing-glyph 
 />
    <glyph glyph-name=".notdef" 
 />
    <glyph glyph-name=".null" horiz-adv-x="0" 
 />
    <glyph glyph-name="nonmarkingreturn" unicode="&#xd;" 
 />
    <glyph glyph-name="space" unicode=" " 
 />
    <glyph glyph-name="exclam" unicode="!" 
d="M608 436l176 1020h-118l-176 -1020h118zM408 73q-1 -18 5 -33.5t17 -26.5q11 -10 25.5 -16t31.5 -6q18 1 34 7.5t28 18.5q11 11 18.5 25.5t8.5 31.5q1 18 -5.5 34t-17.5 27t-26 17t-32 6q-17 -1 -32.5 -7.5t-26.5 -17.5q-12 -11 -19.5 -27t-8.5 -33z" />
    <glyph glyph-name="quotedbl" unicode="&#x22;" 
d="M621 1404l21 132h-103l-18 -118l-55 -328h91zM915 1404l22 132h-103l-18 -121l-55 -325h90z" />
    <glyph glyph-name="numbersign" unicode="#" 
d="M673 410l-146 -410h101l146 410h264l15 95h-245l156 439h239l16 96h-221l148 416h-100l-150 -416h-300l149 416h-101l-148 -416h-287l-17 -96h269l-156 -439h-263l-15 -95h245l-146 -410h101l146 410h300zM407 505l155 439h301l-157 -439h-299z" />
    <glyph glyph-name="dollar" unicode="$" 
d="M894 363q-20 -130 -124 -204t-231 -73q-150 0 -220.5 96t-57.5 237h-118q-13 -178 74.5 -298.5t268.5 -138.5l-33 -190h101l33 191q162 17 284.5 112t140.5 270q9 86 -15 151.5t-70 115.5q-48 49 -112.5 85t-135.5 65q-64 25 -124 58t-95 83q-26 33 -38 74.5t-4 96.5
q19 124 113.5 200.5t221.5 75.5q143 -2 195.5 -110t41.5 -232h117q12 161 -53 290.5t-239 154.5l36 205h-101l-35 -204q-163 -16 -279.5 -116t-134.5 -267q-10 -87 14 -152t72 -115q47 -50 112 -86t137 -65q53 -20 103.5 -47t88.5 -63q38 -37 57 -86t9 -114z" />
    <glyph glyph-name="percent" unicode="%" 
d="M141 1185l-9 -77q-6 -52 3.5 -103.5t35.5 -92.5q25 -42 67 -68t102 -26q60 -1 109.5 23.5t86.5 66.5q36 41 59 93t31 107l10 77q6 52 -3.5 104.5t-34.5 93.5q-25 42 -66.5 68t-101.5 27q-61 0 -110.5 -25t-86.5 -66t-60 -94t-32 -108zM228 1107l10 79q6 35 20 71.5
t38 66.5q22 29 53.5 47.5t73.5 18.5q41 0 66 -20t38 -50t15.5 -66t-1.5 -68l-11 -78q-6 -36 -20 -72t-36 -64q-23 -30 -54.5 -48.5t-72.5 -18.5t-66 19.5t-38 49.5q-14 30 -16.5 65t1.5 68zM607 347l-10 -77q-6 -53 4 -104.5t35 -92.5q25 -42 67.5 -68t101.5 -26
q61 -1 110.5 24t86.5 66q36 40 59 93t32 108l10 78q5 52 -4.5 104t-34.5 93q-26 42 -67.5 67.5t-101.5 26.5q-61 1 -110.5 -24t-86.5 -66q-36 -41 -59.5 -94t-31.5 -108zM693 269l11 79q6 36 20 72.5t37 65.5q22 29 54 47.5t73 18.5q42 -1 67 -20.5t38 -49.5
q13 -29 15.5 -65t-1.5 -69l-11 -79q-6 -35 -20 -71.5t-37 -65.5q-22 -29 -54 -47.5t-73 -18.5t-66 19.5t-38 50.5q-13 29 -16 64.5t1 68.5zM274 161l763 1083l-72 49l-763 -1084z" />
    <glyph glyph-name="ampersand" unicode="&#x26;" 
d="M95 359q-18 -169 87.5 -273t268.5 -105q110 -1 205.5 45.5t178.5 114.5l86 -141h132l-136 225q82 91 129.5 198t63.5 229h-107q-18 -93 -53 -176.5t-92 -160.5l-284 464l137 105q77 59 148 132.5t81 178.5q12 114 -57 197t-186 85q-148 2 -244 -96t-111 -238
q-5 -47 0.5 -92t19.5 -88q12 -43 31.5 -85t40.5 -82l-47 -33q-49 -35 -96.5 -76t-86.5 -88q-43 -51 -72.5 -110.5t-36.5 -129.5zM454 83q-120 1 -189.5 78.5t-51.5 197.5q7 50 30 95t56 86q32 40 70.5 75t76.5 65l41 32l293 -486q-70 -62 -151 -103t-175 -40zM458 1145
q13 87 74.5 159t158.5 71q74 -1 109.5 -56.5t25.5 -123.5q-11 -73 -57 -127t-101 -96l-145 -108q-17 32 -31.5 66t-23.5 70q-10 35 -13 71.5t3 73.5z" />
    <glyph glyph-name="quotesingle" unicode="'" 
d="M734 1389l22 147h-104l-21 -131l-54 -316l93 1z" />
    <glyph glyph-name="parenleft" unicode="(" 
d="M368 587l-2 -16q-13 -86 -18 -180.5t2 -190.5q5 -97 24 -192.5t54 -181.5q35 -88 89 -163.5t130 -131.5l36 76q-64 55 -107 127t-69 154t-37 170.5t-12 177.5q-1 88 6.5 173.5t19.5 161.5l3 20q21 133 59 269.5t98 262.5q59 126 143.5 236t198.5 190l-20 85
q-91 -51 -166 -121t-136 -154t-109.5 -179t-84.5 -194q-37 -100 -62 -201.5t-40 -197.5z" />
    <glyph glyph-name="parenright" unicode=")" 
d="M796 576l2 15q12 86 17 180.5t0 191.5q-7 97 -26 192.5t-54 182.5t-89 162.5t-130 132.5l-35 -77q63 -55 106 -126.5t69 -153.5q25 -82 36.5 -171t12.5 -178t-6.5 -174t-18.5 -160l-3 -21q-21 -133 -59 -269.5t-98 -263.5q-60 -128 -144.5 -238.5t-198.5 -190.5l21 -80
q136 75 238.5 194t175.5 260q71 140 116.5 293.5t67.5 298.5z" />
    <glyph glyph-name="asterisk" unicode="*" 
d="M609 969l-305 -324l89 -72l280 337l184 -342l101 68l-212 322l395 116l-20 119l-381 -144l81 407h-116l-53 -410l-349 143l-51 -111z" />
    <glyph glyph-name="plus" unicode="+" 
d="M679 742l80 464h-118l-81 -464h-420l-21 -119h422l-83 -477h118l82 477h431l20 119h-430z" />
    <glyph glyph-name="comma" unicode="," 
d="M487 36l26 153h-125l-28 -156q-14 -80 -48 -148t-85 -131l72 -49q35 30 64.5 65t52.5 74q26 43 44 91.5t27 100.5z" />
    <glyph glyph-name="hyphen" unicode="-" 
d="M943 600l17 103h-721l-17 -103h721z" />
    <glyph glyph-name="period" unicode="." 
d="M437 85q-2 -41 25 -69t69 -29q42 0 73 29t33 72q2 42 -25.5 71.5t-70.5 28.5q-44 0 -73.5 -31.5t-30.5 -71.5z" />
    <glyph glyph-name="slash" unicode="/" 
d="M258 -124l863 1580h-115l-863 -1580h115z" />
    <glyph glyph-name="slash" unicode="&#x2215;" 
d="M258 -124l863 1580h-115l-863 -1580h115z" />
    <glyph glyph-name="zero" unicode="0" 
d="M1041 577l51 303q7 51 9 106t-3 105q-6 70 -27 137t-59 119q-41 58 -108.5 93.5t-163.5 36.5q-83 1 -152 -23t-124 -66q-57 -42 -100.5 -100t-75.5 -125q-33 -66 -54.5 -138.5t-32.5 -144.5l-50 -304q-10 -67 -10 -136.5t12 -134.5q12 -67 37.5 -125.5t68.5 -101.5
q42 -44 102.5 -70.5t141.5 -27.5q74 -1 137 18.5t115 55.5q65 42 114.5 104.5t85.5 135.5q32 66 53.5 138.5t32.5 144.5zM736 1374q66 -1 113 -25t78 -65q30 -41 45 -95t17 -114l-727 -582q2 35 5 68t10 74l45 266q9 54 25 110t40 108q24 54 57 100.5t76 81.5q42 35 96 54.5
t120 18.5zM508 82q-65 1 -111.5 24.5t-76.5 63.5q-30 39 -46 91.5t-19 110.5l725 579q-4 -44 -8 -79t-11 -75l-41 -240q-9 -53 -24.5 -108.5t-38.5 -106.5q-25 -57 -61 -107.5t-83 -86.5q-42 -31 -93 -49t-112 -17z" />
    <glyph glyph-name="one" unicode="1" 
d="M618 0l248 1456h-20l-522 -208l-20 -118l421 169l-225 -1299h118z" />
    <glyph glyph-name="two" unicode="2" 
d="M920 0l15 103h-738l466 458q55 53 113.5 111t108.5 123q50 64 86 136t46 152q10 86 -13 158t-72 125q-49 52 -120 80.5t-156 29.5q-97 1 -180.5 -33t-147.5 -93q-64 -60 -106.5 -140.5t-55.5 -172.5h117q13 70 44 132t78 108q47 45 108.5 71t137.5 26q64 -1 113.5 -24
t82.5 -62q33 -40 46 -93.5t4 -115.5q-10 -68 -42 -128.5t-76 -115.5q-44 -56 -94 -105.5t-96 -95.5l-542 -536l-14 -98h887z" />
    <glyph glyph-name="three" unicode="3" 
d="M423 794l-17 -103l126 -1q68 -2 127 -20t100 -54t60.5 -90.5t8.5 -129.5q-11 -71 -44 -129.5t-82 -98.5q-50 -42 -113 -64t-135 -21q-69 0 -124 23.5t-91 65.5q-37 41 -54 98t-11 125h-117q-7 -92 19.5 -168t79.5 -130q52 -55 127 -85.5t167 -31.5q94 -1 179 29t152 85
q66 56 109.5 133.5t54.5 172.5q8 61 -2.5 114.5t-37.5 97.5q-28 44 -71 77.5t-101 53.5q57 21 108 52t93 73q41 41 68.5 93.5t35.5 115.5q11 87 -10.5 160t-68.5 126q-48 53 -118.5 83t-157.5 31q-91 0 -172 -29t-145 -82q-65 -54 -108.5 -128t-57.5 -163h116
q15 66 47.5 121t79.5 95q47 39 107 61.5t129 21.5q65 -1 114.5 -23t81.5 -61q31 -39 43 -92.5t2 -116.5q-11 -71 -47.5 -124t-89.5 -89t-117 -55t-131 -20z" />
    <glyph glyph-name="four" unicode="4" 
d="M841 470l170 986h-132l-825 -1014l-12 -74h663l-63 -368h117l64 368h221l17 102h-220zM204 470l595 732l71 96l-147 -828h-519z" />
    <glyph glyph-name="five" unicode="5" 
d="M278 748l94 -27q66 48 136 76t153 26q75 -1 128 -32t84 -80q31 -50 41 -114t1 -131q-11 -74 -40 -143.5t-75 -122.5q-46 -54 -110.5 -86.5t-146.5 -31.5q-68 1 -118 24.5t-83 63.5q-33 41 -49 95.5t-16 118.5h-112q0 -86 25 -159.5t73 -127.5q47 -54 116.5 -85t159.5 -32
q106 -1 192 38t149 106q63 66 102 155t51 188q12 89 -4.5 172.5t-59.5 149.5q-43 64 -114 103.5t-169 40.5q-74 1 -143 -19.5t-131 -60.5l139 487h606l20 116h-708z" />
    <glyph glyph-name="six" unicode="6" 
d="M971 1467h-21q-119 -1 -220.5 -32t-184.5 -86q-83 -56 -149 -132t-114 -167q-49 -92 -81.5 -195.5t-49.5 -211.5l-19 -128q-12 -96 5.5 -191t65.5 -171q48 -77 126 -124.5t187 -48.5q101 -1 184 39.5t146 109.5t103.5 161.5t52.5 190.5q10 87 -5 172t-57 152t-112 108.5
t-168 42.5q-56 1 -109.5 -13t-102.5 -39q-46 -25 -87.5 -59t-75.5 -75q22 76 53 148t71 135q43 68 98.5 124t122.5 97q66 39 144.5 61t169.5 22h15zM639 852q77 -1 128 -35t81 -88t38.5 -120.5t-0.5 -131.5q-10 -71 -39 -141.5t-75 -126.5q-47 -57 -110 -92t-142 -34
q-73 0 -125 30t-84 79q-24 34 -38 75.5t-21 85.5q-6 40 -6 81t5 79l14 92q21 54 60.5 99.5t90.5 78.5q50 33 108 51.5t115 17.5z" />
    <glyph glyph-name="seven" unicode="7" 
d="M1173 1382l11 74h-930l-16 -108h800l-809 -1348h127z" />
    <glyph glyph-name="eight" unicode="8" 
d="M1119 1086q10 86 -13 157t-72 123q-49 51 -119.5 80t-154.5 30q-90 1 -170 -27t-143 -81t-104 -127t-51 -164q-6 -57 4.5 -108.5t36.5 -95.5q23 -38 57.5 -69t77.5 -53q-63 -23 -120 -57t-101 -80q-45 -46 -74 -104t-38 -128q-12 -93 14.5 -166.5t81.5 -125.5
q54 -53 130.5 -81t164.5 -29q93 -1 179.5 27t155.5 82q69 52 115 129t58 173q7 59 -5 113t-40 100q-28 45 -70.5 81t-96.5 59q56 23 106.5 55.5t90.5 75.5q39 42 65.5 95t34.5 116zM916 390q-10 -71 -46 -128.5t-88 -96.5q-53 -41 -118 -62.5t-135 -20.5q-65 1 -120.5 22
t-93.5 60q-39 39 -56 94t-6 123q11 70 46.5 128.5t87.5 100.5t117.5 64.5t135.5 21.5q65 -1 120 -23.5t94 -63.5q37 -40 55 -96t7 -123zM1000 1087q-10 -63 -41 -116.5t-78 -91.5q-47 -39 -105.5 -60t-122.5 -21q-59 1 -108.5 22t-81.5 59q-34 37 -48.5 88t-4.5 111
q9 63 40 118t77 95q46 39 104.5 61t123.5 22q60 -1 109 -23.5t83 -60.5q33 -40 47.5 -92t5.5 -111z" />
    <glyph glyph-name="nine" unicode="9" 
d="M287 99h-23l-12 -110h29q166 1 294 57t222 152q106 107 169.5 258.5t89.5 323.5l17 115q9 67 7.5 136t-15.5 134q-15 64 -42.5 120.5t-71.5 99.5q-45 42 -105.5 66.5t-140.5 24.5q-69 0 -130 -19t-113 -53q-56 -37 -101 -88.5t-77 -112.5q-30 -55 -49.5 -117t-26.5 -124
q-10 -86 5 -171.5t57 -154.5q42 -70 111 -113.5t166 -44.5q61 -1 116.5 14t104.5 44q47 27 87.5 65t73.5 83q-22 -92 -50.5 -163t-67.5 -134q-43 -69 -100 -124.5t-129 -92.5q-62 -34 -135.5 -52.5t-159.5 -18.5zM565 581q-75 2 -125.5 38.5t-78.5 92.5q-29 56 -37.5 124
t0.5 131q10 72 40.5 144.5t78.5 130.5t113.5 94.5t146.5 36.5q61 -1 105 -22.5t75 -56.5q30 -36 48.5 -83.5t26.5 -98.5q8 -52 7.5 -104.5t-6.5 -99.5l-8 -59q-22 -56 -62 -105t-92 -85q-52 -37 -111.5 -58t-120.5 -20z" />
    <glyph glyph-name="colon" unicode=":" 
d="M490 85q-2 -41 25 -69t69 -29q42 0 73 29t33 72q2 42 -25.5 71.5t-70.5 28.5q-44 0 -73.5 -31.5t-30.5 -71.5zM641 961q-2 -41 25 -69t69 -29q42 0 73 29t33 72q2 42 -25.5 71.5t-70.5 28.5q-44 0 -73.5 -31.5t-30.5 -71.5z" />
    <glyph glyph-name="semicolon" unicode=";" 
d="M637 961q-2 -41 25 -69t69 -29q42 0 73 29t33 72q2 42 -25.5 71.5t-70.5 28.5q-44 0 -73.5 -31.5t-30.5 -71.5zM626 36l26 153h-125l-28 -156q-14 -80 -48 -148t-85 -131l72 -49q35 30 64.5 65t52.5 74q26 43 44 91.5t27 100.5z" />
    <glyph glyph-name="less" unicode="&#x3c;" 
d="M163 611l767 -379l21 123l-618 283l-37 16l55 19l707 284l19 129l-897 -377z" />
    <glyph glyph-name="equal" unicode="=" 
d="M1072 812l18 107h-866l-19 -107h867zM1001 401l18 107h-867l-18 -107h867z" />
    <glyph glyph-name="greater" unicode="&#x3e;" 
d="M113 229l915 379l17 98l-785 378l-19 -121l627 -283l44 -18l-65 -22l-711 -281z" />
    <glyph glyph-name="question" unicode="?" 
d="M494 405h116q15 84 52 148.5t105 118.5q53 42 105.5 88.5t96.5 99.5t73.5 114.5t38.5 133.5q10 81 -10 148.5t-64 115.5q-44 49 -109 76t-146 28q-84 1 -158.5 -24t-133.5 -72q-60 -47 -100 -114t-55 -149h117q14 58 44 105t73 80q42 33 95 51t113 17q58 0 102.5 -20.5
t72.5 -54.5q27 -36 38 -84t2 -104q-10 -58 -36 -107.5t-62 -92.5q-36 -44 -79 -82.5t-85 -73.5q-91 -76 -139.5 -153t-66.5 -193zM410 73q-2 -35 21.5 -58.5t58.5 -23.5q34 1 60 24.5t29 58.5q1 35 -22.5 60t-58.5 24q-36 -1 -61 -26t-27 -59z" />
    <glyph glyph-name="at" unicode="@" 
d="M1163 779q28 148 12.5 309.5t-103.5 262.5q-45 51 -113 81.5t-163 31.5q-104 1 -193 -31.5t-163 -89.5q-76 -57 -136.5 -134t-105.5 -164q-46 -88 -77 -181t-47 -183q-15 -85 -17.5 -169t11.5 -160q14 -77 46 -143.5t85 -114.5q53 -49 129 -76.5t177 -27.5q73 0 146 20
t134 59l-19 84q-59 -31 -124.5 -51.5t-133.5 -20.5q-88 0 -151.5 24.5t-106.5 68.5q-43 43 -67.5 101t-33.5 125q-9 66 -5 138t18 143q15 76 42.5 158t67.5 159t92 146t118 120q64 51 142 80.5t168 28.5q82 -1 138.5 -28.5t91.5 -73.5q67 -89 75.5 -227t-14.5 -265
q-6 -29 -13.5 -69.5t-20.5 -85.5q-13 -44 -30.5 -88t-41.5 -78q-25 -35 -57 -55.5t-73 -19.5q-39 0 -53.5 28.5t-12.5 68.5q0 23 3.5 46t6.5 41l127 504q-27 38 -69.5 64t-96.5 27q-61 2 -112 -19.5t-92 -57.5q-42 -37 -74.5 -86.5t-56.5 -103.5q-25 -54 -41.5 -109.5
t-26.5 -104.5q-6 -28 -11.5 -67.5t-6.5 -81.5t4.5 -84t21.5 -74q15 -34 43.5 -54.5t72.5 -20.5q38 0 71 15.5t62 39.5q28 23 52 52.5t44 57.5q-1 -74 34 -119t100 -46q54 -1 97.5 22.5t78.5 63.5q33 39 58.5 90t43.5 105q18 53 29.5 105t19.5 94zM438 681q9 38 22 82.5
t31 89.5q19 44 44 85t57 72t72 48.5t90 15.5q25 -1 43 -10.5t36 -25.5l-117 -435q-13 -24 -29.5 -50.5t-36.5 -51.5q-31 -43 -71.5 -76t-86.5 -31q-29 1 -45 18.5t-23 44.5q-7 26 -7 58t4 64q3 31 8.5 58t8.5 44z" />
    <glyph glyph-name="A" unicode="A" 
d="M845 406l55 -406h114l-204 1456h-107l-711 -1456h123l197 406h533zM362 514l369 760l101 -760h-470z" />
    <glyph glyph-name="B" unicode="B" 
d="M84 0h454q91 1 177.5 30t155.5 83q68 54 113.5 130.5t55.5 171.5q7 59 -5 113t-40 99q-29 45 -72 78.5t-104 53.5q61 24 109 53t86 68q37 39 61.5 88.5t32.5 111.5q11 92 -18 161t-84 117q-56 47 -132 71t-159 27h-378zM323 700h348q60 -3 110.5 -24.5t85.5 -58.5
q34 -38 50 -90t6 -114q-11 -70 -46.5 -126t-86.5 -96q-52 -40 -115.5 -62.5t-131.5 -23.5l-323 1zM341 804l95 546h280q59 -2 113.5 -19t93.5 -50t58 -82.5t8 -116.5q-11 -68 -46 -119.5t-86 -86.5t-113 -53.5t-126 -19.5z" />
    <glyph glyph-name="C" unicode="C" 
d="M1035 443l-114 -2q-23 -71 -59.5 -137t-87.5 -115q-51 -50 -116.5 -79.5t-147.5 -27.5q-69 2 -118 28t-81 69q-33 43 -50.5 98t-23.5 114q-7 60 -4.5 119.5t10.5 111.5l37 213q10 59 29 122t47 124q27 59 64 113t85 94q47 40 105.5 63.5t128.5 22.5q79 0 132.5 -31.5
t87.5 -81.5q33 -51 48.5 -116t16.5 -134h116q-1 93 -24.5 177t-72.5 148q-49 63 -123.5 101.5t-175.5 38.5q-86 1 -159.5 -26t-133.5 -73q-61 -47 -109 -109.5t-83 -133.5q-37 -72 -61 -149t-37 -152l-35 -210q-10 -69 -9.5 -143t15.5 -145q13 -71 41.5 -135t74.5 -112
q45 -48 109 -77t148 -31q104 -2 191 34.5t155 100.5q67 63 114 148t70 180z" />
    <glyph glyph-name="D" unicode="D" 
d="M68 0h350q94 1 178.5 27t156.5 72q68 43 126 103t102 132q45 72 75.5 154t44.5 169l23 142q11 79 6.5 156.5t-24.5 148.5q-21 72 -59.5 135.5t-93.5 109.5q-57 48 -131.5 76.5t-167.5 30.5h-334zM421 1353h231q76 -3 134.5 -27t101.5 -64q40 -39 67.5 -90t41.5 -109
q16 -61 18 -128t-8 -133l-24 -145q-13 -71 -37.5 -139t-60.5 -129q-37 -61 -84.5 -113t-105.5 -89q-59 -39 -128 -61t-147 -24l-216 1z" />
    <glyph glyph-name="E" unicode="E" 
d="M952 698l18 105h-623l95 547h714l18 106h-831l-252 -1456h835l18 106h-718l103 592h623z" />
    <glyph glyph-name="F" unicode="F" 
d="M960 680l18 106h-625l99 564h718l18 106h-836l-252 -1456h117l118 680h625z" />
    <glyph glyph-name="G" unicode="G" 
d="M996 174l84 519h-447l-18 -106h335l-66 -375q-72 -71 -164.5 -100t-192.5 -25q-69 2 -119.5 28.5t-85.5 68.5t-55.5 96.5t-29.5 114.5q-10 59 -9 120t10 116l35 206q10 59 30 122t49 122q28 59 66.5 112.5t87.5 92.5q48 39 106.5 62t128.5 22q72 -1 124.5 -27t86.5 -70
q35 -45 53 -104t22 -124h115q-1 90 -27.5 168t-76.5 137q-51 58 -124.5 91.5t-167.5 34.5q-87 1 -160.5 -25.5t-134.5 -72.5t-110.5 -108.5t-86.5 -133.5q-37 -72 -62 -149t-38 -152l-34 -203q-10 -72 -8 -147.5t19 -146.5q16 -72 47.5 -136t79.5 -112q48 -49 114 -78
t151 -31q135 -4 257.5 45.5t215.5 147.5z" />
    <glyph glyph-name="H" unicode="H" 
d="M935 0l252 1456h-111l-113 -653h-663l113 653h-110l-252 -1456h110l121 698h663l-121 -698h111z" />
    <glyph glyph-name="I" unicode="I" 
d="M335 1456l-18 -108h343l-215 -1241h-344l-18 -107h819l18 107h-354l216 1241h354l18 108h-819z" />
    <glyph glyph-name="J" unicode="J" 
d="M1023 1456l-174 -1013q-14 -71 -48 -136t-85 -114t-116 -78.5t-140 -28.5q-72 0 -124.5 26t-85.5 71q-34 44 -48 103t-9 125l-118 1q-3 -91 20 -169.5t72 -136.5q47 -58 119.5 -91.5t167.5 -34.5q100 0 187 36.5t154 99.5t112.5 147.5t61.5 179.5l173 1013h-119z" />
    <glyph glyph-name="K" unicode="K" 
d="M520 719l385 -719h136l-434 804l653 651l-155 1l-575 -571l-203 -195l134 766h-119l-251 -1456h118l89 517z" />
    <glyph glyph-name="L" unicode="L" 
d="M246 106l233 1350h-118l-252 -1456h837l18 106h-718z" />
    <glyph glyph-name="M" unicode="M" 
d="M458 1456h-148l-252 -1456h115l110 638l104 637l144 -837h78l454 835l-117 -621l-112 -652h115l252 1456h-157l-445 -819z" />
    <glyph glyph-name="N" unicode="N" 
d="M934 0l252 1456h-118l-213 -1228l-437 1228h-114l-251 -1456h117l213 1231l438 -1231h113z" />
    <glyph glyph-name="O" unicode="O" 
d="M1078 632l31 192q10 68 10 142.5t-12 146.5q-14 72 -41.5 137.5t-71.5 115.5q-45 49 -108.5 79t-148.5 31q-87 1 -159.5 -26t-132.5 -75q-60 -49 -108 -113.5t-83 -136.5q-35 -73 -59 -150.5t-37 -150.5l-31 -192q-10 -68 -10 -142.5t14 -146.5q13 -72 41 -137t73 -115
t108 -80t148 -31q86 -1 159 26.5t133 75.5q59 48 106.5 112.5t83.5 137.5q35 72 58.5 149.5t36.5 150.5zM994 827l-33 -195q-11 -59 -29 -122t-45 -123q-27 -61 -63.5 -115.5t-83.5 -95.5q-47 -42 -105 -65.5t-128 -22.5q-69 1 -117.5 27.5t-80.5 70.5q-32 43 -49.5 99
t-23.5 116q-7 60 -4 119.5t10 110.5l34 195q10 57 28.5 120t45.5 124q28 60 64.5 114.5t84.5 95.5q46 41 104 64.5t128 22.5q68 -1 116.5 -27t81.5 -69q31 -43 48.5 -98.5t23.5 -114.5q6 -60 3 -120t-10 -111z" />
    <glyph glyph-name="P" unicode="P" 
d="M327 600l336 -1q95 1 183 31.5t157 86.5t114.5 135t57.5 177q11 92 -13 169.5t-75 133.5t-126 88.5t-166 35.5h-437l-252 -1456h117zM345 703l113 650h335q69 -3 123 -29t89 -69q35 -44 49.5 -102t3.5 -126q-12 -73 -47.5 -132.5t-88.5 -101.5q-53 -43 -118.5 -66.5
t-138.5 -24.5z" />
    <glyph glyph-name="Q" unicode="Q" 
d="M1103 642l28 172q11 71 10 147t-15 150q-15 73 -44.5 139t-76.5 116q-47 49 -113 79t-152 31q-89 1 -164 -26.5t-137 -74.5q-63 -49 -112.5 -114t-85.5 -139q-38 -74 -63 -153t-38 -155l-29 -173q-11 -70 -10 -146t16 -149q14 -73 44 -138.5t77 -115.5q46 -50 111.5 -80
t152.5 -31q37 0 74 6t73 16l220 -257l87 73l-200 239q74 48 132 113t101 141t71 160t43 170zM1015 817l-30 -176q-11 -61 -30.5 -125.5t-47.5 -126.5q-29 -62 -67.5 -117t-87.5 -96q-49 -42 -110 -65.5t-133 -22.5q-71 1 -122 27.5t-84 70.5q-35 43 -54 99.5t-26 117.5
q-8 61 -6 122.5t11 115.5l30 175q10 61 30 125.5t49 126.5q28 61 67 116t89 96q49 41 109 64.5t132 22.5q71 -1 122 -27t85 -69t53 -99.5t26 -116.5q8 -61 5.5 -122.5t-10.5 -115.5z" />
    <glyph glyph-name="R" unicode="R" 
d="M666 609l204 -609h122l2 14l-217 621q67 27 126 64t105 87q46 49 76.5 110t39.5 136q12 93 -13 170t-78 133q-52 55 -128.5 86.5t-167.5 34.5h-391l-252 -1456h116l105 609h351zM333 712l111 641h291q68 -3 123 -27.5t92 -65.5q36 -43 51.5 -100.5t4.5 -126.5t-45 -127.5
t-83 -100.5q-51 -43 -114 -68t-131 -26z" />
    <glyph glyph-name="S" unicode="S" 
d="M922 363q-10 -69 -46.5 -121.5t-88.5 -86.5q-53 -35 -116.5 -52.5t-128.5 -16.5q-73 0 -132.5 23t-101.5 64q-42 42 -65.5 101t-23.5 132h-117q-5 -97 27.5 -175.5t92.5 -133.5q59 -56 140.5 -86t176.5 -31q87 -1 173.5 24t156.5 74q70 48 117.5 120.5t57.5 166.5
q9 86 -17.5 150t-79.5 120q-47 50 -126 91t-155 68q-56 18 -115.5 45.5t-102.5 65.5q-41 35 -62.5 82t-11.5 111q9 66 45 117t87 86q51 34 113 52t123 17q71 -1 124 -26t89 -68q35 -43 53 -100.5t18 -124.5h118q5 91 -22.5 168.5t-79.5 134.5q-53 56 -128.5 88.5
t-167.5 33.5q-84 1 -168.5 -24t-152.5 -75q-70 -49 -116.5 -120t-55.5 -161q-9 -88 21.5 -153.5t85.5 -114.5q54 -49 124.5 -84t141.5 -60q59 -22 119.5 -49.5t105.5 -68.5q39 -36 60 -86.5t11 -116.5z" />
    <glyph glyph-name="T" unicode="T" 
d="M1237 1350l18 106h-1016l-18 -106h451l-234 -1350h115l233 1350h451z" />
    <glyph glyph-name="U" unicode="U" 
d="M1188 1456h-113l-172 -986q-14 -73 -47.5 -142.5t-84.5 -123.5t-118.5 -86.5t-147.5 -31.5q-78 1 -131.5 35.5t-85.5 89.5q-31 54 -41 122t-1 136l168 987h-112l-170 -987q-13 -91 5.5 -178.5t66.5 -155.5q46 -69 120.5 -111.5t174.5 -43.5q104 -1 192.5 39.5
t155.5 108.5q68 67 112.5 156.5t60.5 185.5z" />
    <glyph glyph-name="V" unicode="V" 
d="M447 0h109l679 1456h-128l-550 -1199l-32 -73l-9 75l-174 1197l-122 1z" />
    <glyph glyph-name="W" unicode="W" 
d="M188 0h119l368 1096l35 108l2 -108l24 -1094l116 -2l426 1456h-111l-303 -1053l-39 -130l1 126l-29 1057h-103l-352 -1037l-46 -142l5 137l25 1042h-110z" />
    <glyph glyph-name="X" unicode="X" 
d="M644 836l-259 621h-131l313 -712l-559 -745h144l471 641l270 -641h131l-323 732l542 724h-145z" />
    <glyph glyph-name="Y" unicode="Y" 
d="M590 665l-236 792h-130l295 -901l-95 -556h110l95 541l615 915h-140z" />
    <glyph glyph-name="Z" unicode="Z" 
d="M188 106l935 1256l12 94h-854l-16 -105h713l-932 -1252l-13 -99h903l16 106h-764z" />
    <glyph glyph-name="bracketleft" unicode="[" 
d="M925 1561l16 103h-337l-309 -1976h338l16 103h-224l276 1770h224z" />
    <glyph glyph-name="backslash" unicode="\" 
d="M399 1457l317 -1582h105l-317 1582h-105z" />
    <glyph glyph-name="bracketright" unicode="]" 
d="M583 1664l-16 -103h223l-276 -1770h-224l-15 -103h336l309 1976h-337z" />
    <glyph glyph-name="asciicircum" unicode="^" 
d="M247 669h119l306 539l50 98l15 -98l120 -540h108l-179 788h-88z" />
    <glyph glyph-name="underscore" unicode="_" 
d="M903 -102l17 102h-857l-16 -102h856z" />
    <glyph glyph-name="grave" unicode="`" 
d="M849 1232l-133 267h-133l172 -267h94z" />
    <glyph glyph-name="a" unicode="a" 
d="M810 0h123l1 13q-6 54 -6 107t8 107l89 523q10 83 -13.5 148.5t-71.5 111.5q-49 45 -117 68.5t-147 24.5q-75 0 -149.5 -20.5t-136.5 -60.5q-63 -40 -107.5 -99.5t-58.5 -137.5l118 -1q14 55 46.5 95.5t77.5 68.5q43 27 95 40.5t106 12.5q57 0 105 -16.5t81 -48.5
t48.5 -78t7.5 -106l-20 -122l-235 1q-58 -1 -118.5 -8t-118.5 -23t-110 -42.5t-93 -64.5q-42 -39 -69 -90.5t-34 -119.5q-7 -70 15.5 -125.5t65.5 -94.5q42 -39 100.5 -60t124.5 -22t127.5 15t117.5 45q43 22 82 52.5t73 66.5q-7 -40 -9.5 -79.5t2.5 -80.5zM434 87
q-46 1 -86 15t-69 41q-29 26 -43 64.5t-6 87.5q7 47 28 82.5t52 61.5q29 25 64.5 41.5t74.5 27.5q54 17 112 23.5t109 6.5l203 -1l-42 -238q-34 -48 -77.5 -87.5t-92.5 -67.5q-51 -28 -108.5 -43.5t-118.5 -13.5z" />
    <glyph glyph-name="b" unicode="b" 
d="M1029 533l3 21q8 61 7.5 125t-12.5 125t-36 114.5t-63 94.5q-40 40 -96 64t-130 25q-58 1 -110.5 -14t-98.5 -42q-38 -22 -70.5 -51t-60.5 -63l111 604h-118l-265 -1536h110l33 142q20 -35 47 -62t60 -47q41 -26 89.5 -39.5t100.5 -13.5q76 -1 139.5 21.5t115.5 62.5
t93 93.5t71 115.5q30 61 50 128t30 132zM914 555l-4 -21q-9 -58 -27 -116t-45 -111q-24 -47 -56.5 -87.5t-71.5 -70.5q-41 -30 -90 -47t-107 -17q-49 1 -91.5 15.5t-75.5 40.5q-32 25 -55.5 61t-35.5 80l88 500q22 46 57.5 85.5t79.5 68.5t94 45t102 16q56 -1 98 -19t70 -49
q28 -32 45 -72.5t24 -85.5q10 -53 9 -109t-8 -107z" />
    <glyph glyph-name="c" unicode="c" 
d="M521 82q-60 0 -104.5 19.5t-76.5 52.5q-31 31 -50 74t-28 92q-9 48 -9 99t7 100l7 42q9 54 26.5 108t43.5 102q26 49 60 90.5t77 72.5q44 32 96.5 49.5t114.5 16.5q61 -1 109.5 -23t81.5 -59q32 -39 47.5 -90t12.5 -110l112 -1q4 83 -20 153t-71 122q-48 50 -116 79.5
t-152 30.5q-113 2 -206 -43t-161 -120q-68 -77 -112.5 -175t-60.5 -203l-6 -42q-7 -60 -5 -119.5t15 -114.5q15 -63 44.5 -118.5t73.5 -96.5q45 -41 106.5 -65t139.5 -25q80 -1 156.5 24.5t138.5 72.5q63 46 107 111.5t59 145.5h-112q-17 -58 -50 -104.5t-78 -79.5
q-46 -33 -101.5 -51t-115.5 -17z" />
    <glyph glyph-name="d" unicode="d" 
d="M144 548l-3 -21q-7 -60 -6 -123t14 -123q12 -61 37 -115t64 -95t94 -65.5t128 -25.5q55 0 105.5 12.5t97.5 37.5q38 20 72.5 47.5t63.5 60.5l-25 -138h109l266 1536h-118l-108 -601q-20 36 -46.5 65t-58.5 50q-40 25 -86 38.5t-96 13.5q-76 1 -140 -21t-116 -62
q-53 -40 -94.5 -93.5t-72.5 -115.5t-51 -129t-30 -133zM259 527l4 21q12 79 42.5 159.5t79.5 145.5t118.5 105.5t161.5 38.5q48 0 88.5 -15t72.5 -42t54.5 -64.5t34.5 -82.5l-91 -520q-26 -39 -59 -72.5t-72 -58.5q-43 -27 -92 -42t-103 -14q-59 1 -102 21t-71 54
q-29 34 -45 77.5t-23 92.5t-6 99.5t8 96.5z" />
    <glyph glyph-name="e" unicode="e" 
d="M538 -20q120 -1 228.5 48t184.5 142l-70 58q-69 -67 -153 -107t-182 -38q-85 1 -147 38.5t-99 96.5q-41 68 -52 146t6 169h783l11 73q13 93 -2.5 182t-59.5 158q-44 70 -117.5 112.5t-177.5 43.5q-75 1 -142.5 -20t-125.5 -59q-58 -39 -106 -91.5t-85 -113.5
q-37 -62 -61 -129.5t-34 -135.5l-6 -44q-12 -98 8.5 -191t68.5 -164q52 -77 135.5 -125t194.5 -49zM687 999q70 -1 122 -31.5t85 -79.5q32 -49 43 -111.5t-1 -126.5l-3 -15l-663 1q24 68 62.5 134t90.5 117t118 82.5t146 29.5z" />
    <glyph glyph-name="f" unicode="f" 
d="M357 0h122l169 983h418l16 99h-418l14 86q14 73 44.5 128t76.5 93q47 37 107.5 56t133.5 19q47 0 93 -6.5t91 -19.5l26 101q-54 13 -108 21t-110 9q-97 0 -177 -27t-140 -78q-61 -52 -100.5 -126.5t-55.5 -169.5l-14 -86h-286l-17 -99h286z" />
    <glyph glyph-name="g" unicode="g" 
d="M146 548l-3 -21q-8 -60 -7 -123t14 -123q12 -61 36.5 -115t64.5 -95q39 -41 94 -65.5t128 -25.5q54 0 105 12.5t97 36.5q37 20 70.5 46.5t62.5 58.5l-24 -120q-15 -72 -47 -135t-79 -109q-48 -47 -111.5 -73.5t-140.5 -25.5q-88 1 -154 43.5t-113 113.5l-72 -73
q58 -87 148 -136t195 -50q101 -2 184.5 33t146.5 96t104 143.5t57 177.5l182 1063h-111l-34 -152q-19 37 -45.5 66.5t-58.5 51.5q-40 27 -87 40.5t-99 14.5q-77 1 -140.5 -21.5t-116.5 -61.5q-53 -40 -94 -94t-71 -116q-31 -62 -51 -129t-30 -133zM260 527l4 21
q13 79 43 159.5t79 145.5t118.5 105.5t161.5 38.5q51 0 93.5 -17t75.5 -46q29 -28 49.5 -65t30.5 -81l-89 -510q-27 -43 -63 -79.5t-78 -61.5q-41 -25 -88 -38.5t-98 -13.5q-59 2 -101.5 22t-71.5 54t-45.5 78t-22.5 92q-7 49 -6 99.5t8 96.5z" />
    <glyph glyph-name="h" unicode="h" 
d="M346 871l121 665h-117l-266 -1536h118l129 745q24 51 64 96.5t91 80.5q49 35 105.5 55t115.5 20q69 -1 113.5 -26t68.5 -66q25 -43 30.5 -98t-2.5 -115l-118 -692h118l117 691q10 80 -0.5 154.5t-45.5 131.5q-36 56 -97 90t-152 35q-62 1 -118.5 -17t-105.5 -49
q-50 -31 -92.5 -73.5t-76.5 -91.5z" />
    <glyph glyph-name="i" unicode="i" 
d="M297 1082l-17 -107h370l-151 -868h-370l-19 -107h846l18 107h-357l169 975h-489zM686 1377q-2 -39 21 -63t62 -24q40 0 66 25t28 64q3 40 -20 66t-63 25t-65.5 -27t-28.5 -66z" />
    <glyph glyph-name="j" unicode="j" 
d="M375 1082l-18 -107h379l-168 -976q-12 -71 -40 -131.5t-72 -104.5q-44 -45 -104 -71t-135 -26q-46 0 -91.5 3.5t-90.5 10.5l-19 -101q52 -8 102.5 -12.5t102.5 -4.5q99 1 178 34.5t138 92.5q59 58 96.5 137.5t52.5 173.5l186 1082h-497zM767 1378q-3 -40 20.5 -64.5
t63.5 -23.5q40 2 65.5 26.5t28.5 63.5q3 40 -20 66t-64 25q-40 -1 -65.5 -27t-28.5 -66z" />
    <glyph glyph-name="k" unicode="k" 
d="M473 545l354 -545h142l-407 621l555 461h-161l-494 -403l-141 -121l169 978h-118l-266 -1536h118l70 405z" />
    <glyph glyph-name="l" unicode="l" 
d="M376 1536l-18 -107h373l-230 -1322h-372l-19 -107h846l18 107h-355l248 1429h-491z" />
    <glyph glyph-name="m" unicode="m" 
d="M275 1083l-105 -1l-187 -1082h110l144 825q14 35 34.5 66.5t47.5 54.5q28 24 63 37.5t76 13.5t66.5 -15t39.5 -40q12 -26 14.5 -58.5t-2.5 -67.5l-139 -816h111l144 834q10 28 30.5 59t49.5 55q28 23 62.5 36t76.5 13q43 1 69.5 -15.5t39.5 -43.5q12 -27 13.5 -61.5
t-3.5 -70.5l-137 -806h111l137 804q7 56 1.5 109.5t-27.5 95.5q-23 42 -65 67.5t-107 25.5q-81 0 -145 -39t-110 -102q-7 34 -22.5 60t-37.5 43q-25 20 -57.5 29.5t-70.5 8.5q-81 0 -142.5 -38.5t-106.5 -103.5z" />
    <glyph glyph-name="n" unicode="n" 
d="M83 0h118l128 740q24 52 63.5 99t89.5 82q49 35 106 55.5t116 20.5q69 0 114 -25t69 -66q24 -42 29.5 -97.5t-2.5 -116.5l-118 -692h118l116 688q12 81 1 157.5t-46 132.5q-36 56 -97 89.5t-151 34.5q-63 1 -119 -16.5t-106 -48.5t-92.5 -73.5t-77.5 -91.5l36 211
l-108 -1z" />
    <glyph glyph-name="o" unicode="o" 
d="M120 553l-5 -32q-9 -69 -3.5 -137t25.5 -129q17 -52 44.5 -97.5t65.5 -81.5q46 -44 109.5 -69.5t144.5 -26.5q114 -1 208.5 44.5t165.5 122.5q71 76 116.5 175t61.5 204l4 32q9 68 4 136t-24 130q-18 56 -48 104.5t-70 85.5q-45 40 -107.5 63.5t-139.5 24.5
q-114 2 -207 -43t-163 -119q-73 -77 -119.5 -178t-62.5 -209zM232 521l6 32q14 81 48.5 161t89.5 144q54 64 127.5 103.5t164.5 38.5q79 -2 133 -37t87 -90q41 -65 52 -150t0 -165l-5 -32q-12 -73 -48 -156.5t-90 -147.5q-55 -63 -128 -102.5t-164 -37.5q-85 1 -142.5 39.5
t-88.5 97.5q-34 66 -43.5 146t1.5 156z" />
    <glyph glyph-name="p" unicode="p" 
d="M1025 534l3 21q8 61 7.5 124.5t-12.5 124.5t-36 114.5t-63 94.5q-40 40 -95.5 64t-130.5 25q-57 1 -109 -13.5t-98 -40.5q-39 -22 -73 -51t-62 -64l27 150l-109 -1l-259 -1498h117l99 548q21 -34 49 -60t61 -44q41 -24 88.5 -36t96.5 -12q71 -1 132 19.5t112 56.5
q58 40 103 99.5t77 126.5q28 60 47 124.5t28 127.5zM910 555l-3 -21q-8 -52 -24 -104.5t-39 -102.5q-25 -52 -59 -98.5t-79 -79.5q-41 -31 -91.5 -49t-110.5 -18q-45 1 -86 13.5t-73 35.5q-33 23 -57.5 57t-38.5 78l93 528q26 41 58 77t71 63q42 30 91.5 46.5t104.5 16.5
q59 -1 102 -20.5t72 -52.5q26 -30 42 -68.5t25 -83.5q10 -53 9.5 -109.5t-7.5 -107.5z" />
    <glyph glyph-name="q" unicode="q" 
d="M145 548l-3 -21q-8 -60 -6.5 -123.5t13.5 -123.5q12 -61 37 -115t65 -94q39 -41 94.5 -65.5t128.5 -25.5q51 0 99 11t92 33q39 19 74.5 45t66.5 59l-100 -544h118l259 1498h-111l-33 -144q-21 37 -49 66t-61 50q-39 23 -84 35.5t-94 12.5q-77 1 -141.5 -21t-116.5 -61
q-53 -39 -94.5 -93t-71.5 -116q-31 -62 -51 -129t-31 -134zM260 527l4 21q8 50 23 101.5t38 99.5q24 52 58 99.5t78 81.5q42 33 93.5 52t113.5 18q47 -1 87.5 -16t72.5 -41q32 -27 54.5 -63t35.5 -79l-95 -536q-28 -41 -63 -74.5t-76 -57.5q-42 -24 -88 -37.5t-96 -12.5
q-60 1 -102.5 21.5t-71.5 54.5t-45 78t-23 93t-6 100t8 97z" />
    <glyph glyph-name="r" unicode="r" 
d="M961 1103q-70 0 -134.5 -15.5t-121.5 -45.5q-57 -31 -106.5 -75t-90.5 -99l10 50l26 164h-112l-187 -1082h121l119 693q29 73 78 129.5t111 93.5q57 34 124.5 51.5t137.5 17.5q40 0 80 -5.5t80 -13.5l29 115q-40 11 -81.5 16.5t-82.5 5.5z" />
    <glyph glyph-name="s" unicode="s" 
d="M869 280q-10 -55 -44.5 -93t-82.5 -61t-102 -33.5t-102 -9.5q-54 0 -105 12t-91 38t-64 68.5t-25 102.5l-117 1q-2 -84 32.5 -145t91.5 -100q56 -41 128 -60t148 -20q71 -1 148 16t141 55q65 36 109 94.5t52 140.5q8 63 -16.5 113.5t-71.5 86.5q-41 31 -88 51.5t-95 36.5
q-37 13 -78 24t-80 23q-35 10 -71 24t-64 35t-43.5 52t-8.5 76q9 53 41.5 89.5t77.5 59.5q44 22 95 32t98 10q50 -1 98.5 -14t85.5 -40q37 -28 58 -69t19 -97l117 -1q2 82 -28.5 142.5t-82.5 100.5t-121 60t-143 21q-65 1 -133 -14.5t-129 -47.5q-66 -34 -114.5 -94.5
t-54.5 -141.5q-6 -63 17 -109t62 -79q36 -30 82 -51.5t94 -35.5q36 -12 76 -22.5t78 -22.5q35 -10 74 -25t71 -38q35 -26 52.5 -60t8.5 -81z" />
    <glyph glyph-name="t" unicode="t" 
d="M707 1359h-119l-49 -277h-292l-16 -99h292l-116 -678q-8 -73 7 -132.5t51 -101.5t91.5 -65.5t129.5 -24.5q56 -2 114 5t110 28l-11 92q-47 -8 -94 -14.5t-95 -4.5q-51 1 -88.5 16t-60.5 43q-24 28 -33 68t-2 91l116 678h389l17 99h-389z" />
    <glyph glyph-name="u" unicode="u" 
d="M453 -20q116 -1 210 50t162 141l-31 -171h110l187 1082h-119l-132 -763q-23 -54 -60.5 -97.5t-84.5 -73.5q-49 -31 -106 -47t-117 -15q-71 1 -113 30.5t-62 76.5q-21 47 -23.5 105.5t6.5 116.5l113 667h-118l-113 -665q-10 -81 -1.5 -159t43.5 -140q33 -61 94.5 -99
t154.5 -39z" />
    <glyph glyph-name="v" unicode="v" 
d="M456 0h96l610 1082h-127l-486 -883l-29 -59l-9 59l-214 884h-116z" />
    <glyph glyph-name="w" unicode="w" 
d="M191 0h96l308 731l62 173v-158l59 -746h95l419 1082h-111l-270 -731l-66 -186l-5 179l-52 738h-83l-301 -722l-72 -186l1 171l-20 737h-106z" />
    <glyph glyph-name="x" unicode="x" 
d="M608 643l-255 440h-133l315 -526l-506 -557h148l413 459l271 -459h132l-329 546l488 535l-149 1z" />
    <glyph glyph-name="y" unicode="y" 
d="M513 225l-227 858h-127l289 -1048l-104 -167q-23 -36 -50.5 -71.5t-60.5 -63.5q-33 -29 -72.5 -46.5t-85.5 -17.5q-21 0 -41.5 3t-40.5 5l-23 -102q26 -5 51.5 -9t51.5 -4q64 0 118.5 22t100.5 59q46 36 83.5 84t68.5 99l758 1256h-139l-530 -902z" />
    <glyph glyph-name="z" unicode="z" 
d="M225 103l851 886l15 93h-850l-16 -104h688l-847 -884l-15 -94h922l15 103h-763z" />
    <glyph glyph-name="braceleft" unicode="{" 
d="M797 -402l25 79q-66 18 -108 56.5t-64 90.5q-23 51 -28 112t3 123l30 208q6 54 -1.5 104.5t-29.5 92.5t-59 75t-88 53q120 40 192.5 122.5t91.5 209.5l30 208q11 69 34.5 132.5t61.5 114.5q39 51 93.5 87t127.5 51l-10 82q-91 -17 -164 -58.5t-126 -101.5
q-54 -61 -88 -139t-47 -168l-30 -208q-22 -133 -103.5 -201.5t-213.5 -74.5l-12 -105q65 -5 110.5 -24.5t73.5 -53.5q28 -35 37.5 -84.5t2.5 -113.5l-31 -207q-9 -81 3.5 -156.5t48.5 -137.5q36 -63 95.5 -107t142.5 -61z" />
    <glyph glyph-name="bar" unicode="|" 
d="M501 -334l279 1790h-100l-279 -1790h100z" />
    <glyph glyph-name="braceright" unicode="}" 
d="M175 -323l12 -82q90 17 162.5 58t126.5 102t88 138t48 167l30 207q21 133 103 201.5t214 75.5l11 105q-128 9 -183.5 78t-39.5 196l30 209q10 84 -2.5 162t-50.5 141q-35 59 -93 101.5t-139 59.5l-25 -79q66 -16 107.5 -53t62.5 -85q24 -53 27.5 -116.5t-4.5 -129.5
l-31 -209q-6 -55 1.5 -105t29.5 -92t59 -75t89 -54q-121 -40 -193 -122t-91 -209l-30 -207q-12 -67 -37 -129.5t-64 -113.5q-40 -51 -94 -88t-124 -52z" />
    <glyph glyph-name="asciitilde" unicode="~" 
d="M1153 747l-89 8q-9 -42 -27 -82t-45 -72t-64 -51.5t-85 -19.5q-32 0 -60.5 9.5t-53.5 25.5q-26 16 -48.5 36.5t-44.5 42.5q-26 26 -54.5 50t-58.5 43q-38 24 -80.5 37.5t-89.5 14.5q-69 0 -123 -27t-93 -71q-40 -45 -65 -103t-34 -120l93 -8q9 42 26.5 81.5t44.5 70.5
q26 30 63 49t85 20q32 0 60.5 -9.5t53.5 -25.5q26 -17 49 -37t44 -41q30 -29 61.5 -55.5t66.5 -46.5q34 -20 72.5 -32t81.5 -12q69 0 123 28t94 73q39 46 63.5 104t33.5 120z" />
    <glyph glyph-name="nonbreakingspace" unicode="&#xa0;" 
 />
    <glyph glyph-name="exclamdown" unicode="&#xa1;" 
d="M550 654l-176 -1019h118l176 1019h-118zM752 1020q2 35 -21.5 59.5t-58.5 24.5q-36 -1 -61 -25.5t-27 -59.5q-2 -36 22 -59.5t58 -23.5q33 1 59 25t29 59z" />
    <glyph glyph-name="cent" unicode="&#xa2;" 
d="M525 82q-60 0 -104.5 19.5t-75.5 52.5q-32 31 -51 74t-27 92q-10 48 -9.5 99t7.5 100l6 42q9 53 26.5 106.5t42.5 101.5q27 50 62 92.5t79 74.5q43 31 95 48t113 16q62 -1 110 -23t81 -59q33 -39 48.5 -90t12.5 -110l111 -1q4 74 -15 137.5t-57 113.5t-93 82.5t-124 44.5
l38 223h-118l-38 -218q-104 -8 -188 -56.5t-146 -122.5q-63 -75 -102.5 -168t-54.5 -192l-6 -42q-8 -57 -6 -114.5t13 -110.5q14 -62 41 -116.5t68 -95.5q36 -36 82.5 -60t105.5 -33l-40 -234h119l38 227q74 7 142.5 35t124.5 74q55 45 93.5 107t53.5 136h-113
q-16 -58 -49.5 -104.5t-78.5 -79.5q-46 -33 -101.5 -51t-115.5 -17z" />
    <glyph glyph-name="sterling" unicode="&#xa3;" 
d="M437 647h332l17 103h-335l41 290q10 63 36.5 123.5t68.5 107.5q41 47 97.5 75.5t126.5 27.5q63 -1 107.5 -23.5t71.5 -60.5q27 -40 37 -91.5t4 -109.5h118q6 81 -11.5 151t-58.5 122q-42 52 -105.5 82.5t-149.5 31.5q-94 1 -173 -34t-138 -94q-60 -61 -98.5 -140.5
t-50.5 -168.5l-39 -289h-180l-16 -103h181l-39 -279q-6 -37 -15 -77t-25 -76q-17 -36 -42 -66t-62 -47h-90l-17 -102h967l17 103l-728 -2q50 58 75.5 125.5t36.5 142.5z" />
    <glyph glyph-name="currency" unicode="&#xa4;" 
d="M853 117l98 -144l93 83l-107 155q62 78 102 167t56 187q13 91 3 181.5t-45 174.5l168 158l-73 94l-167 -158q-55 61 -126.5 93.5t-154.5 33.5q-91 0 -171.5 -35t-149.5 -89l-105 154l-92 -82l110 -162q-67 -80 -110.5 -173.5t-59.5 -196.5q-13 -88 -3.5 -176t41.5 -171
l-155 -144l72 -93l149 143q56 -66 130 -101t161 -36q97 -1 180 37.5t156 99.5zM234 557q8 54 27 108.5t48 106.5q31 55 73.5 104.5t93.5 84.5q47 33 102 51.5t116 17.5q57 0 103 -20.5t81 -53.5q38 -38 63 -88.5t37 -107.5q10 -49 11 -98.5t-6 -95.5q-9 -51 -27 -104.5
t-45 -103.5q-31 -57 -72 -106t-91 -85q-49 -35 -105.5 -55.5t-118.5 -19.5q-59 0 -105 20.5t-80 55.5q-38 37 -62.5 86.5t-37.5 104.5q-10 49 -11.5 100t6.5 98z" />
    <glyph glyph-name="yen" unicode="&#xa5;" 
d="M1150 1456l-492 -660l-42 -62h-2l-20 63l-263 660h-129l312 -751h-362l-14 -88h401l-36 -204h-402l-14 -88h401l-56 -326h118l56 326h407l15 88h-408l38 200l3 6l403 -2l14 88h-354l569 749z" />
    <glyph glyph-name="brokenbar" unicode="&#xa6;" 
d="M376 -270h118l133 772h-117zM662 698l131 758h-118l-131 -758h118z" />
    <glyph glyph-name="section" unicode="&#xa7;" 
d="M1059 435q8 62 -4.5 110t-39.5 87q-30 43 -75.5 75.5t-98.5 56.5q-43 20 -89.5 35.5t-90.5 29.5q-33 10 -68.5 22t-69.5 26q-29 13 -56 28.5t-48 36.5q-35 31 -52.5 74t-7.5 103q12 67 50.5 116t92.5 80t117.5 45.5t126.5 13.5q73 -2 128.5 -27t92.5 -69
q36 -43 52 -102.5t10 -130.5h116q9 98 -15 177.5t-76 135.5q-51 56 -128.5 86.5t-176.5 31.5q-53 1 -107 -7t-104 -24q-62 -21 -115.5 -53.5t-93.5 -78.5q-35 -39 -58 -88.5t-30 -108.5q-6 -51 1.5 -96.5t28.5 -83.5q17 -32 43 -58.5t59 -48.5q-52 -17 -98 -41.5t-83 -58.5
q-36 -34 -60.5 -79.5t-31.5 -102.5q-10 -78 12 -136.5t65 -101.5q27 -29 62 -52t75 -42q44 -22 92 -38.5t93 -30.5q35 -10 72.5 -22.5t73.5 -28.5q36 -17 67.5 -38t53.5 -49t31.5 -64t1.5 -81q-11 -67 -49.5 -115.5t-92.5 -79.5q-55 -31 -118.5 -45.5t-124.5 -14.5
q-76 1 -136.5 23.5t-101.5 65.5t-60.5 104t-11.5 137l-120 -2q-8 -102 20.5 -182t85.5 -135q58 -55 139.5 -84t180.5 -30q86 -1 172 20t157 65t120 112.5t60 163.5q6 58 -4.5 107.5t-38.5 92.5q-19 27 -45 49.5t-58 41.5q52 15 100.5 38.5t87.5 56.5q38 34 64 79t34 104z
M611 729q35 -11 75.5 -24t80.5 -30q39 -17 75 -39t61 -51q25 -30 36 -67.5t2 -85.5q-10 -52 -39 -89.5t-69 -62.5q-41 -26 -88.5 -41t-94.5 -22q-14 4 -23.5 7.5t-23.5 8.5q-35 11 -72.5 23t-74.5 26q-47 17 -94.5 38.5t-82.5 52.5q-36 30 -54 73t-7 103q10 54 37 93.5
t65 66.5q36 24 79 39t89 22q30 -11 61 -21.5t62 -19.5z" />
    <glyph glyph-name="dieresis" unicode="&#xa8;" 
d="M425 1396q-1 -34 21 -57t56 -23q33 1 58 24.5t27 56.5q1 33 -21.5 57t-56.5 24q-34 -1 -58 -25t-26 -57zM849 1395q-1 -34 21.5 -57t55.5 -23q34 1 58.5 24.5t26.5 56.5q1 34 -21.5 58t-56.5 23q-33 -1 -57.5 -25t-26.5 -57z" />
    <glyph glyph-name="copyright" unicode="&#xa9;" 
d="M806 449h-78q-9 -34 -23.5 -63.5t-36.5 -50.5q-21 -21 -50 -32.5t-68 -10.5q-45 1 -72.5 22t-41.5 54q-14 32 -17 70.5t1 74.5l8 70q6 39 21 78t40 70q24 31 58 50.5t80 19.5q38 0 64 -11.5t41 -32.5q15 -20 21 -48.5t5 -62.5h78q4 50 -7 91.5t-36 71.5q-27 32 -68 49.5
t-96 17.5q-62 0 -111 -24.5t-85 -65.5q-36 -42 -58 -95.5t-29 -109.5l-8 -67q-4 -54 5 -107t34 -95t67 -69t103 -28q59 -1 105.5 18t79.5 54q29 30 48 71.5t26 90.5zM147 543q14 98 60.5 188t117.5 158q70 67 159 105.5t190 36.5q98 -1 173 -42t123 -107q48 -68 68 -154
t7 -177q-14 -99 -59.5 -189.5t-114.5 -159.5q-70 -70 -160.5 -111t-194.5 -40q-100 1 -175 44t-122 112q-48 68 -66.5 156t-5.5 180zM76 543q-11 -89 5 -174t56 -155q39 -71 101.5 -121.5t144.5 -71.5q66 -21 135 -21.5t141 18.5q91 19 169 69.5t138 121.5t99 159t51 183
q9 71 1 139.5t-32 129.5q-26 66 -65.5 117t-92.5 89q-51 36 -114 57t-137 21q-79 1 -151 -19.5t-136 -57.5q-62 -37 -112.5 -85.5t-94.5 -113.5q-43 -62 -69.5 -135t-36.5 -150z" />
    <glyph glyph-name="ordfeminine" unicode="&#xaa;" 
d="M814 704l108 1q-6 46 -5 91t9 90q17 105 26 157t25 157q8 58 -4.5 108.5t-41.5 87.5q-30 37 -75.5 58.5t-106.5 21.5q-57 1 -111 -13t-97 -43q-45 -30 -76 -74t-43 -102l105 -6q12 37 32.5 64t48.5 45q28 17 62 25t72 7q39 -1 66 -15.5t42 -38.5t19.5 -56t-0.5 -67
l-11 -61h-156q-57 0 -117.5 -12t-110.5 -39q-51 -28 -86 -72.5t-41 -111.5q-6 -51 9.5 -91t45.5 -67q30 -28 72 -42.5t91 -14.5q75 1 138 34.5t111 89.5q-3 -28 -3 -55t3 -56zM590 786q-29 0 -55.5 7.5t-46.5 22.5q-19 15 -28.5 38t-4.5 56q7 43 32.5 71t60.5 45t75 24t78 8
h147l-25 -141q-17 -27 -39.5 -49t-49.5 -39q-33 -20 -70 -31t-74 -12z" />
    <glyph glyph-name="guillemotleft" unicode="&#xab;" 
d="M343 513l340 396h-111l-348 -379l-3 -19l226 -379h95zM667 513l340 396h-111l-348 -379l-3 -19l226 -379h95z" />
    <glyph glyph-name="logicalnot" unicode="&#xac;" 
d="M943 386l67 391h-788l-18 -107h672l-50 -284h117z" />
    <glyph glyph-name="uni00AD" unicode="&#xad;" 
d="M943 600l17 103h-721l-17 -103h721z" />
    <glyph glyph-name="registered" unicode="&#xae;" 
d="M72 536q-10 -77 0 -151t38 -138q22 -52 55 -96t74 -77q53 -44 122 -69t151 -26t156.5 21t140.5 62q57 36 107 85.5t89 107.5q42 64 69.5 137.5t37.5 150.5q13 108 -11 207.5t-81 176.5t-145 123.5t-202 48.5q-82 1 -156.5 -21t-139.5 -61q-59 -37 -110 -86t-89 -108
q-42 -64 -69.5 -137t-36.5 -150zM143 536q13 98 59 187.5t116 157.5q69 67 159.5 106.5t193.5 38.5q99 -1 174 -42.5t123 -107.5q48 -68 67 -154.5t6 -177.5q-13 -98 -59 -188t-115 -157q-70 -68 -160.5 -108.5t-192.5 -38.5q-99 1 -174 42.5t-123 108.5t-67.5 154t-6.5 179
zM465 492h143l90 -258h80l-103 282q28 10 55 23.5t49 32.5q21 19 35 44.5t18 58.5q5 46 -9.5 79.5t-41.5 55.5q-28 22 -65.5 33.5t-78.5 12.5l-195 1l-98 -623h80zM476 566l34 215l126 -1q26 -1 49.5 -6.5t40.5 -18.5q16 -12 24 -32.5t3 -49.5q-5 -27 -19.5 -46.5
t-34.5 -32.5t-44 -20t-49 -8h-130z" />
    <glyph glyph-name="macron" unicode="&#xaf;" 
d="M1041 1358l15 98h-652l-15 -98h652z" />
    <glyph glyph-name="macron" unicode="&#x2c9;" 
d="M1041 1358l15 98h-652l-15 -98h652z" />
    <glyph glyph-name="degree" unicode="&#xb0;" 
d="M468 1222q-5 -48 8.5 -91.5t41.5 -76.5q27 -34 67.5 -54t89.5 -21q51 0 97.5 21t81.5 56q36 34 59 79.5t28 95.5q5 46 -8 90t-40 79q-27 34 -66.5 55t-87.5 22q-52 0 -99 -21t-84 -56q-36 -36 -59.5 -82t-28.5 -96zM556 1223q5 32 20.5 61t40.5 52q23 22 53.5 35.5
t63.5 13.5q31 0 55.5 -13.5t40.5 -35.5q15 -22 21 -50t1 -57q-4 -31 -19.5 -59.5t-37.5 -49.5q-24 -22 -53.5 -35.5t-61.5 -13.5q-31 0 -56 13t-41 34q-17 21 -24 48t-3 57z" />
    <glyph glyph-name="plusminus" unicode="&#xb1;" 
d="M697 830l69 437h-109l-69 -437h-401l-16 -103h402l-69 -438h109l69 438h379l16 103h-380zM917 0l17 103h-811l-18 -103h812z" />
    <glyph glyph-name="twosuperior" unicode="&#xb2;" 
d="M908 667l15 89h-419l241 196q34 28 71 59.5t69 68.5q32 36 54.5 77t27.5 88q6 54 -11 95.5t-50 69.5q-32 28 -76.5 43t-94.5 15q-58 1 -109.5 -17t-91.5 -50q-41 -34 -68 -80t-37 -103h105q17 57 54.5 95.5t92.5 46.5q29 10 58.5 9.5t57.5 -11.5q34 -12 52.5 -41
t10.5 -72q-6 -34 -24 -64.5t-43 -57.5t-52.5 -50.5t-51.5 -45.5l-323 -280l-14 -80h556z" />
    <glyph glyph-name="threesuperior" unicode="&#xb3;" 
d="M906 1008q-17 20 -41.5 34.5t-53.5 24.5q32 12 61.5 28.5t53.5 38.5q23 22 39 50t20 65q6 54 -12.5 94.5t-52.5 68.5q-34 27 -80 41t-94 14q-53 0 -101.5 -14.5t-86.5 -41.5q-40 -28 -67.5 -69t-37.5 -94h105q22 63 72.5 96.5t117.5 33.5q30 0 56.5 -8.5t46.5 -25.5
q19 -16 28 -40.5t3 -57.5q-6 -36 -27 -61.5t-49 -42.5q-29 -16 -63 -24.5t-67 -9.5l-73 1l-9 -83h79q33 -1 65 -8t57 -22q24 -16 37 -42t6 -65q-6 -37 -25.5 -64t-47.5 -45t-62 -27t-68 -9t-64 9.5t-50 27.5q-21 17 -32.5 43.5t-10.5 61.5h-102q-1 -56 19 -99t55 -72t82 -44
t101 -16q52 0 105 14t96 43t72 72.5t34 101.5q4 37 -5 67.5t-29 54.5z" />
    <glyph glyph-name="acute" unicode="&#xb4;" 
d="M751 1498l-219 -264l105 -1l264 265h-150z" />
    <glyph glyph-name="mu" unicode="&#xb5;" 
d="M399 1082h-116l-259 -1498h116l96 527q40 -64 103.5 -97.5t141.5 -33.5q52 0 99 12.5t88 36.5q42 24 78 59.5t66 79.5l-29 -168h107l187 1082h-118l-125 -724q-20 -58 -52 -108t-74 -87q-46 -39 -104 -60t-127 -20q-50 0 -84.5 17.5t-56.5 45.5q-23 27 -34.5 63.5
t-14.5 77.5q-4 40 -2 82t8 80z" />
    <glyph glyph-name="paragraph" unicode="&#xb6;" 
d="M702 0h117l253 1456l-229 1q-105 -1 -199 -35.5t-167 -95.5q-74 -62 -122 -148t-62 -193q-13 -101 11 -185t78 -145q54 -62 134.5 -97t181.5 -37l94 -1z" />
    <glyph glyph-name="periodcentered" unicode="&#xb7;" 
d="M539 717q-2 -34 20.5 -58t58.5 -24q32 0 59 24.5t28 58.5q2 35 -21 60t-58 24q-36 -1 -61 -26t-26 -59z" />
    <glyph glyph-name="cedilla" unicode="&#xb8;" 
d="M500 0h-92l-45 -126q24 -4 53 -8.5t53 -14.5q23 -11 36.5 -31t7.5 -53q-7 -37 -30.5 -60.5t-54.5 -36.5q-32 -14 -67 -20t-66 -7l-3 -79q33 2 69 6.5t70 14.5q34 9 66.5 25t57.5 39q23 22 38 51.5t18 67.5t-7 67.5t-30 50.5q-18 18 -43 30t-55 18z" />
    <glyph glyph-name="onesuperior" unicode="&#xb9;" 
d="M733 665l133 790h-16l-327 -105l-15 -93l236 67l-114 -659h103z" />
    <glyph glyph-name="ordmasculine" unicode="&#xba;" 
d="M373 1141l-16 -117q-8 -66 6.5 -126.5t48.5 -105.5q34 -46 87 -73.5t124 -28.5q73 -1 135 25t110 72q46 46 77 107t42 130l16 117q8 67 -6 127t-47 106q-35 46 -88 73.5t-124 28.5q-73 1 -135 -25.5t-110 -71.5q-47 -46 -78.5 -107.5t-41.5 -130.5zM465 1023l16 119
q9 47 29.5 90t51.5 77q31 33 73 52t94 19q50 -1 85 -21.5t55 -53.5q20 -34 26.5 -76.5t1.5 -86.5l-18 -118q-8 -47 -28.5 -90.5t-51.5 -76.5q-32 -33 -73.5 -52.5t-92.5 -18.5q-51 0 -86 20.5t-55 53.5t-26.5 75.5t-0.5 87.5z" />
    <glyph glyph-name="guillemotright" unicode="&#xbb;" 
d="M396 945h-96l198 -388l-339 -394l112 -1l347 380l2 19zM730 945h-96l198 -388l-339 -394l112 -1l347 380l2 19z" />
    <glyph glyph-name="onequarter" unicode="&#xbc;" 
d="M385 751l120 711h-15l-294 -94l-14 -84l213 60l-103 -593h93zM959 249l79 461h-101l-425 -478l-8 -63l348 -1l-30 -168h94l29 168h111l13 81h-110zM620 249l275 298l33 42l-63 -340h-245zM288 182l686 1040l-77 51l-686 -1040z" />
    <glyph glyph-name="onehalf" unicode="&#xbd;" 
d="M382 747l120 711h-15l-294 -94l-14 -84l213 60l-103 -593h93zM1037 0l14 80h-377l217 177q30 25 63.5 53.5t62.5 60.5q28 33 48.5 70t25.5 80q5 48 -10.5 85.5t-44.5 62.5t-69 38.5t-85 13.5q-53 1 -99 -15t-82 -46q-37 -30 -61 -71.5t-34 -92.5h95q9 32 24.5 58.5
t37.5 45.5q23 20 53 31t67 11q27 0 49.5 -8.5t38.5 -24.5q15 -15 22 -37.5t2 -51.5q-6 -30 -22.5 -57.5t-38.5 -51.5q-22 -25 -47 -46t-47 -41l-290 -252l-13 -72h500zM247 182l686 1040l-77 51l-686 -1040z" />
    <glyph glyph-name="threequarters" unicode="&#xbe;" 
d="M986 249l79 462l-101 -1l-425 -477l-7 -64h347l-29 -168h93l29 168h111l14 80h-111zM647 249l275 298l33 43l-62 -341h-246zM321 1142l-8 -74h72q29 -1 58 -7t51 -20t33.5 -37.5t5.5 -58.5q-5 -33 -23 -57.5t-43 -41.5q-25 -16 -55.5 -24t-60.5 -8q-32 0 -59.5 9
t-46.5 25q-17 16 -27 39.5t-9 54.5h-92q-1 -50 17.5 -89t49.5 -65t73.5 -39.5t91.5 -14.5q47 0 94.5 13t86.5 38q39 27 65 66t30 91q3 35 -6 63.5t-28 49.5q-16 16 -36.5 29t-45.5 21q28 11 55 25.5t48 34.5t35.5 45.5t17.5 58.5q6 48 -10.5 85t-47.5 61q-31 25 -72.5 37.5
t-84.5 12.5q-48 0 -91 -13t-79 -38q-35 -25 -59.5 -61.5t-33.5 -84.5h94q20 56 65 86.5t106 30.5q27 0 51 -8t41 -23q18 -15 26 -36.5t3 -50.5q-6 -33 -24.5 -56t-44.5 -38t-56.5 -22.5t-60.5 -8.5h-66zM357 177l686 1040l-77 52l-686 -1040z" />
    <glyph glyph-name="questiondown" unicode="&#xbf;" 
d="M686 684h-115q-7 -39 -17.5 -72.5t-25.5 -62.5t-36.5 -54.5t-51.5 -50.5q-55 -46 -108 -96t-97 -106t-74.5 -120.5t-40.5 -139.5q-10 -79 8 -146t60 -116q42 -50 105 -78t143 -29q83 -1 154 25.5t126 74.5q54 47 91 113.5t50 146.5h-117q-13 -53 -38 -98.5t-61 -78.5
q-38 -36 -88.5 -56.5t-111.5 -19.5q-58 0 -100 21t-67 57q-26 35 -34.5 83t-0.5 102q10 61 36.5 113.5t63.5 99.5t81 89t88 80q41 36 71 70t52 72q21 37 34.5 80t20.5 97zM600 1017q-1 -35 22.5 -59t57.5 -24q34 1 59.5 25t27.5 59t-21 59.5t-58 24.5q-35 -1 -60.5 -26
t-27.5 -59z" />
    <glyph glyph-name="Agrave" unicode="&#xc0;" 
d="M845 406l55 -406h114l-204 1456h-107l-711 -1456h123l197 406h533zM362 514l369 760l101 -760h-470zM836 1565l-133 267h-133l172 -267h94z" />
    <glyph glyph-name="Aacute" unicode="&#xc1;" 
d="M845 406l55 -406h114l-204 1456h-107l-711 -1456h123l197 406h533zM362 514l369 760l101 -760h-470zM935 1829l-219 -264l105 -1l264 265h-150z" />
    <glyph glyph-name="Acircumflex" unicode="&#xc2;" 
d="M845 406l55 -406h114l-204 1456h-107l-711 -1456h123l197 406h533zM362 514l369 760l101 -760h-470zM1059 1609l-201 241h-73l-266 -238l-2 -20h109l193 172l132 -173h106z" />
    <glyph glyph-name="Atilde" unicode="&#xc3;" 
d="M845 406l55 -406h114l-204 1456h-107l-711 -1456h123l197 406h533zM362 514l369 760l101 -760h-470zM1135 1825l-76 15q-7 -22 -18 -43.5t-29 -42.5q-16 -17 -34.5 -27t-40.5 -10q-38 -1 -68.5 18t-61.5 41q-30 20 -61.5 37t-72.5 17q-43 0 -78 -17t-61 -46t-42.5 -66
t-23.5 -76l78 -11q7 22 18 43t27 38q15 16 35.5 26t46.5 10q36 1 67 -17t61 -39q28 -21 59 -38t70 -17q44 0 79 17.5t61 46.5q25 28 41.5 65t23.5 76z" />
    <glyph glyph-name="Adieresis" unicode="&#xc4;" 
d="M845 406l55 -406h114l-204 1456h-107l-711 -1456h123l197 406h533zM362 514l369 760l101 -760h-470zM506 1729q-1 -34 21 -57t56 -23q33 1 58 24.5t27 56.5q1 33 -21.5 57t-56.5 24q-34 -1 -58 -25t-26 -57zM930 1728q-1 -34 21.5 -57t55.5 -23q34 1 58.5 24.5t26.5 56.5
q1 34 -21.5 58t-56.5 23q-33 -1 -57.5 -25t-26.5 -57z" />
    <glyph glyph-name="Aring" unicode="&#xc5;" 
d="M845 406l55 -406h114l-204 1456h-107l-711 -1456h123l197 406h533zM362 514l369 760l101 -760h-470zM624 1713q-3 -36 7.5 -68t32.5 -57q21 -24 51.5 -38.5t67.5 -14.5q39 0 73.5 15t61.5 40t44 59t20 72q3 36 -7 69t-31 58q-21 26 -52 41t-68 15q-39 0 -73.5 -15.5
t-61.5 -41.5t-44.5 -61t-20.5 -73zM700 1715q3 22 14 43t28 38q16 16 37 25.5t45 9.5q22 0 39 -9.5t28 -25.5t15 -36t1 -40q-4 -22 -15 -42.5t-27 -35.5q-16 -16 -37 -25.5t-44 -9.5q-22 0 -38.5 9t-27.5 24t-16 34.5t-2 40.5z" />
    <glyph glyph-name="AE" unicode="&#xc6;" 
d="M1034 0l17 103h-381l96 604h321l16 103h-320l85 543h371l17 103h-522l-787 -1456h128l204 389h327l-62 -389h490zM337 503l412 781l-125 -781h-287z" />
    <glyph glyph-name="Ccedilla" unicode="&#xc7;" 
d="M1035 443l-114 -2q-23 -71 -59.5 -137t-87.5 -115q-51 -50 -116.5 -79.5t-147.5 -27.5q-69 2 -118 28t-81 69q-33 43 -50.5 98t-23.5 114q-7 60 -4.5 119.5t10.5 111.5l37 213q10 59 29 122t47 124q27 59 64 113t85 94q47 40 105.5 63.5t128.5 22.5q79 0 132.5 -31.5
t87.5 -81.5q33 -51 48.5 -116t16.5 -134h116q-1 93 -24.5 177t-72.5 148q-49 63 -123.5 101.5t-175.5 38.5q-86 1 -159.5 -26t-133.5 -73q-61 -47 -109 -109.5t-83 -133.5q-37 -72 -61 -149t-37 -152l-35 -210q-10 -69 -9.5 -143t15.5 -145q13 -71 41.5 -135t74.5 -112
q45 -48 109 -77t148 -31q104 -2 191 34.5t155 100.5q67 63 114 148t70 180zM534 -4h-92l-45 -126q24 -4 53 -8.5t53 -14.5q23 -11 36.5 -31t7.5 -53q-7 -37 -30.5 -60.5t-54.5 -36.5q-32 -14 -67 -20t-66 -7l-3 -79q33 2 69 6.5t70 14.5q34 9 66.5 25t57.5 39q23 22 38 51.5
t18 67.5t-7 67.5t-30 50.5q-18 18 -43 30t-55 18z" />
    <glyph glyph-name="Egrave" unicode="&#xc8;" 
d="M952 698l18 105h-623l95 547h714l18 106h-831l-252 -1456h835l18 106h-718l103 592h623zM866 1565l-133 267h-133l172 -267h94z" />
    <glyph glyph-name="Eacute" unicode="&#xc9;" 
d="M952 698l18 105h-623l95 547h714l18 106h-831l-252 -1456h835l18 106h-718l103 592h623zM880 1829l-219 -264l105 -1l264 265h-150z" />
    <glyph glyph-name="Ecircumflex" unicode="&#xca;" 
d="M952 698l18 105h-623l95 547h714l18 106h-831l-252 -1456h835l18 106h-718l103 592h623zM1035 1609l-201 241h-73l-266 -238l-2 -20h109l193 172l132 -173h106z" />
    <glyph glyph-name="Edieresis" unicode="&#xcb;" 
d="M952 698l18 105h-623l95 547h714l18 106h-831l-252 -1456h835l18 106h-718l103 592h623zM491 1729q-1 -34 21 -57t56 -23q33 1 58 24.5t27 56.5q1 33 -21.5 57t-56.5 24q-34 -1 -58 -25t-26 -57zM915 1728q-1 -34 21.5 -57t55.5 -23q34 1 58.5 24.5t26.5 56.5
q1 34 -21.5 58t-56.5 23q-33 -1 -57.5 -25t-26.5 -57z" />
    <glyph glyph-name="Igrave" unicode="&#xcc;" 
d="M335 1456l-18 -108h343l-215 -1241h-344l-18 -107h819l18 107h-354l216 1241h354l18 108h-819zM808 1565l-133 267h-133l172 -267h94z" />
    <glyph glyph-name="Iacute" unicode="&#xcd;" 
d="M335 1456l-18 -108h343l-215 -1241h-344l-18 -107h819l18 107h-354l216 1241h354l18 108h-819zM895 1829l-219 -264l105 -1l264 265h-150z" />
    <glyph glyph-name="Icircumflex" unicode="&#xce;" 
d="M335 1456l-18 -108h343l-215 -1241h-344l-18 -107h819l18 107h-354l216 1241h354l18 108h-819zM1021 1609l-201 241h-73l-266 -238l-2 -20h109l193 172l132 -173h106z" />
    <glyph glyph-name="Idieresis" unicode="&#xcf;" 
d="M335 1456l-18 -108h343l-215 -1241h-344l-18 -107h819l18 107h-354l216 1241h354l18 108h-819zM478 1729q-1 -34 21 -57t56 -23q33 1 58 24.5t27 56.5q1 33 -21.5 57t-56.5 24q-34 -1 -58 -25t-26 -57zM902 1728q-1 -34 21.5 -57t55.5 -23q34 1 58.5 24.5t26.5 56.5
q1 34 -21.5 58t-56.5 23q-33 -1 -57.5 -25t-26.5 -57z" />
    <glyph glyph-name="Eth" unicode="&#xd0;" 
d="M83 0h350q136 2 251 54t201 139q90 90 149.5 210.5t81.5 253.5l23 142q11 81 6 160.5t-26 150.5q-22 71 -60.5 133.5t-93.5 107.5q-57 47 -131 75t-165 30h-334l-115 -664h-244l-17 -102h243zM554 690l17 102h-233l98 561h231q73 -3 130.5 -25.5t99.5 -61.5t71 -91
t44 -111q16 -62 18 -129t-8 -133l-24 -145q-20 -109 -68 -210t-121 -177q-71 -75 -165 -120.5t-209 -47.5l-216 1l101 587h234z" />
    <glyph glyph-name="Ntilde" unicode="&#xd1;" 
d="M934 0l252 1456h-118l-213 -1228l-437 1228h-114l-251 -1456h117l213 1231l438 -1231h113zM1117 1825l-76 15q-7 -22 -18 -43.5t-29 -42.5q-16 -17 -34.5 -27t-40.5 -10q-38 -1 -68.5 18t-61.5 41q-30 20 -61.5 37t-72.5 17q-43 0 -78 -17t-61 -46t-42.5 -66t-23.5 -76
l78 -11q7 22 18 43t27 38q15 16 35.5 26t46.5 10q36 1 67 -17t61 -39q28 -21 59 -38t70 -17q44 0 79 17.5t61 46.5q25 28 41.5 65t23.5 76z" />
    <glyph glyph-name="Ograve" unicode="&#xd2;" 
d="M1078 632l31 192q10 68 10 142.5t-12 146.5q-14 72 -41.5 137.5t-71.5 115.5q-45 49 -108.5 79t-148.5 31q-87 1 -159.5 -26t-132.5 -75q-60 -49 -108 -113.5t-83 -136.5q-35 -73 -59 -150.5t-37 -150.5l-31 -192q-10 -68 -10 -142.5t14 -146.5q13 -72 41 -137t73 -115
t108 -80t148 -31q86 -1 159 26.5t133 75.5q59 48 106.5 112.5t83.5 137.5q35 72 58.5 149.5t36.5 150.5zM994 827l-33 -195q-11 -59 -29 -122t-45 -123q-27 -61 -63.5 -115.5t-83.5 -95.5q-47 -42 -105 -65.5t-128 -22.5q-69 1 -117.5 27.5t-80.5 70.5q-32 43 -49.5 99
t-23.5 116q-7 60 -4 119.5t10 110.5l34 195q10 57 28.5 120t45.5 124q28 60 64.5 114.5t84.5 95.5q46 41 104 64.5t128 22.5q68 -1 116.5 -27t81.5 -69q31 -43 48.5 -98.5t23.5 -114.5q6 -60 3 -120t-10 -111zM838 1586l-133 267h-133l172 -267h94z" />
    <glyph glyph-name="Oacute" unicode="&#xd3;" 
d="M1078 632l31 192q10 68 10 142.5t-12 146.5q-14 72 -41.5 137.5t-71.5 115.5q-45 49 -108.5 79t-148.5 31q-87 1 -159.5 -26t-132.5 -75q-60 -49 -108 -113.5t-83 -136.5q-35 -73 -59 -150.5t-37 -150.5l-31 -192q-10 -68 -10 -142.5t14 -146.5q13 -72 41 -137t73 -115
t108 -80t148 -31q86 -1 159 26.5t133 75.5q59 48 106.5 112.5t83.5 137.5q35 72 58.5 149.5t36.5 150.5zM994 827l-33 -195q-11 -59 -29 -122t-45 -123q-27 -61 -63.5 -115.5t-83.5 -95.5q-47 -42 -105 -65.5t-128 -22.5q-69 1 -117.5 27.5t-80.5 70.5q-32 43 -49.5 99
t-23.5 116q-7 60 -4 119.5t10 110.5l34 195q10 57 28.5 120t45.5 124q28 60 64.5 114.5t84.5 95.5q46 41 104 64.5t128 22.5q68 -1 116.5 -27t81.5 -69q31 -43 48.5 -98.5t23.5 -114.5q6 -60 3 -120t-10 -111zM936 1850l-219 -264l105 -1l264 265h-150z" />
    <glyph glyph-name="Ocircumflex" unicode="&#xd4;" 
d="M1078 632l31 192q10 68 10 142.5t-12 146.5q-14 72 -41.5 137.5t-71.5 115.5q-45 49 -108.5 79t-148.5 31q-87 1 -159.5 -26t-132.5 -75q-60 -49 -108 -113.5t-83 -136.5q-35 -73 -59 -150.5t-37 -150.5l-31 -192q-10 -68 -10 -142.5t14 -146.5q13 -72 41 -137t73 -115
t108 -80t148 -31q86 -1 159 26.5t133 75.5q59 48 106.5 112.5t83.5 137.5q35 72 58.5 149.5t36.5 150.5zM994 827l-33 -195q-11 -59 -29 -122t-45 -123q-27 -61 -63.5 -115.5t-83.5 -95.5q-47 -42 -105 -65.5t-128 -22.5q-69 1 -117.5 27.5t-80.5 70.5q-32 43 -49.5 99
t-23.5 116q-7 60 -4 119.5t10 110.5l34 195q10 57 28.5 120t45.5 124q28 60 64.5 114.5t84.5 95.5q46 41 104 64.5t128 22.5q68 -1 116.5 -27t81.5 -69q31 -43 48.5 -98.5t23.5 -114.5q6 -60 3 -120t-10 -111zM1060 1630l-201 241h-73l-266 -238l-2 -20h109l193 172
l132 -173h106z" />
    <glyph glyph-name="Otilde" unicode="&#xd5;" 
d="M1078 632l31 192q10 68 10 142.5t-12 146.5q-14 72 -41.5 137.5t-71.5 115.5q-45 49 -108.5 79t-148.5 31q-87 1 -159.5 -26t-132.5 -75q-60 -49 -108 -113.5t-83 -136.5q-35 -73 -59 -150.5t-37 -150.5l-31 -192q-10 -68 -10 -142.5t14 -146.5q13 -72 41 -137t73 -115
t108 -80t148 -31q86 -1 159 26.5t133 75.5q59 48 106.5 112.5t83.5 137.5q35 72 58.5 149.5t36.5 150.5zM994 827l-33 -195q-11 -59 -29 -122t-45 -123q-27 -61 -63.5 -115.5t-83.5 -95.5q-47 -42 -105 -65.5t-128 -22.5q-69 1 -117.5 27.5t-80.5 70.5q-32 43 -49.5 99
t-23.5 116q-7 60 -4 119.5t10 110.5l34 195q10 57 28.5 120t45.5 124q28 60 64.5 114.5t84.5 95.5q46 41 104 64.5t128 22.5q68 -1 116.5 -27t81.5 -69q31 -43 48.5 -98.5t23.5 -114.5q6 -60 3 -120t-10 -111zM1136 1846l-76 15q-7 -22 -18 -43.5t-29 -42.5
q-16 -17 -34.5 -27t-40.5 -10q-38 -1 -68.5 18t-61.5 41q-30 20 -61.5 37t-72.5 17q-43 0 -78 -17t-61 -46t-42.5 -66t-23.5 -76l78 -11q7 22 18 43t27 38q15 16 35.5 26t46.5 10q36 1 67 -17t61 -39q28 -21 59 -38t70 -17q44 0 79 17.5t61 46.5q25 28 41.5 65t23.5 76z" />
    <glyph glyph-name="Odieresis" unicode="&#xd6;" 
d="M1078 632l31 192q10 68 10 142.5t-12 146.5q-14 72 -41.5 137.5t-71.5 115.5q-45 49 -108.5 79t-148.5 31q-87 1 -159.5 -26t-132.5 -75q-60 -49 -108 -113.5t-83 -136.5q-35 -73 -59 -150.5t-37 -150.5l-31 -192q-10 -68 -10 -142.5t14 -146.5q13 -72 41 -137t73 -115
t108 -80t148 -31q86 -1 159 26.5t133 75.5q59 48 106.5 112.5t83.5 137.5q35 72 58.5 149.5t36.5 150.5zM994 827l-33 -195q-11 -59 -29 -122t-45 -123q-27 -61 -63.5 -115.5t-83.5 -95.5q-47 -42 -105 -65.5t-128 -22.5q-69 1 -117.5 27.5t-80.5 70.5q-32 43 -49.5 99
t-23.5 116q-7 60 -4 119.5t10 110.5l34 195q10 57 28.5 120t45.5 124q28 60 64.5 114.5t84.5 95.5q46 41 104 64.5t128 22.5q68 -1 116.5 -27t81.5 -69q31 -43 48.5 -98.5t23.5 -114.5q6 -60 3 -120t-10 -111zM507 1750q-1 -34 21 -57t56 -23q33 1 58 24.5t27 56.5
q1 33 -21.5 57t-56.5 24q-34 -1 -58 -25t-26 -57zM931 1749q-1 -34 21.5 -57t55.5 -23q34 1 58.5 24.5t26.5 56.5q1 34 -21.5 58t-56.5 23q-33 -1 -57.5 -25t-26.5 -57z" />
    <glyph glyph-name="multiply" unicode="&#xd7;" 
d="M138 308l69 -86l410 363l284 -363l85 75l-285 365l394 349l-68 86l-394 -348l-271 348l-85 -76l272 -348z" />
    <glyph glyph-name="Oslash" unicode="&#xd8;" 
d="M1068 632l31 192q7 47 9.5 98t-1.5 103q-4 51 -14 102t-27 97l209 281h-108l-145 -195q-20 33 -45.5 61.5t-56.5 49.5q-39 25 -87 40t-106 15q-87 1 -159.5 -26t-132.5 -75q-60 -49 -108 -113.5t-83 -136.5q-35 -73 -59 -150.5t-37 -150.5l-31 -192q-9 -55 -10.5 -115
t5.5 -119q7 -60 22.5 -117t42.5 -106l-192 -258h108l135 181q46 -53 110 -85t153 -33q86 -1 159 26.5t133 75.5q59 48 106.5 112.5t83.5 137.5q35 72 58.5 149.5t36.5 150.5zM232 631l34 195q10 57 28.5 120t45.5 124q28 60 64.5 114.5t84.5 95.5q46 41 104 64.5t128 22.5
q45 0 81.5 -12.5t65.5 -33.5q27 -20 47.5 -47t34.5 -59l-695 -936q-15 40 -23 85t-10 91t1 91t9 85zM984 827l-33 -195q-11 -59 -29 -122t-45 -123q-27 -61 -63.5 -115.5t-83.5 -95.5q-47 -42 -105 -65.5t-128 -22.5q-71 1 -120 28.5t-81 72.5l685 921q15 -71 14 -145.5
t-11 -137.5z" />
    <glyph glyph-name="Ugrave" unicode="&#xd9;" 
d="M1188 1456h-113l-172 -986q-14 -73 -47.5 -142.5t-84.5 -123.5t-118.5 -86.5t-147.5 -31.5q-78 1 -131.5 35.5t-85.5 89.5q-31 54 -41 122t-1 136l168 987h-112l-170 -987q-13 -91 5.5 -178.5t66.5 -155.5q46 -69 120.5 -111.5t174.5 -43.5q104 -1 192.5 39.5
t155.5 108.5q68 67 112.5 156.5t60.5 185.5zM856 1559l-133 267h-133l172 -267h94z" />
    <glyph glyph-name="Uacute" unicode="&#xda;" 
d="M1188 1456h-113l-172 -986q-14 -73 -47.5 -142.5t-84.5 -123.5t-118.5 -86.5t-147.5 -31.5q-78 1 -131.5 35.5t-85.5 89.5q-31 54 -41 122t-1 136l168 987h-112l-170 -987q-13 -91 5.5 -178.5t66.5 -155.5q46 -69 120.5 -111.5t174.5 -43.5q104 -1 192.5 39.5
t155.5 108.5q68 67 112.5 156.5t60.5 185.5zM941 1823l-219 -264l105 -1l264 265h-150z" />
    <glyph glyph-name="Ucircumflex" unicode="&#xdb;" 
d="M1188 1456h-113l-172 -986q-14 -73 -47.5 -142.5t-84.5 -123.5t-118.5 -86.5t-147.5 -31.5q-78 1 -131.5 35.5t-85.5 89.5q-31 54 -41 122t-1 136l168 987h-112l-170 -987q-13 -91 5.5 -178.5t66.5 -155.5q46 -69 120.5 -111.5t174.5 -43.5q104 -1 192.5 39.5
t155.5 108.5q68 67 112.5 156.5t60.5 185.5zM1065 1603l-201 241h-73l-266 -238l-2 -20h109l193 172l132 -173h106z" />
    <glyph glyph-name="Udieresis" unicode="&#xdc;" 
d="M1188 1456h-113l-172 -986q-14 -73 -47.5 -142.5t-84.5 -123.5t-118.5 -86.5t-147.5 -31.5q-78 1 -131.5 35.5t-85.5 89.5q-31 54 -41 122t-1 136l168 987h-112l-170 -987q-13 -91 5.5 -178.5t66.5 -155.5q46 -69 120.5 -111.5t174.5 -43.5q104 -1 192.5 39.5
t155.5 108.5q68 67 112.5 156.5t60.5 185.5zM512 1723q-1 -34 21 -57t56 -23q33 1 58 24.5t27 56.5q1 33 -21.5 57t-56.5 24q-34 -1 -58 -25t-26 -57zM936 1722q-1 -34 21.5 -57t55.5 -23q34 1 58.5 24.5t26.5 56.5q1 34 -21.5 58t-56.5 23q-33 -1 -57.5 -25t-26.5 -57z" />
    <glyph glyph-name="Yacute" unicode="&#xdd;" 
d="M590 665l-236 792h-130l295 -901l-95 -556h110l95 541l615 915h-140zM907 1823l-219 -264l105 -1l264 265h-150z" />
    <glyph glyph-name="Thorn" unicode="&#xde;" 
d="M451 1456h-118l-252 -1456h118l56 324l321 -1q96 1 184.5 29t159.5 82q69 53 116 130.5t59 177.5q12 94 -14.5 169.5t-79.5 128.5q-54 53 -131 81.5t-167 31.5h-305zM381 1050h321q67 -2 123 -25t93 -63q38 -40 54.5 -96.5t5.5 -125.5q-12 -74 -49.5 -131.5t-90.5 -98.5
q-54 -40 -121.5 -61.5t-138.5 -22.5l-306 1z" />
    <glyph glyph-name="germandbls" unicode="&#xdf;" 
d="M200 0l191 1116q11 58 33.5 118t60.5 108q37 47 89 76t121 27q42 -2 74.5 -19.5t54.5 -45.5q21 -29 30 -66t3 -77q-7 -48 -27 -91t-51 -92q-32 -51 -65 -109t-40 -121q-7 -54 8.5 -99t42.5 -85q26 -41 57 -79t57 -77q25 -40 39 -83.5t6 -94.5q-9 -50 -33.5 -91.5
t-60.5 -70.5q-36 -30 -81.5 -46.5t-96.5 -16.5q-63 -1 -123 21.5t-111 58.5l-42 -101q60 -44 136 -63t151 -19q72 0 137.5 23.5t115.5 67.5q50 43 82.5 103.5t40.5 133.5q6 54 -9 99.5t-40 86.5q-27 41 -58 79.5t-56 77.5q-26 39 -40 81.5t-5 90.5q9 58 36.5 108.5
t57.5 100.5q30 49 56 101t33 112q7 67 -12 122.5t-57 95.5q-39 40 -94 62.5t-120 23.5q-93 1 -164 -35t-123 -97t-84 -139t-45 -161l-191 -1115h116z" />
    <glyph glyph-name="agrave" unicode="&#xe0;" 
d="M810 0h123l1 13q-6 54 -6 107t8 107l89 523q10 83 -13.5 148.5t-71.5 111.5q-49 45 -117 68.5t-147 24.5q-75 0 -149.5 -20.5t-136.5 -60.5q-63 -40 -107.5 -99.5t-58.5 -137.5l118 -1q14 55 46.5 95.5t77.5 68.5q43 27 95 40.5t106 12.5q57 0 105 -16.5t81 -48.5
t48.5 -78t7.5 -106l-20 -122l-235 1q-58 -1 -118.5 -8t-118.5 -23t-110 -42.5t-93 -64.5q-42 -39 -69 -90.5t-34 -119.5q-7 -70 15.5 -125.5t65.5 -94.5q42 -39 100.5 -60t124.5 -22t127.5 15t117.5 45q43 22 82 52.5t73 66.5q-7 -40 -9.5 -79.5t2.5 -80.5zM434 87
q-46 1 -86 15t-69 41q-29 26 -43 64.5t-6 87.5q7 47 28 82.5t52 61.5q29 25 64.5 41.5t74.5 27.5q54 17 112 23.5t109 6.5l203 -1l-42 -238q-34 -48 -77.5 -87.5t-92.5 -67.5q-51 -28 -108.5 -43.5t-118.5 -13.5zM786 1244l-133 267h-133l172 -267h94z" />
    <glyph glyph-name="aacute" unicode="&#xe1;" 
d="M810 0h123l1 13q-6 54 -6 107t8 107l89 523q10 83 -13.5 148.5t-71.5 111.5q-49 45 -117 68.5t-147 24.5q-75 0 -149.5 -20.5t-136.5 -60.5q-63 -40 -107.5 -99.5t-58.5 -137.5l118 -1q14 55 46.5 95.5t77.5 68.5q43 27 95 40.5t106 12.5q57 0 105 -16.5t81 -48.5
t48.5 -78t7.5 -106l-20 -122l-235 1q-58 -1 -118.5 -8t-118.5 -23t-110 -42.5t-93 -64.5q-42 -39 -69 -90.5t-34 -119.5q-7 -70 15.5 -125.5t65.5 -94.5q42 -39 100.5 -60t124.5 -22t127.5 15t117.5 45q43 22 82 52.5t73 66.5q-7 -40 -9.5 -79.5t2.5 -80.5zM434 87
q-46 1 -86 15t-69 41q-29 26 -43 64.5t-6 87.5q7 47 28 82.5t52 61.5q29 25 64.5 41.5t74.5 27.5q54 17 112 23.5t109 6.5l203 -1l-42 -238q-34 -48 -77.5 -87.5t-92.5 -67.5q-51 -28 -108.5 -43.5t-118.5 -13.5zM861 1509l-219 -264l105 -1l264 265h-150z" />
    <glyph glyph-name="acircumflex" unicode="&#xe2;" 
d="M810 0h123l1 13q-6 54 -6 107t8 107l89 523q10 83 -13.5 148.5t-71.5 111.5q-49 45 -117 68.5t-147 24.5q-75 0 -149.5 -20.5t-136.5 -60.5q-63 -40 -107.5 -99.5t-58.5 -137.5l118 -1q14 55 46.5 95.5t77.5 68.5q43 27 95 40.5t106 12.5q57 0 105 -16.5t81 -48.5
t48.5 -78t7.5 -106l-20 -122l-235 1q-58 -1 -118.5 -8t-118.5 -23t-110 -42.5t-93 -64.5q-42 -39 -69 -90.5t-34 -119.5q-7 -70 15.5 -125.5t65.5 -94.5q42 -39 100.5 -60t124.5 -22t127.5 15t117.5 45q43 22 82 52.5t73 66.5q-7 -40 -9.5 -79.5t2.5 -80.5zM434 87
q-46 1 -86 15t-69 41q-29 26 -43 64.5t-6 87.5q7 47 28 82.5t52 61.5q29 25 64.5 41.5t74.5 27.5q54 17 112 23.5t109 6.5l203 -1l-42 -238q-34 -48 -77.5 -87.5t-92.5 -67.5q-51 -28 -108.5 -43.5t-118.5 -13.5zM1008 1289l-201 241h-73l-266 -238l-2 -20h109l193 172
l132 -173h106z" />
    <glyph glyph-name="atilde" unicode="&#xe3;" 
d="M810 0h123l1 13q-6 54 -6 107t8 107l89 523q10 83 -13.5 148.5t-71.5 111.5q-49 45 -117 68.5t-147 24.5q-75 0 -149.5 -20.5t-136.5 -60.5q-63 -40 -107.5 -99.5t-58.5 -137.5l118 -1q14 55 46.5 95.5t77.5 68.5q43 27 95 40.5t106 12.5q57 0 105 -16.5t81 -48.5
t48.5 -78t7.5 -106l-20 -122l-235 1q-58 -1 -118.5 -8t-118.5 -23t-110 -42.5t-93 -64.5q-42 -39 -69 -90.5t-34 -119.5q-7 -70 15.5 -125.5t65.5 -94.5q42 -39 100.5 -60t124.5 -22t127.5 15t117.5 45q43 22 82 52.5t73 66.5q-7 -40 -9.5 -79.5t2.5 -80.5zM434 87
q-46 1 -86 15t-69 41q-29 26 -43 64.5t-6 87.5q7 47 28 82.5t52 61.5q29 25 64.5 41.5t74.5 27.5q54 17 112 23.5t109 6.5l203 -1l-42 -238q-34 -48 -77.5 -87.5t-92.5 -67.5q-51 -28 -108.5 -43.5t-118.5 -13.5zM1084 1504l-76 15q-7 -22 -18 -43.5t-29 -42.5
q-16 -17 -34.5 -27t-40.5 -10q-38 -1 -68.5 18t-61.5 41q-30 20 -61.5 37t-72.5 17q-43 0 -78 -17t-61 -46t-42.5 -66t-23.5 -76l78 -11q7 22 18 43t27 38q15 16 35.5 26t46.5 10q36 1 67 -17t61 -39q28 -21 59 -38t70 -17q44 0 79 17.5t61 46.5q25 28 41.5 65t23.5 76z" />
    <glyph glyph-name="adieresis" unicode="&#xe4;" 
d="M810 0h123l1 13q-6 54 -6 107t8 107l89 523q10 83 -13.5 148.5t-71.5 111.5q-49 45 -117 68.5t-147 24.5q-75 0 -149.5 -20.5t-136.5 -60.5q-63 -40 -107.5 -99.5t-58.5 -137.5l118 -1q14 55 46.5 95.5t77.5 68.5q43 27 95 40.5t106 12.5q57 0 105 -16.5t81 -48.5
t48.5 -78t7.5 -106l-20 -122l-235 1q-58 -1 -118.5 -8t-118.5 -23t-110 -42.5t-93 -64.5q-42 -39 -69 -90.5t-34 -119.5q-7 -70 15.5 -125.5t65.5 -94.5q42 -39 100.5 -60t124.5 -22t127.5 15t117.5 45q43 22 82 52.5t73 66.5q-7 -40 -9.5 -79.5t2.5 -80.5zM434 87
q-46 1 -86 15t-69 41q-29 26 -43 64.5t-6 87.5q7 47 28 82.5t52 61.5q29 25 64.5 41.5t74.5 27.5q54 17 112 23.5t109 6.5l203 -1l-42 -238q-34 -48 -77.5 -87.5t-92.5 -67.5q-51 -28 -108.5 -43.5t-118.5 -13.5zM455 1409q-1 -34 21 -57t56 -23q33 1 58 24.5t27 56.5
q1 33 -21.5 57t-56.5 24q-34 -1 -58 -25t-26 -57zM879 1408q-1 -34 21.5 -57t55.5 -23q34 1 58.5 24.5t26.5 56.5q1 34 -21.5 58t-56.5 23q-33 -1 -57.5 -25t-26.5 -57z" />
    <glyph glyph-name="aring" unicode="&#xe5;" 
d="M810 0h123l1 13q-6 54 -6 107t8 107l89 523q10 83 -13.5 148.5t-71.5 111.5q-49 45 -117 68.5t-147 24.5q-75 0 -149.5 -20.5t-136.5 -60.5q-63 -40 -107.5 -99.5t-58.5 -137.5l118 -1q14 55 46.5 95.5t77.5 68.5q43 27 95 40.5t106 12.5q57 0 105 -16.5t81 -48.5
t48.5 -78t7.5 -106l-20 -122l-235 1q-58 -1 -118.5 -8t-118.5 -23t-110 -42.5t-93 -64.5q-42 -39 -69 -90.5t-34 -119.5q-7 -70 15.5 -125.5t65.5 -94.5q42 -39 100.5 -60t124.5 -22t127.5 15t117.5 45q43 22 82 52.5t73 66.5q-7 -40 -9.5 -79.5t2.5 -80.5zM434 87
q-46 1 -86 15t-69 41q-29 26 -43 64.5t-6 87.5q7 47 28 82.5t52 61.5q29 25 64.5 41.5t74.5 27.5q54 17 112 23.5t109 6.5l203 -1l-42 -238q-34 -48 -77.5 -87.5t-92.5 -67.5q-51 -28 -108.5 -43.5t-118.5 -13.5zM573 1392q-3 -36 7.5 -68t32.5 -57q21 -24 51.5 -38.5
t67.5 -14.5q39 0 73.5 15t61.5 40t44 59t20 72q3 36 -7 69t-31 58q-21 26 -52 41t-68 15q-39 0 -73.5 -15.5t-61.5 -41.5t-44.5 -61t-20.5 -73zM649 1394q3 22 14 43t28 38q16 16 37 25.5t45 9.5q22 0 39 -9.5t28 -25.5t15 -36t1 -40q-4 -22 -15 -42.5t-27 -35.5
q-16 -16 -37 -25.5t-44 -9.5q-22 0 -38.5 9t-27.5 24t-16 34.5t-2 40.5z" />
    <glyph glyph-name="ae" unicode="&#xe6;" 
d="M770 -19q40 0 79 7.5t75 23.5q33 13 64.5 33.5t58.5 45.5l-29 91q-25 -20 -52 -38.5t-55 -31.5t-57.5 -20.5t-61.5 -7.5q-69 0 -110.5 29.5t-60.5 75.5q-21 46 -23.5 103t5.5 113l21 132h514l31 178q11 73 2.5 142.5t-36.5 123.5q-29 53 -81.5 86.5t-131.5 34.5
q-83 1 -151 -42.5t-119 -113.5q-21 82 -79 119.5t-141 37.5q-67 0 -123 -20.5t-99 -57.5q-43 -38 -71 -91t-36 -118l113 -4q8 40 25.5 74.5t44.5 60.5q27 25 62 39t78 13q45 0 72.5 -17t41.5 -44t17 -62.5t-4 -73.5l-29 -169h-132q-79 -1 -148.5 -25.5t-122.5 -70.5
t-87 -110.5t-42 -145.5q-6 -58 4.5 -112t39.5 -96q28 -42 73.5 -67t109.5 -26q47 0 89 13.5t79 37.5t68.5 55.5t58.5 68.5q14 -41 38 -72t55 -53q33 -24 74.5 -36.5t88.5 -12.5zM914 1000q52 -1 83.5 -25t47.5 -61q15 -37 18 -81.5t-2 -85.5l-16 -111h-409l8 42
q11 52 31 109t52 105q31 47 77 78t110 30zM239 81q-41 0 -69 17t-43 45q-16 28 -20.5 63t0.5 71q9 54 33.5 100.5t62.5 81.5q37 35 85 55.5t104 21.5h119l-56 -322q-18 -25 -41.5 -49.5t-50.5 -42.5q-28 -19 -59 -30t-65 -11z" />
    <glyph glyph-name="ccedilla" unicode="&#xe7;" 
d="M521 82q-60 0 -104.5 19.5t-76.5 52.5q-31 31 -50 74t-28 92q-9 48 -9 99t7 100l7 42q9 54 26.5 108t43.5 102q26 49 60 90.5t77 72.5q44 32 96.5 49.5t114.5 16.5q61 -1 109.5 -23t81.5 -59q32 -39 47.5 -90t12.5 -110l112 -1q4 83 -20 153t-71 122q-48 50 -116 79.5
t-152 30.5q-113 2 -206 -43t-161 -120q-68 -77 -112.5 -175t-60.5 -203l-6 -42q-7 -60 -5 -119.5t15 -114.5q15 -63 44.5 -118.5t73.5 -96.5q45 -41 106.5 -65t139.5 -25q80 -1 156.5 24.5t138.5 72.5q63 46 107 111.5t59 145.5h-112q-17 -58 -50 -104.5t-78 -79.5
q-46 -33 -101.5 -51t-115.5 -17zM552 -4h-92l-45 -126q24 -4 53 -8.5t53 -14.5q23 -11 36.5 -31t7.5 -53q-7 -37 -30.5 -60.5t-54.5 -36.5q-32 -14 -67 -20t-66 -7l-3 -79q33 2 69 6.5t70 14.5q34 9 66.5 25t57.5 39q23 22 38 51.5t18 67.5t-7 67.5t-30 50.5q-18 18 -43 30
t-55 18z" />
    <glyph glyph-name="egrave" unicode="&#xe8;" 
d="M538 -20q120 -1 228.5 48t184.5 142l-70 58q-69 -67 -153 -107t-182 -38q-85 1 -147 38.5t-99 96.5q-41 68 -52 146t6 169h783l11 73q13 93 -2.5 182t-59.5 158q-44 70 -117.5 112.5t-177.5 43.5q-75 1 -142.5 -20t-125.5 -59q-58 -39 -106 -91.5t-85 -113.5
q-37 -62 -61 -129.5t-34 -135.5l-6 -44q-12 -98 8.5 -191t68.5 -164q52 -77 135.5 -125t194.5 -49zM687 999q70 -1 122 -31.5t85 -79.5q32 -49 43 -111.5t-1 -126.5l-3 -15l-663 1q24 68 62.5 134t90.5 117t118 82.5t146 29.5zM778 1244l-133 267h-133l172 -267h94z" />
    <glyph glyph-name="eacute" unicode="&#xe9;" 
d="M538 -20q120 -1 228.5 48t184.5 142l-70 58q-69 -67 -153 -107t-182 -38q-85 1 -147 38.5t-99 96.5q-41 68 -52 146t6 169h783l11 73q13 93 -2.5 182t-59.5 158q-44 70 -117.5 112.5t-177.5 43.5q-75 1 -142.5 -20t-125.5 -59q-58 -39 -106 -91.5t-85 -113.5
q-37 -62 -61 -129.5t-34 -135.5l-6 -44q-12 -98 8.5 -191t68.5 -164q52 -77 135.5 -125t194.5 -49zM687 999q70 -1 122 -31.5t85 -79.5q32 -49 43 -111.5t-1 -126.5l-3 -15l-663 1q24 68 62.5 134t90.5 117t118 82.5t146 29.5zM876 1509l-219 -264l105 -1l264 265h-150z" />
    <glyph glyph-name="ecircumflex" unicode="&#xea;" 
d="M538 -20q120 -1 228.5 48t184.5 142l-70 58q-69 -67 -153 -107t-182 -38q-85 1 -147 38.5t-99 96.5q-41 68 -52 146t6 169h783l11 73q13 93 -2.5 182t-59.5 158q-44 70 -117.5 112.5t-177.5 43.5q-75 1 -142.5 -20t-125.5 -59q-58 -39 -106 -91.5t-85 -113.5
q-37 -62 -61 -129.5t-34 -135.5l-6 -44q-12 -98 8.5 -191t68.5 -164q52 -77 135.5 -125t194.5 -49zM687 999q70 -1 122 -31.5t85 -79.5q32 -49 43 -111.5t-1 -126.5l-3 -15l-663 1q24 68 62.5 134t90.5 117t118 82.5t146 29.5zM1001 1289l-201 241h-73l-266 -238l-2 -20h109
l193 172l132 -173h106z" />
    <glyph glyph-name="edieresis" unicode="&#xeb;" 
d="M538 -20q120 -1 228.5 48t184.5 142l-70 58q-69 -67 -153 -107t-182 -38q-85 1 -147 38.5t-99 96.5q-41 68 -52 146t6 169h783l11 73q13 93 -2.5 182t-59.5 158q-44 70 -117.5 112.5t-177.5 43.5q-75 1 -142.5 -20t-125.5 -59q-58 -39 -106 -91.5t-85 -113.5
q-37 -62 -61 -129.5t-34 -135.5l-6 -44q-12 -98 8.5 -191t68.5 -164q52 -77 135.5 -125t194.5 -49zM687 999q70 -1 122 -31.5t85 -79.5q32 -49 43 -111.5t-1 -126.5l-3 -15l-663 1q24 68 62.5 134t90.5 117t118 82.5t146 29.5zM447 1409q-1 -34 21 -57t56 -23q33 1 58 24.5
t27 56.5q1 33 -21.5 57t-56.5 24q-34 -1 -58 -25t-26 -57zM871 1408q-1 -34 21.5 -57t55.5 -23q34 1 58.5 24.5t26.5 56.5q1 34 -21.5 58t-56.5 23q-33 -1 -57.5 -25t-26.5 -57z" />
    <glyph glyph-name="igrave" unicode="&#xec;" 
d="M297 1082l-17 -107h370l-151 -868h-370l-19 -107h846l18 107h-357l169 975h-489zM816 1253l-133 267h-133l172 -267h94z" />
    <glyph glyph-name="iacute" unicode="&#xed;" 
d="M297 1082l-17 -107h370l-151 -868h-370l-19 -107h846l18 107h-357l169 975h-489zM915 1518l-219 -264l105 -1l264 265h-150z" />
    <glyph glyph-name="icircumflex" unicode="&#xee;" 
d="M297 1082l-17 -107h370l-151 -868h-370l-19 -107h846l18 107h-357l169 975h-489zM1031 1298l-201 241h-73l-266 -238l-2 -20h109l193 172l132 -173h106z" />
    <glyph glyph-name="idieresis" unicode="&#xef;" 
d="M297 1082l-17 -107h370l-151 -868h-370l-19 -107h846l18 107h-357l169 975h-489zM486 1418q-1 -34 21 -57t56 -23q33 1 58 24.5t27 56.5q1 33 -21.5 57t-56.5 24q-34 -1 -58 -25t-26 -57zM910 1417q-1 -34 21.5 -57t55.5 -23q34 1 58.5 24.5t26.5 56.5q1 34 -21.5 58
t-56.5 23q-33 -1 -57.5 -25t-26.5 -57z" />
    <glyph glyph-name="eth" unicode="&#xf0;" 
d="M1016 943q-12 91 -42.5 178.5t-81.5 170.5l225 113l-41 80l-246 -126q-64 65 -140.5 111t-162.5 78l-49 -102q68 -27 129 -62t113 -86l-243 -124l40 -79l269 138q68 -92 97 -198t24 -220q-26 37 -60 65t-73 47t-83 28.5t-89 9.5q-109 2 -202 -37.5t-164 -107.5
q-71 -69 -116.5 -161t-58.5 -197q-12 -92 8.5 -178.5t69.5 -153.5t125 -107.5t174 -42.5q81 -1 151.5 22t130.5 64q55 38 100.5 90.5t81.5 112.5q38 65 62.5 138t36.5 147l10 71q12 81 14 161t-9 157zM700 193q-49 -50 -112 -80t-141 -29q-76 1 -131.5 35t-88.5 88
q-34 53 -46 120t-1 135q12 79 47 151.5t89 128.5q54 55 125.5 87.5t156.5 31.5q46 0 93.5 -10.5t88.5 -31.5q42 -22 74.5 -55t49.5 -79l-8 -59l-13 -73q-9 -51 -25.5 -103t-41.5 -101q-22 -44 -51.5 -84t-64.5 -72z" />
    <glyph glyph-name="ntilde" unicode="&#xf1;" 
d="M83 0h118l128 740q24 52 63.5 99t89.5 82q49 35 106 55.5t116 20.5q69 0 114 -25t69 -66q24 -42 29.5 -97.5t-2.5 -116.5l-118 -692h118l116 688q12 81 1 157.5t-46 132.5q-36 56 -97 89.5t-151 34.5q-63 1 -119 -16.5t-106 -48.5t-92.5 -73.5t-77.5 -91.5l36 211
l-108 -1zM1057 1503l-76 15q-7 -22 -18 -43.5t-29 -42.5q-16 -17 -34.5 -27t-40.5 -10q-38 -1 -68.5 18t-61.5 41q-30 20 -61.5 37t-72.5 17q-43 0 -78 -17t-61 -46t-42.5 -66t-23.5 -76l78 -11q7 22 18 43t27 38q15 16 35.5 26t46.5 10q36 1 67 -17t61 -39q28 -21 59 -38
t70 -17q44 0 79 17.5t61 46.5q25 28 41.5 65t23.5 76z" />
    <glyph glyph-name="ograve" unicode="&#xf2;" 
d="M120 553l-5 -32q-9 -69 -3.5 -137t25.5 -129q17 -52 44.5 -97.5t65.5 -81.5q46 -44 109.5 -69.5t144.5 -26.5q114 -1 208.5 44.5t165.5 122.5q71 76 116.5 175t61.5 204l4 32q9 68 4 136t-24 130q-18 56 -48 104.5t-70 85.5q-45 40 -107.5 63.5t-139.5 24.5
q-114 2 -207 -43t-163 -119q-73 -77 -119.5 -178t-62.5 -209zM232 521l6 32q14 81 48.5 161t89.5 144q54 64 127.5 103.5t164.5 38.5q79 -2 133 -37t87 -90q41 -65 52 -150t0 -165l-5 -32q-12 -73 -48 -156.5t-90 -147.5q-55 -63 -128 -102.5t-164 -37.5q-85 1 -142.5 39.5
t-88.5 97.5q-34 66 -43.5 146t1.5 156zM768 1243l-133 267h-133l172 -267h94z" />
    <glyph glyph-name="oacute" unicode="&#xf3;" 
d="M120 553l-5 -32q-9 -69 -3.5 -137t25.5 -129q17 -52 44.5 -97.5t65.5 -81.5q46 -44 109.5 -69.5t144.5 -26.5q114 -1 208.5 44.5t165.5 122.5q71 76 116.5 175t61.5 204l4 32q9 68 4 136t-24 130q-18 56 -48 104.5t-70 85.5q-45 40 -107.5 63.5t-139.5 24.5
q-114 2 -207 -43t-163 -119q-73 -77 -119.5 -178t-62.5 -209zM232 521l6 32q14 81 48.5 161t89.5 144q54 64 127.5 103.5t164.5 38.5q79 -2 133 -37t87 -90q41 -65 52 -150t0 -165l-5 -32q-12 -73 -48 -156.5t-90 -147.5q-55 -63 -128 -102.5t-164 -37.5q-85 1 -142.5 39.5
t-88.5 97.5q-34 66 -43.5 146t1.5 156zM866 1508l-219 -264l105 -1l264 265h-150z" />
    <glyph glyph-name="ocircumflex" unicode="&#xf4;" 
d="M120 553l-5 -32q-9 -69 -3.5 -137t25.5 -129q17 -52 44.5 -97.5t65.5 -81.5q46 -44 109.5 -69.5t144.5 -26.5q114 -1 208.5 44.5t165.5 122.5q71 76 116.5 175t61.5 204l4 32q9 68 4 136t-24 130q-18 56 -48 104.5t-70 85.5q-45 40 -107.5 63.5t-139.5 24.5
q-114 2 -207 -43t-163 -119q-73 -77 -119.5 -178t-62.5 -209zM232 521l6 32q14 81 48.5 161t89.5 144q54 64 127.5 103.5t164.5 38.5q79 -2 133 -37t87 -90q41 -65 52 -150t0 -165l-5 -32q-12 -73 -48 -156.5t-90 -147.5q-55 -63 -128 -102.5t-164 -37.5q-85 1 -142.5 39.5
t-88.5 97.5q-34 66 -43.5 146t1.5 156zM991 1288l-201 241h-73l-266 -238l-2 -20h109l193 172l132 -173h106z" />
    <glyph glyph-name="otilde" unicode="&#xf5;" 
d="M120 553l-5 -32q-9 -69 -3.5 -137t25.5 -129q17 -52 44.5 -97.5t65.5 -81.5q46 -44 109.5 -69.5t144.5 -26.5q114 -1 208.5 44.5t165.5 122.5q71 76 116.5 175t61.5 204l4 32q9 68 4 136t-24 130q-18 56 -48 104.5t-70 85.5q-45 40 -107.5 63.5t-139.5 24.5
q-114 2 -207 -43t-163 -119q-73 -77 -119.5 -178t-62.5 -209zM232 521l6 32q14 81 48.5 161t89.5 144q54 64 127.5 103.5t164.5 38.5q79 -2 133 -37t87 -90q41 -65 52 -150t0 -165l-5 -32q-12 -73 -48 -156.5t-90 -147.5q-55 -63 -128 -102.5t-164 -37.5q-85 1 -142.5 39.5
t-88.5 97.5q-34 66 -43.5 146t1.5 156zM1066 1503l-76 15q-7 -22 -18 -43.5t-29 -42.5q-16 -17 -34.5 -27t-40.5 -10q-38 -1 -68.5 18t-61.5 41q-30 20 -61.5 37t-72.5 17q-43 0 -78 -17t-61 -46t-42.5 -66t-23.5 -76l78 -11q7 22 18 43t27 38q15 16 35.5 26t46.5 10
q36 1 67 -17t61 -39q28 -21 59 -38t70 -17q44 0 79 17.5t61 46.5q25 28 41.5 65t23.5 76z" />
    <glyph glyph-name="odieresis" unicode="&#xf6;" 
d="M120 553l-5 -32q-9 -69 -3.5 -137t25.5 -129q17 -52 44.5 -97.5t65.5 -81.5q46 -44 109.5 -69.5t144.5 -26.5q114 -1 208.5 44.5t165.5 122.5q71 76 116.5 175t61.5 204l4 32q9 68 4 136t-24 130q-18 56 -48 104.5t-70 85.5q-45 40 -107.5 63.5t-139.5 24.5
q-114 2 -207 -43t-163 -119q-73 -77 -119.5 -178t-62.5 -209zM232 521l6 32q14 81 48.5 161t89.5 144q54 64 127.5 103.5t164.5 38.5q79 -2 133 -37t87 -90q41 -65 52 -150t0 -165l-5 -32q-12 -73 -48 -156.5t-90 -147.5q-55 -63 -128 -102.5t-164 -37.5q-85 1 -142.5 39.5
t-88.5 97.5q-34 66 -43.5 146t1.5 156zM437 1408q-1 -34 21 -57t56 -23q33 1 58 24.5t27 56.5q1 33 -21.5 57t-56.5 24q-34 -1 -58 -25t-26 -57zM861 1407q-1 -34 21.5 -57t55.5 -23q34 1 58.5 24.5t26.5 56.5q1 34 -21.5 58t-56.5 23q-33 -1 -57.5 -25t-26.5 -57z" />
    <glyph glyph-name="divide" unicode="&#xf7;" 
d="M1089 643l20 118h-970l-20 -118h970zM607 1088q-2 -34 20.5 -57.5t56.5 -22.5q32 1 57 24t28 57q1 33 -21.5 57.5t-56.5 23.5t-58 -25t-26 -57zM469 291q-2 -33 20 -56.5t56 -23.5q32 1 57 24t28 57q1 33 -21.5 57.5t-56.5 24.5q-34 -1 -58 -25.5t-25 -57.5z" />
    <glyph glyph-name="oslash" unicode="&#xf8;" 
d="M120 553l-5 -32q-8 -60 -5 -120t18 -115q14 -55 39 -104.5t63 -88.5l-151 -232h98l117 180q41 -28 92.5 -44t114.5 -17q114 -1 208.5 44.5t165.5 122.5q71 76 116.5 175t61.5 204l4 32q8 64 4.5 128t-20.5 124q-17 58 -47 109.5t-73 89.5l133 205h-97l-102 -157
q-39 21 -84.5 32.5t-98.5 12.5q-116 2 -210.5 -43.5t-164.5 -123.5t-115.5 -177.5t-61.5 -204.5zM232 521l6 32q14 81 48.5 161t89.5 144q54 64 127.5 103.5t164.5 38.5q37 -1 69 -9.5t59 -23.5l-503 -777q-23 33 -38 73t-22 83t-7 87.5t6 87.5zM940 558l-5 -32
q-15 -81 -49.5 -160.5t-88.5 -143.5q-55 -63 -128 -102.5t-164 -37.5q-47 0 -85 13t-68 35l504 779q30 -32 49 -73.5t29 -87.5q10 -47 11 -95.5t-5 -94.5z" />
    <glyph glyph-name="ugrave" unicode="&#xf9;" 
d="M453 -20q116 -1 210 50t162 141l-31 -171h110l187 1082h-119l-132 -763q-23 -54 -60.5 -97.5t-84.5 -73.5q-49 -31 -106 -47t-117 -15q-71 1 -113 30.5t-62 76.5q-21 47 -23.5 105.5t6.5 116.5l113 667h-118l-113 -665q-10 -81 -1.5 -159t43.5 -140q33 -61 94.5 -99
t154.5 -39zM749 1234l-133 267h-133l172 -267h94z" />
    <glyph glyph-name="uacute" unicode="&#xfa;" 
d="M453 -20q116 -1 210 50t162 141l-31 -171h110l187 1082h-119l-132 -763q-23 -54 -60.5 -97.5t-84.5 -73.5q-49 -31 -106 -47t-117 -15q-71 1 -113 30.5t-62 76.5q-21 47 -23.5 105.5t6.5 116.5l113 667h-118l-113 -665q-10 -81 -1.5 -159t43.5 -140q33 -61 94.5 -99
t154.5 -39zM847 1499l-219 -264l105 -1l264 265h-150z" />
    <glyph glyph-name="ucircumflex" unicode="&#xfb;" 
d="M453 -20q116 -1 210 50t162 141l-31 -171h110l187 1082h-119l-132 -763q-23 -54 -60.5 -97.5t-84.5 -73.5q-49 -31 -106 -47t-117 -15q-71 1 -113 30.5t-62 76.5q-21 47 -23.5 105.5t6.5 116.5l113 667h-118l-113 -665q-10 -81 -1.5 -159t43.5 -140q33 -61 94.5 -99
t154.5 -39zM972 1279l-201 241h-73l-266 -238l-2 -20h109l193 172l132 -173h106z" />
    <glyph glyph-name="udieresis" unicode="&#xfc;" 
d="M453 -20q116 -1 210 50t162 141l-31 -171h110l187 1082h-119l-132 -763q-23 -54 -60.5 -97.5t-84.5 -73.5q-49 -31 -106 -47t-117 -15q-71 1 -113 30.5t-62 76.5q-21 47 -23.5 105.5t6.5 116.5l113 667h-118l-113 -665q-10 -81 -1.5 -159t43.5 -140q33 -61 94.5 -99
t154.5 -39zM419 1399q-1 -34 21 -57t56 -23q33 1 58 24.5t27 56.5q1 33 -21.5 57t-56.5 24q-34 -1 -58 -25t-26 -57zM843 1398q-1 -34 21.5 -57t55.5 -23q34 1 58.5 24.5t26.5 56.5q1 34 -21.5 58t-56.5 23q-33 -1 -57.5 -25t-26.5 -57z" />
    <glyph glyph-name="yacute" unicode="&#xfd;" 
d="M513 225l-227 858h-127l289 -1048l-104 -167q-23 -36 -50.5 -71.5t-60.5 -63.5q-33 -29 -72.5 -46.5t-85.5 -17.5q-21 0 -41.5 3t-40.5 5l-23 -102q26 -5 51.5 -9t51.5 -4q64 0 118.5 22t100.5 59q46 36 83.5 84t68.5 99l758 1256h-139l-530 -902zM880 1499l-219 -264
l105 -1l264 265h-150z" />
    <glyph glyph-name="thorn" unicode="&#xfe;" 
d="M712 17q41 21 78 50.5t67 64.5q27 32 50 68.5t41 74.5q29 62 48.5 128t28.5 130l3 21q8 59 8 122.5t-10 124.5q-11 60 -34 114.5t-60 95.5q-39 41 -93.5 65.5t-127.5 25.5q-54 1 -104.5 -11.5t-94.5 -35.5q-43 -22 -81.5 -53t-71.5 -68l112 613h-117l-339 -1963h117
l99 551q24 -37 56 -65.5t70 -46.5q41 -22 87.5 -32.5t94.5 -10.5q48 -1 91.5 9t81.5 28zM517 82q-47 1 -89.5 13t-76.5 36q-35 23 -61 57.5t-41 79.5l93 525q30 46 68.5 85.5t84.5 66.5q41 25 88 38.5t97 13.5q59 -2 100.5 -22.5t69.5 -53.5q27 -35 42.5 -79.5t21.5 -93.5
t4 -99t-8 -94l-3 -21q-10 -63 -31.5 -128.5t-55.5 -122.5q-23 -42 -52 -78t-65 -63q-39 -28 -85 -44t-101 -16z" />
    <glyph glyph-name="ydieresis" unicode="&#xff;" 
d="M513 225l-227 858h-127l289 -1048l-104 -167q-23 -36 -50.5 -71.5t-60.5 -63.5q-33 -29 -72.5 -46.5t-85.5 -17.5q-21 0 -41.5 3t-40.5 5l-23 -102q26 -5 51.5 -9t51.5 -4q64 0 118.5 22t100.5 59q46 36 83.5 84t68.5 99l758 1256h-139l-530 -902zM451 1399
q-1 -34 21 -57t56 -23q33 1 58 24.5t27 56.5q1 33 -21.5 57t-56.5 24q-34 -1 -58 -25t-26 -57zM875 1398q-1 -34 21.5 -57t55.5 -23q34 1 58.5 24.5t26.5 56.5q1 34 -21.5 58t-56.5 23q-33 -1 -57.5 -25t-26.5 -57z" />
    <glyph glyph-name="Amacron" unicode="&#x100;" 
d="M845 406l55 -406h114l-204 1456h-107l-711 -1456h123l197 406h533zM362 514l369 760l101 -760h-470zM1120 1688l15 98h-652l-15 -98h652z" />
    <glyph glyph-name="amacron" unicode="&#x101;" 
d="M810 0h123l1 13q-6 54 -6 107t8 107l89 523q10 83 -13.5 148.5t-71.5 111.5q-49 45 -117 68.5t-147 24.5q-75 0 -149.5 -20.5t-136.5 -60.5q-63 -40 -107.5 -99.5t-58.5 -137.5l118 -1q14 55 46.5 95.5t77.5 68.5q43 27 95 40.5t106 12.5q57 0 105 -16.5t81 -48.5
t48.5 -78t7.5 -106l-20 -122l-235 1q-58 -1 -118.5 -8t-118.5 -23t-110 -42.5t-93 -64.5q-42 -39 -69 -90.5t-34 -119.5q-7 -70 15.5 -125.5t65.5 -94.5q42 -39 100.5 -60t124.5 -22t127.5 15t117.5 45q43 22 82 52.5t73 66.5q-7 -40 -9.5 -79.5t2.5 -80.5zM434 87
q-46 1 -86 15t-69 41q-29 26 -43 64.5t-6 87.5q7 47 28 82.5t52 61.5q29 25 64.5 41.5t74.5 27.5q54 17 112 23.5t109 6.5l203 -1l-42 -238q-34 -48 -77.5 -87.5t-92.5 -67.5q-51 -28 -108.5 -43.5t-118.5 -13.5zM1069 1367l15 98h-652l-15 -98h652z" />
    <glyph glyph-name="Abreve" unicode="&#x102;" 
d="M845 406l55 -406h114l-204 1456h-107l-711 -1456h123l197 406h533zM362 514l369 760l101 -760h-470zM1099 1838l-100 -1q-9 -36 -25.5 -66t-40.5 -52q-27 -24 -62 -37.5t-78 -13.5q-40 0 -68.5 11t-48.5 32q-20 22 -29.5 54.5t-7.5 72.5l-100 1q-1 -59 16 -106t51 -80
q33 -34 80 -53t106 -19q61 -1 112.5 17t91.5 52q40 33 66.5 81t36.5 107z" />
    <glyph glyph-name="abreve" unicode="&#x103;" 
d="M810 0h123l1 13q-6 54 -6 107t8 107l89 523q10 83 -13.5 148.5t-71.5 111.5q-49 45 -117 68.5t-147 24.5q-75 0 -149.5 -20.5t-136.5 -60.5q-63 -40 -107.5 -99.5t-58.5 -137.5l118 -1q14 55 46.5 95.5t77.5 68.5q43 27 95 40.5t106 12.5q57 0 105 -16.5t81 -48.5
t48.5 -78t7.5 -106l-20 -122l-235 1q-58 -1 -118.5 -8t-118.5 -23t-110 -42.5t-93 -64.5q-42 -39 -69 -90.5t-34 -119.5q-7 -70 15.5 -125.5t65.5 -94.5q42 -39 100.5 -60t124.5 -22t127.5 15t117.5 45q43 22 82 52.5t73 66.5q-7 -40 -9.5 -79.5t2.5 -80.5zM434 87
q-46 1 -86 15t-69 41q-29 26 -43 64.5t-6 87.5q7 47 28 82.5t52 61.5q29 25 64.5 41.5t74.5 27.5q54 17 112 23.5t109 6.5l203 -1l-42 -238q-34 -48 -77.5 -87.5t-92.5 -67.5q-51 -28 -108.5 -43.5t-118.5 -13.5zM1032 1517l-100 -1q-9 -36 -25.5 -66t-40.5 -52
q-27 -24 -62 -37.5t-78 -13.5q-40 0 -68.5 11t-48.5 32q-20 22 -29.5 54.5t-7.5 72.5l-100 1q-1 -59 16 -106t51 -80q33 -34 80 -53t106 -19q61 -1 112.5 17t91.5 52q40 33 66.5 81t36.5 107z" />
    <glyph glyph-name="Aogonek" unicode="&#x104;" 
d="M777 -236q5 41 27.5 75.5t53.5 63.5q31 28 66 52t67 44l3 1h20l-204 1456h-107l-711 -1456h123l197 406h533l52 -384q-37 -23 -76 -50.5t-71 -60.5q-32 -34 -54 -73.5t-26 -85.5q-3 -36 7 -67t31 -52q19 -22 48 -34t65 -12q40 -1 77.5 10.5t72.5 31.5l-16 86
q-26 -13 -53 -23t-57 -8q-36 1 -54 22t-14 58zM362 514l369 760l101 -760h-470z" />
    <glyph glyph-name="aogonek" unicode="&#x105;" 
d="M807 23q-37 -23 -76.5 -51t-71.5 -61q-33 -34 -55 -73.5t-26 -85.5q-3 -35 6.5 -65.5t28.5 -51.5q20 -22 49.5 -35t66.5 -13q40 -1 77.5 10.5t72.5 31.5l-16 86q-26 -13 -53 -23t-57 -8q-36 1 -54 22t-14 58q5 41 27.5 75.5t53.5 63.5q31 28 66.5 51.5t67.5 43.5l5 2h28
l1 13q-6 54 -6 107t8 107l89 523q10 83 -13.5 148.5t-71.5 111.5q-49 45 -117 68.5t-147 24.5q-75 0 -149.5 -20.5t-136.5 -60.5q-63 -40 -107.5 -99.5t-58.5 -137.5l118 -1q14 55 46.5 95.5t77.5 68.5q43 27 95 40.5t106 12.5q57 0 105 -16.5t81 -48.5t48.5 -78t7.5 -106
l-20 -122l-235 1q-58 -1 -118.5 -8t-118.5 -23t-110 -42.5t-93 -64.5q-42 -39 -69 -90.5t-34 -119.5q-7 -70 15.5 -125.5t65.5 -94.5q42 -39 100.5 -60t124.5 -22q61 -1 118.5 12.5t109.5 38.5q48 23 91 55.5t81 72.5q-6 -35 -9 -68t-1 -69zM434 87q-46 1 -86 15t-69 41
q-29 26 -43 64.5t-6 87.5q7 43 26 76.5t47 58.5q29 28 66.5 47t79.5 31q54 17 112 23.5t109 6.5l203 -1l-42 -238q-34 -48 -77.5 -87.5t-92.5 -66.5q-51 -29 -108.5 -44.5t-118.5 -13.5z" />
    <glyph glyph-name="Cacute" unicode="&#x106;" 
d="M1035 443l-114 -2q-23 -71 -59.5 -137t-87.5 -115q-51 -50 -116.5 -79.5t-147.5 -27.5q-69 2 -118 28t-81 69q-33 43 -50.5 98t-23.5 114q-7 60 -4.5 119.5t10.5 111.5l37 213q10 59 29 122t47 124q27 59 64 113t85 94q47 40 105.5 63.5t128.5 22.5q79 0 132.5 -31.5
t87.5 -81.5q33 -51 48.5 -116t16.5 -134h116q-1 93 -24.5 177t-72.5 148q-49 63 -123.5 101.5t-175.5 38.5q-86 1 -159.5 -26t-133.5 -73q-61 -47 -109 -109.5t-83 -133.5q-37 -72 -61 -149t-37 -152l-35 -210q-10 -69 -9.5 -143t15.5 -145q13 -71 41.5 -135t74.5 -112
q45 -48 109 -77t148 -31q104 -2 191 34.5t155 100.5q67 63 114 148t70 180zM951 1850l-219 -264l105 -1l264 265h-150z" />
    <glyph glyph-name="cacute" unicode="&#x107;" 
d="M521 82q-60 0 -104.5 19.5t-76.5 52.5q-31 31 -50 74t-28 92q-9 48 -9 99t7 100l7 42q9 54 26.5 108t43.5 102q26 49 60 90.5t77 72.5q44 32 96.5 49.5t114.5 16.5q61 -1 109.5 -23t81.5 -59q32 -39 47.5 -90t12.5 -110l112 -1q4 83 -20 153t-71 122q-48 50 -116 79.5
t-152 30.5q-113 2 -206 -43t-161 -120q-68 -77 -112.5 -175t-60.5 -203l-6 -42q-7 -60 -5 -119.5t15 -114.5q15 -63 44.5 -118.5t73.5 -96.5q45 -41 106.5 -65t139.5 -25q80 -1 156.5 24.5t138.5 72.5q63 46 107 111.5t59 145.5h-112q-17 -58 -50 -104.5t-78 -79.5
q-46 -33 -101.5 -51t-115.5 -17zM890 1508l-219 -264l105 -1l264 265h-150z" />
    <glyph glyph-name="Ccircumflex" unicode="&#x108;" 
d="M1035 443l-114 -2q-23 -71 -59.5 -137t-87.5 -115q-51 -50 -116.5 -79.5t-147.5 -27.5q-69 2 -118 28t-81 69q-33 43 -50.5 98t-23.5 114q-7 60 -4.5 119.5t10.5 111.5l37 213q10 59 29 122t47 124q27 59 64 113t85 94q47 40 105.5 63.5t128.5 22.5q79 0 132.5 -31.5
t87.5 -81.5q33 -51 48.5 -116t16.5 -134h116q-1 93 -24.5 177t-72.5 148q-49 63 -123.5 101.5t-175.5 38.5q-86 1 -159.5 -26t-133.5 -73q-61 -47 -109 -109.5t-83 -133.5q-37 -72 -61 -149t-37 -152l-35 -210q-10 -69 -9.5 -143t15.5 -145q13 -71 41.5 -135t74.5 -112
q45 -48 109 -77t148 -31q104 -2 191 34.5t155 100.5q67 63 114 148t70 180zM1075 1630l-201 241h-73l-266 -238l-2 -20h109l193 172l132 -173h106z" />
    <glyph glyph-name="ccircumflex" unicode="&#x109;" 
d="M521 82q-60 0 -104.5 19.5t-76.5 52.5q-31 31 -50 74t-28 92q-9 48 -9 99t7 100l7 42q9 54 26.5 108t43.5 102q26 49 60 90.5t77 72.5q44 32 96.5 49.5t114.5 16.5q61 -1 109.5 -23t81.5 -59q32 -39 47.5 -90t12.5 -110l112 -1q4 83 -20 153t-71 122q-48 50 -116 79.5
t-152 30.5q-113 2 -206 -43t-161 -120q-68 -77 -112.5 -175t-60.5 -203l-6 -42q-7 -60 -5 -119.5t15 -114.5q15 -63 44.5 -118.5t73.5 -96.5q45 -41 106.5 -65t139.5 -25q80 -1 156.5 24.5t138.5 72.5q63 46 107 111.5t59 145.5h-112q-17 -58 -50 -104.5t-78 -79.5
q-46 -33 -101.5 -51t-115.5 -17zM1014 1288l-201 241h-73l-266 -238l-2 -20h109l193 172l132 -173h106z" />
    <glyph glyph-name="uni010A" unicode="&#x10a;" 
d="M1035 443l-114 -2q-23 -71 -59.5 -137t-87.5 -115q-51 -50 -116.5 -79.5t-147.5 -27.5q-69 2 -118 28t-81 69q-33 43 -50.5 98t-23.5 114q-7 60 -4.5 119.5t10.5 111.5l37 213q10 59 29 122t47 124q27 59 64 113t85 94q47 40 105.5 63.5t128.5 22.5q79 0 132.5 -31.5
t87.5 -81.5q33 -51 48.5 -116t16.5 -134h116q-1 93 -24.5 177t-72.5 148q-49 63 -123.5 101.5t-175.5 38.5q-86 1 -159.5 -26t-133.5 -73q-61 -47 -109 -109.5t-83 -133.5q-37 -72 -61 -149t-37 -152l-35 -210q-10 -69 -9.5 -143t15.5 -145q13 -71 41.5 -135t74.5 -112
q45 -48 109 -77t148 -31q104 -2 191 34.5t155 100.5q67 63 114 148t70 180zM734 1731q-2 -36 21.5 -59t58.5 -23q35 1 60.5 24.5t27.5 58.5q3 36 -20.5 60.5t-59.5 23.5t-61 -25.5t-27 -59.5z" />
    <glyph glyph-name="uni010B" unicode="&#x10b;" 
d="M521 82q-60 0 -104.5 19.5t-76.5 52.5q-31 31 -50 74t-28 92q-9 48 -9 99t7 100l7 42q9 54 26.5 108t43.5 102q26 49 60 90.5t77 72.5q44 32 96.5 49.5t114.5 16.5q61 -1 109.5 -23t81.5 -59q32 -39 47.5 -90t12.5 -110l112 -1q4 83 -20 153t-71 122q-48 50 -116 79.5
t-152 30.5q-113 2 -206 -43t-161 -120q-68 -77 -112.5 -175t-60.5 -203l-6 -42q-7 -60 -5 -119.5t15 -114.5q15 -63 44.5 -118.5t73.5 -96.5q45 -41 106.5 -65t139.5 -25q80 -1 156.5 24.5t138.5 72.5q63 46 107 111.5t59 145.5h-112q-17 -58 -50 -104.5t-78 -79.5
q-46 -33 -101.5 -51t-115.5 -17zM673 1389q-2 -36 21.5 -59t58.5 -23q35 1 60.5 24.5t27.5 58.5q3 36 -20.5 60.5t-59.5 23.5t-61 -25.5t-27 -59.5z" />
    <glyph glyph-name="Ccaron" unicode="&#x10c;" 
d="M1035 443l-114 -2q-23 -71 -59.5 -137t-87.5 -115q-51 -50 -116.5 -79.5t-147.5 -27.5q-69 2 -118 28t-81 69q-33 43 -50.5 98t-23.5 114q-7 60 -4.5 119.5t10.5 111.5l37 213q10 59 29 122t47 124q27 59 64 113t85 94q47 40 105.5 63.5t128.5 22.5q79 0 132.5 -31.5
t87.5 -81.5q33 -51 48.5 -116t16.5 -134h116q-1 93 -24.5 177t-72.5 148q-49 63 -123.5 101.5t-175.5 38.5q-86 1 -159.5 -26t-133.5 -73q-61 -47 -109 -109.5t-83 -133.5q-37 -72 -61 -149t-37 -152l-35 -210q-10 -69 -9.5 -143t15.5 -145q13 -71 41.5 -135t74.5 -112
q45 -48 109 -77t148 -31q104 -2 191 34.5t155 100.5q67 63 114 148t70 180zM805 1690l-134 184h-102l-1 -17l192 -248h85l266 248l1 17l-107 -1z" />
    <glyph glyph-name="ccaron" unicode="&#x10d;" 
d="M521 82q-60 0 -104.5 19.5t-76.5 52.5q-31 31 -50 74t-28 92q-9 48 -9 99t7 100l7 42q9 54 26.5 108t43.5 102q26 49 60 90.5t77 72.5q44 32 96.5 49.5t114.5 16.5q61 -1 109.5 -23t81.5 -59q32 -39 47.5 -90t12.5 -110l112 -1q4 83 -20 153t-71 122q-48 50 -116 79.5
t-152 30.5q-113 2 -206 -43t-161 -120q-68 -77 -112.5 -175t-60.5 -203l-6 -42q-7 -60 -5 -119.5t15 -114.5q15 -63 44.5 -118.5t73.5 -96.5q45 -41 106.5 -65t139.5 -25q80 -1 156.5 24.5t138.5 72.5q63 46 107 111.5t59 145.5h-112q-17 -58 -50 -104.5t-78 -79.5
q-46 -33 -101.5 -51t-115.5 -17zM745 1347l-134 184h-102l-1 -17l192 -248h85l266 248l1 17l-107 -1z" />
    <glyph glyph-name="Dcaron" unicode="&#x10e;" 
d="M68 0h350q94 1 178.5 27t156.5 72q68 43 126 103t102 132q45 72 75.5 154t44.5 169l23 142q11 79 6.5 156.5t-24.5 148.5q-21 72 -59.5 135.5t-93.5 109.5q-57 48 -131.5 76.5t-167.5 30.5h-334zM421 1353h231q76 -3 134.5 -27t101.5 -64q40 -39 67.5 -90t41.5 -109
q16 -61 18 -128t-8 -133l-24 -145q-13 -71 -37.5 -139t-60.5 -129q-37 -61 -84.5 -113t-105.5 -89q-59 -39 -128 -61t-147 -24l-216 1zM727 1669l-134 184h-102l-1 -17l192 -248h85l266 248l1 17l-107 -1z" />
    <glyph glyph-name="dcaron" unicode="&#x10f;" 
d="M74 548l-3 -21q-7 -60 -6 -123t14 -123q12 -61 37 -115t64 -95t94 -65.5t128 -25.5q55 0 105.5 12.5t97.5 37.5q38 20 72.5 47.5t63.5 60.5l-25 -138h109l266 1536h-118l-108 -601q-20 36 -46.5 65t-58.5 50q-40 25 -86 38.5t-96 13.5q-76 1 -140 -21t-116 -62
q-53 -40 -94.5 -93.5t-72.5 -115.5t-51 -129t-30 -133zM189 527l4 21q12 79 42.5 159.5t79.5 145.5t118.5 105.5t161.5 38.5q48 0 88.5 -15t72.5 -42t54.5 -64.5t34.5 -82.5l-91 -520q-26 -39 -59 -72.5t-72 -58.5q-43 -27 -92 -42t-103 -14q-59 1 -102 21t-71 54
q-29 34 -45 77.5t-23 92.5t-6 99.5t8 96.5zM1455 1423l20 124h-115l-23 -127q-15 -79 -50 -146t-85 -129l65 -54q38 34 70 73t56 83q22 40 37.5 84.5t24.5 91.5z" />
    <glyph glyph-name="Dcroat" unicode="&#x110;" 
d="M83 0h350q136 2 251 54t201 139q90 90 149.5 210.5t81.5 253.5l23 142q11 81 6 160.5t-26 150.5q-22 71 -60.5 133.5t-93.5 107.5q-57 47 -131 75t-165 30h-334l-115 -664h-244l-17 -102h243zM554 690l17 102h-233l98 561h231q73 -3 130.5 -25.5t99.5 -61.5t71 -91
t44 -111q16 -62 18 -129t-8 -133l-24 -145q-20 -109 -68 -210t-121 -177q-71 -75 -165 -120.5t-209 -47.5l-216 1l101 587h234z" />
    <glyph glyph-name="dcroat" unicode="&#x111;" 
d="M1283 1258l17 102h-185l31 176h-118l-31 -176h-292l-17 -102h290l-58 -323q-21 38 -49.5 68t-63.5 51q-38 23 -82 35.5t-92 12.5q-76 1 -140 -21t-116 -62q-53 -40 -94.5 -93.5t-72.5 -115.5t-51 -129t-30 -133l-3 -21q-7 -60 -6 -123t14 -123q12 -61 37 -115t64 -95
t94 -65.5t128 -25.5q54 0 104.5 12.5t96.5 36.5q39 20 73.5 48t64.5 61l-25 -138h109l217 1258h186zM244 527l4 21q12 79 42.5 159.5t79.5 145.5t118.5 105.5t161.5 38.5q46 0 84.5 -14t69.5 -38q35 -27 59.5 -66t36.5 -86l-91 -520q-27 -41 -62.5 -76t-76.5 -60
t-88.5 -38.5t-98.5 -12.5q-59 1 -102 21t-71 54q-29 34 -45 77.5t-23 92.5t-6 99.5t8 96.5z" />
    <glyph glyph-name="Emacron" unicode="&#x112;" 
d="M952 698l18 105h-623l95 547h714l18 106h-831l-252 -1456h835l18 106h-718l103 592h623zM1115 1688l15 98h-652l-15 -98h652z" />
    <glyph glyph-name="emacron" unicode="&#x113;" 
d="M538 -20q120 -1 228.5 48t184.5 142l-70 58q-69 -67 -153 -107t-182 -38q-85 1 -147 38.5t-99 96.5q-41 68 -52 146t6 169h783l11 73q13 93 -2.5 182t-59.5 158q-44 70 -117.5 112.5t-177.5 43.5q-75 1 -142.5 -20t-125.5 -59q-58 -39 -106 -91.5t-85 -113.5
q-37 -62 -61 -129.5t-34 -135.5l-6 -44q-12 -98 8.5 -191t68.5 -164q52 -77 135.5 -125t194.5 -49zM687 999q70 -1 122 -31.5t85 -79.5q32 -49 43 -111.5t-1 -126.5l-3 -15l-663 1q24 68 62.5 134t90.5 117t118 82.5t146 29.5zM1061 1367l15 98h-652l-15 -98h652z" />
    <glyph glyph-name="Ebreve" unicode="&#x114;" 
d="M952 698l18 105h-623l95 547h714l18 106h-831l-252 -1456h835l18 106h-718l103 592h623zM1100 1838l-100 -1q-9 -36 -25.5 -66t-40.5 -52q-27 -24 -62 -37.5t-78 -13.5q-40 0 -68.5 11t-48.5 32q-20 22 -29.5 54.5t-7.5 72.5l-100 1q-1 -59 16 -106t51 -80q33 -34 80 -53
t106 -19q61 -1 112.5 17t91.5 52q40 33 66.5 81t36.5 107z" />
    <glyph glyph-name="ebreve" unicode="&#x115;" 
d="M538 -20q120 -1 228.5 48t184.5 142l-70 58q-69 -67 -153 -107t-182 -38q-85 1 -147 38.5t-99 96.5q-41 68 -52 146t6 169h783l11 73q13 93 -2.5 182t-59.5 158q-44 70 -117.5 112.5t-177.5 43.5q-75 1 -142.5 -20t-125.5 -59q-58 -39 -106 -91.5t-85 -113.5
q-37 -62 -61 -129.5t-34 -135.5l-6 -44q-12 -98 8.5 -191t68.5 -164q52 -77 135.5 -125t194.5 -49zM687 999q70 -1 122 -31.5t85 -79.5q32 -49 43 -111.5t-1 -126.5l-3 -15l-663 1q24 68 62.5 134t90.5 117t118 82.5t146 29.5zM1040 1517l-100 -1q-9 -36 -25.5 -66
t-40.5 -52q-27 -24 -62 -37.5t-78 -13.5q-40 0 -68.5 11t-48.5 32q-20 22 -29.5 54.5t-7.5 72.5l-100 1q-1 -59 16 -106t51 -80q33 -34 80 -53t106 -19q61 -1 112.5 17t91.5 52q40 33 66.5 81t36.5 107z" />
    <glyph glyph-name="Edotaccent" unicode="&#x116;" 
d="M952 698l18 105h-623l95 547h714l18 106h-831l-252 -1456h835l18 106h-718l103 592h623zM722 1710q-2 -36 21.5 -59t58.5 -23q35 1 60.5 24.5t27.5 58.5q3 36 -20.5 60.5t-59.5 23.5t-61 -25.5t-27 -59.5z" />
    <glyph glyph-name="edotaccent" unicode="&#x117;" 
d="M538 -20q120 -1 228.5 48t184.5 142l-70 58q-69 -67 -153 -107t-182 -38q-85 1 -147 38.5t-99 96.5q-41 68 -52 146t6 169h783l11 73q13 93 -2.5 182t-59.5 158q-44 70 -117.5 112.5t-177.5 43.5q-75 1 -142.5 -20t-125.5 -59q-58 -39 -106 -91.5t-85 -113.5
q-37 -62 -61 -129.5t-34 -135.5l-6 -44q-12 -98 8.5 -191t68.5 -164q52 -77 135.5 -125t194.5 -49zM687 999q70 -1 122 -31.5t85 -79.5q32 -49 43 -111.5t-1 -126.5l-3 -15l-663 1q24 68 62.5 134t90.5 117t118 82.5t146 29.5zM659 1390q-2 -36 21.5 -59t58.5 -23
q35 1 60.5 24.5t27.5 58.5q3 36 -20.5 60.5t-59.5 23.5t-61 -25.5t-27 -59.5z" />
    <glyph glyph-name="Eogonek" unicode="&#x118;" 
d="M952 698l18 105h-623l95 547h714l18 106h-831l-252 -1456h601q-33 -22 -66 -48t-60 -57t-45 -66.5t-21 -76.5q-3 -33 5 -62t26 -50q19 -25 49.5 -39t70.5 -14q40 -1 77.5 10.5t71.5 31.5l-15 86q-26 -13 -53.5 -23t-56.5 -8q-37 1 -55 22t-13 58q5 41 27.5 75.5
t53.5 63.5q31 28 66.5 51.5t67.5 43.5l5 2h99l18 106h-718l103 592h623z" />
    <glyph glyph-name="eogonek" unicode="&#x119;" 
d="M951 170l-70 58q-69 -67 -153 -107t-182 -38q-85 1 -146.5 38.5t-99.5 96.5q-36 57 -49.5 128.5t-3.5 144.5q1 10 2 15.5t3 15.5l2 11h783l11 73q13 93 -2.5 182t-59.5 158q-44 70 -117.5 112.5t-177.5 43.5q-75 1 -142.5 -20t-125.5 -59q-58 -39 -106 -91.5t-85 -113.5
q-37 -62 -61 -129.5t-34 -135.5l-6 -44q-12 -97 8 -189.5t67 -163.5q48 -74 127.5 -122t186.5 -53q13 0 26 1.5t26 4.5q-50 -40 -86 -89.5t-41 -111.5q-3 -37 7.5 -68t31.5 -53q20 -21 48.5 -32.5t63.5 -11.5q40 -1 77.5 10.5t72.5 31.5l-16 86q-26 -13 -53 -23t-57 -8
q-36 1 -54 22t-14 58q5 40 26.5 73.5t51.5 62.5q30 27 64.5 50.5t65.5 42.5q55 22 103.5 58t87.5 85zM687 999q70 -1 122 -31.5t85 -79.5q32 -49 43 -111.5t-1 -126.5l-3 -15l-663 1q24 68 62.5 134t90.5 117t118 82.5t146 29.5z" />
    <glyph glyph-name="Ecaron" unicode="&#x11a;" 
d="M952 698l18 105h-623l95 547h714l18 106h-831l-252 -1456h835l18 106h-718l103 592h623zM770 1669l-134 184h-102l-1 -17l192 -248h85l266 248l1 17l-107 -1z" />
    <glyph glyph-name="ecaron" unicode="&#x11b;" 
d="M538 -20q120 -1 228.5 48t184.5 142l-70 58q-69 -67 -153 -107t-182 -38q-85 1 -147 38.5t-99 96.5q-41 68 -52 146t6 169h783l11 73q13 93 -2.5 182t-59.5 158q-44 70 -117.5 112.5t-177.5 43.5q-75 1 -142.5 -20t-125.5 -59q-58 -39 -106 -91.5t-85 -113.5
q-37 -62 -61 -129.5t-34 -135.5l-6 -44q-12 -98 8.5 -191t68.5 -164q52 -77 135.5 -125t194.5 -49zM687 999q70 -1 122 -31.5t85 -79.5q32 -49 43 -111.5t-1 -126.5l-3 -15l-663 1q24 68 62.5 134t90.5 117t118 82.5t146 29.5zM731 1348l-134 184h-102l-1 -17l192 -248h85
l266 248l1 17l-107 -1z" />
    <glyph glyph-name="Gcircumflex" unicode="&#x11c;" 
d="M996 174l84 519h-447l-18 -106h335l-66 -375q-72 -71 -164.5 -100t-192.5 -25q-69 2 -119.5 28.5t-85.5 68.5t-55.5 96.5t-29.5 114.5q-10 59 -9 120t10 116l35 206q10 59 30 122t49 122q28 59 66.5 112.5t87.5 92.5q48 39 106.5 62t128.5 22q72 -1 124.5 -27t86.5 -70
q35 -45 53 -104t22 -124h115q-1 90 -27.5 168t-76.5 137q-51 58 -124.5 91.5t-167.5 34.5q-87 1 -160.5 -25.5t-134.5 -72.5t-110.5 -108.5t-86.5 -133.5q-37 -72 -62 -149t-38 -152l-34 -203q-10 -72 -8 -147.5t19 -146.5q16 -72 47.5 -136t79.5 -112q48 -49 114 -78
t151 -31q135 -4 257.5 45.5t215.5 147.5zM1066 1630l-201 241h-73l-266 -238l-2 -20h109l193 172l132 -173h106z" />
    <glyph glyph-name="gcircumflex" unicode="&#x11d;" 
d="M146 548l-3 -21q-8 -60 -7 -123t14 -123q12 -61 36.5 -115t64.5 -95q39 -41 94 -65.5t128 -25.5q54 0 105 12.5t97 36.5q37 20 70.5 46.5t62.5 58.5l-24 -120q-15 -72 -47 -135t-79 -109q-48 -47 -111.5 -73.5t-140.5 -25.5q-88 1 -154 43.5t-113 113.5l-72 -73
q58 -87 148 -136t195 -50q101 -2 184.5 33t146.5 96t104 143.5t57 177.5l182 1063h-111l-34 -152q-19 37 -45.5 66.5t-58.5 51.5q-40 27 -87 40.5t-99 14.5q-77 1 -140.5 -21.5t-116.5 -61.5q-53 -40 -94 -94t-71 -116q-31 -62 -51 -129t-30 -133zM260 527l4 21
q13 79 43 159.5t79 145.5t118.5 105.5t161.5 38.5q51 0 93.5 -17t75.5 -46q29 -28 49.5 -65t30.5 -81l-89 -510q-27 -43 -63 -79.5t-78 -61.5q-41 -25 -88 -38.5t-98 -13.5q-59 2 -101.5 22t-71.5 54t-45.5 78t-22.5 92q-7 49 -6 99.5t8 96.5zM995 1288l-201 241h-73
l-266 -238l-2 -20h109l193 172l132 -173h106z" />
    <glyph glyph-name="Gbreve" unicode="&#x11e;" 
d="M996 174l84 519h-447l-18 -106h335l-66 -375q-72 -71 -164.5 -100t-192.5 -25q-69 2 -119.5 28.5t-85.5 68.5t-55.5 96.5t-29.5 114.5q-10 59 -9 120t10 116l35 206q10 59 30 122t49 122q28 59 66.5 112.5t87.5 92.5q48 39 106.5 62t128.5 22q72 -1 124.5 -27t86.5 -70
q35 -45 53 -104t22 -124h115q-1 90 -27.5 168t-76.5 137q-51 58 -124.5 91.5t-167.5 34.5q-87 1 -160.5 -25.5t-134.5 -72.5t-110.5 -108.5t-86.5 -133.5q-37 -72 -62 -149t-38 -152l-34 -203q-10 -72 -8 -147.5t19 -146.5q16 -72 47.5 -136t79.5 -112q48 -49 114 -78
t151 -31q135 -4 257.5 45.5t215.5 147.5zM1106 1859l-100 -1q-9 -36 -25.5 -66t-40.5 -52q-27 -24 -62 -37.5t-78 -13.5q-40 0 -68.5 11t-48.5 32q-20 22 -29.5 54.5t-7.5 72.5l-100 1q-1 -59 16 -106t51 -80q33 -34 80 -53t106 -19q61 -1 112.5 17t91.5 52q40 33 66.5 81
t36.5 107z" />
    <glyph glyph-name="gbreve" unicode="&#x11f;" 
d="M146 548l-3 -21q-8 -60 -7 -123t14 -123q12 -61 36.5 -115t64.5 -95q39 -41 94 -65.5t128 -25.5q54 0 105 12.5t97 36.5q37 20 70.5 46.5t62.5 58.5l-24 -120q-15 -72 -47 -135t-79 -109q-48 -47 -111.5 -73.5t-140.5 -25.5q-88 1 -154 43.5t-113 113.5l-72 -73
q58 -87 148 -136t195 -50q101 -2 184.5 33t146.5 96t104 143.5t57 177.5l182 1063h-111l-34 -152q-19 37 -45.5 66.5t-58.5 51.5q-40 27 -87 40.5t-99 14.5q-77 1 -140.5 -21.5t-116.5 -61.5q-53 -40 -94 -94t-71 -116q-31 -62 -51 -129t-30 -133zM260 527l4 21
q13 79 43 159.5t79 145.5t118.5 105.5t161.5 38.5q51 0 93.5 -17t75.5 -46q29 -28 49.5 -65t30.5 -81l-89 -510q-27 -43 -63 -79.5t-78 -61.5q-41 -25 -88 -38.5t-98 -13.5q-59 2 -101.5 22t-71.5 54t-45.5 78t-22.5 92q-7 49 -6 99.5t8 96.5zM1035 1516l-100 -1
q-9 -36 -25.5 -66t-40.5 -52q-27 -24 -62 -37.5t-78 -13.5q-40 0 -68.5 11t-48.5 32q-20 22 -29.5 54.5t-7.5 72.5l-100 1q-1 -59 16 -106t51 -80q33 -34 80 -53t106 -19q61 -1 112.5 17t91.5 52q40 33 66.5 81t36.5 107z" />
    <glyph glyph-name="uni0120" unicode="&#x120;" 
d="M996 174l84 519h-447l-18 -106h335l-66 -375q-72 -71 -164.5 -100t-192.5 -25q-69 2 -119.5 28.5t-85.5 68.5t-55.5 96.5t-29.5 114.5q-10 59 -9 120t10 116l35 206q10 59 30 122t49 122q28 59 66.5 112.5t87.5 92.5q48 39 106.5 62t128.5 22q72 -1 124.5 -27t86.5 -70
q35 -45 53 -104t22 -124h115q-1 90 -27.5 168t-76.5 137q-51 58 -124.5 91.5t-167.5 34.5q-87 1 -160.5 -25.5t-134.5 -72.5t-110.5 -108.5t-86.5 -133.5q-37 -72 -62 -149t-38 -152l-34 -203q-10 -72 -8 -147.5t19 -146.5q16 -72 47.5 -136t79.5 -112q48 -49 114 -78
t151 -31q135 -4 257.5 45.5t215.5 147.5zM725 1731q-2 -36 21.5 -59t58.5 -23q35 1 60.5 24.5t27.5 58.5q3 36 -20.5 60.5t-59.5 23.5t-61 -25.5t-27 -59.5z" />
    <glyph glyph-name="uni0121" unicode="&#x121;" 
d="M146 548l-3 -21q-8 -60 -7 -123t14 -123q12 -61 36.5 -115t64.5 -95q39 -41 94 -65.5t128 -25.5q54 0 105 12.5t97 36.5q37 20 70.5 46.5t62.5 58.5l-24 -120q-15 -72 -47 -135t-79 -109q-48 -47 -111.5 -73.5t-140.5 -25.5q-88 1 -154 43.5t-113 113.5l-72 -73
q58 -87 148 -136t195 -50q101 -2 184.5 33t146.5 96t104 143.5t57 177.5l182 1063h-111l-34 -152q-19 37 -45.5 66.5t-58.5 51.5q-40 27 -87 40.5t-99 14.5q-77 1 -140.5 -21.5t-116.5 -61.5q-53 -40 -94 -94t-71 -116q-31 -62 -51 -129t-30 -133zM260 527l4 21
q13 79 43 159.5t79 145.5t118.5 105.5t161.5 38.5q51 0 93.5 -17t75.5 -46q29 -28 49.5 -65t30.5 -81l-89 -510q-27 -43 -63 -79.5t-78 -61.5q-41 -25 -88 -38.5t-98 -13.5q-59 2 -101.5 22t-71.5 54t-45.5 78t-22.5 92q-7 49 -6 99.5t8 96.5zM655 1389q-2 -36 21.5 -59
t58.5 -23q35 1 60.5 24.5t27.5 58.5q3 36 -20.5 60.5t-59.5 23.5t-61 -25.5t-27 -59.5z" />
    <glyph glyph-name="Gcommaaccent" unicode="&#x122;" 
d="M996 174l84 519h-447l-18 -106h335l-66 -375q-72 -71 -164.5 -100t-192.5 -25q-69 2 -119.5 28.5t-85.5 68.5t-55.5 96.5t-29.5 114.5q-10 59 -9 120t10 116l35 206q10 59 30 122t49 122q28 59 66.5 112.5t87.5 92.5q48 39 106.5 62t128.5 22q72 -1 124.5 -27t86.5 -70
q35 -45 53 -104t22 -124h115q-1 90 -27.5 168t-76.5 137q-51 58 -124.5 91.5t-167.5 34.5q-87 1 -160.5 -25.5t-134.5 -72.5t-110.5 -108.5t-86.5 -133.5q-37 -72 -62 -149t-38 -152l-34 -203q-10 -72 -8 -147.5t19 -146.5q16 -72 47.5 -136t79.5 -112q48 -49 114 -78
t151 -31q135 -4 257.5 45.5t215.5 147.5zM544 -154l11 73h-114l-12 -76q-12 -66 -40 -123t-68 -111l67 -54q64 58 104 132t52 159z" />
    <glyph glyph-name="gcommaaccent" unicode="&#x123;" 
d="M146 548l-3 -21q-8 -60 -7 -123t14 -123q12 -61 36.5 -115t64.5 -95q39 -41 94 -65.5t128 -25.5q54 0 105 12.5t97 36.5q37 20 70.5 46.5t62.5 58.5l-24 -120q-15 -72 -47 -135t-79 -109q-48 -47 -111.5 -73.5t-140.5 -25.5q-88 1 -154 43.5t-113 113.5l-72 -73
q58 -87 148 -136t195 -50q101 -2 184.5 33t146.5 96t104 143.5t57 177.5l182 1063h-111l-34 -152q-19 37 -45.5 66.5t-58.5 51.5q-40 27 -87 40.5t-99 14.5q-77 1 -140.5 -21.5t-116.5 -61.5q-53 -40 -94 -94t-71 -116q-31 -62 -51 -129t-30 -133zM260 527l4 21
q13 79 43 159.5t79 145.5t118.5 105.5t161.5 38.5q51 0 93.5 -17t75.5 -46q29 -28 49.5 -65t30.5 -81l-89 -510q-27 -43 -63 -79.5t-78 -61.5q-41 -25 -88 -38.5t-98 -13.5q-59 2 -101.5 22t-71.5 54t-45.5 78t-22.5 92q-7 49 -6 99.5t8 96.5zM664 1392l-19 -128h117l22 126
q11 55 34 102t53 93l-74 52q-24 -25 -46 -53t-39 -59q-17 -30 -29 -63.5t-19 -69.5z" />
    <glyph glyph-name="Hcircumflex" unicode="&#x124;" 
d="M935 0l252 1456h-111l-113 -653h-663l113 653h-110l-252 -1456h110l121 698h663l-121 -698h111zM1040 1609l-201 241h-73l-266 -238l-2 -20h109l193 172l132 -173h106z" />
    <glyph glyph-name="hcircumflex" unicode="&#x125;" 
d="M346 871l121 665h-117l-266 -1536h118l129 745q24 51 64 96.5t91 80.5q49 35 105.5 55t115.5 20q69 -1 113.5 -26t68.5 -66q25 -43 30.5 -98t-2.5 -115l-118 -692h118l117 691q10 80 -0.5 154.5t-45.5 131.5q-36 56 -97 90t-152 35q-62 1 -118.5 -17t-105.5 -49
q-50 -31 -92.5 -73.5t-76.5 -91.5zM827 1628l-201 241h-73l-266 -238l-2 -20h109l193 172l132 -173h106z" />
    <glyph glyph-name="Hbar" unicode="&#x126;" 
d="M1124 1124l58 332h-111l-58 -332h-662l57 332h-110l-58 -332h-115l-16 -98h114l-177 -1026h110l121 698h663l-121 -698h111l177 1026h136l16 98h-135zM958 803h-663l39 223h662z" />
    <glyph glyph-name="hbar" unicode="&#x127;" 
d="M718 1258l17 102h-285l32 176h-117l-31 -176h-194l-17 -102h193l-217 -1258h118l129 745q24 51 64 96.5t91 80.5q49 35 105.5 55t115.5 20q69 -1 113.5 -26t68.5 -66q25 -43 30.5 -98t-2.5 -115l-118 -692h118l117 691q10 80 -0.5 154.5t-45.5 131.5q-36 56 -97 90
t-152 35q-62 1 -118.5 -17t-105.5 -49q-50 -31 -92.5 -73.5t-76.5 -91.5l70 387h287z" />
    <glyph glyph-name="Itilde" unicode="&#x128;" 
d="M335 1456l-18 -108h343l-215 -1241h-344l-18 -107h819l18 107h-354l216 1241h354l18 108h-819zM1107 1825l-76 15q-7 -22 -18 -43.5t-29 -42.5q-16 -17 -34.5 -27t-40.5 -10q-38 -1 -68.5 18t-61.5 41q-30 20 -61.5 37t-72.5 17q-43 0 -78 -17t-61 -46t-42.5 -66
t-23.5 -76l78 -11q7 22 18 43t27 38q15 16 35.5 26t46.5 10q36 1 67 -17t61 -39q28 -21 59 -38t70 -17q44 0 79 17.5t61 46.5q25 28 41.5 65t23.5 76z" />
    <glyph glyph-name="itilde" unicode="&#x129;" 
d="M297 1082l-17 -107h370l-151 -868h-370l-19 -107h846l18 107h-357l169 975h-489zM1115 1513l-76 15q-7 -22 -18 -43.5t-29 -42.5q-16 -17 -34.5 -27t-40.5 -10q-38 -1 -68.5 18t-61.5 41q-30 20 -61.5 37t-72.5 17q-43 0 -78 -17t-61 -46t-42.5 -66t-23.5 -76l78 -11
q7 22 18 43t27 38q15 16 35.5 26t46.5 10q36 1 67 -17t61 -39q28 -21 59 -38t70 -17q44 0 79 17.5t61 46.5q25 28 41.5 65t23.5 76z" />
    <glyph glyph-name="Imacron" unicode="&#x12a;" 
d="M335 1456l-18 -108h343l-215 -1241h-344l-18 -107h819l18 107h-354l216 1241h354l18 108h-819zM1092 1688l15 98h-652l-15 -98h652z" />
    <glyph glyph-name="imacron" unicode="&#x12b;" 
d="M297 1082l-17 -107h370l-151 -868h-370l-19 -107h846l18 107h-357l169 975h-489zM1100 1377l15 98h-652l-15 -98h652z" />
    <glyph glyph-name="Ibreve" unicode="&#x12c;" 
d="M335 1456l-18 -108h343l-215 -1241h-344l-18 -107h819l18 107h-354l216 1241h354l18 108h-819zM1060 1838l-100 -1q-9 -36 -25.5 -66t-40.5 -52q-27 -24 -62 -37.5t-78 -13.5q-40 0 -68.5 11t-48.5 32q-20 22 -29.5 54.5t-7.5 72.5l-100 1q-1 -59 16 -106t51 -80
q33 -34 80 -53t106 -19q61 -1 112.5 17t91.5 52q40 33 66.5 81t36.5 107z" />
    <glyph glyph-name="ibreve" unicode="&#x12d;" 
d="M297 1082l-17 -107h370l-151 -868h-370l-19 -107h846l18 107h-357l169 975h-489zM1069 1527l-100 -1q-9 -36 -25.5 -66t-40.5 -52q-27 -24 -62 -37.5t-78 -13.5q-40 0 -68.5 11t-48.5 32q-20 22 -29.5 54.5t-7.5 72.5l-100 1q-1 -59 16 -106t51 -80q33 -34 80 -53
t106 -19q61 -1 112.5 17t91.5 52q40 33 66.5 81t36.5 107z" />
    <glyph glyph-name="Iogonek" unicode="&#x12e;" 
d="M335 1456l-18 -108h343l-215 -1241h-344l-18 -107h553q-33 -22 -66 -48t-60 -57t-45 -66.5t-21 -76.5q-3 -34 5.5 -63.5t27.5 -50.5q19 -24 49 -37.5t69 -13.5q40 -1 77.5 10.5t71.5 31.5l-15 86q-26 -13 -53.5 -23t-56.5 -8q-37 1 -55 22t-13 58q5 41 27.5 75.5
t53.5 63.5q31 28 66.5 51.5t67.5 43.5l-5 2h141l18 107h-354l216 1241h354l18 108h-819z" />
    <glyph glyph-name="iogonek" unicode="&#x12f;" 
d="M297 1082l-17 -107h370l-151 -868h-370l-19 -107h359q-33 -22 -66 -48t-60 -57t-45 -66.5t-21 -76.5q-3 -36 6.5 -66t28.5 -51q20 -23 49.5 -35.5t66.5 -12.5q40 -1 77.5 10.5t71.5 31.5l-15 86q-26 -13 -53.5 -23t-56.5 -8q-37 1 -55 22t-13 58q5 41 27.5 75.5
t53.5 63.5q31 28 66.5 51.5t67.5 43.5l-5 2h362l18 107h-357l169 975h-489zM686 1377q-1 -18 3.5 -33.5t14.5 -26.5q10 -13 27 -20t38 -7q22 0 39.5 7.5t29.5 20.5q11 12 17.5 27.5t7.5 33.5q2 20 -3.5 37t-15.5 29q-12 12 -28 19t-36 6q-20 0 -36 -7t-28 -18
q-13 -12 -20.5 -29.5t-9.5 -38.5z" />
    <glyph glyph-name="Idotaccent" unicode="&#x130;" 
d="M335 1456l-18 -108h343l-215 -1241h-344l-18 -107h819l18 107h-354l216 1241h354l18 108h-819zM680 1710q-2 -36 21.5 -59t58.5 -23q35 1 60.5 24.5t27.5 58.5q3 36 -20.5 60.5t-59.5 23.5t-61 -25.5t-27 -59.5z" />
    <glyph glyph-name="dotlessi" unicode="&#x131;" 
d="M297 1082l-17 -107h370l-151 -868h-370l-19 -107h846l18 107h-357l169 975h-489z" />
    <glyph glyph-name="IJ" unicode="&#x132;" 
d="M148 0l251 1456h-117l-251 -1456h117zM1094 1456l-192 -1124q-10 -55 -29.5 -101t-51.5 -78q-33 -34 -78 -52t-104 -18q-55 1 -91 19.5t-56 51.5q-20 32 -25.5 75t0.5 92l-118 1q-7 -74 7 -136t50 -107q36 -46 92.5 -71.5t133.5 -26.5q83 -1 149.5 24t115.5 72
q48 46 79 111t43 144l193 1124h-118z" />
    <glyph glyph-name="ij" unicode="&#x133;" 
d="M744 1082l-18 -107h238l-167 -975q-13 -71 -41 -131t-72 -104q-45 -44 -104.5 -69t-134.5 -25q-45 0 -90.5 3t-90.5 10l-21 -102q52 -8 102.5 -13t103.5 -5q99 1 178 34t138 92q59 58 96.5 137.5t52.5 173.5l186 1081h-356zM187 1082l-18 -107h249l-151 -868h-251
l-18 -107h579l18 107h-210l169 975h-367zM995 1376q-3 -40 20 -64.5t64 -23.5q40 2 65.5 26.5t28.5 63.5q2 40 -21 66t-63 25q-41 -1 -66 -27t-28 -66zM457 1375q-2 -39 21 -63.5t63 -24.5q40 1 65.5 26t28.5 64q2 39 -20.5 65.5t-63.5 25.5q-40 -1 -65.5 -27t-28.5 -66z
" />
    <glyph glyph-name="Jcircumflex" unicode="&#x134;" 
d="M1023 1456l-174 -1013q-14 -71 -48 -136t-85 -114t-116 -78.5t-140 -28.5q-72 0 -124.5 26t-85.5 71q-34 44 -48 103t-9 125l-118 1q-3 -91 20 -169.5t72 -136.5q47 -58 119.5 -91.5t167.5 -34.5q100 0 187 36.5t154 99.5t112.5 147.5t61.5 179.5l173 1013h-119z
M1375 1588l-201 241h-73l-266 -238l-2 -20h109l193 172l132 -173h106z" />
    <glyph glyph-name="jcircumflex" unicode="&#x135;" 
d="M341 1082l-18 -107h399l-168 -976q-12 -71 -40 -131.5t-71 -104.5q-44 -45 -104 -71t-135 -26q-46 0 -91.5 3.5t-90.5 10.5l-19 -101q52 -8 102.5 -12.5t102.5 -4.5q99 1 178.5 34.5t138.5 92.5q58 58 95.5 137.5t52.5 173.5l185 1082h-517zM1096 1316l-201 241h-73
l-266 -238l-2 -20h109l193 172l132 -173h106z" />
    <glyph glyph-name="Kcommaaccent" unicode="&#x136;" 
d="M520 719l385 -719h136l-434 804l653 651l-155 1l-575 -571l-203 -195l134 766h-119l-251 -1456h118l89 517zM526 -87l11 73h-114l-12 -76q-12 -66 -40 -123t-68 -111l67 -54q64 58 104 132t52 159z" />
    <glyph glyph-name="kcommaaccent" unicode="&#x137;" 
d="M473 545l354 -545h142l-407 621l555 461h-161l-494 -403l-141 -121l169 978h-118l-266 -1536h118l70 405zM460 -84l11 73h-114l-12 -76q-12 -66 -40 -123t-68 -111l67 -54q64 58 104 132t52 159z" />
    <glyph glyph-name="kgreenlandic" unicode="&#x138;" 
d="M480 504l364 -504h142l-419 582l564 499l-152 1l-510 -444l-163 -143l102 587h-118l-187 -1082h118l59 344z" />
    <glyph glyph-name="Lacute" unicode="&#x139;" 
d="M246 106l233 1350h-118l-252 -1456h837l18 106h-718zM590 1782l-219 -264l105 -1l264 265h-150z" />
    <glyph glyph-name="lacute" unicode="&#x13a;" 
d="M376 1536l-18 -107h373l-230 -1322h-372l-19 -107h846l18 107h-355l248 1429h-491zM959 1899l-219 -264l105 -1l264 265h-150z" />
    <glyph glyph-name="Lcommaaccent" unicode="&#x13b;" 
d="M246 106l233 1350h-118l-252 -1456h837l18 106h-718zM515 -140l11 73h-114l-12 -76q-12 -66 -40 -123t-68 -111l67 -54q64 58 104 132t52 159z" />
    <glyph glyph-name="lcommaaccent" unicode="&#x13c;" 
d="M376 1536l-18 -107h373l-230 -1322h-372l-19 -107h846l18 107h-355l248 1429h-491zM580 -139l11 73h-114l-12 -76q-12 -66 -40 -123t-68 -111l67 -54q64 58 104 132t52 159z" />
    <glyph glyph-name="Lcaron" unicode="&#x13d;" 
d="M246 106l233 1350h-118l-252 -1456h837l18 106h-718zM975 1332l20 124h-115l-23 -127q-15 -79 -50 -146t-85 -129l65 -54q38 34 70 73t56 83q22 40 37.5 84.5t24.5 91.5z" />
    <glyph glyph-name="lcaron" unicode="&#x13e;" 
d="M306 1536l-18 -107h373l-230 -1322h-372l-19 -107h846l18 107h-355l248 1429h-491zM1194 1415l20 124h-115l-23 -127q-15 -79 -50 -146t-85 -129l65 -54q38 34 70 73t56 83q22 40 37.5 84.5t24.5 91.5z" />
    <glyph glyph-name="Ldot" unicode="&#x13f;" 
d="M246 106l233 1350h-118l-252 -1456h837l18 106h-718zM587 772q-2 -36 21.5 -59t58.5 -23q35 1 60.5 24.5t27.5 58.5q3 36 -20.5 60.5t-59.5 23.5t-61 -25.5t-27 -59.5z" />
    <glyph glyph-name="ldot" unicode="&#x140;" 
d="M306 1536l-18 -107h373l-230 -1322h-372l-19 -107h846l18 107h-355l248 1429h-491zM807 823q-2 -36 21.5 -59t58.5 -23q35 1 60.5 24.5t27.5 58.5q3 36 -20.5 60.5t-59.5 23.5t-61 -25.5t-27 -59.5z" />
    <glyph glyph-name="Lslash" unicode="&#x141;" 
d="M392 825l109 631h-118l-116 -669l-189 -57l-19 -113l188 57l-116 -674h837l17 106h-718l105 607l301 91l19 113z" />
    <glyph glyph-name="lslash" unicode="&#x142;" 
d="M376 1536l-18 -107h373l-99 -567l-377 -121l-22 -114l379 121l-111 -641h-372l-19 -107h846l18 107h-355l119 689l351 109l20 114l-351 -109l109 626h-491z" />
    <glyph glyph-name="Nacute" unicode="&#x143;" 
d="M934 0l252 1456h-118l-213 -1228l-437 1228h-114l-251 -1456h117l213 1231l438 -1231h113zM897 1829l-219 -264l105 -1l264 265h-150z" />
    <glyph glyph-name="nacute" unicode="&#x144;" 
d="M83 0h118l128 740q24 52 63.5 99t89.5 82q49 35 106 55.5t116 20.5q69 0 114 -25t69 -66q24 -42 29.5 -97.5t-2.5 -116.5l-118 -692h118l116 688q12 81 1 157.5t-46 132.5q-36 56 -97 89.5t-151 34.5q-63 1 -119 -16.5t-106 -48.5t-92.5 -73.5t-77.5 -91.5l36 211
l-108 -1zM857 1508l-219 -264l105 -1l264 265h-150z" />
    <glyph glyph-name="Ncommaaccent" unicode="&#x145;" 
d="M934 0l252 1456h-118l-213 -1228l-437 1228h-114l-251 -1456h117l213 1231l438 -1231h113zM526 -140l11 73h-114l-12 -76q-12 -66 -40 -123t-68 -111l67 -54q64 58 104 132t52 159z" />
    <glyph glyph-name="ncommaaccent" unicode="&#x146;" 
d="M83 0h118l128 740q24 52 63.5 99t89.5 82q49 35 106 55.5t116 20.5q69 0 114 -25t69 -66q24 -42 29.5 -97.5t-2.5 -116.5l-118 -692h118l116 688q12 81 1 157.5t-46 132.5q-36 56 -97 89.5t-151 34.5q-63 1 -119 -16.5t-106 -48.5t-92.5 -73.5t-77.5 -91.5l36 211
l-108 -1zM524 -140l11 73h-114l-12 -76q-12 -66 -40 -123t-68 -111l67 -54q64 58 104 132t52 159z" />
    <glyph glyph-name="Ncaron" unicode="&#x147;" 
d="M934 0l252 1456h-118l-213 -1228l-437 1228h-114l-251 -1456h117l213 1231l438 -1231h113zM772 1669l-134 184h-102l-1 -17l192 -248h85l266 248l1 17l-107 -1z" />
    <glyph glyph-name="ncaron" unicode="&#x148;" 
d="M83 0h118l128 740q24 52 63.5 99t89.5 82q49 35 106 55.5t116 20.5q69 0 114 -25t69 -66q24 -42 29.5 -97.5t-2.5 -116.5l-118 -692h118l116 688q12 81 1 157.5t-46 132.5q-36 56 -97 89.5t-151 34.5q-63 1 -119 -16.5t-106 -48.5t-92.5 -73.5t-77.5 -91.5l36 211
l-108 -1zM713 1347l-134 184h-102l-1 -17l192 -248h85l266 248l1 17l-107 -1z" />
    <glyph glyph-name="napostrophe" unicode="&#x149;" 
d="M83 0h118l128 740q24 52 63.5 99t89.5 82q49 35 106 55.5t116 20.5q69 0 114 -25t69 -66q24 -42 29.5 -97.5t-2.5 -116.5l-118 -692h118l116 688q12 81 1 157.5t-46 132.5q-36 56 -97 89.5t-151 34.5q-63 1 -119 -16.5t-106 -48.5t-92.5 -73.5t-77.5 -91.5l36 211
l-108 -1zM352 1423l20 124h-115l-23 -127q-15 -79 -50 -146t-85 -129l65 -54q38 34 70 73t56 83q22 40 37.5 84.5t24.5 91.5z" />
    <glyph glyph-name="Eng" unicode="&#x14a;" 
d="M1161 1456h-115l-211 -1210l-397 1210h-112l-251 -1456h115l211 1213l395 -1200l-17 -102q-7 -39 -21 -82t-36 -80q-24 -37 -58 -61t-81 -24q-22 0 -43.5 5t-41.5 12l-23 -99q26 -8 51 -13.5t52 -5.5q73 -1 128.5 29.5t95.5 79.5q38 50 61.5 112.5t33.5 127.5z" />
    <glyph glyph-name="eng" unicode="&#x14b;" 
d="M94 0h117l129 739q21 52 54.5 98.5t77.5 81.5q46 36 102 57t120 21q67 -1 109 -26.5t64 -67.5q26 -51 28.5 -115t-6.5 -129l-126 -748q-9 -44 -26 -87.5t-44 -77.5q-28 -35 -66.5 -56t-88.5 -21q-27 -1 -53.5 4t-52.5 13l-24 -103q30 -9 61 -15t63 -6q77 0 137 28t104 76
q43 48 70 111.5t38 133.5l125 749q12 85 4 166.5t-43 143.5q-34 60 -93 95.5t-149 36.5q-68 1 -126 -18.5t-108 -53.5q-40 -28 -74 -64.5t-62 -80.5l31 198l-105 -1z" />
    <glyph glyph-name="Omacron" unicode="&#x14c;" 
d="M1078 632l31 192q10 68 10 142.5t-12 146.5q-14 72 -41.5 137.5t-71.5 115.5q-45 49 -108.5 79t-148.5 31q-87 1 -159.5 -26t-132.5 -75q-60 -49 -108 -113.5t-83 -136.5q-35 -73 -59 -150.5t-37 -150.5l-31 -192q-10 -68 -10 -142.5t14 -146.5q13 -72 41 -137t73 -115
t108 -80t148 -31q86 -1 159 26.5t133 75.5q59 48 106.5 112.5t83.5 137.5q35 72 58.5 149.5t36.5 150.5zM994 827l-33 -195q-11 -59 -29 -122t-45 -123q-27 -61 -63.5 -115.5t-83.5 -95.5q-47 -42 -105 -65.5t-128 -22.5q-69 1 -117.5 27.5t-80.5 70.5q-32 43 -49.5 99
t-23.5 116q-7 60 -4 119.5t10 110.5l34 195q10 57 28.5 120t45.5 124q28 60 64.5 114.5t84.5 95.5q46 41 104 64.5t128 22.5q68 -1 116.5 -27t81.5 -69q31 -43 48.5 -98.5t23.5 -114.5q6 -60 3 -120t-10 -111zM1121 1709l15 98h-652l-15 -98h652z" />
    <glyph glyph-name="omacron" unicode="&#x14d;" 
d="M120 553l-5 -32q-9 -69 -3.5 -137t25.5 -129q17 -52 44.5 -97.5t65.5 -81.5q46 -44 109.5 -69.5t144.5 -26.5q114 -1 208.5 44.5t165.5 122.5q71 76 116.5 175t61.5 204l4 32q9 68 4 136t-24 130q-18 56 -48 104.5t-70 85.5q-45 40 -107.5 63.5t-139.5 24.5
q-114 2 -207 -43t-163 -119q-73 -77 -119.5 -178t-62.5 -209zM232 521l6 32q14 81 48.5 161t89.5 144q54 64 127.5 103.5t164.5 38.5q79 -2 133 -37t87 -90q41 -65 52 -150t0 -165l-5 -32q-12 -73 -48 -156.5t-90 -147.5q-55 -63 -128 -102.5t-164 -37.5q-85 1 -142.5 39.5
t-88.5 97.5q-34 66 -43.5 146t1.5 156zM1051 1366l15 98h-652l-15 -98h652z" />
    <glyph glyph-name="Obreve" unicode="&#x14e;" 
d="M1078 632l31 192q10 68 10 142.5t-12 146.5q-14 72 -41.5 137.5t-71.5 115.5q-45 49 -108.5 79t-148.5 31q-87 1 -159.5 -26t-132.5 -75q-60 -49 -108 -113.5t-83 -136.5q-35 -73 -59 -150.5t-37 -150.5l-31 -192q-10 -68 -10 -142.5t14 -146.5q13 -72 41 -137t73 -115
t108 -80t148 -31q86 -1 159 26.5t133 75.5q59 48 106.5 112.5t83.5 137.5q35 72 58.5 149.5t36.5 150.5zM994 827l-33 -195q-11 -59 -29 -122t-45 -123q-27 -61 -63.5 -115.5t-83.5 -95.5q-47 -42 -105 -65.5t-128 -22.5q-69 1 -117.5 27.5t-80.5 70.5q-32 43 -49.5 99
t-23.5 116q-7 60 -4 119.5t10 110.5l34 195q10 57 28.5 120t45.5 124q28 60 64.5 114.5t84.5 95.5q46 41 104 64.5t128 22.5q68 -1 116.5 -27t81.5 -69q31 -43 48.5 -98.5t23.5 -114.5q6 -60 3 -120t-10 -111zM1100 1859l-100 -1q-9 -36 -25.5 -66t-40.5 -52
q-27 -24 -62 -37.5t-78 -13.5q-40 0 -68.5 11t-48.5 32q-20 22 -29.5 54.5t-7.5 72.5l-100 1q-1 -59 16 -106t51 -80q33 -34 80 -53t106 -19q61 -1 112.5 17t91.5 52q40 33 66.5 81t36.5 107z" />
    <glyph glyph-name="obreve" unicode="&#x14f;" 
d="M120 553l-5 -32q-9 -69 -3.5 -137t25.5 -129q17 -52 44.5 -97.5t65.5 -81.5q46 -44 109.5 -69.5t144.5 -26.5q114 -1 208.5 44.5t165.5 122.5q71 76 116.5 175t61.5 204l4 32q9 68 4 136t-24 130q-18 56 -48 104.5t-70 85.5q-45 40 -107.5 63.5t-139.5 24.5
q-114 2 -207 -43t-163 -119q-73 -77 -119.5 -178t-62.5 -209zM232 521l6 32q14 81 48.5 161t89.5 144q54 64 127.5 103.5t164.5 38.5q79 -2 133 -37t87 -90q41 -65 52 -150t0 -165l-5 -32q-12 -73 -48 -156.5t-90 -147.5q-55 -63 -128 -102.5t-164 -37.5q-85 1 -142.5 39.5
t-88.5 97.5q-34 66 -43.5 146t1.5 156zM1030 1516l-100 -1q-9 -36 -25.5 -66t-40.5 -52q-27 -24 -62 -37.5t-78 -13.5q-40 0 -68.5 11t-48.5 32q-20 22 -29.5 54.5t-7.5 72.5l-100 1q-1 -59 16 -106t51 -80q33 -34 80 -53t106 -19q61 -1 112.5 17t91.5 52q40 33 66.5 81
t36.5 107z" />
    <glyph glyph-name="Ohungarumlaut" unicode="&#x150;" 
d="M1078 632l31 192q10 68 10 142.5t-12 146.5q-14 72 -41.5 137.5t-71.5 115.5q-45 49 -108.5 79t-148.5 31q-87 1 -159.5 -26t-132.5 -75q-60 -49 -108 -113.5t-83 -136.5q-35 -73 -59 -150.5t-37 -150.5l-31 -192q-10 -68 -10 -142.5t14 -146.5q13 -72 41 -137t73 -115
t108 -80t148 -31q86 -1 159 26.5t133 75.5q59 48 106.5 112.5t83.5 137.5q35 72 58.5 149.5t36.5 150.5zM994 827l-33 -195q-11 -59 -29 -122t-45 -123q-27 -61 -63.5 -115.5t-83.5 -95.5q-47 -42 -105 -65.5t-128 -22.5q-69 1 -117.5 27.5t-80.5 70.5q-32 43 -49.5 99
t-23.5 116q-7 60 -4 119.5t10 110.5l34 195q10 57 28.5 120t45.5 124q28 60 64.5 114.5t84.5 95.5q46 41 104 64.5t128 22.5q68 -1 116.5 -27t81.5 -69q31 -43 48.5 -98.5t23.5 -114.5q6 -60 3 -120t-10 -111zM1111 1881l-309 -285h129l342 285h-162zM816 1881l-257 -285
h116l290 285h-149z" />
    <glyph glyph-name="ohungarumlaut" unicode="&#x151;" 
d="M120 553l-5 -32q-9 -69 -3.5 -137t25.5 -129q17 -52 44.5 -97.5t65.5 -81.5q46 -44 109.5 -69.5t144.5 -26.5q114 -1 208.5 44.5t165.5 122.5q71 76 116.5 175t61.5 204l4 32q9 68 4 136t-24 130q-18 56 -48 104.5t-70 85.5q-45 40 -107.5 63.5t-139.5 24.5
q-114 2 -207 -43t-163 -119q-73 -77 -119.5 -178t-62.5 -209zM232 521l6 32q14 81 48.5 161t89.5 144q54 64 127.5 103.5t164.5 38.5q79 -2 133 -37t87 -90q41 -65 52 -150t0 -165l-5 -32q-12 -73 -48 -156.5t-90 -147.5q-55 -63 -128 -102.5t-164 -37.5q-85 1 -142.5 39.5
t-88.5 97.5q-34 66 -43.5 146t1.5 156zM1041 1539l-309 -285h129l342 285h-162zM746 1539l-257 -285h116l290 285h-149z" />
    <glyph glyph-name="OE" unicode="&#x152;" 
d="M1053 0l18 103h-433l104 596h370l17 103h-369l96 551h427l17 103h-448q-60 4 -118 10.5t-118 5.5q-83 -1 -150.5 -28t-119.5 -73q-43 -38 -77.5 -86t-59.5 -102q-31 -62 -51 -130t-31 -136l-62 -378q-8 -51 -9.5 -106t4.5 -108q6 -56 22 -108t44 -94q37 -60 98.5 -97.5
t154.5 -39.5q60 -2 118.5 4.5t118.5 9.5h437zM382 88q-58 3 -97.5 25.5t-63.5 57.5q-24 36 -35.5 81.5t-14.5 94.5t1 99t10 93l62 380q13 78 38 157.5t68 144.5q43 64 107 105.5t155 43.5q34 1 67.5 -0.5t65.5 -4.5l-227 -1275q-34 -2 -68 -2.5t-68 0.5z" />
    <glyph glyph-name="oe" unicode="&#x153;" 
d="M429 1103q-66 0 -120 -21.5t-96 -59.5q-34 -31 -62.5 -71t-48.5 -84q-28 -57 -45.5 -118t-26.5 -119l-28 -179q-7 -49 -7.5 -102t7.5 -105q7 -52 25 -99.5t49 -83.5q31 -37 76 -58.5t106 -22.5q64 -1 116.5 22t95.5 61q27 25 49.5 55.5t39.5 63.5q9 -38 26 -72t41 -60
q32 -32 74.5 -50t95.5 -19q39 -1 75.5 7t70.5 23q32 13 61 32.5t55 43.5l-33 85q-24 -17 -49.5 -33.5t-53.5 -28.5q-28 -13 -58.5 -20t-62.5 -6q-42 1 -69.5 19.5t-44.5 47.5q-18 30 -26 67t-9 76q-2 39 1 75.5t7 65.5l16 92h486l28 162q6 44 6.5 91.5t-7.5 93.5
q-7 46 -24 87t-45 73q-28 31 -69.5 49.5t-96.5 18.5q-54 1 -98.5 -18.5t-81.5 -50.5q-32 -28 -58.5 -63.5t-47.5 -71.5q-9 39 -26 74t-42 62q-32 32 -75 50t-96 19zM120 450l27 181q6 35 16 76t26 83q14 41 35.5 79.5t49.5 67.5q29 29 65 46.5t81 16.5q43 0 72.5 -19.5
t47.5 -50.5t26 -70t10 -80q1 -41 -2 -80t-7 -69l-28 -181q-6 -35 -16 -76t-24 -82q-16 -42 -37 -80t-49 -67q-28 -30 -64.5 -47.5t-81.5 -16.5q-44 1 -73.5 20t-46.5 50q-18 31 -26 70.5t-10 79.5q-1 41 2 80t7 69zM686 627l2 13q7 31 17 70.5t25 79.5t34.5 78t46.5 68
q26 29 59.5 46.5t75.5 17.5q35 -1 59 -14t40 -35q14 -19 22 -44t12 -51q6 -36 4.5 -74.5t-5.5 -68.5l-14 -83z" />
    <glyph glyph-name="Racute" unicode="&#x154;" 
d="M666 609l204 -609h122l2 14l-217 621q67 27 126 64t105 87q46 49 76.5 110t39.5 136q12 93 -13 170t-78 133q-52 55 -128.5 86.5t-167.5 34.5h-391l-252 -1456h116l105 609h351zM333 712l111 641h291q68 -3 123 -27.5t92 -65.5q36 -43 51.5 -100.5t4.5 -126.5t-45 -127.5
t-83 -100.5q-51 -43 -114 -68t-131 -26zM895 1823l-219 -264l105 -1l264 265h-150z" />
    <glyph glyph-name="racute" unicode="&#x155;" 
d="M961 1103q-70 0 -134.5 -15.5t-121.5 -45.5q-57 -31 -106.5 -75t-90.5 -99l10 50l26 164h-112l-187 -1082h121l119 693q29 73 78 129.5t111 93.5q57 34 124.5 51.5t137.5 17.5q40 0 80 -5.5t80 -13.5l29 115q-40 11 -81.5 16.5t-82.5 5.5zM835 1508l-219 -264l105 -1
l264 265h-150z" />
    <glyph glyph-name="Rcommaaccent" unicode="&#x156;" 
d="M666 609l204 -609h122l2 14l-217 621q67 27 126 64t105 87q46 49 76.5 110t39.5 136q12 93 -13 170t-78 133q-52 55 -128.5 86.5t-167.5 34.5h-391l-252 -1456h116l105 609h351zM333 712l111 641h291q68 -3 123 -27.5t92 -65.5q36 -43 51.5 -100.5t4.5 -126.5t-45 -127.5
t-83 -100.5q-51 -43 -114 -68t-131 -26zM489 -140l11 73h-114l-12 -76q-12 -66 -40 -123t-68 -111l67 -54q64 58 104 132t52 159z" />
    <glyph glyph-name="rcommaaccent" unicode="&#x157;" 
d="M961 1103q-70 0 -134.5 -15.5t-121.5 -45.5q-57 -31 -106.5 -75t-90.5 -99l10 50l26 164h-112l-187 -1082h121l119 693q29 73 78 129.5t111 93.5q57 34 124.5 51.5t137.5 17.5q40 0 80 -5.5t80 -13.5l29 115q-40 11 -81.5 16.5t-82.5 5.5zM343 -135l11 73h-114l-12 -76
q-12 -66 -40 -123t-68 -111l67 -54q64 58 104 132t52 159z" />
    <glyph glyph-name="Rcaron" unicode="&#x158;" 
d="M666 609l204 -609h122l2 14l-217 621q67 27 126 64t105 87q46 49 76.5 110t39.5 136q12 93 -13 170t-78 133q-52 55 -128.5 86.5t-167.5 34.5h-391l-252 -1456h116l105 609h351zM333 712l111 641h291q68 -3 123 -27.5t92 -65.5q36 -43 51.5 -100.5t4.5 -126.5t-45 -127.5
t-83 -100.5q-51 -43 -114 -68t-131 -26zM750 1663l-134 184h-102l-1 -17l192 -248h85l266 248l1 17l-107 -1z" />
    <glyph glyph-name="rcaron" unicode="&#x159;" 
d="M961 1103q-70 0 -134.5 -15.5t-121.5 -45.5q-57 -31 -106.5 -75t-90.5 -99l10 50l26 164h-112l-187 -1082h121l119 693q29 73 78 129.5t111 93.5q57 34 124.5 51.5t137.5 17.5q40 0 80 -5.5t80 -13.5l29 115q-40 11 -81.5 16.5t-82.5 5.5zM700 1347l-134 184h-102l-1 -17
l192 -248h85l266 248l1 17l-107 -1z" />
    <glyph glyph-name="Sacute" unicode="&#x15a;" 
d="M922 363q-10 -69 -46.5 -121.5t-88.5 -86.5q-53 -35 -116.5 -52.5t-128.5 -16.5q-73 0 -132.5 23t-101.5 64q-42 42 -65.5 101t-23.5 132h-117q-5 -97 27.5 -175.5t92.5 -133.5q59 -56 140.5 -86t176.5 -31q87 -1 173.5 24t156.5 74q70 48 117.5 120.5t57.5 166.5
q9 86 -17.5 150t-79.5 120q-47 50 -126 91t-155 68q-56 18 -115.5 45.5t-102.5 65.5q-41 35 -62.5 82t-11.5 111q9 66 45 117t87 86q51 34 113 52t123 17q71 -1 124 -26t89 -68q35 -43 53 -100.5t18 -124.5h118q5 91 -22.5 168.5t-79.5 134.5q-53 56 -128.5 88.5
t-167.5 33.5q-84 1 -168.5 -24t-152.5 -75q-70 -49 -116.5 -120t-55.5 -161q-9 -88 21.5 -153.5t85.5 -114.5q54 -49 124.5 -84t141.5 -60q59 -22 119.5 -49.5t105.5 -68.5q39 -36 60 -86.5t11 -116.5zM922 1850l-219 -264l105 -1l264 265h-150z" />
    <glyph glyph-name="sacute" unicode="&#x15b;" 
d="M869 280q-10 -55 -44.5 -93t-82.5 -61t-102 -33.5t-102 -9.5q-54 0 -105 12t-91 38t-64 68.5t-25 102.5l-117 1q-2 -84 32.5 -145t91.5 -100q56 -41 128 -60t148 -20q71 -1 148 16t141 55q65 36 109 94.5t52 140.5q8 63 -16.5 113.5t-71.5 86.5q-41 31 -88 51.5t-95 36.5
q-37 13 -78 24t-80 23q-35 10 -71 24t-64 35t-43.5 52t-8.5 76q9 53 41.5 89.5t77.5 59.5q44 22 95 32t98 10q50 -1 98.5 -14t85.5 -40q37 -28 58 -69t19 -97l117 -1q2 82 -28.5 142.5t-82.5 100.5t-121 60t-143 21q-65 1 -133 -14.5t-129 -47.5q-66 -34 -114.5 -94.5
t-54.5 -141.5q-6 -63 17 -109t62 -79q36 -30 82 -51.5t94 -35.5q36 -12 76 -22.5t78 -22.5q35 -10 74 -25t71 -38q35 -26 52.5 -60t8.5 -81zM878 1508l-219 -264l105 -1l264 265h-150z" />
    <glyph glyph-name="Scircumflex" unicode="&#x15c;" 
d="M922 363q-10 -69 -46.5 -121.5t-88.5 -86.5q-53 -35 -116.5 -52.5t-128.5 -16.5q-73 0 -132.5 23t-101.5 64q-42 42 -65.5 101t-23.5 132h-117q-5 -97 27.5 -175.5t92.5 -133.5q59 -56 140.5 -86t176.5 -31q87 -1 173.5 24t156.5 74q70 48 117.5 120.5t57.5 166.5
q9 86 -17.5 150t-79.5 120q-47 50 -126 91t-155 68q-56 18 -115.5 45.5t-102.5 65.5q-41 35 -62.5 82t-11.5 111q9 66 45 117t87 86q51 34 113 52t123 17q71 -1 124 -26t89 -68q35 -43 53 -100.5t18 -124.5h118q5 91 -22.5 168.5t-79.5 134.5q-53 56 -128.5 88.5
t-167.5 33.5q-84 1 -168.5 -24t-152.5 -75q-70 -49 -116.5 -120t-55.5 -161q-9 -88 21.5 -153.5t85.5 -114.5q54 -49 124.5 -84t141.5 -60q59 -22 119.5 -49.5t105.5 -68.5q39 -36 60 -86.5t11 -116.5zM1046 1630l-201 241h-73l-266 -238l-2 -20h109l193 172l132 -173h106z
" />
    <glyph glyph-name="scircumflex" unicode="&#x15d;" 
d="M869 280q-10 -55 -44.5 -93t-82.5 -61t-102 -33.5t-102 -9.5q-54 0 -105 12t-91 38t-64 68.5t-25 102.5l-117 1q-2 -84 32.5 -145t91.5 -100q56 -41 128 -60t148 -20q71 -1 148 16t141 55q65 36 109 94.5t52 140.5q8 63 -16.5 113.5t-71.5 86.5q-41 31 -88 51.5t-95 36.5
q-37 13 -78 24t-80 23q-35 10 -71 24t-64 35t-43.5 52t-8.5 76q9 53 41.5 89.5t77.5 59.5q44 22 95 32t98 10q50 -1 98.5 -14t85.5 -40q37 -28 58 -69t19 -97l117 -1q2 82 -28.5 142.5t-82.5 100.5t-121 60t-143 21q-65 1 -133 -14.5t-129 -47.5q-66 -34 -114.5 -94.5
t-54.5 -141.5q-6 -63 17 -109t62 -79q36 -30 82 -51.5t94 -35.5q36 -12 76 -22.5t78 -22.5q35 -10 74 -25t71 -38q35 -26 52.5 -60t8.5 -81zM1002 1288l-201 241h-73l-266 -238l-2 -20h109l193 172l132 -173h106z" />
    <glyph glyph-name="Scedilla" unicode="&#x15e;" 
d="M922 363q-10 -69 -46.5 -121.5t-88.5 -86.5q-53 -35 -116.5 -52.5t-128.5 -16.5q-73 0 -132.5 23t-101.5 64q-42 42 -65.5 101t-23.5 132h-117q-5 -97 27.5 -175.5t92.5 -133.5q59 -56 140.5 -86t176.5 -31q87 -1 173.5 24t156.5 74q70 48 117.5 120.5t57.5 166.5
q9 86 -17.5 150t-79.5 120q-47 50 -126 91t-155 68q-56 18 -115.5 45.5t-102.5 65.5q-41 35 -62.5 82t-11.5 111q9 66 45 117t87 86q51 34 113 52t123 17q71 -1 124 -26t89 -68q35 -43 53 -100.5t18 -124.5h118q5 91 -22.5 168.5t-79.5 134.5q-53 56 -128.5 88.5
t-167.5 33.5q-84 1 -168.5 -24t-152.5 -75q-70 -49 -116.5 -120t-55.5 -161q-9 -88 21.5 -153.5t85.5 -114.5q54 -49 124.5 -84t141.5 -60q59 -22 119.5 -49.5t105.5 -68.5q39 -36 60 -86.5t11 -116.5zM572 -9h-92l-45 -126q24 -4 53 -8.5t53 -14.5q23 -11 36.5 -31t7.5 -53
q-7 -37 -30.5 -60.5t-54.5 -36.5q-32 -14 -67 -20t-66 -7l-3 -79q33 2 69 6.5t70 14.5q34 9 66.5 25t57.5 39q23 22 38 51.5t18 67.5t-7 67.5t-30 50.5q-18 18 -43 30t-55 18z" />
    <glyph glyph-name="scedilla" unicode="&#x15f;" 
d="M869 280q-10 -55 -44.5 -93t-82.5 -61t-102 -33.5t-102 -9.5q-54 0 -105 12t-91 38t-64 68.5t-25 102.5l-117 1q-2 -84 32.5 -145t91.5 -100q56 -41 128 -60t148 -20q71 -1 148 16t141 55q65 36 109 94.5t52 140.5q8 63 -16.5 113.5t-71.5 86.5q-41 31 -88 51.5t-95 36.5
q-37 13 -78 24t-80 23q-35 10 -71 24t-64 35t-43.5 52t-8.5 76q9 53 41.5 89.5t77.5 59.5q44 22 95 32t98 10q50 -1 98.5 -14t85.5 -40q37 -28 58 -69t19 -97l117 -1q2 82 -28.5 142.5t-82.5 100.5t-121 60t-143 21q-65 1 -133 -14.5t-129 -47.5q-66 -34 -114.5 -94.5
t-54.5 -141.5q-6 -63 17 -109t62 -79q36 -30 82 -51.5t94 -35.5q36 -12 76 -22.5t78 -22.5q35 -10 74 -25t71 -38q35 -26 52.5 -60t8.5 -81zM560 -6h-92l-45 -126q24 -4 53 -8.5t53 -14.5q23 -11 36.5 -31t7.5 -53q-7 -37 -30.5 -60.5t-54.5 -36.5q-32 -14 -67 -20t-66 -7
l-3 -79q33 2 69 6.5t70 14.5q34 9 66.5 25t57.5 39q23 22 38 51.5t18 67.5t-7 67.5t-30 50.5q-18 18 -43 30t-55 18z" />
    <glyph glyph-name="Scaron" unicode="&#x160;" 
d="M922 363q-10 -69 -46.5 -121.5t-88.5 -86.5q-53 -35 -116.5 -52.5t-128.5 -16.5q-73 0 -132.5 23t-101.5 64q-42 42 -65.5 101t-23.5 132h-117q-5 -97 27.5 -175.5t92.5 -133.5q59 -56 140.5 -86t176.5 -31q87 -1 173.5 24t156.5 74q70 48 117.5 120.5t57.5 166.5
q9 86 -17.5 150t-79.5 120q-47 50 -126 91t-155 68q-56 18 -115.5 45.5t-102.5 65.5q-41 35 -62.5 82t-11.5 111q9 66 45 117t87 86q51 34 113 52t123 17q71 -1 124 -26t89 -68q35 -43 53 -100.5t18 -124.5h118q5 91 -22.5 168.5t-79.5 134.5q-53 56 -128.5 88.5
t-167.5 33.5q-84 1 -168.5 -24t-152.5 -75q-70 -49 -116.5 -120t-55.5 -161q-9 -88 21.5 -153.5t85.5 -114.5q54 -49 124.5 -84t141.5 -60q59 -22 119.5 -49.5t105.5 -68.5q39 -36 60 -86.5t11 -116.5zM777 1690l-134 184h-102l-1 -17l192 -248h85l266 248l1 17l-107 -1z
" />
    <glyph glyph-name="scaron" unicode="&#x161;" 
d="M869 280q-10 -55 -44.5 -93t-82.5 -61t-102 -33.5t-102 -9.5q-54 0 -105 12t-91 38t-64 68.5t-25 102.5l-117 1q-2 -84 32.5 -145t91.5 -100q56 -41 128 -60t148 -20q71 -1 148 16t141 55q65 36 109 94.5t52 140.5q8 63 -16.5 113.5t-71.5 86.5q-41 31 -88 51.5t-95 36.5
q-37 13 -78 24t-80 23q-35 10 -71 24t-64 35t-43.5 52t-8.5 76q9 53 41.5 89.5t77.5 59.5q44 22 95 32t98 10q50 -1 98.5 -14t85.5 -40q37 -28 58 -69t19 -97l117 -1q2 82 -28.5 142.5t-82.5 100.5t-121 60t-143 21q-65 1 -133 -14.5t-129 -47.5q-66 -34 -114.5 -94.5
t-54.5 -141.5q-6 -63 17 -109t62 -79q36 -30 82 -51.5t94 -35.5q36 -12 76 -22.5t78 -22.5q35 -10 74 -25t71 -38q35 -26 52.5 -60t8.5 -81zM732 1347l-134 184h-102l-1 -17l192 -248h85l266 248l1 17l-107 -1z" />
    <glyph glyph-name="uni0162" unicode="&#x162;" 
d="M1237 1350l18 106h-1016l-18 -106h451l-234 -1350h115l233 1350h451zM543 0h-92l-45 -126q24 -4 53 -8.5t53 -14.5q23 -11 36.5 -31t7.5 -53q-7 -37 -30.5 -60.5t-54.5 -36.5q-32 -14 -67 -20t-66 -7l-3 -79q33 2 69 6.5t70 14.5q34 9 66.5 25t57.5 39q23 22 38 51.5
t18 67.5t-7 67.5t-30 50.5q-18 18 -43 30t-55 18z" />
    <glyph glyph-name="uni0163" unicode="&#x163;" 
d="M707 1359h-119l-49 -277h-292l-16 -99h292l-116 -678q-8 -73 7 -132.5t51 -101.5t91.5 -65.5t129.5 -24.5q56 -2 114 5t110 28l-11 92q-47 -8 -94 -14.5t-95 -4.5q-51 1 -88.5 16t-60.5 43q-24 28 -33 68t-2 91l116 678h389l17 99h-389zM677 0h-92l-45 -126
q24 -4 53 -8.5t53 -14.5q23 -11 36.5 -31t7.5 -53q-7 -37 -30.5 -60.5t-54.5 -36.5q-32 -14 -67 -20t-66 -7l-3 -79q33 2 69 6.5t70 14.5q34 9 66.5 25t57.5 39q23 22 38 51.5t18 67.5t-7 67.5t-30 50.5q-18 18 -43 30t-55 18z" />
    <glyph glyph-name="Tcaron" unicode="&#x164;" 
d="M1237 1350l18 106h-1016l-18 -106h451l-234 -1350h115l233 1350h451zM781 1659l-134 184h-102l-1 -17l192 -248h85l266 248l1 17l-107 -1z" />
    <glyph glyph-name="tcaron" unicode="&#x165;" 
d="M690 1359h-119l-49 -277h-292l-16 -99h292l-116 -678q-8 -73 7 -132.5t51 -101.5t91.5 -65.5t129.5 -24.5q56 -2 114 5t110 28l-11 92q-47 -8 -94 -14.5t-95 -4.5q-51 1 -88.5 16t-60.5 43q-24 28 -33 68t-2 91l116 678h389l17 99h-389zM1178 1513l20 124h-115l-23 -127
q-15 -79 -50 -146t-85 -129l65 -54q38 34 70 73t56 83q22 40 37.5 84.5t24.5 91.5z" />
    <glyph glyph-name="Tbar" unicode="&#x166;" 
d="M960 835l18 103h-264l72 412h451l18 106h-1016l-18 -106h451l-72 -412h-251l-17 -103h250l-144 -835h115l144 835h263z" />
    <glyph glyph-name="tbar" unicode="&#x167;" 
d="M832 618l17 103h-252l45 262h389l17 99h-389l48 277h-119l-49 -277h-292l-16 -99h292l-45 -262h-224l-17 -103h224l-52 -304q-12 -76 4 -138.5t52 -104.5t91.5 -65.5t129.5 -24.5q29 -1 59 0t60 6q27 3 53.5 10t51.5 17l-11 92q-47 -8 -94 -14.5t-95 -4.5q-51 1 -88.5 16
t-60.5 43q-24 28 -33.5 68t-1.5 91l53 313h253z" />
    <glyph glyph-name="Utilde" unicode="&#x168;" 
d="M1188 1456h-113l-172 -986q-14 -73 -47.5 -142.5t-84.5 -123.5t-118.5 -86.5t-147.5 -31.5q-78 1 -131.5 35.5t-85.5 89.5q-31 54 -41 122t-1 136l168 987h-112l-170 -987q-13 -91 5.5 -178.5t66.5 -155.5q46 -69 120.5 -111.5t174.5 -43.5q104 -1 192.5 39.5
t155.5 108.5q68 67 112.5 156.5t60.5 185.5zM1141 1819l-76 15q-7 -22 -18 -43.5t-29 -42.5q-16 -17 -34.5 -27t-40.5 -10q-38 -1 -68.5 18t-61.5 41q-30 20 -61.5 37t-72.5 17q-43 0 -78 -17t-61 -46t-42.5 -66t-23.5 -76l78 -11q7 22 18 43t27 38q15 16 35.5 26t46.5 10
q36 1 67 -17t61 -39q28 -21 59 -38t70 -17q44 0 79 17.5t61 46.5q25 28 41.5 65t23.5 76z" />
    <glyph glyph-name="utilde" unicode="&#x169;" 
d="M453 -20q116 -1 210 50t162 141l-31 -171h110l187 1082h-119l-132 -763q-23 -54 -60.5 -97.5t-84.5 -73.5q-49 -31 -106 -47t-117 -15q-71 1 -113 30.5t-62 76.5q-21 47 -23.5 105.5t6.5 116.5l113 667h-118l-113 -665q-10 -81 -1.5 -159t43.5 -140q33 -61 94.5 -99
t154.5 -39zM1054 1494l-76 15q-7 -22 -18 -43.5t-29 -42.5q-16 -17 -34.5 -27t-40.5 -10q-38 -1 -68.5 18t-61.5 41q-30 20 -61.5 37t-72.5 17q-43 0 -78 -17t-61 -46t-42.5 -66t-23.5 -76l78 -11q7 22 18 43t27 38q15 16 35.5 26t46.5 10q36 1 67 -17t61 -39q28 -21 59 -38
t70 -17q44 0 79 17.5t61 46.5q25 28 41.5 65t23.5 76z" />
    <glyph glyph-name="Umacron" unicode="&#x16a;" 
d="M1188 1456h-113l-172 -986q-14 -73 -47.5 -142.5t-84.5 -123.5t-118.5 -86.5t-147.5 -31.5q-78 1 -131.5 35.5t-85.5 89.5q-31 54 -41 122t-1 136l168 987h-112l-170 -987q-13 -91 5.5 -178.5t66.5 -155.5q46 -69 120.5 -111.5t174.5 -43.5q104 -1 192.5 39.5
t155.5 108.5q68 67 112.5 156.5t60.5 185.5zM1126 1682l15 98h-652l-15 -98h652z" />
    <glyph glyph-name="umacron" unicode="&#x16b;" 
d="M453 -20q116 -1 210 50t162 141l-31 -171h110l187 1082h-119l-132 -763q-23 -54 -60.5 -97.5t-84.5 -73.5q-49 -31 -106 -47t-117 -15q-71 1 -113 30.5t-62 76.5q-21 47 -23.5 105.5t6.5 116.5l113 667h-118l-113 -665q-10 -81 -1.5 -159t43.5 -140q33 -61 94.5 -99
t154.5 -39zM1033 1358l15 98h-652l-15 -98h652z" />
    <glyph glyph-name="Ubreve" unicode="&#x16c;" 
d="M1188 1456h-113l-172 -986q-14 -73 -47.5 -142.5t-84.5 -123.5t-118.5 -86.5t-147.5 -31.5q-78 1 -131.5 35.5t-85.5 89.5q-31 54 -41 122t-1 136l168 987h-112l-170 -987q-13 -91 5.5 -178.5t66.5 -155.5q46 -69 120.5 -111.5t174.5 -43.5q104 -1 192.5 39.5
t155.5 108.5q68 67 112.5 156.5t60.5 185.5zM1105 1832l-100 -1q-9 -36 -25.5 -66t-40.5 -52q-27 -24 -62 -37.5t-78 -13.5q-40 0 -68.5 11t-48.5 32q-20 22 -29.5 54.5t-7.5 72.5l-100 1q-1 -59 16 -106t51 -80q33 -34 80 -53t106 -19q61 -1 112.5 17t91.5 52
q40 33 66.5 81t36.5 107z" />
    <glyph glyph-name="ubreve" unicode="&#x16d;" 
d="M453 -20q116 -1 210 50t162 141l-31 -171h110l187 1082h-119l-132 -763q-23 -54 -60.5 -97.5t-84.5 -73.5q-49 -31 -106 -47t-117 -15q-71 1 -113 30.5t-62 76.5q-21 47 -23.5 105.5t6.5 116.5l113 667h-118l-113 -665q-10 -81 -1.5 -159t43.5 -140q33 -61 94.5 -99
t154.5 -39zM1012 1508l-100 -1q-9 -36 -25.5 -66t-40.5 -52q-27 -24 -62 -37.5t-78 -13.5q-40 0 -68.5 11t-48.5 32q-20 22 -29.5 54.5t-7.5 72.5l-100 1q-1 -59 16 -106t51 -80q33 -34 80 -53t106 -19q61 -1 112.5 17t91.5 52q40 33 66.5 81t36.5 107z" />
    <glyph glyph-name="Uring" unicode="&#x16e;" 
d="M1188 1456h-113l-172 -986q-14 -73 -47.5 -142.5t-84.5 -123.5t-118.5 -86.5t-147.5 -31.5q-78 1 -131.5 35.5t-85.5 89.5q-31 54 -41 122t-1 136l168 987h-112l-170 -987q-13 -91 5.5 -178.5t66.5 -155.5q46 -69 120.5 -111.5t174.5 -43.5q104 -1 192.5 39.5
t155.5 108.5q68 67 112.5 156.5t60.5 185.5zM630 1707q-3 -36 7.5 -68t32.5 -57q21 -24 51.5 -38.5t67.5 -14.5q39 0 73.5 15t61.5 40t44 59t20 72q3 36 -7 69t-31 58q-21 26 -52 41t-68 15q-39 0 -73.5 -15.5t-61.5 -41.5t-44.5 -61t-20.5 -73zM706 1709q3 22 14 43t28 38
q16 16 37 25.5t45 9.5q22 0 39 -9.5t28 -25.5t15 -36t1 -40q-4 -22 -15 -42.5t-27 -35.5q-16 -16 -37 -25.5t-44 -9.5q-22 0 -38.5 9t-27.5 24t-16 34.5t-2 40.5z" />
    <glyph glyph-name="uring" unicode="&#x16f;" 
d="M453 -20q116 -1 210 50t162 141l-31 -171h110l187 1082h-119l-132 -763q-23 -54 -60.5 -97.5t-84.5 -73.5q-49 -31 -106 -47t-117 -15q-71 1 -113 30.5t-62 76.5q-21 47 -23.5 105.5t6.5 116.5l113 667h-118l-113 -665q-10 -81 -1.5 -159t43.5 -140q33 -61 94.5 -99
t154.5 -39zM537 1382q-3 -36 7.5 -68t32.5 -57q21 -24 51.5 -38.5t67.5 -14.5q39 0 73.5 15t61.5 40t44 59t20 72q3 36 -7 69t-31 58q-21 26 -52 41t-68 15q-39 0 -73.5 -15.5t-61.5 -41.5t-44.5 -61t-20.5 -73zM613 1384q3 22 14 43t28 38q16 16 37 25.5t45 9.5
q22 0 39 -9.5t28 -25.5t15 -36t1 -40q-4 -22 -15 -42.5t-27 -35.5q-16 -16 -37 -25.5t-44 -9.5q-22 0 -38.5 9t-27.5 24t-16 34.5t-2 40.5z" />
    <glyph glyph-name="Uhungarumlaut" unicode="&#x170;" 
d="M1188 1456h-113l-172 -986q-14 -73 -47.5 -142.5t-84.5 -123.5t-118.5 -86.5t-147.5 -31.5q-78 1 -131.5 35.5t-85.5 89.5q-31 54 -41 122t-1 136l168 987h-112l-170 -987q-13 -91 5.5 -178.5t66.5 -155.5q46 -69 120.5 -111.5t174.5 -43.5q104 -1 192.5 39.5
t155.5 108.5q68 67 112.5 156.5t60.5 185.5zM1116 1854l-309 -285h129l342 285h-162zM821 1854l-257 -285h116l290 285h-149z" />
    <glyph glyph-name="uhungarumlaut" unicode="&#x171;" 
d="M453 -20q116 -1 210 50t162 141l-31 -171h110l187 1082h-119l-132 -763q-23 -54 -60.5 -97.5t-84.5 -73.5q-49 -31 -106 -47t-117 -15q-71 1 -113 30.5t-62 76.5q-21 47 -23.5 105.5t6.5 116.5l113 667h-118l-113 -665q-10 -81 -1.5 -159t43.5 -140q33 -61 94.5 -99
t154.5 -39zM1022 1530l-309 -285h129l342 285h-162zM727 1530l-257 -285h116l290 285h-149z" />
    <glyph glyph-name="Uogonek" unicode="&#x172;" 
d="M1188 1456h-113l-172 -986q-14 -73 -47.5 -142.5t-84.5 -123.5t-118.5 -86.5t-147.5 -31.5q-78 1 -131.5 35.5t-85.5 89.5q-31 54 -41 122t-1 136l168 987h-112l-170 -987q-12 -89 5 -175t62 -154t115.5 -111t167.5 -48q7 0 15 0.5t15 1.5q-23 -19 -43 -40t-35 -45
q-16 -24 -26 -50.5t-13 -55.5q-3 -40 9 -72.5t37 -53.5q19 -19 45.5 -29t59.5 -10q40 -1 77.5 10.5t72.5 31.5l-16 86q-26 -13 -53 -23t-57 -8q-37 1 -54.5 22t-13.5 58q5 36 23 66t43 56q26 26 55.5 48.5t58.5 41.5q54 22 101.5 56.5t85.5 79.5q57 64 96.5 146.5
t54.5 171.5z" />
    <glyph glyph-name="uogonek" unicode="&#x173;" 
d="M898 0h6l187 1082h-119l-132 -763q-24 -56 -63.5 -100.5t-89.5 -74.5q-48 -29 -102.5 -44t-112.5 -14q-71 1 -113 30.5t-62 76.5q-21 47 -23.5 105.5t6.5 116.5l113 667h-118l-113 -665q-10 -81 -1.5 -159t43.5 -140q33 -61 94.5 -99t154.5 -39q70 0 132 18t114 53
q35 24 67 54t59 66l-29 -156q-35 -23 -72 -50t-67 -59q-31 -33 -52 -71t-24 -83q-3 -37 7 -68t31 -52q19 -21 48 -33t65 -12q40 -1 77.5 10.5t71.5 31.5l-15 86q-26 -13 -53.5 -23t-56.5 -8q-37 1 -55 22t-13 58q5 41 27.5 75.5t53.5 63.5q31 28 66.5 51.5t67.5 43.5z" />
    <glyph glyph-name="Wcircumflex" unicode="&#x174;" 
d="M188 0h119l368 1096l35 108l2 -108l24 -1094l116 -2l426 1456h-111l-303 -1053l-39 -130l1 126l-29 1057h-103l-352 -1037l-46 -142l5 137l25 1042h-110zM1039 1609l-201 241h-73l-266 -238l-2 -20h109l193 172l132 -173h106z" />
    <glyph glyph-name="wcircumflex" unicode="&#x175;" 
d="M191 0h96l308 731l62 173v-158l59 -746h95l419 1082h-111l-270 -731l-66 -186l-5 179l-52 738h-83l-301 -722l-72 -186l1 171l-20 737h-106zM995 1279l-201 241h-73l-266 -238l-2 -20h109l193 172l132 -173h106z" />
    <glyph glyph-name="Ycircumflex" unicode="&#x176;" 
d="M590 665l-236 792h-130l295 -901l-95 -556h110l95 541l615 915h-140zM1031 1603l-201 241h-73l-266 -238l-2 -20h109l193 172l132 -173h106z" />
    <glyph glyph-name="ycircumflex" unicode="&#x177;" 
d="M513 225l-227 858h-127l289 -1048l-104 -167q-23 -36 -50.5 -71.5t-60.5 -63.5q-33 -29 -72.5 -46.5t-85.5 -17.5q-21 0 -41.5 3t-40.5 5l-23 -102q26 -5 51.5 -9t51.5 -4q64 0 118.5 22t100.5 59q46 36 83.5 84t68.5 99l758 1256h-139l-530 -902zM1004 1279l-201 241
h-73l-266 -238l-2 -20h109l193 172l132 -173h106z" />
    <glyph glyph-name="Ydieresis" unicode="&#x178;" 
d="M590 665l-236 792h-130l295 -901l-95 -556h110l95 541l615 915h-140zM478 1723q-1 -34 21 -57t56 -23q33 1 58 24.5t27 56.5q1 33 -21.5 57t-56.5 24q-34 -1 -58 -25t-26 -57zM902 1722q-1 -34 21.5 -57t55.5 -23q34 1 58.5 24.5t26.5 56.5q1 34 -21.5 58t-56.5 23
q-33 -1 -57.5 -25t-26.5 -57z" />
    <glyph glyph-name="Zacute" unicode="&#x179;" 
d="M188 106l935 1256l12 94h-854l-16 -105h713l-932 -1252l-13 -99h903l16 106h-764zM911 1823l-219 -264l105 -1l264 265h-150z" />
    <glyph glyph-name="zacute" unicode="&#x17a;" 
d="M225 103l851 886l15 93h-850l-16 -104h688l-847 -884l-15 -94h922l15 103h-763zM883 1499l-219 -264l105 -1l264 265h-150z" />
    <glyph glyph-name="Zdotaccent" unicode="&#x17b;" 
d="M188 106l935 1256l12 94h-854l-16 -105h713l-932 -1252l-13 -99h903l16 106h-764zM694 1704q-2 -36 21.5 -59t58.5 -23q35 1 60.5 24.5t27.5 58.5q3 36 -20.5 60.5t-59.5 23.5t-61 -25.5t-27 -59.5z" />
    <glyph glyph-name="zdotaccent" unicode="&#x17c;" 
d="M225 103l851 886l15 93h-850l-16 -104h688l-847 -884l-15 -94h922l15 103h-763zM666 1380q-2 -36 21.5 -59t58.5 -23q35 1 60.5 24.5t27.5 58.5q3 36 -20.5 60.5t-59.5 23.5t-61 -25.5t-27 -59.5z" />
    <glyph glyph-name="Zcaron" unicode="&#x17d;" 
d="M188 106l935 1256l12 94h-854l-16 -105h713l-932 -1252l-13 -99h903l16 106h-764zM765 1663l-134 184h-102l-1 -17l192 -248h85l266 248l1 17l-107 -1z" />
    <glyph glyph-name="zcaron" unicode="&#x17e;" 
d="M225 103l851 886l15 93h-850l-16 -104h688l-847 -884l-15 -94h922l15 103h-763zM738 1339l-134 184h-102l-1 -17l192 -248h85l266 248l1 17l-107 -1z" />
    <glyph glyph-name="longs" unicode="&#x17f;" 
d="M371 0h119l203 1181q12 62 40 114.5t70 90.5q41 38 95.5 59.5t119.5 21.5q28 0 56 -3.5t55 -10.5l24 97q-36 8 -72.5 13.5t-74.5 5.5q-89 0 -162.5 -28.5t-128.5 -80.5q-55 -51 -91.5 -122.5t-49.5 -156.5z" />
    <glyph glyph-name="florin" unicode="&#x192;" 
d="M984 983l15 99h-282l19 127q10 60 38 107.5t70 80.5q41 33 94 50t113 17q35 0 68.5 -5.5t66.5 -17.5l24 100q-41 11 -82.5 19t-85.5 9q-84 0 -156.5 -25t-127.5 -71q-56 -47 -92 -114t-49 -150l-18 -127h-205l-14 -99h202l-162 -1053q-9 -53 -30.5 -101t-55.5 -85
t-79.5 -58.5t-103.5 -21.5q-33 1 -65.5 7.5t-62.5 19.5l-24 -99q36 -13 72.5 -21t74.5 -8q83 -1 150.5 26.5t117.5 77.5q50 49 81.5 116.5t43.5 146.5l163 1053h282z" />
    <glyph glyph-name="Ohorn" unicode="&#x1a0;" 
d="M1074 632l32 192q13 87 8.5 183t-30.5 184q59 14 104.5 43.5t77.5 72.5q34 45 54.5 103t29.5 126h-105q-11 -47 -25 -89.5t-37 -76.5q-23 -35 -56.5 -59t-81.5 -32q-20 40 -47 74.5t-61 60.5q-40 28 -91 45t-113 17q-86 1 -159 -26t-132 -75q-61 -49 -108.5 -113.5
t-82.5 -136.5q-36 -73 -59.5 -150.5t-36.5 -150.5l-32 -192q-10 -68 -9.5 -142.5t13.5 -146.5q14 -72 41.5 -137t72.5 -115t108.5 -80t147.5 -31q86 -1 159 26.5t133 75.5t107 112.5t83 137.5q35 72 58.5 149.5t36.5 150.5zM990 827l-33 -195q-10 -59 -28.5 -122t-44.5 -123
q-28 -61 -64.5 -115.5t-82.5 -95.5q-47 -42 -105.5 -65.5t-128.5 -22.5q-69 1 -117 27.5t-80 70.5q-33 43 -50 99t-24 116q-6 60 -3.5 119.5t10.5 110.5l33 195q11 57 29 120t46 124q27 60 64 114.5t84 95.5t105 64.5t127 22.5t117.5 -27t80.5 -69t49 -98.5t24 -114.5
q6 -60 3 -120t-11 -111z" />
    <glyph glyph-name="ohorn" unicode="&#x1a1;" 
d="M1091 1043q-23 -29 -58.5 -49t-88.5 -25q-48 60 -119 96t-168 37q-79 1 -148.5 -21t-128.5 -62q-53 -36 -97 -83.5t-78 -104.5q-38 -63 -63 -134t-37 -144l-5 -32q-10 -83 1 -163.5t44 -148.5q21 -49 53 -91.5t76 -72.5q41 -30 94.5 -47t117.5 -18q115 -1 209.5 44.5
t165.5 122.5q70 76 115.5 175t61.5 204l5 32q11 86 0 169.5t-44 155.5q58 12 102.5 38t76.5 66q32 39 52 91.5t30 117.5l-106 -1q-10 -46 -24.5 -84.5t-38.5 -67.5zM925 558l-5 -29q-14 -84 -48.5 -163.5t-88.5 -143.5q-55 -63 -128.5 -102.5t-164.5 -37.5q-75 1 -128 32
t-85 81q-46 64 -58.5 153t-0.5 173l5 32q14 81 49 161t89 144t127.5 103.5t164.5 38.5q53 -1 95 -17t73 -43t52.5 -63t34.5 -77q19 -56 22.5 -119.5t-5.5 -122.5z" />
    <glyph glyph-name="Uhorn" unicode="&#x1af;" 
d="M1188 1456h-113l-172 -986q-14 -73 -47.5 -142.5t-84.5 -123.5t-118.5 -86.5t-147.5 -31.5q-78 1 -131.5 35.5t-85.5 89.5q-31 54 -41 122t-1 136l168 987h-112l-170 -987q-13 -91 5.5 -178.5t66.5 -155.5q46 -69 120.5 -111.5t174.5 -43.5q104 -1 192.5 39.5
t155.5 108.5q68 67 112.5 156.5t60.5 185.5l119 696q75 9 131.5 36.5t96.5 72.5q42 46 68 111t36 146h-105q-11 -52 -26 -97t-40 -80q-24 -35 -59.5 -58.5t-85.5 -33.5z" />
    <glyph glyph-name="uhorn" unicode="&#x1b0;" 
d="M794 0h110l146 847q140 18 216.5 101.5t98.5 232.5h-108q-9 -49 -24.5 -89.5t-39.5 -70.5q-22 -28 -53 -47t-73 -28l24 136h-119l-132 -763q-24 -56 -63 -100t-88 -74q-48 -30 -103.5 -45t-113.5 -14q-71 1 -113 30.5t-62 76.5q-21 47 -23.5 105.5t6.5 116.5l113 667
h-118l-113 -665q-7 -56 -5 -112t15 -106q11 -46 34 -86t58 -70q34 -29 81 -45.5t108 -17.5q70 0 132.5 18.5t114.5 53.5q35 23 66.5 53.5t58.5 65.5z" />
    <glyph glyph-name="uni01F0" unicode="&#x1f0;" 
d="M341 1082l-18 -107h399l-168 -976q-12 -71 -40 -131.5t-71 -104.5q-44 -45 -104 -71t-135 -26q-46 0 -91.5 3.5t-90.5 10.5l-19 -101q52 -8 102.5 -12.5t102.5 -4.5q99 1 178.5 34.5t138.5 92.5q58 58 95.5 137.5t52.5 173.5l185 1082h-517zM830 1376l-134 184h-102
l-1 -17l192 -248h85l266 248l1 17l-107 -1z" />
    <glyph glyph-name="Aringacute" unicode="&#x1fa;" 
d="M845 406l55 -406h114l-204 1456h-107l-711 -1456h123l197 406h533zM362 514l369 760l101 -760h-470zM979 2052l-185 -185h103l231 185h-149zM645 1661q-3 -32 6 -59t26 -46q18 -22 45.5 -34t59.5 -13q32 0 61 11.5t52 32.5q22 21 36 50.5t16 65.5q2 31 -8 58.5t-29 47.5
q-18 18 -43 29t-55 11q-31 1 -59 -10t-50 -30q-24 -21 -40 -50.5t-18 -63.5zM745 1614q-8 10 -12.5 21t-1.5 24q2 11 8 22.5t18 21.5q10 10 22 15.5t25 5.5q11 0 22 -4t20 -12q8 -9 11.5 -19.5t3.5 -21.5q-2 -11 -7 -22.5t-15 -21.5q-10 -11 -21.5 -16t-22.5 -6
q-12 -2 -25 1t-25 12z" />
    <glyph glyph-name="aringacute" unicode="&#x1fb;" 
d="M810 0h123l1 13q-6 54 -6 107t8 107l89 523q10 83 -13.5 148.5t-71.5 111.5q-49 45 -117 68.5t-147 24.5q-75 0 -149.5 -20.5t-136.5 -60.5q-63 -40 -107.5 -99.5t-58.5 -137.5l118 -1q14 55 46.5 95.5t77.5 68.5q43 27 95 40.5t106 12.5q57 0 105 -16.5t81 -48.5
t48.5 -78t7.5 -106l-20 -122l-235 1q-58 -1 -118.5 -8t-118.5 -23t-110 -42.5t-93 -64.5q-42 -39 -69 -90.5t-34 -119.5q-7 -70 15.5 -125.5t65.5 -94.5q42 -39 100.5 -60t124.5 -22t127.5 15t117.5 45q43 22 82 52.5t73 66.5q-7 -40 -9.5 -79.5t2.5 -80.5zM434 87
q-46 1 -86 15t-69 41q-29 26 -43 64.5t-6 87.5q7 47 28 82.5t52 61.5q29 25 64.5 41.5t74.5 27.5q54 17 112 23.5t109 6.5l203 -1l-42 -238q-34 -48 -77.5 -87.5t-92.5 -67.5q-51 -28 -108.5 -43.5t-118.5 -13.5zM925 1731l-185 -185h103l231 185h-149zM591 1340
q-3 -32 6 -59t26 -46q18 -22 45.5 -34t59.5 -13q32 0 61 11.5t52 32.5q22 21 36 50.5t16 65.5q2 31 -8 58.5t-29 47.5q-18 18 -43 29t-55 11q-31 1 -59 -10t-50 -30q-24 -21 -40 -50.5t-18 -63.5zM691 1293q-8 10 -12.5 21t-1.5 24q2 11 8 22.5t18 21.5q10 10 22 15.5
t25 5.5q11 0 22 -4t20 -12q8 -9 11.5 -19.5t3.5 -21.5q-2 -11 -7 -22.5t-15 -21.5q-10 -11 -21.5 -16t-22.5 -6q-12 -2 -25 1t-25 12z" />
    <glyph glyph-name="AEacute" unicode="&#x1fc;" 
d="M1034 0l17 103h-381l96 604h321l16 103h-320l85 543h371l17 103h-522l-787 -1456h128l204 389h327l-62 -389h490zM337 503l412 781l-125 -781h-287zM988 1829l-219 -264l105 -1l264 265h-150z" />
    <glyph glyph-name="aeacute" unicode="&#x1fd;" 
d="M770 -19q40 0 79 7.5t75 23.5q33 13 64.5 33.5t58.5 45.5l-29 91q-25 -20 -52 -38.5t-55 -31.5t-57.5 -20.5t-61.5 -7.5q-69 0 -110.5 29.5t-60.5 75.5q-21 46 -23.5 103t5.5 113l21 132h514l31 178q11 73 2.5 142.5t-36.5 123.5q-29 53 -81.5 86.5t-131.5 34.5
q-83 1 -151 -42.5t-119 -113.5q-21 82 -79 119.5t-141 37.5q-67 0 -123 -20.5t-99 -57.5q-43 -38 -71 -91t-36 -118l113 -4q8 40 25.5 74.5t44.5 60.5q27 25 62 39t78 13q45 0 72.5 -17t41.5 -44t17 -62.5t-4 -73.5l-29 -169h-132q-79 -1 -148.5 -25.5t-122.5 -70.5
t-87 -110.5t-42 -145.5q-6 -58 4.5 -112t39.5 -96q28 -42 73.5 -67t109.5 -26q47 0 89 13.5t79 37.5t68.5 55.5t58.5 68.5q14 -41 38 -72t55 -53q33 -24 74.5 -36.5t88.5 -12.5zM914 1000q52 -1 83.5 -25t47.5 -61q15 -37 18 -81.5t-2 -85.5l-16 -111h-409l8 42
q11 52 31 109t52 105q31 47 77 78t110 30zM239 81q-41 0 -69 17t-43 45q-16 28 -20.5 63t0.5 71q9 54 33.5 100.5t62.5 81.5q37 35 85 55.5t104 21.5h119l-56 -322q-18 -25 -41.5 -49.5t-50.5 -42.5q-28 -19 -59 -30t-65 -11zM874 1509l-219 -264l105 -1l264 265h-150z" />
    <glyph glyph-name="Oslashacute" unicode="&#x1fe;" 
d="M1068 632l31 192q7 47 9.5 98t-1.5 103q-4 51 -14 102t-27 97l209 281h-108l-145 -195q-20 33 -45.5 61.5t-56.5 49.5q-39 25 -87 40t-106 15q-87 1 -159.5 -26t-132.5 -75q-60 -49 -108 -113.5t-83 -136.5q-35 -73 -59 -150.5t-37 -150.5l-31 -192q-9 -55 -10.5 -115
t5.5 -119q7 -60 22.5 -117t42.5 -106l-192 -258h108l135 181q46 -53 110 -85t153 -33q86 -1 159 26.5t133 75.5q59 48 106.5 112.5t83.5 137.5q35 72 58.5 149.5t36.5 150.5zM232 631l34 195q10 57 28.5 120t45.5 124q28 60 64.5 114.5t84.5 95.5q46 41 104 64.5t128 22.5
q45 0 81.5 -12.5t65.5 -33.5q27 -20 47.5 -47t34.5 -59l-695 -936q-15 40 -23 85t-10 91t1 91t9 85zM984 827l-33 -195q-11 -59 -29 -122t-45 -123q-27 -61 -63.5 -115.5t-83.5 -95.5q-47 -42 -105 -65.5t-128 -22.5q-71 1 -120 28.5t-81 72.5l685 921q15 -71 14 -145.5
t-11 -137.5zM960 1891l-219 -264l105 -1l264 265h-150z" />
    <glyph glyph-name="oslashacute" unicode="&#x1ff;" 
d="M120 553l-5 -32q-8 -60 -5 -120t18 -115q14 -55 39 -104.5t63 -88.5l-151 -232h98l117 180q41 -28 92.5 -44t114.5 -17q114 -1 208.5 44.5t165.5 122.5q71 76 116.5 175t61.5 204l4 32q8 64 4.5 128t-20.5 124q-17 58 -47 109.5t-73 89.5l133 205h-97l-102 -157
q-39 21 -84.5 32.5t-98.5 12.5q-116 2 -210.5 -43.5t-164.5 -123.5t-115.5 -177.5t-61.5 -204.5zM232 521l6 32q14 81 48.5 161t89.5 144q54 64 127.5 103.5t164.5 38.5q37 -1 69 -9.5t59 -23.5l-503 -777q-23 33 -38 73t-22 83t-7 87.5t6 87.5zM940 558l-5 -32
q-15 -81 -49.5 -160.5t-88.5 -143.5q-55 -63 -128 -102.5t-164 -37.5q-47 0 -85 13t-68 35l504 779q30 -32 49 -73.5t29 -87.5q10 -47 11 -95.5t-5 -94.5zM844 1507l-219 -264l105 -1l264 265h-150z" />
    <glyph glyph-name="uni0218" unicode="&#x218;" 
d="M922 363q-10 -69 -46.5 -121.5t-88.5 -86.5q-53 -35 -116.5 -52.5t-128.5 -16.5q-73 0 -132.5 23t-101.5 64q-42 42 -65.5 101t-23.5 132h-117q-5 -97 27.5 -175.5t92.5 -133.5q59 -56 140.5 -86t176.5 -31q87 -1 173.5 24t156.5 74q70 48 117.5 120.5t57.5 166.5
q9 86 -17.5 150t-79.5 120q-47 50 -126 91t-155 68q-56 18 -115.5 45.5t-102.5 65.5q-41 35 -62.5 82t-11.5 111q9 66 45 117t87 86q51 34 113 52t123 17q71 -1 124 -26t89 -68q35 -43 53 -100.5t18 -124.5h118q5 91 -22.5 168.5t-79.5 134.5q-53 56 -128.5 88.5
t-167.5 33.5q-84 1 -168.5 -24t-152.5 -75q-70 -49 -116.5 -120t-55.5 -161q-9 -88 21.5 -153.5t85.5 -114.5q54 -49 124.5 -84t141.5 -60q59 -22 119.5 -49.5t105.5 -68.5q39 -36 60 -86.5t11 -116.5zM564 -160l11 73h-114l-12 -76q-12 -66 -40 -123t-68 -111l67 -54
q64 58 104 132t52 159z" />
    <glyph glyph-name="uni0219" unicode="&#x219;" 
d="M869 280q-10 -55 -44.5 -93t-82.5 -61t-102 -33.5t-102 -9.5q-54 0 -105 12t-91 38t-64 68.5t-25 102.5l-117 1q-2 -84 32.5 -145t91.5 -100q56 -41 128 -60t148 -20q71 -1 148 16t141 55q65 36 109 94.5t52 140.5q8 63 -16.5 113.5t-71.5 86.5q-41 31 -88 51.5t-95 36.5
q-37 13 -78 24t-80 23q-35 10 -71 24t-64 35t-43.5 52t-8.5 76q9 53 41.5 89.5t77.5 59.5q44 22 95 32t98 10q50 -1 98.5 -14t85.5 -40q37 -28 58 -69t19 -97l117 -1q2 82 -28.5 142.5t-82.5 100.5t-121 60t-143 21q-65 1 -133 -14.5t-129 -47.5q-66 -34 -114.5 -94.5
t-54.5 -141.5q-6 -63 17 -109t62 -79q36 -30 82 -51.5t94 -35.5q36 -12 76 -22.5t78 -22.5q35 -10 74 -25t71 -38q35 -26 52.5 -60t8.5 -81zM552 -157l11 73h-114l-12 -76q-12 -66 -40 -123t-68 -111l67 -54q64 58 104 132t52 159z" />
    <glyph glyph-name="uni021A" unicode="&#x21a;" 
d="M1237 1350l18 106h-1016l-18 -106h451l-234 -1350h115l233 1350h451zM534 -150l11 73h-114l-12 -76q-12 -66 -40 -123t-68 -111l67 -54q64 58 104 132t52 159z" />
    <glyph glyph-name="uni021B" unicode="&#x21b;" 
d="M707 1359h-119l-49 -277h-292l-16 -99h292l-116 -678q-8 -73 7 -132.5t51 -101.5t91.5 -65.5t129.5 -24.5q56 -2 114 5t110 28l-11 92q-47 -8 -94 -14.5t-95 -4.5q-51 1 -88.5 16t-60.5 43q-24 28 -33 68t-2 91l116 678h389l17 99h-389zM668 -150l11 73h-114l-12 -76
q-12 -66 -40 -123t-68 -111l67 -54q64 58 104 132t52 159z" />
    <glyph glyph-name="uni0237" unicode="&#x237;" 
d="M341 1082l-18 -107h399l-168 -976q-12 -71 -40 -131.5t-71 -104.5q-44 -45 -104 -71t-135 -26q-46 0 -91.5 3.5t-90.5 10.5l-19 -101q52 -8 102.5 -12.5t102.5 -4.5q99 1 178.5 34.5t138.5 92.5q58 58 95.5 137.5t52.5 173.5l185 1082h-517z" />
    <glyph glyph-name="schwa" unicode="&#x259;" 
d="M673 1102q-56 1 -112 -7t-108 -26q-49 -17 -94 -42.5t-85 -60.5l44 -85q76 61 165 91t187 27q84 -2 142.5 -39.5t92.5 -96.5q30 -53 41.5 -117.5t4.5 -129.5q-3 -21 -4.5 -36t-5.5 -36h-773l-17 -102q-12 -93 5.5 -176.5t64.5 -146.5q46 -63 119.5 -100t172.5 -39
q73 -1 139.5 20t123.5 58q57 38 104.5 89.5t84.5 111.5q35 60 59 126t34 134l8 54q12 99 -7 193.5t-69 168.5t-129.5 119.5t-187.5 47.5zM518 82q-70 1 -122 28t-85 72t-45 104.5t-1 125.5l6 30h655q-24 -67 -61.5 -131.5t-88.5 -115.5t-115.5 -82.5t-142.5 -30.5z" />
    <glyph glyph-name="uni02BC" unicode="&#x2bc;" 
d="M826 1423l20 124h-115l-23 -127q-15 -79 -50 -146t-85 -129l65 -54q38 34 70 73t56 83q22 40 37.5 84.5t24.5 91.5z" />
    <glyph glyph-name="circumflex" unicode="&#x2c6;" 
d="M938 1276l-201 241h-73l-266 -238l-2 -20h109l193 172l132 -173h106z" />
    <glyph glyph-name="caron" unicode="&#x2c7;" 
d="M716 1328l-134 184h-102l-1 -17l192 -248h85l266 248l1 17l-107 -1z" />
    <glyph glyph-name="breve" unicode="&#x2d8;" 
d="M1011 1472l-100 -1q-9 -36 -25.5 -66t-40.5 -52q-27 -24 -62 -37.5t-78 -13.5q-40 0 -68.5 11t-48.5 32q-20 22 -29.5 54.5t-7.5 72.5l-100 1q-1 -59 16 -106t51 -80q33 -34 80 -53t106 -19q61 -1 112.5 17t91.5 52q40 33 66.5 81t36.5 107z" />
    <glyph glyph-name="dotaccent" unicode="&#x2d9;" 
d="M646 1377q-2 -36 21.5 -59t58.5 -23q35 1 60.5 24.5t27.5 58.5q3 36 -20.5 60.5t-59.5 23.5t-61 -25.5t-27 -59.5z" />
    <glyph glyph-name="ring" unicode="&#x2da;" 
d="M546 1343q-3 -36 7.5 -68t32.5 -57q21 -24 51.5 -38.5t67.5 -14.5q39 0 73.5 15t61.5 40t44 59t20 72q3 36 -7 69t-31 58q-21 26 -52 41t-68 15q-39 0 -73.5 -15.5t-61.5 -41.5t-44.5 -61t-20.5 -73zM622 1345q3 22 14 43t28 38q16 16 37 25.5t45 9.5q22 0 39 -9.5
t28 -25.5t15 -36t1 -40q-4 -22 -15 -42.5t-27 -35.5q-16 -16 -37 -25.5t-44 -9.5q-22 0 -38.5 9t-27.5 24t-16 34.5t-2 40.5z" />
    <glyph glyph-name="ogonek" unicode="&#x2db;" 
d="M597 -2l-65 40q-40 -22 -83.5 -51t-80.5 -64t-63 -77.5t-30 -93.5q-3 -36 6.5 -66t29.5 -51q19 -23 48.5 -35.5t66.5 -12.5q40 -1 77.5 10.5t72.5 31.5l-16 86q-26 -13 -53 -23t-57 -8q-36 1 -54 22t-14 58q5 41 27.5 75.5t53.5 63.5q31 28 66.5 51.5t67.5 43.5z" />
    <glyph glyph-name="tilde" unicode="&#x2dc;" 
d="M916 1481l-76 15q-7 -22 -18 -43.5t-29 -42.5q-16 -17 -34.5 -27t-40.5 -10q-38 -1 -68.5 18t-61.5 41q-30 20 -61.5 37t-72.5 17q-43 0 -78 -17t-61 -46t-42.5 -66t-23.5 -76l78 -11q7 22 18 43t27 38q15 16 35.5 26t46.5 10q36 1 67 -17t61 -39q28 -21 59 -38t70 -17
q44 0 79 17.5t61 46.5q25 28 41.5 65t23.5 76z" />
    <glyph glyph-name="hungarumlaut" unicode="&#x2dd;" 
d="M929 1527l-309 -285h129l342 285h-162zM634 1527l-257 -285h116l290 285h-149z" />
    <glyph glyph-name="uni02F3" unicode="&#x2f3;" 
d="M304 -228q-3 -27 6 -50.5t26 -41.5q17 -17 40.5 -27t50.5 -10t52.5 11t45.5 29q19 18 31.5 42t14.5 52q3 26 -5.5 50t-25.5 43q-16 18 -39 28.5t-50 10.5q-28 0 -53.5 -11.5t-45.5 -29.5q-20 -19 -33 -43.5t-15 -52.5zM374 -228q5 12 12.5 24t16.5 22q9 9 21.5 15t27.5 5
q11 0 20 -4.5t16 -11.5q8 -9 11.5 -21t1.5 -25q-2 -12 -9.5 -23.5t-17.5 -20.5q-11 -9 -23.5 -14t-24.5 -5q-28 0 -41 18t-11 41z" />
    <glyph glyph-name="gravecomb" unicode="&#x300;" 
d="M-431 1228l-97 319h-120l125 -319h92z" />
    <glyph glyph-name="acutecomb" unicode="&#x301;" 
d="M-366 1547l-196 -317l93 -1l228 318h-125z" />
    <glyph glyph-name="tildecomb" unicode="&#x303;" 
d="M-110 1481l-76 15q-7 -22 -18 -43.5t-29 -42.5q-16 -17 -34.5 -27t-40.5 -10q-38 -1 -68.5 18t-61.5 41q-30 20 -61.5 37t-72.5 17q-43 0 -78 -17t-61 -46t-42.5 -66t-23.5 -76l78 -11q7 22 18 43t27 38q15 16 35.5 26t46.5 10q36 1 67 -17t61 -39q28 -21 59 -38t70 -17
q44 0 79 17.5t61 46.5q25 28 41.5 65t23.5 76z" />
    <glyph glyph-name="hook" unicode="&#x309;" 
d="M-523 1234h93l11 63q34 5 67 16t60 30q27 18 44.5 45.5t21.5 66.5q5 52 -20.5 84.5t-65.5 51.5q-41 18 -88 25t-86 9l-14 -76q21 -1 53 -3t62 -10q29 -9 48.5 -27t13.5 -51q-5 -31 -24.5 -49t-46.5 -28t-56 -14t-54 -7z" />
    <glyph glyph-name="uni030F" unicode="&#x30f;" 
d="M-601 1253l-214 265h-159l247 -265h126zM-366 1253l-162 265h-148l196 -265h114z" />
    <glyph glyph-name="dotbelow" unicode="&#x323;" 
d="M-891 -227q-1 -35 22.5 -58.5t57.5 -23.5q34 1 60 24.5t28 58.5q2 36 -21.5 60.5t-58.5 23.5t-60.5 -25.5t-27.5 -59.5z" />
    <glyph glyph-name="tonos" unicode="&#x384;" 
d="M818 1618l-139 -329h76l196 329h-133z" />
    <glyph glyph-name="dieresistonos" unicode="&#x385;" 
d="M806 1692l-76 -251h98l122 251h-144zM461 1390q-2 -34 21 -58.5t57 -23.5t58.5 25t27.5 58q2 34 -20.5 59.5t-57.5 24.5q-36 -1 -60.5 -26.5t-25.5 -58.5zM909 1390q-2 -34 21 -58.5t56 -23.5q34 1 59.5 25t27.5 58q2 35 -20.5 60t-57.5 24q-36 -1 -60.5 -26.5
t-25.5 -58.5z" />
    <glyph glyph-name="Alphatonos" unicode="&#x386;" 
d="M845 406l55 -406h114l-204 1456h-107l-711 -1456h123l197 406h533zM362 514l369 760l101 -760h-470zM523 1618l-139 -329h76l196 329h-133z" />
    <glyph glyph-name="anoteleia" unicode="&#x387;" 
d="M563 717q-2 -34 20.5 -58t58.5 -24q32 0 59 24.5t28 58.5q2 35 -21 60t-58 24q-36 -1 -61 -26t-26 -59z" />
    <glyph glyph-name="Epsilontonos" unicode="&#x388;" 
d="M1002 698l18 105h-623l95 547h714l18 106h-831l-252 -1456h835l18 106h-718l103 592h623zM260 1619l-139 -329h76l196 329h-133z" />
    <glyph glyph-name="Etatonos" unicode="&#x389;" 
d="M985 0l252 1456h-111l-113 -653h-663l113 653h-110l-252 -1456h110l121 698h663l-121 -698h111zM242 1620l-139 -329h76l196 329h-133z" />
    <glyph glyph-name="Iotatonos" unicode="&#x38a;" 
d="M385 1456l-18 -108h343l-215 -1241h-344l-18 -107h819l18 107h-354l216 1241h354l18 108h-819zM227 1620l-139 -329h76l196 329h-133z" />
    <glyph glyph-name="Omicrontonos" unicode="&#x38c;" 
d="M1093 632l31 192q10 68 10 142.5t-12 146.5q-14 72 -41.5 137.5t-71.5 115.5q-45 49 -108.5 79t-148.5 31q-87 1 -159.5 -26t-132.5 -75q-60 -49 -108 -113.5t-83 -136.5q-35 -73 -59 -150.5t-37 -150.5l-31 -192q-10 -68 -10 -142.5t14 -146.5q13 -72 41 -137t73 -115
t108 -80t148 -31q86 -1 159 26.5t133 75.5q59 48 106.5 112.5t83.5 137.5q35 72 58.5 149.5t36.5 150.5zM1009 827l-33 -195q-11 -59 -29 -122t-45 -123q-27 -61 -63.5 -115.5t-83.5 -95.5q-47 -42 -105 -65.5t-128 -22.5q-69 1 -117.5 27.5t-80.5 70.5q-32 43 -49.5 99
t-23.5 116q-7 60 -4 119.5t10 110.5l34 195q10 57 28.5 120t45.5 124q28 60 64.5 114.5t84.5 95.5q46 41 104 64.5t128 22.5q68 -1 116.5 -27t81.5 -69q31 -43 48.5 -98.5t23.5 -114.5q6 -60 3 -120t-10 -111zM279 1618l-139 -329h76l196 329h-133z" />
    <glyph glyph-name="Upsilontonos" unicode="&#x38e;" 
d="M640 665l-236 792h-130l295 -901l-95 -556h110l95 541l615 915h-140zM165 1618l-139 -329h76l196 329h-133z" />
    <glyph glyph-name="Omegatonos" unicode="&#x38f;" 
d="M600 135l-22 -135h419l17 103l-296 -2q85 52 151.5 123t116.5 155q49 84 81 177.5t48 189.5l15 98q10 69 8.5 142.5t-15.5 143.5q-15 69 -44.5 131.5t-75.5 110.5q-46 47 -110 75t-148 29q-85 1 -158 -24.5t-134 -70.5q-61 -46 -109.5 -107.5t-85.5 -131.5
q-36 -71 -60.5 -147t-36.5 -151l-16 -98q-14 -100 -8.5 -202.5t36.5 -196.5q20 -68 56 -130t91 -112l-291 -2l-18 -103h418l21 136q-78 36 -120.5 99t-63.5 142q-10 42 -14.5 86t-4.5 89q0 50 4.5 100t11.5 93l16 101q10 59 29 121.5t47 121.5t66 111.5t86 91.5t106.5 61
t128.5 21q68 -1 117 -26t82 -66q33 -42 51 -95.5t26 -111.5q7 -58 5 -117t-9 -112l-16 -100q-15 -85 -41 -169.5t-67 -162.5q-46 -92 -117.5 -166.5t-172.5 -112.5zM269 1618l-139 -329h76l196 329h-133z" />
    <glyph glyph-name="iotadieresistonos" unicode="&#x390;" 
d="M284 1082l-18 -108h323l-112 -672q-12 -78 2 -135.5t47 -98.5t86.5 -63.5t126.5 -23.5q53 -1 101 9.5t94 31.5l-15 90q-38 -12 -76 -21t-79 -9q-50 0 -85 14.5t-56 41.5t-29 65t1 93l132 787zM736 1646l-76 -251h98l122 251h-144zM391 1344q-2 -34 21 -58.5t57 -23.5
t58.5 25t27.5 58q2 34 -20.5 59.5t-57.5 24.5q-36 -1 -60.5 -26.5t-25.5 -58.5zM839 1344q-2 -34 21 -58.5t56 -23.5q34 1 59.5 25t27.5 58q2 35 -20.5 60t-57.5 24q-36 -1 -60.5 -26.5t-25.5 -58.5z" />
    <glyph glyph-name="Alpha" unicode="&#x391;" 
d="M845 406l55 -406h114l-204 1456h-107l-711 -1456h123l197 406h533zM362 514l369 760l101 -760h-470z" />
    <glyph glyph-name="Beta" unicode="&#x392;" 
d="M84 0h454q91 1 177.5 30t155.5 83q68 54 113.5 130.5t55.5 171.5q7 59 -5 113t-40 99q-29 45 -72 78.5t-104 53.5q61 24 109 53t86 68q37 39 61.5 88.5t32.5 111.5q11 92 -18 161t-84 117q-56 47 -132 71t-159 27h-378zM323 700h348q60 -3 110.5 -24.5t85.5 -58.5
q34 -38 50 -90t6 -114q-11 -70 -46.5 -126t-86.5 -96q-52 -40 -115.5 -62.5t-131.5 -23.5l-323 1zM341 804l95 546h280q59 -2 113.5 -19t93.5 -50t58 -82.5t8 -116.5q-11 -68 -46 -119.5t-86 -86.5t-113 -53.5t-126 -19.5z" />
    <glyph glyph-name="Gamma" unicode="&#x393;" 
d="M1164 1353l18 103h-849l-253 -1456h118l235 1353h731z" />
    <glyph glyph-name="Delta" unicode="&#x394;" 
d="M711 1456l-756 -1456h1099l-235 1456h-108zM130 103l561 1091l51 104l13 -104l168 -1091h-793z" />
    <glyph glyph-name="Epsilon" unicode="&#x395;" 
d="M952 698l18 105h-623l95 547h714l18 106h-831l-252 -1456h835l18 106h-718l103 592h623z" />
    <glyph glyph-name="Zeta" unicode="&#x396;" 
d="M188 106l935 1256l12 94h-854l-16 -105h713l-932 -1252l-13 -99h903l16 106h-764z" />
    <glyph glyph-name="Eta" unicode="&#x397;" 
d="M935 0l252 1456h-111l-113 -653h-663l113 653h-110l-252 -1456h110l121 698h663l-121 -698h111z" />
    <glyph glyph-name="Theta" unicode="&#x398;" 
d="M839 676l17 102h-475l-17 -102h475zM1078 632l31 192q10 68 10 142.5t-12 146.5q-14 72 -41.5 137.5t-71.5 115.5q-45 49 -108.5 79t-148.5 31q-87 1 -159.5 -26t-132.5 -75q-60 -49 -108 -113.5t-83 -136.5q-35 -73 -59 -150.5t-37 -150.5l-31 -192q-10 -68 -10 -142.5
t14 -146.5q13 -72 41 -137t73 -115t108 -80t148 -31q86 -1 159 26.5t133 75.5q59 48 106.5 112.5t83.5 137.5q35 72 58.5 149.5t36.5 150.5zM994 827l-33 -195q-11 -59 -29 -122t-45 -123q-27 -61 -63.5 -115.5t-83.5 -95.5q-47 -42 -105 -65.5t-128 -22.5
q-69 1 -117.5 27.5t-80.5 70.5q-32 43 -49.5 99t-23.5 116q-7 60 -4 119.5t10 110.5l34 195q10 57 28.5 120t45.5 124q28 60 64.5 114.5t84.5 95.5q46 41 104 64.5t128 22.5q68 -1 116.5 -27t81.5 -69q31 -43 48.5 -98.5t23.5 -114.5q6 -60 3 -120t-10 -111z" />
    <glyph glyph-name="Iota" unicode="&#x399;" 
d="M335 1456l-18 -108h343l-215 -1241h-344l-18 -107h819l18 107h-354l216 1241h354l18 108h-819z" />
    <glyph glyph-name="Kappa" unicode="&#x39a;" 
d="M520 719l385 -719h136l-434 804l653 651l-155 1l-575 -571l-203 -195l134 766h-119l-251 -1456h118l89 517z" />
    <glyph glyph-name="Lambda" unicode="&#x39b;" 
d="M723 1277l186 -1277h116l-222 1456h-110l-723 -1456h125z" />
    <glyph glyph-name="Mu" unicode="&#x39c;" 
d="M458 1456h-148l-252 -1456h115l110 638l104 637l144 -837h78l454 835l-117 -621l-112 -652h115l252 1456h-157l-445 -819z" />
    <glyph glyph-name="Nu" unicode="&#x39d;" 
d="M934 0l252 1456h-118l-213 -1228l-437 1228h-114l-251 -1456h117l213 1231l438 -1231h113z" />
    <glyph glyph-name="Xi" unicode="&#x39e;" 
d="M62 103l-17 -103h891l18 103h-892zM274 786l-17 -103h696l17 103h-696zM307 1456l-17 -102h855l18 102h-856z" />
    <glyph glyph-name="Omicron" unicode="&#x39f;" 
d="M1078 632l31 192q10 68 10 142.5t-12 146.5q-14 72 -41.5 137.5t-71.5 115.5q-45 49 -108.5 79t-148.5 31q-87 1 -159.5 -26t-132.5 -75q-60 -49 -108 -113.5t-83 -136.5q-35 -73 -59 -150.5t-37 -150.5l-31 -192q-10 -68 -10 -142.5t14 -146.5q13 -72 41 -137t73 -115
t108 -80t148 -31q86 -1 159 26.5t133 75.5q59 48 106.5 112.5t83.5 137.5q35 72 58.5 149.5t36.5 150.5zM994 827l-33 -195q-11 -59 -29 -122t-45 -123q-27 -61 -63.5 -115.5t-83.5 -95.5q-47 -42 -105 -65.5t-128 -22.5q-69 1 -117.5 27.5t-80.5 70.5q-32 43 -49.5 99
t-23.5 116q-7 60 -4 119.5t10 110.5l34 195q10 57 28.5 120t45.5 124q28 60 64.5 114.5t84.5 95.5q46 41 104 64.5t128 22.5q68 -1 116.5 -27t81.5 -69q31 -43 48.5 -98.5t23.5 -114.5q6 -60 3 -120t-10 -111z" />
    <glyph glyph-name="Pi" unicode="&#x3a0;" 
d="M921 0l250 1456h-854l-252 -1456h116l234 1353h624l-234 -1353h116z" />
    <glyph glyph-name="Rho" unicode="&#x3a1;" 
d="M327 600l336 -1q95 1 183 31.5t157 86.5t114.5 135t57.5 177q11 92 -13 169.5t-75 133.5t-126 88.5t-166 35.5h-437l-252 -1456h117zM345 703l113 650h335q69 -3 123 -29t89 -69q35 -44 49.5 -102t3.5 -126q-12 -73 -47.5 -132.5t-88.5 -101.5q-53 -43 -118.5 -66.5
t-138.5 -24.5z" />
    <glyph glyph-name="Sigma" unicode="&#x3a3;" 
d="M765 743l5 36l-375 575h778l17 102h-925l-15 -89l397 -602l-617 -666l-16 -99h978l18 103h-825z" />
    <glyph glyph-name="Tau" unicode="&#x3a4;" 
d="M1237 1350l18 106h-1016l-18 -106h451l-234 -1350h115l233 1350h451z" />
    <glyph glyph-name="Upsilon" unicode="&#x3a5;" 
d="M590 665l-236 792h-130l295 -901l-95 -556h110l95 541l615 915h-140z" />
    <glyph glyph-name="Phi" unicode="&#x3a6;" 
d="M764 1257l38 199h-115l-39 -198q-109 -7 -203 -50.5t-166 -114.5q-73 -71 -119 -165t-61 -202q-13 -97 5.5 -187t66.5 -162q48 -71 124 -117.5t178 -55.5l-38 -204h115l40 203q109 7 203.5 50.5t166.5 115.5q72 71 118.5 165t60.5 202q13 97 -5.5 187t-66.5 161
t-124.5 117.5t-178.5 55.5zM216 726q13 84 48 158.5t89 132.5t126 95t158 45l-153 -851q-83 9 -139.5 47.5t-88.5 95.5q-33 58 -42.5 129.5t2.5 147.5zM1022 736q-13 -83 -47.5 -158.5t-88.5 -132.5q-54 -59 -126 -96t-159 -45l153 851q82 -9 138.5 -47.5t89.5 -95.5
t42.5 -128.5t-2.5 -147.5z" />
    <glyph glyph-name="Chi" unicode="&#x3a7;" 
d="M644 836l-259 621h-131l313 -712l-559 -745h144l471 641l270 -641h131l-323 732l542 724h-145z" />
    <glyph glyph-name="Psi" unicode="&#x3a8;" 
d="M634 474l174 982h-117l-173 -980q-77 14 -126 55t-75 98q-27 57 -32.5 126t4.5 139l96 562h-117l-96 -562q-13 -94 -0.5 -182t53.5 -160t111 -120t171 -61l-68 -371h117l68 370q109 10 196.5 54.5t152.5 114.5q65 69 107 160t59 195l95 562h-116l-97 -562
q-14 -78 -45.5 -149t-79.5 -127q-49 -56 -114.5 -94t-147.5 -50z" />
    <glyph glyph-name="Omega" unicode="&#x3a9;" 
d="M590 135l-22 -135h419l17 103l-296 -2q85 52 151.5 123t116.5 155q49 84 81 177.5t48 189.5l15 98q10 69 8.5 142.5t-15.5 143.5q-15 69 -44.5 131.5t-75.5 110.5q-46 47 -110 75t-148 29q-85 1 -158 -24.5t-134 -70.5q-61 -46 -109.5 -107.5t-85.5 -131.5
q-36 -71 -60.5 -147t-36.5 -151l-16 -98q-14 -100 -8.5 -202.5t36.5 -196.5q20 -68 56 -130t91 -112l-291 -2l-18 -103h418l21 136q-78 36 -120.5 99t-63.5 142q-10 42 -14.5 86t-4.5 89q0 50 4.5 100t11.5 93l16 101q10 59 29 121.5t47 121.5t66 111.5t86 91.5t106.5 61
t128.5 21q68 -1 117 -26t82 -66q33 -42 51 -95.5t26 -111.5q7 -58 5 -117t-9 -112l-16 -100q-15 -85 -41 -169.5t-67 -162.5q-46 -92 -117.5 -166.5t-172.5 -112.5z" />
    <glyph glyph-name="Iotadieresis" unicode="&#x3aa;" 
d="M335 1456l-18 -108h343l-215 -1241h-344l-18 -107h819l18 107h-354l216 1241h354l18 108h-819zM478 1729q-1 -34 21 -57t56 -23q33 1 58 24.5t27 56.5q1 33 -21.5 57t-56.5 24q-34 -1 -58 -25t-26 -57zM902 1728q-1 -34 21.5 -57t55.5 -23q34 1 58.5 24.5t26.5 56.5
q1 34 -21.5 58t-56.5 23q-33 -1 -57.5 -25t-26.5 -57z" />
    <glyph glyph-name="Upsilondieresis" unicode="&#x3ab;" 
d="M590 665l-236 792h-130l295 -901l-95 -556h110l95 541l615 915h-140zM478 1723q-1 -34 21 -57t56 -23q33 1 58 24.5t27 56.5q1 33 -21.5 57t-56.5 24q-34 -1 -58 -25t-26 -57zM902 1722q-1 -34 21.5 -57t55.5 -23q34 1 58.5 24.5t26.5 56.5q1 34 -21.5 58t-56.5 23
q-33 -1 -57.5 -25t-26.5 -57z" />
    <glyph glyph-name="alphatonos" unicode="&#x3ac;" 
d="M1039 1082h-81l-62 -181q-16 39 -40 73t-54 59q-41 33 -93 51t-110 19q-75 1 -137.5 -23.5t-112.5 -66.5q-50 -43 -88.5 -99.5t-67.5 -120.5q-28 -64 -46.5 -131.5t-28.5 -130.5l-2 -22q-8 -57 -8 -118t11 -120q11 -58 33 -110.5t59 -92.5t89.5 -64t123.5 -25
q59 0 113.5 15.5t102.5 44.5q40 24 75.5 56.5t65.5 70.5q1 -33 6.5 -64.5t19.5 -57.5q18 -29 49.5 -46.5t77.5 -17.5q25 0 47 6t44 17l-7 94q-14 -2 -28.5 -5t-29.5 -1q-26 0 -39.5 13t-19.5 32q-6 13 -8 28.5t-1 31.5q0 19 2.5 37t4.5 32zM235 507l3 22q8 49 22 104t36 108
q22 52 52 99.5t70 83.5q39 36 88.5 56.5t110.5 19.5q51 -1 95 -22t77 -55q31 -33 51.5 -75.5t25.5 -88.5l-80 -455q-23 -47 -58.5 -88t-79.5 -70q-44 -31 -95 -48t-104 -16q-57 0 -96.5 20.5t-65.5 53.5q-25 33 -39 76t-19 90t-2.5 95t8.5 90zM798 1579l-139 -329h76
l196 329h-133z" />
    <glyph glyph-name="epsilontonos" unicode="&#x3ad;" 
d="M97 293q-6 -59 9.5 -105t47.5 -80q31 -34 74 -58.5t92 -39.5q48 -15 99.5 -22t98.5 -8q82 -1 165.5 17.5t153.5 58.5q70 39 120 102t68 152h-119q-16 -62 -56.5 -106t-93.5 -70q-54 -28 -116 -40.5t-120 -11.5q-31 0 -68 3.5t-73 13.5q-36 9 -69 24.5t-56 39.5
q-23 23 -34.5 55t-4.5 74q7 43 26 74.5t46 54.5q25 20 56 34t65 24q46 14 97 18.5t97 4.5h201l17 101l-216 1q-37 0 -78.5 4.5t-79.5 16.5q-29 9 -54.5 22.5t-42.5 33.5q-18 19 -25.5 46.5t-1.5 64.5q11 62 50 102.5t92 64.5q53 23 112.5 32t112.5 9q49 -1 101 -12t95 -35
q42 -25 68 -64.5t22 -98.5l117 -1q1 83 -34 141.5t-92 96.5t-129.5 56t-144.5 19q-74 0 -153.5 -14t-149.5 -47q-74 -36 -125.5 -97t-59.5 -153q-5 -45 8 -82t38 -65q25 -29 59 -50t73 -36q-52 -14 -100.5 -35t-87.5 -52q-39 -32 -65 -75.5t-32 -102.5zM827 1578l-139 -329
h76l196 329h-133z" />
    <glyph glyph-name="etatonos" unicode="&#x3ae;" 
d="M372 1082h-109l-187 -1082h119l127 733q25 57 63 106.5t87 85.5q47 35 103.5 54.5t119.5 19.5q72 -1 118 -27.5t70 -69.5q24 -44 29.5 -101.5t-3.5 -119.5l-188 -1096h119l187 1096q11 85 0.5 161t-46.5 133q-35 58 -98 92t-157 35q-66 1 -124.5 -16.5t-108.5 -50.5
q-46 -29 -85 -69.5t-71 -89.5zM819 1579l-139 -329h76l196 329h-133z" />
    <glyph glyph-name="iotatonos" unicode="&#x3af;" 
d="M284 1082l-18 -108h323l-112 -672q-12 -78 2 -135.5t47 -98.5t86.5 -63.5t126.5 -23.5q53 -1 101 9.5t94 31.5l-15 90q-38 -12 -76 -21t-79 -9q-50 0 -85 14.5t-56 41.5t-29 65t1 93l132 787zM793 1559l-139 -329h76l196 329h-133z" />
    <glyph glyph-name="upsilondieresistonos" unicode="&#x3b0;" 
d="M384 1082h-117l-112 -656q-12 -90 1 -170.5t53 -141.5t108 -97t168 -37q79 -1 146 21t123 62q56 39 100 93t77 117t54.5 132.5t32.5 139.5q21 135 16 270t-35 268l-124 1q35 -132 42 -268.5t-16 -271.5q-14 -80 -47 -163.5t-84 -150.5q-53 -67 -124 -108t-162 -41
q-73 1 -118.5 32t-68.5 80q-24 48 -28.5 108.5t3.5 121.5zM718 1646l-76 -251h98l122 251h-144zM373 1344q-2 -34 21 -58.5t57 -23.5t58.5 25t27.5 58q2 34 -20.5 59.5t-57.5 24.5q-36 -1 -60.5 -26.5t-25.5 -58.5zM821 1344q-2 -34 21 -58.5t56 -23.5q34 1 59.5 25t27.5 58
q2 35 -20.5 60t-57.5 24q-36 -1 -60.5 -26.5t-25.5 -58.5z" />
    <glyph glyph-name="alpha" unicode="&#x3b1;" 
d="M1039 1082h-81l-62 -181q-16 39 -40 73t-54 59q-41 33 -93 51t-110 19q-75 1 -137.5 -23.5t-112.5 -66.5q-50 -43 -88.5 -99.5t-67.5 -120.5q-28 -64 -46.5 -131.5t-28.5 -130.5l-2 -22q-8 -57 -8 -118t11 -120q11 -58 33 -110.5t59 -92.5t89.5 -64t123.5 -25
q59 0 113.5 15.5t102.5 44.5q40 24 75.5 56.5t65.5 70.5q1 -33 6.5 -64.5t19.5 -57.5q18 -29 49.5 -46.5t77.5 -17.5q25 0 47 6t44 17l-7 94q-14 -2 -28.5 -5t-29.5 -1q-26 0 -39.5 13t-19.5 32q-6 13 -8 28.5t-1 31.5q0 19 2.5 37t4.5 32zM235 507l3 22q8 49 22 104t36 108
q22 52 52 99.5t70 83.5q39 36 88.5 56.5t110.5 19.5q51 -1 95 -22t77 -55q31 -33 51.5 -75.5t25.5 -88.5l-80 -455q-23 -47 -58.5 -88t-79.5 -70q-44 -31 -95 -48t-104 -16q-57 0 -96.5 20.5t-65.5 53.5q-25 33 -39 76t-19 90t-2.5 95t8.5 90z" />
    <glyph glyph-name="beta" unicode="&#x3b2;" 
d="M732 1476q-88 1 -166.5 -32t-140.5 -89q-62 -57 -104.5 -132.5t-56.5 -159.5l-250 -1461h117l93 513q24 -32 55.5 -56t66.5 -40q44 -20 93 -30t99 -10q96 -1 182 30t153 88q67 56 110 136t55 176q8 63 -3 120.5t-38 106.5q-29 47 -73.5 84t-104.5 59q41 19 78 44t67 56
q43 42 72 97t38 121q10 82 -12 151t-68 120q-47 51 -114 79.5t-148 28.5zM619 824h-85l-17 -103l146 -1q66 -2 119 -27t87 -67t48 -98.5t3 -122.5q-12 -73 -46.5 -133t-85.5 -103q-51 -42 -116.5 -65.5t-139.5 -22.5q-46 0 -92 10.5t-86 32.5q-38 20 -67 51t-46 73l142 816
q12 61 42.5 117.5t75.5 99.5t102.5 68t123.5 25q58 0 104.5 -21.5t77.5 -58.5q30 -37 43 -86.5t5 -106.5q-10 -66 -39.5 -117t-74.5 -86t-102 -54t-122 -20z" />
    <glyph glyph-name="gamma" unicode="&#x3b3;" 
d="M1083 1082l-489 -814l-70 -131l-20 120l-213 826h-118l277 -1050l-79 -448h120l75 433l646 1064h-129z" />
    <glyph glyph-name="delta" unicode="&#x3b4;" 
d="M376 1285q-5 -46 7.5 -86t37.5 -73t59.5 -58.5t73.5 -44.5l-8 -15q-88 -18 -162 -61t-130 -105q-56 -63 -93 -141.5t-50 -165.5l-5 -32q-12 -101 8 -195.5t72 -166.5q51 -72 132.5 -115.5t191.5 -45.5q113 -1 209 41t169 115q73 72 120.5 167.5t64.5 202.5l5 32
q11 97 -8.5 181.5t-65.5 152.5q-47 68 -118 119t-161 82q-29 9 -63.5 22t-66.5 31q-25 13 -46.5 29t-35.5 36q-14 19 -19.5 43t0.5 54q9 47 37.5 79.5t68.5 53.5q39 20 84.5 30t87.5 10q71 1 137.5 -18.5t130.5 -48.5l38 87q-37 20 -74.5 35.5t-76.5 26.5q-36 10 -74 15.5
t-78 6.5q-65 0 -133 -16t-124 -50q-57 -35 -96 -87.5t-46 -126.5zM224 501l6 32q9 54 31.5 108.5t54.5 105.5q29 48 65 85.5t81 66.5q48 31 103.5 46t117.5 9q74 -8 130.5 -48.5t91.5 -99.5q36 -60 50 -131t5 -138l-5 -31q-15 -82 -52 -159t-93 -136q-57 -60 -131.5 -95
t-164.5 -34q-87 1 -147 38t-96 96q-35 59 -46.5 134t-0.5 151z" />
    <glyph glyph-name="epsilon" unicode="&#x3b5;" 
d="M97 293q-6 -59 9.5 -105t47.5 -80q31 -34 74 -58.5t92 -39.5q48 -15 99.5 -22t98.5 -8q82 -1 165.5 17.5t153.5 58.5q70 39 120 102t68 152h-119q-16 -62 -56.5 -106t-93.5 -70q-54 -28 -116 -40.5t-120 -11.5q-31 0 -68 3.5t-73 13.5q-36 9 -69 24.5t-56 39.5
q-23 23 -34.5 55t-4.5 74q7 43 26 74.5t46 54.5q25 20 56 34t65 24q46 14 97 18.5t97 4.5h201l17 101l-216 1q-37 0 -78.5 4.5t-79.5 16.5q-29 9 -54.5 22.5t-42.5 33.5q-18 19 -25.5 46.5t-1.5 64.5q11 62 50 102.5t92 64.5q53 23 112.5 32t112.5 9q49 -1 101 -12t95 -35
q42 -25 68 -64.5t22 -98.5l117 -1q1 83 -34 141.5t-92 96.5t-129.5 56t-144.5 19q-74 0 -153.5 -14t-149.5 -47q-74 -36 -125.5 -97t-59.5 -153q-5 -45 8 -82t38 -65q25 -29 59 -50t73 -36q-52 -14 -100.5 -35t-87.5 -52q-39 -32 -65 -75.5t-32 -102.5z" />
    <glyph glyph-name="zeta" unicode="&#x3b6;" 
d="M882 -107q5 50 -12 83t-48 55t-70.5 35.5t-79.5 23.5l-149 38q-52 13 -105 34t-85 57q-24 27 -32.5 63.5t-2.5 83.5q12 81 47.5 150.5t85.5 132.5q49 62 107 117.5t115 108.5l518 499l14 82h-921l-17 -102h761l-437 -420q-57 -54 -119.5 -114.5t-116.5 -128.5
q-61 -75 -103.5 -156.5t-52.5 -170.5q-8 -65 6.5 -115.5t46.5 -88.5q44 -55 116.5 -86.5t153.5 -50.5l131 -30q21 -5 46.5 -13t46.5 -20q20 -13 32.5 -32t8.5 -48q-5 -33 -21 -62.5t-38 -55.5t-48 -48t-51 -40l65 -62q36 23 71 53t65 65q29 36 48.5 77t23.5 86z" />
    <glyph glyph-name="eta" unicode="&#x3b7;" 
d="M372 1082h-109l-187 -1082h119l127 733q25 57 63 106.5t87 85.5q47 35 103.5 54.5t119.5 19.5q72 -1 118 -27.5t70 -69.5q24 -44 29.5 -101.5t-3.5 -119.5l-188 -1096h119l187 1096q11 85 0.5 161t-46.5 133q-35 58 -98 92t-157 35q-66 1 -124.5 -16.5t-108.5 -50.5
q-46 -29 -85 -69.5t-71 -89.5z" />
    <glyph glyph-name="theta" unicode="&#x3b8;" 
d="M1005 576l50 304q8 61 10.5 129t-5.5 135q-9 65 -30 125t-59 106q-39 46 -95.5 73.5t-135.5 28.5q-81 1 -146 -24t-118 -68q-52 -45 -91.5 -104t-68.5 -126q-30 -66 -49 -137t-30 -138l-50 -304q-9 -62 -11 -129.5t8 -132.5q8 -66 29.5 -126t60.5 -106q37 -46 94 -73.5
t136 -28.5q80 -1 145.5 24t117.5 69t91.5 103t68.5 126q28 66 47 136.5t31 137.5zM904 677l-20 -120q-8 -50 -22 -105t-35 -108t-50 -101t-68 -84q-39 -37 -88.5 -57.5t-111.5 -19.5q-61 1 -101.5 24.5t-65.5 62.5q-26 38 -38 87.5t-14 102.5q-3 52 1 103.5t11 94.5l19 120
h583zM338 780l20 121q8 48 21.5 101.5t33.5 104.5t47.5 98.5t65.5 84.5q39 40 90.5 63t117.5 22q61 -1 102 -24.5t66 -61.5q25 -39 37 -88t15 -101q2 -52 -2 -104t-11 -95l-19 -121h-584z" />
    <glyph glyph-name="iota" unicode="&#x3b9;" 
d="M284 1082l-18 -108h323l-112 -672q-12 -78 2 -135.5t47 -98.5t86.5 -63.5t126.5 -23.5q53 -1 101 9.5t94 31.5l-15 90q-38 -12 -76 -21t-79 -9q-50 0 -85 14.5t-56 41.5t-29 65t1 93l132 787z" />
    <glyph glyph-name="kappa" unicode="&#x3ba;" 
d="M480 504l364 -504h142l-419 582l564 499l-152 1l-510 -444l-163 -143l102 587h-118l-187 -1082h118l59 344z" />
    <glyph glyph-name="lambda" unicode="&#x3bb;" 
d="M393 1517q-19 0 -37.5 -3.5t-36.5 -7.5l-5 -97q14 2 29 3.5t30 0.5q38 -1 63 -21t41 -49q16 -30 25 -64.5t15 -64.5l31 -152l-595 -1062h135l435 787l57 117l126 -673q10 -42 25.5 -86t40.5 -79t61.5 -57t89.5 -20q14 1 26.5 4.5t26.5 7.5l7 102l-24 -4t-24 -1
q-32 2 -52 19.5t-32 42.5q-13 25 -19.5 54t-11.5 54l-190 986q-10 46 -27.5 93.5t-45.5 85.5t-68 61t-96 23z" />
    <glyph glyph-name="uni03BC" unicode="&#x3bc;" 
d="M399 1082h-116l-259 -1498h116l96 527q40 -64 103.5 -97.5t141.5 -33.5q52 0 99 12.5t88 36.5q42 24 78 59.5t66 79.5l-29 -168h107l187 1082h-118l-125 -724q-20 -58 -52 -108t-74 -87q-46 -39 -104 -60t-127 -20q-50 0 -84.5 17.5t-56.5 45.5q-23 27 -34.5 63.5
t-14.5 77.5q-4 40 -2 82t8 80z" />
    <glyph glyph-name="nu" unicode="&#x3bd;" 
d="M456 0h96l610 1082h-127l-486 -883l-29 -59l-9 59l-214 884h-116z" />
    <glyph glyph-name="xi" unicode="&#x3be;" 
d="M1130 1333l25 100q-65 21 -131.5 32.5t-135.5 11.5t-142.5 -12t-139.5 -40q-47 -16 -89 -40t-76 -57q-36 -37 -60 -85t-30 -109q-6 -55 10.5 -99.5t48.5 -78.5q31 -35 74 -60t91 -41q-78 -22 -149 -56.5t-127 -84.5q-57 -50 -94.5 -116.5t-47.5 -152.5
q-13 -106 18.5 -181t92.5 -128q60 -53 141.5 -87.5t170.5 -57.5l65 -17q20 -5 44.5 -12t45.5 -19q20 -12 32 -30t9 -45q-4 -32 -19 -58t-36 -49t-45.5 -43t-46.5 -37l61 -62q32 22 66 49t63 60q28 33 47 70.5t24 80.5q5 48 -12.5 80t-47.5 54q-30 20 -69 33t-77 23l-90 24
q-66 17 -130 45t-111 70q-45 40 -68 97.5t-10 135.5q15 99 67.5 167.5t127.5 111.5q74 42 163.5 61t179.5 20l125 -1l17 104l-140 1q-37 0 -79.5 3.5t-83.5 13.5q-42 9 -78.5 25t-62.5 42q-27 26 -39 62.5t-3 87.5q7 41 26 73t46 56q27 23 60.5 40.5t69.5 29.5q52 20 108 28
t107 8q63 0 124 -10.5t120 -30.5z" />
    <glyph glyph-name="omicron" unicode="&#x3bf;" 
d="M120 553l-5 -32q-9 -69 -3.5 -137t25.5 -129q17 -52 44.5 -97.5t65.5 -81.5q46 -44 109.5 -69.5t144.5 -26.5q114 -1 208.5 44.5t165.5 122.5q71 76 116.5 175t61.5 204l4 32q9 68 4 136t-24 130q-18 56 -48 104.5t-70 85.5q-45 40 -107.5 63.5t-139.5 24.5
q-114 2 -207 -43t-163 -119q-73 -77 -119.5 -178t-62.5 -209zM232 521l6 32q14 81 48.5 161t89.5 144q54 64 127.5 103.5t164.5 38.5q79 -2 133 -37t87 -90q41 -65 52 -150t0 -165l-5 -32q-12 -73 -48 -156.5t-90 -147.5q-55 -63 -128 -102.5t-164 -37.5q-85 1 -142.5 39.5
t-88.5 97.5q-34 66 -43.5 146t1.5 156z" />
    <glyph glyph-name="pi" unicode="&#x3c0;" 
d="M1148 978l17 104h-991l-17 -104h154l-168 -978h117l169 978h432l-120 -703q-6 -54 -2.5 -105t23.5 -91q19 -40 57 -65.5t101 -26.5q37 -1 71 6.5t67 23.5l-15 92q-24 -6 -48.5 -11t-49.5 -4q-37 1 -57 17t-28 42q-9 25 -8 55.5t5 60.5l120 709h171z" />
    <glyph glyph-name="rho" unicode="&#x3c1;" 
d="M1029 514l3 21q8 63 8 129t-12 129q-12 62 -36.5 118t-64.5 98q-41 42 -98.5 67t-134.5 26q-100 2 -187.5 -36.5t-153.5 -104.5q-70 -68 -111.5 -160.5t-59.5 -200.5l-175 -1016h118l100 553q23 -35 53 -62t65 -46q45 -25 96.5 -37t104.5 -12q74 -1 136.5 21t112.5 60
q50 37 89 87.5t68 108.5q30 60 50 126t29 131zM915 535l-3 -21q-13 -79 -43 -157.5t-79 -140.5q-49 -61 -115 -98t-153 -36q-49 0 -92 12t-78 36q-37 24 -64.5 60.5t-43.5 85.5l53 304q14 81 47 157.5t82 134.5q48 58 113.5 93.5t149.5 34.5q60 -1 102 -23.5t70 -58.5
q27 -37 41 -85t19 -99t2.5 -103t-8.5 -96z" />
    <glyph glyph-name="sigma1" unicode="&#x3c2;" 
d="M678 1103q-115 1 -210 -44t-166 -120q-72 -76 -118 -174t-62 -204l-6 -42q-13 -109 12.5 -196.5t82.5 -153.5q56 -67 139 -111t184 -65q26 -6 57.5 -13t57.5 -20q26 -14 41.5 -36t9.5 -58q-6 -33 -22.5 -61t-38.5 -50q-23 -24 -51 -42.5t-57 -33.5l49 -81
q41 20 80.5 46.5t72.5 60.5q32 34 54 75t26 90q3 28 -3.5 50t-18.5 38q-12 30 -35.5 51.5t-54.5 36.5q-34 17 -72.5 28t-76.5 19q-80 19 -144.5 55.5t-107.5 91.5q-43 53 -61 123.5t-6 155.5l7 42q14 82 49.5 161t90.5 141q54 62 127.5 100t165.5 37q65 -1 116.5 -21.5
t85.5 -56.5q34 -38 50 -90.5t10 -116.5l112 -1q6 88 -18.5 159.5t-72.5 122.5q-49 50 -120 78t-158 29z" />
    <glyph glyph-name="sigma" unicode="&#x3c3;" 
d="M1186 978l18 104l-554 1q-112 -1 -205.5 -44t-163.5 -115t-115.5 -167.5t-61.5 -200.5l-5 -33q-13 -97 3 -192.5t60 -171.5q46 -78 125 -127.5t193 -51.5q110 -1 202.5 42t163.5 117q69 72 116 168.5t62 199.5l5 34q8 71 1 139.5t-31 130.5q-18 47 -47.5 89t-71.5 76z
M216 521l6 32q13 79 47.5 156t88.5 138q54 60 125.5 96.5t159.5 35.5q86 -2 143 -40.5t89 -98.5q32 -61 41 -135.5t-1 -146.5l-6 -32q-14 -80 -47.5 -160t-86.5 -143q-54 -64 -126.5 -103.5t-163.5 -37.5q-88 1 -145 42.5t-87 105.5q-32 64 -39.5 141t2.5 150z" />
    <glyph glyph-name="tau" unicode="&#x3c4;" 
d="M1099 976l18 106h-853l-18 -106h355l-112 -669q-9 -67 -1.5 -125.5t33.5 -102.5q27 -45 75 -71.5t122 -27.5q46 -1 89.5 9t84.5 31l-16 91q-32 -10 -65.5 -18t-67.5 -7q-49 0 -78.5 18.5t-44.5 47.5q-15 30 -18 68.5t3 80.5l116 675h378z" />
    <glyph glyph-name="upsilon" unicode="&#x3c5;" 
d="M384 1082h-117l-112 -656q-12 -90 1 -170.5t53 -141.5t108 -97t168 -37q79 -1 146 21t123 62q56 39 100 93t77 117t54.5 132.5t32.5 139.5q21 135 16 270t-35 268l-124 1q35 -132 42 -268.5t-16 -271.5q-14 -80 -47 -163.5t-84 -150.5q-53 -67 -124 -108t-162 -41
q-73 1 -118.5 32t-68.5 80q-24 48 -28.5 108.5t3.5 121.5z" />
    <glyph glyph-name="phi" unicode="&#x3c6;" 
d="M444 -16l-83 -462h116l83 461q111 12 200 62.5t154 127.5q64 76 104 173t54 203q6 46 7.5 104t-5.5 118q-8 59 -26 115.5t-49 100.5t-77.5 70.5t-111.5 25.5q-47 -1 -84.5 -18.5t-65.5 -47.5q-28 -31 -45.5 -70t-24.5 -83l-135 -775q-49 10 -85.5 33t-60.5 55
q-24 28 -38 63.5t-20 74.5q-12 54 -10.5 113t10.5 113q12 65 33 129t53 123q31 57 72 108t93 91l-52 91q-67 -43 -119.5 -100.5t-90.5 -124.5q-42 -71 -68 -151.5t-38 -163.5q-10 -76 -6 -153.5t27 -144.5q12 -48 34.5 -90.5t55.5 -76.5q36 -36 85.5 -60.5t113.5 -33.5z
M571 86l138 782q4 19 11.5 38t19.5 35q11 16 27.5 26t38.5 12q46 3 76 -19.5t48 -61.5t25.5 -88.5t9.5 -98.5q1 -49 -2.5 -92.5t-7.5 -70.5q-12 -79 -42.5 -155.5t-78.5 -139.5q-49 -63 -115 -107.5t-148 -59.5z" />
    <glyph glyph-name="chi" unicode="&#x3c7;" 
d="M608 643l-255 440h-133l315 -526l-506 -557h148l413 459l271 -459h132l-329 546l488 535l-149 1z" />
    <glyph glyph-name="psi" unicode="&#x3c8;" 
d="M739 1082h-117l-175 -993q-57 12 -96 41t-64 69q-24 40 -36.5 88.5t-15.5 100.5q-3 51 0.5 103t10.5 100l83 491h-116l-83 -489q-9 -58 -11 -118.5t4 -119.5q7 -64 25 -122t54 -109q36 -53 94 -90t140 -49l-78 -428h117l77 426q121 11 213.5 64t158.5 134t106 184.5
t58 215.5q19 126 17 252.5t-34 249.5h-121q32 -123 36.5 -250t-16.5 -253q-14 -85 -45 -167.5t-81 -149.5q-50 -68 -119.5 -114.5t-161.5 -62.5z" />
    <glyph glyph-name="omega" unicode="&#x3c9;" 
d="M388 1081h-127q-76 -127 -122 -266t-67 -285q-7 -42 -12 -98.5t-4 -117.5q0 -61 10 -120.5t34 -106.5q24 -48 65.5 -77.5t105.5 -30.5q52 0 93.5 19.5t74.5 51.5q33 33 58 74t46 84q4 -44 18 -85t38 -72q25 -32 61.5 -51t85.5 -20q64 -1 114 26.5t89 73.5q37 45 64 103.5
t46 120.5t31 122t20 108q10 69 16.5 139t6.5 140q0 68 -8 135.5t-25 134.5l-119 1q29 -137 31 -275t-20 -276q-5 -32 -12.5 -77.5t-19.5 -95.5q-13 -50 -31 -100t-43 -90q-26 -40 -60 -64.5t-78 -24.5q-43 1 -68 23.5t-37 58.5q-13 36 -16 80.5t0 88.5q2 44 7.5 82.5
t8.5 63.5l47 292h-117l-50 -298q-5 -31 -12 -72.5t-19 -85.5q-13 -44 -31 -86.5t-43 -75.5t-59 -52.5t-77 -18.5q-41 2 -64.5 29t-34.5 69q-12 41 -14.5 92t0.5 100t9 91t10 66q12 78 34.5 152.5t51.5 147.5q25 64 54 127.5t60 125.5z" />
    <glyph glyph-name="iotadieresis" unicode="&#x3ca;" 
d="M284 1082l-18 -108h323l-112 -672q-12 -78 2 -135.5t47 -98.5t86.5 -63.5t126.5 -23.5q53 -1 101 9.5t94 31.5l-15 90q-38 -12 -76 -21t-79 -9q-50 0 -85 14.5t-56 41.5t-29 65t1 93l132 787zM417 1387q-1 -34 21 -57t56 -23q33 1 58 24.5t27 56.5q1 33 -21.5 57
t-56.5 24q-34 -1 -58 -25t-26 -57zM841 1386q-1 -34 21.5 -57t55.5 -23q34 1 58.5 24.5t26.5 56.5q1 34 -21.5 58t-56.5 23q-33 -1 -57.5 -25t-26.5 -57z" />
    <glyph glyph-name="upsilondieresis" unicode="&#x3cb;" 
d="M384 1082h-117l-112 -656q-12 -90 1 -170.5t53 -141.5t108 -97t168 -37q79 -1 146 21t123 62q56 39 100 93t77 117t54.5 132.5t32.5 139.5q21 135 16 270t-35 268l-124 1q35 -132 42 -268.5t-16 -271.5q-14 -80 -47 -163.5t-84 -150.5q-53 -67 -124 -108t-162 -41
q-73 1 -118.5 32t-68.5 80q-24 48 -28.5 108.5t3.5 121.5zM399 1387q-1 -34 21 -57t56 -23q33 1 58 24.5t27 56.5q1 33 -21.5 57t-56.5 24q-34 -1 -58 -25t-26 -57zM823 1386q-1 -34 21.5 -57t55.5 -23q34 1 58.5 24.5t26.5 56.5q1 34 -21.5 58t-56.5 23q-33 -1 -57.5 -25
t-26.5 -57z" />
    <glyph glyph-name="omicrontonos" unicode="&#x3cc;" 
d="M120 553l-5 -32q-9 -69 -3.5 -137t25.5 -129q17 -52 44.5 -97.5t65.5 -81.5q46 -44 109.5 -69.5t144.5 -26.5q114 -1 208.5 44.5t165.5 122.5q71 76 116.5 175t61.5 204l4 32q9 68 4 136t-24 130q-18 56 -48 104.5t-70 85.5q-45 40 -107.5 63.5t-139.5 24.5
q-114 2 -207 -43t-163 -119q-73 -77 -119.5 -178t-62.5 -209zM232 521l6 32q14 81 48.5 161t89.5 144q54 64 127.5 103.5t164.5 38.5q79 -2 133 -37t87 -90q41 -65 52 -150t0 -165l-5 -32q-12 -73 -48 -156.5t-90 -147.5q-55 -63 -128 -102.5t-164 -37.5q-85 1 -142.5 39.5
t-88.5 97.5q-34 66 -43.5 146t1.5 156zM814 1579l-139 -329h76l196 329h-133z" />
    <glyph glyph-name="upsilontonos" unicode="&#x3cd;" 
d="M384 1082h-117l-112 -656q-12 -90 1 -170.5t53 -141.5t108 -97t168 -37q79 -1 146 21t123 62q56 39 100 93t77 117t54.5 132.5t32.5 139.5q21 135 16 270t-35 268l-124 1q35 -132 42 -268.5t-16 -271.5q-14 -80 -47 -163.5t-84 -150.5q-53 -67 -124 -108t-162 -41
q-73 1 -118.5 32t-68.5 80q-24 48 -28.5 108.5t3.5 121.5zM775 1559l-139 -329h76l196 329h-133z" />
    <glyph glyph-name="omegatonos" unicode="&#x3ce;" 
d="M388 1081h-127q-76 -127 -122 -266t-67 -285q-7 -42 -12 -98.5t-4 -117.5q0 -61 10 -120.5t34 -106.5q24 -48 65.5 -77.5t105.5 -30.5q52 0 93.5 19.5t74.5 51.5q33 33 58 74t46 84q4 -44 18 -85t38 -72q25 -32 61.5 -51t85.5 -20q64 -1 114 26.5t89 73.5q37 45 64 103.5
t46 120.5t31 122t20 108q10 69 16.5 139t6.5 140q0 68 -8 135.5t-25 134.5l-119 1q29 -137 31 -275t-20 -276q-5 -32 -12.5 -77.5t-19.5 -95.5q-13 -50 -31 -100t-43 -90q-26 -40 -60 -64.5t-78 -24.5q-43 1 -68 23.5t-37 58.5q-13 36 -16 80.5t0 88.5q2 44 7.5 82.5
t8.5 63.5l47 292h-117l-50 -298q-5 -31 -12 -72.5t-19 -85.5q-13 -44 -31 -86.5t-43 -75.5t-59 -52.5t-77 -18.5q-41 2 -64.5 29t-34.5 69q-12 41 -14.5 92t0.5 100t9 91t10 66q12 78 34.5 152.5t51.5 147.5q25 64 54 127.5t60 125.5zM821 1559l-139 -329h76l196 329h-133z
" />
    <glyph glyph-name="uni03D1" unicode="&#x3d1;" 
d="M1158 673l-2 101q-38 -11 -76.5 -18t-78.5 -11l57 329q9 56 8.5 106.5t-10.5 94.5q-7 34 -19.5 65t-32.5 56q-31 42 -80 66.5t-118 25.5q-71 0 -129 -27t-101 -73q-44 -47 -71.5 -107.5t-37.5 -126.5l-3 -19q-11 -102 15 -186.5t81 -147.5q54 -63 134 -103.5t178 -52.5
l-39 -217q-12 -70 -39.5 -133t-70.5 -110q-44 -47 -103.5 -74t-137.5 -25q-73 1 -122.5 30.5t-76.5 77.5q-28 47 -35.5 108t1.5 126l56 332l-118 -2l-55 -330q-12 -89 4.5 -169.5t60.5 -141.5q44 -62 114 -98.5t166 -38.5q101 -1 182 33.5t140 95.5q60 61 98 143t54 176
l36 212q44 4 86.5 12t84.5 21zM581 1133l3 21q7 41 23.5 82t43.5 74t63.5 52.5t84.5 19.5q36 0 62 -11.5t43 -30.5t26.5 -44t14.5 -53q6 -37 5 -76.5t-6 -74.5l-61 -341q-73 11 -132.5 39.5t-99.5 73.5q-43 50 -62 117.5t-8 151.5z" />
    <glyph glyph-name="uni03D2" unicode="&#x3d2;" 
d="M923 1240l-248 -420l-58 -110l-16 97l-110 432q-11 40 -27.5 80.5t-41.5 73.5q-25 32 -60 52.5t-84 20.5q-26 0 -50.5 -6t-48.5 -17l14 -98q15 5 31 10t32 5q29 0 50 -12.5t36 -32.5t24.5 -45t16.5 -49l163 -613l-105 -608h116l103 591l367 608q14 23 28 45t33 44
q25 32 58 54t75 21q16 0 30 -4.5t28 -11.5l32 93q-26 14 -51 21t-54 8q-53 1 -95 -19t-76 -53t-61.5 -74.5t-50.5 -82.5z" />
    <glyph glyph-name="uni03D6" unicode="&#x3d6;" 
d="M1219 979l18 104h-1121l-17 -104l121 1q-67 -119 -108 -249.5t-60 -265.5q-6 -41 -9.5 -92.5t-1.5 -104.5q3 -55 14.5 -106t35.5 -91q24 -41 64 -66t99 -25q53 -1 94.5 18.5t74.5 51.5q32 32 57.5 73.5t45.5 84.5q4 -44 18 -85t40 -73q24 -32 60.5 -50.5t86.5 -19.5
q60 -1 107 22.5t83 62.5t62 89.5t45 105.5q18 54 29.5 109t18.5 101q19 128 22 254.5t-9 254.5h130zM959 468q-4 -30 -11.5 -69.5t-18.5 -82.5q-12 -44 -28.5 -85.5t-40.5 -74.5q-24 -34 -55 -54.5t-71 -20.5q-41 0 -66 21.5t-38 55.5q-14 33 -18 75.5t-2 84.5
q1 36 5.5 76.5t10.5 78.5l44 274h-116l-46 -275q-5 -31 -13 -72t-19 -85q-13 -45 -30.5 -87.5t-42.5 -75.5q-26 -33 -59 -53t-77 -18q-38 2 -61 24t-35 58q-13 34 -15.5 76.5t-0.5 85.5q2 41 6.5 78t8.5 60q21 136 68.5 265.5t110.5 250.5h614q13 -129 14 -255.5t-18 -255.5
z" />
    <glyph glyph-name="uni0400" unicode="&#x400;" 
d="M952 698l18 105h-623l95 547h714l18 106h-831l-252 -1456h835l18 106h-718l103 592h623zM782 1565l-133 267h-133l172 -267h94z" />
    <glyph glyph-name="uni0401" unicode="&#x401;" 
d="M952 698l18 105h-623l95 547h714l18 106h-831l-252 -1456h835l18 106h-718l103 592h623zM495 1729q-1 -34 21 -57t56 -23q33 1 58 24.5t27 56.5q1 33 -21.5 57t-56.5 24q-34 -1 -58 -25t-26 -57zM919 1728q-1 -34 21.5 -57t55.5 -23q34 1 58.5 24.5t26.5 56.5
q1 34 -21.5 58t-56.5 23q-33 -1 -57.5 -25t-26.5 -57z" />
    <glyph glyph-name="uni0402" unicode="&#x402;" 
d="M1111 1353l17 103h-933l-17 -103h338l-234 -1353h115l127 712q24 9 49 17.5t50 14.5q26 7 53 11t55 4q47 -1 83.5 -14.5t62.5 -35.5q22 -21 37 -48t24 -58q15 -42 17.5 -92t-4.5 -101q-10 -64 -34.5 -121t-63.5 -101q-39 -43 -92.5 -70.5t-121.5 -31.5l-10 -98
q92 4 168 36.5t133 87.5q56 55 92 130.5t47 166.5q9 75 -1 144t-39 125q-15 38 -38 71t-55 58q-38 28 -88 43.5t-112 16.5q-53 0 -103 -14t-99 -32l98 532h479z" />
    <glyph glyph-name="uni0403" unicode="&#x403;" 
d="M1164 1353l18 103h-849l-253 -1456h118l235 1353h731zM919 1829l-219 -264l105 -1l264 265h-150z" />
    <glyph glyph-name="uni0404" unicode="&#x404;" 
d="M1053 443l-113 -1q-23 -75 -59 -141.5t-86 -114.5q-51 -50 -118 -77.5t-152 -25.5q-67 1 -114.5 25.5t-79.5 64.5t-50 92t-25 108t-5.5 113.5t9.5 108.5l15 91h556l17 103h-557l13 74q10 56 28 115t44 114q28 60 67.5 114t90.5 93q45 35 100.5 55.5t121.5 20.5
q81 -1 136 -31t89 -80q33 -50 47 -115t14 -138h116q2 96 -21 181t-72 148t-125.5 99.5t-179.5 37.5q-84 0 -156 -24.5t-131 -68.5q-60 -44 -107.5 -103t-83.5 -128q-35 -69 -59 -143.5t-37 -148.5l-43 -265q-10 -69 -8.5 -140.5t15.5 -139.5t43 -128.5t75 -106.5
q45 -45 107.5 -72.5t145.5 -28.5q105 -1 193.5 34t156.5 98q68 62 114 147.5t68 183.5z" />
    <glyph glyph-name="uni0405" unicode="&#x405;" 
d="M922 363q-10 -69 -46.5 -121.5t-88.5 -86.5q-53 -35 -116.5 -52.5t-128.5 -16.5q-73 0 -132.5 23t-101.5 64q-42 42 -65.5 101t-23.5 132h-117q-5 -97 27.5 -175.5t92.5 -133.5q59 -56 140.5 -86t176.5 -31q87 -1 173.5 24t156.5 74q70 48 117.5 120.5t57.5 166.5
q10 90 -20.5 158.5t-85.5 120.5q-55 51 -127 87.5t-145 62.5q-43 14 -88.5 33t-83.5 45q-30 17 -54.5 39t-40.5 50q-18 27 -25 61.5t0 75.5q9 66 45 117t87 86q51 34 113 52t123 17q71 -1 124 -26t89 -68q35 -43 53 -100.5t18 -124.5h118q5 91 -22.5 168.5t-79.5 134.5
q-53 56 -128.5 88.5t-167.5 33.5q-84 1 -168.5 -24t-152.5 -75q-70 -49 -116.5 -120t-55.5 -161q-9 -88 21.5 -153.5t85.5 -114.5q54 -49 124.5 -84t141.5 -60q45 -17 92 -37t86 -46q29 -19 53.5 -42t40.5 -52q17 -30 24 -65.5t0 -78.5z" />
    <glyph glyph-name="uni0406" unicode="&#x406;" 
d="M335 1456l-18 -108h343l-215 -1241h-344l-18 -107h819l18 107h-354l216 1241h354l18 108h-819z" />
    <glyph glyph-name="uni0407" unicode="&#x407;" 
d="M335 1456l-18 -108h343l-215 -1241h-344l-18 -107h819l18 107h-354l216 1241h354l18 108h-819zM478 1729q-1 -34 21 -57t56 -23q33 1 58 24.5t27 56.5q1 33 -21.5 57t-56.5 24q-34 -1 -58 -25t-26 -57zM902 1728q-1 -34 21.5 -57t55.5 -23q34 1 58.5 24.5t26.5 56.5
q1 34 -21.5 58t-56.5 23q-33 -1 -57.5 -25t-26.5 -57z" />
    <glyph glyph-name="uni0408" unicode="&#x408;" 
d="M1023 1456l-174 -1013q-14 -71 -48 -136t-85 -114t-116 -78.5t-140 -28.5q-72 0 -124.5 26t-85.5 71q-34 44 -48 103t-9 125l-118 1q-3 -91 20 -169.5t72 -136.5q47 -58 119.5 -91.5t167.5 -34.5q100 0 187 36.5t154 99.5t112.5 147.5t61.5 179.5l173 1013h-119z" />
    <glyph glyph-name="uni0409" unicode="&#x409;" 
d="M855 1456h-476l-128 -659q-5 -27 -11.5 -71t-14.5 -97q-9 -54 -20.5 -113.5t-26.5 -117.5q-16 -58 -36.5 -111t-45.5 -94q-27 -41 -59.5 -66t-72.5 -25h-22l-12 -102h32q69 1 121 35.5t92 90.5q33 47 58 106t44 123q20 64 34.5 131t24.5 129q10 54 17 100.5t14 81.5
l106 556h250l-235 -1353h261q70 1 125 29.5t97 73.5q41 44 69.5 100.5t45.5 115.5q15 45 23 95t8 101q1 58 -10 116t-39 106q-28 46 -74 76.5t-115 33.5l-130 1zM731 745l147 -1q52 -3 81 -37t39 -80q11 -49 8.5 -103.5t-8.5 -94.5q-8 -51 -24.5 -107.5t-45.5 -104.5
t-72 -80.5t-105 -34.5h-131z" />
    <glyph glyph-name="uni040A" unicode="&#x40a;" 
d="M278 787l116 669h-113l-252 -1456h113l118 684h351l-119 -684h210q90 1 159 35.5t117 92.5q48 57 77 132.5t39 157.5q10 75 2 146.5t-38 128.5q-31 57 -87 92.5t-142 38.5h-84l112 632h-113l-116 -669h-350zM732 722l92 -1q62 -3 96.5 -32.5t50.5 -72.5q15 -43 15 -95
t-7 -101q-9 -58 -28 -113.5t-51 -99.5t-79.5 -71.5t-114.5 -29.5h-84z" />
    <glyph glyph-name="uni040B" unicode="&#x40b;" 
d="M1098 1353l17 103h-902l-17 -103h337l-235 -1353h115l125 702q26 6 52 12.5t52 11.5q25 4 50 7t51 2q71 -2 115 -29t66 -71q22 -45 25 -102t-5 -118l-69 -415h115l71 414q10 84 -0.5 159t-46.5 132q-37 59 -103 95.5t-164 37.5q-25 0 -49.5 -2.5t-48.5 -7.5
q-26 -5 -51 -11t-50 -13l100 549h450z" />
    <glyph glyph-name="uni040C" unicode="&#x40c;" 
d="M520 719l385 -719h136l-434 804l653 651l-155 1l-575 -571l-203 -195l134 766h-119l-251 -1456h118l89 517zM896 1776l-219 -264l105 -1l264 265h-150z" />
    <glyph glyph-name="uni040D" unicode="&#x40d;" 
d="M1056 1456l-839 -1210l213 1210h-116l-251 -1456h118l837 1208l-211 -1208h116l252 1456h-119zM812 1559l-133 267h-133l172 -267h94z" />
    <glyph glyph-name="uni040E" unicode="&#x40e;" 
d="M603 511l-46 168l-251 778h-129l351 -1068l-76 -114q-24 -37 -53 -72t-64 -62q-34 -27 -75 -43.5t-89 -17.5q-28 0 -56 5.5t-54 12.5l-30 -94q35 -11 70.5 -17.5t72.5 -7.5q69 -1 126.5 20.5t106.5 58.5q48 37 88 86t74 104l760 1208h-144zM1110 1838l-100 -1
q-9 -36 -25.5 -66t-40.5 -52q-27 -24 -62 -37.5t-78 -13.5q-40 0 -68.5 11t-48.5 32q-20 22 -29.5 54.5t-7.5 72.5l-100 1q-1 -59 16 -106t51 -80q33 -34 80 -53t106 -19q61 -1 112.5 17t91.5 52q40 33 66.5 81t36.5 107z" />
    <glyph glyph-name="uni040F" unicode="&#x40f;" 
d="M317 1456l-251 -1456h373l-62 -354h116l62 354h365l252 1456h-116l-234 -1353h-623l234 1353h-116z" />
    <glyph glyph-name="uni0410" unicode="&#x410;" 
d="M845 406l55 -406h114l-204 1456h-107l-711 -1456h123l197 406h533zM362 514l369 760l101 -760h-470z" />
    <glyph glyph-name="uni0411" unicode="&#x411;" 
d="M1152 1353l17 103h-849l-252 -1456h414q96 1 182.5 29t154.5 81q68 54 113 131t57 176q11 94 -13.5 168t-75.5 127q-52 51 -127.5 79.5t-164.5 30.5l-280 1l92 530h732zM310 720h297q66 -2 119.5 -24t89.5 -60q36 -39 50.5 -93.5t4.5 -122.5q-12 -74 -46.5 -132.5
t-85.5 -99.5q-52 -41 -117.5 -63t-137.5 -23l-281 1z" />
    <glyph glyph-name="uni0412" unicode="&#x412;" 
d="M84 0h454q91 1 177.5 30t155.5 83q68 54 113.5 130.5t55.5 171.5q7 59 -5 113t-40 99q-29 45 -72 78.5t-104 53.5q61 24 109 53t86 68q37 39 61.5 88.5t32.5 111.5q11 92 -18 161t-84 117q-56 47 -132 71t-159 27h-378zM323 700h348q60 -3 110.5 -24.5t85.5 -58.5
q34 -38 50 -90t6 -114q-11 -70 -46.5 -126t-86.5 -96q-52 -40 -115.5 -62.5t-131.5 -23.5l-323 1zM341 804l95 546h280q59 -2 113.5 -19t93.5 -50t58 -82.5t8 -116.5q-11 -68 -46 -119.5t-86 -86.5t-113 -53.5t-126 -19.5z" />
    <glyph glyph-name="uni0413" unicode="&#x413;" 
d="M1164 1353l18 103h-849l-253 -1456h118l235 1353h731z" />
    <glyph glyph-name="uni0414" unicode="&#x414;" 
d="M906 -353l86 456h-103l234 1353h-590l-115 -525q-14 -66 -28.5 -141.5t-32.5 -154.5t-43 -157.5t-60 -147.5q-35 -71 -82 -129.5t-109 -98.5l-59 1l-62 -457h102l61 354h755l-61 -353h107zM536 931l89 422h364l-217 -1250l-547 -2q75 79 125 180t84 211
q34 111 57.5 223.5t44.5 215.5z" />
    <glyph glyph-name="uni0415" unicode="&#x415;" 
d="M952 698l18 105h-623l95 547h714l18 106h-831l-252 -1456h835l18 106h-718l103 592h623z" />
    <glyph glyph-name="uni0416" unicode="&#x416;" 
d="M744 686l164 -686h134l-192 724l418 732h-138l-366 -668h-80l118 668h-113l-118 -668l-87 1l-132 668h-130l163 -719l-448 -738h146l402 686h73l-121 -686h113l121 686h73z" />
    <glyph glyph-name="uni0417" unicode="&#x417;" 
d="M893 592q32 -34 45.5 -82t2.5 -114q-13 -80 -56.5 -139.5t-105.5 -98.5q-62 -40 -137 -59t-150 -17q-72 1 -132.5 23.5t-103.5 64.5t-65 101t-15 133l-117 1q-7 -100 23.5 -178t89.5 -133q58 -55 139.5 -84.5t176.5 -30.5q98 -1 195 25t177 79q79 53 133 132t66 185
q9 78 -10.5 141.5t-64.5 110.5q-27 31 -65 54t-84 37q59 20 113 50.5t98 71.5q43 41 72 93.5t38 118.5q12 100 -19 175t-92 124q-61 50 -144 74.5t-173 25.5q-93 0 -181.5 -26.5t-160.5 -77.5q-72 -52 -122 -126.5t-66 -169.5h118q17 71 56 126.5t94 93.5t121 58.5t137 19.5
q67 0 129 -17.5t107 -53.5q45 -37 67.5 -92t10.5 -130q-12 -78 -53 -132.5t-99 -88.5t-128 -49.5t-141 -16.5l-172 1l-17 -104l186 -1q45 -1 88 -7.5t81 -19.5q33 -11 61.5 -28.5t48.5 -42.5z" />
    <glyph glyph-name="uni0418" unicode="&#x418;" 
d="M1056 1456l-839 -1210l213 1210h-116l-251 -1456h118l837 1208l-211 -1208h116l252 1456h-119z" />
    <glyph glyph-name="uni0419" unicode="&#x419;" 
d="M1056 1456l-839 -1210l213 1210h-116l-251 -1456h118l837 1208l-211 -1208h116l252 1456h-119zM1074 1832l-100 -1q-9 -36 -25.5 -66t-40.5 -52q-27 -24 -62 -37.5t-78 -13.5q-40 0 -68.5 11t-48.5 32q-20 22 -29.5 54.5t-7.5 72.5l-100 1q-1 -59 16 -106t51 -80
q33 -34 80 -53t106 -19q61 -1 112.5 17t91.5 52q40 33 66.5 81t36.5 107z" />
    <glyph glyph-name="uni041A" unicode="&#x41a;" 
d="M518 685l405 -685h136l-437 733l655 722l-144 1l-607 -669h-174l116 669h-116l-252 -1456h116l119 685h183z" />
    <glyph glyph-name="uni041B" unicode="&#x41b;" 
d="M1180 1456h-716l-142 -704q-7 -37 -15.5 -89.5t-20.5 -111.5q-14 -60 -32 -121.5t-43 -115.5q-19 -43 -41.5 -81.5t-49.5 -66.5q-27 -29 -59 -46t-70 -18h-33l-12 -102h44q81 2 143 41t108 102t78.5 143t55.5 163t38 162t27 141l120 601h486l-234 -1353h116z" />
    <glyph glyph-name="uni041C" unicode="&#x41c;" 
d="M458 1456h-148l-252 -1456h115l110 638l104 637l144 -837h78l454 835l-117 -621l-112 -652h115l252 1456h-157l-445 -819z" />
    <glyph glyph-name="uni041D" unicode="&#x41d;" 
d="M935 0l252 1456h-111l-113 -653h-663l113 653h-110l-252 -1456h110l121 698h663l-121 -698h111z" />
    <glyph glyph-name="uni041E" unicode="&#x41e;" 
d="M1078 632l31 192q10 68 10 142.5t-12 146.5q-14 72 -41.5 137.5t-71.5 115.5q-45 49 -108.5 79t-148.5 31q-87 1 -159.5 -26t-132.5 -75q-60 -49 -108 -113.5t-83 -136.5q-35 -73 -59 -150.5t-37 -150.5l-31 -192q-10 -68 -10 -142.5t14 -146.5q13 -72 41 -137t73 -115
t108 -80t148 -31q86 -1 159 26.5t133 75.5q59 48 106.5 112.5t83.5 137.5q35 72 58.5 149.5t36.5 150.5zM994 827l-33 -195q-11 -59 -29 -122t-45 -123q-27 -61 -63.5 -115.5t-83.5 -95.5q-47 -42 -105 -65.5t-128 -22.5q-69 1 -117.5 27.5t-80.5 70.5q-32 43 -49.5 99
t-23.5 116q-7 60 -4 119.5t10 110.5l34 195q10 57 28.5 120t45.5 124q28 60 64.5 114.5t84.5 95.5q46 41 104 64.5t128 22.5q68 -1 116.5 -27t81.5 -69q31 -43 48.5 -98.5t23.5 -114.5q6 -60 3 -120t-10 -111z" />
    <glyph glyph-name="uni041F" unicode="&#x41f;" 
d="M921 0l250 1456h-854l-252 -1456h116l234 1353h624l-234 -1353h116z" />
    <glyph glyph-name="uni0420" unicode="&#x420;" 
d="M327 600l336 -1q95 1 183 31.5t157 86.5t114.5 135t57.5 177q11 92 -13 169.5t-75 133.5t-126 88.5t-166 35.5h-437l-252 -1456h117zM345 703l113 650h335q69 -3 123 -29t89 -69q35 -44 49.5 -102t3.5 -126q-12 -73 -47.5 -132.5t-88.5 -101.5q-53 -43 -118.5 -66.5
t-138.5 -24.5z" />
    <glyph glyph-name="uni0421" unicode="&#x421;" 
d="M1035 443l-114 -2q-23 -71 -59.5 -137t-87.5 -115q-51 -50 -116.5 -79.5t-147.5 -27.5q-69 2 -118 28t-81 69q-33 43 -50.5 98t-23.5 114q-7 60 -4.5 119.5t10.5 111.5l37 213q10 59 29 122t47 124q27 59 64 113t85 94q47 40 105.5 63.5t128.5 22.5q79 0 132.5 -31.5
t87.5 -81.5q33 -51 48.5 -116t16.5 -134h116q-1 93 -24.5 177t-72.5 148q-49 63 -123.5 101.5t-175.5 38.5q-86 1 -159.5 -26t-133.5 -73q-61 -47 -109 -109.5t-83 -133.5q-37 -72 -61 -149t-37 -152l-35 -210q-10 -69 -9.5 -143t15.5 -145q13 -71 41.5 -135t74.5 -112
q45 -48 109 -77t148 -31q104 -2 191 34.5t155 100.5q67 63 114 148t70 180z" />
    <glyph glyph-name="uni0422" unicode="&#x422;" 
d="M1237 1350l18 106h-1016l-18 -106h451l-234 -1350h115l233 1350h451z" />
    <glyph glyph-name="uni0423" unicode="&#x423;" 
d="M603 511l-46 168l-251 778h-129l351 -1068l-76 -114q-24 -37 -53 -72t-64 -62q-34 -27 -75 -43.5t-89 -17.5q-28 0 -56 5.5t-54 12.5l-30 -94q35 -11 70.5 -17.5t72.5 -7.5q69 -1 126.5 20.5t106.5 58.5q48 37 88 86t74 104l760 1208h-144z" />
    <glyph glyph-name="uni0424" unicode="&#x424;" 
d="M764 1257l38 199h-115l-39 -198q-109 -7 -203 -50.5t-166 -114.5q-73 -71 -119 -165t-61 -202q-13 -97 5.5 -187t66.5 -162q48 -71 124 -117.5t178 -55.5l-38 -204h115l40 203q109 7 203.5 50.5t166.5 115.5q72 71 118.5 165t60.5 202q13 97 -5.5 187t-66.5 161
t-124.5 117.5t-178.5 55.5zM216 726q13 84 48 158.5t89 132.5t126 95t158 45l-153 -851q-83 9 -139.5 47.5t-88.5 95.5q-33 58 -42.5 129.5t2.5 147.5zM1022 736q-13 -83 -47.5 -158.5t-88.5 -132.5q-54 -59 -126 -96t-159 -45l153 851q82 -9 138.5 -47.5t89.5 -95.5
t42.5 -128.5t-2.5 -147.5z" />
    <glyph glyph-name="uni0425" unicode="&#x425;" 
d="M644 836l-259 621h-131l313 -712l-559 -745h144l471 641l270 -641h131l-323 732l542 724h-145z" />
    <glyph glyph-name="uni0426" unicode="&#x426;" 
d="M336 1456l-250 -1456h860l-61 -351h107l88 456h-125l234 1351h-116l-235 -1353h-620l234 1353h-116z" />
    <glyph glyph-name="uni0427" unicode="&#x427;" 
d="M1155 1456h-116l-123 -692q-77 -22 -155.5 -39.5t-159.5 -15.5q-76 2 -122 31.5t-68 77.5q-23 48 -26.5 109t5.5 125l67 404h-116l-68 -403q-13 -91 -1.5 -172t50.5 -142q38 -61 105.5 -97t167.5 -37q81 -1 158 15.5t153 40.5l-119 -661h116z" />
    <glyph glyph-name="uni0428" unicode="&#x428;" 
d="M394 1456h-115l-252 -1456h932l252 1456h-114l-235 -1353h-294l235 1353h-114l-235 -1353h-294z" />
    <glyph glyph-name="uni0429" unicode="&#x429;" 
d="M396 1456h-115l-252 -1456h900l-61 -351h104l87 454h-80l234 1353h-114l-235 -1353h-294l235 1353h-114l-235 -1353h-294z" />
    <glyph glyph-name="uni042A" unicode="&#x42a;" 
d="M193 1456l-17 -103h355l-235 -1353h326q93 1 172.5 31.5t140.5 86.5q61 55 100.5 131t50.5 168q10 86 -8 159.5t-62 127.5q-44 53 -112 84.5t-156 33.5l-194 1l110 633h-471zM537 720h210q64 -2 110 -27t74 -65q27 -41 36.5 -94.5t-0.5 -113.5q-10 -68 -39 -125.5
t-73 -99.5q-44 -43 -102.5 -67.5t-128.5 -25.5l-194 1z" />
    <glyph glyph-name="uni042B" unicode="&#x42b;" 
d="M313 822l110 634h-111l-253 -1456h271q91 0 165 33t129 90q54 56 87.5 132t44.5 162q10 80 -2.5 152.5t-50.5 127.5q-37 55 -99 88.5t-148 36.5h-143zM298 720l157 -1q61 -3 101 -30t61 -69t25 -94.5t-4 -106.5q-9 -61 -33 -118t-62 -101q-38 -43 -90.5 -69.5
t-120.5 -28.5h-141zM942 0l252 1456h-114l-252 -1456h114z" />
    <glyph glyph-name="uni042C" unicode="&#x42c;" 
d="M354 823l109 633h-117l-252 -1456h414q96 1 182.5 29t154.5 81q68 54 113 131t57 176q11 94 -13.5 168t-75.5 127q-52 51 -127.5 79.5t-164.5 30.5zM336 720h297q66 -2 119.5 -24t89.5 -60q36 -39 50.5 -93.5t4.5 -122.5q-12 -74 -46.5 -132.5t-85.5 -99.5
q-52 -41 -117.5 -63t-137.5 -23l-281 1z" />
    </font>
</defs>
</svg>
