<?xml version="1.0" standalone="no"?>
<!DOCTYPE svg PUBLIC "-//W3C//DTD SVG 1.1//EN" "http://www.w3.org/Graphics/SVG/1.1/DTD/svg11.dtd" >
<svg xmlns="http://www.w3.org/2000/svg" xmlns:xlink="http://www.w3.org/1999/xlink" version="1.1">
<metadata>
Created by FontForge 20201107 at Wed May  6 13:19:23 2020
 By 
Copyright 2015 The Roboto Mono Project Authors (https://github.com/googlefonts/robotomono)
</metadata>
<defs>
<font id="RobotoMono-Light" horiz-adv-x="1229" >
  <font-face 
    font-family="Roboto Mono Light"
    font-weight="300"
    font-stretch="normal"
    units-per-em="2048"
    panose-1="0 0 0 9 0 0 0 0 0 0"
    ascent="1638"
    descent="-410"
    x-height="1082"
    cap-height="1456"
    bbox="-1163 -555 1637 2146"
    underline-thickness="100"
    underline-position="-200"
    unicode-range="U+000D-FFFD"
  />
<missing-glyph 
 />
    <glyph glyph-name=".notdef" 
 />
    <glyph glyph-name=".null" horiz-adv-x="0" 
 />
    <glyph glyph-name="nonmarkingreturn" unicode="&#xd;" 
 />
    <glyph glyph-name="space" unicode=" " 
 />
    <glyph glyph-name="exclam" unicode="!" 
d="M655 436v1020h-121v-1020h121zM515 73q0 -35 22.5 -58t62.5 -23q39 0 63 23t24 58q0 36 -23.5 60t-63.5 24t-62.5 -24.5t-22.5 -59.5z" />
    <glyph glyph-name="quotedbl" unicode="&#x22;" 
d="M510 1410l1 126h-105l1 -135l-5 -311h92zM813 1410l1 126h-104l1 -135l-5 -311h91z" />
    <glyph glyph-name="numbersign" unicode="#" 
d="M730 410l-78 -410h100l77 410h273v95h-255l82 439h248v96h-229l79 416h-100l-79 -416h-314l79 416h-100l-78 -416h-298v-96h279l-82 -439h-273v-95h255l-77 -410h100l77 410h314zM434 505l81 439h315l-83 -439h-313z" />
    <glyph glyph-name="dollar" unicode="$" 
d="M961 360q0 -65 -25.5 -116t-69.5 -86q-43 -35 -101 -53.5t-123 -18.5q-67 0 -129 19t-109 60q-47 40 -76 103t-30 151h-120q2 -107 35.5 -187t90.5 -134t132.5 -82.5t161.5 -34.5v-189h102v191q81 7 150.5 34.5t120.5 75.5t80.5 115t29.5 154q0 91 -31.5 157.5
t-86.5 115.5t-128.5 83.5t-157.5 63.5q-71 24 -131 51.5t-104 63.5t-68.5 84.5t-23.5 115.5q0 64 22.5 114t61.5 85q40 36 95 55t121 19q69 0 124.5 -25.5t94.5 -70.5q39 -46 60 -108.5t22 -137.5h120q-2 104 -30.5 186.5t-81.5 140.5q-46 51 -111 81.5t-145 37.5v204h-103
v-204q-78 -7 -145.5 -35t-117.5 -76q-50 -49 -78.5 -116t-28.5 -152q0 -92 32.5 -159t88.5 -116q55 -50 128.5 -84.5t157.5 -62.5q68 -23 128 -51.5t104 -65.5q43 -37 68 -85t24 -111z" />
    <glyph glyph-name="percent" unicode="%" 
d="M44 1185v-77q1 -55 17.5 -107t48.5 -92q32 -41 79.5 -66t110.5 -25q62 0 109 25t79 66q31 41 47 93t17 106v77q-1 55 -17 107.5t-47 93.5q-32 41 -79.5 66t-110.5 25t-110 -25t-79 -66t-48 -93.5t-17 -107.5zM141 1108v77q0 36 9 72.5t28 66.5q19 29 48.5 47t71.5 18
t71.5 -18t49.5 -47q18 -29 27 -65.5t10 -73.5v-77q-1 -36 -10 -72t-27 -64q-19 -29 -48.5 -47.5t-70.5 -18.5q-43 0 -72.5 18t-48.5 47q-20 29 -29 65t-9 72zM674 348v-78q0 -55 16.5 -107t48.5 -93t79.5 -66t110.5 -25t109.5 25t78.5 66t48.5 93t16.5 107v78
q0 54 -16.5 106.5t-48.5 93.5t-79.5 66t-110.5 25q-62 0 -109 -25t-79 -66t-48.5 -93.5t-16.5 -106.5zM770 270v78q1 36 9.5 72.5t27.5 65.5q18 29 47.5 47t72.5 18t73 -18t49 -47t27.5 -65t8.5 -73v-78q0 -37 -9 -73t-27 -65q-19 -29 -48.5 -47t-71.5 -18t-72 18t-49 47
t-28 65t-10 73zM357 160l595 1087l-77 47l-595 -1088z" />
    <glyph glyph-name="ampersand" unicode="&#x26;" 
d="M136 363q0 -87 31 -158t87 -121t133 -77t168 -27q60 0 116 14t107 40q41 20 78 48t71 61l114 -143h143l-179 227q67 90 100.5 197.5t33.5 227.5h-111q-2 -91 -25.5 -177t-66.5 -159l-373 468l118 101q38 30 73 63.5t62 70.5q26 38 42 80.5t16 91.5q0 59 -20.5 111
t-57.5 92q-38 38 -91 60.5t-117 22.5q-74 0 -133.5 -24t-101.5 -67t-64.5 -104t-22.5 -135q0 -46 10.5 -89t28.5 -84q20 -46 48.5 -90.5t62.5 -89.5l-42 -33q-47 -38 -88.5 -80t-73.5 -88q-35 -51 -55.5 -108t-20.5 -122zM555 82q-66 0 -121 20.5t-94 57.5q-40 37 -62 88.5
t-23 114.5q0 37 12.5 77.5t36.5 81.5q23 40 58 80t80 78l37 32l385 -487q-27 -31 -59 -56.5t-68 -43.5q-41 -21 -86.5 -32t-95.5 -11zM386 1149q0 45 13.5 86t39.5 72q25 31 63 49t86 18q39 0 70.5 -15t54.5 -39q23 -26 35 -59t12 -70q0 -31 -8.5 -61t-24.5 -57
q-16 -28 -39.5 -53.5t-52.5 -47.5l-132 -109q-27 36 -49 72.5t-37 73.5q-15 34 -23 69t-8 71z" />
    <glyph glyph-name="quotesingle" unicode="'" 
d="M628 1396v140h-107l1 -149l-6 -297h94z" />
    <glyph glyph-name="parenleft" unicode="(" 
d="M382 589v-15q0 -116 15.5 -227t44.5 -213q28 -103 68.5 -195t91.5 -169q50 -78 108.5 -138.5t122.5 -101.5l29 78q-56 42 -104.5 100.5t-88.5 129.5q-39 73 -70.5 159t-53.5 179q-21 93 -32 193t-12 203v20q0 105 12 207t34 196q23 99 58.5 188.5t79.5 163.5
q37 63 81 115t96 89l-29 82q-64 -40 -122 -101t-108 -138q-50 -78 -90.5 -170t-69.5 -195t-45 -214t-16 -226z" />
    <glyph glyph-name="parenright" unicode=")" 
d="M824 574v15q-1 120 -17 229.5t-44 210.5q-29 104 -69 195t-91 170q-50 77 -108.5 138t-122.5 101l-29 -78q52 -38 97.5 -92.5t83.5 -121.5q42 -74 77 -163.5t59 -191.5q19 -85 31 -185.5t13 -208.5v-20q-1 -100 -11 -198t-31 -189q-20 -96 -51.5 -182.5t-71.5 -160.5
t-89.5 -133.5t-106.5 -100.5l29 -78q64 41 122.5 101.5t109.5 138.5q50 77 90.5 169t69.5 195q28 102 44 213t16 227z" />
    <glyph glyph-name="asterisk" unicode="*" 
d="M571 966l-263 -325l97 -69l235 339l244 -342l98 71l-269 321l387 115l-38 116l-373 -147l19 411h-119l12 -407l-380 142l-37 -115z" />
    <glyph glyph-name="plus" unicode="+" 
d="M673 742v464h-120v-464h-434v-119h434v-477h120v477h444v119h-444z" />
    <glyph glyph-name="comma" unicode="," 
d="M601 35v154h-127v-156q-1 -79 -22.5 -148t-66.5 -133l76 -47q67 65 103 152.5t37 177.5z" />
    <glyph glyph-name="hyphen" unicode="-" 
d="M979 600v103h-742v-103h742z" />
    <glyph glyph-name="period" unicode="." 
d="M543 86q0 -41 27 -69.5t74 -28.5t75.5 28.5t28.5 69.5q0 43 -28 72.5t-76 29.5q-47 0 -74 -30t-27 -72z" />
    <glyph glyph-name="slash" unicode="/" 
d="M392 -125l607 1581h-112l-608 -1581h113z" />
    <glyph glyph-name="slash" unicode="&#x2215;" 
d="M392 -125l607 1581h-112l-608 -1581h113z" />
    <glyph glyph-name="zero" unicode="0" 
d="M1076 576v304q-1 140 -37.5 265.5t-114.5 206.5q-54 59 -131.5 92t-175.5 33q-117 0 -203 -46t-142 -127q-57 -81 -85 -191t-28 -233v-304q0 -141 36.5 -264.5t117.5 -207.5q55 -61 132 -92.5t174 -31.5q119 0 205 47.5t141 128.5q56 81 83.5 189t27.5 231zM291 489
q-7 40 -9.5 79t-2.5 78v255q0 98 20.5 190.5t63.5 153.5t103.5 95t150.5 34q70 0 124 -21.5t93 -61.5t64.5 -95.5t38.5 -123.5zM956 557q-1 -100 -20.5 -189t-65.5 -154q-38 -60 -100.5 -96t-150.5 -36q-67 0 -120 20.5t-91 57.5q-40 38 -66.5 92.5t-40.5 121.5l645 581
q5 -38 7 -84t3 -78v-236z" />
    <glyph glyph-name="one" unicode="1" 
d="M743 0v1456h-17l-507 -210v-115l404 172v-1303h120z" />
    <glyph glyph-name="two" unicode="2" 
d="M1043 0v103h-765l406 458q52 57 103 118.5t92 126.5q40 65 66 133t26 140q0 89 -30.5 162t-86.5 126q-56 52 -135 80.5t-175 28.5q-102 0 -183.5 -35t-138.5 -95q-58 -60 -90 -140t-33 -170h120q1 73 23.5 134.5t64.5 107.5q41 44 100.5 69.5t136.5 25.5q69 0 125 -21.5
t97 -60.5q40 -40 62 -95t22 -121q0 -57 -18 -110.5t-50 -106.5q-32 -54 -76.5 -109t-97.5 -115l-477 -540v-94h912z" />
    <glyph glyph-name="three" unicode="3" 
d="M402 794v-103h122q74 -1 141 -17.5t118 -52.5q49 -36 78.5 -92.5t29.5 -136.5q0 -76 -24.5 -133.5t-67.5 -96.5q-44 -40 -104 -59.5t-132 -19.5q-73 0 -135.5 22t-108.5 63q-47 40 -74 98t-28 129h-120q2 -97 39.5 -173.5t100.5 -130.5q62 -54 146.5 -82.5t179.5 -28.5
q94 0 176 28.5t143 82.5q60 53 94.5 130t34.5 175q0 64 -18.5 119.5t-53.5 100.5q-36 45 -88.5 78t-120.5 52q58 21 105 54.5t80 76.5q33 42 51 91.5t18 104.5q0 95 -31.5 170t-88.5 127t-135 79t-171 27q-95 0 -174.5 -30t-138.5 -84q-58 -54 -91.5 -127.5t-34.5 -160.5
h120q1 68 25.5 123t67.5 95q42 39 100 60t126 21q69 0 125.5 -19.5t96.5 -56.5q40 -38 62 -93.5t22 -126.5q0 -68 -27 -120t-73 -88t-108 -55.5t-132 -19.5h-122z" />
    <glyph glyph-name="four" unicode="4" 
d="M889 470v986h-131l-674 -1019v-69h685v-368h120v368h227v102h-227zM229 470l483 734l57 97v-831h-540z" />
    <glyph glyph-name="five" unicode="5" 
d="M261 746l94 -27q47 42 99.5 64.5t111.5 27.5q57 6 108.5 -6.5t98.5 -39.5q59 -27 99 -75.5t59 -112.5q18 -65 18 -133.5t-22 -131.5q-21 -67 -63.5 -114.5t-106.5 -69.5q-59 -22 -117 -21.5t-115 23.5q-83 23 -135 87t-65 166h-115q10 -95 46.5 -170t95.5 -127
q58 -51 135.5 -78.5t167.5 -27.5q111 0 193 38t136 104q53 65 79 153t26 189q0 103 -30.5 189t-86.5 149q-56 62 -135.5 97t-179.5 35q-79 0 -149.5 -21.5t-123.5 -58.5l50 486h626v116h-729z" />
    <glyph glyph-name="six" unicode="6" 
d="M863 1467h-17q-168 -1 -295.5 -57t-212.5 -157q-106 -123 -147 -281.5t-41 -328.5v-128q0 -104 33 -203.5t96 -173.5q59 -72 145.5 -115t196.5 -43q106 0 186.5 42t135.5 111q54 69 81.5 159t27.5 186q0 91 -26 177.5t-78 153.5t-131 107t-184 40q-56 0 -109 -13.5
t-99 -37.5q-47 -25 -86 -59t-67 -76q6 119 44 227t110 188q69 78 173 124.5t247 47.5h17v110zM615 852q78 0 138 -31t101 -84q40 -52 60 -120.5t20 -143.5t-20 -145.5t-60 -124.5t-98 -86.5t-135 -33.5q-77 0 -141 32t-111 89q-46 57 -72 136t-27 173v92q16 56 50.5 101.5
t81.5 77.5q46 33 101 50.5t112 17.5z" />
    <glyph glyph-name="seven" unicode="7" 
d="M1082 1387v69h-957v-108h828l-617 -1348h124z" />
    <glyph glyph-name="eight" unicode="8" 
d="M1066 1081q0 93 -33.5 166.5t-91.5 124.5q-58 50 -136 77t-167 27q-90 0 -167.5 -27t-134.5 -77q-57 -51 -89 -124.5t-32 -166.5q0 -60 18 -111.5t50 -93.5q32 -43 76.5 -75t96.5 -53q-60 -21 -111 -55t-88 -80q-38 -46 -59 -103t-21 -124q0 -99 37 -175t101 -127
q63 -51 147.5 -77.5t178.5 -26.5q93 0 177 26.5t148 78.5q63 51 100.5 127t37.5 174q0 67 -22 124t-59 103q-39 46 -90.5 80t-111.5 54q44 17 83.5 42.5t69.5 58.5q43 46 67.5 105t24.5 128zM984 386q0 -74 -28 -130.5t-74 -94.5q-47 -39 -109.5 -58.5t-131.5 -19.5
q-70 0 -132.5 19.5t-109.5 57.5t-74.5 95t-27.5 131q0 72 27.5 129.5t74.5 98.5q47 39 109 60.5t131 21.5t131.5 -21.5t109.5 -61.5q48 -40 76 -97.5t28 -129.5zM946 1082q0 -66 -24.5 -118.5t-66.5 -88.5q-42 -37 -98 -56.5t-117 -19.5q-63 0 -118 19t-97 56t-66 89
t-24 119t23.5 121t64.5 92t96 58t119 20q62 0 118 -21t99 -59q41 -38 66 -92t25 -119z" />
    <glyph glyph-name="nine" unicode="9" 
d="M382 99h-25l-1 -109h26q176 0 300.5 54.5t200.5 145.5q100 117 138 271.5t38 318.5v115q-1 115 -31 227t-90 193q-54 72 -139.5 116.5t-203.5 44.5q-107 0 -189.5 -43.5t-137.5 -113.5q-56 -72 -84 -164t-28 -190q0 -89 26 -176.5t79 -156.5q52 -69 130.5 -111.5
t181.5 -42.5q64 0 119.5 15t102.5 43q46 28 82 65.5t62 82.5v-9q-3 -119 -33.5 -224t-102.5 -188q-67 -77 -170.5 -120t-250.5 -44zM588 581q-77 0 -136 34t-98 89q-40 55 -60 124.5t-20 141.5q0 75 21 146.5t61 128.5t101 91.5t141 35.5q84 1 147.5 -35.5t106.5 -99.5
t65 -148t23 -182v-59q-18 -59 -52.5 -107.5t-80.5 -83.5q-47 -36 -103 -56t-116 -20z" />
    <glyph glyph-name="colon" unicode=":" 
d="M597 86q0 -41 27 -69.5t74 -28.5t75.5 28.5t28.5 69.5q0 43 -28 72.5t-76 29.5q-47 0 -74 -30t-27 -72zM597 962q0 -41 27 -69.5t74 -28.5t75.5 28.5t28.5 69.5q0 43 -28 72.5t-76 29.5q-47 0 -74 -30t-27 -72z" />
    <glyph glyph-name="semicolon" unicode=";" 
d="M593 962q0 -41 27 -69.5t74 -28.5t75.5 28.5t28.5 69.5q0 43 -28 72.5t-76 29.5q-47 0 -74 -30t-27 -72zM744 35v154h-127v-156q-1 -79 -22.5 -148t-66.5 -133l76 -47q67 65 103 152.5t37 177.5z" />
    <glyph glyph-name="less" unicode="&#x3c;" 
d="M1023 229v128l-677 280l-51 19l50 19l678 282v127l-857 -378v-98z" />
    <glyph glyph-name="equal" unicode="=" 
d="M1066 812v107h-892v-107h892zM1066 401v107h-892v-107h892z" />
    <glyph glyph-name="greater" unicode="&#x3e;" 
d="M183 231l874 379v98l-874 378l1 -125l680 -277l65 -25l-64 -23l-681 -279z" />
    <glyph glyph-name="question" unicode="?" 
d="M540 405h120q0 43 5.5 79t17.5 67q13 32 34.5 61.5t54.5 59.5q48 41 93.5 88t80.5 101q35 53 56.5 113.5t21.5 129.5q0 85 -27.5 153.5t-79.5 117.5q-51 49 -124 75t-164 26q-86 0 -159.5 -25t-127.5 -72t-86.5 -113.5t-35.5 -149.5h120q2 61 25.5 108.5t62.5 79.5
t91 48.5t110 16.5q65 0 117 -19t88 -55q34 -35 52.5 -84t18.5 -109q0 -56 -17.5 -104.5t-45.5 -90.5q-29 -42 -66 -80.5t-75 -75.5q-46 -42 -76 -77t-48 -74q-19 -39 -27 -85t-10 -110zM517 73q0 -34 23 -57.5t63 -23.5q39 0 63 23.5t24 57.5q0 36 -24 60t-63 24
q-40 0 -63 -24t-23 -60z" />
    <glyph glyph-name="at" unicode="@" 
d="M1166 776q3 142 -21.5 270t-84.5 222q-59 92 -153.5 144t-230.5 52q-137 0 -244.5 -57t-186.5 -157q-83 -106 -130 -254.5t-53 -311.5q-5 -143 22.5 -275t98.5 -229q65 -89 172.5 -140t264.5 -51q33 0 71.5 5.5t76.5 16.5q37 11 71.5 26t61.5 34l-27 82q-25 -16 -55 -29
t-64 -23q-33 -10 -67 -15.5t-65 -5.5q-131 0 -222 43t-147 120q-61 82 -85 198t-19 243q5 162 47.5 290t114.5 217q73 89 165.5 135.5t195.5 46.5q108 0 187.5 -42.5t130.5 -120.5t74 -188.5t19 -245.5q-2 -66 -13.5 -150.5t-42.5 -146.5q-20 -43 -49.5 -69.5t-69.5 -26.5
q-30 0 -49 16t-29 43q-10 26 -13.5 59t-0.5 67l47 504q-30 37 -74 63.5t-103 26.5q-78 0 -138 -37t-103 -102t-68.5 -152t-33.5 -186q-4 -61 1 -127t26 -131q19 -54 57.5 -90.5t97.5 -36.5q37 0 69.5 14t59.5 38q25 22 46 51.5t38 61.5q5 -31 15.5 -59t27.5 -51
q20 -25 49.5 -40t69.5 -15q63 0 108 34t75 89q43 75 61 175.5t21 177.5zM432 685q8 74 25.5 148t50.5 130q28 49 73 79.5t108 30.5q27 0 49 -10t42 -27l-41 -422l-1 -10q-14 -33 -30.5 -68.5t-37.5 -64.5q-25 -34 -57 -54.5t-71 -20.5q-38 0 -60.5 26.5t-33.5 63.5
q-13 40 -15.5 98.5t-0.5 100.5z" />
    <glyph glyph-name="A" unicode="A" 
d="M904 406l129 -406h120l-469 1456h-109l-473 -1456h120l130 406h552zM385 514l244 762l242 -762h-486z" />
    <glyph glyph-name="B" unicode="B" 
d="M195 0h458q90 2 172.5 30t145.5 81q63 52 99.5 127.5t35.5 172.5q0 66 -21.5 123.5t-59.5 102.5q-38 44 -91.5 76.5t-112.5 45.5l-1 4q54 22 95.5 49.5t73.5 66.5q31 38 48.5 87t18.5 110q0 99 -39 170.5t-104 117.5t-148.5 68.5t-172.5 23.5h-397v-1456zM314 700h351
q64 -2 122 -22t103 -56q44 -38 70 -91.5t26 -121.5q0 -71 -26.5 -126.5t-72.5 -94.5q-45 -38 -105 -59.5t-127 -22.5h-341v594zM314 804v546h281q64 -1 125.5 -16.5t109.5 -47.5q48 -33 76.5 -84t28.5 -124q0 -69 -27.5 -120t-73.5 -84q-46 -35 -105 -52t-121 -18h-294z" />
    <glyph glyph-name="C" unicode="C" 
d="M1100 442h-119q-12 -75 -38.5 -141t-69.5 -115q-44 -49 -106.5 -76.5t-145.5 -27.5q-72 0 -127 24t-96 65q-42 40 -70.5 93.5t-46.5 114.5q-19 59 -27 122t-9 122v212q1 59 9 121.5t27 122.5q18 60 47 113.5t70 93.5t96.5 63.5t126.5 24.5q83 0 145 -28.5t106 -77.5
q44 -50 70.5 -116t38.5 -141h119q-12 100 -48.5 185.5t-96.5 148.5q-61 62 -145 97t-189 34q-88 0 -158 -26.5t-124 -72.5q-55 -46 -95 -108.5t-66 -133.5t-39 -148.5t-14 -153.5v-210q1 -77 14 -153.5t39 -148.5q26 -71 65.5 -133t95.5 -108q54 -46 124.5 -73t157.5 -27
q104 0 187.5 35t144.5 98q60 61 97.5 146t49.5 183z" />
    <glyph glyph-name="D" unicode="D" 
d="M178 0h351q95 2 177 27t148 70q64 43 115 104t85 133q33 71 51 153t18 170v142q-1 90 -19 173t-53 155q-36 78 -93.5 141.5t-132.5 106.5q-62 37 -136.5 58.5t-159.5 22.5h-351v-1456zM298 1353h231q64 -1 120 -15.5t102 -40.5q69 -37 119 -97.5t81 -133.5
q25 -60 38.5 -127t14.5 -137v-145q-1 -70 -13.5 -136t-36.5 -124q-26 -65 -67 -119t-95 -93q-52 -38 -118 -59.5t-145 -22.5h-231v1250z" />
    <glyph glyph-name="E" unicode="E" 
d="M963 698v105h-643v547h736v106h-855v-1456h860v106h-741v592h643z" />
    <glyph glyph-name="F" unicode="F" 
d="M974 680v106h-644v564h741v106h-860v-1456h119v680h644z" />
    <glyph glyph-name="G" unicode="G" 
d="M1098 174l-2 519h-459v-106h345l-1 -375q-29 -38 -68.5 -62.5t-85.5 -39.5q-45 -14 -93.5 -19.5t-93.5 -4.5q-71 1 -128.5 24.5t-101.5 64.5q-45 40 -77 93.5t-53 114.5q-21 60 -31 124t-11 125v205q0 59 9.5 121.5t29.5 121.5q19 59 49 112t73 92q43 40 98.5 63
t125.5 23q77 0 136.5 -24t103.5 -67t72.5 -103t42.5 -130h118q-11 96 -49.5 175t-99.5 136q-62 57 -144.5 88t-179.5 31q-87 0 -158 -26.5t-126 -71.5q-57 -46 -98 -108t-68 -133t-40.5 -148t-14.5 -154v-203q1 -79 15.5 -157t44.5 -150q28 -73 71 -135.5t101 -108.5
q57 -46 129.5 -73t160.5 -28q75 0 146.5 14.5t135.5 46.5q49 22 94 55t82 78z" />
    <glyph glyph-name="H" unicode="H" 
d="M1070 0v1456h-113v-653h-685v653h-112v-1456h112v698h685v-698h113z" />
    <glyph glyph-name="I" unicode="I" 
d="M193 1456v-108h354v-1241h-354v-107h843v107h-365v1241h365v108h-843z" />
    <glyph glyph-name="J" unicode="J" 
d="M902 1456l1 -1013q-2 -73 -26 -137.5t-67 -113.5t-104 -77.5t-137 -28.5q-75 -1 -135.5 22.5t-103.5 67.5q-43 43 -68 103t-29 132h-121q7 -98 42 -177.5t94 -135.5q59 -57 140 -87.5t181 -30.5q99 0 182 36t143 98t94 146.5t36 182.5v1013h-122z" />
    <glyph glyph-name="K" unicode="K" 
d="M509 720l527 -720h146l-593 811l553 645h-150l-492 -572l-179 -203v775h-120v-1456h120v523z" />
    <glyph glyph-name="L" unicode="L" 
d="M340 106v1350h-120v-1456h861v106h-741z" />
    <glyph glyph-name="M" unicode="M" 
d="M321 1456h-154v-1456h117v645l-8 626l298 -833h78l323 848l-8 -641v-645h117v1456h-157l-313 -821z" />
    <glyph glyph-name="N" unicode="N" 
d="M1069 0v1456h-120v-1223l-668 1223h-119v-1456h119v1226l669 -1226h119z" />
    <glyph glyph-name="O" unicode="O" 
d="M1104 632v192q-1 74 -13.5 151.5t-37.5 150.5q-26 72 -65 136t-93 112q-54 47 -124 74.5t-157 27.5t-157 -27.5t-124 -74.5q-54 -49 -93 -112.5t-64 -136.5q-26 -72 -38.5 -149.5t-13.5 -151.5v-192q1 -75 14 -152t39 -149q25 -73 64.5 -136.5t93.5 -111.5t124 -75.5
t157 -27.5q86 0 156 27.5t124 75.5t93 111.5t64 135.5q25 73 37.5 150t13.5 152zM986 826v-194q-1 -58 -8.5 -120.5t-25.5 -122.5q-18 -61 -46 -115t-69 -95q-41 -42 -96 -66t-125 -24q-71 0 -125.5 24t-95.5 66q-42 41 -70.5 95.5t-46.5 114.5t-26 122.5t-9 120.5v194
q1 57 9 119t26 123q18 60 46 114t70 96q41 40 95.5 64.5t124.5 24.5t125 -24t96 -65t69.5 -95.5t46.5 -113.5q18 -61 26 -123t9 -120z" />
    <glyph glyph-name="P" unicode="P" 
d="M336 600h339q95 1 178.5 30t146.5 84q62 54 98.5 132.5t36.5 178.5q0 101 -36 180t-99 135q-62 55 -146 84.5t-179 31.5h-458v-1456h119v600zM336 703v650h339q72 -1 134.5 -24.5t108.5 -66.5q45 -43 71 -103.5t26 -135.5q0 -74 -26.5 -133t-72.5 -100t-108 -63.5
t-133 -23.5h-339z" />
    <glyph glyph-name="Q" unicode="Q" 
d="M1128 641v173q-1 77 -14.5 156.5t-40.5 153.5q-27 73 -68.5 137.5t-97.5 112.5q-57 47 -129 74.5t-161 27.5t-161.5 -27.5t-128.5 -74.5q-57 -49 -98 -113t-68 -138q-27 -73 -40 -152.5t-14 -156.5v-173q1 -77 14 -156t41 -152q27 -74 68.5 -138t98.5 -112
q56 -48 128 -75.5t161 -27.5q41 0 78 6.5t71 17.5l275 -258l82 78l-249 236q65 45 112 110.5t79 142.5q30 77 45.5 161.5t16.5 166.5zM1009 816v-175q-1 -61 -9.5 -125.5t-27.5 -125.5q-19 -62 -49 -116.5t-73 -95.5q-44 -41 -101 -65t-131 -24q-73 0 -130 24t-100 65
q-44 41 -74.5 96t-49.5 116q-19 62 -28.5 126.5t-9.5 124.5v175q0 61 9.5 125t28.5 126q19 61 49.5 115.5t73.5 95.5t100 65t130 24t130.5 -24t100.5 -64q43 -42 73.5 -96.5t50.5 -114.5q18 -62 27 -126.5t10 -125.5z" />
    <glyph glyph-name="R" unicode="R" 
d="M682 609l319 -609h125l1 13l-333 624q63 26 115.5 63t90.5 85q38 49 59.5 109t21.5 134q0 102 -36.5 181t-99.5 133q-64 55 -149 83.5t-181 30.5h-411v-1456h118v609h360zM322 712v641h293q73 -1 136.5 -23t109.5 -63q47 -42 73.5 -102t26.5 -136q0 -70 -24.5 -127.5
t-67.5 -98.5q-44 -42 -102.5 -66t-126.5 -25h-318z" />
    <glyph glyph-name="S" unicode="S" 
d="M990 359q0 -72 -30 -123.5t-79 -84.5q-48 -33 -110 -49t-126 -16q-77 0 -143.5 20.5t-117.5 61.5q-51 40 -84 99.5t-42 138.5h-121q4 -94 41 -168.5t101 -128.5q71 -64 167.5 -96.5t198.5 -32.5q86 0 170 24t151 71q66 47 107 118.5t41 167.5t-40.5 167.5t-104.5 120.5
q-67 52 -147 86t-160 59q-58 17 -121.5 40.5t-116.5 59.5q-53 35 -86.5 85t-34.5 123q0 68 29.5 118t77.5 84q48 33 107.5 49.5t120.5 16.5q73 0 133.5 -23t104.5 -65q45 -42 72 -100.5t35 -129.5h122q-3 96 -41.5 174.5t-101.5 133.5q-64 55 -147.5 85.5t-176.5 30.5
q-83 0 -165 -24.5t-147 -71.5q-65 -48 -105.5 -118.5t-40.5 -161.5q1 -99 44 -167t111 -117q62 -45 139 -77t150 -55q61 -19 126 -44t119 -61q53 -37 87.5 -90.5t33.5 -129.5z" />
    <glyph glyph-name="T" unicode="T" 
d="M1140 1350v106h-1046v-106h465l-1 -1350h117v1350h465z" />
    <glyph glyph-name="U" unicode="U" 
d="M1071 1456h-115l-2 -986q-2 -75 -24.5 -144t-65.5 -122q-43 -54 -105.5 -86t-143.5 -32t-144 32t-105 85q-44 53 -67 122.5t-24 144.5l-2 986h-114l-1 -986q1 -100 33.5 -189t91.5 -155q59 -68 143 -107t189 -39q104 0 188 39.5t144 106.5q59 67 92 155.5t33 188.5z" />
    <glyph glyph-name="V" unicode="V" 
d="M555 0h112l466 1456h-127l-374 -1199l-22 -76l-21 75l-373 1200h-127z" />
    <glyph glyph-name="W" unicode="W" 
d="M290 0h120l208 1125l15 84l15 -84l206 -1125h119l205 1456h-112l-143 -1064l-18 -123l-20 123l-200 1064h-105l-201 -1064l-20 -122l-17 121l-144 1065h-113z" />
    <glyph glyph-name="X" unicode="X" 
d="M629 835l-366 621h-141l439 -717l-453 -739h140l383 642l383 -642h139l-452 739l439 717h-142z" />
    <glyph glyph-name="Y" unicode="Y" 
d="M600 664l-385 792h-139l467 -908l2 -548h112l1 548l468 908h-137z" />
    <glyph glyph-name="Z" unicode="Z" 
d="M269 106l765 1261l-2 89h-879v-105h739l-763 -1257l1 -94h930v106h-791z" />
    <glyph glyph-name="bracketleft" unicode="[" 
d="M798 1561v103h-346v-1976h346v103h-231v1770h231z" />
    <glyph glyph-name="backslash" unicode="\" 
d="M257 1456l608 -1581h112l-608 1581h-112z" />
    <glyph glyph-name="bracketright" unicode="]" 
d="M430 1664v-103h231v-1770h-231v-103h346v1976h-346z" />
    <glyph glyph-name="asciicircum" unicode="^" 
d="M246 668h115l228 563l25 76l24 -76l230 -563h116l-324 788h-90z" />
    <glyph glyph-name="underscore" unicode="_" 
d="M1055 -102v102h-882v-102h882z" />
    <glyph glyph-name="grave" unicode="`" 
d="M775 1233l-177 266h-144l217 -266h104z" />
    <glyph glyph-name="a" unicode="a" 
d="M937 0h128v13q-14 49 -23.5 104.5t-10.5 109.5v523q-1 88 -33 154t-88 111q-56 43 -131 65t-161 22t-161.5 -24t-132.5 -66q-57 -43 -91 -101t-37 -127l120 -1q2 51 27 91.5t66 68.5q40 28 93 43t111 15q63 0 117.5 -16.5t94.5 -47.5t63 -77.5t24 -107.5v-122h-235
q-101 0 -193 -18.5t-161 -59.5q-70 -41 -111.5 -106.5t-41.5 -158.5q0 -69 28 -126t76 -96q48 -40 114 -62.5t141 -22.5q60 0 115.5 12.5t105.5 36.5q49 23 90.5 56.5t72.5 74.5q2 -42 7.5 -83t16.5 -77zM543 87q-53 0 -99 15t-80 42q-35 27 -54.5 66.5t-19.5 87.5
q-1 61 26 103t73 71q56 36 136 50t169 15h218v-237q-23 -48 -60 -87.5t-85 -67.5t-105 -43t-119 -15z" />
    <glyph glyph-name="b" unicode="b" 
d="M1072 530v21q0 75 -12 146t-36 133q-24 58 -57.5 108t-78.5 86q-48 36 -108.5 57t-135.5 21q-54 0 -103.5 -12.5t-91.5 -36.5q-39 -22 -72 -52.5t-58 -68.5v604h-119v-1536h112l4 142q23 -33 53 -59.5t64 -45.5q46 -28 100 -42.5t113 -14.5q70 0 127 19.5t103 52.5
q54 40 92.5 96.5t62.5 124.5q20 59 30.5 124.5t10.5 132.5zM952 551v-21q-1 -52 -7.5 -104t-21.5 -99q-17 -54 -45 -100t-68 -79q-35 -29 -81.5 -45.5t-104.5 -16.5q-51 0 -98 13.5t-87 39.5q-39 26 -70 62.5t-50 81.5v499q18 47 47.5 86.5t68.5 68.5q38 28 85.5 44
t101.5 16q57 0 102.5 -16t80.5 -43q42 -31 70.5 -77.5t46.5 -100.5q15 -49 22 -102.5t8 -106.5z" />
    <glyph glyph-name="c" unicode="c" 
d="M633 82q-96 0 -162.5 38t-107.5 100q-43 62 -62 140t-20 160v42q1 81 20 159t62 141q42 61 108 99t161 38q64 0 119.5 -21t97.5 -58q41 -38 65.5 -89.5t28.5 -112.5h114q-3 83 -36 154t-89 122q-57 51 -133.5 79.5t-166.5 28.5q-119 0 -207 -45t-146 -119
q-59 -76 -88 -173.5t-30 -202.5v-42q1 -105 30 -202.5t88 -171.5q59 -76 147 -121t207 -45q82 0 157.5 27t133.5 74q57 47 93 112t40 142h-114q-5 -58 -31 -105t-68 -79q-43 -34 -97.5 -51.5t-113.5 -17.5z" />
    <glyph glyph-name="d" unicode="d" 
d="M158 551v-21q0 -105 27 -204t79 -175q54 -77 134.5 -124t187.5 -47q99 0 185 40.5t142 117.5l4 -138h112v1536h-120v-600q-53 78 -136 122t-185 44q-111 0 -192 -46.5t-134 -125.5q-51 -74 -77.5 -173t-26.5 -206zM278 530v21q0 80 17.5 159t56.5 143t102 104t157 40
q104 0 182.5 -56.5t115.5 -148.5v-518q-39 -88 -120 -138t-180 -50q-93 0 -155.5 39.5t-101.5 103.5q-38 63 -56 142t-18 159z" />
    <glyph glyph-name="e" unicode="e" 
d="M655 -20q135 0 237 53t164 139l-76 58q-58 -72 -139 -110t-181 -38q-87 1 -158 35t-122 93q-50 56 -78.5 130t-32.5 160v33h810v73q0 103 -29.5 193.5t-85.5 158.5q-57 67 -140.5 105.5t-190.5 38.5q-102 0 -189.5 -42t-152.5 -116q-66 -74 -103.5 -174t-37.5 -216v-43
q0 -109 37 -205.5t104 -169.5q66 -72 159 -114t205 -42zM633 999q77 0 137 -29.5t102 -78.5q41 -49 64.5 -114t23.5 -130v-11h-685q10 78 40 144.5t77 115.5q46 48 107 75.5t134 27.5z" />
    <glyph glyph-name="f" unicode="f" 
d="M475 0h125l-2 983h431v99h-431v86q0 80 24.5 139t66.5 94q42 33 97.5 47.5t126.5 14.5q53 0 102 -7t92 -18l15 102q-26 7 -51.5 11.5t-51.5 7.5q-29 4 -58.5 6.5t-60.5 2.5q-87 0 -163.5 -21t-133.5 -68q-57 -48 -91 -124t-35 -187v-86h-296v-99h296z" />
    <glyph glyph-name="g" unicode="g" 
d="M159 551v-21q0 -106 27 -207.5t83 -177.5q53 -75 132 -120t186 -45q54 0 104.5 12.5t94.5 35.5q37 19 68.5 45.5t55.5 60.5v-119q0 -77 -21.5 -140t-61.5 -108q-42 -46 -101.5 -71t-136.5 -25q-49 0 -93.5 12.5t-84.5 36.5q-33 18 -64.5 45t-60.5 62l-67 -73
q32 -44 73.5 -76.5t86.5 -54.5q53 -27 109 -40.5t109 -13.5q100 0 180 33t136 93q56 59 86.5 141.5t30.5 182.5v1063h-111l-5 -151q-23 35 -52.5 64t-64.5 50q-44 28 -96.5 42.5t-111.5 14.5q-113 0 -194.5 -48t-133.5 -126q-52 -77 -77 -174t-25 -203zM279 530v21
q0 80 17 158t55 141q38 64 102 105.5t159 41.5q53 0 99.5 -15.5t84.5 -43.5t67 -66t47 -85v-508q-18 -45 -48.5 -81t-68.5 -61q-40 -25 -86 -38t-97 -13q-88 0 -151 37t-101 97q-41 63 -59.5 145t-19.5 165z" />
    <glyph glyph-name="h" unicode="h" 
d="M314 871v665h-120v-1536h120v744q17 51 48.5 96t73.5 78q45 37 100.5 58t117.5 21q71 1 123.5 -20.5t87.5 -62.5q33 -39 49 -95.5t17 -126.5v-692h120v691q-1 98 -25 174.5t-70 129.5q-47 53 -115.5 80t-157.5 27q-68 0 -128 -20t-109 -56q-41 -29 -74.5 -68.5
t-57.5 -86.5z" />
    <glyph glyph-name="i" unicode="i" 
d="M221 1082v-107h383v-868h-383v-107h871v107h-369v975h-502zM569 1378q0 -36 21 -62t69 -26t69.5 26t21.5 62q0 20 -5.5 37t-17.5 30q-11 11 -28 18t-40 7t-40 -7t-28 -18q-12 -13 -17 -30.5t-5 -36.5z" />
    <glyph glyph-name="j" unicode="j" 
d="M301 1082v-107h391v-975q0 -93 -24 -156t-64 -102q-41 -40 -95.5 -57t-114.5 -17q-15 0 -40 0.5t-51 2.5q-28 1 -54.5 3.5t-44.5 5.5l-9 -100q27 -4 50.5 -7.5t47.5 -5.5q26 -2 53 -3t57 -1q96 0 172 30.5t129 86.5q52 56 79.5 137t27.5 183v1082h-510zM652 1379
q0 -36 21 -62t70 -26q48 0 69.5 26t21.5 62q0 38 -22 64.5t-69 26.5q-48 0 -69.5 -26.5t-21.5 -64.5z" />
    <glyph glyph-name="k" unicode="k" 
d="M491 546l464 -546h153l-533 627l483 455h-152l-440 -405l-129 -126v985h-120v-1536h120v411z" />
    <glyph glyph-name="l" unicode="l" 
d="M221 1536v-107h385v-1322h-385v-107h871v107h-367v1429h-504z" />
    <glyph glyph-name="m" unicode="m" 
d="M197 1082h-107v-1082h112l1 825q8 30 20 60t33 54q22 26 56.5 41.5t86.5 16.5q47 1 77.5 -14t48.5 -40q18 -26 25 -59.5t7 -67.5l1 -816h113l1 815q0 5 -0.5 9t-0.5 9q7 30 20 59t35 52q23 23 57 37.5t84 15.5q49 1 80 -15.5t49 -43.5q18 -28 24.5 -63t6.5 -70l1 -805
h113l1 804q0 62 -13 116.5t-43 95.5q-27 39 -75 62.5t-116 23.5q-47 0 -85.5 -12t-69.5 -32q-29 -19 -51 -44t-37 -53q-10 29 -26 54t-40 44q-27 20 -64 31.5t-85 11.5q-89 -1 -146.5 -39.5t-89.5 -102.5z" />
    <glyph glyph-name="n" unicode="n" 
d="M193 0h120v739q17 53 48.5 99t72.5 80q45 36 100 57.5t117 21.5q71 1 122.5 -19t86.5 -59q34 -39 50.5 -96t17.5 -131v-692h120l-1 694q0 97 -24 173.5t-70 128.5q-47 52 -115.5 79t-157.5 27q-67 0 -126 -19.5t-109 -54.5q-42 -29 -76 -69t-59 -87l-6 210h-111v-1082z
" />
    <glyph glyph-name="o" unicode="o" 
d="M132 557v-32q0 -111 33 -210t96 -173q61 -75 151 -118.5t204 -43.5q113 0 202.5 44t151.5 118q61 75 94 173.5t33 209.5v32q0 111 -33 210t-95 173q-62 75 -151.5 118.5t-203.5 43.5t-203 -44t-151 -118q-62 -75 -95 -174t-33 -209zM251 525v32q1 85 24.5 165t70.5 141
q45 62 112.5 99t155.5 37t155.5 -37t114.5 -99q45 -61 69 -141t25 -165v-32q-1 -86 -24.5 -166t-68.5 -141q-47 -62 -114 -99t-155 -37q-89 0 -157 37t-113 98q-47 62 -70.5 142t-24.5 166z" />
    <glyph glyph-name="p" unicode="p" 
d="M197 -416h119v547q24 -32 55.5 -58t67.5 -44q45 -24 96.5 -36.5t107.5 -12.5q109 0 189 46t132 122q51 76 77.5 176t26.5 206v21q-1 114 -28.5 218t-84.5 181q-54 71 -131.5 111.5t-183.5 40.5q-55 0 -106 -13t-95 -38q-37 -21 -69.5 -51t-56.5 -67l-5 149h-111v-1498z
M948 551v-21q-1 -83 -19.5 -165t-59.5 -146q-40 -60 -102.5 -98t-151.5 -38q-50 0 -97 13t-86 38q-38 23 -67.5 56.5t-48.5 75.5v528q19 46 49 83.5t69 64.5q37 26 82.5 40.5t96.5 14.5q87 0 148 -35t102 -91q44 -66 64.5 -150t20.5 -170z" />
    <glyph glyph-name="q" unicode="q" 
d="M159 551v-21q0 -106 26.5 -206.5t80.5 -176.5t134 -121.5t189 -45.5q51 0 99 11t90 32q39 18 72 44.5t60 60.5v-544h119v1498h-112l-4 -143q-24 35 -55 63.5t-67 48.5q-44 25 -94.5 38t-105.5 13q-110 0 -192 -44t-134 -120q-55 -82 -80.5 -180t-25.5 -207zM279 530v21
q0 82 17.5 162t61.5 147q40 62 102.5 100.5t152.5 38.5q50 0 95.5 -14.5t84.5 -41.5q38 -26 67.5 -62.5t49.5 -80.5v-535q-21 -43 -52 -77.5t-71 -57.5q-38 -23 -83 -35t-93 -12q-91 0 -153.5 39.5t-101.5 100.5q-40 64 -58.5 145t-18.5 162z" />
    <glyph glyph-name="r" unicode="r" 
d="M909 1102q-147 1 -255.5 -61t-171.5 -173l-1 48l-7 166h-114v-1082h124l-2 693q20 74 57.5 128.5t88.5 90.5q53 37 119.5 54.5t142.5 17.5q44 0 86 -5t83 -14l16 116q-31 10 -76.5 15.5t-89.5 5.5z" />
    <glyph glyph-name="s" unicode="s" 
d="M948 276q0 -38 -16.5 -69t-46.5 -55q-46 -35 -109 -52.5t-134 -17.5q-54 0 -110.5 10.5t-103.5 36.5t-79.5 68.5t-38.5 106.5h-120q3 -74 38.5 -134t97.5 -102q60 -41 142 -64.5t174 -23.5q85 0 167 21t144 65q51 37 83 91.5t32 124.5q0 74 -33.5 126.5t-89.5 89.5
q-57 37 -132 61t-157 42q-64 13 -122.5 29.5t-100.5 41.5q-42 23 -64 57.5t-22 81.5t25 82.5t65 58.5q40 24 91.5 35.5t106.5 11.5q58 0 112.5 -15t97.5 -43q42 -28 68.5 -69t27.5 -93h121q-3 77 -37.5 137t-91.5 102q-57 41 -133.5 62.5t-164.5 21.5q-78 0 -151.5 -20
t-128.5 -56q-58 -39 -92.5 -94t-34.5 -125q0 -74 34.5 -125.5t90.5 -84.5q60 -35 129 -57t152 -39q66 -14 127 -34t104 -48q39 -25 61 -60.5t22 -82.5z" />
    <glyph glyph-name="t" unicode="t" 
d="M593 1359h-122v-277h-301v-99h301v-678q1 -89 26.5 -150.5t70.5 -100.5t106.5 -56.5t133.5 -17.5q35 0 70.5 2.5t68.5 7.5q26 4 49.5 10.5t42.5 14.5l-19 91q-15 -2 -35 -5.5t-42 -6.5q-28 -4 -57 -6t-58 -2q-49 0 -91.5 11t-74.5 37q-32 25 -50.5 66.5t-19.5 104.5v678
h401v99h-401z" />
    <glyph glyph-name="u" unicode="u" 
d="M926 0h112v1082h-121v-762q-14 -53 -41.5 -95.5t-67.5 -71.5q-43 -33 -100 -50.5t-127 -17.5q-67 0 -116 21t-82 63t-49 103.5t-16 142.5v667h-120v-665q1 -104 25 -185.5t71 -136.5q47 -56 115.5 -85.5t158.5 -29.5q122 0 211 50.5t142 140.5z" />
    <glyph glyph-name="v" unicode="v" 
d="M564 0h98l455 1082h-125l-355 -877l-23 -66l-23 67l-358 876h-126z" />
    <glyph glyph-name="w" unicode="w" 
d="M302 0h98l188 738l33 170l31 -170l191 -738h98l239 1082h-110l-148 -729l-35 -192l-41 192l-182 729h-85l-183 -729l-40 -184l-32 184l-151 729h-110z" />
    <glyph glyph-name="x" unicode="x" 
d="M625 642l-335 440h-143l412 -531l-429 -551h144l352 460l354 -460h142l-429 551l412 531h-144z" />
    <glyph glyph-name="y" unicode="y" 
d="M250 -437q70 0 123.5 23.5t94.5 60.5q40 37 70 84t52 96l559 1255h-136l-352 -824l-39 -94l-39 97l-372 821h-135l487 -1055l-74 -158q-16 -34 -38 -69t-52 -64t-67.5 -47t-83.5 -18q-18 0 -40.5 2t-45.5 5l-14 -101q21 -5 49.5 -9.5t52.5 -4.5z" />
    <glyph glyph-name="z" unicode="z" 
d="M307 103l739 890v89h-875v-104h714l-736 -888v-90h949v103h-791z" />
    <glyph glyph-name="braceleft" unicode="{" 
d="M974 -403l21 80q-68 14 -117.5 49t-81.5 86q-33 50 -49.5 113.5t-16.5 134.5v207q-2 124 -63 208.5t-175 119.5q114 35 176 119t62 210v208q0 69 12.5 132t41.5 113q31 53 82 89.5t126 50.5l-18 80q-93 -15 -162 -57t-113 -104q-45 -62 -67 -140.5t-22 -163.5v-208
q-1 -139 -72 -206t-207 -69v-106q136 -3 207 -70t72 -206v-207q0 -85 23 -162t67 -138q46 -63 114.5 -105.5t159.5 -57.5z" />
    <glyph glyph-name="bar" unicode="|" 
d="M666 -334v1790h-102v-1790h102z" />
    <glyph glyph-name="braceright" unicode="}" 
d="M331 -323l20 -80q89 14 156 55t113 101q47 62 71 141t24 166v207q0 65 16.5 114.5t47.5 83.5q35 38 89 57t126 21v106q-76 1 -132 22t-91 64q-27 34 -41 81t-15 108v208q0 95 -27 179t-82 149q-44 52 -107.5 88t-147.5 49l-17 -80q67 -11 114 -43t77 -77
q36 -52 53 -120.5t18 -144.5v-208q0 -76 22.5 -137.5t65.5 -105.5q29 -29 66.5 -51t82.5 -35q-45 -13 -82.5 -34.5t-66.5 -50.5q-43 -45 -65.5 -106.5t-22.5 -136.5v-207q-1 -71 -17.5 -134t-48.5 -114q-33 -51 -82.5 -86t-116.5 -49z" />
    <glyph glyph-name="asciitilde" unicode="~" 
d="M1169 746l-95 10q-1 -44 -14 -85t-36 -71q-25 -32 -60 -50.5t-80 -18.5q-34 -1 -65 8.5t-59 25.5q-27 15 -53 35.5t-53 43.5q-35 30 -71 56.5t-73 46.5q-38 19 -79 30t-87 11q-68 0 -120 -26t-88 -70q-37 -44 -56 -102.5t-20 -121.5l94 -9q1 45 13.5 85t36.5 70t59 48
t81 18q31 0 58.5 -7.5t53.5 -20.5q30 -15 59.5 -37t59.5 -47q36 -32 71.5 -58.5t73.5 -45.5q37 -20 77 -30.5t87 -10.5q66 0 118.5 27t89.5 72q36 44 56 102.5t21 121.5z" />
    <glyph glyph-name="nonbreakingspace" unicode="&#xa0;" 
 />
    <glyph glyph-name="exclamdown" unicode="&#xa1;" 
d="M558 654v-1019h120v1019h-120zM699 1019q0 36 -23.5 60t-62.5 24t-62.5 -24t-23.5 -60q0 -34 23.5 -58t62.5 -24q40 0 63 24t23 58z" />
    <glyph glyph-name="cent" unicode="&#xa2;" 
d="M637 82q-95 0 -161.5 38t-108.5 100t-61.5 140t-19.5 160v42q0 81 19.5 159t61.5 141q42 61 108.5 99t160.5 38q65 0 120.5 -21t96.5 -58q41 -38 66 -89.5t28 -112.5h115q-3 76 -31.5 141.5t-76.5 115.5t-113.5 82t-143.5 41v220h-121v-221q-103 -11 -180 -59t-128 -121
q-51 -74 -76.5 -165.5t-25.5 -189.5v-42q0 -98 25.5 -189.5t76.5 -164.5t128 -121.5t180 -58.5v-231h121v230q73 9 137.5 38.5t113.5 75.5t79.5 106t34.5 130h-115q-4 -58 -30.5 -105t-68.5 -79q-42 -34 -96.5 -51.5t-114.5 -17.5z" />
    <glyph glyph-name="sterling" unicode="&#xa3;" 
d="M441 647h342v103h-345l-9 289q0 70 18.5 131.5t53.5 106.5t87 71t118 26q62 0 112.5 -19t88.5 -55q36 -37 56.5 -90t22.5 -121h120q-1 85 -28 156t-77 123q-51 51 -123 79.5t-163 28.5q-94 0 -169.5 -33.5t-127.5 -91.5q-53 -59 -81 -139t-28 -173l9 -289h-184v-103h188
l9 -279q0 -32 -3 -73.5t-13 -79.5q-10 -39 -29 -70t-50 -42h-98v-103h995v103h-748q18 24 30 52t19 58q9 37 13 76.5t3 78.5z" />
    <glyph glyph-name="currency" unicode="&#xa4;" 
d="M957 118l129 -145l86 88l-137 152q49 77 74.5 166.5t25.5 182.5q0 97 -27.5 190t-80.5 171l145 162l-86 88l-141 -158q-61 58 -139.5 92.5t-171.5 34.5t-171 -34t-139 -92l-138 156l-85 -87l141 -159q-54 -77 -81.5 -172t-27.5 -192q0 -94 25.5 -185t75.5 -167l-133 -149
l85 -87l126 143q63 -63 144 -100t178 -37q98 0 179 37t144 101zM246 562q0 88 30 175.5t85 156.5q50 60 119 98t154 38t154 -37.5t119 -97.5q55 -68 84.5 -156.5t29.5 -176.5q0 -87 -27.5 -172t-79.5 -151q-50 -65 -121 -106t-159 -41q-87 0 -157.5 40t-120.5 104
q-52 66 -81 152t-29 174z" />
    <glyph glyph-name="yen" unicode="&#xa5;" 
d="M553 0h119v326h420v88h-420v204h420v88h-370l454 750h-139l-386 -654l-35 -68h-3l-35 68l-386 654h-139l453 -750h-367v-88h414v-204h-414v-88h414v-326z" />
    <glyph glyph-name="brokenbar" unicode="&#xa6;" 
d="M544 -270h119v772h-119v-772zM663 698v758h-119v-758h119z" />
    <glyph glyph-name="section" unicode="&#xa7;" 
d="M1121 431q0 79 -26.5 137t-75.5 100q-34 31 -76.5 54.5t-90.5 42.5t-100 34.5t-104 29.5q-45 13 -88 26t-81 28q-40 16 -74.5 35t-59.5 43q-35 30 -52 69t-17 92q0 60 26.5 106t71.5 80q48 32 113.5 49t138.5 17q79 0 144 -24.5t111 -67.5q46 -44 71.5 -104.5
t27.5 -132.5h119q-1 103 -35 183t-95 136q-62 54 -148.5 83t-194.5 29q-94 0 -179 -22.5t-150 -67.5q-64 -45 -102 -112t-38 -154q0 -64 16.5 -113t47.5 -87q24 -29 55.5 -52.5t67.5 -41.5q-43 -12 -81.5 -31t-67.5 -46q-39 -36 -61 -85.5t-22 -112.5q-1 -80 26.5 -138.5
t76.5 -101.5q35 -33 80.5 -58t95.5 -45q57 -23 119.5 -40.5t118.5 -34.5q63 -19 121 -39.5t102 -49.5q50 -32 78 -76.5t27 -107.5q0 -63 -28.5 -110t-76.5 -78q-49 -32 -112 -48t-132 -16q-74 0 -142.5 19.5t-121.5 60.5q-53 40 -85 102.5t-34 147.5l-119 -2
q1 -112 42.5 -193.5t110.5 -133.5q69 -53 159.5 -78.5t189.5 -25.5q95 0 180 22t150 67q64 44 101.5 111t37.5 157q0 61 -17 109.5t-47 85.5q-26 32 -62 57.5t-76 45.5q42 10 82.5 27.5t72.5 42.5q42 36 66.5 85.5t24.5 115.5zM598 729q48 -14 95 -28t90 -31
q40 -16 76 -34.5t64 -42.5q39 -32 59.5 -72t19.5 -93t-25.5 -92t-63.5 -64q-36 -24 -80 -36.5t-88 -18.5q-65 21 -114.5 35t-96.5 29q-56 18 -104 38t-84 45q-60 35 -87.5 79.5t-27.5 109.5q1 53 21 92.5t56 66.5q31 24 72 37.5t85 19.5q32 -11 65 -21t68 -19z" />
    <glyph glyph-name="dieresis" unicode="&#xa8;" 
d="M311 1396q0 -33 22 -56.5t60 -23.5t60.5 23.5t22.5 56.5q0 34 -22.5 57.5t-60.5 23.5t-60 -23.5t-22 -57.5zM748 1395q0 -33 22 -56.5t60 -23.5t60.5 23.5t22.5 56.5q0 34 -22.5 58t-60.5 24t-60 -24t-22 -58z" />
    <glyph glyph-name="copyright" unicode="&#xa9;" 
d="M854 450h-79q-2 -31 -10 -59.5t-25 -50.5q-18 -23 -48.5 -36t-76.5 -13q-44 1 -76 18.5t-52 46.5q-25 36 -34 77.5t-9 80.5v68q0 36 8.5 74.5t28.5 70.5t53 52.5t81 20.5q46 0 76.5 -12.5t48.5 -33.5q18 -22 26 -49.5t10 -58.5h79q0 46 -13 87t-41 73q-29 32 -75.5 51
t-110.5 19q-68 0 -116 -27.5t-77 -69.5q-31 -41 -45.5 -93.5t-14.5 -104.5v-67q0 -54 16.5 -110t48.5 -99q32 -42 79.5 -66t108.5 -24q63 0 109.5 19.5t75.5 52.5q28 32 41 74t13 89zM158 547q0 88 30.5 174t89.5 155q60 70 146.5 112.5t198.5 42.5q103 0 186.5 -38
t142.5 -99q67 -70 101 -162t34 -185q0 -96 -34.5 -190t-100.5 -164q-58 -65 -142 -103.5t-187 -38.5q-113 0 -199 43.5t-147 116.5q-56 67 -87.5 156.5t-31.5 179.5zM87 547q0 -106 36 -207t103 -179q67 -82 168 -132t229 -50q119 0 215 43.5t165 117.5q74 80 114.5 187.5
t40.5 219.5q0 109 -40 214.5t-115 184.5q-70 73 -165.5 115.5t-214.5 42.5q-123 0 -223 -47t-168 -124q-70 -79 -107 -179t-38 -207z" />
    <glyph glyph-name="ordfeminine" unicode="&#xaa;" 
d="M816 705h112q-13 45 -19.5 89.5t-6.5 91.5v314q-1 64 -20.5 115.5t-54.5 87.5q-36 35 -87 54t-114 19t-117.5 -15.5t-95.5 -45.5t-66 -73t-27 -99l108 -6q1 37 16.5 63.5t40.5 43.5q27 18 63 26.5t78 8.5q41 0 71.5 -12.5t51.5 -34.5q21 -24 31.5 -57t12.5 -74v-60h-160
q-66 -1 -126 -13.5t-105 -40.5t-72 -72t-27 -106q0 -53 19 -93.5t52 -67.5q34 -28 81 -42.5t101 -14.5q46 1 86.5 13.5t72.5 33.5q24 15 44 35t36 42q2 -29 7.5 -56.5t13.5 -53.5zM576 787q-37 0 -68 8.5t-53 25.5q-21 14 -32.5 37.5t-11.5 54.5q0 39 18 65.5t47 43.5
q31 18 72.5 26.5t85.5 9.5h159v-141q-9 -27 -32.5 -51t-53.5 -41q-31 -18 -66 -28t-65 -10z" />
    <glyph glyph-name="guillemotleft" unicode="&#xab;" 
d="M369 520l276 390h-106l-295 -380v-19l295 -379h106zM704 520l276 390h-106l-295 -380v-19l295 -379h106z" />
    <glyph glyph-name="logicalnot" unicode="&#xac;" 
d="M1010 386v391h-812v-107h692v-284h120z" />
    <glyph glyph-name="uni00AD" unicode="&#xad;" 
d="M979 600v103h-742v-103h742z" />
    <glyph glyph-name="registered" unicode="&#xae;" 
d="M84 540q0 -109 38.5 -212t108.5 -181q68 -77 166.5 -122.5t222.5 -45.5q127 0 227 49t168 126q67 77 103.5 178t36.5 208q0 111 -40.5 218t-115.5 185q-68 71 -164 113.5t-215 42.5q-118 0 -213.5 -42t-163.5 -113q-77 -79 -118 -185.5t-41 -218.5zM155 540
q0 94 33.5 185.5t99.5 162.5q59 62 143 100t189 38q103 0 186 -37.5t143 -98.5q67 -70 101 -162.5t34 -187.5q0 -91 -31 -178.5t-90 -156.5q-60 -69 -146 -111t-197 -42q-109 0 -194 41t-144 106q-63 69 -95 158.5t-32 182.5zM495 492h147l135 -258h84l-153 283
q66 18 101.5 57.5t35.5 97.5q1 89 -59 136.5t-165 48.5h-206v-623h80v258zM495 566v215h126q75 -2 109.5 -28.5t34.5 -82.5q0 -22 -9 -40.5t-25 -32.5q-17 -14 -41.5 -22t-55.5 -9h-139z" />
    <glyph glyph-name="macron" unicode="&#xaf;" 
d="M950 1358v98h-671v-98h671z" />
    <glyph glyph-name="macron" unicode="&#x2c9;" 
d="M950 1358v98h-671v-98h671z" />
    <glyph glyph-name="degree" unicode="&#xb0;" 
d="M371 1226q0 -51 19.5 -96t52.5 -78q34 -33 78.5 -52.5t94.5 -19.5q49 0 93.5 19t77.5 54q32 33 51 77.5t19 95.5q0 50 -19 95.5t-52 80.5q-33 34 -77 54t-93 20q-50 0 -94.5 -20t-78.5 -54q-33 -34 -52.5 -79.5t-19.5 -96.5zM460 1226q0 33 12.5 62t33.5 51
q20 22 48.5 34t61.5 12t60.5 -12.5t48.5 -33.5q20 -22 31.5 -51t11.5 -62q0 -32 -11.5 -60t-31.5 -49q-21 -22 -49 -33.5t-60 -11.5t-60.5 11.5t-49.5 33.5q-21 20 -33.5 48.5t-12.5 60.5z" />
    <glyph glyph-name="plusminus" unicode="&#xb1;" 
d="M681 830v437h-111v-437h-414v-103h414v-438h111v438h391v103h-391zM1039 0v103h-835v-103h835z" />
    <glyph glyph-name="twosuperior" unicode="&#xb2;" 
d="M923 667v89h-438l213 196q36 34 69 68t60 69q25 35 41 72.5t16 79.5q0 54 -20.5 96t-55.5 71q-36 29 -85 44t-107 15q-61 0 -113 -18.5t-89 -50.5q-38 -34 -59.5 -80t-23.5 -101h106q2 38 15 67.5t36 50.5t56 32t74 11q34 0 63.5 -9t51.5 -27q21 -18 33 -44t12 -59
q0 -29 -12.5 -57.5t-34.5 -57.5q-18 -25 -41.5 -49.5t-48.5 -48.5l-289 -283v-76h571z" />
    <glyph glyph-name="threesuperior" unicode="&#xb3;" 
d="M534 1109v-83h77q43 0 81.5 -9t66.5 -29q24 -16 38.5 -41t14.5 -62q0 -34 -13.5 -60.5t-36.5 -43.5q-24 -19 -58 -28.5t-72 -9.5q-39 0 -73 10t-60 30q-24 18 -39 43.5t-17 59.5h-106q2 -59 27.5 -102.5t66.5 -71.5q40 -29 91.5 -43t107.5 -14q57 0 109 14.5t92 43.5
q40 28 63.5 70.5t23.5 98.5q0 40 -12.5 71t-35.5 55q-21 22 -51.5 37.5t-66.5 24.5q30 10 55.5 24.5t44.5 34.5q23 23 36 52t13 64q0 54 -21 95.5t-59 70.5q-37 27 -87.5 41t-106.5 14t-105 -14.5t-86 -42.5q-37 -29 -60 -69.5t-25 -92.5h105q2 29 14.5 52.5t32.5 38.5
q23 20 55 29.5t70 9.5q35 0 65.5 -8.5t53.5 -24.5q23 -18 36 -43.5t13 -57.5q0 -36 -16.5 -62t-44.5 -43q-25 -15 -57.5 -22t-66.5 -7h-77z" />
    <glyph glyph-name="acute" unicode="&#xb4;" 
d="M634 1499l-184 -266h100l229 266h-145z" />
    <glyph glyph-name="mu" unicode="&#xb5;" 
d="M325 1082h-119v-1498h119v527q43 -60 112.5 -95.5t158.5 -35.5q62 0 112 15t91 43q34 24 61.5 57t47.5 73l6 -168h109v1082h-120v-723q-8 -56 -27 -104t-52 -84q-38 -42 -96.5 -65.5t-139.5 -23.5q-68 0 -117 24.5t-81 72.5q-33 47 -48.5 115.5t-16.5 155.5v632z" />
    <glyph glyph-name="paragraph" unicode="&#xb6;" 
d="M831 0h120v1456h-226q-111 0 -201.5 -34.5t-155.5 -95.5q-64 -62 -99.5 -147.5t-35.5 -190.5t35 -191t100 -147q64 -61 155 -95t202 -35h106v-520z" />
    <glyph glyph-name="periodcentered" unicode="&#xb7;" 
d="M535 717q0 -34 22.5 -58t62.5 -24q39 0 62 24t23 58q0 36 -23 60.5t-62 24.5q-40 0 -62.5 -24.5t-22.5 -60.5z" />
    <glyph glyph-name="cedilla" unicode="&#xb8;" 
d="M624 0h-93l-28 -127q35 -4 66.5 -9.5t56.5 -16.5q24 -12 38.5 -32t13.5 -52q0 -34 -19.5 -57t-48.5 -36q-29 -14 -64.5 -20t-68.5 -7l7 -78q52 1 102.5 11t90.5 30q46 24 73.5 63.5t27.5 95.5q0 42 -13.5 72t-36.5 50t-53 32t-62 17z" />
    <glyph glyph-name="onesuperior" unicode="&#xb9;" 
d="M743 665v790h-13l-324 -107v-90l232 69v-662h105z" />
    <glyph glyph-name="ordmasculine" unicode="&#xba;" 
d="M291 1141v-117q1 -70 23.5 -131t64.5 -106q41 -45 101 -71t136 -26t135 26t101 72q41 45 63 106t23 130v117q-1 70 -23 131.5t-64 106.5t-101.5 71t-135.5 26q-75 0 -134.5 -26t-100.5 -71q-42 -45 -64.5 -106.5t-23.5 -131.5zM400 1024v117q0 49 14 92t41 76
q27 32 66.5 51t92.5 19t93 -18.5t68 -50.5q27 -33 41 -76.5t14 -92.5v-117q0 -49 -14 -92t-41 -75q-27 -33 -66.5 -51.5t-92.5 -18.5q-54 0 -94 18.5t-67 50.5t-41 75t-14 93z" />
    <glyph glyph-name="guillemotright" unicode="&#xbb;" 
d="M352 945h-106l275 -395l-275 -388h106l294 379v19zM697 945h-106l275 -395l-275 -388h106l294 379v19z" />
    <glyph glyph-name="onequarter" unicode="&#xbc;" 
d="M358 751v711h-12l-291 -96v-81l209 62v-596h94zM1039 249v461h-99l-357 -482l3 -60h359v-168h94v168h114v81h-114zM685 249l233 298l27 45v-343h-260zM367 180l524 1046l-82 49l-524 -1046z" />
    <glyph glyph-name="onehalf" unicode="&#xbd;" 
d="M356 747v711h-12l-291 -96v-81l209 62v-596h94zM1164 0v80h-393l191 177q32 30 62 60.5t54 62.5q23 32 37 65.5t14 71.5q0 48 -18 86t-50 64q-33 26 -77 39.5t-95 13.5q-56 0 -102.5 -16.5t-80.5 -45.5q-34 -31 -53 -72.5t-21 -90.5h95q2 34 14 61t33 46q21 18 50.5 28
t65.5 10q31 0 57 -8t45 -24q20 -16 31 -39.5t11 -53.5q0 -25 -10.5 -49.5t-27.5 -48.5t-39 -47t-46 -47l-260 -254v-69h513zM324 180l525 1046l-83 49l-523 -1046z" />
    <glyph glyph-name="threequarters" unicode="&#xbe;" 
d="M1068 249v462h-100l-357 -482l3 -60h359v-168h95v168h114v80h-114zM714 249l232 299l27 44v-343h-259zM227 1142v-74h69q36 0 69 -6.5t58 -21.5q25 -14 39.5 -38.5t14.5 -60.5q0 -30 -12 -54t-33 -40q-23 -17 -52.5 -25.5t-63.5 -8.5q-37 0 -68 9.5t-54 27.5
q-21 16 -34 39t-15 53h-95q2 -53 25 -92t59 -65t82.5 -38.5t96.5 -12.5q52 0 98.5 13t82.5 39t57 64t21 88q0 38 -12 67t-34 50q-19 19 -45.5 32t-57.5 21q27 9 50 22t41 30q20 21 32 47.5t12 57.5q0 49 -19.5 86.5t-53.5 62.5q-33 25 -78.5 37.5t-96.5 12.5
q-50 0 -93.5 -13t-77.5 -38q-34 -26 -54.5 -62.5t-21.5 -83.5h94q2 27 13.5 48.5t30.5 36.5q21 16 49.5 24t61.5 8q32 0 60.5 -8t48.5 -25q19 -15 30.5 -37.5t11.5 -50.5q0 -31 -14.5 -54t-38.5 -38q-23 -14 -52 -21t-62 -8h-69zM439 176l524 1046l-82 48l-524 -1046z" />
    <glyph glyph-name="questiondown" unicode="&#xbf;" 
d="M696 684h-120q0 -40 -2.5 -71.5t-11.5 -59.5q-9 -29 -27 -55t-48 -54q-48 -45 -94 -95t-81 -106q-36 -57 -57.5 -121t-21.5 -136q0 -84 26 -152.5t76 -117.5q49 -49 120 -75.5t159 -26.5q84 0 153.5 25.5t120.5 73.5q50 47 78.5 113.5t30.5 147.5h-120q-2 -59 -22 -106
t-55 -80t-82.5 -50t-103.5 -17q-63 0 -112 19t-82 55q-33 34 -50.5 83.5t-17.5 109.5t17.5 111.5t47.5 96.5q29 46 66 87.5t76 81.5q43 39 69.5 71.5t41.5 67.5q14 35 19.5 77.5t6.5 102.5zM545 1017q0 -34 23 -58t62 -24q40 0 62.5 24t22.5 58q0 35 -22.5 59.5t-62.5 24.5
q-39 0 -62 -24.5t-23 -59.5z" />
    <glyph glyph-name="Agrave" unicode="&#xc0;" 
d="M904 406l129 -406h120l-469 1456h-109l-473 -1456h120l130 406h552zM385 514l244 762l242 -762h-486zM691 1566l-177 266h-144l217 -266h104z" />
    <glyph glyph-name="Aacute" unicode="&#xc1;" 
d="M904 406l129 -406h120l-469 1456h-109l-473 -1456h120l130 406h552zM385 514l244 762l242 -762h-486zM753 1830l-184 -266h100l229 266h-145z" />
    <glyph glyph-name="Acircumflex" unicode="&#xc2;" 
d="M904 406l129 -406h120l-469 1456h-109l-473 -1456h120l130 406h552zM385 514l244 762l242 -762h-486zM910 1609l-241 241h-76l-237 -239v-20h108l167 174l168 -174h111v18z" />
    <glyph glyph-name="Atilde" unicode="&#xc3;" 
d="M904 406l129 -406h120l-469 1456h-109l-473 -1456h120l130 406h552zM385 514l244 762l242 -762h-486zM955 1826l-78 15q-2 -25 -10 -47t-21 -38q-14 -17 -34 -27t-45 -10q-40 0 -72.5 17t-63.5 38q-32 20 -66 37.5t-76 17.5q-43 0 -77 -16.5t-58 -44.5q-25 -28 -39 -65
t-15 -78l79 -12q2 36 20.5 63.5t47.5 35.5q20 9 41.5 10.5t46.5 -3.5q29 -6 52.5 -20.5t54.5 -32.5q27 -18 56.5 -31.5t68.5 -13.5q42 0 76.5 16.5t58.5 45.5q25 27 38.5 64.5t14.5 78.5z" />
    <glyph glyph-name="Adieresis" unicode="&#xc4;" 
d="M904 406l129 -406h120l-469 1456h-109l-473 -1456h120l130 406h552zM385 514l244 762l242 -762h-486zM323 1729q0 -33 22 -56.5t60 -23.5t60.5 23.5t22.5 56.5q0 34 -22.5 57.5t-60.5 23.5t-60 -23.5t-22 -57.5zM760 1728q0 -33 22 -56.5t60 -23.5t60.5 23.5t22.5 56.5
q0 34 -22.5 58t-60.5 24t-60 -24t-22 -58z" />
    <glyph glyph-name="Aring" unicode="&#xc5;" 
d="M904 406l129 -406h120l-469 1456h-109l-473 -1456h120l130 406h552zM385 514l244 762l242 -762h-486zM445 1717q0 -38 14.5 -71.5t39.5 -57.5q24 -25 58 -39t72 -14q39 0 72 14t58 39q25 24 39 57.5t14 71.5q0 39 -14 73t-39 59t-58 40t-72 15q-38 0 -72 -15t-58 -40
q-25 -25 -39.5 -59t-14.5 -73zM522 1717q0 25 8.5 46t22.5 37q14 14 34 23t42 9q24 0 43 -9t34 -24q14 -16 22 -37t8 -45q0 -23 -8 -43t-22 -35q-15 -15 -34.5 -23.5t-42.5 -8.5t-42.5 8.5t-33.5 24.5q-15 15 -23 35t-8 42z" />
    <glyph glyph-name="AE" unicode="&#xc6;" 
d="M1172 0v103h-394l-9 604h331v103h-332l-9 543h382v103h-534l-552 -1456h126l140 389h341l6 -389h504zM362 503l287 793l13 -793h-300z" />
    <glyph glyph-name="Ccedilla" unicode="&#xc7;" 
d="M1100 442h-119q-12 -75 -38.5 -141t-69.5 -115q-44 -49 -106.5 -76.5t-145.5 -27.5q-72 0 -127 24t-96 65q-42 40 -70.5 93.5t-46.5 114.5q-19 59 -27 122t-9 122v212q1 59 9 121.5t27 122.5q18 60 47 113.5t70 93.5t96.5 63.5t126.5 24.5q83 0 145 -28.5t106 -77.5
q44 -50 70.5 -116t38.5 -141h119q-12 100 -48.5 185.5t-96.5 148.5q-61 62 -145 97t-189 34q-88 0 -158 -26.5t-124 -72.5q-55 -46 -95 -108.5t-66 -133.5t-39 -148.5t-14 -153.5v-210q1 -77 14 -153.5t39 -148.5q26 -71 65.5 -133t95.5 -108q54 -46 124.5 -73t157.5 -27
q104 0 187.5 35t144.5 98q60 61 97.5 146t49.5 183zM661 -4h-93l-28 -127q35 -4 66.5 -9.5t56.5 -16.5q24 -12 38.5 -32t13.5 -52q0 -34 -19.5 -57t-48.5 -36q-29 -14 -64.5 -20t-68.5 -7l7 -78q52 1 102.5 11t90.5 30q46 24 73.5 63.5t27.5 95.5q0 42 -13.5 72t-36.5 50
t-53 32t-62 17z" />
    <glyph glyph-name="Egrave" unicode="&#xc8;" 
d="M963 698v105h-643v547h736v106h-855v-1456h860v106h-741v592h643zM699 1566l-177 266h-144l217 -266h104z" />
    <glyph glyph-name="Eacute" unicode="&#xc9;" 
d="M963 698v105h-643v547h736v106h-855v-1456h860v106h-741v592h643zM715 1830l-184 -266h100l229 266h-145z" />
    <glyph glyph-name="Ecircumflex" unicode="&#xca;" 
d="M963 698v105h-643v547h736v106h-855v-1456h860v106h-741v592h643zM906 1609l-241 241h-76l-237 -239v-20h108l167 174l168 -174h111v18z" />
    <glyph glyph-name="Edieresis" unicode="&#xcb;" 
d="M963 698v105h-643v547h736v106h-855v-1456h860v106h-741v592h643zM316 1729q0 -33 22 -56.5t60 -23.5t60.5 23.5t22.5 56.5q0 34 -22.5 57.5t-60.5 23.5t-60 -23.5t-22 -57.5zM753 1728q0 -33 22 -56.5t60 -23.5t60.5 23.5t22.5 56.5q0 34 -22.5 58t-60.5 24t-60 -24
t-22 -58z" />
    <glyph glyph-name="Igrave" unicode="&#xcc;" 
d="M193 1456v-108h354v-1241h-354v-107h843v107h-365v1241h365v108h-843zM662 1566l-177 266h-144l217 -266h104z" />
    <glyph glyph-name="Iacute" unicode="&#xcd;" 
d="M193 1456v-108h354v-1241h-354v-107h843v107h-365v1241h365v108h-843zM723 1830l-184 -266h100l229 266h-145z" />
    <glyph glyph-name="Icircumflex" unicode="&#xce;" 
d="M193 1456v-108h354v-1241h-354v-107h843v107h-365v1241h365v108h-843zM867 1609l-241 241h-76l-237 -239v-20h108l167 174l168 -174h111v18z" />
    <glyph glyph-name="Idieresis" unicode="&#xcf;" 
d="M193 1456v-108h354v-1241h-354v-107h843v107h-365v1241h365v108h-843zM294 1729q0 -33 22 -56.5t60 -23.5t60.5 23.5t22.5 56.5q0 34 -22.5 57.5t-60.5 23.5t-60 -23.5t-22 -57.5zM731 1728q0 -33 22 -56.5t60 -23.5t60.5 23.5t22.5 56.5q0 34 -22.5 58t-60.5 24t-60 -24
t-22 -58z" />
    <glyph glyph-name="Eth" unicode="&#xd0;" 
d="M193 0h351q137 2 245.5 52t185.5 137q78 90 120.5 210.5t42.5 257.5v142q-1 140 -45.5 264.5t-122.5 209.5q-80 86 -186 133.5t-240 49.5h-351v-664h-252v-102h252v-690zM553 690v102h-240v561h231q114 -1 202 -46t141 -111q64 -79 97 -180t35 -214v-145
q-2 -113 -34 -214t-94 -179q-58 -72 -145 -115.5t-202 -45.5h-231v587h240z" />
    <glyph glyph-name="Ntilde" unicode="&#xd1;" 
d="M1069 0v1456h-120v-1223l-668 1223h-119v-1456h119v1226l669 -1226h119zM937 1826l-78 15q-2 -25 -10 -47t-21 -38q-14 -17 -34 -27t-45 -10q-40 0 -72.5 17t-63.5 38q-32 20 -66 37.5t-76 17.5q-43 0 -77 -16.5t-58 -44.5q-25 -28 -39 -65t-15 -78l79 -12
q2 36 20.5 63.5t47.5 35.5q20 9 41.5 10.5t46.5 -3.5q29 -6 52.5 -20.5t54.5 -32.5q27 -18 56.5 -31.5t68.5 -13.5q42 0 76.5 16.5t58.5 45.5q25 27 38.5 64.5t14.5 78.5z" />
    <glyph glyph-name="Ograve" unicode="&#xd2;" 
d="M1104 632v192q-1 74 -13.5 151.5t-37.5 150.5q-26 72 -65 136t-93 112q-54 47 -124 74.5t-157 27.5t-157 -27.5t-124 -74.5q-54 -49 -93 -112.5t-64 -136.5q-26 -72 -38.5 -149.5t-13.5 -151.5v-192q1 -75 14 -152t39 -149q25 -73 64.5 -136.5t93.5 -111.5t124 -75.5
t157 -27.5q86 0 156 27.5t124 75.5t93 111.5t64 135.5q25 73 37.5 150t13.5 152zM986 826v-194q-1 -58 -8.5 -120.5t-25.5 -122.5q-18 -61 -46 -115t-69 -95q-41 -42 -96 -66t-125 -24q-71 0 -125.5 24t-95.5 66q-42 41 -70.5 95.5t-46.5 114.5t-26 122.5t-9 120.5v194
q1 57 9 119t26 123q18 60 46 114t70 96q41 40 95.5 64.5t124.5 24.5t125 -24t96 -65t69.5 -95.5t46.5 -113.5q18 -61 26 -123t9 -120zM689 1587l-177 266h-144l217 -266h104z" />
    <glyph glyph-name="Oacute" unicode="&#xd3;" 
d="M1104 632v192q-1 74 -13.5 151.5t-37.5 150.5q-26 72 -65 136t-93 112q-54 47 -124 74.5t-157 27.5t-157 -27.5t-124 -74.5q-54 -49 -93 -112.5t-64 -136.5q-26 -72 -38.5 -149.5t-13.5 -151.5v-192q1 -75 14 -152t39 -149q25 -73 64.5 -136.5t93.5 -111.5t124 -75.5
t157 -27.5q86 0 156 27.5t124 75.5t93 111.5t64 135.5q25 73 37.5 150t13.5 152zM986 826v-194q-1 -58 -8.5 -120.5t-25.5 -122.5q-18 -61 -46 -115t-69 -95q-41 -42 -96 -66t-125 -24q-71 0 -125.5 24t-95.5 66q-42 41 -70.5 95.5t-46.5 114.5t-26 122.5t-9 120.5v194
q1 57 9 119t26 123q18 60 46 114t70 96q41 40 95.5 64.5t124.5 24.5t125 -24t96 -65t69.5 -95.5t46.5 -113.5q18 -61 26 -123t9 -120zM750 1851l-184 -266h100l229 266h-145z" />
    <glyph glyph-name="Ocircumflex" unicode="&#xd4;" 
d="M1104 632v192q-1 74 -13.5 151.5t-37.5 150.5q-26 72 -65 136t-93 112q-54 47 -124 74.5t-157 27.5t-157 -27.5t-124 -74.5q-54 -49 -93 -112.5t-64 -136.5q-26 -72 -38.5 -149.5t-13.5 -151.5v-192q1 -75 14 -152t39 -149q25 -73 64.5 -136.5t93.5 -111.5t124 -75.5
t157 -27.5q86 0 156 27.5t124 75.5t93 111.5t64 135.5q25 73 37.5 150t13.5 152zM986 826v-194q-1 -58 -8.5 -120.5t-25.5 -122.5q-18 -61 -46 -115t-69 -95q-41 -42 -96 -66t-125 -24q-71 0 -125.5 24t-95.5 66q-42 41 -70.5 95.5t-46.5 114.5t-26 122.5t-9 120.5v194
q1 57 9 119t26 123q18 60 46 114t70 96q41 40 95.5 64.5t124.5 24.5t125 -24t96 -65t69.5 -95.5t46.5 -113.5q18 -61 26 -123t9 -120zM908 1630l-241 241h-76l-237 -239v-20h108l167 174l168 -174h111v18z" />
    <glyph glyph-name="Otilde" unicode="&#xd5;" 
d="M1104 632v192q-1 74 -13.5 151.5t-37.5 150.5q-26 72 -65 136t-93 112q-54 47 -124 74.5t-157 27.5t-157 -27.5t-124 -74.5q-54 -49 -93 -112.5t-64 -136.5q-26 -72 -38.5 -149.5t-13.5 -151.5v-192q1 -75 14 -152t39 -149q25 -73 64.5 -136.5t93.5 -111.5t124 -75.5
t157 -27.5q86 0 156 27.5t124 75.5t93 111.5t64 135.5q25 73 37.5 150t13.5 152zM986 826v-194q-1 -58 -8.5 -120.5t-25.5 -122.5q-18 -61 -46 -115t-69 -95q-41 -42 -96 -66t-125 -24q-71 0 -125.5 24t-95.5 66q-42 41 -70.5 95.5t-46.5 114.5t-26 122.5t-9 120.5v194
q1 57 9 119t26 123q18 60 46 114t70 96q41 40 95.5 64.5t124.5 24.5t125 -24t96 -65t69.5 -95.5t46.5 -113.5q18 -61 26 -123t9 -120zM953 1847l-78 15q-2 -25 -10 -47t-21 -38q-14 -17 -34 -27t-45 -10q-40 0 -72.5 17t-63.5 38q-32 20 -66 37.5t-76 17.5q-43 0 -77 -16.5
t-58 -44.5q-25 -28 -39 -65t-15 -78l79 -12q2 36 20.5 63.5t47.5 35.5q20 9 41.5 10.5t46.5 -3.5q29 -6 52.5 -20.5t54.5 -32.5q27 -18 56.5 -31.5t68.5 -13.5q42 0 76.5 16.5t58.5 45.5q25 27 38.5 64.5t14.5 78.5z" />
    <glyph glyph-name="Odieresis" unicode="&#xd6;" 
d="M1104 632v192q-1 74 -13.5 151.5t-37.5 150.5q-26 72 -65 136t-93 112q-54 47 -124 74.5t-157 27.5t-157 -27.5t-124 -74.5q-54 -49 -93 -112.5t-64 -136.5q-26 -72 -38.5 -149.5t-13.5 -151.5v-192q1 -75 14 -152t39 -149q25 -73 64.5 -136.5t93.5 -111.5t124 -75.5
t157 -27.5q86 0 156 27.5t124 75.5t93 111.5t64 135.5q25 73 37.5 150t13.5 152zM986 826v-194q-1 -58 -8.5 -120.5t-25.5 -122.5q-18 -61 -46 -115t-69 -95q-41 -42 -96 -66t-125 -24q-71 0 -125.5 24t-95.5 66q-42 41 -70.5 95.5t-46.5 114.5t-26 122.5t-9 120.5v194
q1 57 9 119t26 123q18 60 46 114t70 96q41 40 95.5 64.5t124.5 24.5t125 -24t96 -65t69.5 -95.5t46.5 -113.5q18 -61 26 -123t9 -120zM321 1750q0 -33 22 -56.5t60 -23.5t60.5 23.5t22.5 56.5q0 34 -22.5 57.5t-60.5 23.5t-60 -23.5t-22 -57.5zM758 1749q0 -33 22 -56.5
t60 -23.5t60.5 23.5t22.5 56.5q0 34 -22.5 58t-60.5 24t-60 -24t-22 -58z" />
    <glyph glyph-name="multiply" unicode="&#xd7;" 
d="M197 301l79 -80l357 364l358 -364l79 80l-358 365l343 349l-79 81l-343 -350l-342 350l-79 -81l342 -349z" />
    <glyph glyph-name="Oslash" unicode="&#xd8;" 
d="M1093 632l1 192q-1 105 -26 213.5t-77 201.5l158 267h-103l-111 -188q-26 33 -57.5 60.5t-68.5 47.5q-43 24 -94.5 37t-110.5 13q-129 0 -221 -59t-149 -149q-61 -93 -89.5 -211.5t-30.5 -232.5v-192q1 -61 9.5 -124t25.5 -124t43 -118t62 -105l-144 -245h103l103 176
q56 -52 127.5 -82t162.5 -30q124 0 214.5 56.5t148.5 144.5q65 94 94.5 214.5t29.5 236.5zM233 632v194q0 87 20 185t65 179q42 74 112 125.5t174 51.5q48 0 89 -11.5t75 -33.5q33 -20 59.5 -47t47.5 -60l-555 -944q-22 36 -37.5 76t-25.5 82q-12 51 -18 102.5t-6 100.5z
M976 826v-194q-2 -98 -23.5 -202.5t-76.5 -189.5q-45 -66 -110.5 -108.5t-159.5 -42.5q-76 0 -133 27t-99 73l548 932q28 -71 40.5 -147.5t13.5 -147.5z" />
    <glyph glyph-name="Ugrave" unicode="&#xd9;" 
d="M1071 1456h-115l-2 -986q-2 -75 -24.5 -144t-65.5 -122q-43 -54 -105.5 -86t-143.5 -32t-144 32t-105 85q-44 53 -67 122.5t-24 144.5l-2 986h-114l-1 -986q1 -100 33.5 -189t91.5 -155q59 -68 143 -107t189 -39q104 0 188 39.5t144 106.5q59 67 92 155.5t33 188.5z
M698 1560l-177 266h-144l217 -266h104z" />
    <glyph glyph-name="Uacute" unicode="&#xda;" 
d="M1071 1456h-115l-2 -986q-2 -75 -24.5 -144t-65.5 -122q-43 -54 -105.5 -86t-143.5 -32t-144 32t-105 85q-44 53 -67 122.5t-24 144.5l-2 986h-114l-1 -986q1 -100 33.5 -189t91.5 -155q59 -68 143 -107t189 -39q104 0 188 39.5t144 106.5q59 67 92 155.5t33 188.5z
M759 1824l-184 -266h100l229 266h-145z" />
    <glyph glyph-name="Ucircumflex" unicode="&#xdb;" 
d="M1071 1456h-115l-2 -986q-2 -75 -24.5 -144t-65.5 -122q-43 -54 -105.5 -86t-143.5 -32t-144 32t-105 85q-44 53 -67 122.5t-24 144.5l-2 986h-114l-1 -986q1 -100 33.5 -189t91.5 -155q59 -68 143 -107t189 -39q104 0 188 39.5t144 106.5q59 67 92 155.5t33 188.5z
M917 1603l-241 241h-76l-237 -239v-20h108l167 174l168 -174h111v18z" />
    <glyph glyph-name="Udieresis" unicode="&#xdc;" 
d="M1071 1456h-115l-2 -986q-2 -75 -24.5 -144t-65.5 -122q-43 -54 -105.5 -86t-143.5 -32t-144 32t-105 85q-44 53 -67 122.5t-24 144.5l-2 986h-114l-1 -986q1 -100 33.5 -189t91.5 -155q59 -68 143 -107t189 -39q104 0 188 39.5t144 106.5q59 67 92 155.5t33 188.5z
M330 1723q0 -33 22 -56.5t60 -23.5t60.5 23.5t22.5 56.5q0 34 -22.5 57.5t-60.5 23.5t-60 -23.5t-22 -57.5zM767 1722q0 -33 22 -56.5t60 -23.5t60.5 23.5t22.5 56.5q0 34 -22.5 58t-60.5 24t-60 -24t-22 -58z" />
    <glyph glyph-name="Yacute" unicode="&#xdd;" 
d="M600 664l-385 792h-139l467 -908l2 -548h112l1 548l468 908h-137zM725 1824l-184 -266h100l229 266h-145z" />
    <glyph glyph-name="Thorn" unicode="&#xde;" 
d="M311 1456h-120v-1456h120v324h324q104 0 190 29.5t149 83.5q61 53 95.5 129.5t34.5 171.5t-34.5 171.5t-95.5 131.5q-63 53 -149 82.5t-190 29.5h-324v303zM311 1050h324q78 0 142.5 -23t110.5 -65t71 -99t25 -127q0 -68 -25.5 -124.5t-71.5 -97.5t-110.5 -64t-141.5 -23
h-324v623z" />
    <glyph glyph-name="germandbls" unicode="&#xdf;" 
d="M312 0v1115q1 110 38.5 182t103.5 95q33 24 76 31.5t95 -5.5q37 -13 66.5 -41t46.5 -68q16 -34 21 -69.5t-2 -72.5q-7 -44 -24.5 -84t-35.5 -80q-18 -41 -31.5 -83.5t-12.5 -91.5q0 -64 23.5 -113.5t57.5 -89.5q34 -41 74.5 -76.5t74.5 -71.5q34 -37 57 -79.5t23 -95.5
q0 -50 -17 -90t-48 -69q-31 -30 -74.5 -46t-95.5 -16q-35 0 -71.5 7t-70.5 19q-32 11 -61 25.5t-52 29.5l-33 -102q25 -20 60.5 -35t76.5 -25q40 -10 82.5 -15.5t81.5 -5.5q71 0 133 22t109 63q46 41 73 101t27 137q0 67 -23 118.5t-57 93.5t-74.5 77.5t-75.5 71.5
q-34 36 -57 75t-24 88q0 54 18.5 100t41.5 92q22 47 41 99.5t19 121.5q0 73 -27 130t-73 96q-46 40 -107 61t-130 21q-87 0 -154.5 -32.5t-112.5 -90.5q-46 -57 -70 -136.5t-24 -172.5v-1115h118z" />
    <glyph glyph-name="agrave" unicode="&#xe0;" 
d="M937 0h128v13q-14 49 -23.5 104.5t-10.5 109.5v523q-1 88 -33 154t-88 111q-56 43 -131 65t-161 22t-161.5 -24t-132.5 -66q-57 -43 -91 -101t-37 -127l120 -1q2 51 27 91.5t66 68.5q40 28 93 43t111 15q63 0 117.5 -16.5t94.5 -47.5t63 -77.5t24 -107.5v-122h-235
q-101 0 -193 -18.5t-161 -59.5q-70 -41 -111.5 -106.5t-41.5 -158.5q0 -69 28 -126t76 -96q48 -40 114 -62.5t141 -22.5q60 0 115.5 12.5t105.5 36.5q49 23 90.5 56.5t72.5 74.5q2 -42 7.5 -83t16.5 -77zM543 87q-53 0 -99 15t-80 42q-35 27 -54.5 66.5t-19.5 87.5
q-1 61 26 103t73 71q56 36 136 50t169 15h218v-237q-23 -48 -60 -87.5t-85 -67.5t-105 -43t-119 -15zM696 1245l-177 266h-144l217 -266h104z" />
    <glyph glyph-name="aacute" unicode="&#xe1;" 
d="M937 0h128v13q-14 49 -23.5 104.5t-10.5 109.5v523q-1 88 -33 154t-88 111q-56 43 -131 65t-161 22t-161.5 -24t-132.5 -66q-57 -43 -91 -101t-37 -127l120 -1q2 51 27 91.5t66 68.5q40 28 93 43t111 15q63 0 117.5 -16.5t94.5 -47.5t63 -77.5t24 -107.5v-122h-235
q-101 0 -193 -18.5t-161 -59.5q-70 -41 -111.5 -106.5t-41.5 -158.5q0 -69 28 -126t76 -96q48 -40 114 -62.5t141 -22.5q60 0 115.5 12.5t105.5 36.5q49 23 90.5 56.5t72.5 74.5q2 -42 7.5 -83t16.5 -77zM543 87q-53 0 -99 15t-80 42q-35 27 -54.5 66.5t-19.5 87.5
q-1 61 26 103t73 71q56 36 136 50t169 15h218v-237q-23 -48 -60 -87.5t-85 -67.5t-105 -43t-119 -15zM758 1510l-184 -266h100l229 266h-145z" />
    <glyph glyph-name="acircumflex" unicode="&#xe2;" 
d="M937 0h128v13q-14 49 -23.5 104.5t-10.5 109.5v523q-1 88 -33 154t-88 111q-56 43 -131 65t-161 22t-161.5 -24t-132.5 -66q-57 -43 -91 -101t-37 -127l120 -1q2 51 27 91.5t66 68.5q40 28 93 43t111 15q63 0 117.5 -16.5t94.5 -47.5t63 -77.5t24 -107.5v-122h-235
q-101 0 -193 -18.5t-161 -59.5q-70 -41 -111.5 -106.5t-41.5 -158.5q0 -69 28 -126t76 -96q48 -40 114 -62.5t141 -22.5q60 0 115.5 12.5t105.5 36.5q49 23 90.5 56.5t72.5 74.5q2 -42 7.5 -83t16.5 -77zM543 87q-53 0 -99 15t-80 42q-35 27 -54.5 66.5t-19.5 87.5
q-1 61 26 103t73 71q56 36 136 50t169 15h218v-237q-23 -48 -60 -87.5t-85 -67.5t-105 -43t-119 -15zM915 1289l-241 241h-76l-237 -239v-20h108l167 174l168 -174h111v18z" />
    <glyph glyph-name="atilde" unicode="&#xe3;" 
d="M937 0h128v13q-14 49 -23.5 104.5t-10.5 109.5v523q-1 88 -33 154t-88 111q-56 43 -131 65t-161 22t-161.5 -24t-132.5 -66q-57 -43 -91 -101t-37 -127l120 -1q2 51 27 91.5t66 68.5q40 28 93 43t111 15q63 0 117.5 -16.5t94.5 -47.5t63 -77.5t24 -107.5v-122h-235
q-101 0 -193 -18.5t-161 -59.5q-70 -41 -111.5 -106.5t-41.5 -158.5q0 -69 28 -126t76 -96q48 -40 114 -62.5t141 -22.5q60 0 115.5 12.5t105.5 36.5q49 23 90.5 56.5t72.5 74.5q2 -42 7.5 -83t16.5 -77zM543 87q-53 0 -99 15t-80 42q-35 27 -54.5 66.5t-19.5 87.5
q-1 61 26 103t73 71q56 36 136 50t169 15h218v-237q-23 -48 -60 -87.5t-85 -67.5t-105 -43t-119 -15zM960 1505l-78 15q-2 -25 -10 -47t-21 -38q-14 -17 -34 -27t-45 -10q-40 0 -72.5 17t-63.5 38q-32 20 -66 37.5t-76 17.5q-43 0 -77 -16.5t-58 -44.5q-25 -28 -39 -65
t-15 -78l79 -12q2 36 20.5 63.5t47.5 35.5q20 9 41.5 10.5t46.5 -3.5q29 -6 52.5 -20.5t54.5 -32.5q27 -18 56.5 -31.5t68.5 -13.5q42 0 76.5 16.5t58.5 45.5q25 27 38.5 64.5t14.5 78.5z" />
    <glyph glyph-name="adieresis" unicode="&#xe4;" 
d="M937 0h128v13q-14 49 -23.5 104.5t-10.5 109.5v523q-1 88 -33 154t-88 111q-56 43 -131 65t-161 22t-161.5 -24t-132.5 -66q-57 -43 -91 -101t-37 -127l120 -1q2 51 27 91.5t66 68.5q40 28 93 43t111 15q63 0 117.5 -16.5t94.5 -47.5t63 -77.5t24 -107.5v-122h-235
q-101 0 -193 -18.5t-161 -59.5q-70 -41 -111.5 -106.5t-41.5 -158.5q0 -69 28 -126t76 -96q48 -40 114 -62.5t141 -22.5q60 0 115.5 12.5t105.5 36.5q49 23 90.5 56.5t72.5 74.5q2 -42 7.5 -83t16.5 -77zM543 87q-53 0 -99 15t-80 42q-35 27 -54.5 66.5t-19.5 87.5
q-1 61 26 103t73 71q56 36 136 50t169 15h218v-237q-23 -48 -60 -87.5t-85 -67.5t-105 -43t-119 -15zM328 1409q0 -33 22 -56.5t60 -23.5t60.5 23.5t22.5 56.5q0 34 -22.5 57.5t-60.5 23.5t-60 -23.5t-22 -57.5zM765 1408q0 -33 22 -56.5t60 -23.5t60.5 23.5t22.5 56.5
q0 34 -22.5 58t-60.5 24t-60 -24t-22 -58z" />
    <glyph glyph-name="aring" unicode="&#xe5;" 
d="M937 0h128v13q-14 49 -23.5 104.5t-10.5 109.5v523q-1 88 -33 154t-88 111q-56 43 -131 65t-161 22t-161.5 -24t-132.5 -66q-57 -43 -91 -101t-37 -127l120 -1q2 51 27 91.5t66 68.5q40 28 93 43t111 15q63 0 117.5 -16.5t94.5 -47.5t63 -77.5t24 -107.5v-122h-235
q-101 0 -193 -18.5t-161 -59.5q-70 -41 -111.5 -106.5t-41.5 -158.5q0 -69 28 -126t76 -96q48 -40 114 -62.5t141 -22.5q60 0 115.5 12.5t105.5 36.5q49 23 90.5 56.5t72.5 74.5q2 -42 7.5 -83t16.5 -77zM543 87q-53 0 -99 15t-80 42q-35 27 -54.5 66.5t-19.5 87.5
q-1 61 26 103t73 71q56 36 136 50t169 15h218v-237q-23 -48 -60 -87.5t-85 -67.5t-105 -43t-119 -15zM446 1396q0 -38 14.5 -71.5t39.5 -57.5q24 -25 58 -39t72 -14q39 0 72 14t58 39q25 24 39 57.5t14 71.5q0 39 -14 73t-39 59t-58 40t-72 15q-38 0 -72 -15t-58 -40
q-25 -25 -39.5 -59t-14.5 -73zM523 1396q0 25 8.5 46t22.5 37q14 14 34 23t42 9q24 0 43 -9t34 -24q14 -16 22 -37t8 -45q0 -23 -8 -43t-22 -35q-15 -15 -34.5 -23.5t-42.5 -8.5t-42.5 8.5t-33.5 24.5q-15 15 -23 35t-8 42z" />
    <glyph glyph-name="ae" unicode="&#xe6;" 
d="M895 -20q52 0 95 10t77 27q33 15 57.5 35t42.5 41l-37 89q-18 -18 -39.5 -35.5t-47.5 -31.5q-27 -15 -59 -24t-71 -9q-59 0 -102 17t-72 45q-26 25 -42.5 56t-24.5 64q-9 34 -14 70.5t-5 71.5v131h531l1 189q0 73 -17.5 140.5t-55.5 120.5q-37 52 -96.5 83.5t-143.5 31.5
q-50 0 -92.5 -13.5t-75.5 -38.5q-27 -20 -48.5 -47t-37.5 -57q-11 30 -29 57.5t-44 47.5q-33 24 -77 37.5t-102 13.5q-67 0 -123 -20.5t-95 -57.5q-40 -37 -61.5 -90t-20.5 -118l115 -4q-1 41 11 75t36 59t59.5 39t79.5 14q51 0 83 -15.5t51 -41.5q21 -28 28.5 -64.5
t7.5 -75.5l1 -169h-131q-88 -1 -156 -27t-113 -72q-44 -46 -67 -109.5t-23 -139.5q0 -65 18 -120.5t53 -96.5q34 -41 85.5 -64.5t119.5 -23.5q49 0 91 14t77 38q35 23 62.5 55t46.5 68q17 -34 40.5 -63.5t53.5 -52.5q38 -28 88 -43.5t112 -15.5zM341 81q-44 0 -77 16.5
t-55 44.5q-22 27 -33 63t-11 76q0 51 16.5 97t47.5 81q31 34 76 55t103 21h130v-90.5v-80.5q0 -63 3 -90t5 -46q-18 -36 -38 -60t-44 -43q-27 -20 -58 -32t-65 -12zM1071 636h-418v41q0 33 4.5 69.5t14.5 72.5q10 37 27 69.5t43 59.5q23 23 55.5 37t74.5 14q56 0 93.5 -23.5
t60.5 -60.5t33 -81.5t11 -87.5z" />
    <glyph glyph-name="ccedilla" unicode="&#xe7;" 
d="M633 82q-96 0 -162.5 38t-107.5 100q-43 62 -62 140t-20 160v42q1 81 20 159t62 141q42 61 108 99t161 38q64 0 119.5 -21t97.5 -58q41 -38 65.5 -89.5t28.5 -112.5h114q-3 83 -36 154t-89 122q-57 51 -133.5 79.5t-166.5 28.5q-119 0 -207 -45t-146 -119
q-59 -76 -88 -173.5t-30 -202.5v-42q1 -105 30 -202.5t88 -171.5q59 -76 147 -121t207 -45q82 0 157.5 27t133.5 74q57 47 93 112t40 142h-114q-5 -58 -31 -105t-68 -79q-43 -34 -97.5 -51.5t-113.5 -17.5zM679 -4h-93l-28 -127q35 -4 66.5 -9.5t56.5 -16.5q24 -12 38.5 -32
t13.5 -52q0 -34 -19.5 -57t-48.5 -36q-29 -14 -64.5 -20t-68.5 -7l7 -78q52 1 102.5 11t90.5 30q46 24 73.5 63.5t27.5 95.5q0 42 -13.5 72t-36.5 50t-53 32t-62 17z" />
    <glyph glyph-name="egrave" unicode="&#xe8;" 
d="M655 -20q135 0 237 53t164 139l-76 58q-58 -72 -139 -110t-181 -38q-87 1 -158 35t-122 93q-50 56 -78.5 130t-32.5 160v33h810v73q0 103 -29.5 193.5t-85.5 158.5q-57 67 -140.5 105.5t-190.5 38.5q-102 0 -189.5 -42t-152.5 -116q-66 -74 -103.5 -174t-37.5 -216v-43
q0 -109 37 -205.5t104 -169.5q66 -72 159 -114t205 -42zM633 999q77 0 137 -29.5t102 -78.5q41 -49 64.5 -114t23.5 -130v-11h-685q10 78 40 144.5t77 115.5q46 48 107 75.5t134 27.5zM687 1245l-177 266h-144l217 -266h104z" />
    <glyph glyph-name="eacute" unicode="&#xe9;" 
d="M655 -20q135 0 237 53t164 139l-76 58q-58 -72 -139 -110t-181 -38q-87 1 -158 35t-122 93q-50 56 -78.5 130t-32.5 160v33h810v73q0 103 -29.5 193.5t-85.5 158.5q-57 67 -140.5 105.5t-190.5 38.5q-102 0 -189.5 -42t-152.5 -116q-66 -74 -103.5 -174t-37.5 -216v-43
q0 -109 37 -205.5t104 -169.5q66 -72 159 -114t205 -42zM633 999q77 0 137 -29.5t102 -78.5q41 -49 64.5 -114t23.5 -130v-11h-685q10 78 40 144.5t77 115.5q46 48 107 75.5t134 27.5zM749 1510l-184 -266h100l229 266h-145z" />
    <glyph glyph-name="ecircumflex" unicode="&#xea;" 
d="M655 -20q135 0 237 53t164 139l-76 58q-58 -72 -139 -110t-181 -38q-87 1 -158 35t-122 93q-50 56 -78.5 130t-32.5 160v33h810v73q0 103 -29.5 193.5t-85.5 158.5q-57 67 -140.5 105.5t-190.5 38.5q-102 0 -189.5 -42t-152.5 -116q-66 -74 -103.5 -174t-37.5 -216v-43
q0 -109 37 -205.5t104 -169.5q66 -72 159 -114t205 -42zM633 999q77 0 137 -29.5t102 -78.5q41 -49 64.5 -114t23.5 -130v-11h-685q10 78 40 144.5t77 115.5q46 48 107 75.5t134 27.5zM906 1289l-241 241h-76l-237 -239v-20h108l167 174l168 -174h111v18z" />
    <glyph glyph-name="edieresis" unicode="&#xeb;" 
d="M655 -20q135 0 237 53t164 139l-76 58q-58 -72 -139 -110t-181 -38q-87 1 -158 35t-122 93q-50 56 -78.5 130t-32.5 160v33h810v73q0 103 -29.5 193.5t-85.5 158.5q-57 67 -140.5 105.5t-190.5 38.5q-102 0 -189.5 -42t-152.5 -116q-66 -74 -103.5 -174t-37.5 -216v-43
q0 -109 37 -205.5t104 -169.5q66 -72 159 -114t205 -42zM633 999q77 0 137 -29.5t102 -78.5q41 -49 64.5 -114t23.5 -130v-11h-685q10 78 40 144.5t77 115.5q46 48 107 75.5t134 27.5zM319 1409q0 -33 22 -56.5t60 -23.5t60.5 23.5t22.5 56.5q0 34 -22.5 57.5t-60.5 23.5
t-60 -23.5t-22 -57.5zM756 1408q0 -33 22 -56.5t60 -23.5t60.5 23.5t22.5 56.5q0 34 -22.5 58t-60.5 24t-60 -24t-22 -58z" />
    <glyph glyph-name="igrave" unicode="&#xec;" 
d="M221 1082v-107h383v-868h-383v-107h871v107h-369v975h-502zM725 1254l-177 266h-144l217 -266h104z" />
    <glyph glyph-name="iacute" unicode="&#xed;" 
d="M221 1082v-107h383v-868h-383v-107h871v107h-369v975h-502zM787 1519l-184 -266h100l229 266h-145z" />
    <glyph glyph-name="icircumflex" unicode="&#xee;" 
d="M221 1082v-107h383v-868h-383v-107h871v107h-369v975h-502zM944 1298l-241 241h-76l-237 -239v-20h108l167 174l168 -174h111v18z" />
    <glyph glyph-name="idieresis" unicode="&#xef;" 
d="M221 1082v-107h383v-868h-383v-107h871v107h-369v975h-502zM357 1418q0 -33 22 -56.5t60 -23.5t60.5 23.5t22.5 56.5q0 34 -22.5 57.5t-60.5 23.5t-60 -23.5t-22 -57.5zM794 1417q0 -33 22 -56.5t60 -23.5t60.5 23.5t22.5 56.5q0 34 -22.5 58t-60.5 24t-60 -24t-22 -58z
" />
    <glyph glyph-name="eth" unicode="&#xf0;" 
d="M796 1294l211 116l-51 74l-228 -126q-73 63 -160 110.5t-188 80.5l-38 -104q79 -29 148 -65.5t128 -83.5l-229 -127l51 -73l250 138q81 -80 135 -183.5t77 -235.5q-59 71 -148.5 110.5t-188.5 39.5q-109 0 -197.5 -37t-150.5 -103q-63 -67 -97 -158.5t-34 -200.5
q0 -101 35 -189.5t98 -154.5q61 -66 146.5 -104t186.5 -38q76 0 141 20.5t119 57.5q57 39 101 96t74 126q25 61 38 130.5t13 142.5v71q0 212 -63.5 379.5t-178.5 290.5zM556 84q-78 0 -142 31.5t-110 84.5q-46 52 -71.5 121t-25.5 145q0 82 24 153.5t71 125.5
q46 53 112.5 84t150.5 31q116 0 213.5 -48t138.5 -128q1 -15 1.5 -29t0.5 -29v-73q-1 -59 -10.5 -116.5t-28.5 -108.5q-21 -57 -53 -102.5t-74 -77.5q-40 -30 -89 -47t-108 -17z" />
    <glyph glyph-name="ntilde" unicode="&#xf1;" 
d="M193 0h120v739q17 53 48.5 99t72.5 80q45 36 100 57.5t117 21.5q71 1 122.5 -19t86.5 -59q34 -39 50.5 -96t17.5 -131v-692h120l-1 694q0 97 -24 173.5t-70 128.5q-47 52 -115.5 79t-157.5 27q-67 0 -126 -19.5t-109 -54.5q-42 -29 -76 -69t-59 -87l-6 210h-111v-1082z
M932 1504l-78 15q-2 -25 -10 -47t-21 -38q-14 -17 -34 -27t-45 -10q-40 0 -72.5 17t-63.5 38q-32 20 -66 37.5t-76 17.5q-43 0 -77 -16.5t-58 -44.5q-25 -28 -39 -65t-15 -78l79 -12q2 36 20.5 63.5t47.5 35.5q20 9 41.5 10.5t46.5 -3.5q29 -6 52.5 -20.5t54.5 -32.5
q27 -18 56.5 -31.5t68.5 -13.5q42 0 76.5 16.5t58.5 45.5q25 27 38.5 64.5t14.5 78.5z" />
    <glyph glyph-name="ograve" unicode="&#xf2;" 
d="M132 557v-32q0 -111 33 -210t96 -173q61 -75 151 -118.5t204 -43.5q113 0 202.5 44t151.5 118q61 75 94 173.5t33 209.5v32q0 111 -33 210t-95 173q-62 75 -151.5 118.5t-203.5 43.5t-203 -44t-151 -118q-62 -75 -95 -174t-33 -209zM251 525v32q1 85 24.5 165t70.5 141
q45 62 112.5 99t155.5 37t155.5 -37t114.5 -99q45 -61 69 -141t25 -165v-32q-1 -86 -24.5 -166t-68.5 -141q-47 -62 -114 -99t-155 -37q-89 0 -157 37t-113 98q-47 62 -70.5 142t-24.5 166zM677 1244l-177 266h-144l217 -266h104z" />
    <glyph glyph-name="oacute" unicode="&#xf3;" 
d="M132 557v-32q0 -111 33 -210t96 -173q61 -75 151 -118.5t204 -43.5q113 0 202.5 44t151.5 118q61 75 94 173.5t33 209.5v32q0 111 -33 210t-95 173q-62 75 -151.5 118.5t-203.5 43.5t-203 -44t-151 -118q-62 -75 -95 -174t-33 -209zM251 525v32q1 85 24.5 165t70.5 141
q45 62 112.5 99t155.5 37t155.5 -37t114.5 -99q45 -61 69 -141t25 -165v-32q-1 -86 -24.5 -166t-68.5 -141q-47 -62 -114 -99t-155 -37q-89 0 -157 37t-113 98q-47 62 -70.5 142t-24.5 166zM739 1509l-184 -266h100l229 266h-145z" />
    <glyph glyph-name="ocircumflex" unicode="&#xf4;" 
d="M132 557v-32q0 -111 33 -210t96 -173q61 -75 151 -118.5t204 -43.5q113 0 202.5 44t151.5 118q61 75 94 173.5t33 209.5v32q0 111 -33 210t-95 173q-62 75 -151.5 118.5t-203.5 43.5t-203 -44t-151 -118q-62 -75 -95 -174t-33 -209zM251 525v32q1 85 24.5 165t70.5 141
q45 62 112.5 99t155.5 37t155.5 -37t114.5 -99q45 -61 69 -141t25 -165v-32q-1 -86 -24.5 -166t-68.5 -141q-47 -62 -114 -99t-155 -37q-89 0 -157 37t-113 98q-47 62 -70.5 142t-24.5 166zM896 1288l-241 241h-76l-237 -239v-20h108l167 174l168 -174h111v18z" />
    <glyph glyph-name="otilde" unicode="&#xf5;" 
d="M132 557v-32q0 -111 33 -210t96 -173q61 -75 151 -118.5t204 -43.5q113 0 202.5 44t151.5 118q61 75 94 173.5t33 209.5v32q0 111 -33 210t-95 173q-62 75 -151.5 118.5t-203.5 43.5t-203 -44t-151 -118q-62 -75 -95 -174t-33 -209zM251 525v32q1 85 24.5 165t70.5 141
q45 62 112.5 99t155.5 37t155.5 -37t114.5 -99q45 -61 69 -141t25 -165v-32q-1 -86 -24.5 -166t-68.5 -141q-47 -62 -114 -99t-155 -37q-89 0 -157 37t-113 98q-47 62 -70.5 142t-24.5 166zM941 1504l-78 15q-2 -25 -10 -47t-21 -38q-14 -17 -34 -27t-45 -10q-40 0 -72.5 17
t-63.5 38q-32 20 -66 37.5t-76 17.5q-43 0 -77 -16.5t-58 -44.5q-25 -28 -39 -65t-15 -78l79 -12q2 36 20.5 63.5t47.5 35.5q20 9 41.5 10.5t46.5 -3.5q29 -6 52.5 -20.5t54.5 -32.5q27 -18 56.5 -31.5t68.5 -13.5q42 0 76.5 16.5t58.5 45.5q25 27 38.5 64.5t14.5 78.5z" />
    <glyph glyph-name="odieresis" unicode="&#xf6;" 
d="M132 557v-32q0 -111 33 -210t96 -173q61 -75 151 -118.5t204 -43.5q113 0 202.5 44t151.5 118q61 75 94 173.5t33 209.5v32q0 111 -33 210t-95 173q-62 75 -151.5 118.5t-203.5 43.5t-203 -44t-151 -118q-62 -75 -95 -174t-33 -209zM251 525v32q1 85 24.5 165t70.5 141
q45 62 112.5 99t155.5 37t155.5 -37t114.5 -99q45 -61 69 -141t25 -165v-32q-1 -86 -24.5 -166t-68.5 -141q-47 -62 -114 -99t-155 -37q-89 0 -157 37t-113 98q-47 62 -70.5 142t-24.5 166zM310 1408q0 -33 22 -56.5t60 -23.5t60.5 23.5t22.5 56.5q0 34 -22.5 57.5
t-60.5 23.5t-60 -23.5t-22 -57.5zM747 1407q0 -33 22 -56.5t60 -23.5t60.5 23.5t22.5 56.5q0 34 -22.5 58t-60.5 24t-60 -24t-22 -58z" />
    <glyph glyph-name="divide" unicode="&#xf7;" 
d="M1113 643v118h-998v-118h998zM539 1088q0 -33 22 -56.5t60 -23.5t60.5 23.5t22.5 56.5q0 34 -22.5 58t-60.5 24t-60 -24t-22 -58zM538 291q0 -32 22 -55.5t60 -23.5t60.5 23.5t22.5 55.5q0 34 -22.5 58t-60.5 24t-60 -24t-22 -58z" />
    <glyph glyph-name="oslash" unicode="&#xf8;" 
d="M132 557v-32q1 -138 50 -254.5t142 -191.5l-107 -219h93l85 175q48 -26 102.5 -40.5t118.5 -14.5q113 0 202.5 44t151.5 118q61 75 94 173.5t33 209.5v32q0 74 -15.5 144t-43.5 131q-28 58 -68 106.5t-91 83.5l94 192h-93l-74 -151q-43 20 -91 29.5t-101 9.5
q-114 0 -203 -44t-151 -118q-62 -75 -95 -174t-33 -209zM251 525v32q0 85 24 165t71 141q45 62 112.5 99t155.5 37q41 0 77 -8.5t68 -23.5l-384 -785q-60 64 -91.5 153.5t-32.5 189.5zM978 557v-32q-1 -86 -24.5 -166t-68.5 -141q-47 -62 -114 -99t-155 -37
q-50 0 -93.5 12.5t-80.5 35.5l385 787q35 -28 61.5 -64t45.5 -78q21 -50 32 -105.5t12 -112.5z" />
    <glyph glyph-name="ugrave" unicode="&#xf9;" 
d="M926 0h112v1082h-121v-762q-14 -53 -41.5 -95.5t-67.5 -71.5q-43 -33 -100 -50.5t-127 -17.5q-67 0 -116 21t-82 63t-49 103.5t-16 142.5v667h-120v-665q1 -104 25 -185.5t71 -136.5q47 -56 115.5 -85.5t158.5 -29.5q122 0 211 50.5t142 140.5zM660 1235l-177 266h-144
l217 -266h104z" />
    <glyph glyph-name="uacute" unicode="&#xfa;" 
d="M926 0h112v1082h-121v-762q-14 -53 -41.5 -95.5t-67.5 -71.5q-43 -33 -100 -50.5t-127 -17.5q-67 0 -116 21t-82 63t-49 103.5t-16 142.5v667h-120v-665q1 -104 25 -185.5t71 -136.5q47 -56 115.5 -85.5t158.5 -29.5q122 0 211 50.5t142 140.5zM721 1500l-184 -266h100
l229 266h-145z" />
    <glyph glyph-name="ucircumflex" unicode="&#xfb;" 
d="M926 0h112v1082h-121v-762q-14 -53 -41.5 -95.5t-67.5 -71.5q-43 -33 -100 -50.5t-127 -17.5q-67 0 -116 21t-82 63t-49 103.5t-16 142.5v667h-120v-665q1 -104 25 -185.5t71 -136.5q47 -56 115.5 -85.5t158.5 -29.5q122 0 211 50.5t142 140.5zM895 1279l-241 241h-76
l-237 -239v-20h108l167 174l168 -174h111v18z" />
    <glyph glyph-name="udieresis" unicode="&#xfc;" 
d="M926 0h112v1082h-121v-762q-14 -53 -41.5 -95.5t-67.5 -71.5q-43 -33 -100 -50.5t-127 -17.5q-67 0 -116 21t-82 63t-49 103.5t-16 142.5v667h-120v-665q1 -104 25 -185.5t71 -136.5q47 -56 115.5 -85.5t158.5 -29.5q122 0 211 50.5t142 140.5zM293 1399q0 -33 22 -56.5
t60 -23.5t60.5 23.5t22.5 56.5q0 34 -22.5 57.5t-60.5 23.5t-60 -23.5t-22 -57.5zM730 1398q0 -33 22 -56.5t60 -23.5t60.5 23.5t22.5 56.5q0 34 -22.5 58t-60.5 24t-60 -24t-22 -58z" />
    <glyph glyph-name="yacute" unicode="&#xfd;" 
d="M250 -437q70 0 123.5 23.5t94.5 60.5q40 37 70 84t52 96l559 1255h-136l-352 -824l-39 -94l-39 97l-372 821h-135l487 -1055l-74 -158q-16 -34 -38 -69t-52 -64t-67.5 -47t-83.5 -18q-18 0 -40.5 2t-45.5 5l-14 -101q21 -5 49.5 -9.5t52.5 -4.5zM754 1500l-184 -266h100
l229 266h-145z" />
    <glyph glyph-name="thorn" unicode="&#xfe;" 
d="M1068 530v21q0 113 -26.5 216t-80.5 180q-51 72 -128.5 113.5t-179.5 41.5q-56 0 -108 -13t-97 -37q-39 -22 -72.5 -51.5t-59.5 -66.5v613h-119v-1963h119v550q27 -35 61 -62t74 -46q45 -22 97 -34t108 -12q103 0 179.5 44.5t128.5 118.5q53 76 78.5 178t25.5 209z
M948 551v-21q-1 -84 -18.5 -166.5t-57.5 -144.5q-38 -61 -98 -98.5t-146 -37.5q-53 0 -102 13.5t-90 38.5q-39 24 -69.5 57.5t-50.5 75.5v524q19 45 49 82.5t70 64.5q39 27 87.5 42.5t103.5 15.5q81 0 141 -34.5t99 -91.5q41 -61 61.5 -147.5t20.5 -172.5z" />
    <glyph glyph-name="ydieresis" unicode="&#xff;" 
d="M250 -437q70 0 123.5 23.5t94.5 60.5q40 37 70 84t52 96l559 1255h-136l-352 -824l-39 -94l-39 97l-372 821h-135l487 -1055l-74 -158q-16 -34 -38 -69t-52 -64t-67.5 -47t-83.5 -18q-18 0 -40.5 2t-45.5 5l-14 -101q21 -5 49.5 -9.5t52.5 -4.5zM325 1399q0 -33 22 -56.5
t60 -23.5t60.5 23.5t22.5 56.5q0 34 -22.5 57.5t-60.5 23.5t-60 -23.5t-22 -57.5zM762 1398q0 -33 22 -56.5t60 -23.5t60.5 23.5t22.5 56.5q0 34 -22.5 58t-60.5 24t-60 -24t-22 -58z" />
    <glyph glyph-name="Amacron" unicode="&#x100;" 
d="M904 406l129 -406h120l-469 1456h-109l-473 -1456h120l130 406h552zM385 514l244 762l242 -762h-486zM961 1688v98h-671v-98h671z" />
    <glyph glyph-name="amacron" unicode="&#x101;" 
d="M937 0h128v13q-14 49 -23.5 104.5t-10.5 109.5v523q-1 88 -33 154t-88 111q-56 43 -131 65t-161 22t-161.5 -24t-132.5 -66q-57 -43 -91 -101t-37 -127l120 -1q2 51 27 91.5t66 68.5q40 28 93 43t111 15q63 0 117.5 -16.5t94.5 -47.5t63 -77.5t24 -107.5v-122h-235
q-101 0 -193 -18.5t-161 -59.5q-70 -41 -111.5 -106.5t-41.5 -158.5q0 -69 28 -126t76 -96q48 -40 114 -62.5t141 -22.5q60 0 115.5 12.5t105.5 36.5q49 23 90.5 56.5t72.5 74.5q2 -42 7.5 -83t16.5 -77zM543 87q-53 0 -99 15t-80 42q-35 27 -54.5 66.5t-19.5 87.5
q-1 61 26 103t73 71q56 36 136 50t169 15h218v-237q-23 -48 -60 -87.5t-85 -67.5t-105 -43t-119 -15zM966 1367v98h-671v-98h671z" />
    <glyph glyph-name="Abreve" unicode="&#x102;" 
d="M904 406l129 -406h120l-469 1456h-109l-473 -1456h120l130 406h552zM385 514l244 762l242 -762h-486zM918 1838h-102q-1 -39 -14.5 -70.5t-37.5 -53.5t-57.5 -34t-76.5 -12q-44 0 -78 11.5t-57 33.5q-24 22 -37.5 54t-14.5 71h-102q1 -59 23 -106.5t60 -81.5
q38 -33 90.5 -51t115.5 -18t115.5 18t90.5 51q38 34 59.5 81.5t22.5 106.5z" />
    <glyph glyph-name="abreve" unicode="&#x103;" 
d="M937 0h128v13q-14 49 -23.5 104.5t-10.5 109.5v523q-1 88 -33 154t-88 111q-56 43 -131 65t-161 22t-161.5 -24t-132.5 -66q-57 -43 -91 -101t-37 -127l120 -1q2 51 27 91.5t66 68.5q40 28 93 43t111 15q63 0 117.5 -16.5t94.5 -47.5t63 -77.5t24 -107.5v-122h-235
q-101 0 -193 -18.5t-161 -59.5q-70 -41 -111.5 -106.5t-41.5 -158.5q0 -69 28 -126t76 -96q48 -40 114 -62.5t141 -22.5q60 0 115.5 12.5t105.5 36.5q49 23 90.5 56.5t72.5 74.5q2 -42 7.5 -83t16.5 -77zM543 87q-53 0 -99 15t-80 42q-35 27 -54.5 66.5t-19.5 87.5
q-1 61 26 103t73 71q56 36 136 50t169 15h218v-237q-23 -48 -60 -87.5t-85 -67.5t-105 -43t-119 -15zM923 1517h-102q-1 -39 -14.5 -70.5t-37.5 -53.5t-57.5 -34t-76.5 -12q-44 0 -78 11.5t-57 33.5q-24 22 -37.5 54t-14.5 71h-102q1 -59 23 -106.5t60 -81.5
q38 -33 90.5 -51t115.5 -18t115.5 18t90.5 51q38 34 59.5 81.5t22.5 106.5z" />
    <glyph glyph-name="Aogonek" unicode="&#x104;" 
d="M684 1456h-109l-473 -1456h120l130 406h552l124 -389q-30 -21 -60 -44.5t-55 -50.5q-34 -39 -55.5 -81t-21.5 -85q0 -41 13.5 -72.5t36.5 -53.5q23 -21 54.5 -32.5t69.5 -11.5q51 0 88.5 13t66.5 31l-24 85q-21 -13 -48.5 -23t-59.5 -9q-44 0 -66.5 22.5t-22.5 62.5
q0 38 17.5 72.5t45.5 64.5q26 27 57.5 50.5t63.5 43.5l25 1zM385 514l244 762l242 -762h-486z" />
    <glyph glyph-name="aogonek" unicode="&#x105;" 
d="M932 17q-32 -23 -64 -49t-58 -56q-30 -35 -49 -75t-19 -81t13 -72.5t36 -53.5q23 -21 55 -32.5t69 -11.5q51 0 88.5 13t66.5 31l-23 85q-21 -13 -49 -23t-60 -9q-43 0 -65.5 22.5t-23.5 62.5q0 35 15.5 67t39.5 59q26 31 60.5 57.5t70.5 48.5h30v13q-14 49 -23.5 104.5
t-10.5 109.5v523q-1 88 -33 154t-88 111q-56 43 -131 65t-161 22t-161.5 -24t-132.5 -66q-57 -43 -91 -101t-37 -127l120 -1q2 51 27 91.5t66 68.5q40 28 93 43t111 15q63 0 117.5 -16.5t94.5 -47.5t63 -77.5t24 -107.5v-122h-235q-101 0 -193 -18.5t-161 -59.5
q-70 -41 -111.5 -106.5t-41.5 -158.5q0 -69 28 -126t76 -96q48 -40 114 -62.5t141 -22.5q60 0 115.5 12.5t105.5 36.5q49 23 90.5 56.5t72.5 74.5q2 -37 6 -73.5t13 -69.5zM543 87q-53 0 -99 15t-80 42q-35 27 -54.5 66.5t-19.5 87.5q-1 61 26 104t74 70q55 35 135 49.5
t169 15.5h218v-237q-23 -48 -60 -87.5t-85 -67.5t-105 -43t-119 -15z" />
    <glyph glyph-name="Cacute" unicode="&#x106;" 
d="M1100 442h-119q-12 -75 -38.5 -141t-69.5 -115q-44 -49 -106.5 -76.5t-145.5 -27.5q-72 0 -127 24t-96 65q-42 40 -70.5 93.5t-46.5 114.5q-19 59 -27 122t-9 122v212q1 59 9 121.5t27 122.5q18 60 47 113.5t70 93.5t96.5 63.5t126.5 24.5q83 0 145 -28.5t106 -77.5
q44 -50 70.5 -116t38.5 -141h119q-12 100 -48.5 185.5t-96.5 148.5q-61 62 -145 97t-189 34q-88 0 -158 -26.5t-124 -72.5q-55 -46 -95 -108.5t-66 -133.5t-39 -148.5t-14 -153.5v-210q1 -77 14 -153.5t39 -148.5q26 -71 65.5 -133t95.5 -108q54 -46 124.5 -73t157.5 -27
q104 0 187.5 35t144.5 98q60 61 97.5 146t49.5 183zM765 1851l-184 -266h100l229 266h-145z" />
    <glyph glyph-name="cacute" unicode="&#x107;" 
d="M633 82q-96 0 -162.5 38t-107.5 100q-43 62 -62 140t-20 160v42q1 81 20 159t62 141q42 61 108 99t161 38q64 0 119.5 -21t97.5 -58q41 -38 65.5 -89.5t28.5 -112.5h114q-3 83 -36 154t-89 122q-57 51 -133.5 79.5t-166.5 28.5q-119 0 -207 -45t-146 -119
q-59 -76 -88 -173.5t-30 -202.5v-42q1 -105 30 -202.5t88 -171.5q59 -76 147 -121t207 -45q82 0 157.5 27t133.5 74q57 47 93 112t40 142h-114q-5 -58 -31 -105t-68 -79q-43 -34 -97.5 -51.5t-113.5 -17.5zM764 1509l-184 -266h100l229 266h-145z" />
    <glyph glyph-name="Ccircumflex" unicode="&#x108;" 
d="M1100 442h-119q-12 -75 -38.5 -141t-69.5 -115q-44 -49 -106.5 -76.5t-145.5 -27.5q-72 0 -127 24t-96 65q-42 40 -70.5 93.5t-46.5 114.5q-19 59 -27 122t-9 122v212q1 59 9 121.5t27 122.5q18 60 47 113.5t70 93.5t96.5 63.5t126.5 24.5q83 0 145 -28.5t106 -77.5
q44 -50 70.5 -116t38.5 -141h119q-12 100 -48.5 185.5t-96.5 148.5q-61 62 -145 97t-189 34q-88 0 -158 -26.5t-124 -72.5q-55 -46 -95 -108.5t-66 -133.5t-39 -148.5t-14 -153.5v-210q1 -77 14 -153.5t39 -148.5q26 -71 65.5 -133t95.5 -108q54 -46 124.5 -73t157.5 -27
q104 0 187.5 35t144.5 98q60 61 97.5 146t49.5 183zM922 1630l-241 241h-76l-237 -239v-20h108l167 174l168 -174h111v18z" />
    <glyph glyph-name="ccircumflex" unicode="&#x109;" 
d="M633 82q-96 0 -162.5 38t-107.5 100q-43 62 -62 140t-20 160v42q1 81 20 159t62 141q42 61 108 99t161 38q64 0 119.5 -21t97.5 -58q41 -38 65.5 -89.5t28.5 -112.5h114q-3 83 -36 154t-89 122q-57 51 -133.5 79.5t-166.5 28.5q-119 0 -207 -45t-146 -119
q-59 -76 -88 -173.5t-30 -202.5v-42q1 -105 30 -202.5t88 -171.5q59 -76 147 -121t207 -45q82 0 157.5 27t133.5 74q57 47 93 112t40 142h-114q-5 -58 -31 -105t-68 -79q-43 -34 -97.5 -51.5t-113.5 -17.5zM921 1288l-241 241h-76l-237 -239v-20h108l167 174l168 -174h111
v18z" />
    <glyph glyph-name="uni010A" unicode="&#x10a;" 
d="M1100 442h-119q-12 -75 -38.5 -141t-69.5 -115q-44 -49 -106.5 -76.5t-145.5 -27.5q-72 0 -127 24t-96 65q-42 40 -70.5 93.5t-46.5 114.5q-19 59 -27 122t-9 122v212q1 59 9 121.5t27 122.5q18 60 47 113.5t70 93.5t96.5 63.5t126.5 24.5q83 0 145 -28.5t106 -77.5
q44 -50 70.5 -116t38.5 -141h119q-12 100 -48.5 185.5t-96.5 148.5q-61 62 -145 97t-189 34q-88 0 -158 -26.5t-124 -72.5q-55 -46 -95 -108.5t-66 -133.5t-39 -148.5t-14 -153.5v-210q1 -77 14 -153.5t39 -148.5q26 -71 65.5 -133t95.5 -108q54 -46 124.5 -73t157.5 -27
q104 0 187.5 35t144.5 98q60 61 97.5 146t49.5 183zM554 1732q0 -35 23 -58.5t63 -23.5q41 0 63.5 23.5t23.5 58.5q0 35 -23 59.5t-64 24.5q-40 0 -63 -24.5t-23 -59.5z" />
    <glyph glyph-name="uni010B" unicode="&#x10b;" 
d="M633 82q-96 0 -162.5 38t-107.5 100q-43 62 -62 140t-20 160v42q1 81 20 159t62 141q42 61 108 99t161 38q64 0 119.5 -21t97.5 -58q41 -38 65.5 -89.5t28.5 -112.5h114q-3 83 -36 154t-89 122q-57 51 -133.5 79.5t-166.5 28.5q-119 0 -207 -45t-146 -119
q-59 -76 -88 -173.5t-30 -202.5v-42q1 -105 30 -202.5t88 -171.5q59 -76 147 -121t207 -45q82 0 157.5 27t133.5 74q57 47 93 112t40 142h-114q-5 -58 -31 -105t-68 -79q-43 -34 -97.5 -51.5t-113.5 -17.5zM553 1390q0 -35 23 -58.5t63 -23.5q41 0 63.5 23.5t23.5 58.5
q0 35 -23 59.5t-64 24.5q-40 0 -63 -24.5t-23 -59.5z" />
    <glyph glyph-name="Ccaron" unicode="&#x10c;" 
d="M1100 442h-119q-12 -75 -38.5 -141t-69.5 -115q-44 -49 -106.5 -76.5t-145.5 -27.5q-72 0 -127 24t-96 65q-42 40 -70.5 93.5t-46.5 114.5q-19 59 -27 122t-9 122v212q1 59 9 121.5t27 122.5q18 60 47 113.5t70 93.5t96.5 63.5t126.5 24.5q83 0 145 -28.5t106 -77.5
q44 -50 70.5 -116t38.5 -141h119q-12 100 -48.5 185.5t-96.5 148.5q-61 62 -145 97t-189 34q-88 0 -158 -26.5t-124 -72.5q-55 -46 -95 -108.5t-66 -133.5t-39 -148.5t-14 -153.5v-210q1 -77 14 -153.5t39 -148.5q26 -71 65.5 -133t95.5 -108q54 -46 124.5 -73t157.5 -27
q104 0 187.5 35t144.5 98q60 61 97.5 146t49.5 183zM641 1689l-172 185h-107v-16l235 -249h87l236 249v16h-107z" />
    <glyph glyph-name="ccaron" unicode="&#x10d;" 
d="M633 82q-96 0 -162.5 38t-107.5 100q-43 62 -62 140t-20 160v42q1 81 20 159t62 141q42 61 108 99t161 38q64 0 119.5 -21t97.5 -58q41 -38 65.5 -89.5t28.5 -112.5h114q-3 83 -36 154t-89 122q-57 51 -133.5 79.5t-166.5 28.5q-119 0 -207 -45t-146 -119
q-59 -76 -88 -173.5t-30 -202.5v-42q1 -105 30 -202.5t88 -171.5q59 -76 147 -121t207 -45q82 0 157.5 27t133.5 74q57 47 93 112t40 142h-114q-5 -58 -31 -105t-68 -79q-43 -34 -97.5 -51.5t-113.5 -17.5zM640 1346l-172 185h-107v-16l235 -249h87l236 249v16h-107z" />
    <glyph glyph-name="Dcaron" unicode="&#x10e;" 
d="M178 0h351q95 2 177 27t148 70q64 43 115 104t85 133q33 71 51 153t18 170v142q-1 90 -19 173t-53 155q-36 78 -93.5 141.5t-132.5 106.5q-62 37 -136.5 58.5t-159.5 22.5h-351v-1456zM298 1353h231q64 -1 120 -15.5t102 -40.5q69 -37 119 -97.5t81 -133.5
q25 -60 38.5 -127t14.5 -137v-145q-1 -70 -13.5 -136t-36.5 -124q-26 -65 -67 -119t-95 -93q-52 -38 -118 -59.5t-145 -22.5h-231v1250zM565 1668l-172 185h-107v-16l235 -249h87l236 249v16h-107z" />
    <glyph glyph-name="dcaron" unicode="&#x10f;" 
d="M129 551v-21q0 -105 27 -204t79 -175q54 -77 134.5 -124t187.5 -47q99 0 185 40.5t142 117.5l4 -138h112v1536h-120v-600q-53 78 -136 122t-185 44q-111 0 -192 -46.5t-134 -125.5q-51 -74 -77.5 -173t-26.5 -206zM249 530v21q0 80 17.5 159t56.5 143t102 104t157 40
q104 0 182.5 -56.5t115.5 -148.5v-518q-39 -88 -120 -138t-180 -50q-93 0 -155.5 39.5t-101.5 103.5q-38 63 -56 142t-18 159zM1384 1422v125h-117v-127q-1 -79 -24 -146t-67 -131l69 -52q33 32 58.5 70.5t43.5 80.5q18 43 27.5 89.5t9.5 90.5z" />
    <glyph glyph-name="Dcroat" unicode="&#x110;" 
d="M193 0h351q137 2 245 51.5t184 136.5q80 92 122.5 212t42.5 257v142q-1 141 -44 262t-128 217q-72 79 -180 127.5t-242 50.5h-351v-664h-252v-102h252v-690zM553 690v102h-240v561h231q109 -1 194 -42t142 -108q66 -78 101.5 -182t37.5 -219v-145q-2 -113 -33.5 -214.5
t-93.5 -177.5q-59 -73 -145.5 -116.5t-202.5 -45.5h-231v587h240z" />
    <glyph glyph-name="dcroat" unicode="&#x111;" 
d="M1205 1258v102h-191v176h-120v-176h-301v-102h301v-322q-23 35 -53.5 63.5t-65.5 49.5q-44 26 -94.5 39.5t-107.5 13.5q-109 0 -189.5 -45.5t-133.5 -121.5q-55 -76 -81 -176t-26 -208v-21q0 -110 29.5 -214.5t88.5 -182.5q53 -69 131 -111t179 -42q52 0 101 11.5
t92 33.5q40 20 74 48t60 65l4 -138h112v1258h191zM263 530v21q0 80 17.5 159t56.5 143q37 62 101 103t158 41q50 0 95 -14t82 -39q40 -27 71 -66t50 -86v-518q-19 -44 -50 -79t-70 -59q-39 -25 -84.5 -37.5t-95.5 -12.5q-87 0 -149 35.5t-98 91.5q-45 69 -64.5 150.5
t-19.5 166.5z" />
    <glyph glyph-name="Emacron" unicode="&#x112;" 
d="M963 698v105h-643v547h736v106h-855v-1456h860v106h-741v592h643zM951 1688v98h-671v-98h671z" />
    <glyph glyph-name="emacron" unicode="&#x113;" 
d="M655 -20q135 0 237 53t164 139l-76 58q-58 -72 -139 -110t-181 -38q-87 1 -158 35t-122 93q-50 56 -78.5 130t-32.5 160v33h810v73q0 103 -29.5 193.5t-85.5 158.5q-57 67 -140.5 105.5t-190.5 38.5q-102 0 -189.5 -42t-152.5 -116q-66 -74 -103.5 -174t-37.5 -216v-43
q0 -109 37 -205.5t104 -169.5q66 -72 159 -114t205 -42zM633 999q77 0 137 -29.5t102 -78.5q41 -49 64.5 -114t23.5 -130v-11h-685q10 78 40 144.5t77 115.5q46 48 107 75.5t134 27.5zM957 1367v98h-671v-98h671z" />
    <glyph glyph-name="Ebreve" unicode="&#x114;" 
d="M963 698v105h-643v547h736v106h-855v-1456h860v106h-741v592h643zM912 1838h-102q-1 -39 -14.5 -70.5t-37.5 -53.5t-57.5 -34t-76.5 -12q-44 0 -78 11.5t-57 33.5q-24 22 -37.5 54t-14.5 71h-102q1 -59 23 -106.5t60 -81.5q38 -33 90.5 -51t115.5 -18t115.5 18t90.5 51
q38 34 59.5 81.5t22.5 106.5z" />
    <glyph glyph-name="ebreve" unicode="&#x115;" 
d="M655 -20q135 0 237 53t164 139l-76 58q-58 -72 -139 -110t-181 -38q-87 1 -158 35t-122 93q-50 56 -78.5 130t-32.5 160v33h810v73q0 103 -29.5 193.5t-85.5 158.5q-57 67 -140.5 105.5t-190.5 38.5q-102 0 -189.5 -42t-152.5 -116q-66 -74 -103.5 -174t-37.5 -216v-43
q0 -109 37 -205.5t104 -169.5q66 -72 159 -114t205 -42zM633 999q77 0 137 -29.5t102 -78.5q41 -49 64.5 -114t23.5 -130v-11h-685q10 78 40 144.5t77 115.5q46 48 107 75.5t134 27.5zM914 1517h-102q-1 -39 -14.5 -70.5t-37.5 -53.5t-57.5 -34t-76.5 -12q-44 0 -78 11.5
t-57 33.5q-24 22 -37.5 54t-14.5 71h-102q1 -59 23 -106.5t60 -81.5q38 -33 90.5 -51t115.5 -18t115.5 18t90.5 51q38 34 59.5 81.5t22.5 106.5z" />
    <glyph glyph-name="Edotaccent" unicode="&#x116;" 
d="M963 698v105h-643v547h736v106h-855v-1456h860v106h-741v592h643zM542 1711q0 -35 23 -58.5t63 -23.5q41 0 63.5 23.5t23.5 58.5q0 35 -23 59.5t-64 24.5q-40 0 -63 -24.5t-23 -59.5z" />
    <glyph glyph-name="edotaccent" unicode="&#x117;" 
d="M655 -20q135 0 237 53t164 139l-76 58q-58 -72 -139 -110t-181 -38q-87 1 -158 35t-122 93q-50 56 -78.5 130t-32.5 160v33h810v73q0 103 -29.5 193.5t-85.5 158.5q-57 67 -140.5 105.5t-190.5 38.5q-102 0 -189.5 -42t-152.5 -116q-66 -74 -103.5 -174t-37.5 -216v-43
q0 -109 37 -205.5t104 -169.5q66 -72 159 -114t205 -42zM633 999q77 0 137 -29.5t102 -78.5q41 -49 64.5 -114t23.5 -130v-11h-685q10 78 40 144.5t77 115.5q46 48 107 75.5t134 27.5zM538 1391q0 -35 23 -58.5t63 -23.5q41 0 63.5 23.5t23.5 58.5q0 35 -23 59.5t-64 24.5
q-40 0 -63 -24.5t-23 -59.5z" />
    <glyph glyph-name="Eogonek" unicode="&#x118;" 
d="M963 698v105h-643v547h736v106h-855v-1456h627q-29 -21 -56.5 -45.5t-49.5 -50.5q-29 -34 -45.5 -71.5t-16.5 -76.5q0 -41 13.5 -72.5t36.5 -53.5q23 -21 54.5 -32.5t69.5 -11.5q51 0 88.5 13t66.5 31l-24 85q-21 -13 -48.5 -23t-59.5 -9q-44 0 -66.5 22.5t-22.5 62.5
q0 38 17.5 73t46.5 64q26 27 57.5 51t63.5 44h108v106h-741v592h643z" />
    <glyph glyph-name="eogonek" unicode="&#x119;" 
d="M150 511q0 -108 36.5 -204t102.5 -168q64 -72 155 -114t201 -44q16 0 31.5 1.5t30.5 4.5q-49 -45 -79 -94t-30 -103q0 -41 13.5 -72.5t36.5 -53.5q23 -21 54.5 -32.5t69.5 -11.5q51 0 88.5 13t66.5 31l-24 85q-21 -13 -48.5 -23t-59.5 -9q-44 0 -66.5 22.5t-22.5 62.5
q0 39 18 74t47 65q22 23 54.5 47t65.5 45q51 25 93.5 61.5t71.5 77.5l-76 58q-58 -72 -139 -110t-181 -38q-87 1 -158.5 35.5t-121.5 91.5q-53 60 -81.5 138.5t-29.5 155.5v30h810v73q0 103 -29.5 193.5t-85.5 158.5q-57 67 -140.5 105.5t-190.5 38.5q-102 0 -189.5 -42
t-152.5 -116q-66 -74 -103.5 -174t-37.5 -216v-43zM633 999q77 0 137 -29.5t102 -78.5q40 -47 64 -112.5t24 -132.5v-10h-685q10 78 40 144.5t77 115.5q46 48 107 75.5t134 27.5z" />
    <glyph glyph-name="Ecaron" unicode="&#x11a;" 
d="M963 698v105h-643v547h736v106h-855v-1456h860v106h-741v592h643zM626 1668l-172 185h-107v-16l235 -249h87l236 249v16h-107z" />
    <glyph glyph-name="ecaron" unicode="&#x11b;" 
d="M655 -20q135 0 237 53t164 139l-76 58q-58 -72 -139 -110t-181 -38q-87 1 -158 35t-122 93q-50 56 -78.5 130t-32.5 160v33h810v73q0 103 -29.5 193.5t-85.5 158.5q-57 67 -140.5 105.5t-190.5 38.5q-102 0 -189.5 -42t-152.5 -116q-66 -74 -103.5 -174t-37.5 -216v-43
q0 -109 37 -205.5t104 -169.5q66 -72 159 -114t205 -42zM633 999q77 0 137 -29.5t102 -78.5q41 -49 64.5 -114t23.5 -130v-11h-685q10 78 40 144.5t77 115.5q46 48 107 75.5t134 27.5zM625 1347l-172 185h-107v-16l235 -249h87l236 249v16h-107z" />
    <glyph glyph-name="Gcircumflex" unicode="&#x11c;" 
d="M1098 174l-2 519h-459v-106h345l-1 -375q-29 -38 -68.5 -62.5t-85.5 -39.5q-45 -14 -93.5 -19.5t-93.5 -4.5q-71 1 -128.5 24.5t-101.5 64.5q-45 40 -77 93.5t-53 114.5q-21 60 -31 124t-11 125v205q0 59 9.5 121.5t29.5 121.5q19 59 49 112t73 92q43 40 98.5 63
t125.5 23q77 0 136.5 -24t103.5 -67t72.5 -103t42.5 -130h118q-11 96 -49.5 175t-99.5 136q-62 57 -144.5 88t-179.5 31q-87 0 -158 -26.5t-126 -71.5q-57 -46 -98 -108t-68 -133t-40.5 -148t-14.5 -154v-203q1 -79 15.5 -157t44.5 -150q28 -73 71 -135.5t101 -108.5
q57 -46 129.5 -73t160.5 -28q75 0 146.5 14.5t135.5 46.5q49 22 94 55t82 78zM914 1630l-241 241h-76l-237 -239v-20h108l167 174l168 -174h111v18z" />
    <glyph glyph-name="gcircumflex" unicode="&#x11d;" 
d="M159 551v-21q0 -106 27 -207.5t83 -177.5q53 -75 132 -120t186 -45q54 0 104.5 12.5t94.5 35.5q37 19 68.5 45.5t55.5 60.5v-119q0 -77 -21.5 -140t-61.5 -108q-42 -46 -101.5 -71t-136.5 -25q-49 0 -93.5 12.5t-84.5 36.5q-33 18 -64.5 45t-60.5 62l-67 -73
q32 -44 73.5 -76.5t86.5 -54.5q53 -27 109 -40.5t109 -13.5q100 0 180 33t136 93q56 59 86.5 141.5t30.5 182.5v1063h-111l-5 -151q-23 35 -52.5 64t-64.5 50q-44 28 -96.5 42.5t-111.5 14.5q-113 0 -194.5 -48t-133.5 -126q-52 -77 -77 -174t-25 -203zM279 530v21
q0 80 17 158t55 141q38 64 102 105.5t159 41.5q53 0 99.5 -15.5t84.5 -43.5t67 -66t47 -85v-508q-18 -45 -48.5 -81t-68.5 -61q-40 -25 -86 -38t-97 -13q-88 0 -151 37t-101 97q-41 63 -59.5 145t-19.5 165zM901 1288l-241 241h-76l-237 -239v-20h108l167 174l168 -174h111
v18z" />
    <glyph glyph-name="Gbreve" unicode="&#x11e;" 
d="M1098 174l-2 519h-459v-106h345l-1 -375q-29 -38 -68.5 -62.5t-85.5 -39.5q-45 -14 -93.5 -19.5t-93.5 -4.5q-71 1 -128.5 24.5t-101.5 64.5q-45 40 -77 93.5t-53 114.5q-21 60 -31 124t-11 125v205q0 59 9.5 121.5t29.5 121.5q19 59 49 112t73 92q43 40 98.5 63
t125.5 23q77 0 136.5 -24t103.5 -67t72.5 -103t42.5 -130h118q-11 96 -49.5 175t-99.5 136q-62 57 -144.5 88t-179.5 31q-87 0 -158 -26.5t-126 -71.5q-57 -46 -98 -108t-68 -133t-40.5 -148t-14.5 -154v-203q1 -79 15.5 -157t44.5 -150q28 -73 71 -135.5t101 -108.5
q57 -46 129.5 -73t160.5 -28q75 0 146.5 14.5t135.5 46.5q49 22 94 55t82 78zM921 1859h-102q-1 -39 -14.5 -70.5t-37.5 -53.5t-57.5 -34t-76.5 -12q-44 0 -78 11.5t-57 33.5q-24 22 -37.5 54t-14.5 71h-102q1 -59 23 -106.5t60 -81.5q38 -33 90.5 -51t115.5 -18t115.5 18
t90.5 51q38 34 59.5 81.5t22.5 106.5z" />
    <glyph glyph-name="gbreve" unicode="&#x11f;" 
d="M159 551v-21q0 -106 27 -207.5t83 -177.5q53 -75 132 -120t186 -45q54 0 104.5 12.5t94.5 35.5q37 19 68.5 45.5t55.5 60.5v-119q0 -77 -21.5 -140t-61.5 -108q-42 -46 -101.5 -71t-136.5 -25q-49 0 -93.5 12.5t-84.5 36.5q-33 18 -64.5 45t-60.5 62l-67 -73
q32 -44 73.5 -76.5t86.5 -54.5q53 -27 109 -40.5t109 -13.5q100 0 180 33t136 93q56 59 86.5 141.5t30.5 182.5v1063h-111l-5 -151q-23 35 -52.5 64t-64.5 50q-44 28 -96.5 42.5t-111.5 14.5q-113 0 -194.5 -48t-133.5 -126q-52 -77 -77 -174t-25 -203zM279 530v21
q0 80 17 158t55 141q38 64 102 105.5t159 41.5q53 0 99.5 -15.5t84.5 -43.5t67 -66t47 -85v-508q-18 -45 -48.5 -81t-68.5 -61q-40 -25 -86 -38t-97 -13q-88 0 -151 37t-101 97q-41 63 -59.5 145t-19.5 165zM910 1516h-102q-1 -39 -14.5 -70.5t-37.5 -53.5t-57.5 -34
t-76.5 -12q-44 0 -78 11.5t-57 33.5q-24 22 -37.5 54t-14.5 71h-102q1 -59 23 -106.5t60 -81.5q38 -33 90.5 -51t115.5 -18t115.5 18t90.5 51q38 34 59.5 81.5t22.5 106.5z" />
    <glyph glyph-name="uni0120" unicode="&#x120;" 
d="M1098 174l-2 519h-459v-106h345l-1 -375q-29 -38 -68.5 -62.5t-85.5 -39.5q-45 -14 -93.5 -19.5t-93.5 -4.5q-71 1 -128.5 24.5t-101.5 64.5q-45 40 -77 93.5t-53 114.5q-21 60 -31 124t-11 125v205q0 59 9.5 121.5t29.5 121.5q19 59 49 112t73 92q43 40 98.5 63
t125.5 23q77 0 136.5 -24t103.5 -67t72.5 -103t42.5 -130h118q-11 96 -49.5 175t-99.5 136q-62 57 -144.5 88t-179.5 31q-87 0 -158 -26.5t-126 -71.5q-57 -46 -98 -108t-68 -133t-40.5 -148t-14.5 -154v-203q1 -79 15.5 -157t44.5 -150q28 -73 71 -135.5t101 -108.5
q57 -46 129.5 -73t160.5 -28q75 0 146.5 14.5t135.5 46.5q49 22 94 55t82 78zM545 1732q0 -35 23 -58.5t63 -23.5q41 0 63.5 23.5t23.5 58.5q0 35 -23 59.5t-64 24.5q-40 0 -63 -24.5t-23 -59.5z" />
    <glyph glyph-name="uni0121" unicode="&#x121;" 
d="M159 551v-21q0 -106 27 -207.5t83 -177.5q53 -75 132 -120t186 -45q54 0 104.5 12.5t94.5 35.5q37 19 68.5 45.5t55.5 60.5v-119q0 -77 -21.5 -140t-61.5 -108q-42 -46 -101.5 -71t-136.5 -25q-49 0 -93.5 12.5t-84.5 36.5q-33 18 -64.5 45t-60.5 62l-67 -73
q32 -44 73.5 -76.5t86.5 -54.5q53 -27 109 -40.5t109 -13.5q100 0 180 33t136 93q56 59 86.5 141.5t30.5 182.5v1063h-111l-5 -151q-23 35 -52.5 64t-64.5 50q-44 28 -96.5 42.5t-111.5 14.5q-113 0 -194.5 -48t-133.5 -126q-52 -77 -77 -174t-25 -203zM279 530v21
q0 80 17 158t55 141q38 64 102 105.5t159 41.5q53 0 99.5 -15.5t84.5 -43.5t67 -66t47 -85v-508q-18 -45 -48.5 -81t-68.5 -61q-40 -25 -86 -38t-97 -13q-88 0 -151 37t-101 97q-41 63 -59.5 145t-19.5 165zM534 1390q0 -35 23 -58.5t63 -23.5q41 0 63.5 23.5t23.5 58.5
q0 35 -23 59.5t-64 24.5q-40 0 -63 -24.5t-23 -59.5z" />
    <glyph glyph-name="Gcommaaccent" unicode="&#x122;" 
d="M1098 174l-2 519h-459v-106h345l-1 -375q-29 -38 -68.5 -62.5t-85.5 -39.5q-45 -14 -93.5 -19.5t-93.5 -4.5q-71 1 -128.5 24.5t-101.5 64.5q-45 40 -77 93.5t-53 114.5q-21 60 -31 124t-11 125v205q0 59 9.5 121.5t29.5 121.5q19 59 49 112t73 92q43 40 98.5 63
t125.5 23q77 0 136.5 -24t103.5 -67t72.5 -103t42.5 -130h118q-11 96 -49.5 175t-99.5 136q-62 57 -144.5 88t-179.5 31q-87 0 -158 -26.5t-126 -71.5q-57 -46 -98 -108t-68 -133t-40.5 -148t-14.5 -154v-203q1 -79 15.5 -157t44.5 -150q28 -73 71 -135.5t101 -108.5
q57 -46 129.5 -73t160.5 -28q75 0 146.5 14.5t135.5 46.5q49 22 94 55t82 78zM695 -155v74h-115v-76q0 -68 -18 -124.5t-53 -111.5l71 -52q59 60 87 135t28 155z" />
    <glyph glyph-name="gcommaaccent" unicode="&#x123;" 
d="M159 551v-21q0 -106 27 -207.5t83 -177.5q53 -75 132 -120t186 -45q54 0 104.5 12.5t94.5 35.5q37 19 68.5 45.5t55.5 60.5v-119q0 -77 -21.5 -140t-61.5 -108q-42 -46 -101.5 -71t-136.5 -25q-49 0 -93.5 12.5t-84.5 36.5q-33 18 -64.5 45t-60.5 62l-67 -73
q32 -44 73.5 -76.5t86.5 -54.5q53 -27 109 -40.5t109 -13.5q100 0 180 33t136 93q56 59 86.5 141.5t30.5 182.5v1063h-111l-5 -151q-23 35 -52.5 64t-64.5 50q-44 28 -96.5 42.5t-111.5 14.5q-113 0 -194.5 -48t-133.5 -126q-52 -77 -77 -174t-25 -203zM279 530v21
q0 80 17 158t55 141q38 64 102 105.5t159 41.5q53 0 99.5 -15.5t84.5 -43.5t67 -66t47 -85v-508q-18 -45 -48.5 -81t-68.5 -61q-40 -25 -86 -38t-97 -13q-88 0 -151 37t-101 97q-41 63 -59.5 145t-19.5 165zM548 1393v-129h120v126q0 54 14 100.5t41 96.5l-75 50
q-37 -44 -68 -109t-32 -135z" />
    <glyph glyph-name="Hcircumflex" unicode="&#x124;" 
d="M1070 0v1456h-113v-653h-685v653h-112v-1456h112v698h685v-698h113zM890 1609l-241 241h-76l-237 -239v-20h108l167 174l168 -174h111v18z" />
    <glyph glyph-name="hcircumflex" unicode="&#x125;" 
d="M314 871v665h-120v-1536h120v744q17 51 48.5 96t73.5 78q45 37 100.5 58t117.5 21q71 1 123.5 -20.5t87.5 -62.5q33 -39 49 -95.5t17 -126.5v-692h120v691q-1 98 -25 174.5t-70 129.5q-47 53 -115.5 80t-157.5 27q-68 0 -128 -20t-109 -56q-41 -29 -74.5 -68.5
t-57.5 -86.5zM568 1628l-241 241h-76l-237 -239v-20h108l167 174l168 -174h111v18z" />
    <glyph glyph-name="Hbar" unicode="&#x126;" 
d="M1065 1124v332h-113v-332h-685v332h-112v-332h-119v-98h119v-1026h112v698h685v-698h113v1026h139v98h-139zM267 803v223h685v-223h-685z" />
    <glyph glyph-name="hbar" unicode="&#x127;" 
d="M621 1258v102h-292v176h-120v-176h-200v-102h200v-1258h120v744q17 51 48 96t73 78q46 37 101.5 58t117.5 21q70 1 122.5 -20t86.5 -61q34 -39 50.5 -96t17.5 -128v-692h120v691q-1 98 -25 174.5t-70 129.5q-47 53 -115.5 80t-157.5 27q-64 0 -120 -17.5t-104 -49.5
q-45 -30 -82 -72t-63 -92v387h292z" />
    <glyph glyph-name="Itilde" unicode="&#x128;" 
d="M193 1456v-108h354v-1241h-354v-107h843v107h-365v1241h365v108h-843zM926 1826l-78 15q-2 -25 -10 -47t-21 -38q-14 -17 -34 -27t-45 -10q-40 0 -72.5 17t-63.5 38q-32 20 -66 37.5t-76 17.5q-43 0 -77 -16.5t-58 -44.5q-25 -28 -39 -65t-15 -78l79 -12q2 36 20.5 63.5
t47.5 35.5q20 9 41.5 10.5t46.5 -3.5q29 -6 52.5 -20.5t54.5 -32.5q27 -18 56.5 -31.5t68.5 -13.5q42 0 76.5 16.5t58.5 45.5q25 27 38.5 64.5t14.5 78.5z" />
    <glyph glyph-name="itilde" unicode="&#x129;" 
d="M221 1082v-107h383v-868h-383v-107h871v107h-369v975h-502zM989 1514l-78 15q-2 -25 -10 -47t-21 -38q-14 -17 -34 -27t-45 -10q-40 0 -72.5 17t-63.5 38q-32 20 -66 37.5t-76 17.5q-43 0 -77 -16.5t-58 -44.5q-25 -28 -39 -65t-15 -78l79 -12q2 36 20.5 63.5t47.5 35.5
q20 9 41.5 10.5t46.5 -3.5q29 -6 52.5 -20.5t54.5 -32.5q27 -18 56.5 -31.5t68.5 -13.5q42 0 76.5 16.5t58.5 45.5q25 27 38.5 64.5t14.5 78.5z" />
    <glyph glyph-name="Imacron" unicode="&#x12a;" 
d="M193 1456v-108h354v-1241h-354v-107h843v107h-365v1241h365v108h-843zM932 1688v98h-671v-98h671z" />
    <glyph glyph-name="imacron" unicode="&#x12b;" 
d="M221 1082v-107h383v-868h-383v-107h871v107h-369v975h-502zM995 1377v98h-671v-98h671z" />
    <glyph glyph-name="Ibreve" unicode="&#x12c;" 
d="M193 1456v-108h354v-1241h-354v-107h843v107h-365v1241h365v108h-843zM884 1838h-102q-1 -39 -14.5 -70.5t-37.5 -53.5t-57.5 -34t-76.5 -12q-44 0 -78 11.5t-57 33.5q-24 22 -37.5 54t-14.5 71h-102q1 -59 23 -106.5t60 -81.5q38 -33 90.5 -51t115.5 -18t115.5 18
t90.5 51q38 34 59.5 81.5t22.5 106.5z" />
    <glyph glyph-name="ibreve" unicode="&#x12d;" 
d="M221 1082v-107h383v-868h-383v-107h871v107h-369v975h-502zM952 1527h-102q-1 -39 -14.5 -70.5t-37.5 -53.5t-57.5 -34t-76.5 -12q-44 0 -78 11.5t-57 33.5q-24 22 -37.5 54t-14.5 71h-102q1 -59 23 -106.5t60 -81.5q38 -33 90.5 -51t115.5 -18t115.5 18t90.5 51
q38 34 59.5 81.5t22.5 106.5z" />
    <glyph glyph-name="Iogonek" unicode="&#x12e;" 
d="M193 1456v-108h354v-1241h-354v-107h425q-28 -20 -54.5 -43t-48.5 -49q-30 -35 -47.5 -73.5t-17.5 -78.5q0 -41 13.5 -72.5t36.5 -53.5q23 -21 54.5 -32.5t69.5 -11.5q51 0 88.5 13t66.5 31l-24 85q-21 -13 -48.5 -23t-59.5 -9q-44 0 -66.5 22.5t-22.5 62.5q0 39 18 74
t47 65q26 26 57.5 49.5t62.5 43.5h293v107h-365v1241h365v108h-843z" />
    <glyph glyph-name="iogonek" unicode="&#x12f;" 
d="M221 1082v-107h383v-868h-383v-107h377q-27 -20 -53 -42.5t-48 -47.5q-31 -35 -49 -74t-18 -80t13.5 -72.5t36.5 -53.5q23 -21 54.5 -32.5t69.5 -11.5q51 0 88.5 13t66.5 31l-24 85q-21 -13 -48.5 -23t-59.5 -9q-44 0 -66.5 22.5t-22.5 62.5q0 38 17 72t45 63
q26 28 58 52t65 45h369v107h-369v975h-502zM569 1378q0 -36 21 -62t69 -26t69.5 26t21.5 62q0 37 -21.5 64.5t-69.5 27.5q-49 0 -69.5 -27.5t-20.5 -64.5z" />
    <glyph glyph-name="Idotaccent" unicode="&#x130;" 
d="M193 1456v-108h354v-1241h-354v-107h843v107h-365v1241h365v108h-843zM503 1711q0 -35 23 -58.5t63 -23.5q41 0 63.5 23.5t23.5 58.5q0 35 -23 59.5t-64 24.5q-40 0 -63 -24.5t-23 -59.5z" />
    <glyph glyph-name="dotlessi" unicode="&#x131;" 
d="M221 1082v-107h383v-868h-383v-107h871v107h-369v975h-502z" />
    <glyph glyph-name="IJ" unicode="&#x132;" 
d="M258 0v1456h-119v-1456h119zM976 1456v-1124q0 -54 -10.5 -99.5t-35.5 -78.5q-26 -33 -69.5 -51.5t-110.5 -18.5q-104 0 -162 56t-58 181h-120q0 -87 25 -151t70 -106t107.5 -62.5t137.5 -20.5q88 0 153 24t108 69t63.5 110t20.5 148v1124h-119z" />
    <glyph glyph-name="ij" unicode="&#x133;" 
d="M682 1082v-107h245v-974q0 -93 -23.5 -155.5t-64.5 -100.5q-41 -39 -95 -55.5t-114 -16.5q-15 0 -40 0.5t-52 2.5q-27 1 -54 3.5t-45 5.5l-8 -103q25 -5 48.5 -8t45.5 -5q27 -2 54.5 -3t58.5 -1q97 0 172.5 30t128.5 86q53 57 80.5 137.5t27.5 182.5v1081h-365zM108 1082
v-107h256v-868h-259v-107h596v107h-217v975h-376zM333 1376q0 -36 21 -62t70 -26q47 0 69 26t22 62q0 37 -22 64t-69 27q-50 0 -70.5 -27.5t-20.5 -63.5zM887 1377q0 -36 21 -62t70 -26q48 0 69.5 26t21.5 62q0 37 -21.5 64t-69.5 27q-50 0 -70.5 -27.5t-20.5 -63.5z" />
    <glyph glyph-name="Jcircumflex" unicode="&#x134;" 
d="M902 1456l1 -1013q-2 -73 -26 -137.5t-67 -113.5t-104 -77.5t-137 -28.5q-75 -1 -135.5 22.5t-103.5 67.5q-43 43 -68 103t-29 132h-121q7 -98 42 -177.5t94 -135.5q59 -57 140 -87.5t181 -30.5q99 0 182 36t143 98t94 146.5t36 182.5v1013h-122zM1239 1588l-241 241h-76
l-237 -239v-20h108l167 174l168 -174h111v18z" />
    <glyph glyph-name="jcircumflex" unicode="&#x135;" 
d="M266 1082v-107h412v-975q0 -93 -24 -156t-64 -102q-41 -40 -95 -57t-114 -17q-15 0 -40 0.5t-52 2.5q-28 1 -54.5 3.5t-44.5 5.5l-8 -100q26 -4 49 -7t46 -5q27 -3 54 -4t58 -1q97 0 172.5 30.5t128.5 86.5t80.5 137t27.5 183v1082h-532zM1013 1316l-241 241h-76
l-237 -239v-20h108l167 174l168 -174h111v18z" />
    <glyph glyph-name="Kcommaaccent" unicode="&#x136;" 
d="M509 720l527 -720h146l-593 811l553 645h-150l-492 -572l-179 -203v775h-120v-1456h120v523zM664 -88v74h-115v-76q0 -68 -18 -124.5t-53 -111.5l71 -52q59 60 87 135t28 155z" />
    <glyph glyph-name="kcommaaccent" unicode="&#x137;" 
d="M491 546l464 -546h153l-533 627l483 455h-152l-440 -405l-129 -126v985h-120v-1536h120v411zM595 -85v74h-115v-76q0 -68 -18 -124.5t-53 -111.5l71 -52q59 60 87 135t28 155z" />
    <glyph glyph-name="kgreenlandic" unicode="&#x138;" 
d="M505 505l466 -505h154l-537 588l487 494h-146l-449 -445l-146 -150v595h-120v-1082h120v349z" />
    <glyph glyph-name="Lacute" unicode="&#x139;" 
d="M340 106v1350h-120v-1456h861v106h-741zM405 1783l-184 -266h100l229 266h-145z" />
    <glyph glyph-name="lacute" unicode="&#x13a;" 
d="M221 1536v-107h385v-1322h-385v-107h871v107h-367v1429h-504zM765 1900l-184 -266h100l229 266h-145z" />
    <glyph glyph-name="Lcommaaccent" unicode="&#x13b;" 
d="M340 106v1350h-120v-1456h861v106h-741zM662 -141v74h-115v-76q0 -68 -18 -124.5t-53 -111.5l71 -52q59 60 87 135t28 155z" />
    <glyph glyph-name="lcommaaccent" unicode="&#x13c;" 
d="M221 1536v-107h385v-1322h-385v-107h871v107h-367v1429h-504zM730 -140v74h-115v-76q0 -68 -18 -124.5t-53 -111.5l71 -52q59 60 87 135t28 155z" />
    <glyph glyph-name="Lcaron" unicode="&#x13d;" 
d="M340 106v1350h-120v-1456h861v106h-741zM872 1331v125h-117v-127q-1 -79 -24 -146t-67 -131l69 -52q33 32 58.5 70.5t43.5 80.5q18 43 27.5 89.5t9.5 90.5z" />
    <glyph glyph-name="lcaron" unicode="&#x13e;" 
d="M181 1536v-107h385v-1322h-385v-107h871v107h-367v1429h-504zM1115 1414v125h-117v-127q-1 -79 -24 -146t-67 -131l69 -52q33 32 58.5 70.5t43.5 80.5q18 43 27.5 89.5t9.5 90.5z" />
    <glyph glyph-name="Ldot" unicode="&#x13f;" 
d="M340 106v1350h-120v-1456h861v106h-741zM574 773q0 -35 23 -58.5t63 -23.5q41 0 63.5 23.5t23.5 58.5q0 35 -23 59.5t-64 24.5q-40 0 -63 -24.5t-23 -59.5z" />
    <glyph glyph-name="ldot" unicode="&#x140;" 
d="M176 1537v-107h385v-1322h-385v-107h871v107h-367v1429h-504zM820 824q0 -35 23 -58.5t63 -23.5q41 0 63.5 23.5t23.5 58.5q0 35 -23 59.5t-64 24.5q-40 0 -63 -24.5t-23 -59.5z" />
    <glyph glyph-name="Lslash" unicode="&#x141;" 
d="M362 823v633h-120v-671l-184 -57v-109l184 57v-676h861v106h-741v608l294 92v109z" />
    <glyph glyph-name="lslash" unicode="&#x142;" 
d="M725 908v628h-504v-107h385v-570l-368 -120l-3 -111l371 122v-643h-385v-107h871v107h-367v691l340 109l4 111z" />
    <glyph glyph-name="Nacute" unicode="&#x143;" 
d="M1069 0v1456h-120v-1223l-668 1223h-119v-1456h119v1226l669 -1226h119zM734 1830l-184 -266h100l229 266h-145z" />
    <glyph glyph-name="nacute" unicode="&#x144;" 
d="M193 0h120v739q17 53 48.5 99t72.5 80q45 36 100 57.5t117 21.5q71 1 122.5 -19t86.5 -59q34 -39 50.5 -96t17.5 -131v-692h120l-1 694q0 97 -24 173.5t-70 128.5q-47 52 -115.5 79t-157.5 27q-67 0 -126 -19.5t-109 -54.5q-42 -29 -76 -69t-59 -87l-6 210h-111v-1082z
M730 1509l-184 -266h100l229 266h-145z" />
    <glyph glyph-name="Ncommaaccent" unicode="&#x145;" 
d="M1069 0v1456h-120v-1223l-668 1223h-119v-1456h119v1226l669 -1226h119zM674 -141v74h-115v-76q0 -68 -18 -124.5t-53 -111.5l71 -52q59 60 87 135t28 155z" />
    <glyph glyph-name="ncommaaccent" unicode="&#x146;" 
d="M193 0h120v739q17 53 48.5 99t72.5 80q45 36 100 57.5t117 21.5q71 1 122.5 -19t86.5 -59q34 -39 50.5 -96t17.5 -131v-692h120l-1 694q0 97 -24 173.5t-70 128.5q-47 52 -115.5 79t-157.5 27q-67 0 -126 -19.5t-109 -54.5q-42 -29 -76 -69t-59 -87l-6 210h-111v-1082z
M671 -141v74h-115v-76q0 -68 -18 -124.5t-53 -111.5l71 -52q59 60 87 135t28 155z" />
    <glyph glyph-name="Ncaron" unicode="&#x147;" 
d="M1069 0v1456h-120v-1223l-668 1223h-119v-1456h119v1226l669 -1226h119zM611 1668l-172 185h-107v-16l235 -249h87l236 249v16h-107z" />
    <glyph glyph-name="ncaron" unicode="&#x148;" 
d="M193 0h120v739q17 53 48.5 99t72.5 80q45 36 100 57.5t117 21.5q71 1 122.5 -19t86.5 -59q34 -39 50.5 -96t17.5 -131v-692h120l-1 694q0 97 -24 173.5t-70 128.5q-47 52 -115.5 79t-157.5 27q-67 0 -126 -19.5t-109 -54.5q-42 -29 -76 -69t-59 -87l-6 210h-111v-1082z
M607 1346l-172 185h-107v-16l235 -249h87l236 249v16h-107z" />
    <glyph glyph-name="napostrophe" unicode="&#x149;" 
d="M193 0h120v739q17 53 48.5 99t72.5 80q45 36 100 57.5t117 21.5q71 1 122.5 -19t86.5 -59q34 -39 50.5 -96t17.5 -131v-692h120l-1 694q0 97 -24 173.5t-70 128.5q-47 52 -115.5 79t-157.5 27q-67 0 -126 -19.5t-109 -54.5q-42 -29 -76 -69t-59 -87l-6 210h-111v-1082z
M213 1422v125h-117v-127q-1 -79 -24 -146t-67 -131l69 -52q33 32 58.5 70.5t43.5 80.5q18 43 27.5 89.5t9.5 90.5z" />
    <glyph glyph-name="Eng" unicode="&#x14a;" 
d="M1044 1456h-118l-1 -1206l-621 1200l-2 6h-118v-1456h118v1208l623 -1203v-94q0 -48 -10 -94.5t-31 -81.5q-18 -30 -45.5 -49.5t-68.5 -19.5q-20 0 -44.5 4.5t-44.5 11.5l-13 -100q26 -9 50.5 -14t51.5 -5q73 0 124.5 28.5t85.5 77.5q33 48 49 110.5t16 131.5z" />
    <glyph glyph-name="eng" unicode="&#x14b;" 
d="M204 0h120v738q13 51 37 97t59 81q39 37 94 59t127 22q75 0 126.5 -26t82.5 -72q31 -45 44.5 -107t13.5 -133v-748q0 -54 -12.5 -100t-38.5 -78q-22 -29 -55 -45.5t-78 -16.5q-25 0 -55 4.5t-55 11.5l-14 -105q32 -9 62 -14t62 -5q74 0 129.5 25.5t93.5 68.5
q40 46 60.5 111t20.5 143v749q-1 98 -22 180t-64 140q-44 58 -112 90t-162 32q-71 0 -129.5 -19.5t-104.5 -53.5q-36 -28 -64 -64.5t-50 -78.5v9l-9 187h-107v-1082z" />
    <glyph glyph-name="Omacron" unicode="&#x14c;" 
d="M1104 632v192q-1 74 -13.5 151.5t-37.5 150.5q-26 72 -65 136t-93 112q-54 47 -124 74.5t-157 27.5t-157 -27.5t-124 -74.5q-54 -49 -93 -112.5t-64 -136.5q-26 -72 -38.5 -149.5t-13.5 -151.5v-192q1 -75 14 -152t39 -149q25 -73 64.5 -136.5t93.5 -111.5t124 -75.5
t157 -27.5q86 0 156 27.5t124 75.5t93 111.5t64 135.5q25 73 37.5 150t13.5 152zM986 826v-194q-1 -58 -8.5 -120.5t-25.5 -122.5q-18 -61 -46 -115t-69 -95q-41 -42 -96 -66t-125 -24q-71 0 -125.5 24t-95.5 66q-42 41 -70.5 95.5t-46.5 114.5t-26 122.5t-9 120.5v194
q1 57 9 119t26 123q18 60 46 114t70 96q41 40 95.5 64.5t124.5 24.5t125 -24t96 -65t69.5 -95.5t46.5 -113.5q18 -61 26 -123t9 -120zM959 1709v98h-671v-98h671z" />
    <glyph glyph-name="omacron" unicode="&#x14d;" 
d="M132 557v-32q0 -111 33 -210t96 -173q61 -75 151 -118.5t204 -43.5q113 0 202.5 44t151.5 118q61 75 94 173.5t33 209.5v32q0 111 -33 210t-95 173q-62 75 -151.5 118.5t-203.5 43.5t-203 -44t-151 -118q-62 -75 -95 -174t-33 -209zM251 525v32q1 85 24.5 165t70.5 141
q45 62 112.5 99t155.5 37t155.5 -37t114.5 -99q45 -61 69 -141t25 -165v-32q-1 -86 -24.5 -166t-68.5 -141q-47 -62 -114 -99t-155 -37q-89 0 -157 37t-113 98q-47 62 -70.5 142t-24.5 166zM948 1366v98h-671v-98h671z" />
    <glyph glyph-name="Obreve" unicode="&#x14e;" 
d="M1104 632v192q-1 74 -13.5 151.5t-37.5 150.5q-26 72 -65 136t-93 112q-54 47 -124 74.5t-157 27.5t-157 -27.5t-124 -74.5q-54 -49 -93 -112.5t-64 -136.5q-26 -72 -38.5 -149.5t-13.5 -151.5v-192q1 -75 14 -152t39 -149q25 -73 64.5 -136.5t93.5 -111.5t124 -75.5
t157 -27.5q86 0 156 27.5t124 75.5t93 111.5t64 135.5q25 73 37.5 150t13.5 152zM986 826v-194q-1 -58 -8.5 -120.5t-25.5 -122.5q-18 -61 -46 -115t-69 -95q-41 -42 -96 -66t-125 -24q-71 0 -125.5 24t-95.5 66q-42 41 -70.5 95.5t-46.5 114.5t-26 122.5t-9 120.5v194
q1 57 9 119t26 123q18 60 46 114t70 96q41 40 95.5 64.5t124.5 24.5t125 -24t96 -65t69.5 -95.5t46.5 -113.5q18 -61 26 -123t9 -120zM915 1859h-102q-1 -39 -14.5 -70.5t-37.5 -53.5t-57.5 -34t-76.5 -12q-44 0 -78 11.5t-57 33.5q-24 22 -37.5 54t-14.5 71h-102
q1 -59 23 -106.5t60 -81.5q38 -33 90.5 -51t115.5 -18t115.5 18t90.5 51q38 34 59.5 81.5t22.5 106.5z" />
    <glyph glyph-name="obreve" unicode="&#x14f;" 
d="M132 557v-32q0 -111 33 -210t96 -173q61 -75 151 -118.5t204 -43.5q113 0 202.5 44t151.5 118q61 75 94 173.5t33 209.5v32q0 111 -33 210t-95 173q-62 75 -151.5 118.5t-203.5 43.5t-203 -44t-151 -118q-62 -75 -95 -174t-33 -209zM251 525v32q1 85 24.5 165t70.5 141
q45 62 112.5 99t155.5 37t155.5 -37t114.5 -99q45 -61 69 -141t25 -165v-32q-1 -86 -24.5 -166t-68.5 -141q-47 -62 -114 -99t-155 -37q-89 0 -157 37t-113 98q-47 62 -70.5 142t-24.5 166zM904 1516h-102q-1 -39 -14.5 -70.5t-37.5 -53.5t-57.5 -34t-76.5 -12
q-44 0 -78 11.5t-57 33.5q-24 22 -37.5 54t-14.5 71h-102q1 -59 23 -106.5t60 -81.5q38 -33 90.5 -51t115.5 -18t115.5 18t90.5 51q38 34 59.5 81.5t22.5 106.5z" />
    <glyph glyph-name="Ohungarumlaut" unicode="&#x150;" 
d="M1104 632v192q-1 74 -13.5 151.5t-37.5 150.5q-26 72 -65 136t-93 112q-54 47 -124 74.5t-157 27.5t-157 -27.5t-124 -74.5q-54 -49 -93 -112.5t-64 -136.5q-26 -72 -38.5 -149.5t-13.5 -151.5v-192q1 -75 14 -152t39 -149q25 -73 64.5 -136.5t93.5 -111.5t124 -75.5
t157 -27.5q86 0 156 27.5t124 75.5t93 111.5t64 135.5q25 73 37.5 150t13.5 152zM986 826v-194q-1 -58 -8.5 -120.5t-25.5 -122.5q-18 -61 -46 -115t-69 -95q-41 -42 -96 -66t-125 -24q-71 0 -125.5 24t-95.5 66q-42 41 -70.5 95.5t-46.5 114.5t-26 122.5t-9 120.5v194
q1 57 9 119t26 123q18 60 46 114t70 96q41 40 95.5 64.5t124.5 24.5t125 -24t96 -65t69.5 -95.5t46.5 -113.5q18 -61 26 -123t9 -120zM923 1882l-269 -287h122l300 287h-153zM618 1882l-215 -287h110l247 287h-142z" />
    <glyph glyph-name="ohungarumlaut" unicode="&#x151;" 
d="M132 557v-32q0 -111 33 -210t96 -173q61 -75 151 -118.5t204 -43.5q113 0 202.5 44t151.5 118q61 75 94 173.5t33 209.5v32q0 111 -33 210t-95 173q-62 75 -151.5 118.5t-203.5 43.5t-203 -44t-151 -118q-62 -75 -95 -174t-33 -209zM251 525v32q1 85 24.5 165t70.5 141
q45 62 112.5 99t155.5 37t155.5 -37t114.5 -99q45 -61 69 -141t25 -165v-32q-1 -86 -24.5 -166t-68.5 -141q-47 -62 -114 -99t-155 -37q-89 0 -157 37t-113 98q-47 62 -70.5 142t-24.5 166zM912 1540l-269 -287h122l300 287h-153zM607 1540l-215 -287h110l247 287h-142z" />
    <glyph glyph-name="OE" unicode="&#x152;" 
d="M1192 0v103h-446v596h381v103h-381v551h441v103h-454q-59 8 -120 12t-124 3q-109 0 -186.5 -46t-127.5 -122t-74.5 -176.5t-24.5 -209.5v-378q0 -104 24 -204t74 -177q49 -78 128.5 -125.5t188.5 -47.5q63 0 123 4.5t119 10.5h459zM491 87q-84 1 -140.5 38.5t-90.5 98.5
q-36 64 -50 146t-14 169v380q0 88 14.5 171.5t50.5 147.5q33 57 89.5 93.5t138.5 36.5q36 1 71 0.5t70 -4.5v-1273q-35 -3 -69.5 -3.5t-69.5 -0.5z" />
    <glyph glyph-name="oe" unicode="&#x153;" 
d="M27 631v-180q0 -90 20.5 -178t64.5 -155q40 -60 103 -99t150 -39q59 0 106.5 18t84.5 50q28 27 50 61.5t37 73.5q15 -37 36 -71t49 -60q37 -34 85 -52.5t108 -19.5q45 0 83 9t70 24t57.5 34.5t47.5 41.5l-41 84q-19 -17 -40 -33t-47 -29q-27 -13 -59 -21t-71 -8
q-41 1 -72.5 16t-54.5 41q-24 26 -41.5 63t-28.5 80q-10 38 -14 77.5t-4 76.5v91h504l1 162q0 80 -16.5 155t-52.5 132q-37 58 -95 92t-141 34q-53 0 -97 -18t-79 -50q-28 -27 -49.5 -62.5t-37.5 -74.5q-15 38 -36 73t-50 61q-37 33 -85 52t-109 19q-85 0 -150 -39
t-105 -105q-42 -69 -61.5 -154.5t-19.5 -172.5zM147 451v180q0 63 11.5 130.5t36.5 119.5q26 54 67 86t101 32q49 0 85.5 -22t61.5 -59q19 -28 33 -62.5t22 -71.5q8 -38 12 -77.5t4 -75.5v-180q0 -41 -4.5 -84.5t-13.5 -83.5q-9 -38 -26 -76.5t-44 -68.5q-23 -25 -55 -40.5
t-73 -15.5q-61 0 -101.5 31t-66.5 81q-27 51 -38.5 121.5t-11.5 135.5zM906 999q53 0 89.5 -28t59.5 -70q21 -43 30.5 -93.5t8.5 -95.5l-1 -83h-387v9q0 34 4 72.5t11 75.5q9 46 26.5 88t42.5 71q22 25 50.5 39.5t65.5 14.5z" />
    <glyph glyph-name="Racute" unicode="&#x154;" 
d="M682 609l319 -609h125l1 13l-333 624q63 26 115.5 63t90.5 85q38 49 59.5 109t21.5 134q0 102 -36.5 181t-99.5 133q-64 55 -149 83.5t-181 30.5h-411v-1456h118v609h360zM322 712v641h293q73 -1 136.5 -23t109.5 -63q47 -42 73.5 -102t26.5 -136q0 -70 -24.5 -127.5
t-67.5 -98.5q-44 -42 -102.5 -66t-126.5 -25h-318zM713 1824l-184 -266h100l229 266h-145z" />
    <glyph glyph-name="racute" unicode="&#x155;" 
d="M909 1102q-147 1 -255.5 -61t-171.5 -173l-1 48l-7 166h-114v-1082h124l-2 693q20 74 57.5 128.5t88.5 90.5q53 37 119.5 54.5t142.5 17.5q44 0 86 -5t83 -14l16 116q-31 10 -76.5 15.5t-89.5 5.5zM706 1509l-184 -266h100l229 266h-145z" />
    <glyph glyph-name="Rcommaaccent" unicode="&#x156;" 
d="M682 609l319 -609h125l1 13l-333 624q63 26 115.5 63t90.5 85q38 49 59.5 109t21.5 134q0 102 -36.5 181t-99.5 133q-64 55 -149 83.5t-181 30.5h-411v-1456h118v609h360zM322 712v641h293q73 -1 136.5 -23t109.5 -63q47 -42 73.5 -102t26.5 -136q0 -70 -24.5 -127.5
t-67.5 -98.5q-44 -42 -102.5 -66t-126.5 -25h-318zM635 -141v74h-115v-76q0 -68 -18 -124.5t-53 -111.5l71 -52q59 60 87 135t28 155z" />
    <glyph glyph-name="rcommaaccent" unicode="&#x157;" 
d="M909 1102q-147 1 -255.5 -61t-171.5 -173l-1 48l-7 166h-114v-1082h124l-2 693q20 74 57.5 128.5t88.5 90.5q53 37 119.5 54.5t142.5 17.5q44 0 86 -5t83 -14l16 116q-31 10 -76.5 15.5t-89.5 5.5zM485 -136v74h-115v-76q0 -68 -18 -124.5t-53 -111.5l71 -52
q59 60 87 135t28 155z" />
    <glyph glyph-name="Rcaron" unicode="&#x158;" 
d="M682 609l319 -609h125l1 13l-333 624q63 26 115.5 63t90.5 85q38 49 59.5 109t21.5 134q0 102 -36.5 181t-99.5 133q-64 55 -149 83.5t-181 30.5h-411v-1456h118v609h360zM322 712v641h293q73 -1 136.5 -23t109.5 -63q47 -42 73.5 -102t26.5 -136q0 -70 -24.5 -127.5
t-67.5 -98.5q-44 -42 -102.5 -66t-126.5 -25h-318zM590 1662l-172 185h-107v-16l235 -249h87l236 249v16h-107z" />
    <glyph glyph-name="rcaron" unicode="&#x159;" 
d="M909 1102q-147 1 -255.5 -61t-171.5 -173l-1 48l-7 166h-114v-1082h124l-2 693q20 74 57.5 128.5t88.5 90.5q53 37 119.5 54.5t142.5 17.5q44 0 86 -5t83 -14l16 116q-31 10 -76.5 15.5t-89.5 5.5zM584 1346l-172 185h-107v-16l235 -249h87l236 249v16h-107z" />
    <glyph glyph-name="Sacute" unicode="&#x15a;" 
d="M990 359q0 -72 -30 -123.5t-79 -84.5q-48 -33 -110 -49t-126 -16q-77 0 -143.5 20.5t-117.5 61.5q-51 40 -84 99.5t-42 138.5h-121q4 -94 41 -168.5t101 -128.5q71 -64 167.5 -96.5t198.5 -32.5q86 0 170 24t151 71q66 47 107 118.5t41 167.5t-40.5 167.5t-104.5 120.5
q-67 52 -147 86t-160 59q-58 17 -121.5 40.5t-116.5 59.5q-53 35 -86.5 85t-34.5 123q0 68 29.5 118t77.5 84q48 33 107.5 49.5t120.5 16.5q73 0 133.5 -23t104.5 -65q45 -42 72 -100.5t35 -129.5h122q-3 96 -41.5 174.5t-101.5 133.5q-64 55 -147.5 85.5t-176.5 30.5
q-83 0 -165 -24.5t-147 -71.5q-65 -48 -105.5 -118.5t-40.5 -161.5q1 -99 44 -167t111 -117q62 -45 139 -77t150 -55q61 -19 126 -44t119 -61q53 -37 87.5 -90.5t33.5 -129.5zM754 1851l-184 -266h100l229 266h-145z" />
    <glyph glyph-name="sacute" unicode="&#x15b;" 
d="M948 276q0 -38 -16.5 -69t-46.5 -55q-46 -35 -109 -52.5t-134 -17.5q-54 0 -110.5 10.5t-103.5 36.5t-79.5 68.5t-38.5 106.5h-120q3 -74 38.5 -134t97.5 -102q60 -41 142 -64.5t174 -23.5q85 0 167 21t144 65q51 37 83 91.5t32 124.5q0 74 -33.5 126.5t-89.5 89.5
q-57 37 -132 61t-157 42q-64 13 -122.5 29.5t-100.5 41.5q-42 23 -64 57.5t-22 81.5t25 82.5t65 58.5q40 24 91.5 35.5t106.5 11.5q58 0 112.5 -15t97.5 -43q42 -28 68.5 -69t27.5 -93h121q-3 77 -37.5 137t-91.5 102q-57 41 -133.5 62.5t-164.5 21.5q-78 0 -151.5 -20
t-128.5 -56q-58 -39 -92.5 -94t-34.5 -125q0 -74 34.5 -125.5t90.5 -84.5q60 -35 129 -57t152 -39q66 -14 127 -34t104 -48q39 -25 61 -60.5t22 -82.5zM763 1509l-184 -266h100l229 266h-145z" />
    <glyph glyph-name="Scircumflex" unicode="&#x15c;" 
d="M990 359q0 -72 -30 -123.5t-79 -84.5q-48 -33 -110 -49t-126 -16q-77 0 -143.5 20.5t-117.5 61.5q-51 40 -84 99.5t-42 138.5h-121q4 -94 41 -168.5t101 -128.5q71 -64 167.5 -96.5t198.5 -32.5q86 0 170 24t151 71q66 47 107 118.5t41 167.5t-40.5 167.5t-104.5 120.5
q-67 52 -147 86t-160 59q-58 17 -121.5 40.5t-116.5 59.5q-53 35 -86.5 85t-34.5 123q0 68 29.5 118t77.5 84q48 33 107.5 49.5t120.5 16.5q73 0 133.5 -23t104.5 -65q45 -42 72 -100.5t35 -129.5h122q-3 96 -41.5 174.5t-101.5 133.5q-64 55 -147.5 85.5t-176.5 30.5
q-83 0 -165 -24.5t-147 -71.5q-65 -48 -105.5 -118.5t-40.5 -161.5q1 -99 44 -167t111 -117q62 -45 139 -77t150 -55q61 -19 126 -44t119 -61q53 -37 87.5 -90.5t33.5 -129.5zM911 1630l-241 241h-76l-237 -239v-20h108l167 174l168 -174h111v18z" />
    <glyph glyph-name="scircumflex" unicode="&#x15d;" 
d="M948 276q0 -38 -16.5 -69t-46.5 -55q-46 -35 -109 -52.5t-134 -17.5q-54 0 -110.5 10.5t-103.5 36.5t-79.5 68.5t-38.5 106.5h-120q3 -74 38.5 -134t97.5 -102q60 -41 142 -64.5t174 -23.5q85 0 167 21t144 65q51 37 83 91.5t32 124.5q0 74 -33.5 126.5t-89.5 89.5
q-57 37 -132 61t-157 42q-64 13 -122.5 29.5t-100.5 41.5q-42 23 -64 57.5t-22 81.5t25 82.5t65 58.5q40 24 91.5 35.5t106.5 11.5q58 0 112.5 -15t97.5 -43q42 -28 68.5 -69t27.5 -93h121q-3 77 -37.5 137t-91.5 102q-57 41 -133.5 62.5t-164.5 21.5q-78 0 -151.5 -20
t-128.5 -56q-58 -39 -92.5 -94t-34.5 -125q0 -74 34.5 -125.5t90.5 -84.5q60 -35 129 -57t152 -39q66 -14 127 -34t104 -48q39 -25 61 -60.5t22 -82.5zM920 1288l-241 241h-76l-237 -239v-20h108l167 174l168 -174h111v18z" />
    <glyph glyph-name="Scedilla" unicode="&#x15e;" 
d="M990 359q0 -72 -30 -123.5t-79 -84.5q-48 -33 -110 -49t-126 -16q-77 0 -143.5 20.5t-117.5 61.5q-51 40 -84 99.5t-42 138.5h-121q4 -94 41 -168.5t101 -128.5q71 -64 167.5 -96.5t198.5 -32.5q86 0 170 24t151 71q66 47 107 118.5t41 167.5t-40.5 167.5t-104.5 120.5
q-67 52 -147 86t-160 59q-58 17 -121.5 40.5t-116.5 59.5q-53 35 -86.5 85t-34.5 123q0 68 29.5 118t77.5 84q48 33 107.5 49.5t120.5 16.5q73 0 133.5 -23t104.5 -65q45 -42 72 -100.5t35 -129.5h122q-3 96 -41.5 174.5t-101.5 133.5q-64 55 -147.5 85.5t-176.5 30.5
q-83 0 -165 -24.5t-147 -71.5q-65 -48 -105.5 -118.5t-40.5 -161.5q1 -99 44 -167t111 -117q62 -45 139 -77t150 -55q61 -19 126 -44t119 -61q53 -37 87.5 -90.5t33.5 -129.5zM690 -9h-93l-28 -127q35 -4 66.5 -9.5t56.5 -16.5q24 -12 38.5 -32t13.5 -52q0 -34 -19.5 -57
t-48.5 -36q-29 -14 -64.5 -20t-68.5 -7l7 -78q52 1 102.5 11t90.5 30q46 24 73.5 63.5t27.5 95.5q0 42 -13.5 72t-36.5 50t-53 32t-62 17z" />
    <glyph glyph-name="scedilla" unicode="&#x15f;" 
d="M948 276q0 -38 -16.5 -69t-46.5 -55q-46 -35 -109 -52.5t-134 -17.5q-54 0 -110.5 10.5t-103.5 36.5t-79.5 68.5t-38.5 106.5h-120q3 -74 38.5 -134t97.5 -102q60 -41 142 -64.5t174 -23.5q85 0 167 21t144 65q51 37 83 91.5t32 124.5q0 74 -33.5 126.5t-89.5 89.5
q-57 37 -132 61t-157 42q-64 13 -122.5 29.5t-100.5 41.5q-42 23 -64 57.5t-22 81.5t25 82.5t65 58.5q40 24 91.5 35.5t106.5 11.5q58 0 112.5 -15t97.5 -43q42 -28 68.5 -69t27.5 -93h121q-3 77 -37.5 137t-91.5 102q-57 41 -133.5 62.5t-164.5 21.5q-78 0 -151.5 -20
t-128.5 -56q-58 -39 -92.5 -94t-34.5 -125q0 -74 34.5 -125.5t90.5 -84.5q60 -35 129 -57t152 -39q66 -14 127 -34t104 -48q39 -25 61 -60.5t22 -82.5zM677 -6h-93l-28 -127q35 -4 66.5 -9.5t56.5 -16.5q24 -12 38.5 -32t13.5 -52q0 -34 -19.5 -57t-48.5 -36
q-29 -14 -64.5 -20t-68.5 -7l7 -78q52 1 102.5 11t90.5 30q46 24 73.5 63.5t27.5 95.5q0 42 -13.5 72t-36.5 50t-53 32t-62 17z" />
    <glyph glyph-name="Scaron" unicode="&#x160;" 
d="M990 359q0 -72 -30 -123.5t-79 -84.5q-48 -33 -110 -49t-126 -16q-77 0 -143.5 20.5t-117.5 61.5q-51 40 -84 99.5t-42 138.5h-121q4 -94 41 -168.5t101 -128.5q71 -64 167.5 -96.5t198.5 -32.5q86 0 170 24t151 71q66 47 107 118.5t41 167.5t-40.5 167.5t-104.5 120.5
q-67 52 -147 86t-160 59q-58 17 -121.5 40.5t-116.5 59.5q-53 35 -86.5 85t-34.5 123q0 68 29.5 118t77.5 84q48 33 107.5 49.5t120.5 16.5q73 0 133.5 -23t104.5 -65q45 -42 72 -100.5t35 -129.5h122q-3 96 -41.5 174.5t-101.5 133.5q-64 55 -147.5 85.5t-176.5 30.5
q-83 0 -165 -24.5t-147 -71.5q-65 -48 -105.5 -118.5t-40.5 -161.5q1 -99 44 -167t111 -117q62 -45 139 -77t150 -55q61 -19 126 -44t119 -61q53 -37 87.5 -90.5t33.5 -129.5zM630 1689l-172 185h-107v-16l235 -249h87l236 249v16h-107z" />
    <glyph glyph-name="scaron" unicode="&#x161;" 
d="M948 276q0 -38 -16.5 -69t-46.5 -55q-46 -35 -109 -52.5t-134 -17.5q-54 0 -110.5 10.5t-103.5 36.5t-79.5 68.5t-38.5 106.5h-120q3 -74 38.5 -134t97.5 -102q60 -41 142 -64.5t174 -23.5q85 0 167 21t144 65q51 37 83 91.5t32 124.5q0 74 -33.5 126.5t-89.5 89.5
q-57 37 -132 61t-157 42q-64 13 -122.5 29.5t-100.5 41.5q-42 23 -64 57.5t-22 81.5t25 82.5t65 58.5q40 24 91.5 35.5t106.5 11.5q58 0 112.5 -15t97.5 -43q42 -28 68.5 -69t27.5 -93h121q-3 77 -37.5 137t-91.5 102q-57 41 -133.5 62.5t-164.5 21.5q-78 0 -151.5 -20
t-128.5 -56q-58 -39 -92.5 -94t-34.5 -125q0 -74 34.5 -125.5t90.5 -84.5q60 -35 129 -57t152 -39q66 -14 127 -34t104 -48q39 -25 61 -60.5t22 -82.5zM639 1346l-172 185h-107v-16l235 -249h87l236 249v16h-107z" />
    <glyph glyph-name="uni0162" unicode="&#x162;" 
d="M1140 1350v106h-1046v-106h465l-1 -1350h117v1350h465zM668 0h-93l-28 -127q35 -4 66.5 -9.5t56.5 -16.5q24 -12 38.5 -32t13.5 -52q0 -34 -19.5 -57t-48.5 -36q-29 -14 -64.5 -20t-68.5 -7l7 -78q52 1 102.5 11t90.5 30q46 24 73.5 63.5t27.5 95.5q0 42 -13.5 72
t-36.5 50t-53 32t-62 17z" />
    <glyph glyph-name="uni0163" unicode="&#x163;" 
d="M593 1359h-122v-277h-301v-99h301v-678q1 -89 26.5 -150.5t70.5 -100.5t106.5 -56.5t133.5 -17.5q35 0 70.5 2.5t68.5 7.5q26 4 49.5 10.5t42.5 14.5l-19 91q-15 -2 -35 -5.5t-42 -6.5q-28 -4 -57 -6t-58 -2q-49 0 -91.5 11t-74.5 37q-32 25 -50.5 66.5t-19.5 104.5v678
h401v99h-401zM807 0h-93l-28 -127q35 -4 66.5 -9.5t56.5 -16.5q24 -12 38.5 -32t13.5 -52q0 -34 -19.5 -57t-48.5 -36q-29 -14 -64.5 -20t-68.5 -7l7 -78q52 1 102.5 11t90.5 30q46 24 73.5 63.5t27.5 95.5q0 42 -13.5 72t-36.5 50t-53 32t-62 17z" />
    <glyph glyph-name="Tcaron" unicode="&#x164;" 
d="M1140 1350v106h-1046v-106h465l-1 -1350h117v1350h465zM622 1658l-172 185h-107v-16l235 -249h87l236 249v16h-107z" />
    <glyph glyph-name="tcaron" unicode="&#x165;" 
d="M576 1359h-122v-277h-301v-99h301v-678q1 -89 26.5 -150.5t70.5 -100.5t106.5 -56.5t133.5 -17.5q35 0 70.5 2.5t68.5 7.5q26 4 49.5 10.5t42.5 14.5l-19 91q-15 -2 -35 -5.5t-42 -6.5q-28 -4 -57 -6t-58 -2q-49 0 -91.5 11t-74.5 37q-32 25 -50.5 66.5t-19.5 104.5v678
h401v99h-401zM1059 1512v125h-117v-127q-1 -79 -24 -146t-67 -131l69 -52q33 32 58.5 70.5t43.5 80.5q18 43 27.5 89.5t9.5 90.5z" />
    <glyph glyph-name="Tbar" unicode="&#x166;" 
d="M936 835v103h-261v412h465v106h-1046v-106h465v-412h-255v-103h255l-1 -835h117v835h261z" />
    <glyph glyph-name="tbar" unicode="&#x167;" 
d="M593 1359h-122v-277h-301v-99h301v-262h-230v-103h230v-313q1 -89 26.5 -150.5t70.5 -100.5t106.5 -56.5t133.5 -17.5q32 0 64.5 2.5t62.5 6.5q29 4 55.5 10.5t48.5 15.5l-19 91q-17 -3 -39.5 -6.5t-46.5 -6.5q-26 -3 -53 -5t-53 -2q-49 0 -91.5 11t-74.5 37
q-32 25 -50.5 66.5t-19.5 104.5v313h261v103h-261v262h401v99h-401z" />
    <glyph glyph-name="Utilde" unicode="&#x168;" 
d="M1071 1456h-115l-2 -986q-2 -75 -24.5 -144t-65.5 -122q-43 -54 -105.5 -86t-143.5 -32t-144 32t-105 85q-44 53 -67 122.5t-24 144.5l-2 986h-114l-1 -986q1 -100 33.5 -189t91.5 -155q59 -68 143 -107t189 -39q104 0 188 39.5t144 106.5q59 67 92 155.5t33 188.5z
M962 1820l-78 15q-2 -25 -10 -47t-21 -38q-14 -17 -34 -27t-45 -10q-40 0 -72.5 17t-63.5 38q-32 20 -66 37.5t-76 17.5q-43 0 -77 -16.5t-58 -44.5q-25 -28 -39 -65t-15 -78l79 -12q2 36 20.5 63.5t47.5 35.5q20 9 41.5 10.5t46.5 -3.5q29 -6 52.5 -20.5t54.5 -32.5
q27 -18 56.5 -31.5t68.5 -13.5q42 0 76.5 16.5t58.5 45.5q25 27 38.5 64.5t14.5 78.5z" />
    <glyph glyph-name="utilde" unicode="&#x169;" 
d="M926 0h112v1082h-121v-762q-14 -53 -41.5 -95.5t-67.5 -71.5q-43 -33 -100 -50.5t-127 -17.5q-67 0 -116 21t-82 63t-49 103.5t-16 142.5v667h-120v-665q1 -104 25 -185.5t71 -136.5q47 -56 115.5 -85.5t158.5 -29.5q122 0 211 50.5t142 140.5zM924 1495l-78 15
q-2 -25 -10 -47t-21 -38q-14 -17 -34 -27t-45 -10q-40 0 -72.5 17t-63.5 38q-32 20 -66 37.5t-76 17.5q-43 0 -77 -16.5t-58 -44.5q-25 -28 -39 -65t-15 -78l79 -12q2 36 20.5 63.5t47.5 35.5q20 9 41.5 10.5t46.5 -3.5q29 -6 52.5 -20.5t54.5 -32.5q27 -18 56.5 -31.5
t68.5 -13.5q42 0 76.5 16.5t58.5 45.5q25 27 38.5 64.5t14.5 78.5z" />
    <glyph glyph-name="Umacron" unicode="&#x16a;" 
d="M1071 1456h-115l-2 -986q-2 -75 -24.5 -144t-65.5 -122q-43 -54 -105.5 -86t-143.5 -32t-144 32t-105 85q-44 53 -67 122.5t-24 144.5l-2 986h-114l-1 -986q1 -100 33.5 -189t91.5 -155q59 -68 143 -107t189 -39q104 0 188 39.5t144 106.5q59 67 92 155.5t33 188.5z
M968 1682v98h-671v-98h671z" />
    <glyph glyph-name="umacron" unicode="&#x16b;" 
d="M926 0h112v1082h-121v-762q-14 -53 -41.5 -95.5t-67.5 -71.5q-43 -33 -100 -50.5t-127 -17.5q-67 0 -116 21t-82 63t-49 103.5t-16 142.5v667h-120v-665q1 -104 25 -185.5t71 -136.5q47 -56 115.5 -85.5t158.5 -29.5q122 0 211 50.5t142 140.5zM949 1358v98h-671v-98h671
z" />
    <glyph glyph-name="Ubreve" unicode="&#x16c;" 
d="M1071 1456h-115l-2 -986q-2 -75 -24.5 -144t-65.5 -122q-43 -54 -105.5 -86t-143.5 -32t-144 32t-105 85q-44 53 -67 122.5t-24 144.5l-2 986h-114l-1 -986q1 -100 33.5 -189t91.5 -155q59 -68 143 -107t189 -39q104 0 188 39.5t144 106.5q59 67 92 155.5t33 188.5z
M925 1832h-102q-1 -39 -14.5 -70.5t-37.5 -53.5t-57.5 -34t-76.5 -12q-44 0 -78 11.5t-57 33.5q-24 22 -37.5 54t-14.5 71h-102q1 -59 23 -106.5t60 -81.5q38 -33 90.5 -51t115.5 -18t115.5 18t90.5 51q38 34 59.5 81.5t22.5 106.5z" />
    <glyph glyph-name="ubreve" unicode="&#x16d;" 
d="M926 0h112v1082h-121v-762q-14 -53 -41.5 -95.5t-67.5 -71.5q-43 -33 -100 -50.5t-127 -17.5q-67 0 -116 21t-82 63t-49 103.5t-16 142.5v667h-120v-665q1 -104 25 -185.5t71 -136.5q47 -56 115.5 -85.5t158.5 -29.5q122 0 211 50.5t142 140.5zM901 1508h-102
q-1 -39 -14.5 -70.5t-37.5 -53.5t-57.5 -34t-76.5 -12q-44 0 -78 11.5t-57 33.5q-24 22 -37.5 54t-14.5 71h-102q1 -59 23 -106.5t60 -81.5q38 -33 90.5 -51t115.5 -18t115.5 18t90.5 51q38 34 59.5 81.5t22.5 106.5z" />
    <glyph glyph-name="Uring" unicode="&#x16e;" 
d="M1071 1456h-115l-2 -986q-2 -75 -24.5 -144t-65.5 -122q-43 -54 -105.5 -86t-143.5 -32t-144 32t-105 85q-44 53 -67 122.5t-24 144.5l-2 986h-114l-1 -986q1 -100 33.5 -189t91.5 -155q59 -68 143 -107t189 -39q104 0 188 39.5t144 106.5q59 67 92 155.5t33 188.5z
M452 1711q0 -38 14.5 -71.5t39.5 -57.5q24 -25 58 -39t72 -14q39 0 72 14t58 39q25 24 39 57.5t14 71.5q0 39 -14 73t-39 59t-58 40t-72 15q-38 0 -72 -15t-58 -40q-25 -25 -39.5 -59t-14.5 -73zM529 1711q0 25 8.5 46t22.5 37q14 14 34 23t42 9q24 0 43 -9t34 -24
q14 -16 22 -37t8 -45q0 -23 -8 -43t-22 -35q-15 -15 -34.5 -23.5t-42.5 -8.5t-42.5 8.5t-33.5 24.5q-15 15 -23 35t-8 42z" />
    <glyph glyph-name="uring" unicode="&#x16f;" 
d="M926 0h112v1082h-121v-762q-14 -53 -41.5 -95.5t-67.5 -71.5q-43 -33 -100 -50.5t-127 -17.5q-67 0 -116 21t-82 63t-49 103.5t-16 142.5v667h-120v-665q1 -104 25 -185.5t71 -136.5q47 -56 115.5 -85.5t158.5 -29.5q122 0 211 50.5t142 140.5zM414 1386
q0 -38 14.5 -71.5t39.5 -57.5q24 -25 58 -39t72 -14q39 0 72 14t58 39q25 24 39 57.5t14 71.5q0 39 -14 73t-39 59t-58 40t-72 15q-38 0 -72 -15t-58 -40q-25 -25 -39.5 -59t-14.5 -73zM491 1386q0 25 8.5 46t22.5 37q14 14 34 23t42 9q24 0 43 -9t34 -24q14 -16 22 -37
t8 -45q0 -23 -8 -43t-22 -35q-15 -15 -34.5 -23.5t-42.5 -8.5t-42.5 8.5t-33.5 24.5q-15 15 -23 35t-8 42z" />
    <glyph glyph-name="Uhungarumlaut" unicode="&#x170;" 
d="M1071 1456h-115l-2 -986q-2 -75 -24.5 -144t-65.5 -122q-43 -54 -105.5 -86t-143.5 -32t-144 32t-105 85q-44 53 -67 122.5t-24 144.5l-2 986h-114l-1 -986q1 -100 33.5 -189t91.5 -155q59 -68 143 -107t189 -39q104 0 188 39.5t144 106.5q59 67 92 155.5t33 188.5z
M932 1855l-269 -287h122l300 287h-153zM627 1855l-215 -287h110l247 287h-142z" />
    <glyph glyph-name="uhungarumlaut" unicode="&#x171;" 
d="M926 0h112v1082h-121v-762q-14 -53 -41.5 -95.5t-67.5 -71.5q-43 -33 -100 -50.5t-127 -17.5q-67 0 -116 21t-82 63t-49 103.5t-16 142.5v667h-120v-665q1 -104 25 -185.5t71 -136.5q47 -56 115.5 -85.5t158.5 -29.5q122 0 211 50.5t142 140.5zM894 1531l-269 -287h122
l300 287h-153zM589 1531l-215 -287h110l247 287h-142z" />
    <glyph glyph-name="Uogonek" unicode="&#x172;" 
d="M1071 1456h-115l-2 -986q-2 -75 -24.5 -144t-65.5 -122q-43 -54 -105.5 -86t-143.5 -32t-144 32t-105 85q-44 53 -67 122.5t-24 144.5l-2 986h-114l-1 -986q1 -99 33 -187.5t91 -154.5q57 -67 139 -106.5t186 -40.5q10 0 20 0.5t19 2.5q-19 -18 -36 -37.5t-30 -40.5
q-16 -26 -25 -53.5t-9 -56.5q0 -41 13 -72.5t36 -53.5q23 -21 55 -32.5t69 -11.5q51 0 88.5 13t66.5 31l-23 85q-21 -13 -49 -23t-60 -9q-43 0 -65.5 22.5t-23.5 62.5q0 32 12.5 60.5t33.5 54.5q23 29 52.5 54t61.5 47q60 29 108 75t81 104t52 126t19 141z" />
    <glyph glyph-name="uogonek" unicode="&#x173;" 
d="M1037 0h1v1082h-121v-762q-14 -53 -41.5 -95t-66.5 -72q-43 -33 -100 -50.5t-128 -17.5q-67 0 -116 21t-82 63t-49 103.5t-16 142.5v667h-120v-665q1 -104 25 -185.5t71 -136.5q47 -56 115.5 -85.5t158.5 -29.5q122 0 211 50.5t142 140.5l4 -161q-27 -20 -55.5 -43
t-51.5 -49q-34 -37 -54 -78t-20 -84q0 -41 13 -72.5t36 -53.5q23 -21 55 -32.5t69 -11.5q51 0 88.5 13t66.5 31l-23 85q-21 -13 -49 -23t-60 -9q-43 0 -65.5 22.5t-23.5 62.5q0 36 16 68.5t42 61.5t59.5 54.5t68.5 47.5z" />
    <glyph glyph-name="Wcircumflex" unicode="&#x174;" 
d="M290 0h120l208 1125l15 84l15 -84l206 -1125h119l205 1456h-112l-143 -1064l-18 -123l-20 123l-200 1064h-105l-201 -1064l-20 -122l-17 121l-144 1065h-113zM907 1609l-241 241h-76l-237 -239v-20h108l167 174l168 -174h111v18z" />
    <glyph glyph-name="wcircumflex" unicode="&#x175;" 
d="M302 0h98l188 738l33 170l31 -170l191 -738h98l239 1082h-110l-148 -729l-35 -192l-41 192l-182 729h-85l-183 -729l-40 -184l-32 184l-151 729h-110zM903 1279l-241 241h-76l-237 -239v-20h108l167 174l168 -174h111v18z" />
    <glyph glyph-name="Ycircumflex" unicode="&#x176;" 
d="M600 664l-385 792h-139l467 -908l2 -548h112l1 548l468 908h-137zM882 1603l-241 241h-76l-237 -239v-20h108l167 174l168 -174h111v18z" />
    <glyph glyph-name="ycircumflex" unicode="&#x177;" 
d="M250 -437q70 0 123.5 23.5t94.5 60.5q40 37 70 84t52 96l559 1255h-136l-352 -824l-39 -94l-39 97l-372 821h-135l487 -1055l-74 -158q-16 -34 -38 -69t-52 -64t-67.5 -47t-83.5 -18q-18 0 -40.5 2t-45.5 5l-14 -101q21 -5 49.5 -9.5t52.5 -4.5zM912 1279l-241 241h-76
l-237 -239v-20h108l167 174l168 -174h111v18z" />
    <glyph glyph-name="Ydieresis" unicode="&#x178;" 
d="M600 664l-385 792h-139l467 -908l2 -548h112l1 548l468 908h-137zM296 1723q0 -33 22 -56.5t60 -23.5t60.5 23.5t22.5 56.5q0 34 -22.5 57.5t-60.5 23.5t-60 -23.5t-22 -57.5zM733 1722q0 -33 22 -56.5t60 -23.5t60.5 23.5t22.5 56.5q0 34 -22.5 58t-60.5 24t-60 -24
t-22 -58z" />
    <glyph glyph-name="Zacute" unicode="&#x179;" 
d="M269 106l765 1261l-2 89h-879v-105h739l-763 -1257l1 -94h930v106h-791zM746 1824l-184 -266h100l229 266h-145z" />
    <glyph glyph-name="zacute" unicode="&#x17a;" 
d="M307 103l739 890v89h-875v-104h714l-736 -888v-90h949v103h-791zM751 1500l-184 -266h100l229 266h-145z" />
    <glyph glyph-name="Zdotaccent" unicode="&#x17b;" 
d="M269 106l765 1261l-2 89h-879v-105h739l-763 -1257l1 -94h930v106h-791zM536 1705q0 -35 23 -58.5t63 -23.5q41 0 63.5 23.5t23.5 58.5q0 35 -23 59.5t-64 24.5q-40 0 -63 -24.5t-23 -59.5z" />
    <glyph glyph-name="zdotaccent" unicode="&#x17c;" 
d="M307 103l739 890v89h-875v-104h714l-736 -888v-90h949v103h-791zM559 1381q0 -35 23 -58.5t63 -23.5q41 0 63.5 23.5t23.5 58.5q0 35 -23 59.5t-64 24.5q-40 0 -63 -24.5t-23 -59.5z" />
    <glyph glyph-name="Zcaron" unicode="&#x17d;" 
d="M269 106l765 1261l-2 89h-879v-105h739l-763 -1257l1 -94h930v106h-791zM631 1662l-172 185h-107v-16l235 -249h87l236 249v16h-107z" />
    <glyph glyph-name="zcaron" unicode="&#x17e;" 
d="M307 103l739 890v89h-875v-104h714l-736 -888v-90h949v103h-791zM646 1338l-172 185h-107v-16l235 -249h87l236 249v16h-107z" />
    <glyph glyph-name="longs" unicode="&#x17f;" 
d="M489 0h122v1181q1 66 20.5 118.5t55.5 89.5q35 37 86 56.5t116 19.5q33 0 62 -3t55 -10l16 97q-37 9 -73.5 14t-74.5 5q-87 0 -157.5 -26t-120.5 -75q-50 -50 -77.5 -122t-28.5 -164z" />
    <glyph glyph-name="florin" unicode="&#x192;" 
d="M952 983v99h-291l-1 127q-1 62 19.5 109t56.5 79t88 48.5t116 17.5q39 0 75 -6t68 -16l16 99q-43 13 -85.5 20.5t-85.5 7.5q-86 0 -157 -23.5t-121 -68.5q-52 -46 -80.5 -113t-28.5 -154l-1 -127h-210v-99h209l1 -1053q-2 -67 -20 -119t-53 -86q-29 -28 -69 -43.5
t-89 -15.5q-27 0 -66.5 6t-68.5 19l-14 -100q36 -14 73.5 -21t75.5 -7q80 0 145 25t111 72q45 46 69.5 114.5t25.5 155.5l1 1053h291z" />
    <glyph glyph-name="Ohorn" unicode="&#x1a0;" 
d="M1100 632v192q-1 93 -20 189t-59 181q52 13 90 41.5t62 67.5q28 46 41.5 105t12.5 128h-109q-2 -51 -9.5 -95t-24.5 -78q-16 -33 -44 -54.5t-71 -28.5q-29 42 -64 77.5t-78 61.5q-45 27 -99 42t-118 15q-115 0 -200 -47.5t-144 -124.5q-73 -95 -109 -224.5t-36 -255.5
v-192q0 -113 30 -229t90 -212q58 -94 150.5 -152.5t220.5 -58.5q126 0 215.5 56.5t150.5 144.5q62 94 91.5 215t30.5 236zM982 826v-194q-1 -94 -23 -197.5t-69 -182.5q-43 -72 -112 -117.5t-166 -45.5q-100 0 -170 48t-112 121q-48 82 -69.5 182.5t-21.5 191.5v194
q0 95 24.5 203t78.5 189q43 67 109 108t159 41q96 0 165 -45.5t113 -116.5q49 -79 71.5 -180.5t22.5 -198.5z" />
    <glyph glyph-name="ohorn" unicode="&#x1a1;" 
d="M117 557v-32q0 -111 33 -210t96 -173q61 -75 151 -118.5t204 -43.5q113 0 202.5 44t151.5 118q61 75 94 173.5t33 209.5v32q-1 92 -23.5 176.5t-67.5 154.5q51 12 88.5 36t63.5 61q26 40 39 92.5t14 117.5h-111q-1 -50 -9 -89t-27 -68q-15 -23 -40.5 -40.5t-81.5 -28.5
q-61 60 -143 96.5t-185 36.5q-114 0 -203 -44t-151 -118q-62 -75 -95 -174t-33 -209zM236 525v32q1 85 24.5 165t70.5 141q45 62 112.5 99t155.5 37t155.5 -37t114.5 -99q45 -61 69 -141t25 -165v-32q-1 -86 -24.5 -166t-68.5 -141q-47 -62 -114 -99t-155 -37q-89 0 -157 37
t-113 98q-47 62 -70.5 142t-24.5 166z" />
    <glyph glyph-name="Uhorn" unicode="&#x1af;" 
d="M1071 1456h-115l-2 -986q-2 -75 -24.5 -144t-65.5 -122q-43 -54 -105.5 -86t-143.5 -32t-144 32t-105 85q-44 53 -67 122.5t-24 144.5l-2 986h-114l-1 -986q1 -100 33.5 -189t91.5 -155q59 -68 143 -107t189 -39q104 0 188 39.5t144 106.5q59 67 92.5 155.5t33.5 188.5
l-1 697q74 7 127.5 34.5t86.5 72.5q35 47 51.5 112t15.5 146h-109q-2 -57 -9.5 -104t-26.5 -81q-20 -35 -52.5 -56.5t-84.5 -28.5v194z" />
    <glyph glyph-name="uhorn" unicode="&#x1b0;" 
d="M1306 1181h-112q0 -55 -8.5 -97t-27.5 -71q-19 -27 -48 -44.5t-72 -24.5v138h-121v-762q-13 -49 -37 -88.5t-58 -67.5q-44 -38 -104.5 -58.5t-136.5 -20.5q-67 0 -116 21t-82 63t-49 103.5t-16 142.5v667h-120v-665q1 -104 25 -185.5t71 -136.5q47 -56 115.5 -85.5
t158.5 -29.5q122 0 211 50.5t142 140.5l5 -171h112v848q138 15 202 98t66 235z" />
    <glyph glyph-name="uni01F0" unicode="&#x1f0;" 
d="M266 1082v-107h412v-975q0 -93 -24 -156t-64 -102q-41 -40 -95 -57t-114 -17q-15 0 -40 0.5t-52 2.5q-28 1 -54.5 3.5t-44.5 5.5l-8 -100q26 -4 49 -7t46 -5q27 -3 54 -4t58 -1q97 0 172.5 30.5t128.5 86.5t80.5 137t27.5 183v1082h-532zM733 1375l-172 185h-107v-16
l235 -249h87l236 249v16h-107z" />
    <glyph glyph-name="Aringacute" unicode="&#x1fa;" 
d="M904 406l129 -406h120l-469 1456h-109l-473 -1456h120l130 406h552zM385 514l244 762l242 -762h-486zM758 2054l-159 -187h95l204 187h-140zM478 1661q0 -32 12.5 -59.5t34.5 -47.5q21 -20 49.5 -31.5t59.5 -11.5t59 11.5t49 31.5t33.5 47.5t12.5 59.5t-12.5 60.5
t-32.5 49.5q-21 21 -49.5 33t-59.5 12q-32 0 -60 -12t-49 -33q-22 -21 -34.5 -49.5t-12.5 -60.5zM546 1661q0 37 25 63.5t63 26.5q36 0 61 -26.5t25 -63.5q0 -35 -25 -60.5t-61 -25.5q-38 0 -63 25.5t-25 60.5z" />
    <glyph glyph-name="aringacute" unicode="&#x1fb;" 
d="M937 0h128v13q-14 49 -23.5 104.5t-10.5 109.5v523q-1 88 -33 154t-88 111q-56 43 -131 65t-161 22t-161.5 -24t-132.5 -66q-57 -43 -91 -101t-37 -127l120 -1q2 51 27 91.5t66 68.5q40 28 93 43t111 15q63 0 117.5 -16.5t94.5 -47.5t63 -77.5t24 -107.5v-122h-235
q-101 0 -193 -18.5t-161 -59.5q-70 -41 -111.5 -106.5t-41.5 -158.5q0 -69 28 -126t76 -96q48 -40 114 -62.5t141 -22.5q60 0 115.5 12.5t105.5 36.5q49 23 90.5 56.5t72.5 74.5q2 -42 7.5 -83t16.5 -77zM543 87q-53 0 -99 15t-80 42q-35 27 -54.5 66.5t-19.5 87.5
q-1 61 26 103t73 71q56 36 136 50t169 15h218v-237q-23 -48 -60 -87.5t-85 -67.5t-105 -43t-119 -15zM759 1731l-159 -187h95l204 187h-140zM479 1338q0 -32 12.5 -59.5t34.5 -47.5q21 -20 49.5 -31.5t59.5 -11.5t59 11.5t49 31.5t33.5 47.5t12.5 59.5t-12.5 60.5
t-32.5 49.5q-21 21 -49.5 33t-59.5 12q-32 0 -60 -12t-49 -33q-22 -21 -34.5 -49.5t-12.5 -60.5zM547 1338q0 37 25 63.5t63 26.5q36 0 61 -26.5t25 -63.5q0 -35 -25 -60.5t-61 -25.5q-38 0 -63 25.5t-25 60.5z" />
    <glyph glyph-name="AEacute" unicode="&#x1fc;" 
d="M1172 0v103h-394l-9 604h331v103h-332l-9 543h382v103h-534l-552 -1456h126l140 389h341l6 -389h504zM362 503l287 793l13 -793h-300zM807 1830l-184 -266h100l229 266h-145z" />
    <glyph glyph-name="aeacute" unicode="&#x1fd;" 
d="M895 -20q52 0 95 10t77 27q33 15 57.5 35t42.5 41l-37 89q-18 -18 -39.5 -35.5t-47.5 -31.5q-27 -15 -59 -24t-71 -9q-59 0 -102 17t-72 45q-26 25 -42.5 56t-24.5 64q-9 34 -14 70.5t-5 71.5v131h531l1 189q0 73 -17.5 140.5t-55.5 120.5q-37 52 -96.5 83.5t-143.5 31.5
q-50 0 -92.5 -13.5t-75.5 -38.5q-27 -20 -48.5 -47t-37.5 -57q-11 30 -29 57.5t-44 47.5q-33 24 -77 37.5t-102 13.5q-67 0 -123 -20.5t-95 -57.5q-40 -37 -61.5 -90t-20.5 -118l115 -4q-1 41 11 75t36 59t59.5 39t79.5 14q51 0 83 -15.5t51 -41.5q21 -28 28.5 -64.5
t7.5 -75.5l1 -169h-131q-88 -1 -156 -27t-113 -72q-44 -46 -67 -109.5t-23 -139.5q0 -65 18 -120.5t53 -96.5q34 -41 85.5 -64.5t119.5 -23.5q49 0 91 14t77 38q35 23 62.5 55t46.5 68q17 -34 40.5 -63.5t53.5 -52.5q38 -28 88 -43.5t112 -15.5zM341 81q-44 0 -77 16.5
t-55 44.5q-22 27 -33 63t-11 76q0 51 16.5 97t47.5 81q31 34 76 55t103 21h130v-90.5v-80.5q0 -63 3 -90t5 -46q-18 -36 -38 -60t-44 -43q-27 -20 -58 -32t-65 -12zM1071 636h-418v41q0 33 4.5 69.5t14.5 72.5q10 37 27 69.5t43 59.5q23 23 55.5 37t74.5 14q56 0 93.5 -23.5
t60.5 -60.5t33 -81.5t11 -87.5zM746 1510l-184 -266h100l229 266h-145z" />
    <glyph glyph-name="Oslashacute" unicode="&#x1fe;" 
d="M1093 632l1 192q-1 105 -26 213.5t-77 201.5l158 267h-103l-111 -188q-26 33 -57.5 60.5t-68.5 47.5q-43 24 -94.5 37t-110.5 13q-129 0 -221 -59t-149 -149q-61 -93 -89.5 -211.5t-30.5 -232.5v-192q1 -61 9.5 -124t25.5 -124t43 -118t62 -105l-144 -245h103l103 176
q56 -52 127.5 -82t162.5 -30q124 0 214.5 56.5t148.5 144.5q65 94 94.5 214.5t29.5 236.5zM233 632v194q0 87 20 185t65 179q42 74 112 125.5t174 51.5q48 0 89 -11.5t75 -33.5q33 -20 59.5 -47t47.5 -60l-555 -944q-22 36 -37.5 76t-25.5 82q-12 51 -18 102.5t-6 100.5z
M976 826v-194q-2 -98 -23.5 -202.5t-76.5 -189.5q-45 -66 -110.5 -108.5t-159.5 -42.5q-76 0 -133 27t-99 73l548 932q28 -71 40.5 -147.5t13.5 -147.5zM767 1892l-184 -266h100l229 266h-145z" />
    <glyph glyph-name="oslashacute" unicode="&#x1ff;" 
d="M132 557v-32q1 -138 50 -254.5t142 -191.5l-107 -219h93l85 175q48 -26 102.5 -40.5t118.5 -14.5q113 0 202.5 44t151.5 118q61 75 94 173.5t33 209.5v32q0 74 -15.5 144t-43.5 131q-28 58 -68 106.5t-91 83.5l94 192h-93l-74 -151q-43 20 -91 29.5t-101 9.5
q-114 0 -203 -44t-151 -118q-62 -75 -95 -174t-33 -209zM251 525v32q0 85 24 165t71 141q45 62 112.5 99t155.5 37q41 0 77 -8.5t68 -23.5l-384 -785q-60 64 -91.5 153.5t-32.5 189.5zM978 557v-32q-1 -86 -24.5 -166t-68.5 -141q-47 -62 -114 -99t-155 -37
q-50 0 -93.5 12.5t-80.5 35.5l385 787q35 -28 61.5 -64t45.5 -78q21 -50 32 -105.5t12 -112.5zM716 1508l-184 -266h100l229 266h-145z" />
    <glyph glyph-name="uni0218" unicode="&#x218;" 
d="M990 359q0 -72 -30 -123.5t-79 -84.5q-48 -33 -110 -49t-126 -16q-77 0 -143.5 20.5t-117.5 61.5q-51 40 -84 99.5t-42 138.5h-121q4 -94 41 -168.5t101 -128.5q71 -64 167.5 -96.5t198.5 -32.5q86 0 170 24t151 71q66 47 107 118.5t41 167.5t-40.5 167.5t-104.5 120.5
q-67 52 -147 86t-160 59q-58 17 -121.5 40.5t-116.5 59.5q-53 35 -86.5 85t-34.5 123q0 68 29.5 118t77.5 84q48 33 107.5 49.5t120.5 16.5q73 0 133.5 -23t104.5 -65q45 -42 72 -100.5t35 -129.5h122q-3 96 -41.5 174.5t-101.5 133.5q-64 55 -147.5 85.5t-176.5 30.5
q-83 0 -165 -24.5t-147 -71.5q-65 -48 -105.5 -118.5t-40.5 -161.5q1 -99 44 -167t111 -117q62 -45 139 -77t150 -55q61 -19 126 -44t119 -61q53 -37 87.5 -90.5t33.5 -129.5zM705 -161v74h-115v-76q0 -68 -18 -124.5t-53 -111.5l71 -52q59 60 87 135t28 155z" />
    <glyph glyph-name="uni0219" unicode="&#x219;" 
d="M948 276q0 -38 -16.5 -69t-46.5 -55q-46 -35 -109 -52.5t-134 -17.5q-54 0 -110.5 10.5t-103.5 36.5t-79.5 68.5t-38.5 106.5h-120q3 -74 38.5 -134t97.5 -102q60 -41 142 -64.5t174 -23.5q85 0 167 21t144 65q51 37 83 91.5t32 124.5q0 74 -33.5 126.5t-89.5 89.5
q-57 37 -132 61t-157 42q-64 13 -122.5 29.5t-100.5 41.5q-42 23 -64 57.5t-22 81.5t25 82.5t65 58.5q40 24 91.5 35.5t106.5 11.5q58 0 112.5 -15t97.5 -43q42 -28 68.5 -69t27.5 -93h121q-3 77 -37.5 137t-91.5 102q-57 41 -133.5 62.5t-164.5 21.5q-78 0 -151.5 -20
t-128.5 -56q-58 -39 -92.5 -94t-34.5 -125q0 -74 34.5 -125.5t90.5 -84.5q60 -35 129 -57t152 -39q66 -14 127 -34t104 -48q39 -25 61 -60.5t22 -82.5zM692 -158v74h-115v-76q0 -68 -18 -124.5t-53 -111.5l71 -52q59 60 87 135t28 155z" />
    <glyph glyph-name="uni021A" unicode="&#x21a;" 
d="M1140 1350v106h-1046v-106h465l-1 -1350h117v1350h465zM684 -151v74h-115v-76q0 -68 -18 -124.5t-53 -111.5l71 -52q59 60 87 135t28 155z" />
    <glyph glyph-name="uni021B" unicode="&#x21b;" 
d="M593 1359h-122v-277h-301v-99h301v-678q1 -89 26.5 -150.5t70.5 -100.5t106.5 -56.5t133.5 -17.5q35 0 70.5 2.5t68.5 7.5q26 4 49.5 10.5t42.5 14.5l-19 91q-15 -2 -35 -5.5t-42 -6.5q-28 -4 -57 -6t-58 -2q-49 0 -91.5 11t-74.5 37q-32 25 -50.5 66.5t-19.5 104.5v678
h401v99h-401zM822 -151v74h-115v-76q0 -68 -18 -124.5t-53 -111.5l71 -52q59 60 87 135t28 155z" />
    <glyph glyph-name="uni0237" unicode="&#x237;" 
d="M266 1082v-107h412v-975q0 -93 -24 -156t-64 -102q-41 -40 -95 -57t-114 -17q-15 0 -40 0.5t-52 2.5q-28 1 -54.5 3.5t-44.5 5.5l-8 -100q26 -4 49 -7t46 -5q27 -3 54 -4t58 -1q97 0 172.5 30.5t128.5 86.5t80.5 137t27.5 183v1082h-532z" />
    <glyph glyph-name="schwa" unicode="&#x259;" 
d="M613 1103q-65 0 -123.5 -9.5t-107.5 -28.5q-49 -18 -89.5 -43.5t-72.5 -57.5l51 -84q29 30 65 52t77 37q44 16 94.5 23.5t105.5 7.5q84 0 149.5 -32t113.5 -86q46 -53 75.5 -127.5t32.5 -161.5q0 -18 0.5 -30.5t-0.5 -18.5h-801v-102q1 -99 30.5 -184t86.5 -146
q57 -62 139.5 -97t189.5 -35q102 0 189.5 43t151.5 117q63 73 98.5 171t36.5 207v54q-1 111 -38 210t-105 172q-64 69 -152 108.5t-197 40.5zM629 83q-77 0 -137.5 26t-101.5 71q-42 45 -64.5 105t-22.5 127v30h676q-10 -73 -38.5 -138t-73.5 -114q-45 -50 -105 -78.5
t-133 -28.5z" />
    <glyph glyph-name="uni02BC" unicode="&#x2bc;" 
d="M702 1422v125h-117v-127q-1 -79 -24 -146t-67 -131l69 -52q33 32 58.5 70.5t43.5 80.5q18 43 27.5 89.5t9.5 90.5z" />
    <glyph glyph-name="circumflex" unicode="&#x2c6;" 
d="M844 1276l-241 241h-76l-237 -239v-20h108l167 174l168 -174h111v18z" />
    <glyph glyph-name="caron" unicode="&#x2c7;" 
d="M614 1327l-172 185h-107v-16l235 -249h87l236 249v16h-107z" />
    <glyph glyph-name="breve" unicode="&#x2d8;" 
d="M903 1472h-102q-1 -39 -14.5 -70.5t-37.5 -53.5t-57.5 -34t-76.5 -12q-44 0 -78 11.5t-57 33.5q-24 22 -37.5 54t-14.5 71h-102q1 -59 23 -106.5t60 -81.5q38 -33 90.5 -51t115.5 -18t115.5 18t90.5 51q38 34 59.5 81.5t22.5 106.5z" />
    <glyph glyph-name="dotaccent" unicode="&#x2d9;" 
d="M527 1378q0 -35 23 -58.5t63 -23.5q41 0 63.5 23.5t23.5 58.5q0 35 -23 59.5t-64 24.5q-40 0 -63 -24.5t-23 -59.5z" />
    <glyph glyph-name="ring" unicode="&#x2da;" 
d="M430 1347q0 -38 14.5 -71.5t39.5 -57.5q24 -25 58 -39t72 -14q39 0 72 14t58 39q25 24 39 57.5t14 71.5q0 39 -14 73t-39 59t-58 40t-72 15q-38 0 -72 -15t-58 -40q-25 -25 -39.5 -59t-14.5 -73zM507 1347q0 25 8.5 46t22.5 37q14 14 34 23t42 9q24 0 43 -9t34 -24
q14 -16 22 -37t8 -45q0 -23 -8 -43t-22 -35q-15 -15 -34.5 -23.5t-42.5 -8.5t-42.5 8.5t-33.5 24.5q-15 15 -23 35t-8 42z" />
    <glyph glyph-name="ogonek" unicode="&#x2db;" 
d="M711 0l-65 38q-43 -25 -84 -56.5t-73 -67.5t-51.5 -76t-19.5 -82q0 -41 13.5 -72.5t36.5 -53.5q23 -21 54.5 -32.5t69.5 -11.5q51 0 88.5 13t66.5 31l-24 85q-21 -13 -48.5 -23t-59.5 -9q-44 0 -66.5 22.5t-22.5 62.5q0 39 18 74t48 66q25 26 56.5 49t62.5 43z" />
    <glyph glyph-name="tilde" unicode="&#x2dc;" 
d="M802 1482l-78 15q-2 -25 -10 -47t-21 -38q-14 -17 -34 -27t-45 -10q-40 0 -72.5 17t-63.5 38q-32 20 -66 37.5t-76 17.5q-43 0 -77 -16.5t-58 -44.5q-25 -28 -39 -65t-15 -78l79 -12q2 36 20.5 63.5t47.5 35.5q20 9 41.5 10.5t46.5 -3.5q29 -6 52.5 -20.5t54.5 -32.5
q27 -18 56.5 -31.5t68.5 -13.5q42 0 76.5 16.5t58.5 45.5q25 27 38.5 64.5t14.5 78.5z" />
    <glyph glyph-name="hungarumlaut" unicode="&#x2dd;" 
d="M798 1528l-269 -287h122l300 287h-153zM493 1528l-215 -287h110l247 287h-142z" />
    <glyph glyph-name="uni02F3" unicode="&#x2f3;" 
d="M461 -226q0 -28 11 -52.5t31 -40.5q18 -18 43.5 -27.5t53.5 -9.5q27 0 51.5 9.5t43.5 27.5q18 17 29 41t11 52t-11 52.5t-29 42.5q-19 18 -43.5 28.5t-51.5 10.5q-28 0 -53.5 -10t-44.5 -28t-30 -43t-11 -53zM532 -226q3 28 21 47t47 18q25 0 44.5 -18.5t19.5 -46.5
q0 -27 -19.5 -44.5t-44.5 -17.5q-29 0 -46 18t-22 44z" />
    <glyph glyph-name="gravecomb" unicode="&#x300;" 
d="M-556 1228l-154 319h-130l185 -319h99z" />
    <glyph glyph-name="acutecomb" unicode="&#x301;" 
d="M-543 1548l-146 -319h89l178 319h-121z" />
    <glyph glyph-name="tildecomb" unicode="&#x303;" 
d="M-256 1482l-78 15q-2 -25 -10 -47t-21 -38q-14 -17 -34 -27t-45 -10q-40 0 -72.5 17t-63.5 38q-32 20 -66 37.5t-76 17.5q-43 0 -77 -16.5t-58 -44.5q-25 -28 -39 -65t-15 -78l79 -12q2 36 20.5 63.5t47.5 35.5q20 9 41.5 10.5t46.5 -3.5q29 -6 52.5 -20.5t54.5 -32.5
q27 -18 56.5 -31.5t68.5 -13.5q42 0 76.5 16.5t58.5 45.5q25 27 38.5 64.5t14.5 78.5z" />
    <glyph glyph-name="hook" unicode="&#x309;" 
d="M-651 1234h90v63q32 4 63.5 13.5t56.5 28.5q25 18 40.5 45.5t15.5 67.5q0 50 -27.5 84t-72.5 54q-41 19 -92 27t-102 9l-7 -78q30 0 65 -3.5t65 -13.5t50.5 -28t20.5 -49q1 -29 -14 -46.5t-40 -26.5q-24 -10 -53.5 -14t-59.5 -7z" />
    <glyph glyph-name="uni030F" unicode="&#x30f;" 
d="M-740 1252l-270 266h-153l302 -266h121zM-497 1252l-217 266h-142l250 -266h109z" />
    <glyph glyph-name="dotbelow" unicode="&#x323;" 
d="M-770 -226q0 -35 23 -58.5t62 -23.5q40 0 63.5 23.5t23.5 58.5t-23.5 59.5t-63.5 24.5q-39 0 -62.5 -24.5t-22.5 -59.5z" />
    <glyph glyph-name="tonos" unicode="&#x384;" 
d="M664 1618l-86 -330h73l144 330h-131z" />
    <glyph glyph-name="dieresistonos" unicode="&#x385;" 
d="M639 1692l-35 -252h96l79 252h-140zM334 1391q0 -34 22.5 -58.5t61.5 -24.5t61.5 24.5t22.5 58.5t-22.5 59t-61.5 25q-40 0 -62 -25t-22 -59zM796 1391q0 -34 22.5 -58.5t61.5 -24.5t61.5 24.5t22.5 58.5q1 34 -22 59t-62 25q-40 0 -62 -25t-22 -59z" />
    <glyph glyph-name="Alphatonos" unicode="&#x386;" 
d="M904 406l129 -406h120l-469 1456h-109l-473 -1456h120l130 406h552zM385 514l244 762l242 -762h-486zM360 1618l-86 -330h73l144 330h-131z" />
    <glyph glyph-name="anoteleia" unicode="&#x387;" 
d="M560 717q0 -34 22.5 -58t62.5 -24q39 0 62 24t23 58q0 36 -23 60.5t-62 24.5q-40 0 -62.5 -24.5t-22.5 -60.5z" />
    <glyph glyph-name="Epsilontonos" unicode="&#x388;" 
d="M1028 698v105h-643v547h736v106h-855v-1456h860v106h-741v592h643zM102 1619l-86 -330h73l144 330h-131z" />
    <glyph glyph-name="Etatonos" unicode="&#x389;" 
d="M1135 0v1456h-113v-653h-685v653h-112v-1456h112v698h685v-698h113zM84 1620l-86 -330h73l144 330h-131z" />
    <glyph glyph-name="Iotatonos" unicode="&#x38a;" 
d="M258 1456v-108h354v-1241h-354v-107h843v107h-365v1241h365v108h-843zM67 1619l-86 -330h73l144 330h-131z" />
    <glyph glyph-name="Omicrontonos" unicode="&#x38c;" 
d="M1114 632v192q-1 74 -13.5 151.5t-37.5 150.5q-26 72 -65 136t-93 112q-54 47 -124 74.5t-157 27.5t-157 -27.5t-124 -74.5q-54 -49 -93 -112.5t-64 -136.5q-26 -72 -38.5 -149.5t-13.5 -151.5v-192q1 -75 14 -152t39 -149q25 -73 64.5 -136.5t93.5 -111.5t124 -75.5
t157 -27.5q86 0 156 27.5t124 75.5t93 111.5t64 135.5q25 73 37.5 150t13.5 152zM996 826v-194q-1 -58 -8.5 -120.5t-25.5 -122.5q-18 -61 -46 -115t-69 -95q-41 -42 -96 -66t-125 -24q-71 0 -125.5 24t-95.5 66q-42 41 -70.5 95.5t-46.5 114.5t-26 122.5t-9 120.5v194
q1 57 9 119t26 123q18 60 46 114t70 96q41 40 95.5 64.5t124.5 24.5t125 -24t96 -65t69.5 -95.5t46.5 -113.5q18 -61 26 -123t9 -120zM103 1618l-86 -330h73l144 330h-131z" />
    <glyph glyph-name="Upsilontonos" unicode="&#x38e;" 
d="M665 664l-385 792h-139l467 -908l2 -548h112l1 548l468 908h-137zM4 1618l-86 -330h73l144 330h-131z" />
    <glyph glyph-name="Omegatonos" unicode="&#x38f;" 
d="M704 136v-136h429v103h-304q74 50 129 121.5t91 156.5q36 84 54 177.5t19 187.5v98q-1 126 -34.5 242.5t-98.5 204.5q-64 86 -156 135.5t-211 49.5q-126 0 -220 -54.5t-158 -148.5q-59 -86 -89.5 -197.5t-30.5 -231.5v-98q0 -94 18.5 -187.5t55.5 -177.5
q36 -86 91.5 -157.5t129.5 -120.5h-300v-103h429v136q-85 33 -146 98.5t-97 157.5q-31 75 -46 165t-16 189v100q0 103 23 195.5t67 163.5q45 75 117.5 122t171.5 47q91 0 162.5 -40.5t115.5 -105.5q49 -75 75 -174t27 -208v-100q0 -99 -14.5 -189t-44.5 -166
q-36 -92 -95.5 -157t-143.5 -98zM98 1618l-86 -330h73l144 330h-131z" />
    <glyph glyph-name="iotadieresistonos" unicode="&#x390;" 
d="M208 1082v-108h333l1 -678q0 -90 24 -150t66 -97q41 -37 99.5 -53t130.5 -16q27 0 54.5 2.5t53.5 9.5q23 5 46 12.5t47 19.5l-25 88q-34 -11 -72.5 -21t-81.5 -10q-45 0 -85 9t-70 33q-31 22 -48 63t-17 105l-1 792zM575 1646l-35 -252h96l79 252h-140zM270 1345
q0 -34 22.5 -58.5t61.5 -24.5t61.5 24.5t22.5 58.5t-22.5 59t-61.5 25q-40 0 -62 -25t-22 -59zM732 1345q0 -34 22.5 -58.5t61.5 -24.5t61.5 24.5t22.5 58.5q1 34 -22 59t-62 25q-40 0 -62 -25t-22 -59z" />
    <glyph glyph-name="Alpha" unicode="&#x391;" 
d="M904 406l129 -406h120l-469 1456h-109l-473 -1456h120l130 406h552zM385 514l244 762l242 -762h-486z" />
    <glyph glyph-name="Beta" unicode="&#x392;" 
d="M195 0h458q90 2 172.5 30t145.5 81q63 52 99.5 127.5t35.5 172.5q0 66 -21.5 123.5t-59.5 102.5q-38 44 -91.5 76.5t-112.5 45.5l-1 4q54 22 95.5 49.5t73.5 66.5q31 38 48.5 87t18.5 110q0 99 -39 170.5t-104 117.5t-148.5 68.5t-172.5 23.5h-397v-1456zM314 700h351
q64 -2 122 -22t103 -56q44 -38 70 -91.5t26 -121.5q0 -71 -26.5 -126.5t-72.5 -94.5q-45 -38 -105 -59.5t-127 -22.5h-341v594zM314 804v546h281q64 -1 125.5 -16.5t109.5 -47.5q48 -33 76.5 -84t28.5 -124q0 -69 -27.5 -120t-73.5 -84q-46 -35 -105 -52t-121 -18h-294z" />
    <glyph glyph-name="Gamma" unicode="&#x393;" 
d="M1065 1353v103h-875v-1456h120v1353h755z" />
    <glyph glyph-name="Delta" unicode="&#x394;" 
d="M584 1456l-521 -1456h1133l-503 1456h-109zM220 103l391 1117l26 79l24 -80l378 -1116h-819z" />
    <glyph glyph-name="Delta" unicode="&#x2206;" 
d="M584 1456l-521 -1456h1133l-503 1456h-109zM220 103l391 1117l26 79l24 -80l378 -1116h-819z" />
    <glyph glyph-name="Epsilon" unicode="&#x395;" 
d="M963 698v105h-643v547h736v106h-855v-1456h860v106h-741v592h643z" />
    <glyph glyph-name="Zeta" unicode="&#x396;" 
d="M269 106l765 1261l-2 89h-879v-105h739l-763 -1257l1 -94h930v106h-791z" />
    <glyph glyph-name="Eta" unicode="&#x397;" 
d="M1070 0v1456h-113v-653h-685v653h-112v-1456h112v698h685v-698h113z" />
    <glyph glyph-name="Theta" unicode="&#x398;" 
d="M850 676v102h-488v-102h488zM1104 632v192q-2 115 -31 236t-93 215q-62 91 -151.5 146t-214.5 55q-122 0 -211 -53t-149 -141q-67 -99 -97.5 -219t-32.5 -239v-192q2 -117 33 -237.5t94 -215.5q60 -88 150 -143.5t215 -55.5q124 0 215 55.5t148 143.5q64 94 94.5 215
t30.5 238zM986 826v-194q-2 -96 -23.5 -201.5t-73.5 -186.5q-45 -69 -111.5 -112t-161.5 -43q-99 0 -167.5 46t-110.5 116q-50 81 -72 184.5t-23 196.5v194q0 92 22 194.5t72 185.5q44 68 111.5 114.5t165.5 46.5q94 0 162 -43t109 -108q53 -85 76 -190t25 -200z" />
    <glyph glyph-name="Iota" unicode="&#x399;" 
d="M193 1456v-108h354v-1241h-354v-107h843v107h-365v1241h365v108h-843z" />
    <glyph glyph-name="Kappa" unicode="&#x39a;" 
d="M509 720l527 -720h146l-593 811l553 645h-150l-492 -572l-179 -203v775h-120v-1456h120v523z" />
    <glyph glyph-name="Lambda" unicode="&#x39b;" 
d="M621 1280l421 -1280h123l-488 1456h-112l-487 -1456h123z" />
    <glyph glyph-name="Mu" unicode="&#x39c;" 
d="M321 1456h-154v-1456h117v645l-8 626l298 -833h78l323 848l-8 -641v-645h117v1456h-157l-313 -821z" />
    <glyph glyph-name="Nu" unicode="&#x39d;" 
d="M1069 0v1456h-120v-1223l-668 1223h-119v-1456h119v1226l669 -1226h119z" />
    <glyph glyph-name="Xi" unicode="&#x39e;" 
d="M153 103v-103h918v103h-918zM250 786v-103h716v103h-716zM165 1456v-102h880v102h-880z" />
    <glyph glyph-name="Omicron" unicode="&#x39f;" 
d="M1104 632v192q-1 74 -13.5 151.5t-37.5 150.5q-26 72 -65 136t-93 112q-54 47 -124 74.5t-157 27.5t-157 -27.5t-124 -74.5q-54 -49 -93 -112.5t-64 -136.5q-26 -72 -38.5 -149.5t-13.5 -151.5v-192q1 -75 14 -152t39 -149q25 -73 64.5 -136.5t93.5 -111.5t124 -75.5
t157 -27.5q86 0 156 27.5t124 75.5t93 111.5t64 135.5q25 73 37.5 150t13.5 152zM986 826v-194q-1 -58 -8.5 -120.5t-25.5 -122.5q-18 -61 -46 -115t-69 -95q-41 -42 -96 -66t-125 -24q-71 0 -125.5 24t-95.5 66q-42 41 -70.5 95.5t-46.5 114.5t-26 122.5t-9 120.5v194
q1 57 9 119t26 123q18 60 46 114t70 96q41 40 95.5 64.5t124.5 24.5t125 -24t96 -65t69.5 -95.5t46.5 -113.5q18 -61 26 -123t9 -120z" />
    <glyph glyph-name="Pi" unicode="&#x3a0;" 
d="M1055 0v1456h-881v-1456h118v1353h645v-1353h118z" />
    <glyph glyph-name="Rho" unicode="&#x3a1;" 
d="M336 600h339q95 1 178.5 30t146.5 84q62 54 98.5 132.5t36.5 178.5q0 101 -36 180t-99 135q-62 55 -146 84.5t-179 31.5h-458v-1456h119v600zM336 703v650h339q72 -1 134.5 -24.5t108.5 -66.5q45 -43 71 -103.5t26 -135.5q0 -74 -26.5 -133t-72.5 -100t-108 -63.5
t-133 -23.5h-339z" />
    <glyph glyph-name="Sigma" unicode="&#x3a3;" 
d="M761 743v36l-483 575h796v102h-953v-94l516 -604l-516 -664v-94h1008v103h-855z" />
    <glyph glyph-name="Tau" unicode="&#x3a4;" 
d="M1140 1350v106h-1046v-106h465l-1 -1350h117v1350h465z" />
    <glyph glyph-name="Upsilon" unicode="&#x3a5;" 
d="M600 664l-385 792h-139l467 -908l2 -548h112l1 548l468 908h-137z" />
    <glyph glyph-name="Phi" unicode="&#x3a6;" 
d="M674 1258v198h-119v-198q-104 -5 -191 -46.5t-151 -111.5q-63 -71 -98.5 -165.5t-35.5 -204.5q0 -111 35.5 -205.5t98.5 -164.5q64 -70 151 -111t191 -46v-203h119v203q104 4 191 46t151 113q63 70 98.5 164.5t35.5 205.5q0 110 -35.5 204t-98.5 164q-64 70 -151.5 111.5
t-190.5 46.5zM198 730q0 89 25 164.5t72 132.5q46 56 112 89.5t148 38.5v-849q-82 4 -148 37.5t-112 89.5q-47 56 -72 132t-25 165zM1031 732q0 -89 -25 -165.5t-71 -132.5q-47 -57 -113 -90.5t-148 -37.5v849q82 -4 147.5 -37.5t112.5 -88.5q47 -57 72 -132.5t25 -164.5z
" />
    <glyph glyph-name="Chi" unicode="&#x3a7;" 
d="M629 835l-366 621h-141l439 -717l-453 -739h140l383 642l383 -642h139l-452 739l439 717h-142z" />
    <glyph glyph-name="Psi" unicode="&#x3a8;" 
d="M679 475v981h-118v-980q-75 9 -134 43t-99 89q-41 55 -62.5 127.5t-22.5 158.5v562h-119l-1 -562q1 -111 31 -203.5t87 -161.5q56 -68 137 -109t183 -50v-370h118v370q102 8 183.5 49t138.5 109q56 69 87 162t31 204v562h-119v-562q-1 -86 -22.5 -159t-62.5 -128
t-100.5 -89.5t-135.5 -42.5z" />
    <glyph glyph-name="Omega" unicode="&#x3a9;" 
d="M694 136v-136h429v103h-304q74 50 129 121.5t91 156.5q36 84 54 177.5t19 187.5v98q-1 126 -34.5 242.5t-98.5 204.5q-64 86 -156 135.5t-211 49.5q-126 0 -220 -54.5t-158 -148.5q-59 -86 -89.5 -197.5t-30.5 -231.5v-98q0 -94 18.5 -187.5t55.5 -177.5
q36 -86 91.5 -157.5t129.5 -120.5h-300v-103h429v136q-85 33 -146 98.5t-97 157.5q-31 75 -46 165t-16 189v100q0 103 23 195.5t67 163.5q45 75 117.5 122t171.5 47q91 0 162.5 -40.5t115.5 -105.5q49 -75 75 -174t27 -208v-100q0 -99 -14.5 -189t-44.5 -166
q-36 -92 -95.5 -157t-143.5 -98z" />
    <glyph glyph-name="Omega" unicode="&#x2126;" 
d="M694 136v-136h429v103h-304q74 50 129 121.5t91 156.5q36 84 54 177.5t19 187.5v98q-1 126 -34.5 242.5t-98.5 204.5q-64 86 -156 135.5t-211 49.5q-126 0 -220 -54.5t-158 -148.5q-59 -86 -89.5 -197.5t-30.5 -231.5v-98q0 -94 18.5 -187.5t55.5 -177.5
q36 -86 91.5 -157.5t129.5 -120.5h-300v-103h429v136q-85 33 -146 98.5t-97 157.5q-31 75 -46 165t-16 189v100q0 103 23 195.5t67 163.5q45 75 117.5 122t171.5 47q91 0 162.5 -40.5t115.5 -105.5q49 -75 75 -174t27 -208v-100q0 -99 -14.5 -189t-44.5 -166
q-36 -92 -95.5 -157t-143.5 -98z" />
    <glyph glyph-name="Iotadieresis" unicode="&#x3aa;" 
d="M193 1456v-108h354v-1241h-354v-107h843v107h-365v1241h365v108h-843zM294 1729q0 -33 22 -56.5t60 -23.5t60.5 23.5t22.5 56.5q0 34 -22.5 57.5t-60.5 23.5t-60 -23.5t-22 -57.5zM731 1728q0 -33 22 -56.5t60 -23.5t60.5 23.5t22.5 56.5q0 34 -22.5 58t-60.5 24t-60 -24
t-22 -58z" />
    <glyph glyph-name="Upsilondieresis" unicode="&#x3ab;" 
d="M600 664l-385 792h-139l467 -908l2 -548h112l1 548l468 908h-137zM296 1723q0 -33 22 -56.5t60 -23.5t60.5 23.5t22.5 56.5q0 34 -22.5 57.5t-60.5 23.5t-60 -23.5t-22 -57.5zM733 1722q0 -33 22 -56.5t60 -23.5t60.5 23.5t22.5 56.5q0 34 -22.5 58t-60.5 24t-60 -24
t-22 -58z" />
    <glyph glyph-name="alphatonos" unicode="&#x3ac;" 
d="M984 1082h-80l-26 -173l-2 -7q-22 40 -52.5 74.5t-66.5 60.5q-46 31 -100.5 48t-117.5 17q-106 0 -182 -47.5t-126 -128.5q-49 -78 -72.5 -181.5t-23.5 -212.5v-21q0 -104 24.5 -201t74.5 -171q49 -73 124.5 -116.5t178.5 -43.5q61 0 115.5 15.5t100.5 44.5q37 24 68 56
t54 71q6 -35 16.5 -67t28.5 -57q23 -30 58.5 -46.5t84.5 -16.5q26 0 49 5.5t48 18.5l-17 94q-13 -3 -27.5 -5.5t-30.5 -2.5q-30 0 -49.5 14.5t-30.5 39.5q-12 25 -16.5 57t-4.5 66v816zM255 511v21q0 84 16 167.5t53 153.5q34 65 92.5 105.5t144.5 40.5q56 0 104 -19.5
t87 -52.5q38 -33 66.5 -76.5t45.5 -91.5v-391v-37.5v-26.5q-15 -43 -40 -81t-59 -66q-41 -35 -93 -55t-113 -20q-83 0 -140 35.5t-93 93.5q-38 61 -54.5 140t-16.5 160zM650 1579l-86 -330h73l144 330h-131z" />
    <glyph glyph-name="epsilontonos" unicode="&#x3ad;" 
d="M155 297q0 -79 38 -137.5t96 -93.5q74 -47 162 -66.5t183 -19.5q87 0 170 20t151 60q63 37 106.5 100.5t47.5 150.5h-121q0 -56 -30.5 -98.5t-79.5 -70.5q-50 -30 -115 -45t-129 -15q-74 0 -144 14.5t-127 49.5q-43 25 -65.5 63.5t-22.5 86.5q0 46 16.5 80.5t47.5 58.5
q27 21 62.5 34.5t76.5 20.5q37 7 75.5 9.5t76.5 2.5h214v101h-214q-38 0 -75.5 3.5t-72.5 10.5t-65.5 18.5t-54.5 28.5q-32 23 -49 56t-17 76q0 48 22.5 85t65.5 64q45 27 109.5 41t140.5 14q58 0 117 -13t107 -38q48 -26 79 -66t32 -93h121q-4 78 -44.5 136.5t-103.5 98.5
q-64 38 -144 57.5t-164 19.5q-92 0 -177.5 -18.5t-150.5 -57.5q-61 -37 -96 -94.5t-35 -136.5q0 -48 19 -88t53 -70q30 -28 70 -48t85 -34q-48 -11 -90.5 -29.5t-74.5 -45.5q-39 -32 -60.5 -77.5t-21.5 -105.5zM680 1578l-86 -330h73l144 330h-131z" />
    <glyph glyph-name="etatonos" unicode="&#x3ae;" 
d="M186 0h121l-1 733q15 55 42 103.5t67 84.5q42 36 98 57t128 21q74 0 127 -21.5t88 -61.5q35 -41 52 -101t17 -135v-1095h121v1096q-1 103 -25 182t-71 132t-117.5 80t-164.5 27q-71 0 -130.5 -18.5t-107.5 -52.5q-41 -29 -72.5 -68t-54.5 -86v17l-6 188h-111v-1082z
M672 1579l-86 -330h73l144 330h-131z" />
    <glyph glyph-name="iotatonos" unicode="&#x3af;" 
d="M208 1082v-108h333l1 -678q0 -90 24 -150t66 -97q41 -37 99.5 -53t130.5 -16q27 0 54.5 2.5t53.5 9.5q23 5 46 12.5t47 19.5l-25 88q-34 -11 -72.5 -21t-81.5 -10q-45 0 -85 9t-70 33q-31 22 -48 63t-17 105l-1 792zM649 1559l-86 -330h73l144 330h-131z" />
    <glyph glyph-name="upsilondieresistonos" unicode="&#x3b0;" 
d="M310 1082h-120v-656q0 -105 26.5 -188t77.5 -140q52 -57 128 -87.5t177 -30.5q120 0 207 47t143 126q56 77 83 179t27 211q0 79 -8.5 153t-24.5 142q-15 65 -34.5 126t-42.5 118h-131q55 -129 88 -265t34 -276q0 -85 -21 -167t-63 -147q-43 -65 -108 -105t-155 -40
q-69 0 -122 23.5t-88 67.5q-36 44 -55 107.5t-19 143.5zM557 1646l-35 -252h96l79 252h-140zM252 1345q0 -34 22.5 -58.5t61.5 -24.5t61.5 24.5t22.5 58.5t-22.5 59t-61.5 25q-40 0 -62 -25t-22 -59zM714 1345q0 -34 22.5 -58.5t61.5 -24.5t61.5 24.5t22.5 58.5q1 34 -22 59
t-62 25q-40 0 -62 -25t-22 -59z" />
    <glyph glyph-name="alpha" unicode="&#x3b1;" 
d="M984 1082h-80l-26 -173l-2 -7q-22 40 -52.5 74.5t-66.5 60.5q-46 31 -100.5 48t-117.5 17q-106 0 -182 -47.5t-126 -128.5q-49 -78 -72.5 -181.5t-23.5 -212.5v-21q0 -104 24.5 -201t74.5 -171q49 -73 124.5 -116.5t178.5 -43.5q61 0 115.5 15.5t100.5 44.5q37 24 68 56
t54 71q6 -35 16.5 -67t28.5 -57q23 -30 58.5 -46.5t84.5 -16.5q26 0 49 5.5t48 18.5l-17 94q-13 -3 -27.5 -5.5t-30.5 -2.5q-30 0 -49.5 14.5t-30.5 39.5q-12 25 -16.5 57t-4.5 66v816zM255 511v21q0 84 16 167.5t53 153.5q34 65 92.5 105.5t144.5 40.5q56 0 104 -19.5
t87 -52.5q38 -33 66.5 -76.5t45.5 -91.5v-391v-37.5v-26.5q-15 -43 -40 -81t-59 -66q-41 -35 -93 -55t-113 -20q-83 0 -140 35.5t-93 93.5q-38 61 -54.5 140t-16.5 160z" />
    <glyph glyph-name="beta" unicode="&#x3b2;" 
d="M609 1476q-90 0 -165.5 -33.5t-130.5 -90.5q-56 -57 -88.5 -132t-32.5 -157v-1461h120v513q31 -35 70.5 -60.5t84.5 -41.5q45 -17 93 -25.5t95 -8.5q95 0 177 28.5t143 83.5q61 54 95.5 133t34.5 181q0 83 -27 150.5t-75 117.5q-37 39 -85.5 66t-105.5 43
q41 18 75.5 44.5t60.5 60.5q34 42 52 94t18 112q0 85 -30.5 155.5t-84.5 121.5q-55 51 -130 78.5t-164 27.5zM605 825h-94v-104h143q72 -1 132.5 -24.5t104.5 -65.5t69 -100.5t25 -129.5q0 -75 -25.5 -134t-69.5 -100q-45 -42 -107.5 -63.5t-136.5 -21.5q-54 0 -106 11.5
t-96 32.5q-43 21 -77 52t-55 70v815q0 62 22.5 118.5t61.5 99.5q38 42 92.5 67.5t120.5 25.5q63 0 116.5 -21.5t92.5 -58.5q38 -37 59.5 -87.5t21.5 -109.5q0 -65 -20 -115t-57 -85q-38 -35 -93 -53.5t-124 -18.5z" />
    <glyph glyph-name="gamma" unicode="&#x3b3;" 
d="M1034 1082l-360 -818l-47 -129h-2l-44 129l-364 818h-126l474 -1055v-442h121v441l474 1056h-126z" />
    <glyph glyph-name="delta" unicode="&#x3b4;" 
d="M265 1289q0 -50 19 -91.5t51 -74.5q31 -34 72.5 -59.5t87.5 -43.5l-2 -11q-81 -16 -148.5 -59t-114.5 -106q-49 -63 -76 -142t-27 -166v-31q0 -110 35 -205.5t100 -166.5q64 -71 156 -112t208 -41q114 0 205.5 41t156.5 112q64 71 98.5 166.5t35.5 205.5v31
q-1 154 -75 265.5t-215 181.5q-65 45 -129 80.5t-124 57.5q-50 19 -95 44t-70 59q-14 28 -14.5 57.5t12.5 60.5q13 38 46 62t77 36q44 11 90.5 12.5t87.5 -2.5q59 -5 111 -20t100 -37l30 90q-75 40 -154.5 60.5t-162.5 20.5q-71 0 -138 -17t-118 -51q-53 -35 -84.5 -86.5
t-31.5 -120.5zM247 505v31q0 84 28 161.5t79 136.5q51 58 123 91t161 29q77 -10 143.5 -49t115.5 -97q48 -58 76 -128.5t29 -143.5v-31q-1 -86 -26.5 -162.5t-73.5 -134.5t-117.5 -92t-158.5 -34q-91 0 -161 34t-118 92q-49 57 -74.5 134t-25.5 163z" />
    <glyph glyph-name="epsilon" unicode="&#x3b5;" 
d="M155 297q0 -79 38 -137.5t96 -93.5q74 -47 162 -66.5t183 -19.5q87 0 170 20t151 60q63 37 106.5 100.5t47.5 150.5h-121q0 -56 -30.5 -98.5t-79.5 -70.5q-50 -30 -115 -45t-129 -15q-74 0 -144 14.5t-127 49.5q-43 25 -65.5 63.5t-22.5 86.5q0 46 16.5 80.5t47.5 58.5
q27 21 62.5 34.5t76.5 20.5q37 7 75.5 9.5t76.5 2.5h214v101h-214q-38 0 -75.5 3.5t-72.5 10.5t-65.5 18.5t-54.5 28.5q-32 23 -49 56t-17 76q0 48 22.5 85t65.5 64q45 27 109.5 41t140.5 14q58 0 117 -13t107 -38q48 -26 79 -66t32 -93h121q-4 78 -44.5 136.5t-103.5 98.5
q-64 38 -144 57.5t-164 19.5q-92 0 -177.5 -18.5t-150.5 -57.5q-61 -37 -96 -94.5t-35 -136.5q0 -48 19 -88t53 -70q30 -28 70 -48t85 -34q-48 -11 -90.5 -29.5t-74.5 -45.5q-39 -32 -60.5 -77.5t-21.5 -105.5z" />
    <glyph glyph-name="zeta" unicode="&#x3b6;" 
d="M1069 1456h-949v-102h790l-375 -420q-70 -72 -127 -144t-97 -143q-41 -72 -63 -142t-21 -138q1 -76 26.5 -132t72.5 -96q40 -36 107.5 -64.5t147.5 -45.5l171 -36q34 -7 65 -17t55 -24q23 -14 36.5 -32.5t14.5 -44.5q0 -31 -10.5 -60t-29.5 -56q-17 -24 -39.5 -46.5
t-48.5 -42.5l69 -57q31 20 62.5 50.5t55.5 67.5q25 36 40.5 76.5t15.5 80.5q0 55 -21.5 89t-55.5 56q-35 22 -79.5 34.5t-89.5 22.5l-189 44q-52 11 -99.5 29t-83.5 47q-32 26 -53 66t-21 94q-1 75 20 141t59 128q36 61 86 119t106 117l451 503z" />
    <glyph glyph-name="eta" unicode="&#x3b7;" 
d="M186 0h121l-1 733q15 55 42 103.5t67 84.5q42 36 98 57t128 21q74 0 127 -21.5t88 -61.5q35 -41 52 -101t17 -135v-1095h121v1096q-1 103 -25 182t-71 132t-117.5 80t-164.5 27q-71 0 -130.5 -18.5t-107.5 -52.5q-41 -29 -72.5 -68t-54.5 -86v17l-6 188h-111v-1082z" />
    <glyph glyph-name="theta" unicode="&#x3b8;" 
d="M619 -20q92 0 163 32.5t121 93.5q71 86 103 210t32 260v304q0 140 -33 263t-103 208q-50 61 -121.5 93.5t-163.5 32.5t-163 -33t-121 -93q-71 -83 -104 -210t-33 -261v-304q0 -136 33.5 -262.5t105.5 -207.5q50 -60 121 -93t163 -33zM619 82q-68 0 -119 26t-86 73
q-52 63 -75 168t-23 208v120h603v-120q-1 -106 -23 -209.5t-77 -170.5q-34 -45 -84 -70t-116 -25zM316 780v121q0 107 23 212.5t80 173.5q34 41 83.5 64t114.5 23q64 0 113.5 -23t83.5 -64q58 -67 81.5 -172.5t23.5 -213.5v-121h-603z" />
    <glyph glyph-name="iota" unicode="&#x3b9;" 
d="M208 1082v-108h333l1 -678q0 -90 24 -150t66 -97q41 -37 99.5 -53t130.5 -16q27 0 54.5 2.5t53.5 9.5q23 5 46 12.5t47 19.5l-25 88q-34 -11 -72.5 -21t-81.5 -10q-45 0 -85 9t-70 33q-31 22 -48 63t-17 105l-1 792z" />
    <glyph glyph-name="kappa" unicode="&#x3ba;" 
d="M505 505l466 -505h154l-537 588l487 494h-146l-449 -445l-146 -150v595h-120v-1082h120v349z" />
    <glyph glyph-name="lambda" unicode="&#x3bb;" 
d="M194 0l326 832l19 72l27 -71l224 -602q19 -53 42 -97t54 -76q30 -33 70.5 -51t94.5 -18q13 0 29 3.5t29 8.5l-4 101q-12 -2 -22 -4t-25 -2q-31 0 -54.5 15.5t-41.5 40.5q-18 24 -31.5 54t-24.5 62l-371 986q-16 43 -38 89.5t-55 86.5q-33 38 -80 63.5t-111 24.5
q-20 0 -42 -4t-38 -8l5 -96q13 1 29 3t28 2q40 0 69.5 -18t51.5 -47t38 -65t30 -71l60 -160l-421 -1054h133z" />
    <glyph glyph-name="uni03BC" unicode="&#x3bc;" 
d="M325 1082h-119v-1498h119v527q43 -60 112.5 -95.5t158.5 -35.5q62 0 112 15t91 43q34 24 61.5 57t47.5 73l6 -168h109v1082h-120v-723q-8 -56 -27 -104t-52 -84q-38 -42 -96.5 -65.5t-139.5 -23.5q-68 0 -117 24.5t-81 72.5q-33 47 -48.5 115.5t-16.5 155.5v632z" />
    <glyph glyph-name="nu" unicode="&#x3bd;" 
d="M564 0h98l455 1082h-125l-355 -877l-23 -66l-23 67l-358 876h-126z" />
    <glyph glyph-name="xi" unicode="&#x3be;" 
d="M1029 1333l16 99q-60 21 -131.5 32.5t-144.5 11.5q-106 0 -200.5 -20.5t-162.5 -64.5q-66 -41 -103.5 -104t-37.5 -149q0 -55 22 -100.5t60 -80.5q38 -36 89.5 -62t111.5 -43q-77 -20 -143 -55t-113 -84q-49 -50 -76 -116t-27 -148q0 -93 28 -161t81 -116
q66 -64 160.5 -105t193.5 -63l117 -30q32 -8 63 -17t54 -23q21 -12 34.5 -29t13.5 -42q0 -30 -9.5 -55.5t-25.5 -46.5q-17 -22 -39 -42.5t-46 -41.5l65 -58q29 19 59 47.5t55 62.5q24 33 39.5 70t16.5 76q0 52 -21 85t-55 54q-35 21 -78 33t-87 23l-139 34
q-77 18 -151.5 51.5t-120.5 81.5q-40 39 -64 90t-24 118q0 66 18.5 118.5t52.5 92.5q30 36 71 62t90 44q54 19 118 28.5t135 9.5h136v104h-136q-64 0 -120 7t-103 22q-41 11 -75 29.5t-58 44.5q-25 25 -38.5 58.5t-13.5 76.5q0 56 26.5 97.5t73.5 71.5q52 32 125.5 47.5
t156.5 15.5q68 0 132.5 -11t128.5 -30z" />
    <glyph glyph-name="omicron" unicode="&#x3bf;" 
d="M132 557v-32q0 -111 33 -210t96 -173q61 -75 151 -118.5t204 -43.5q113 0 202.5 44t151.5 118q61 75 94 173.5t33 209.5v32q0 111 -33 210t-95 173q-62 75 -151.5 118.5t-203.5 43.5t-203 -44t-151 -118q-62 -75 -95 -174t-33 -209zM251 525v32q1 85 24.5 165t70.5 141
q45 62 112.5 99t155.5 37t155.5 -37t114.5 -99q45 -61 69 -141t25 -165v-32q-1 -86 -24.5 -166t-68.5 -141q-47 -62 -114 -99t-155 -37q-89 0 -157 37t-113 98q-47 62 -70.5 142t-24.5 166z" />
    <glyph glyph-name="pi" unicode="&#x3c0;" 
d="M1114 978v104h-1020v-104h160v-978h119v978h447v-703q0 -70 13 -124t41 -90q27 -36 70 -55t103 -19q37 0 72.5 6t72.5 25l-25 91q-22 -7 -47 -12t-51 -5q-35 0 -59.5 12t-39.5 35q-16 23 -23 55.5t-7 75.5l-1 708h175z" />
    <glyph glyph-name="rho" unicode="&#x3c1;" 
d="M1076 511v21q-1 120 -30.5 231t-92.5 192q-55 67 -133 107t-184 40q-95 0 -173.5 -32.5t-137.5 -93.5q-62 -63 -99 -154.5t-37 -214.5v-1023h120v552q27 -33 60.5 -60t72.5 -45q48 -25 103.5 -38t115.5 -13q103 0 179 40.5t128 110.5q53 73 80.5 172.5t27.5 207.5z
M956 532v-21q-1 -85 -20 -166t-62 -142q-39 -56 -98 -88.5t-142 -32.5q-58 0 -108 13.5t-90 38.5q-42 25 -73.5 61t-53.5 81v320q2 88 27.5 167t74.5 135q39 47 95.5 74t129.5 27q79 0 135.5 -33t94.5 -87q48 -68 69 -161.5t21 -185.5z" />
    <glyph glyph-name="sigma1" unicode="&#x3c2;" 
d="M619 1102q-117 0 -207 -44t-152 -118q-62 -75 -94.5 -172.5t-32.5 -205.5v-42q0 -111 37 -199.5t105 -153.5q67 -66 162.5 -109.5t213.5 -65.5q43 -7 80.5 -15.5t65.5 -22.5q27 -15 43 -37t15 -55q-1 -37 -15.5 -67.5t-36.5 -53.5q-20 -22 -44 -37.5t-46 -26.5l57 -78
q36 18 71.5 44.5t64.5 61.5q28 34 45.5 74.5t18.5 86.5q1 59 -22 98t-64 64q-41 24 -96.5 39t-119.5 26q-94 17 -170 54t-130 91t-84 125t-30 157v42q0 83 22.5 161.5t68.5 140.5q45 61 113.5 98t160.5 37q73 0 132.5 -20.5t101.5 -57.5q41 -37 64.5 -89.5t24.5 -116.5h115
q-2 91 -35.5 162.5t-91.5 122.5q-58 49 -137.5 75.5t-173.5 26.5z" />
    <glyph glyph-name="sigma" unicode="&#x3c3;" 
d="M1154 978v104h-562q-112 0 -200 -42t-149 -113q-62 -72 -94.5 -167.5t-32.5 -202.5v-32q0 -111 32.5 -209.5t93.5 -173.5q61 -74 150 -118t203 -44q113 0 201.5 44.5t149.5 117.5t93 168t32 196v33q0 76 -17.5 145t-51.5 127q-29 51 -70 93.5t-93 73.5h315zM235 525v32
q1 83 24.5 159t69.5 135q45 58 111.5 92.5t152.5 34.5t153 -34.5t113 -92.5q45 -59 68.5 -135t24.5 -159v-32q-1 -86 -23.5 -166t-67.5 -141q-45 -62 -111.5 -99t-154.5 -37q-89 0 -156 37t-112 98q-45 62 -68 142t-24 166z" />
    <glyph glyph-name="tau" unicode="&#x3c4;" 
d="M1065 976v106h-878v-106h366l1 -669q0 -85 18 -146.5t54 -101.5q35 -40 88 -59.5t125 -20.5q23 0 46 2t45 7q22 4 44.5 12t45.5 21l-26 90q-28 -10 -62 -18t-71 -8q-45 0 -79.5 12t-57.5 38q-24 26 -37 67t-13 100l1 674h390z" />
    <glyph glyph-name="upsilon" unicode="&#x3c5;" 
d="M310 1082h-120v-656q0 -105 26.5 -188t77.5 -140q52 -57 128 -87.5t177 -30.5q120 0 207 47t143 126q56 77 83 179t27 211q0 79 -8.5 153t-24.5 142q-15 65 -34.5 126t-42.5 118h-131q55 -129 88 -265t34 -276q0 -85 -21 -167t-63 -147q-43 -65 -108 -105t-155 -40
q-69 0 -122 23.5t-88 67.5q-36 44 -55 107.5t-19 143.5z" />
    <glyph glyph-name="phi" unicode="&#x3c6;" 
d="M565 -17v-461h118v461q114 10 195.5 62t134.5 132q50 75 75.5 171.5t25.5 196.5q0 98 -26 204t-76 184q-45 69 -107 109t-143 40q-46 0 -82 -16.5t-60 -44.5q-28 -31 -42 -72t-14 -85l1 -775q-82 12 -139 55.5t-92 106.5t-51 139t-16 155q1 57 10.5 119.5t30.5 122.5
q21 59 54.5 113t83.5 94l-62 89q-59 -40 -101.5 -96.5t-70.5 -120.5q-33 -73 -48.5 -155t-15.5 -165q0 -103 22.5 -199.5t73.5 -173.5q50 -77 129 -128t192 -62zM683 87l1 781q0 26 7.5 50t22.5 40q9 10 21 15.5t27 5.5q59 0 98.5 -34t66.5 -86q35 -69 51 -157t17 -158
q0 -75 -17.5 -151.5t-55.5 -138.5q-38 -67 -97 -111t-142 -56z" />
    <glyph glyph-name="chi" unicode="&#x3c7;" 
d="M625 642l-335 440h-143l412 -531l-429 -551h144l352 460l354 -460h142l-429 551l412 531h-144z" />
    <glyph glyph-name="psi" unicode="&#x3c8;" 
d="M675 1082h-119v-993q-80 11 -137 53.5t-93 109.5q-37 67 -54.5 153.5t-18.5 185.5v491h-118l-1 -489q0 -123 25 -228.5t74 -184.5q51 -81 131.5 -133.5t191.5 -62.5v-427h119v426q124 10 209.5 63t138.5 136q53 82 76.5 185t23.5 212q0 146 -26 272.5t-73 230.5h-128
q49 -120 78 -246t30 -258q0 -84 -17 -166.5t-55 -150.5q-39 -69 -102 -115.5t-155 -58.5v995z" />
    <glyph glyph-name="omega" unicode="&#x3c9;" 
d="M315 1082h-127q-27 -60 -47 -128.5t-32 -143.5q-12 -66 -17 -136t-5 -142q0 -89 12 -188t46 -180q33 -80 88.5 -132t141.5 -52q56 0 99.5 21.5t75.5 59.5q24 29 41.5 66.5t29.5 80.5q12 -43 29 -80.5t42 -66.5q31 -38 74.5 -59.5t99.5 -21.5q59 0 103.5 25t76.5 67
q36 46 58 108t34 132q10 55 14 112t4 108q0 75 -6 148t-18 141q-13 71 -32.5 137t-45.5 124h-126q48 -133 78 -270.5t31 -281.5q0 -44 -2.5 -94t-9.5 -98q-7 -53 -20.5 -101t-34.5 -83q-19 -33 -46 -52.5t-63 -19.5q-39 0 -68.5 18.5t-49.5 51.5q-21 32 -33.5 76t-18.5 95
q-6 40 -8 79.5t-2 75.5l-1 292h-119v-297q0 -45 -2.5 -82t-7.5 -76q-7 -50 -20 -93t-34 -73q-21 -32 -49.5 -49.5t-66.5 -17.5q-52 0 -86 40.5t-53 104.5q-22 69 -29.5 150.5t-7.5 152.5q1 144 30.5 281.5t79.5 270.5z" />
    <glyph glyph-name="iotadieresis" unicode="&#x3ca;" 
d="M208 1082v-108h333l1 -678q0 -90 24 -150t66 -97q41 -37 99.5 -53t130.5 -16q27 0 54.5 2.5t53.5 9.5q23 5 46 12.5t47 19.5l-25 88q-34 -11 -72.5 -21t-81.5 -10q-45 0 -85 9t-70 33q-31 22 -48 63t-17 105l-1 792zM292 1387q0 -33 22 -56.5t60 -23.5t60.5 23.5
t22.5 56.5q0 34 -22.5 57.5t-60.5 23.5t-60 -23.5t-22 -57.5zM729 1386q0 -33 22 -56.5t60 -23.5t60.5 23.5t22.5 56.5q0 34 -22.5 58t-60.5 24t-60 -24t-22 -58z" />
    <glyph glyph-name="upsilondieresis" unicode="&#x3cb;" 
d="M310 1082h-120v-656q0 -105 26.5 -188t77.5 -140q52 -57 128 -87.5t177 -30.5q120 0 207 47t143 126q56 77 83 179t27 211q0 79 -8.5 153t-24.5 142q-15 65 -34.5 126t-42.5 118h-131q55 -129 88 -265t34 -276q0 -85 -21 -167t-63 -147q-43 -65 -108 -105t-155 -40
q-69 0 -122 23.5t-88 67.5q-36 44 -55 107.5t-19 143.5zM274 1387q0 -33 22 -56.5t60 -23.5t60.5 23.5t22.5 56.5q0 34 -22.5 57.5t-60.5 23.5t-60 -23.5t-22 -57.5zM711 1386q0 -33 22 -56.5t60 -23.5t60.5 23.5t22.5 56.5q0 34 -22.5 58t-60.5 24t-60 -24t-22 -58z" />
    <glyph glyph-name="omicrontonos" unicode="&#x3cc;" 
d="M132 557v-32q0 -111 33 -210t96 -173q61 -75 151 -118.5t204 -43.5q113 0 202.5 44t151.5 118q61 75 94 173.5t33 209.5v32q0 111 -33 210t-95 173q-62 75 -151.5 118.5t-203.5 43.5t-203 -44t-151 -118q-62 -75 -95 -174t-33 -209zM251 525v32q1 85 24.5 165t70.5 141
q45 62 112.5 99t155.5 37t155.5 -37t114.5 -99q45 -61 69 -141t25 -165v-32q-1 -86 -24.5 -166t-68.5 -141q-47 -62 -114 -99t-155 -37q-89 0 -157 37t-113 98q-47 62 -70.5 142t-24.5 166zM666 1579l-86 -330h73l144 330h-131z" />
    <glyph glyph-name="upsilontonos" unicode="&#x3cd;" 
d="M310 1082h-120v-656q0 -105 26.5 -188t77.5 -140q52 -57 128 -87.5t177 -30.5q120 0 207 47t143 126q56 77 83 179t27 211q0 79 -8.5 153t-24.5 142q-15 65 -34.5 126t-42.5 118h-131q55 -129 88 -265t34 -276q0 -85 -21 -167t-63 -147q-43 -65 -108 -105t-155 -40
q-69 0 -122 23.5t-88 67.5q-36 44 -55 107.5t-19 143.5zM631 1559l-86 -330h73l144 330h-131z" />
    <glyph glyph-name="omegatonos" unicode="&#x3ce;" 
d="M315 1082h-127q-27 -60 -47 -128.5t-32 -143.5q-12 -66 -17 -136t-5 -142q0 -89 12 -188t46 -180q33 -80 88.5 -132t141.5 -52q56 0 99.5 21.5t75.5 59.5q24 29 41.5 66.5t29.5 80.5q12 -43 29 -80.5t42 -66.5q31 -38 74.5 -59.5t99.5 -21.5q59 0 103.5 25t76.5 67
q36 46 58 108t34 132q10 55 14 112t4 108q0 75 -6 148t-18 141q-13 71 -32.5 137t-45.5 124h-126q48 -133 78 -270.5t31 -281.5q0 -44 -2.5 -94t-9.5 -98q-7 -53 -20.5 -101t-34.5 -83q-19 -33 -46 -52.5t-63 -19.5q-39 0 -68.5 18.5t-49.5 51.5q-21 32 -33.5 76t-18.5 95
q-6 40 -8 79.5t-2 75.5l-1 292h-119v-297q0 -45 -2.5 -82t-7.5 -76q-7 -50 -20 -93t-34 -73q-21 -32 -49.5 -49.5t-66.5 -17.5q-52 0 -86 40.5t-53 104.5q-22 69 -29.5 150.5t-7.5 152.5q1 144 30.5 281.5t79.5 270.5zM677 1559l-86 -330h73l144 330h-131z" />
    <glyph glyph-name="uni03D1" unicode="&#x3d1;" 
d="M1173 674l-10 100q-37 -11 -76 -18.5t-79 -9.5v346q-1 80 -20 152t-59 126q-39 54 -100 86t-144 32q-70 0 -125 -26t-94 -71t-60 -106t-22 -130v-19q1 -107 39.5 -193.5t106.5 -148.5q67 -64 159 -102t199 -48v-216q0 -80 -18 -143.5t-54 -107.5q-37 -45 -93 -68.5
t-132 -22.5q-75 0 -131.5 25t-95.5 71q-38 45 -58 108t-21 138v332l-120 -2v-330q1 -98 30.5 -180t84.5 -141q54 -60 132.5 -93.5t178.5 -33.5t177.5 31t130.5 90q52 58 80 141t29 186v212q43 3 84.5 11.5t80.5 22.5zM504 1134v21q0 49 12 90.5t35 71.5q22 30 55.5 47.5
t78.5 17.5q57 0 96 -23t63 -62q23 -40 33.5 -93t10.5 -112v-341q-83 10 -153 40t-121 78q-51 49 -80 115.5t-30 149.5z" />
    <glyph glyph-name="uni03D2" unicode="&#x3d2;" 
d="M843 1239l-186 -425l-37 -106l-38 106l-185 425q-22 53 -47.5 95.5t-56.5 72.5t-68.5 45.5t-82.5 14.5q-28 0 -53.5 -5.5t-51.5 -20.5l23 -95q14 8 29 11.5t33 4.5q31 0 56 -12.5t45 -33.5q18 -20 32.5 -45.5t26.5 -50.5l280 -620v-600h119v599l277 621q10 24 23 48
t30 44q21 23 47.5 36.5t58.5 13.5q19 -1 34 -4.5t29 -11.5l22 95q-25 15 -50.5 20.5t-53.5 5.5q-46 1 -83 -14.5t-68 -45.5t-56.5 -72.5t-47.5 -95.5z" />
    <glyph glyph-name="uni03D6" unicode="&#x3d6;" 
d="M1188 979v104h-1153v-104h122q-41 -115 -60.5 -245.5t-19.5 -265.5q0 -38 2.5 -81.5t10.5 -87.5q10 -70 33 -132t61 -106q31 -37 74 -59t100 -22q56 0 99 21t75 59q25 29 42.5 67t29.5 81q12 -44 30.5 -83t43.5 -68q32 -37 74.5 -57t97.5 -20q70 0 119 32t82 85
q23 38 39 84.5t25 95.5t12.5 98t3.5 93q0 66 -4.5 132t-14.5 129q-10 66 -25 128.5t-35 121.5h136zM1012 466q0 -35 -2.5 -76t-7.5 -81q-6 -37 -16 -72.5t-25 -64.5q-19 -40 -47.5 -64.5t-68.5 -25.5q-37 0 -65 16t-49 45q-20 29 -33.5 68.5t-20.5 87.5q-8 45 -10 92t-2 88
l-1 268h-119l-1 -274q0 -40 -2.5 -82t-8.5 -83q-7 -45 -18.5 -85t-30.5 -69q-21 -34 -51 -53t-69 -19q-34 0 -59 16.5t-43 43.5q-23 32 -36 79t-20 100q-6 38 -8 75.5t-2 69.5q1 130 25.5 259t65.5 254h634q41 -125 65.5 -254t25.5 -259z" />
    <glyph glyph-name="uni0400" unicode="&#x400;" 
d="M963 698v105h-643v547h736v106h-855v-1456h860v106h-741v592h643zM696 1566l-177 266h-144l217 -266h104z" />
    <glyph glyph-name="uni0401" unicode="&#x401;" 
d="M963 698v105h-643v547h736v106h-855v-1456h860v106h-741v592h643zM320 1725q0 -33 22 -56.5t60 -23.5t60.5 23.5t22.5 56.5q0 34 -22.5 57.5t-60.5 23.5t-60 -23.5t-22 -57.5zM757 1724q0 -33 22 -56.5t60 -23.5t60.5 23.5t22.5 56.5q0 34 -22.5 58t-60.5 24t-60 -24
t-22 -58z" />
    <glyph glyph-name="uni0402" unicode="&#x402;" 
d="M1009 1353v103h-960v-103h349v-1353h117v712q49 17 98 32.5t106 15.5q75 0 130 -26t91 -71q39 -48 57 -114.5t19 -142.5q0 -66 -16 -123.5t-48 -100.5t-82 -68t-117 -27l1 -98q89 2 159 32t118 82q51 55 78 132t27 171q0 99 -26 183.5t-78 146.5t-130 97t-183 35
q-54 0 -105 -14t-99 -33v532h494z" />
    <glyph glyph-name="uni0403" unicode="&#x403;" 
d="M1065 1353v103h-875v-1456h120v1353h755zM736 1830l-184 -266h100l229 266h-145z" />
    <glyph glyph-name="uni0404" unicode="&#x404;" 
d="M1118 443h-118q-12 -84 -37.5 -150.5t-68.5 -112.5q-45 -47 -108 -72t-149 -25q-96 0 -164.5 44t-114.5 113q-48 72 -69 165.5t-22 190.5v90h573v103h-573v74q0 101 25 201t78 171q46 64 112 101.5t155 37.5q85 0 148 -26t107 -73t70 -114.5t38 -148.5h118
q-9 105 -44.5 190.5t-95.5 146.5q-62 61 -147 94.5t-194 33.5q-115 0 -203.5 -45.5t-147.5 -120.5q-69 -88 -103.5 -206t-35.5 -244v-265q0 -120 32 -231.5t92 -197.5q60 -85 152 -136t214 -51q109 0 194.5 34.5t146.5 96.5q60 61 95.5 146t44.5 186z" />
    <glyph glyph-name="uni0405" unicode="&#x405;" 
d="M990 359q0 -72 -30 -123.5t-79 -84.5q-48 -33 -110 -49t-126 -16q-77 0 -143.5 20.5t-117.5 61.5q-51 40 -84 99.5t-42 138.5h-121q4 -103 48 -182t114 -133t160 -82.5t186 -28.5q86 0 170 24t151 71q66 47 107 118.5t41 167.5q0 80 -29.5 141t-77.5 108q-49 46 -111 80
t-126 60q-48 20 -98.5 39t-100.5 38q-47 17 -94.5 40.5t-85.5 56.5q-39 32 -63.5 75.5t-24.5 102.5q1 68 30 118t77 84q48 33 107.5 49.5t120.5 16.5q73 0 133.5 -23t104.5 -65q45 -42 72 -100.5t35 -129.5h122q-3 96 -41.5 174.5t-101.5 133.5q-64 55 -147.5 85.5
t-176.5 30.5q-83 0 -165 -24.5t-147 -71.5q-65 -48 -105.5 -118.5t-40.5 -161.5q0 -78 30 -137.5t79 -104.5q48 -46 109.5 -78.5t124.5 -57.5q51 -20 105.5 -40t103.5 -43q49 -20 96.5 -46t84.5 -62q34 -31 56 -73.5t21 -98.5z" />
    <glyph glyph-name="uni0406" unicode="&#x406;" 
d="M193 1456v-108h354v-1241h-354v-107h843v107h-365v1241h365v108h-843z" />
    <glyph glyph-name="uni0407" unicode="&#x407;" 
d="M193 1456v-108h354v-1241h-354v-107h843v107h-365v1241h365v108h-843zM294 1729q0 -33 22 -56.5t60 -23.5t60.5 23.5t22.5 56.5q0 34 -22.5 57.5t-60.5 23.5t-60 -23.5t-22 -57.5zM731 1728q0 -33 22 -56.5t60 -23.5t60.5 23.5t22.5 56.5q0 34 -22.5 58t-60.5 24t-60 -24
t-22 -58z" />
    <glyph glyph-name="uni0408" unicode="&#x408;" 
d="M902 1456l1 -1013q-2 -73 -26 -137.5t-67 -113.5t-104 -77.5t-137 -28.5q-75 -1 -135.5 22.5t-103.5 67.5q-43 43 -68 103t-29 132h-121q7 -98 42 -177.5t94 -135.5q59 -57 140 -87.5t181 -30.5q99 0 182 36t143 98t94 146.5t36 182.5v1013h-122z" />
    <glyph glyph-name="uni0409" unicode="&#x409;" 
d="M727 1456h-489l-15 -659q0 -47 -1.5 -101.5t-4.5 -110.5q-4 -60 -9 -119t-14 -112q-8 -52 -20 -97t-27 -78q-17 -35 -39.5 -55.5t-50.5 -20.5h-25v-103h29q52 1 92 26.5t71 71.5q26 40 45.5 95.5t32.5 119.5q12 60 20 125.5t12 132.5q4 60 5.5 117.5t2.5 108.5l10 556
h259v-1353h260q79 1 137.5 36t97.5 95q37 58 55 135.5t18 157.5q0 79 -17.5 155t-54.5 136q-38 59 -96.5 95.5t-139.5 37.5h-144v608zM727 745h144q54 -1 91 -31t59 -76q21 -46 30.5 -102t9.5 -110q0 -56 -9.5 -114.5t-32.5 -104.5q-21 -46 -58 -75t-90 -29h-144v642z" />
    <glyph glyph-name="uni040A" unicode="&#x40a;" 
d="M137 0h115v684h363v-684h207q86 1 148 30.5t102 78.5q48 59 68.5 140.5t20.5 165.5q0 90 -22 171.5t-72 137.5q-42 46 -101 73t-144 28h-92v631h-115v-669h-363v669h-115v-1456zM730 722h92q58 -1 97.5 -22t64.5 -55q35 -44 46.5 -106t11.5 -122q0 -58 -10 -119.5
t-44 -108.5q-25 -36 -65 -58.5t-101 -23.5h-92v615z" />
    <glyph glyph-name="uni040B" unicode="&#x40b;" 
d="M996 1353v103h-928v-103h347v-1353h117v702q50 13 100 23.5t104 10.5q74 0 125.5 -23t84.5 -65t48 -101.5t15 -132.5v-414h118l1 414q0 99 -24 177.5t-72 133.5q-49 55 -122.5 84.5t-173.5 29.5q-53 0 -103 -10.5t-101 -23.5v548h464z" />
    <glyph glyph-name="uni040C" unicode="&#x40c;" 
d="M509 720l527 -720h146l-593 811l553 645h-150l-492 -572l-179 -203v775h-120v-1456h120v523zM722 1777l-184 -266h100l229 266h-145z" />
    <glyph glyph-name="uni040D" unicode="&#x40d;" 
d="M940 1456l-652 -1216l2 1216h-118v-1456h117l652 1219l-2 -1219h118v1456h-117zM666 1560l-177 266h-144l217 -266h104z" />
    <glyph glyph-name="uni040E" unicode="&#x40e;" 
d="M138 3q24 -8 61 -16t82 -8q75 0 131.5 22t99.5 60q42 37 74 86t57 102l571 1207h-141l-363 -792l-68 -154l-74 162l-403 784h-137l554 -1074l-54 -106q-18 -36 -41 -71t-53 -62q-31 -28 -70.5 -44.5t-89.5 -16.5q-30 0 -62 5.5t-55 11.5zM941 1838h-102
q-1 -39 -14.5 -70.5t-37.5 -53.5t-57.5 -34t-76.5 -12q-44 0 -78 11.5t-57 33.5q-24 22 -37.5 54t-14.5 71h-102q1 -59 23 -106.5t60 -81.5q38 -33 90.5 -51t115.5 -18t115.5 18t90.5 51q38 34 59.5 81.5t22.5 106.5z" />
    <glyph glyph-name="uni040F" unicode="&#x40f;" 
d="M175 1456v-1456h385v-354h118v354h377v1456h-118v-1353h-644v1353h-118z" />
    <glyph glyph-name="uni0410" unicode="&#x410;" 
d="M904 406l129 -406h120l-469 1456h-109l-473 -1456h120l130 406h552zM385 514l244 762l242 -762h-486z" />
    <glyph glyph-name="uni0411" unicode="&#x411;" 
d="M1052 1353v103h-875v-1456h419q103 1 187 30t144 82q60 54 92.5 130t32.5 172q0 95 -32.5 170.5t-92.5 128.5t-144 81t-187 29h-299v530h755zM297 720h299q77 0 139 -22t106 -62t67.5 -96t23.5 -124q0 -70 -23 -127.5t-67 -98.5q-43 -41 -105.5 -64t-140.5 -23h-299v617z
" />
    <glyph glyph-name="uni0412" unicode="&#x412;" 
d="M195 0h458q90 2 172.5 30t145.5 81q63 52 99.5 127.5t35.5 172.5q0 66 -21.5 123.5t-59.5 102.5q-38 44 -91.5 76.5t-112.5 45.5l-1 4q54 22 95.5 49.5t73.5 66.5q31 38 48.5 87t18.5 110q0 99 -39 170.5t-104 117.5t-148.5 68.5t-172.5 23.5h-397v-1456zM314 700h351
q64 -2 122 -22t103 -56q44 -38 70 -91.5t26 -121.5q0 -71 -26.5 -126.5t-72.5 -94.5q-45 -38 -105 -59.5t-127 -22.5h-341v594zM314 804v546h281q64 -1 125.5 -16.5t109.5 -47.5q48 -33 76.5 -84t28.5 -124q0 -69 -27.5 -120t-73.5 -84q-46 -35 -105 -52t-121 -18h-294z" />
    <glyph glyph-name="uni0413" unicode="&#x413;" 
d="M1065 1353v103h-875v-1456h120v1353h755z" />
    <glyph glyph-name="uni0414" unicode="&#x414;" 
d="M1103 -353l9 456h-109v1353h-606l-25 -525q-3 -84 -8.5 -166t-13.5 -157q-9 -81 -22 -153t-31 -131q-25 -81 -58.5 -136.5t-78.5 -84.5h-63l14 -457h103v354h780v-353h109zM492 931l17 422h377v-1250h-563q35 47 61 114.5t45 147.5q18 75 30 159.5t19 168.5q6 67 9 128.5
t5 109.5z" />
    <glyph glyph-name="uni0415" unicode="&#x415;" 
d="M963 698v105h-643v547h736v106h-855v-1456h860v106h-741v592h643z" />
    <glyph glyph-name="uni0416" unicode="&#x416;" 
d="M747 686l291 -686h144l-328 731l298 725h-137l-256 -667h-86v667h-115v-667h-89l-257 667h-137l297 -726l-327 -730h144l290 686h79v-686h115v686h74z" />
    <glyph glyph-name="uni0417" unicode="&#x417;" 
d="M97 404q2 -106 45.5 -186t114.5 -133q70 -53 160.5 -79.5t186.5 -26.5q103 0 197 26t166 77t116.5 130t44.5 184q0 79 -25 140t-70 106q-38 37 -88.5 62.5t-109.5 41.5q50 16 94 41t79 59q45 43 71 100.5t27 126.5q0 103 -39.5 179t-107.5 126q-69 50 -160.5 74
t-194.5 24q-95 0 -182 -27.5t-154 -78.5t-107.5 -125.5t-42.5 -169.5h119q2 70 33 125.5t81 94.5q50 38 115.5 58.5t137.5 20.5q81 0 150.5 -19t120.5 -57q52 -37 81.5 -92.5t29.5 -128.5q0 -57 -17.5 -102.5t-49.5 -78.5q-25 -27 -58 -45.5t-72 -30.5q-41 -13 -86.5 -19
t-94.5 -6h-183v-104h183q54 -1 104.5 -7t94.5 -20t81 -36.5t64 -55.5t41.5 -77.5t14.5 -102.5q0 -75 -31 -132.5t-84 -96.5q-56 -41 -131 -61t-158 -20q-79 0 -148.5 23t-121.5 65q-52 41 -83.5 101t-33.5 133h-120z" />
    <glyph glyph-name="uni0418" unicode="&#x418;" 
d="M940 1456l-652 -1216l2 1216h-118v-1456h117l652 1219l-2 -1219h118v1456h-117z" />
    <glyph glyph-name="uni0419" unicode="&#x419;" 
d="M940 1456l-652 -1216l2 1216h-118v-1456h117l652 1219l-2 -1219h118v1456h-117zM894 1832h-102q-1 -39 -14.5 -70.5t-37.5 -53.5t-57.5 -34t-76.5 -12q-44 0 -78 11.5t-57 33.5q-24 22 -37.5 54t-14.5 71h-102q1 -59 23 -106.5t60 -81.5q38 -33 90.5 -51t115.5 -18
t115.5 18t90.5 51q38 34 59.5 81.5t22.5 106.5z" />
    <glyph glyph-name="uni041A" unicode="&#x41a;" 
d="M514 685l540 -685h147l-585 740l544 716h-140l-505 -669h-186v669h-119v-1456h119v685h185z" />
    <glyph glyph-name="uni041B" unicode="&#x41b;" 
d="M1062 1456h-736l-20 -705q-1 -46 -4.5 -105t-10.5 -122q-8 -80 -22 -153.5t-36 -130.5q-25 -63 -61.5 -100t-86.5 -37h-36v-103h41q53 1 96.5 21.5t77.5 57.5q37 41 64.5 98.5t46.5 128.5q15 61 24.5 128.5t15.5 137.5q4 49 6.5 95t3.5 84l16 602h503v-1353h118v1456z
" />
    <glyph glyph-name="uni041C" unicode="&#x41c;" 
d="M321 1456h-154v-1456h117v645l-8 626l298 -833h78l323 848l-8 -641v-645h117v1456h-157l-313 -821z" />
    <glyph glyph-name="uni041D" unicode="&#x41d;" 
d="M1070 0v1456h-113v-653h-685v653h-112v-1456h112v698h685v-698h113z" />
    <glyph glyph-name="uni041E" unicode="&#x41e;" 
d="M1104 632v192q-1 74 -13.5 151.5t-37.5 150.5q-26 72 -65 136t-93 112q-54 47 -124 74.5t-157 27.5t-157 -27.5t-124 -74.5q-54 -49 -93 -112.5t-64 -136.5q-26 -72 -38.5 -149.5t-13.5 -151.5v-192q1 -75 14 -152t39 -149q25 -73 64.5 -136.5t93.5 -111.5t124 -75.5
t157 -27.5q86 0 156 27.5t124 75.5t93 111.5t64 135.5q25 73 37.5 150t13.5 152zM986 826v-194q-1 -58 -8.5 -120.5t-25.5 -122.5q-18 -61 -46 -115t-69 -95q-41 -42 -96 -66t-125 -24q-71 0 -125.5 24t-95.5 66q-42 41 -70.5 95.5t-46.5 114.5t-26 122.5t-9 120.5v194
q1 57 9 119t26 123q18 60 46 114t70 96q41 40 95.5 64.5t124.5 24.5t125 -24t96 -65t69.5 -95.5t46.5 -113.5q18 -61 26 -123t9 -120z" />
    <glyph glyph-name="uni041F" unicode="&#x41f;" 
d="M1055 0v1456h-881v-1456h118v1353h645v-1353h118z" />
    <glyph glyph-name="uni0420" unicode="&#x420;" 
d="M336 600h339q95 1 178.5 30t146.5 84q62 54 98.5 132.5t36.5 178.5q0 101 -36 180t-99 135q-62 55 -146 84.5t-179 31.5h-458v-1456h119v600zM336 703v650h339q72 -1 134.5 -24.5t108.5 -66.5q45 -43 71 -103.5t26 -135.5q0 -74 -26.5 -133t-72.5 -100t-108 -63.5
t-133 -23.5h-339z" />
    <glyph glyph-name="uni0421" unicode="&#x421;" 
d="M1100 442h-119q-12 -75 -38.5 -141t-69.5 -115q-44 -49 -106.5 -76.5t-145.5 -27.5q-72 0 -127 24t-96 65q-42 40 -70.5 93.5t-46.5 114.5q-19 59 -27 122t-9 122v212q1 59 9 121.5t27 122.5q18 60 47 113.5t70 93.5t96.5 63.5t126.5 24.5q83 0 145 -28.5t106 -77.5
q44 -50 70.5 -116t38.5 -141h119q-12 100 -48.5 185.5t-96.5 148.5q-61 62 -145 97t-189 34q-88 0 -158 -26.5t-124 -72.5q-55 -46 -95 -108.5t-66 -133.5t-39 -148.5t-14 -153.5v-210q1 -77 14 -153.5t39 -148.5q26 -71 65.5 -133t95.5 -108q54 -46 124.5 -73t157.5 -27
q104 0 187.5 35t144.5 98q60 61 97.5 146t49.5 183z" />
    <glyph glyph-name="uni0422" unicode="&#x422;" 
d="M1140 1350v106h-1046v-106h465l-1 -1350h117v1350h465z" />
    <glyph glyph-name="uni0423" unicode="&#x423;" 
d="M138 3q24 -8 61 -16t82 -8q75 0 131.5 22t99.5 60q42 37 74 86t57 102l571 1207h-141l-363 -792l-68 -154l-74 162l-403 784h-137l554 -1074l-54 -106q-18 -36 -41 -71t-53 -62q-31 -28 -70.5 -44.5t-89.5 -16.5q-30 0 -62 5.5t-55 11.5z" />
    <glyph glyph-name="uni0424" unicode="&#x424;" 
d="M674 1258v198h-119v-198q-104 -5 -191 -46.5t-151 -111.5q-63 -71 -98.5 -165.5t-35.5 -204.5q0 -111 35.5 -205.5t98.5 -164.5q64 -70 151 -111t191 -46v-203h119v203q104 4 191 46t151 113q63 70 98.5 164.5t35.5 205.5q0 110 -35.5 204t-98.5 164q-64 70 -151.5 111.5
t-190.5 46.5zM198 730q0 89 25 164.5t72 132.5q46 56 112 89.5t148 38.5v-849q-82 4 -148 37.5t-112 89.5q-47 56 -72 132t-25 165zM1031 732q0 -89 -25 -165.5t-71 -132.5q-47 -57 -113 -90.5t-148 -37.5v849q82 -4 147.5 -37.5t112.5 -88.5q47 -57 72 -132.5t25 -164.5z
" />
    <glyph glyph-name="uni0425" unicode="&#x425;" 
d="M629 835l-366 621h-141l439 -717l-453 -739h140l383 642l383 -642h139l-452 739l439 717h-142z" />
    <glyph glyph-name="uni0426" unicode="&#x426;" 
d="M195 1456v-1456h888v-351h108l9 456h-128v1351h-118v-1353h-641v1353h-118z" />
    <glyph glyph-name="uni0427" unicode="&#x427;" 
d="M1037 1456h-118v-691q-77 -25 -153.5 -41t-161.5 -16q-74 0 -128 22t-88 66q-36 43 -52.5 107t-17.5 150v403h-118l-1 -403q0 -110 26 -193.5t76 -140.5q51 -56 126.5 -85t176.5 -29q90 0 165.5 16t149.5 40v-661h118v1456z" />
    <glyph glyph-name="uni0428" unicode="&#x428;" 
d="M252 1456h-116v-1456h959v1456h-116v-1353h-305v1353h-117v-1353h-305v1353z" />
    <glyph glyph-name="uni0429" unicode="&#x429;" 
d="M254 1456h-116v-1456h927v-351h106l9 454h-83v1353h-116v-1353h-305v1353h-117v-1353h-305v1353z" />
    <glyph glyph-name="uni042A" unicode="&#x42a;" 
d="M47 1456v-103h366v-1353h327q98 1 175 32t130 87q52 55 79.5 130.5t27.5 164.5t-27.5 164t-79.5 129q-53 54 -130 84.5t-175 31.5h-209v633h-484zM531 720h209q73 0 128 -24t91 -65q36 -42 54 -97t18 -118q0 -64 -17.5 -121t-53.5 -99q-37 -43 -91.5 -68t-128.5 -25h-209
v617z" />
    <glyph glyph-name="uni042B" unicode="&#x42b;" 
d="M285 823v633h-116v-1456h270q94 1 164 33.5t117 88.5q46 56 69 131t23 161t-22.5 160.5t-68.5 129.5q-47 55 -117.5 86.5t-164.5 32.5h-154zM1077 0v1456h-116v-1456h116zM285 720h154q68 -1 116 -26t79 -67q30 -42 44 -96.5t14 -114.5q0 -61 -13.5 -117t-43.5 -99
q-31 -44 -79.5 -70.5t-116.5 -26.5h-154v617z" />
    <glyph glyph-name="uni042C" unicode="&#x42c;" 
d="M324 823v633h-119v-1456h417q103 1 187 30t144 82q60 54 93 130t33 172q0 95 -33 170.5t-93 128.5t-144 81t-187 29h-298zM324 720h298q78 0 140 -22t106 -62t67.5 -96t23.5 -124q0 -70 -23.5 -127.5t-66.5 -98.5q-44 -41 -106.5 -64t-140.5 -23h-298v617z" />
    <glyph glyph-name="uni042D" unicode="&#x42d;" 
d="M248 456h-119q5 -105 38.5 -192.5t94.5 -149.5q60 -64 145 -99t193 -35q114 0 202 43.5t151 121.5q69 85 104 202t35 244v275q-1 126 -36 245t-104 203q-63 75 -150.5 119t-201.5 44q-107 0 -192 -36.5t-145 -100.5q-61 -65 -95 -152t-39 -187h119q7 82 31.5 151
t68.5 118q43 49 105.5 76.5t146.5 27.5q88 0 155 -37t112 -99q54 -73 79 -171.5t26 -199.5v-84h-526v-102h526v-91q-1 -102 -26 -200t-79 -170q-46 -63 -112.5 -100t-154.5 -37q-84 0 -147 27.5t-106 76.5q-44 49 -68 117.5t-31 151.5z" />
    <glyph glyph-name="uni042E" unicode="&#x42e;" 
d="M1120 567v322q-1 116 -23.5 233.5t-79.5 210.5q-43 68 -108 105.5t-153 37.5q-93 0 -159.5 -45t-106.5 -119q-47 -86 -67.5 -199t-20.5 -224v-101h-154v668h-116v-1456h116v685h154v-118q0 -110 21 -224t69 -199q41 -74 107 -119t158 -45t159 43t110 116
q51 87 72.5 201.5t21.5 226.5zM1001 891v-324q0 -91 -13.5 -190t-48.5 -168q-29 -59 -74.5 -91t-107.5 -32q-66 0 -109.5 35.5t-71.5 97.5q-31 72 -42.5 166t-11.5 182v324q0 88 11.5 182t43.5 166q25 57 69 94t110 37q58 0 100.5 -26.5t68.5 -70.5q44 -74 60 -178.5
t16 -203.5z" />
    <glyph glyph-name="uni042F" unicode="&#x42f;" 
d="M915 0h120v1456h-423q-108 0 -197.5 -29t-152.5 -84q-64 -55 -99 -134.5t-35 -181.5q0 -75 22.5 -138t65.5 -113q31 -36 76.5 -68t121.5 -62l-338 -646h129l314 613h396v-613zM248 1029q0 77 25 137t73 102q47 41 114.5 63t151.5 22h303v-636h-336q-77 1 -138.5 24.5
t-103.5 64.5q-43 41 -66 98t-23 125z" />
    <glyph glyph-name="uni0430" unicode="&#x430;" 
d="M937 0h128v13q-14 49 -23.5 104.5t-10.5 109.5v523q-1 88 -33 154t-88 111q-56 43 -131 65t-161 22t-161.5 -24t-132.5 -66q-57 -43 -91 -101t-37 -127l120 -1q2 51 27 91.5t66 68.5q40 28 93 43t111 15q63 0 117.5 -16.5t94.5 -47.5t63 -77.5t24 -107.5v-122h-235
q-101 0 -193 -18.5t-161 -59.5q-70 -41 -111.5 -106.5t-41.5 -158.5q0 -69 28 -126t76 -96q48 -40 114 -62.5t141 -22.5q60 0 115.5 12.5t105.5 36.5q49 23 90.5 56.5t72.5 74.5q2 -42 7.5 -83t16.5 -77zM543 87q-53 0 -99 15t-80 42q-35 27 -54.5 66.5t-19.5 87.5
q-1 61 26 103t73 71q56 36 136 50t169 15h218v-237q-23 -48 -60 -87.5t-85 -67.5t-105 -43t-119 -15z" />
    <glyph glyph-name="uni0431" unicode="&#x431;" 
d="M629 1011q-59 0 -114 -13t-104 -38q-48 -25 -89.5 -61t-73.5 -80q15 92 47 168.5t81 134.5t116 95.5t152 51.5q78 14 135 28.5t105 43.5q50 30 81 81t33 131h-103q-1 -48 -26 -78.5t-64 -49.5t-88 -30t-97 -19q-102 -18 -183 -67t-139 -126q-42 -52 -72.5 -116.5
t-50.5 -137.5q-21 -75 -31 -158.5t-10 -171.5v-105q0 -108 34 -201.5t96 -163.5q62 -69 150.5 -109t198.5 -40q111 0 199 40t150 109q62 70 95 163.5t34 201.5v32q-1 104 -34 192.5t-93 153.5q-61 65 -145.5 102t-189.5 37zM611 908q84 0 150.5 -30t112.5 -82t71 -121.5
t26 -148.5v-32q-1 -83 -25 -158t-70 -131t-112 -89.5t-151 -33.5q-86 0 -152.5 33.5t-112.5 89.5t-70 131t-25 158v32q1 79 26 148t71 122q46 52 112 82t149 30z" />
    <glyph glyph-name="uni0432" unicode="&#x432;" 
d="M186 0h477q82 1 153 18.5t124 54.5q52 36 82.5 92.5t29.5 134.5q0 50 -16.5 92.5t-45.5 75.5q-30 33 -70.5 55t-90.5 33l-9 3q37 13 68.5 29.5t55.5 40.5q31 30 48 71t17 94q0 80 -33 135t-89 89q-58 33 -133.5 48.5t-159.5 15.5h-408v-1082zM306 498h357q55 0 104 -11.5
t86 -34.5q36 -24 58 -61t22 -88q0 -53 -20 -90.5t-55 -61.5q-37 -25 -87 -37t-108 -12h-357v396zM306 599v381h288q59 0 112.5 -8.5t93.5 -30.5q41 -21 65.5 -58t24.5 -93q0 -49 -18.5 -83t-50.5 -56q-37 -27 -91 -39t-119 -13h-305z" />
    <glyph glyph-name="uni0433" unicode="&#x433;" 
d="M1053 978v104h-855v-1082h122v978h733z" />
    <glyph glyph-name="uni0434" unicode="&#x434;" 
d="M182 103h-87l9 -421h105v318h812v-318h111l9 421h-113v979h-638l-18 -391q-6 -104 -18 -194t-33 -164q-22 -74 -56 -132t-83 -98zM491 691l13 279h405v-867h-567q40 56 66.5 123t43.5 142q16 74 25.5 156t13.5 167z" />
    <glyph glyph-name="uni0435" unicode="&#x435;" 
d="M655 -20q135 0 237 53t164 139l-76 58q-58 -72 -139 -110t-181 -38q-87 1 -158 35t-122 93q-50 56 -78.5 130t-32.5 160v33h810v73q0 103 -29.5 193.5t-85.5 158.5q-57 67 -140.5 105.5t-190.5 38.5q-102 0 -189.5 -42t-152.5 -116q-66 -74 -103.5 -174t-37.5 -216v-43
q0 -109 37 -205.5t104 -169.5q66 -72 159 -114t205 -42zM633 999q77 0 137 -29.5t102 -78.5q41 -49 64.5 -114t23.5 -130v-11h-685q10 78 40 144.5t77 115.5q46 48 107 75.5t134 27.5z" />
    <glyph glyph-name="uni0436" unicode="&#x436;" 
d="M749 499l304 -499h143l-350 557l309 525h-138l-261 -474h-91v474h-118v-474h-90l-261 474h-137l307 -525l-349 -557h143l302 499h85v-499h118v499h84z" />
    <glyph glyph-name="uni0437" unicode="&#x437;" 
d="M155 311q5 -85 46.5 -146.5t103.5 -100.5q68 -43 154.5 -63t172.5 -20q85 0 169.5 17.5t151.5 57.5q64 39 104.5 98.5t40.5 142.5q0 58 -19.5 102t-54.5 76q-33 29 -75.5 48.5t-92.5 31.5q40 13 76.5 31t64.5 43q37 32 58 73.5t22 92.5q0 86 -40 145t-105 96
q-62 34 -139.5 50t-160.5 16t-163 -19.5t-143 -57.5q-64 -39 -105 -97.5t-46 -137.5h122q0 50 28.5 88.5t74.5 65.5q50 28 111.5 42t120.5 14q60 0 118.5 -11.5t104.5 -35.5q45 -25 73 -63.5t28 -93.5q0 -43 -15.5 -74.5t-43.5 -53.5q-24 -19 -56 -31.5t-67 -19.5
q-33 -6 -68.5 -9t-69.5 -3h-205v-105h205q35 0 72 -2.5t73 -8.5q35 -7 67 -18.5t57 -29.5q34 -24 53 -59.5t19 -85.5q0 -56 -28.5 -95.5t-72.5 -65.5q-52 -27 -116.5 -40t-127.5 -13q-61 0 -124.5 14.5t-113.5 43.5q-52 28 -84.5 74t-32.5 97h-122z" />
    <glyph glyph-name="uni0438" unicode="&#x438;" 
d="M920 1082l-611 -892v892h-120v-1082h120l611 892v-892h120v1082h-120z" />
    <glyph glyph-name="uni0439" unicode="&#x439;" 
d="M920 1082l-611 -892v892h-120v-1082h120l611 892v-892h120v1082h-120zM901 1496h-102q-1 -39 -14.5 -70.5t-37.5 -53.5t-57.5 -34t-76.5 -12q-44 0 -78 11.5t-57 33.5q-24 22 -37.5 54t-14.5 71h-102q1 -59 23 -106.5t60 -81.5q38 -33 90.5 -51t115.5 -18t115.5 18
t90.5 51q38 34 59.5 81.5t22.5 106.5z" />
    <glyph glyph-name="uni043A" unicode="&#x43a;" 
d="M523 495l477 -495h160l-533 557l481 525h-154l-434 -479h-194v479h-121v-1082h121v495h197z" />
    <glyph glyph-name="uni043B" unicode="&#x43b;" 
d="M1031 1082h-703l-11 -477q-1 -45 -2 -95t-6 -99q-5 -54 -15.5 -103.5t-28.5 -87.5q-24 -52 -62.5 -81t-96.5 -29l-39 -1l-1 -109h43q89 1 148.5 36.5t96.5 99.5q28 49 45 112t26 134q6 55 8.5 112.5t3.5 110.5l10 373h463v-978h121v1082z" />
    <glyph glyph-name="uni043C" unicode="&#x43c;" 
d="M604 164l-302 918h-152v-1082h118v835l294 -835h83l288 811v-811h117v1082h-144z" />
    <glyph glyph-name="uni043D" unicode="&#x43d;" 
d="M1040 0v1082h-120v-484h-611v484h-120v-1082h120v496h611v-496h120z" />
    <glyph glyph-name="uni043E" unicode="&#x43e;" 
d="M132 557v-32q0 -111 33 -210t96 -173q61 -75 151 -118.5t204 -43.5q113 0 202.5 44t151.5 118q61 75 94 173.5t33 209.5v32q0 111 -33 210t-95 173q-62 75 -151.5 118.5t-203.5 43.5t-203 -44t-151 -118q-62 -75 -95 -174t-33 -209zM251 525v32q1 85 24.5 165t70.5 141
q45 62 112.5 99t155.5 37t155.5 -37t114.5 -99q45 -61 69 -141t25 -165v-32q-1 -86 -24.5 -166t-68.5 -141q-47 -62 -114 -99t-155 -37q-89 0 -157 37t-113 98q-47 62 -70.5 142t-24.5 166z" />
    <glyph glyph-name="uni043F" unicode="&#x43f;" 
d="M1040 0v1082h-851v-1082h120v978h611v-978h120z" />
    <glyph glyph-name="uni0440" unicode="&#x440;" 
d="M197 -416h119v547q24 -32 55.5 -58t67.5 -44q45 -24 96.5 -36.5t107.5 -12.5q109 0 189 46t132 122q51 76 77.5 176t26.5 206v21q-1 114 -28.5 218t-84.5 181q-54 71 -131.5 111.5t-183.5 40.5q-55 0 -106 -13t-95 -38q-37 -21 -69.5 -51t-56.5 -67l-5 149h-111v-1498z
M948 551v-21q-1 -83 -19.5 -165t-59.5 -146q-40 -60 -102.5 -98t-151.5 -38q-50 0 -97 13t-86 38q-38 23 -67.5 56.5t-48.5 75.5v528q19 46 49 83.5t69 64.5q37 26 82.5 40.5t96.5 14.5q87 0 148 -35t102 -91q44 -66 64.5 -150t20.5 -170z" />
    <glyph glyph-name="uni0441" unicode="&#x441;" 
d="M633 82q-96 0 -162.5 38t-107.5 100q-43 62 -62 140t-20 160v42q1 81 20 159t62 141q42 61 108 99t161 38q64 0 119.5 -21t97.5 -58q41 -38 65.5 -89.5t28.5 -112.5h114q-3 83 -36 154t-89 122q-57 51 -133.5 79.5t-166.5 28.5q-119 0 -207 -45t-146 -119
q-59 -76 -88 -173.5t-30 -202.5v-42q1 -105 30 -202.5t88 -171.5q59 -76 147 -121t207 -45q82 0 157.5 27t133.5 74q57 47 93 112t40 142h-114q-5 -58 -31 -105t-68 -79q-43 -34 -97.5 -51.5t-113.5 -17.5z" />
    <glyph glyph-name="uni0442" unicode="&#x442;" 
d="M1141 980v102h-1028v-102h445v-980h122v980h461z" />
    <glyph glyph-name="uni0443" unicode="&#x443;" 
d="M250 -437q70 0 123.5 23.5t94.5 60.5q40 37 70 84t52 96l559 1255h-136l-352 -824l-39 -94l-39 97l-372 821h-135l487 -1055l-74 -158q-16 -34 -38 -69t-52 -64t-67.5 -47t-83.5 -18q-18 0 -40.5 2t-45.5 5l-14 -101q21 -5 49.5 -9.5t52.5 -4.5z" />
    <glyph glyph-name="uni0444" unicode="&#x444;" 
d="M132 557v-32q0 -103 29 -196t83 -166t132.5 -120t178.5 -58v-401h119v401q100 10 178.5 57.5t133.5 120.5q53 72 82 165.5t29 196.5v32q0 102 -28.5 195.5t-82.5 166.5q-55 73 -133.5 120.5t-178.5 58.5v438h-119v-438q-100 -11 -178.5 -58.5t-132.5 -119.5
q-55 -74 -83.5 -167.5t-28.5 -195.5zM251 525v32q1 77 21 150t59 132q38 59 94 99.5t130 52.5v-901q-74 12 -130.5 52t-94.5 99q-39 59 -58.5 132.5t-20.5 151.5zM978 557v-32q-1 -79 -21 -152t-58 -132t-94.5 -99.5t-130.5 -52.5v902q74 -12 130 -52.5t95 -99.5
q38 -59 58 -132t21 -150z" />
    <glyph glyph-name="uni0445" unicode="&#x445;" 
d="M625 642l-335 440h-143l412 -531l-429 -551h144l352 460l354 -460h142l-429 551l412 531h-144z" />
    <glyph glyph-name="uni0446" unicode="&#x446;" 
d="M218 1082v-1082h814v-321h110l9 424h-110v979h-120v-979h-584v979h-119z" />
    <glyph glyph-name="uni0447" unicode="&#x447;" 
d="M1041 0v1082h-120v-523q-33 -14 -70.5 -24t-75.5 -16q-44 -7 -88.5 -10.5t-85.5 -4.5q-79 -1 -140 17t-101 58q-38 36 -58.5 93t-20.5 136v274h-120v-274q1 -107 30.5 -184t86.5 -126q56 -50 137.5 -73.5t185.5 -23.5q85 1 166 16t154 42v-459h120z" />
    <glyph glyph-name="uni0448" unicode="&#x448;" 
d="M255 1082h-117v-1082h954v1082h-117v-979h-300v979h-117v-979h-303v979z" />
    <glyph glyph-name="uni0449" unicode="&#x449;" 
d="M249 1082h-117v-1082h927v-321h106l9 424h-88v979h-117v-979h-300v979h-117v-979h-303v979z" />
    <glyph glyph-name="uni044A" unicode="&#x44a;" 
d="M381 0h376q86 1 156 26t120 69q49 44 76 106t27 137t-27 136t-77 105q-49 43 -119 67.5t-156 24.5h-257v411h-438v-103h319v-979zM500 569h257q60 -1 108 -19t82 -48q33 -32 51 -74.5t18 -92.5q0 -51 -17.5 -93.5t-51.5 -72.5q-33 -31 -81 -48.5t-109 -17.5h-257v466z
" />
    <glyph glyph-name="uni044B" unicode="&#x44b;" 
d="M282 671v411h-118v-1082h295q80 1 141 27.5t103 72.5t63.5 107t21.5 131q0 69 -21.5 129.5t-63.5 106.5q-42 44 -103.5 70t-140.5 27h-177zM1068 0v1082h-117v-1082h117zM282 569h177q53 -1 92.5 -21t65.5 -52q25 -32 38 -74t13 -87q0 -46 -12.5 -87.5t-38.5 -73.5
t-65 -51.5t-93 -19.5h-177v466z" />
    <glyph glyph-name="uni044C" unicode="&#x44c;" 
d="M309 671v411h-120v-1082h470q87 1 162 24t130 66t86.5 106t31.5 142t-31.5 141t-86.5 104q-56 43 -130.5 65.5t-161.5 22.5h-350zM309 569h350q61 -1 114 -17t92 -46t61.5 -73t22.5 -98t-22 -98t-61 -73q-39 -29 -92 -45t-115 -16h-350v466z" />
    <glyph glyph-name="uni044D" unicode="&#x44d;" 
d="M578 999q92 0 161 -32.5t116 -87.5t72 -127.5t29 -152.5h-525v-103h526q-3 -82 -27.5 -156.5t-70.5 -131.5q-47 -58 -116.5 -92t-163.5 -34q-66 0 -123.5 20.5t-100.5 57.5t-68.5 89.5t-26.5 117.5h-116q2 -87 36 -158t92 -122q57 -51 135.5 -79t171.5 -28
q121 0 214 43.5t156 118.5q63 74 95.5 172t33.5 206v42q-1 109 -33.5 207t-95.5 172t-156.5 117.5t-214.5 43.5q-84 0 -161.5 -26t-136.5 -74q-60 -47 -97 -113t-39 -145h116q2 61 29 108t72 80q43 33 100 50t117 17z" />
    <glyph glyph-name="uni044E" unicode="&#x44e;" 
d="M242 590v492h-117v-1082h117v487h189q4 -94 26.5 -186t66.5 -165q43 -69 108.5 -112.5t156.5 -43.5q93 0 159.5 45.5t110.5 119.5q45 79 66 179.5t21 200.5v32q0 94 -18.5 188.5t-58.5 170.5q-44 83 -112.5 134.5t-169.5 51.5q-87 0 -150.5 -40t-105.5 -104
q-43 -65 -69.5 -159.5t-29.5 -208.5h-190zM550 525v32q0 75 13 158t44 149q26 59 70 97t110 38q71 0 116.5 -41.5t73.5 -107.5q26 -63 37.5 -141.5t12.5 -151.5v-32q-1 -76 -14 -159t-42 -149q-27 -59 -71.5 -97t-110.5 -38q-69 0 -114 40t-71 102q-30 64 -42 145t-12 156z
" />
    <glyph glyph-name="uni044F" unicode="&#x44f;" 
d="M1008 1082h-466q-84 0 -157.5 -22t-126.5 -63q-54 -42 -85 -101.5t-31 -136.5q0 -116 66.5 -196.5t176.5 -109.5l-283 -453h133l273 436h380v-436h120v1082zM262 757q0 53 21.5 94t58.5 70q38 28 89 43t111 16h346v-441h-380q-56 1 -101 17t-77 45q-33 28 -50.5 68
t-17.5 88z" />
    <glyph glyph-name="uni0450" unicode="&#x450;" 
d="M655 -20q135 0 237 53t164 139l-76 58q-58 -72 -139 -110t-181 -38q-87 1 -158 35t-122 93q-50 56 -78.5 130t-32.5 160v33h810v73q0 103 -29.5 193.5t-85.5 158.5q-57 67 -140.5 105.5t-190.5 38.5q-102 0 -189.5 -42t-152.5 -116q-66 -74 -103.5 -174t-37.5 -216v-43
q0 -109 37 -205.5t104 -169.5q66 -72 159 -114t205 -42zM633 999q77 0 137 -29.5t102 -78.5q41 -49 64.5 -114t23.5 -130v-11h-685q10 78 40 144.5t77 115.5q46 48 107 75.5t134 27.5zM687 1245l-177 266h-144l217 -266h104z" />
    </font>
</defs>
</svg>
